<?xml version="1.0" standalone="no"?>
<!DOCTYPE svg PUBLIC "-//W3C//DTD SVG 1.1//EN" "http://www.w3.org/Graphics/SVG/1.1/DTD/svg11.dtd" >
<svg>
<metadata>
Created by FontForge 20120731 at Sat Jul  1 15:05:31 2017
 By U-Meowington\zoltan,S-1-5-21-1340762506-974568153-834349593-1001
Copyright (c) 2017 by Nasir Udin. All rights reserved.
</metadata>
<defs>
<font id="Parisien-Night" horiz-adv-x="381" >
  <font-face 
    font-family="Parisien-Night"
    font-weight="400"
    font-stretch="normal"
    units-per-em="1000"
    panose-1="0 0 0 0 0 0 0 0 0 0"
    ascent="750"
    descent="-250"
    x-height="495"
    cap-height="769"
    bbox="-358.758 -527 1047.73 1046.18"
    underline-thickness="50"
    underline-position="-50"
    unicode-range="U+000D-FB02"
  />
<missing-glyph horiz-adv-x="401" 
d="M354 501q5 -15 5 -469q0 -31 -30 -31h-2h-264q-13 0 -25 8t-12 21v88q-5 269 19 336q11 33 21 -17q18 -87 14 -318q11 22 82 146q-104 181 -81 196q12 8 39 -27.5t72 -113.5q66 113 90 144l-108 4q-72 6 -89 9q-17 5 -26 9t-4.5 9t30.5 7q6 1 89 8q38 3 118 5
q2 0 14.5 0.5t19 0.5t15.5 -4t13 -11zM305 412l-81 -147q66 -116 81 -149v296zM94 56h207q-26 12 -109 155q-75 -132 -98 -155z" />
    <glyph glyph-name="ff" unicode="ff" horiz-adv-x="548" 
d="M623 396q0 -18 -41.5 -27t-139.5 -12q27 -49 45.5 -136t22.5 -160q14 -288 -94 -288q-100 0 -114 254q-4 44 -5 97.5t-0.5 129t0.5 107.5q-3 0 -129 -4q29 -51 47 -141t21 -155q14 -288 -94 -288q-100 0 -114 254q-4 44 -5 96t-0.5 126t0.5 106q-11 -4 -17.5 16.5
t-4 42.5t12.5 22q8 0 11 1q0 37 4.5 74t16.5 76.5t29.5 68t47 43.5t66.5 7q40 -10 64.5 -49.5t28.5 -85.5q1 -11 -1 -20.5t-5.5 -14t-7.5 -3.5q-1 0 -2 0.5t-2.5 1.5t-2.5 2t-2 2.5l-2 3t-2.5 4t-3 4.5t-3 5t-3.5 5q-11 25 -37 53t-49 12q-22 -15 -34 -48t-14 -58.5
t-4 -83.5q19 0 96 -0.5t96 1.5q0 50 8 97.5t25.5 92t51 67t79.5 12.5q40 -10 64.5 -49.5t28.5 -85.5q1 -11 -1 -20.5t-5.5 -14t-7.5 -3.5q-1 0 -2 0.5t-2.5 1.5t-2.5 2t-2 2.5l-2 3t-2.5 4t-3 4.5t-3 5t-3.5 5q-11 26 -36.5 53t-49.5 12q-22 -15 -33.5 -46t-13.5 -51t-4 -77
q-1 -11 -1 -16q242 -5 242 -40zM135 -106q25 72 15 201.5t-45 206.5q1 -27 1.5 -124.5t6 -158.5t22.5 -125zM409 -106q25 72 15 201.5t-45 206.5q1 -27 1.5 -124.5t6 -158.5t22.5 -125z" />
    <glyph glyph-name="fi" unicode="fi" horiz-adv-x="438" 
d="M379 675q20 2 33.5 -16.5t11.5 -39.5q-2 -24 -26 -35.5t-48 -1.5q-21 10 -24 32q-2 20 15.5 39.5t37.5 21.5zM390 473q4 -5 5.5 -12t1 -13t-2 -21.5t-2.5 -25.5q-2 -31 -1.5 -99t-2.5 -123.5t-14 -102.5q-7 -34 -19 -54t-24 -18q-6 1 -10.5 6.5t-8 17.5t-5.5 22t-5 30
q-20 167 3 279q-52 -45 -137 -62q46 -80 63 -236q4 -40 4 -80.5t-5.5 -92t-28 -83.5t-59.5 -32q-100 0 -114 254q-5 61 -5 268h-2q-10 -3 -16 15q-11 32 -1 57q4 9 10 9q8 0 11 1q0 59 3.5 102t21 100t49.5 96q39 42 90 31q40 -10 64.5 -49.5t28.5 -85.5q1 -11 -1 -20.5
t-5.5 -14t-7.5 -3.5q-1 0 -2 0.5t-2.5 1.5t-2.5 2t-2 2.5l-2 3t-2.5 4t-3 4.5t-3 5t-3.5 5q-11 26 -40 57t-46 8q-21 -33 -33 -80t-14.5 -79t-4.5 -91q110 -3 252 97q19 12 31 0zM135 -106q3 14 8 35t6.5 28t3 23t0.5 32t-3 43q-16 147 -45 187q1 -17 1 -50q1 -21 1.5 -63.5
t1 -59t3 -48t8.5 -60.5t15 -67z" />
    <glyph glyph-name="fl" unicode="fl" horiz-adv-x="485" 
d="M488 120q4 0 5.5 -6t0 -17.5t-5.5 -25.5q-7 -26 -35.5 -48t-64.5 -22q-21 0 -35.5 11.5t-22.5 34.5t-12.5 45.5t-4.5 57.5t0.5 57.5t3 58t2.5 46.5q-42 -12 -151 -15q46 -80 63 -236q4 -40 4 -80.5t-5.5 -92t-28 -83.5t-59.5 -32q-100 0 -114 254q-5 61 -5 268h-2
q-10 -3 -16 15q-11 32 -1 57q4 9 10 9q8 0 11 1q0 59 3.5 102t21 100t49.5 96q39 42 90 31q40 -10 64.5 -49.5t28.5 -85.5q1 -11 -1 -20.5t-5.5 -14t-7.5 -3.5q-1 0 -2 0.5t-2.5 1.5t-2.5 2t-2 2.5l-2 3t-2.5 4t-3 4.5t-3 5t-3.5 5q-11 26 -40 57t-46 8q-21 -33 -33 -80
t-14.5 -79t-4.5 -91q158 -2 215 -19q5 86 14.5 239t13.5 221q2 36 12 42q7 2 22.5 -9.5t20.5 -30.5q8 -27 12.5 -66t6.5 -72.5t1 -93t-2 -90.5t-4.5 -103.5t-4.5 -96.5q-6 -85 -4.5 -156t20.5 -71q21 3 31.5 16t15.5 23.5t11 10.5zM135 -106q25 74 15 172t-45 176
q1 -36 1.5 -92t1.5 -85t7.5 -75t19.5 -96z" />
    <glyph glyph-name="tt" unicode="tt" horiz-adv-x="523" 
d="M599 528q31 -18 22 -33q-2 -2 -5.5 -3.5t-6.5 -2t-10 -1.5t-11 -2q-80 -11 -161 -43q-2 -25 -7.5 -86t-7.5 -96t-1.5 -86t7.5 -91q2 -7 4.5 -12t5 -7t4.5 -4t6 -0.5t5.5 2t6 4.5t6.5 5.5t7 7t7 7.5q22 30 29 27q18 -2 8 -42q-13 -50 -49 -72q-22 -13 -46 -7
q-40 10 -62 46.5t-26 89.5t-2.5 102.5t6.5 104.5t4 76h-2q-76 -22 -164 -26q-22 -250 -3 -302q4 -17 13 -20t18.5 4t18.5 19q3 3 7.5 9t6.5 8.5t5 5.5t5.5 4t5.5 0q6 -1 9.5 -12.5t0.5 -30.5q-4 -36 -32 -60t-66 -18q-36 6 -57 38.5t-26 83.5t-4.5 98.5t4 103t2.5 76.5
q-45 8 -70.5 22.5t-19.5 29.5q1 3 3 5t6 3.5t7.5 2.5t10 1.5t11.5 1t13.5 0.5h14.5h16h17q13 112 35 227q6 38 16 39q6 2 13.5 -7.5t13.5 -27.5q15 -44 16 -107t-4 -117q61 5 173 37q3 17 8 56.5t9.5 69.5t11.5 57q6 38 16 39q6 2 13.5 -7.5t13.5 -27.5q20 -59 14 -163
q4 1 20 4.5t21.5 4.5t20 3.5t22 3t21 0.5t22.5 -1.5t20 -5t20 -8.5z" />
    <glyph glyph-name="Fi" unicode="Fi" horiz-adv-x="645" 
d="M594 480q10 -6 11 -28t-2 -51q-2 -20 -3 -68t-2 -71q0 -130 -13 -186q-7 -34 -19 -54t-24 -18q-6 1 -10.5 6.5t-8 17.5t-5.5 22t-5 30q-8 69 -8 185q2 92 28 154q14 32 32 49.5t29 11.5zM765 747q7 -33 -117 -79q-208 -82 -444 -77q16 -50 18 -118.5t-3 -124.5
q149 8 182 8q80 2 88 -18q5 -14 -15 -30.5t-57 -29.5q-75 -28 -210 -34q-2 -7 -9 -41.5t-10 -46.5t-11 -42.5t-14 -45.5t-16.5 -39.5t-21.5 -39.5t-26.5 -31.5t-33.5 -27.5q-32 -21 -45 -6q-8 10 4 42q55 150 75 283q-21 0 -56 9.5t-62.5 26.5t-22.5 33q5 13 33 18t68.5 5.5
t51.5 2.5q12 142 8 254q-70 6 -139 39.5t-58 62.5q4 9 20 10.5t54 -1.5t62 -3q145 0 234 8t175 22.5t158 21.5q57 6 97 5.5t43 -16.5z" />
    <glyph glyph-name=".notdef" horiz-adv-x="401" 
d="M354 501q5 -15 5 -469q0 -31 -30 -31h-2h-264q-13 0 -25 8t-12 21v88q-5 269 19 336q11 33 21 -17q18 -87 14 -318q11 22 82 146q-104 181 -81 196q12 8 39 -27.5t72 -113.5q66 113 90 144l-108 4q-72 6 -89 9q-17 5 -26 9t-4.5 9t30.5 7q6 1 89 8q38 3 118 5
q2 0 14.5 0.5t19 0.5t15.5 -4t13 -11zM305 412l-81 -147q66 -116 81 -149v296zM94 56h207q-26 12 -109 155q-75 -132 -98 -155z" />
    <glyph glyph-name=".null" horiz-adv-x="0" 
 />
    <glyph glyph-name="nonmarkingreturn" horiz-adv-x="333" 
 />
    <glyph glyph-name="NULL" horiz-adv-x="0" 
 />
    <glyph glyph-name="NULL" horiz-adv-x="0" 
 />
    <glyph glyph-name="CR" unicode="&#xd;" horiz-adv-x="252" 
 />
    <glyph glyph-name="space" unicode=" " horiz-adv-x="252" 
 />
    <glyph glyph-name="exclam" unicode="!" horiz-adv-x="222" 
d="M139 97q20 2 33.5 -16.5t11.5 -39.5q-2 -24 -26 -35.5t-48 -1.5q-21 10 -24 32q-2 20 15.5 39.5t37.5 21.5zM159 697q38 -4 31 -125q-1 -15 -11 -287q-7 -122 -41 -122q-20 0 -34.5 41t-12.5 83q9 233 12 290q2 43 19 82.5t37 37.5z" />
    <glyph glyph-name="quotedbl" unicode="&#x22;" horiz-adv-x="300" 
d="M51 656q5 17 28.5 18.5t28.5 -16.5q11 -35 3 -91.5t-31 -94.5q-8 -11 -26.5 -10t-22.5 11q-3 10 -3 13t3 15t4 18q5 36 16 137zM247 658q11 -35 3 -91.5t-31 -94.5q-8 -11 -26.5 -10t-22.5 11q-3 10 -3 13t3 15t4 18q5 36 16 137q5 17 28.5 18.5t28.5 -16.5z" />
    <glyph glyph-name="numbersign" unicode="#" horiz-adv-x="502" 
d="M419 454q72 -13 68 -36q-4 -29 -83 -36l-32 -127q101 -6 97 -38q-8 -33 -115 -39l-16 -82q-7 -27 -11 -39.5t-9.5 -28.5t-10.5 -21.5t-10 -4.5q-22 4 -20 109l4 67h-114q-10 -37 -16 -82q-7 -27 -11 -39.5t-9.5 -28.5t-10.5 -21.5t-10 -4.5q-22 4 -20 109q2 57 4 69
q-87 8 -83 37q4 27 92 37q13 81 25 125q-27 2 -49 6t-37 13t-13 20q2 18 40 28.5t82 10.5q27 84 66 162q6 13 10.5 19t9.5 5q10 -1 15 -33q-5 -85 -20 -153h106q28 84 66 162q6 13 10.5 19t9.5 5q13 -1 16 -33q-4 -78 -21 -156zM185 256h106q14 85 25 123h-101
q-13 -61 -30 -123z" />
    <glyph glyph-name="dollar" unicode="$" horiz-adv-x="476" 
d="M389 309q48 -40 48 -119q0 -67 -54.5 -113t-138.5 -59q-8 -35 -16 -60.5t-16.5 -39.5t-15.5 -13q-16 3 -18 109q-62 2 -103 48t-47 114q0 37 14 39q5 1 11 -6.5t15 -22.5q35 -72 114 -79q0 2 3 191q-52 22 -84.5 48t-49.5 72q-29 84 14 151t131 90q4 48 12 91
q5 17 12 25.5t12 6.5q11 -3 15 -37q8 -50 11 -77h7q68 0 124.5 -45.5t56.5 -110.5q0 -17 -5 -28t-11 -11t-13.5 11.5t-22.5 30.5t-35 33q-39 27 -88 27h-3q9 -86 7 -214q80 -24 114 -52zM143 448q13 -33 42 -51q0 89 4 157q-67 -36 -46 -106zM259 111q92 15 92 79
q0 45 -43 67l-35 12q-5 -92 -14 -158z" />
    <glyph glyph-name="percent" unicode="%" horiz-adv-x="805" 
d="M327 459q-4 -34 -11.5 -64.5t-24 -64t-47 -53t-71.5 -19.5q-43 0 -71.5 23.5t-37 57.5t-11.5 71.5t4 65.5q5 35 15 66.5t35 63.5t60 38q20 5 36 -2q7 9 24 10q32 3 54 -18t31.5 -54t13 -64.5t1.5 -56.5zM258 464q0 2 1.5 21t2 27t0.5 26.5t-2.5 29t-7 24t-12.5 22.5
t-19 15q1 -3 -4.5 -6t-11 -4t-8.5 -1q-8 -2 -15.5 -6.5t-13 -9t-10.5 -13t-8.5 -14t-7 -17t-5 -17t-4 -19t-3.5 -17.5t-3 -18.5t-2 -16.5q-19 -148 48 -148q72 3 85 142zM651 388q32 3 54 -18t31.5 -54t13 -64.5t1.5 -56.5q-4 -34 -11.5 -64.5t-24 -64t-47 -53t-71.5 -19.5
q-43 0 -71.5 23.5t-37 57.5t-11.5 71.5t4 65.5q5 35 15 66.5t35 63.5t60 38q20 5 36 -2q7 9 24 10zM682 200q0 2 1.5 21t2 27t0.5 26.5t-2.5 29t-7 24t-12.5 22.5t-19 15q1 -3 -4.5 -6t-11 -4t-8.5 -1q-8 -2 -15.5 -6.5t-13 -9t-10.5 -13t-8.5 -14t-7 -17t-5 -17t-4 -19
t-3.5 -17.5t-3 -18.5t-2 -16.5q-19 -148 48 -148q72 3 85 142zM593 681q13 -1 5 -37q-43 -117 -154 -315t-139 -256q-29 -52 -48.5 -79t-30.5 -25q-8 2 -9 16t5.5 40t20.5 58q56 138 141.5 293t177.5 278q22 28 31 27z" />
    <glyph glyph-name="ampersand" unicode="&#x26;" horiz-adv-x="611" 
d="M472 153q30 -35 50.5 -70t27 -55.5t1.5 -26.5q-5 -5 -23.5 5t-49.5 33.5t-66 56.5q-83 -83 -161 -101q-104 -25 -164.5 18.5t-39.5 141.5q3 13 7.5 25.5t8.5 23t11.5 23t12 19.5t15 19.5t14.5 18t17.5 18.5t16.5 16t18 17.5t17 16.5q-35 39 -50.5 87.5t-8 93.5t31.5 83.5
t70.5 61t105.5 21.5q70 -2 109.5 -64t13.5 -128q-15 -36 -38.5 -68.5t-40 -49.5t-56.5 -55q26 -39 96 -122q44 40 91 110q27 39 32 41q2 1 4 0q7 -2 8.5 -15.5t-2.5 -36t-13.5 -49t-26.5 -56t-39 -53.5zM295 611q-41 -8 -59.5 -42.5t-9.5 -78.5t41 -80q8 7 25.5 21.5
t29 26.5t22.5 29q17 26 21 56.5t-13.5 51.5t-56.5 16zM138 144q-14 -71 49 -71q58 1 129 50q21 15 36 31q-56 55 -115 128q-27 -25 -41.5 -40t-32.5 -42.5t-25 -55.5z" />
    <glyph glyph-name="quotesingle" unicode="'" horiz-adv-x="203" 
d="M73 656q5 17 28.5 18.5t28.5 -16.5q11 -35 3 -91.5t-31 -94.5q-8 -11 -26.5 -10t-22.5 11q-3 10 -3 13t3 15t4 18q5 36 16 137z" />
    <glyph glyph-name="parenleft" unicode="(" horiz-adv-x="284" 
d="M201 615q-31 -113 -45 -177.5t-19 -145.5t11.5 -158t53.5 -173q26 -64 14 -74q-9 -6 -33 6.5t-43 37.5q-67 85 -88 216.5t2.5 261.5t80.5 230q15 26 37 42t32 10q16 -9 -3 -76z" />
    <glyph glyph-name="parenright" unicode=")" horiz-adv-x="272" 
d="M77 -39q30 78 45 145.5t19.5 122t-4.5 121.5t-21.5 121t-37.5 144q-19 67 -3 76q10 6 32 -10t37 -42q56 -100 79.5 -230t2.5 -261t-87 -217q-19 -25 -43 -37.5t-33 -6.5q-12 10 14 74z" />
    <glyph glyph-name="asterisk" unicode="*" horiz-adv-x="474" 
d="M440 540q0 -39 -136 -39q67 -117 34 -137q-33 -18 -101 99q-68 -117 -102 -99q-33 21 35 137q-136 0 -136 39t136 39q-68 116 -35 137q34 18 102 -99q67 118 101 99q33 -20 -34 -137q136 0 136 -39z" />
    <glyph glyph-name="plus" unicode="+" horiz-adv-x="560" 
d="M331 344q204 0 204 -44q0 -45 -206 -45q-2 -108 -13.5 -159t-34.5 -50q-46 1 -41 209q-213 0 -213 45q0 44 215 44q2 108 13.5 159.5t35.5 50.5q45 -1 40 -210z" />
    <glyph glyph-name="comma" unicode="," horiz-adv-x="150" 
d="M138 82q10 -54 -10 -107.5t-68 -78.5q-19 -10 -34 -9.5t-20 10.5q-5 13 14 46q3 5 12.5 18.5t12 18t9 17t9.5 22t6.5 25.5t6.5 36q4 17 30.5 18.5t31.5 -16.5z" />
    <glyph glyph-name="hyphen" unicode="-" horiz-adv-x="371" 
d="M112 309h136q28 0 57.5 -10t29.5 -29t-29.5 -29t-57.5 -10h-136q-28 0 -57.5 10t-29.5 29t29.5 29t57.5 10z" />
    <glyph glyph-name="period" unicode="." horiz-adv-x="196" 
d="M86 97q20 2 33.5 -16.5t11.5 -39.5q-2 -24 -26 -35.5t-48 -1.5q-21 10 -24 32q-2 20 15.5 39.5t37.5 21.5z" />
    <glyph glyph-name="slash" unicode="/" horiz-adv-x="274" 
d="M268 644q-23 -117 -99.5 -316.5t-93.5 -254.5q-20 -52 -34.5 -79t-25.5 -25q-24 5 -5 121q52 298 220 564q5 8 7.5 11.5t6.5 8t6.5 6t5.5 1.5q14 -2 12 -37z" />
    <glyph glyph-name="zero" unicode="0" horiz-adv-x="491" 
d="M309 698q52 4 88.5 -32.5t52 -95.5t20.5 -113.5t2 -100.5q-5 -56 -21 -113t-44.5 -114t-77 -93t-109.5 -36q-43 -2 -78 16.5t-56 50.5t-36 73.5t-19.5 85t-6.5 85.5t4 75q5 42 16.5 86t32.5 90t55.5 79.5t76.5 41.5q35 7 60 -3q8 14 40 18zM376 365q2 45 3.5 100
t-19.5 112.5t-62 78.5q3 -5 -1.5 -8.5t-12.5 -5.5t-15 -3t-10 -1q-32 -9 -57.5 -37t-40.5 -68.5t-23.5 -78.5t-13.5 -79q-4 -34 -3.5 -74t6.5 -90t30 -82.5t62 -32.5q122 4 157 269z" />
    <glyph glyph-name="one" unicode="1" horiz-adv-x="293" 
d="M200 704q60 -4 60 -101q-28 -354 -32 -420q-4 -76 -18 -134t-37 -58q-24 0 -35 63t-7 134q8 125 35 435q-52 -9 -60 4q-18 25 24 52.5t70 24.5z" />
    <glyph glyph-name="two" unicode="2" horiz-adv-x="575" 
d="M548 76q3 -16 -12 -28t-46.5 -19.5t-69 -12.5t-90 -7.5t-98.5 -3.5t-105 -1q-39 0 -66.5 21t-27.5 63q0 44 126 127l9 6q8 6 35 23t40 26t38.5 28t39.5 32.5t33.5 34t30 38.5t19 41t9.5 46q6 56 -26 84.5t-78.5 28t-95.5 -19t-76 -49.5q-20 -20 -36.5 -48.5t-25.5 -43.5
t-16 -14q-16 0 -16 43q0 72 50 131.5t126 84.5t148 4q69 -18 108.5 -76.5t33.5 -132.5q-3 -44 -21 -85.5t-41 -71t-61 -63t-67 -54t-74.5 -51.5t-68.5 -48q6 -1 26.5 -3.5t39.5 -4.5t63 -3.5t101 -1.5q138 0 142 -20z" />
    <glyph glyph-name="three" unicode="3" horiz-adv-x="536" 
d="M528 253q19 -68 -24 -128.5t-113.5 -93t-137.5 -32.5q-62 -2 -124.5 24.5t-101.5 74.5q-24 31 -15 43q6 6 21.5 0.5t47 -19t57.5 -20.5q52 -16 111 -12q62 5 126.5 43.5t59.5 95.5q-5 19 -22 33t-44.5 21t-50 11t-54 7t-40.5 4q-38 -4 -52.5 -3t-25.5 14q-19 25 -14 44
t26 25q64 11 131.5 66t63.5 110q-4 43 -61 53.5t-109 -14.5q-25 -11 -51 -28.5t-39 -25t-19 -4.5q-15 6 1 46q23 59 91 87.5t137 19.5q49 -7 91 -35.5t53 -74.5q26 -94 -95 -198q146 -31 176 -134z" />
    <glyph glyph-name="four" unicode="4" horiz-adv-x="514" 
d="M490 253q0 -21 -55 -36q-2 -28 -1.5 -79.5t-0.5 -81.5q0 -4 -1 -13t-1.5 -12.5l-1.5 -10.5t-2 -10.5t-3 -7.5t-4.5 -6.5t-5.5 -4.5q-11 -5 -27 8.5t-27 40.5q-29 61 -22 159q-100 -8 -182 2q-90 9 -121 54q-42 70 60 251q5 10 8 15q49 92 83 138.5t52 37.5q24 -11 6 -83
q-4 -15 -23.5 -55t-39 -81t-34.5 -82t-10.5 -69t32.5 -31q32 -4 103 -4q47 0 71 -1q6 67 30 236q8 47 27.5 108t38.5 61t27 -41t6.5 -81.5t-4.5 -60.5q-22 -154 -29 -230q51 -12 51 -30z" />
    <glyph glyph-name="five" unicode="5" horiz-adv-x="591" 
d="M301 588q-58 -1 -124 10q0 -50 -5 -94q102 19 188.5 0.5t142 -79.5t55.5 -158q0 -102 -78 -184.5t-206 -82.5q-109 0 -178.5 67.5t-44.5 158.5q5 17 13.5 25.5t15.5 6.5q10 -4 16 -37q8 -38 26.5 -64t46.5 -39t57 -18t67 -5q80 0 132 52.5t35 134.5q-12 67 -68 104
t-128 35q-34 -3 -124 -26q-25 -8 -40 0t-37 35q-2 3 -2 6t1.5 7.5t3.5 9t6 13t7 16.5q7 20 19 63.5t21 68.5q-29 11 -44.5 24t-11.5 22q2 5 9.5 8t19 4t20.5 1t21 -0.5t14 -0.5q12 8 19 0q42 -5 76 -6.5t72.5 1.5t52.5 4t63.5 9t58.5 9q10 2 23.5 4.5t21 4t16 2t13.5 -1
t8 -4.5q7 -10 -9 -29q-58 -70 -261 -77z" />
    <glyph glyph-name="six" unicode="6" horiz-adv-x="495" 
d="M331 475q72 -28 118 -96.5t46 -150.5q-4 -96 -71.5 -168.5t-167.5 -78.5q-116 -11 -182 78t-64 215q3 112 78 250t172 172q40 16 47 -2q3 -8 -22 -36q-71 -75 -122.5 -182t-55.5 -205q-2 -47 9.5 -90t45.5 -75.5t87 -28.5q71 6 116.5 62.5t28.5 128.5q-11 50 -50 94.5
t-88 46.5q-28 3 -77 -18q-35 -16 -41 -10q-13 9 13 44q29 41 81 54t99 -4z" />
    <glyph glyph-name="seven" unicode="7" horiz-adv-x="463" 
d="M407 704q82 -2 88 -68q0 -31 -28.5 -99.5t-73 -162.5t-62.5 -138q-54 -139 -70 -174q-20 -44 -34 -65.5t-26 -18.5q-26 6 -12 104q9 65 41 150.5t86 206t74 169.5q-32 1 -91 -0.5t-107.5 0t-88.5 8.5q-44 7 -71 21t-24 27q5 21 97 26q56 2 158.5 8.5t143.5 5.5z" />
    <glyph glyph-name="eight" unicode="8" horiz-adv-x="483" 
d="M275 419q95 -53 129 -83q64 -59 64 -135q0 -93 -56 -145.5t-168 -52.5q-83 0 -138 46.5t-69 109.5t11 132t88 111q-26 15 -40.5 49.5t-14.5 70.5q6 70 57.5 123t125.5 63q82 12 137 -37t51 -136q-6 -58 -35 -114q-22 -39 -35 -34q-9 4 -5 47q8 68 5 101q-6 65 -50 83
q-22 8 -50.5 2.5t-52.5 -20.5t-41.5 -36.5t-17 -44.5t19.5 -45q16 -15 85 -55zM378 204q0 36 -24 65t-53 44t-74 35.5t-66 33.5q-38 -46 -42 -112.5t33.5 -117t106.5 -50.5q119 0 119 102z" />
    <glyph glyph-name="nine" unicode="9" horiz-adv-x="475" 
d="M447 445q3 -46 -5 -105t-30 -124t-54 -116.5t-83.5 -79.5t-112.5 -15q-62 14 -100 71q-27 36 -14 45q6 6 42 -15q55 -31 83 -32q40 -3 73.5 28t55 82.5t34 96t19.5 88.5q-42 -60 -103 -92.5t-124 -6.5q-66 27 -90.5 99t-5.5 147q21 84 96 145.5t161 53.5q76 -9 107 -66
q23 -42 8 -48q-8 -4 -39 21q-39 27 -79 23q-56 -4 -104.5 -48.5t-62.5 -103.5q-4 -24 -5 -51t11.5 -52.5t35.5 -35.5q29 -12 57.5 2.5t51 47.5t36.5 61t24 56q8 25 24.5 41.5t39.5 7.5q53 -22 53 -125z" />
    <glyph glyph-name="colon" unicode=":" horiz-adv-x="189" 
d="M67 336q-21 10 -24 32q-2 20 15.5 39.5t37.5 21.5t33.5 -16.5t11.5 -39.5q-2 -24 -26 -35.5t-48 -1.5zM96 97q20 2 33.5 -16.5t11.5 -39.5q-2 -24 -26 -35.5t-48 -1.5q-21 10 -24 32q-2 20 15.5 39.5t37.5 21.5z" />
    <glyph glyph-name="semicolon" unicode=";" horiz-adv-x="225" 
d="M114 429q20 2 33.5 -16.5t11.5 -39.5q-2 -24 -26 -35.5t-48 -1.5q-21 10 -24 32q-2 20 15.5 39.5t37.5 21.5zM144 82q10 -54 -10 -107.5t-68 -78.5q-19 -10 -34 -9.5t-20 10.5q-5 13 14 46q3 5 12.5 18.5t12 18t9 17t9.5 22t6.5 25.5t6.5 36q4 17 30.5 18.5t31.5 -16.5z
" />
    <glyph glyph-name="less" unicode="&#x3c;" horiz-adv-x="496" 
d="M185 270l121 -79q68 -37 118 -82t41 -62q-18 -32 -217 77l-185 103q-29 8 -35 56q-2 8 19.5 21t118.5 63q49 25 79 41q78 40 144.5 63t75.5 6q10 -18 -41.5 -59.5t-122.5 -78.5z" />
    <glyph glyph-name="equal" unicode="=" horiz-adv-x="692" 
d="M267 419h205q48 0 85.5 -11t35.5 -30q-3 -20 -43.5 -30.5t-88.5 -10.5h-205q-29 0 -57 4t-47 14t-17 23q2 19 43.5 30t88.5 11zM249 218h205q48 0 85.5 -11t35.5 -30q-3 -19 -43.5 -30t-88.5 -11h-205q-29 0 -57 4t-47 14t-17 23q2 19 43.5 30t88.5 11z" />
    <glyph glyph-name="greater" unicode="&#x3e;" horiz-adv-x="516" 
d="M49 47q-9 17 41 62t118 82l121 79l-116 69q-71 37 -122.5 78.5t-41.5 59.5q8 17 76.5 -6.5t143.5 -62.5q193 -100 207 -110q11 -9 10 -15q-6 -48 -35 -56l-185 -103q-199 -109 -217 -77z" />
    <glyph glyph-name="question" unicode="?" horiz-adv-x="397" 
d="M185 97q20 2 33.5 -16.5t11.5 -39.5q-2 -24 -26 -35.5t-48 -1.5q-21 10 -24 32q-2 20 15.5 39.5t37.5 21.5zM390 576q7 -39 -5 -74t-35 -65t-49 -58.5t-50.5 -67.5t-35.5 -79q-5 -19 -8 -28t-7.5 -20t-9 -15.5t-9.5 -4.5q-11 -1 -22 23t-10 59q1 41 19 79.5t41.5 67.5
t46 56t35 54t7.5 52q-9 48 -52.5 65t-92 1t-72.5 -54q-9 -11 -19 -26t-15.5 -22.5t-11.5 -7.5q-11 0 -16 24q-11 57 35 111.5t103 64.5q49 8 98 -4t87.5 -46.5t47.5 -84.5z" />
    <glyph glyph-name="at" unicode="@" horiz-adv-x="779" 
d="M349 591q177 36 284.5 -60t93.5 -285q-10 -76 -51.5 -135.5t-114.5 -59.5q-61 0 -85 58l-24.5 -24.5t-22.5 -17t-33 -15.5q-71 -18 -125 19t-62 112q-8 96 73.5 174t180.5 66q32 -3 51 -13.5t17 -20.5q-1 -6 -8.5 -8.5t-28 -5.5t-29.5 -5q-71 -14 -126 -62t-50 -119
q3 -36 29 -51.5t67 -4.5q18 6 30 16.5t17 19t13.5 27.5t14.5 30q8 42 23 84q7 21 20.5 34.5t20.5 12.5q9 -4 4 -54t0 -127q0 -23 11.5 -43t33.5 -18q44 0 63.5 43.5t19.5 96.5q2 148 -70.5 216t-218.5 40q-107 -21 -167.5 -106.5t-60.5 -201.5q15 -249 211 -259
q46 -3 125 10q51 8 54 1q3 -10 -45 -32q-68 -29 -134 -32q-82 -6 -150.5 36t-107 115.5t-38.5 159.5q0 137 80 248.5t215 140.5z" />
    <glyph glyph-name="A" unicode="A" horiz-adv-x="568" 
d="M485 328q114 -9 110 -57q-2 -24 -31.5 -34t-67.5 -7v-1q9 -66 11 -149v-7v-13.5v-16t-1 -17t-3 -14.5t-5 -11t-8 -3q-27 0 -56 67q-23 61 -36 173l-195 16q-41 -145 -71 -207q-16 -32 -31.5 -49.5t-27.5 -12.5q-20 9 -12 83q6 59 44 194q-58 6 -89 20t-29 39q4 48 146 36
q3 10 13 44t16 54t17.5 57t21 60.5t23 55t26.5 51.5t27.5 39t31 28t33.5 9q24 0 44 -18.5t34 -54.5t24.5 -70t18 -85.5t11 -79.5t7.5 -72.5t4 -46.5zM232 349l155 -13q-2 20 -7 71.5t-8.5 79.5t-11.5 70.5t-19 77.5q-63 -104 -109 -286z" />
    <glyph glyph-name="B" unicode="B" horiz-adv-x="729" 
d="M557 383q65 -20 110.5 -67.5t45.5 -114.5q0 -52 -20 -97t-53.5 -77.5t-78 -56t-93 -34t-100 -8.5t-96.5 17q-35 -49 -98.5 -67.5t-120.5 10.5q-37 23 -49 64t8.5 79t66.5 51q45 6 68.5 2t68.5 -18q8 41 6.5 101.5t-7.5 114.5t0 118t31 113q11 20 21 29.5t16 7.5
q11 -5 6 -49q-7 -95 10.5 -243t9.5 -223q41 -18 94 -11.5t100.5 25t80 59.5t32.5 92q0 26 -25 48.5t-62.5 36.5t-74 22.5t-65.5 10.5q-2 0 -15 1t-16 1.5t-13 2.5t-14.5 5t-11.5 8.5t-13 12.5q-12 36 6 54q10 14 80 26t93 24q47 26 60 69t-24 87q-32 37 -95 46.5t-118 -7.5
q-68 -19 -118.5 -65.5t-70.5 -113.5q-3 -10 -10 -50t-14.5 -71.5t-15.5 -31.5q-18 0 -29.5 58.5t-3.5 110.5q21 141 136.5 214t258.5 52q68 -11 123.5 -50.5t73.5 -103.5q18 -60 -4.5 -116.5t-76.5 -97.5zM103 -28q14 -8 32 -5t33 13q-5 1 -20 5.5t-21 5t-21 -1.5
q-21 -6 -3 -17z" />
    <glyph glyph-name="C" unicode="C" horiz-adv-x="541" 
d="M44 455q28 59 72.5 115t101 102.5t126 68.5t135.5 8q54 -12 85 -57.5t25 -102.5q-6 -84 -76 -165q-28 -30 -42 -22q-5 3 -5.5 15.5t3 31t7 35t8 34.5l5.5 22q10 57 -8 84t-75 18q-84 -15 -153.5 -78.5t-106.5 -151.5q-21 -51 -24.5 -111.5t11 -115t54.5 -94.5t99 -47
q42 -4 86.5 1.5t70 13t51 10.5t29.5 -7q2 -42 -83.5 -86.5t-180.5 -35.5q-81 9 -141.5 60t-88.5 124t-25.5 161.5t40.5 169.5z" />
    <glyph glyph-name="D" unicode="D" horiz-adv-x="623" 
d="M413 730q61 -21 108.5 -69.5t71.5 -108.5t33 -129t-7 -131q-22 -97 -101 -182.5t-189 -127t-209 -12.5q-11 -19 -22 -14.5t-15 27.5q-24 10 -59.5 42.5t-18.5 49.5q3 3 8 4t12.5 -0.5t14 -3t18.5 -5t20 -5.5q3 55 14 159.5t14 159.5t-4 177q-15 -8 -40.5 -47.5t-49.5 -72
t-39 -27.5q-13 3 -14 30.5t11 67.5q26 88 98 149t160.5 77.5t184.5 -8.5zM525 314q20 96 -17 193.5t-127 131.5q-59 20 -120.5 9.5t-113.5 -47.5q35 -64 41.5 -170.5t-4.5 -197t-32 -179.5q122 -6 228 66.5t145 193.5z" />
    <glyph glyph-name="E" unicode="E" horiz-adv-x="511" 
d="M533 660q3 -7 5.5 -17.5t1 -23t-10.5 -13.5q-5 0 -10 3t-13 9.5t-13 10.5q-71 42 -205 16q-65 -13 -118.5 -49t-53.5 -94q0 -138 303 -138q13 0 18.5 -11t3.5 -27q-2 -17 -11.5 -29.5t-26.5 -19.5t-29.5 -10.5t-36 -7.5t-30.5 -6q-46 -8 -90 -40t-39 -74
q6 -47 57.5 -67.5t121.5 -13.5q37 3 72.5 15.5t45 18.5t22.5 0q9 -11 -7.5 -33.5t-49 -44.5t-64.5 -31q-40 -13 -90.5 -10.5t-95 15.5t-78.5 47t-43 84q-17 103 71 180q-61 24 -98.5 80.5t-35.5 125.5q0 99 80 164.5t185 78.5q78 10 152 -9t110 -79z" />
    <glyph glyph-name="F" unicode="F" horiz-adv-x="476" 
d="M765 747q7 -33 -117 -79q-208 -82 -444 -77q16 -50 18 -118.5t-3 -124.5q149 8 182 8q80 2 88 -18q5 -14 -15 -30.5t-57 -29.5q-75 -28 -210 -34q-2 -7 -9 -41.5t-10 -46.5t-11 -42.5t-14 -45.5t-16.5 -39.5t-21.5 -39.5t-26.5 -31.5t-33.5 -27.5q-32 -21 -45 -6
q-8 10 4 42q55 150 75 283q-21 0 -56 9.5t-62.5 26.5t-22.5 33q5 13 33 18t68.5 5.5t51.5 2.5q12 142 8 254q-70 6 -139 39.5t-58 62.5q4 9 20 10.5t54 -1.5t62 -3q145 0 234 8t175 22.5t158 21.5q57 6 97 5.5t43 -16.5z" />
    <glyph glyph-name="G" unicode="G" horiz-adv-x="628" 
d="M554 689q30 -23 50 -47.5t25.5 -41t-0.5 -22.5t-19.5 -1t-44 22t-50.5 26q-49 22 -97 26q-116 9 -202 -86.5t-92 -219.5q-4 -103 61 -189t155 -86q26 0 55 11t35 24q-22 70 -26 127q-3 63 24.5 109.5t86.5 41.5q46 -8 75 -52.5t33 -97.5q7 -87 -85 -172q8 -24 9 -58
t-5 -71.5t-21 -73t-36.5 -63t-55 -41t-72.5 -6.5q-37 6 -36 21q0 10 32 23q65 28 83.5 78.5t11.5 135.5q-72 -32 -119 -32q-127 0 -217 113t-84 262q3 75 35 150.5t84 134t127 90t156 18.5q65 -11 124 -53zM505 284q-14 -30 6 -111q36 47 -6 111z" />
    <glyph glyph-name="H" unicode="H" horiz-adv-x="494" 
d="M483 -7q2 -6 5.5 -15.5t5 -15t4 -12.5t3 -11.5t1 -9.5t-0.5 -8.5t-4 -6.5q-9 -10 -32.5 1.5t-45.5 39.5q-14 17 -25.5 35t-21 43t-15.5 40t-12.5 49t-9 44.5t-9.5 53.5t-8 51q-85 -27 -147 -36q-3 -36 -4 -50t-7.5 -53.5t-14.5 -60.5t-25 -44.5t-39 -32.5q-21 -10 -30 3
q-6 13 1 64q16 92 21 159q-3 -1 -20.5 -5.5t-30.5 -7t-18 -0.5q-15 8 -2 35q5 9 10.5 16t15 14t14 10t19 10.5t16.5 8.5q6 66 -7.5 185.5t-14.5 154.5q-2 59 15 68q24 12 57 -48q30 -65 38.5 -140t8.5 -190q5 1 32.5 7.5t38 9.5t30.5 10t36 15q0 71 3 120.5t19.5 118.5
t47.5 112q29 38 59 42q15 2 23 -3t7 -12q0 -5 -4.5 -13.5t-5.5 -11.5q-17 -40 -28 -94t-14 -89t-8 -107q5 4 13 11t11.5 10.5t10 8.5t9 5.5t8.5 2.5t8 -1q25 -10 -2 -68.5t-58 -78.5q1 -67 12.5 -128t23 -97.5t37.5 -107.5z" />
    <glyph glyph-name="I" unicode="I" horiz-adv-x="160" 
d="M133 641q-3 -56 -4 -170.5t-5.5 -207.5t-17.5 -174q-23 -127 -52 -123q-14 2 -20.5 31.5t-12.5 94.5q-13 122 -8.5 279t37.5 283q15 53 35.5 86t35.5 29q13 -5 14.5 -40t-2.5 -88z" />
    <glyph glyph-name="J" unicode="J" horiz-adv-x="382" 
d="M-10 -527q-80 0 -159 38q-68 33 -120 86q-41 43 -61 91q-17 38 -1 48q8 4 22.5 -5t43 -31.5t51.5 -37.5q53 -34 107 -55q64 -24 116 -23q87 -2 135 66q47 68 78 172q42 151 37 398q-6 171 -2 273q5 142 34 142q14 1 26.5 -34.5t24.5 -101.5q23 -123 28 -277
q5 -258 -42 -430q-33 -120 -94 -206q-39 -55 -99 -85q-59 -28 -125 -28z" />
    <glyph glyph-name="K" unicode="K" horiz-adv-x="436" 
d="M455 41q12 -11 30.5 -19.5t29.5 -14.5t11 -14q0 -16 -28 -22q-49 -11 -89.5 12t-66 68.5t-43.5 91t-32.5 89.5t-21.5 55q-25 -17 -65 -38q-15 -154 -57 -225q-17 -30 -35.5 -43.5t-30.5 -5.5q-18 10 -9 76q3 23 11 75t12 80q-60 -14 -70 4q-8 20 78 81h1q9 130 -2 287
q-11 201 32 207q18 2 34 -29t25.5 -77.5t12.5 -94.5q6 -115 5 -215q29 19 62 47.5t54 50t61.5 64.5t57.5 61q39 40 60 56t32 9q25 -17 -28 -112q-56 -101 -165 -200q21 -35 38 -98t38 -118t58 -88z" />
    <glyph glyph-name="L" unicode="L" horiz-adv-x="476" 
d="M693 -50q14 -9 4 -37q-15 -45 -66 -64.5t-107 -10.5q-46 8 -121 45.5t-145 71.5t-112 36q-17 -31 -27.5 -48.5t-31.5 -39.5t-46 -34q-44 -14 -71.5 19.5t-34.5 85.5q-4 64 41 100.5t110 30.5q23 65 26 135t-8.5 184t-13.5 149q-7 111 17 196q12 43 28 67.5t30 20.5
q17 -4 21 -82q1 -11 1 -16q2 -94 6 -181q2 -39 9 -119t9.5 -129t-2 -118t-20.5 -126q38 -1 95.5 -28.5t107 -59t111 -54.5t108.5 -18q18 1 45.5 15t36.5 9z" />
    <glyph glyph-name="M" unicode="M" horiz-adv-x="833" 
d="M815 -56q2 -4 7 -10t8.5 -11t6 -10.5t-0.5 -10t-12 -7.5q-41 -7 -70.5 37.5t-44.5 98.5q-20 83 -22.5 234.5t-2.5 256t-15 106.5q-26 -16 -43 -81.5t-27.5 -147t-24.5 -161t-44 -133t-75 -53.5q-43 0 -66.5 46t-28 117t-4.5 144t-2.5 139t-14.5 90q-29 -76 -46.5 -238.5
t-30.5 -220.5q-30 -121 -97 -121q-37 0 -63.5 34.5t-38 86t-18.5 110.5t-5 108t3 79q14 170 42 170q25 0 44 -168q15 -159 31 -248q12 43 21 124t17 151.5t23.5 140t49 110t84.5 40.5q40 0 63.5 -29.5t31 -79.5t9.5 -101t3 -109.5t7 -89.5q5 19 16.5 83t24 109.5t33.5 100
t55 86.5t78 37q30 1 51.5 -16t33 -39.5t18.5 -59.5t9 -60t3 -57q2 -60 0 -233t4 -243q6 -72 20 -101z" />
    <glyph glyph-name="N" unicode="N" horiz-adv-x="621" 
d="M625 858q11 -6 11 -14t-4 -14t-9 -11t-12.5 -22t-12.5 -42q-8 -40 -9 -118.5t2 -159.5t0 -170.5t-13.5 -157.5t-40 -112.5t-76.5 -44.5q-97 0 -174 114q-19 29 -35 61t-32 74.5t-25 69t-27 86t-26 84.5q-1 -32 -1.5 -94.5t-1.5 -102t-8.5 -93.5t-22.5 -99
q-30 -90 -78 -96q-7 -1 -11.5 1.5t-5.5 8t-1 10t0.5 12.5t0.5 11q6 46 9 85.5t4 90t1.5 80t0 107.5t-0.5 121q0 23 3 46.5t11.5 55.5t29.5 52t52 20q16 0 30 -6t26 -20t20 -24t18 -33.5t13.5 -32t12 -34t9.5 -27.5q8 -25 20.5 -72.5t21 -79.5t24.5 -75.5t32.5 -74t43 -60.5
t57.5 -49q25 69 31 167.5t1 180t1.5 174t33.5 154.5q13 34 43 58.5t64 14.5z" />
    <glyph glyph-name="O" unicode="O" horiz-adv-x="586" 
d="M556 549q10 -52 10.5 -112.5t-9 -124.5t-34 -122.5t-59.5 -104.5t-89.5 -72.5t-121.5 -24.5q-76 2 -131 53.5t-79 122.5t-24 150q0 53 11.5 111.5t36.5 115.5t60.5 99.5t88 62.5t114.5 6q54 37 101.5 14.5t80.5 -71.5t44 -103zM444 288q24 77 30 156t-19 152t-87 94
q16 -17 -14 -22q-6 -1 -22 -2q-23 -3 -34 -5q-49 -10 -84.5 -47t-53 -89.5t-25 -105t-5.5 -103.5q1 -32 7.5 -64.5t20 -67.5t39.5 -57t61 -22q120 -6 186 183z" />
    <glyph glyph-name="P" unicode="P" horiz-adv-x="515" 
d="M325 773q155 9 216 -102q51 -93 17 -222q-34 -126 -127 -198q-68 -52 -149 -57q-63 -4 -125 22q-7 -25 -3.5 -76t-1 -103.5t-22.5 -54.5q-16 -3 -28.5 22t-18.5 64t-10.5 82t-4 76t0.5 46v1q-43 43 -33 56q5 7 36 -4q9 104 33 193.5t46 87.5q21 -2 21.5 -97.5
t-8.5 -182.5q-2 -24 -3 -35q103 -31 190.5 19t119.5 158q28 93 -7 158.5t-135 65.5q-101 0 -198 -65t-153 -162q-15 -25 -25.5 -55.5t-15.5 -45.5t-12 -15q-18 0 -18 41q0 98 63 187t159.5 141.5t195.5 54.5z" />
    <glyph glyph-name="Q" unicode="Q" horiz-adv-x="713" 
d="M819 -61q5 -16 -8 -38q-36 -55 -110.5 -66.5t-144.5 15.5q-35 12 -99 50.5t-97 50.5q-83 -31 -158 -27q-16 1 -33.5 4.5t-38 11t-33.5 19t-19 28.5t5 39q13 31 49.5 45.5t78.5 14.5q71 1 150 -28q100 50 163 144.5t61 204.5q0 93 -66 155t-166 72q-92 6 -160.5 -53.5
t-84.5 -157.5q-16 -80 18.5 -161t105.5 -120q4 -2 11 -6t10 -6t6.5 -5t5 -5.5t1.5 -5.5q0 -7 -12.5 -12.5t-32.5 -4.5q-65 2 -120 59.5t-80 137t-11 146.5q24 129 120.5 215t230.5 77q127 -6 225 -98.5t98 -224.5q2 -119 -57 -227t-161 -177q13 -3 42 -19.5t60.5 -34
t67.5 -32t74 -14t68 20.5q6 4 12.5 11.5t11 11t8.5 3.5q6 -1 9 -13z" />
    <glyph glyph-name="R" unicode="R" horiz-adv-x="488" 
d="M649 -38q7 -11 -22 -31q-38 -24 -87 -23t-99 29t-90.5 72t-72 90.5t-54.5 94.5q-46 -12 -81 -8q-5 -65 -17 -111.5t-44 -84.5q-25 -30 -56 -28q-36 0 -13 38q18 26 28.5 72.5t12.5 71.5t4 81q-30 34 -32.5 81.5t27.5 82.5q-2 18 -14 112q-10 -18 -20 -42.5t-16 -36
t-13 -11.5q-13 0 -19 33q-12 83 58 179q0 79 25 83q8 1 14 -6.5t16 -23.5q96 75 214 63q77 -9 132.5 -56.5t68.5 -122.5q17 -102 -39 -193.5t-154 -141.5q23 -37 29.5 -47t30.5 -47t40 -54t41 -42t50 -39.5t51 -20.5q21 -6 45.5 -6t38.5 -0.5t17 -6.5zM146 273q12 -2 29 0
q-22 33 -30 38q0 -6 0.5 -18.5t0.5 -19.5zM138 412q26 -7 49.5 -25.5t37 -36t36.5 -50.5q71 35 118 101.5t34 142.5q-8 45 -41.5 74.5t-82.5 34.5q-88 7 -178 -64q13 -59 27 -177z" />
    <glyph glyph-name="S" unicode="S" horiz-adv-x="465" 
d="M453 195q0 -87 -81 -140t-195 -53q-72 0 -119.5 50.5t-53.5 127.5q0 42 15 43q6 1 12.5 -7t15.5 -25q49 -98 128 -98q67 0 125 29t58 84q0 48 -47 74q-22 8 -62.5 19t-69 20.5t-60.5 25t-55 41t-35 60.5q-39 109 34.5 191.5t200.5 82.5q74 0 136 -49.5t62 -121.5
q0 -20 -5 -31.5t-12 -11.5q-6 0 -12.5 10t-13 23.5t-20.5 30.5t-32 29q-39 30 -97 30q-65 0 -117.5 -43.5t-33.5 -107.5q14 -35 49.5 -57t73 -30.5t84 -25t74.5 -39.5q53 -45 53 -131z" />
    <glyph glyph-name="T" unicode="T" horiz-adv-x="326" 
d="M709 721q6 -13 -26 -36.5t-87 -41.5q-104 -36 -298 -41q7 -82 8 -176.5t-14.5 -200t-45.5 -170.5q-17 -36 -49.5 -72.5t-43.5 -9.5q-3 5 -3.5 14.5t2 23.5t5 24.5t6.5 26t5 18.5q44 175 51 523q-102 4 -207 20q-127 19 -127 43q0 27 130 39q69 4 261.5 5t300.5 13
q102 11 119 7q10 -3 13 -9z" />
    <glyph glyph-name="U" unicode="U" horiz-adv-x="520" 
d="M265 119q87 0 118 178q8 49 15 185.5t27 210.5q4 16 18.5 40.5t26.5 19.5q4 -3 5 -10t1.5 -25.5t1.5 -31.5q1 -30 5.5 -93t7.5 -109.5t2 -111.5t-7 -112.5t-23 -99t-43.5 -84t-71 -53.5t-103.5 -21q-58 0 -101 26t-66.5 68t-36.5 99.5t-14.5 116.5t4 123.5t14 116
t19.5 97.5q10 33 18.5 48.5t15.5 14.5q13 -1 18 -69q1 -18 4 -161.5t17 -225.5q12 -67 38 -102t90 -35z" />
    <glyph glyph-name="V" unicode="V" horiz-adv-x="433" 
d="M492 775q9 -5 -2 -69q-12 -69 -37.5 -172t-63.5 -221.5t-87.5 -207t-96.5 -100.5q-55 -15 -96 27t-65 110q-37 117 -48.5 258t11.5 268q12 67 31 65q12 -1 23 -66q8 -47 20 -173t33.5 -213t68.5 -156q56 66 96 175t78 230.5t82 194.5q17 29 31.5 42t21.5 8z" />
    <glyph glyph-name="W" unicode="W" horiz-adv-x="838" 
d="M883 780q14 -16 -9 -46q-38 -50 -53.5 -147.5t-19 -195t-15 -189.5t-56.5 -150t-130 -58q-167 0 -224 313q-5 -35 -10 -62.5t-14.5 -66t-22.5 -67t-31 -55t-43.5 -40.5t-55.5 -14q-121 0 -177 294q-27 154 -16 292q4 44 10.5 77t16.5 51t21 17q33 -5 41 -142
q11 -160 41.5 -311t66.5 -151q22 0 40.5 77.5t31.5 177.5t13 101q14 76 33 129q8 21 14.5 32.5t18 27.5t27.5 21.5t36 -0.5q32 -12 42 -43t10 -81q0 -6 1 -36t2.5 -54.5t4 -63.5t7.5 -70.5t11.5 -68.5t16.5 -65t23 -52t31 -36.5t39 -12.5q32 0 51.5 66.5t27.5 153t27 190
t48 158.5q34 63 74 90q38 24 50 10z" />
    <glyph glyph-name="X" unicode="X" horiz-adv-x="647" 
d="M669 -5q1 -1 26 -14.5t41 -26t16 -22.5q0 -18 -30 -25q-88 -22 -176 52q-49 41 -102 107.5t-83 112.5t-76 121q-40 -32 -78.5 -70t-91 -92.5t-76.5 -78.5q-63 -62 -85 -49q-28 16 10 101q24 53 68 107t82.5 89.5t103.5 90.5q-46 64 -193 236q-21 24 -31.5 37.5t-17 28.5
t-1.5 24q8 14 38 9t68 -28q64 -36 116 -92t113 -140q184 141 290 251q24 24 49.5 37.5t38.5 4.5q29 -18 -17 -100q-19 -34 -43.5 -65.5t-60 -65t-57.5 -52.5t-69.5 -57t-63.5 -51q21 -31 62.5 -97.5t68 -106t70.5 -90.5t91 -86z" />
    <glyph glyph-name="Y" unicode="Y" horiz-adv-x="644" 
d="M608 277q-5 -29 -9 -81.5t-8 -95.5t-13 -97t-27 -98.5t-46 -86t-74.5 -72t-108.5 -46.5q-42 -10 -72.5 -6.5t-48 14t-17.5 21.5q0 5 5 10t16.5 9.5l23 9t31 12t35.5 13.5q78 25 132.5 112t60.5 211q-25 -44 -80 -73.5t-120 -29.5q-133 0 -207 80t-53 217
q25 171 70.5 285.5t79.5 114.5q7 0 11 -6.5t5.5 -19.5t1 -29t-3 -40.5t-5.5 -47t-8 -55.5t-9.5 -59.5t-11 -65t-10.5 -66.5q-18 -107 29.5 -154.5t124.5 -47.5q81 0 132 82.5t57 206.5q0 5 1 29t2 39t3.5 42t6 45.5t9 43t13.5 40.5t18.5 31t25 22.5t31.5 7.5q21 0 29 -42
t5 -110t-10 -134t-17 -135z" />
    <glyph glyph-name="Z" unicode="Z" horiz-adv-x="766" 
d="M843 31q3 -5 1 -12t-13 -18.5t-27 -20.5q-139 -84 -537 -5q-151 28 -209 55q-31 18 -41 53q-4 23 5.5 44.5t26 37t42.5 31t47 25.5t49 22.5t40 18.5q11 5 60 28.5t66 32t58 29.5t64.5 36t55 37t58.5 44q80 73 66 127q-12 34 -75 32q-37 -1 -104 -11t-120 -17.5t-111 -7
t-92 16.5q-18 8 -29.5 17.5t-15.5 17t0 11.5q3 5 9 6.5t22.5 1t24.5 -0.5q68 2 205 40t205 42q63 3 114.5 -23t76 -78.5t3.5 -119.5q-16 -56 -62 -107.5t-114.5 -94t-132.5 -75t-144.5 -71t-122.5 -62.5q263 -61 381 -75q123 -15 213 -6q5 1 12.5 1.5t11.5 1t9 1t8 0.5
t6.5 -0.5t5.5 -1.5t4 -3z" />
    <glyph glyph-name="bracketleft" unicode="[" horiz-adv-x="251" 
d="M156 -40q37 -9 56.5 -18t18.5 -19q-1 -18 -80 -23q-26 0 -36.5 1t-23 7t-16.5 20t-4 39q-7 570 -1 665q2 21 24.5 30t46.5 6q68 -7 77 -15q3 -3 4 -7q1 -11 -18.5 -19.5t-56.5 -17.5q-1 -39 -1 -151v-491q0 -3 0.5 -4t1.5 -1t3.5 -0.5t4.5 -1.5z" />
    <glyph glyph-name="backslash" unicode="\" horiz-adv-x="341" 
d="M209 73q-17 55 -93.5 254.5t-99.5 316.5q-2 35 12 37q5 1 10.5 -5t15.5 -22q168 -266 220 -564q19 -116 -5 -121q-7 -1 -17 12.5t-20 35.5t-23 56z" />
    <glyph glyph-name="bracketright" unicode="]" horiz-adv-x="292" 
d="M54 -77q-1 10 18.5 19t56.5 18q2 1 5 1t4 1t1 5q0 130 -0.5 292.5t-0.5 198.5v151q-37 9 -56.5 17.5t-18.5 19.5q2 9 18 13t52 8q7 1 11 1q24 3 46.5 -6t24.5 -30q4 -56 -1 -665q0 -25 -4 -39t-16.5 -20t-23 -7t-36.5 -1q-79 5 -80 23z" />
    <glyph glyph-name="asciicircum" unicode="^" horiz-adv-x="491" 
d="M310 578q15 -29 39.5 -84t55 -127.5t45.5 -126.5t1 -59q-24 -10 -65 56.5t-84 161.5t-51 107q-12 -15 -53.5 -105.5t-83 -160t-67.5 -59.5q-23 10 41.5 169.5t102.5 226.5q2 4 7 14.5t8.5 16.5t9 13.5t12.5 12.5t16 7q8 2 16 0q8 -3 14 -7t11.5 -11.5t8 -11.5t8.5 -16.5
t8 -16.5z" />
    <glyph glyph-name="underscore" unicode="_" horiz-adv-x="611" 
d="M178 -59h255q47 0 85 -12t36 -32q-4 -20 -45 -32t-87 -12h-255q-29 0 -57 5t-47 15.5t-17 23.5q2 20 44 32t88 12z" />
    <glyph glyph-name="grave" unicode="`" horiz-adv-x="261" 
d="M36 644q-29 35 0 46q27 10 57 -9q13 -8 19 -18q1 -2 8.5 -13.5t13 -20.5t13.5 -22.5t13 -24t8.5 -20.5t2.5 -15.5t-7 -5.5q-43 0 -128 103z" />
    <glyph glyph-name="a" unicode="a" 
d="M352 41q4 -11 11 -22t10.5 -17t2.5 -10q-4 -7 -20 -3q-28 7 -53 38t-27 62q-35 -48 -83 -75t-101 -14q-39 8 -68.5 39t-33.5 71q-9 66 37.5 116.5t118.5 77.5q2 1 15 5t21.5 7t22 9t21.5 11.5t14.5 13.5t6.5 16q0 33 -23.5 48.5t-55 13t-57.5 -18.5q-11 -6 -22 -15
t-16.5 -12.5t-9.5 -2.5q-15 20 14.5 57.5t62.5 50.5q65 30 127 -6.5t68 -111.5q3 -30 -10.5 -58t-39.5 -46q-22 -16 -84.5 -41.5t-89.5 -50.5q-22 -18 -23 -42t27 -37q15 -5 31.5 1t33 22t26.5 27t23 29q4 6 16 27t19.5 31t22 19t30.5 5q10 -2 17 -12t7 -21
q2 -15 -0.5 -87.5t11.5 -93.5z" />
    <glyph glyph-name="b" unicode="b" horiz-adv-x="443" 
d="M402 434q61 -112 -3 -291q-24 -60 -67 -105.5t-102 -47.5q-49 -4 -84 25q-16 13 -18 26q-15 -33 -32 -42q-16 -9 -34 -3q-34 15 -41 71q-6 71 -4 177q4 169 21 346q14 126 37 196q14 44 32 70q19 28 31 19q8 -6 10 -32q0 -51 -2 -70q-4 -70 -16.5 -223t-16.5 -238
q28 76 70 125q49 53 104 58q71 6 115 -61zM312 177q30 73 25 148q0 1 -1 9t-1.5 10.5t-2 10.5t-2.5 12t-3.5 10.5t-5.5 10t-7 7.5t-9 5.5t-11 1.5q-37 -3 -79 -88q-43 -94 -84 -265q6 6 34 5.5t53 6.5q56 20 94 116z" />
    <glyph glyph-name="c" unicode="c" horiz-adv-x="397" 
d="M107 274q-23 -75 11.5 -131t113.5 -52q33 3 88 22q39 14 46 7q11 -11 -19 -45q-76 -82 -185 -65q-67 12 -109 58.5t-49.5 108t8.5 130.5q55 145 180 184q54 12 106 -9t79 -71q9 -24 8 -36t-9 -15h-5.5t-6 3t-7 5.5t-8 7t-10.5 8.5q-34 26 -75 30q-96 4 -157 -140z" />
    <glyph glyph-name="d" unicode="d" horiz-adv-x="495" 
d="M518 647q0 -174 -101 -410q16 -176 48 -264q2 -5 6.5 -16t4.5 -12v-9q-2 -4 -8 -5t-16 2.5t-21 12.5q-23 18 -40.5 49t-25.5 54t-19 62q-81 -112 -185 -112q-82 0 -119.5 64.5t-28.5 152.5q6 57 35 120t83 111t116 44q36 -3 64 -28v22v50.5t1 54t3.5 58.5t7 54t12 51
t18 39t25.5 28t33 9q95 -3 107 -182zM204 95q62 27 120 132q-11 84 -13 207q-44 7 -81.5 -12.5t-61.5 -56.5t-39 -77.5t-22 -82.5q-10 -57 14.5 -97t82.5 -13zM404 420q16 48 23 75t13.5 69t1 82t-21.5 84q-24 -119 -16 -310z" />
    <glyph glyph-name="e" unicode="e" horiz-adv-x="306" 
d="M293 115q4 -2 5 -9t-3.5 -20t-15.5 -28q-43 -59 -135 -59q-109 0 -132.5 125t35.5 250t151 125q33 0 54.5 -18t29 -46.5t7.5 -58t-7 -58.5q-13 -60 -61 -117.5t-107 -71.5q9 -41 54.5 -52.5t78.5 13.5q7 5 19 13.5t17.5 11t9.5 0.5zM186 404q-27 -23 -50 -74t-25 -115
q97 72 91 152q-2 30 -13 37q-2 1 -3 0z" />
    <glyph glyph-name="f" unicode="f" horiz-adv-x="274" 
d="M349 396q0 -18 -41.5 -27t-139.5 -12q41 -72 63 -296q4 -40 4 -80.5t-5.5 -92t-28 -83.5t-59.5 -32q-100 0 -114 254q-4 44 -5 96t-0.5 126t0.5 106h-2q-10 -3 -16 15q-11 32 -1 57q4 9 10 9q8 0 11 1q0 81 13 130t61 108q39 42 90 31q40 -10 64.5 -49.5t28.5 -85.5
q1 -11 -1 -20.5t-5.5 -14t-7.5 -3.5q-1 0 -2 0.5t-2.5 1.5t-2.5 2t-2 2.5l-2 3t-2.5 4t-3 4.5t-3 5t-3.5 5q-11 26 -40 57t-46 8q-32 -50 -41 -85t-11 -105q242 -5 242 -40zM135 -106q3 14 8 35t6.5 28t3 23t0.5 32t-3 43q0 3 -3 30.5t-5 46t-6 49t-8.5 51.5t-10.5 41
t-12 29q4 -48 5 -126.5t6 -146.5t19 -135z" />
    <glyph glyph-name="g" unicode="g" horiz-adv-x="459" 
d="M445 380q8 -10 7 -61t-23 -51q-8 0 -14.5 10.5t-17 34t-19.5 37.5q-19 29 -50.5 42t-69.5 4q-68 -17 -109.5 -78.5t-52.5 -138.5q-3 -23 6 -52t33 -29q33 -6 60.5 13.5t47.5 50.5t38.5 63.5t41 55.5t47.5 23q39 0 45.5 -91t-7.5 -186t-28 -136q-16 -45 -35.5 -85
t-48.5 -81t-68.5 -67.5t-84.5 -32.5q-40 -6 -76.5 15t-49.5 60q-10 30 3 37q7 5 39.5 -14t42.5 -19q45 -5 83.5 27.5t63 83.5t42.5 113t26.5 112.5t9.5 86.5q-105 -134 -211 -124q-66 2 -94 58.5t-20 129.5q13 103 75 189t159 109q67 15 127.5 -14t81.5 -95z" />
    <glyph glyph-name="h" unicode="h" horiz-adv-x="387" 
d="M360 79q-1 -16 2 -47q0 -4 1.5 -10.5t1.5 -9t-1 -8.5q-4 -9 -16.5 -7.5t-18.5 7.5q-67 45 -57 256q0 6 1 26q4 67 -4 68q-5 1 -16 -20q-8 -15 -52 -127q-8 -20 -17.5 -54.5t-17.5 -59.5t-19 -50t-26.5 -36.5t-35.5 -6.5q-45 9 -45 73q0 98 15.5 284.5t17.5 229.5
q1 26 13 162q1 6 2 22t2 25.5t5 20.5t11 16q8 5 15.5 0t14 -18t10.5 -24.5t8 -24.5l4 -13q5 -25 6.5 -62t-0.5 -88t-3.5 -86t-6 -99.5t-5.5 -84.5q1 3 11 23t13.5 26t13.5 24t16 24.5t17.5 18.5t21.5 16t23.5 7t27.5 1q73 -9 73 -141q0 -51 -3 -136.5t-3 -116.5z" />
    <glyph glyph-name="i" unicode="i" horiz-adv-x="169" 
d="M114 675q20 2 33.5 -16.5t11.5 -39.5q-2 -24 -26 -35.5t-48 -1.5q-21 10 -24 32q-2 20 15.5 39.5t37.5 21.5zM118 480q10 -6 11 -28t-2 -51q-2 -20 -3 -68t-2 -71q0 -130 -13 -186q-7 -34 -19 -54t-24 -18q-6 1 -10.5 6.5t-8 17.5t-5.5 22t-5 30q-8 69 -8 185
q2 92 28 154q14 32 32 49.5t29 11.5z" />
    <glyph glyph-name="j" unicode="j" horiz-adv-x="311" 
d="M394 379q4 -12 -21.5 -36t-64.5 -53.5t-48 -38.5q0 -231 -34 -401q-64 -346 -204 -346q-47 0 -73.5 47t-30.5 115t-0.5 128t12.5 101q52 251 235 396q0 138 -27 148q-4 1 -10.5 2t-10 1.5t-7 2t-4.5 4.5q-9 17 22 33q24 15 53 -1q53 -25 70 -133q3 1 21 9t33.5 14
t34.5 11.5t33.5 5t20.5 -8.5zM132 -132q28 134 32 292q-105 -116 -140 -283q-9 -48 -13.5 -110.5t0 -114.5t20.5 -52q49 0 101 268zM111 572q-20 11 -23.5 31t11.5 39q48 48 77 6q11 -15 11 -38q-2 -26 -26 -36.5t-50 -1.5z" />
    <glyph glyph-name="k" unicode="k" horiz-adv-x="373" 
d="M451 70q10 -10 -2 -30q-16 -25 -54 -34q-36 -7 -72 7.5t-65.5 44.5t-52 62t-40.5 67q-6 -17 -15 -38.5t-16 -40t-12 -41.5q-8 -31 -22 -49.5t-43 -16.5q-43 1 -43 103q0 78 4 157t13 197t13 180q4 80 20.5 145t40.5 63q43 -4 32 -214q-14 -219 -19 -317q66 135 158 186
q32 17 59 15q25 -1 27 -16q0 -8 -4.5 -15t-19 -22t-20.5 -21q-71 -74 -118 -171q19 -19 52.5 -66t66.5 -80.5t71 -46.5q10 -4 34.5 -2.5t26.5 -5.5z" />
    <glyph glyph-name="l" unicode="l" horiz-adv-x="207" 
d="M210 120q4 0 5.5 -6t0 -17.5t-5.5 -25.5q-7 -26 -35.5 -48t-64.5 -22q-20 0 -35 10.5t-22.5 32.5t-12.5 43.5t-5 55.5t0.5 55.5t3 57t2.5 46.5q5 105 16.5 282.5t14.5 232.5q2 36 12 42q7 2 22.5 -9.5t20.5 -30.5q8 -27 12.5 -66t6.5 -72.5t1 -93t-2 -90.5t-4.5 -103.5
t-4.5 -96.5q-6 -85 -4.5 -156t20.5 -71q21 3 31.5 16t15.5 23.5t11 10.5z" />
    <glyph glyph-name="m" unicode="m" horiz-adv-x="564" 
d="M467 522q44 -8 62 -73.5t15 -139.5t-9 -169t-4 -130q0 -1 0.5 -5.5t0.5 -7.5t-0.5 -8t-1.5 -7.5t-3 -5.5t-5.5 -2.5t-8.5 2.5q-32 14 -44.5 83t-10 143.5t0 134.5t-15.5 60q-18 0 -33 -59t-26 -130.5t-35.5 -130.5t-58.5 -59q-30 0 -46 30.5t-18.5 77.5t-1 95.5t-0.5 92
t-11 59.5q-8 -16 -13.5 -49.5t-10 -84.5t-8.5 -76q-4 -33 -8.5 -55.5t-14.5 -55t-27 -50t-40 -17.5q-41 0 -63.5 67t-26 129.5t-0.5 108.5q12 116 34 116q21 0 35 -115q3 -22 8.5 -71t9.5 -76q9 17 14 63.5t9 97t13.5 100t35 81.5t66.5 32q25 0 42.5 -19t25 -55t11 -63.5
t4.5 -69t1 -46.5q5 28 8.5 45t12.5 54t20.5 61t27.5 50t38.5 38t49.5 9z" />
    <glyph glyph-name="n" unicode="n" horiz-adv-x="439" 
d="M438 -4q1 -7 -7.5 -12t-24.5 -2q-27 6 -45.5 23.5t-27 37t-12.5 51t-4 52t1 54t1 43.5v13.5v21t-0.5 24.5t-1.5 27.5t-2.5 26.5t-4.5 25.5t-7 19.5t-9.5 13.5t-12.5 3.5q-50 -11 -70 -125q-4 -23 -10 -65.5t-13 -77.5t-17 -67q-23 -72 -72 -85q-39 -10 -60 22.5t-24 76.5
q-1 33 -0.5 49t2 46.5t1.5 46.5q1 30 3.5 64t6 75t5.5 65q2 20 5 26t13 5q11 -2 21 -12q20 -23 29 -62q4 -18 5 -50.5t0 -84t-1 -52.5l6 30q6 30 8 38.5t8 36t11 41.5t13 35.5t16.5 36t18.5 26.5q33 40 81 52q43 9 84 -10q34 -18 49.5 -67.5t14 -97.5t-1.5 -89
q-1 -25 -3.5 -70.5t-2 -63t4.5 -44t15 -47.5q1 -3 6 -11.5t5 -12.5z" />
    <glyph glyph-name="o" unicode="o" horiz-adv-x="424" 
d="M403 282q10 -68 -6 -135t-64.5 -115t-121.5 -47q-105 0 -157.5 77.5t-40.5 197.5q9 70 41.5 132t86.5 92q25 14 46.5 14.5t25.5 -11.5q12 6 13.5 6.5t19.5 -0.5q118 -23 157 -211zM211 84q52 0 77 50t20.5 112t-27.5 105q-16 29 -23.5 41.5t-21.5 28.5t-32 27
q-5 -7 -22.5 -32.5t-28.5 -43t-20 -37.5q-27 -54 -34 -110t20.5 -98.5t91.5 -42.5z" />
    <glyph glyph-name="p" unicode="p" horiz-adv-x="495" 
d="M334 518q48 -10 82 -47.5t48 -85.5t17.5 -103t-9.5 -100q-20 -83 -73.5 -142t-132.5 -59q-90 7 -129 42q-7 -36 -7 -95.5t3.5 -115.5t-3 -108.5t-26.5 -73.5q-6 -6 -14.5 -10.5t-24 -4t-29.5 12.5q-11 11 -12.5 37.5t1.5 82.5q1 24 3.5 107.5t3.5 115t2.5 104t1 114.5
t-2 103.5t-5 114.5t-9.5 106q-2 34 3 39q13 13 39 -21q40 -52 56 -190q85 196 217 177zM379 201q13 54 -2.5 134t-64.5 89q-48 5 -92.5 -67.5t-58.5 -133.5q-12 -53 -22 -167q102 -17 157.5 11t82.5 134z" />
    <glyph glyph-name="q" unicode="q" horiz-adv-x="456" 
d="M419 -96q-3 -100 -15.5 -178.5t-35.5 -80.5q-24 0 -34.5 78t-7.5 177l3 179q-35 -46 -91 -71.5t-112 -17.5q-51 6 -82 48.5t-33 99.5q-3 74 28 146.5t93 125t141 64.5q37 6 87 -5.5t70 -45.5q13 -25 1 -34q-11 -4 -18.5 -2.5t-26.5 6t-35 4.5q-64 5 -133 -38
q-54 -32 -85.5 -90t-27.5 -120q2 -58 40 -67q100 -13 166 147q2 6 7 21.5t9 24.5t11 20.5t16.5 19t22.5 10.5q15 1 24 -3q30 -19 26 -65q1 -10 0 -19q1 -48 0 -102t-4 -124t-4 -108z" />
    <glyph glyph-name="r" unicode="r" horiz-adv-x="348" 
d="M343 372q12 -12 12 -22q0 -19 -28 -20.5t-41 6.5q-17 7 -32 19.5t-32 30t-28 26.5q-7 -27 -10.5 -61.5t-3.5 -59t1 -67t1 -61.5q-5 -87 -15 -116q-20 -65 -72 -53q-11 2 -20 6.5t-16 13t-12.5 15.5t-10 20t-7 20.5t-5 23.5t-3.5 22.5t-3 23.5t-3 21q-19 258 37 258
q28 0 41 -90q0 124 47 166q20 15 57 15q31 -4 55.5 -25t52.5 -61t38 -51z" />
    <glyph glyph-name="s" unicode="s" horiz-adv-x="347" 
d="M-5 308q-14 60 19.5 112t93.5 74t118 3q45 -15 71.5 -53.5t26.5 -76.5q0 -13 -6 -20t-13 -6t-21.5 16.5t-36.5 32.5t-45 20q-34 6 -66 -6.5t-46 -43.5q-14 -34 17 -54.5t86.5 -35.5t70.5 -25q34 -21 50.5 -59.5t7.5 -77.5q-9 -37 -40 -64.5t-72 -39.5q-42 -10 -85 -5.5
t-71.5 26t-18.5 49.5q2 7 23.5 1.5t50 -12t62.5 3.5q54 17 59 68q2 17 -17 28.5t-42 16.5q-37 9 -58.5 16t-49 21.5t-44 37t-24.5 53.5z" />
    <glyph glyph-name="t" unicode="t" horiz-adv-x="247" 
d="M155 423q-10 -50 -15 -180q-7 -193 32 -180q2 0 3 1q7 3 26.5 26.5t25.5 23.5q17 -6 11 -44q-6 -36 -33.5 -60t-64.5 -18q-26 5 -44.5 24.5t-27.5 51.5t-14 65.5t-4.5 76t2 73.5t4.5 68.5t4 50.5q-24 -4 -41.5 9t-13.5 33q1 11 8.5 19.5t13.5 12.5t23.5 11.5t22.5 10.5
q2 14 7.5 57t10.5 72.5t12 57.5q6 38 16 39q6 2 13.5 -7.5t13.5 -27.5q20 -61 14 -170q38 7 62 6q60 -5 60 -31q-1 -19 -48 -40q-39 -18 -79 -31z" />
    <glyph glyph-name="u" unicode="u" horiz-adv-x="447" 
d="M388 480q6 -7 11 -17t7.5 -17.5t4.5 -22.5t2.5 -20t2 -23.5t1.5 -20.5q0 -35 -1.5 -127t-1 -147t4.5 -71q6 -9 -7 -14q-12 -4 -29 4q-44 24 -44 187q-11 -85 -49.5 -137.5t-117.5 -67.5q-42 -8 -73 11.5t-46.5 53t-24 80.5t-9.5 83.5t0 73.5q5 86 27 145q4 12 11 26
t20.5 28t24.5 8q10 -6 12.5 -22.5t2.5 -53.5q0 -60 -5 -135q-2 -20 -2 -47.5t2 -67t14 -65.5t32 -26q28 3 50 32.5t35.5 76t21.5 88.5t14.5 90.5t9.5 62.5q4 41 33.5 60.5t65.5 -8.5z" />
    <glyph glyph-name="v" unicode="v" horiz-adv-x="355" 
d="M330 521q21 0 23 -70.5t-6 -142t-16 -105.5l-6.5 -26l-8.5 -34t-10.5 -34.5t-14 -36t-17.5 -31.5t-22 -27.5t-26 -16t-32 -5.5q-84 6 -142 202q-5 17 -12 41.5t-17 62t-17.5 72.5t-12.5 66.5t-3.5 50.5t11.5 19q22 0 60 -95.5t76.5 -196t59.5 -108.5q27 30 54.5 135
t47 192.5t31.5 87.5z" />
    <glyph glyph-name="w" unicode="w" horiz-adv-x="555" 
d="M540 507q-11 -46 -14.5 -119.5t-5 -137t-8.5 -125t-32 -99.5t-70 -44q-30 -4 -53 5.5t-37.5 32t-24 45.5t-14.5 59.5t-7 59t-4 57.5q-8 -16 -23.5 -68.5t-29.5 -95.5t-42 -79t-63 -36q-34 0 -57.5 30.5t-31.5 73.5q-11 57 -11 147q5 114 29 204q11 45 26 71.5t28 22.5
q19 -5 17 -104q0 -68 -6 -198q-1 -32 -1.5 -47t-0.5 -36.5t1 -27.5t3.5 -13t7 0t11 18.5t15.5 35t21 57.5q1 2 6.5 21t8.5 29t10 31t12.5 34t14 32t16.5 30.5t17.5 23t19.5 17t21 5.5q22 0 37 -11.5t22 -35.5t9.5 -41.5t3.5 -49t2 -38.5q1 -5 1 -26.5t0.5 -43.5t3.5 -45
t11 -37.5t21 -14.5q18 0 25 66.5t7 127.5q0 76 21.5 169t63.5 130q18 10 25 -13q5 -19 -2 -49z" />
    <glyph glyph-name="x" unicode="x" horiz-adv-x="442" 
d="M417 40q2 -3 5.5 -7t5.5 -6t4.5 -5t3 -4.5t1 -4.5t-0.5 -4q-3 -16 -36 -13q-35 4 -65 25t-47 43t-44.5 62.5t-43.5 60.5q-19 -26 -52.5 -67t-40.5 -50q-31 -40 -49 -57t-28 -9q-24 13 18 108q49 111 88 162q-5 7 -50.5 77.5t-76.5 102.5q-20 22 -19 29q0 8 9.5 12.5
t24.5 2.5q12 -2 23.5 -6t23.5 -11.5t20.5 -12.5t21.5 -17t19 -17t19.5 -20t17 -19t18.5 -21t16 -19q46 53 132 110q35 24 68 30.5t37 -7.5q2 -5 0 -11t-8.5 -14.5t-13.5 -16.5t-19.5 -21t-20.5 -22l-47 -49q-47 -50 -68 -76q15 -25 37.5 -67.5t35 -64t34 -51t47.5 -55.5z
" />
    <glyph glyph-name="y" unicode="y" horiz-adv-x="458" 
d="M373 499q47 0 60 -78.5t-1 -185.5t-29 -187t-25 -113q-93 -309 -273 -300q-11 0 -37.5 7t-49 20.5t-16.5 27.5q4 7 17 9t37.5 3.5t43.5 5.5q38 10 69.5 35t53 62t36 73.5t27.5 82.5q29 104 43 238q-14 -39 -23.5 -62t-32.5 -64.5t-44.5 -63.5t-54.5 -35t-69 -2
q-99 29 -91 227q6 74 30 189t52 115q8 0 12.5 -7.5t5.5 -22.5t0.5 -34t-2 -45.5t-3.5 -53t-4 -61t-3 -64.5q-6 -152 30 -152q18 0 34.5 13.5t31.5 41t26.5 54t24 67.5t19 64.5t16.5 62.5q24 87 49 114q18 19 40 19z" />
    <glyph glyph-name="z" unicode="z" horiz-adv-x="408" 
d="M407 60q0 -29 -94.5 -57.5t-163.5 -28.5q-136 0 -163 61q-21 53 28 96q2 2 98 71.5t150.5 121t31.5 65.5q-31 18 -121.5 18.5t-111.5 4.5q-62 9 -62 34q0 24 59 39q85 19 163 14q31 -2 56.5 -7t54.5 -17t45 -35t14 -56q-1 -46 -37.5 -94t-78.5 -80.5t-102 -74.5t-84 -63
q29 -9 82.5 -12t89.5 1q22 1 47 5t41 7t30.5 4t21 -3t6.5 -14z" />
    <glyph glyph-name="braceleft" unicode="{" horiz-adv-x="269" 
d="M256 -84q4 -10 -8 -21t-36 -16q-30 -5 -59.5 6t-47.5 37q-27 37 -28.5 83.5t9.5 105t9 90.5q-5 33 -17 50q-3 3 -9.5 10t-9.5 10.5t-5.5 9.5t-1.5 11q-1 7 1.5 12.5t12.5 15.5l12 12q13 16 17 47q3 35 -7.5 98t-10.5 94q0 53 41 90t96 28q23 -5 34.5 -16t7.5 -21
q-2 -5 -6.5 -8.5t-8.5 -5t-14 -5t-13 -4.5q-33 -9 -47 -28q-13 -13 -13.5 -38.5t5 -52.5t11 -66.5t2.5 -71.5q-5 -54 -42 -80q38 -27 43 -85q2 -23 -5 -58.5t-14 -63t-5 -60t19 -56.5q14 -20 45 -29q4 -2 13.5 -4.5t13.5 -4.5t9 -6t7 -9z" />
    <glyph glyph-name="bar" unicode="|" horiz-adv-x="179" 
d="M33 -48q5 71 7 332t23 386q5 17 12 25.5t12 6.5q11 -3 15 -37q28 -159 28 -362.5t-30 -359.5q-26 -123 -49 -118q-18 4 -18 127z" />
    <glyph glyph-name="braceright" unicode="}" horiz-adv-x="303" 
d="M89 -121q-24 5 -36 16t-8 21q2 5 7 9t9 6t13.5 4.5t13.5 4.5q31 9 45 29q17 24 19 56.5t-5 60t-14 63t-5 58.5q5 58 43 85q-37 26 -42 80q-3 32 2 72t10.5 66.5t5 52t-12.5 38.5q-14 19 -47 28q-3 1 -13 4.5t-14 5t-8.5 5t-6.5 8.5q-4 10 7.5 21t34.5 16q55 9 96 -28.5
t41 -89.5q0 -31 -10.5 -94t-7.5 -98q4 -31 17 -47q3 -4 9.5 -10.5t9.5 -10t5.5 -9t1.5 -10.5q1 -5 -1.5 -11t-5.5 -9.5t-9.5 -10.5t-9.5 -10q-12 -17 -17 -50q-2 -32 9 -90.5t9.5 -105t-28.5 -83.5q-18 -26 -47.5 -37t-59.5 -6z" />
    <glyph glyph-name="asciitilde" unicode="~" horiz-adv-x="530" 
d="M399 294q23 4 52.5 34.5t42.5 31.5q11 -1 15.5 -17.5t-2.5 -42.5q-26 -50 -63 -69t-73.5 -11.5t-78.5 21.5t-77.5 29.5t-71 13.5t-58.5 -28q-4 -3 -10.5 -10t-10.5 -11t-9 -8t-9.5 -5.5t-8.5 -0.5q-22 30 8 77.5t77 58.5q36 8 75.5 -1.5t68.5 -26t65.5 -28.5t67.5 -7z
" />
    <glyph glyph-name="exclamdown" unicode="&#xa1;" horiz-adv-x="213" 
d="M118 388q-25 -2 -37.5 16t-9.5 40q2 24 26 35.5t48 1.5q21 -10 24 -32q2 -22 -12.5 -41.5t-38.5 -19.5zM96 -212q-20 2 -27 39.5t-4 85.5l11 287q7 122 41 122q20 0 34.5 -41t12.5 -83q-9 -233 -12 -290q-2 -43 -19 -82.5t-37 -37.5z" />
    <glyph glyph-name="cent" unicode="&#xa2;" horiz-adv-x="471" 
d="M437 491q9 -24 8 -36t-9 -15h-5.5t-6 3t-7 5.5t-8 7t-10.5 8.5q-34 26 -75 30h-1q13 -168 -7 -320q35 7 64 19q39 14 46 7q11 -11 -19 -45q-43 -46 -104 -61q-2 -10 -6 -25.5t-11.5 -38.5t-16 -38.5t-16.5 -14.5q-12 2 -15.5 46.5t-0.5 64.5q-108 12 -152 101t-13 198
q54 142 179 184q0 5 2 22t6 40t11.5 39t16.5 13q7 -3 11.5 -20.5t9.5 -52.5t6 -38q87 -12 123 -83zM167 354q-18 -61 2 -111.5t72 -65.5q1 48 1 145.5t2 145.5q-44 -36 -77 -114z" />
    <glyph glyph-name="sterling" unicode="&#xa3;" horiz-adv-x="471" 
d="M155 70q111 0 199 -10t88 -29t-92.5 -29t-207.5 -10q-33 0 -65 15t-35 45q-2 18 8.5 32t34.5 31t29 21q41 35 48 72.5t-16 89.5q-105 0 -105 29q0 14 25 21.5t57 7.5q-20 42 -19 92t24 95q25 52 83 76.5t122 18.5q36 -5 71.5 -22t22.5 -36q-3 -4 -17 -3.5t-34 2t-46 -0.5
q-102 -10 -134 -70q-29 -59 10 -152q94 0 133 -6.5t39 -22.5q0 -29 -149 -29q30 -85 -7 -152q-23 -42 -67 -76z" />
    <glyph glyph-name="currency" unicode="&#xa4;" horiz-adv-x="511" 
d="M408 411q70 -111 8 -222q80 -90 59 -111q-22 -22 -110 57q-43 -33 -118 -32t-119 30q-86 -76 -107 -55q-19 19 54 107q-30 55 -25 113.5t38 112.5q-38 40 -59 75t-8 46q22 22 120 -66q39 39 103.5 39t110.5 -38q98 87 120 65q21 -21 -67 -121zM249 179q52 0 77 39
t20.5 87t-27.5 80q-24 32 -52.5 38t-52 -8t-43.5 -43q-27 -42 -34 -85t20.5 -75.5t91.5 -32.5z" />
    <glyph glyph-name="yen" unicode="&#xa5;" horiz-adv-x="475" 
d="M432 306q0 -16 -20 -21.5t-72 -7t-72 -3.5v-2v-4t0.5 -8t0.5 -15.5v-25.5q163 0 163 -29t-163 -29q0 -155 -37 -155t-37 155q-163 0 -163 29t163 29v58q-163 0 -163 29t132 29q-8 12 -16 25t-22.5 37t-27 46.5t-27 49t-24 48.5t-16.5 42t-6.5 33.5t8.5 17.5
q16 9 51.5 -35t78.5 -113q46 -78 74 -121q7 9 50 85.5t83.5 132.5t60.5 45q7 -4 8.5 -14.5t-3 -27t-11.5 -34.5t-18 -40.5t-21 -42t-23.5 -43t-21.5 -37.5t-19 -32t-13 -22q123 0 123 -29z" />
    <glyph glyph-name="brokenbar" unicode="&#xa6;" horiz-adv-x="197" 
d="M97 154q34 0 34 -80v-17v-28t-0.5 -33t-2 -37t-3.5 -36t-6 -34t-9 -26.5t-12.5 -19t-16.5 -5.5q-15 1 -23 22t-9 54t0.5 63.5t4.5 61.5t3 38q7 77 40 77zM109 697q36 0 36 -100l1 -45q2 -44 1 -79.5t-4 -80t-13 -70t-27 -24.5q-15 1 -24 28t-10.5 69t-1 80t2.5 77.5
t2 45.5q0 38 9 68.5t28 30.5z" />
    <glyph glyph-name="section" unicode="&#xa7;" horiz-adv-x="479" 
d="M429 308q7 -37 -15 -77.5t-66 -55.5q65 -52 54 -121.5t-93 -101.5q-45 -16 -89 -13t-79 21q-21 11 -35.5 24t-19.5 23t0 16q3 3 7.5 4t12 0t14.5 -2.5t19 -4t21 -4.5q71 -13 121 8q22 8 39 31t-1 41q-20 24 -68 49.5t-92 44.5t-81.5 52.5t-42.5 74.5q-5 42 17 77.5
t64 54.5q-63 49 -53 116q11 72 95 108q43 18 88.5 16t80.5 -20q6 -4 14.5 -10t22.5 -18.5t17 -21.5t-2 -19q-10 -3 -16 -1.5t-24 7t-32 7.5q-25 2 -60 1.5t-69 -17t-39 -45.5q0 -11 6 -21t11.5 -15t19.5 -15q22 -15 90.5 -45t110 -63.5t52.5 -84.5zM327 190q40 31 43.5 61
t-25.5 56t-62 46t-79.5 44t-65.5 37q-39 -30 -41.5 -65.5t41.5 -74.5q32 -25 101 -59t88 -45z" />
    <glyph glyph-name="dieresis" unicode="&#xa8;" horiz-adv-x="353" 
d="M83 675q20 2 33.5 -16.5t11.5 -39.5q-2 -24 -26 -35.5t-48 -1.5q-21 10 -24 32q-2 20 15.5 39.5t37.5 21.5zM258 675q20 2 33.5 -16.5t11.5 -39.5q-2 -24 -26 -35.5t-48 -1.5q-21 10 -24 32q-2 20 15.5 39.5t37.5 21.5z" />
    <glyph glyph-name="copyright" unicode="&#xa9;" horiz-adv-x="659" 
d="M316 497q40 9 76.5 -5.5t56.5 -51.5q14 -35 -1 -37q-5 -1 -26 17t-54 22q-71 4 -113 -101q-17 -53 8 -93.5t82 -38.5q35 4 63 16q29 11 33 5q8 -8 -14 -32q-53 -58 -133 -47q-72 13 -100.5 75.5t-7.5 138.5q40 104 130 132zM608 466q54 -87 37 -193
q-21 -132 -139.5 -212.5t-252.5 -47.5q-85 20 -150 84.5t-87 152.5q-21 84 6 169.5t95.5 147t158.5 75.5q104 18 193 -37q24 -15 40.5 -32t21.5 -28.5t1 -15.5t-14 -0.5t-32.5 14t-39.5 16.5q-76 32 -159 18q-105 -16 -169 -110t-38 -202q17 -68 67.5 -119t120.5 -69
q104 -25 199 36t113 171q14 83 -18 159q-6 17 -16.5 39.5t-14 32.5t0.5 14t15.5 -1t28.5 -21.5t32 -40.5z" />
    <glyph glyph-name="ordfeminine" unicode="&#xaa;" horiz-adv-x="304" 
d="M274 263l5 -5t5 -4.5t3.5 -4t1.5 -4.5q0 -3 -3 -5.5t-9.5 -3.5t-15.5 1q-43 9 -66 77q-33 -59 -79 -59q-40 0 -65.5 28t-33 66t-0.5 77q11 59 53 108t102 49q43 0 72 -27.5t29 -59.5q0 -25 -11 -25q-6 0 -17 18q-26 40 -71 36q-35 -2 -61 -36t-35 -77q-6 -32 5.5 -63
t34.5 -31q17 0 32.5 21t24.5 43q2 6 5 24.5t6 29.5t11.5 21t22.5 10q12 0 19 -6.5t9.5 -20.5t3.5 -23.5t0 -27t-1 -20.5q2 -78 23 -106z" />
    <glyph glyph-name="guillemotleft" unicode="&#xab;" 
d="M102 245q14 -17 29.5 -38t25.5 -34q63 -82 36 -104q-22 -17 -72.5 35t-76.5 95q-20 27 -20 45q0 8 3.5 17.5t6.5 15t10.5 16.5t9.5 15q3 4 10 13.5t12.5 17t14 19t15.5 19.5t16.5 18t16.5 15t15.5 10.5t14 4.5t12.5 -4q12 -15 2 -44.5t-33 -61.5q-44 -63 -48 -70z
M257 245q14 -17 29.5 -38t25.5 -34q63 -82 36 -104q-21 -18 -72 35t-77 95q-20 27 -20 45q0 8 3.5 17.5t6.5 15t10.5 16.5t9.5 15q3 4 10 13.5t12.5 17t14 19t15.5 19.5t16.5 18t16.5 15t15.5 10.5t14 4.5t12.5 -4q12 -15 2 -44.5t-33 -61.5q-44 -63 -48 -70z" />
    <glyph glyph-name="logicalnot" unicode="&#xac;" horiz-adv-x="600" 
d="M555 330q3 -64 -4 -143.5t-24 -75.5q-29 0 -29 204q0 14 -11 17h-272q-70 0 -125.5 7.5t-55.5 21.5t55.5 21.5t125.5 7.5h273q25 0 44.5 -17t22.5 -43z" />
    <glyph glyph-name="registered" unicode="&#xae;" horiz-adv-x="424" 
d="M340 591q40 -65 8.5 -141t-106.5 -100q-45 -15 -93.5 -3.5t-81.5 45.5q-35 34 -46.5 82t3.5 94q14 45 52 77.5t85 39.5q39 8 84.5 -10.5t53.5 -50.5q-2 -2 -7.5 0t-17 8t-21.5 9q-39 17 -86 9q-38 -5 -68 -31t-41 -62q-12 -36 -3 -74.5t37 -65.5q26 -27 64.5 -36.5
t74.5 2.5q59 18 83 77t2 118q-3 6 -6.5 14t-5.5 12t-4.5 9.5t-2 6.5t1.5 4q2 3 8.5 0t15.5 -11.5t17 -21.5zM144 599q42 8 82 -7t38 -55q0 -26 -34 -42q21 -16 28 -37q5 -11 4.5 -19.5t-5.5 -9.5q-7 -1 -22 14q-34 34 -59 41q-3 -1 -4 5q-4 17 4 27q1 2 2 2q5 2 16.5 3.5
t20.5 5t13 11.5q6 28 -65 28q7 -15 0.5 -82t-23.5 -63q-12 2 -12 141q-2 16 1 24.5t5.5 9.5t9.5 3z" />
    <glyph glyph-name="macron" unicode="&#xaf;" 
d="M124 633h146q17 0 52.5 -8.5t35.5 -17.5q0 -10 -29.5 -20t-57.5 -10h-147q-23 0 -58 8t-35 20t32 20t61 8z" />
    <glyph glyph-name="degree" unicode="&#xb0;" horiz-adv-x="331" 
d="M32 550q0 35 19.5 64t52.5 43q17 7 32 7.5t23 -3.5t8 -8q0 -5 -6 -9t-18 -10t-20 -12q-18 -13 -30 -32.5t-11 -39.5q-2 -32 24.5 -55.5t60.5 -23.5t59.5 23.5t25.5 55.5q0 43 -41 72q-9 6 -21 12t-17.5 10t-5.5 9q-1 4 7 8t23 3.5t32 -7.5q32 -12 51.5 -41.5t20.5 -65.5
q0 -54 -39 -90.5t-95 -38.5q-53 0 -93 36.5t-42 92.5z" />
    <glyph glyph-name="plusminus" unicode="&#xb1;" horiz-adv-x="621" 
d="M131 67h343q28 0 57.5 -10t29.5 -29t-29.5 -29t-57.5 -10h-343q-28 0 -57.5 10t-29.5 29t29.5 29t57.5 10zM265 296q-213 0 -213 45q0 44 215 44q2 108 13.5 159.5t35.5 50.5q45 -1 40 -210q204 0 204 -44q0 -45 -206 -45q-2 -108 -13.5 -159t-34.5 -50q-46 1 -41 209z
" />
    <glyph glyph-name="twosuperior" unicode="&#xb2;" horiz-adv-x="302" 
d="M264 358q2 -10 -13 -17t-45 -10t-59 -4t-70 -1q-17 0 -29 9t-12 28q0 21 59 59q2 2 17.5 11.5t21 14t19 14.5t20 17.5t15 18t12 21.5t4.5 23q4 33 -20 44t-55 2.5t-47 -27.5q-9 -9 -16 -21.5t-11 -19t-8 -6.5q-7 0 -7 19q0 50 47 81t97 17q30 -8 48 -34.5t14 -58.5
q-2 -29 -19.5 -56t-32.5 -40t-50.5 -38t-44.5 -32q4 0 15 -1t33 -2.5t54 -1.5q62 0 63 -9z" />
    <glyph glyph-name="threesuperior" unicode="&#xb3;" horiz-adv-x="318" 
d="M294 411q15 -52 -36 -93t-108 -41q-76 0 -119 53q-12 17 -8 22q8 2 13 0t22 -9.5t31 -10.5q24 -9 59 -7q32 3 66 23.5t31 49.5q-2 7 -7 13t-13.5 10t-17 6.5t-20.5 4.5t-19.5 3t-18.5 2t-14 1q-7 0 -14.5 -0.5t-10 -0.5t-6 0.5t-5.5 2t-5 4.5q-10 13 -7.5 23.5t13.5 13.5
q33 4 68.5 34t33.5 58q-2 23 -32 28t-57 -7q-14 -7 -27.5 -15.5t-20 -12.5t-9.5 -3q-8 2 0 24q13 31 48 46t72 11q65 -11 76 -58q13 -48 -50 -104q76 -19 92 -71z" />
    <glyph glyph-name="acute" unicode="&#xb4;" horiz-adv-x="233" 
d="M120 663q17 27 56 29q32 2 33 -18q1 -13 -13 -30q-85 -103 -128 -103q-6 0 -7 5.5t2.5 15.5t8.5 20.5t13 24t13.5 22.5t13 20.5t8.5 13.5z" />
    <glyph glyph-name="mu" unicode="&#xb5;" horiz-adv-x="557" 
d="M482 30q-4 -37 -29 -48q-17 -8 -22 6l-27 75q-52 -64 -133 -64q-77 0 -122 56q-8 -125 -8 -195q0 -55 -23 -72q-20 -14 -32 21q-8 24 -8 67q0 40 -1.5 175.5t-1.5 242.5t4 166q2 40 24.5 56t43 -0.5t19.5 -55.5v-63v-84.5t-0.5 -84t-0.5 -67.5v-27q12 -32 41.5 -49
t63.5 -17q37 0 69.5 18t46.5 49q14 33 26 325q2 39 31 54t46 -16q11 -21 11 -59q0 -110 -18 -409z" />
    <glyph glyph-name="paragraph" unicode="&#xb6;" horiz-adv-x="564" 
d="M469 614v-656q0 -22 -1 -30.5t-7 -15t-20 -6.5h-38v635q0 14 -8.5 23t-22.5 9q-12 0 -21 -9t-9 -23v-635h-36q-33 0 -33 67v271q0 6 -16.5 9.5t-41 5t-53 13.5t-53 31.5t-41 62t-16.5 101.5q0 46 13 82t33 58.5t50.5 38.5t57 23t61.5 10.5t56.5 3.5t49.5 -1t32 -1
q41 0 52.5 -17t11.5 -50z" />
    <glyph glyph-name="periodcentered" unicode="&#xb7;" horiz-adv-x="144" 
d="M71 353q20 2 33.5 -16.5t11.5 -39.5q-2 -24 -26 -35.5t-48 -1.5q-21 10 -24 32q-2 20 15.5 39.5t37.5 21.5z" />
    <glyph glyph-name="cedilla" unicode="&#xb8;" horiz-adv-x="235" 
d="M136 2q5 0 6.5 -7.5t-1.5 -20t-10 -25.5q35 -5 52.5 -29.5t17.5 -50.5q0 -27 -23 -48.5t-69 -21.5q-39 0 -60 22t-12 39q9 8 16.5 5t25.5 -11.5t32 -8.5q39 0 43 24q5 24 -28 38q-22 10 -54 10q-10 0 5 26l2 3q9 16 27 36t30 20z" />
    <glyph glyph-name="onesuperior" unicode="&#xb9;" horiz-adv-x="130" 
d="M67 644q28 0 28 -46q-14 -180 -15 -192q-7 -87 -25 -87q-12 0 -17.5 28.5t-2.5 61.5q10 130 17 198q-1 0 -8 -1.5t-12.5 -1t-7.5 4.5q-9 11 10.5 23t32.5 12z" />
    <glyph glyph-name="ordmasculine" unicode="&#xba;" horiz-adv-x="285" 
d="M264 510q9 -70 -22 -129.5t-99 -57.5q-67 0 -100 48.5t-25 124.5q16 105 81 141q15 9 29 9t16 -7q11 5 21 3q70 -13 99 -132zM143 385q33 0 48.5 31.5t13 70.5t-17.5 66q-24 42 -39 54q-5 4 -10 7q-40 -61 -44 -71q-13 -25 -18 -52t-2 -51t20.5 -39.5t48.5 -15.5z" />
    <glyph glyph-name="guillemotright" unicode="&#xbb;" horiz-adv-x="423" 
d="M78 173q1 1 55 72q-4 7 -48 70q-23 29 -33 61.5t2 44.5q7 3 12.5 4t14 -4.5t15.5 -10.5t16.5 -15t16.5 -18t15.5 -19.5t14 -19t12.5 -17t10 -13.5q2 -4 9.5 -15t10.5 -16.5t6.5 -15t3.5 -17.5q0 -18 -20 -45q-89 -119 -126 -133q-15 -5 -23 3q-27 22 36 104zM235 173
q1 1 55 72q-4 7 -48 70q-23 29 -33 61.5t2 44.5q7 3 12.5 4t14 -4.5t15.5 -10.5t16.5 -15t16.5 -18t15.5 -19.5t14 -19t12.5 -17t10 -13.5q2 -4 9.5 -15t10.5 -16.5t6.5 -15t3.5 -17.5q0 -18 -20 -45q-27 -43 -78 -96.5t-71 -33.5q-27 22 36 104z" />
    <glyph glyph-name="onequarter" unicode="&#xbc;" horiz-adv-x="634" 
d="M436 644q-25 -98 -97 -296.5t-96 -274.5q-20 -52 -34.5 -79t-25.5 -25q-12 1 -11 34.5t16 86.5q89 313 210 564q5 8 7.5 11.5t6.5 8t6.5 6t5.5 1.5q14 -2 12 -37zM582 125q0 -10 -27 -18q-2 -9 -1.5 -39.5t0.5 -39.5q-2 -27 -9 -31q-5 -3 -13 3.5t-14 20.5q-15 32 -10 78
q-49 -5 -90 1q-46 7 -59 26q-20 34 29 122l4 8q27 48 42 69.5t25 17.5q11 -6 3 -41q-2 -8 -18 -41q-44 -89 -32 -108q4 -6 13 -7q10 -2 50 -2h35q5 60 15 115q14 83 32 83q14 0 16 -39.5t-2 -49.5q-11 -89 -14 -113q25 -4 25 -15zM136 644q28 -1 28 -46q-2 -21 -5 -59.5
t-5.5 -70.5t-4.5 -62q-7 -87 -25 -87q-11 0 -16.5 29t-3.5 61q10 130 17 198q-24 -3 -28 2q-9 11 10.5 23t32.5 12z" />
    <glyph glyph-name="onehalf" unicode="&#xbd;" horiz-adv-x="595" 
d="M410 644q-25 -98 -97 -296.5t-96 -274.5q-20 -52 -34.5 -79t-25.5 -25q-12 1 -11 34.5t16 86.5q89 313 210 564q5 8 7.5 11.5t6.5 8t6.5 6t5.5 1.5q14 -2 12 -37zM565 28q2 -10 -13 -17t-45 -10t-59 -4t-70 -1q-17 0 -29 9t-12 28q0 10 9.5 20.5t29.5 24.5l20 14
q2 2 15.5 10.5t18.5 11.5t17 12t17.5 14.5t14.5 15t13 17.5t8 18t5 21q4 33 -20 43.5t-54.5 2t-47.5 -26.5q-10 -9 -17 -21.5t-11 -19t-7 -6.5q-7 0 -7 19q0 50 47.5 81t96.5 17q31 -8 48 -34t14 -59q-1 -23 -10 -43.5t-28 -39t-32 -29t-41 -29.5t-36 -25l29 -2q29 -3 73 -3
q62 0 63 -9zM123 644q28 -1 28 -46q-2 -21 -5 -59.5t-5.5 -70.5t-4.5 -62q-7 -87 -25 -87q-11 0 -16.5 29t-3.5 61q10 130 17 198q-24 -3 -28 2q-9 11 10.5 23t32.5 12z" />
    <glyph glyph-name="threequarters" unicode="&#xbe;" horiz-adv-x="678" 
d="M506 644q-25 -98 -97 -296.5t-96 -274.5q-20 -52 -34.5 -79t-25.5 -25q-12 1 -11 34.5t16 86.5q89 313 210 564q5 8 7.5 11.5t6.5 8t6.5 6t5.5 1.5q14 -2 12 -37zM632 125q0 -10 -27 -18q-2 -9 -1.5 -39.5t0.5 -39.5q-2 -27 -9 -31q-5 -3 -13 3.5t-14 20.5q-15 32 -10 78
q-49 -5 -90 1q-46 7 -59 26q-20 34 29 122l4 8q27 48 42 69.5t25 17.5q11 -6 3 -41q-2 -8 -18 -41q-44 -89 -32 -108q4 -6 13 -7q10 -2 50 -2h35q5 60 15 115q14 83 32 83q14 0 16 -39.5t-2 -49.5q-11 -89 -14 -113q25 -4 25 -15zM294 411q15 -54 -36 -94t-108 -40
q-33 -1 -66 13t-53 40q-11 15 -8 22q8 2 12.5 0.5t22.5 -9t31 -11.5q24 -9 59 -7q33 3 66.5 23t30.5 50q-2 9 -9.5 15.5t-16 10t-22.5 6.5t-22.5 4t-23 2.5t-16.5 1.5q-7 0 -16 -0.5t-12 -0.5t-6.5 1.5t-6.5 5.5q-10 13 -7.5 23.5t13.5 13.5q33 4 68.5 34t33.5 58
q-2 22 -32.5 28t-56.5 -7q-13 -6 -26.5 -15t-20 -13.5t-10.5 -2.5q-8 5 0 24q14 30 49 45.5t71 11.5q26 -4 48 -19t28 -39q13 -49 -50 -104q75 -15 92 -71z" />
    <glyph glyph-name="questiondown" unicode="&#xbf;" horiz-adv-x="440" 
d="M241 430q-20 -2 -33.5 16.5t-11.5 39.5q2 24 26 35.5t48 1.5q21 -10 24 -32q2 -20 -15.5 -39.5t-37.5 -21.5zM36 -49q-7 39 5 74t35 65t49 58.5t50.5 67.5t35.5 79q5 19 8 28t7.5 20t9 15.5t9.5 4.5q11 1 22 -23t10 -59q-1 -41 -19 -79.5t-41.5 -67.5t-46 -56t-35 -54
t-7.5 -52q9 -48 52.5 -65t92 -1t72.5 54q9 11 19 26t15.5 22.5t11.5 7.5q11 0 16 -24q11 -57 -35 -111.5t-103 -64.5q-49 -8 -98 4t-87.5 46.5t-47.5 84.5z" />
    <glyph glyph-name="Agrave" unicode="&#xc0;" horiz-adv-x="568" 
d="M485 328q114 -9 110 -57q-2 -24 -31.5 -34t-67.5 -7v-1q9 -66 11 -149v-7v-13.5v-16t-1 -17t-3 -14.5t-5 -11t-8 -3q-27 0 -56 67q-23 61 -36 173l-195 16q-41 -145 -71 -207q-16 -32 -31.5 -49.5t-27.5 -12.5q-20 9 -12 83q6 59 44 194q-58 6 -89 20t-29 39q4 48 146 36
q3 10 13 44t16 54t17.5 57t21 60.5t23 55t26.5 51.5t27.5 39t31 28t33.5 9q24 0 44 -18.5t34 -54.5t24.5 -70t18 -85.5t11 -79.5t7.5 -72.5t4 -46.5zM232 349l155 -13q-2 20 -7 71.5t-8.5 79.5t-11.5 70.5t-19 77.5q-63 -104 -109 -286zM240 893q-29 35 0 46q27 10 57 -9
q13 -8 19 -18q1 -2 8.5 -13.5t13 -20.5t13.5 -22.5t13 -24t8.5 -20.5t2.5 -15.5t-7 -5.5q-43 0 -128 103z" />
    <glyph glyph-name="Aacute" unicode="&#xc1;" horiz-adv-x="568" 
d="M485 328q114 -9 110 -57q-2 -24 -31.5 -34t-67.5 -7v-1q9 -66 11 -149v-7v-13.5v-16t-1 -17t-3 -14.5t-5 -11t-8 -3q-27 0 -56 67q-23 61 -36 173l-195 16q-41 -145 -71 -207q-16 -32 -31.5 -49.5t-27.5 -12.5q-20 9 -12 83q6 59 44 194q-58 6 -89 20t-29 39q4 48 146 36
q3 10 13 44t16 54t17.5 57t21 60.5t23 55t26.5 51.5t27.5 39t31 28t33.5 9q24 0 44 -18.5t34 -54.5t24.5 -70t18 -85.5t11 -79.5t7.5 -72.5t4 -46.5zM232 349l155 -13q-2 20 -7 71.5t-8.5 79.5t-11.5 70.5t-19 77.5q-63 -104 -109 -286zM339 907q17 27 56 29q32 2 33 -18
q1 -13 -13 -30q-85 -103 -128 -103q-6 0 -7 5.5t2.5 15.5t8.5 20.5t13 24t13.5 22.5t13 20.5t8.5 13.5z" />
    <glyph glyph-name="Acircumflex" unicode="&#xc2;" horiz-adv-x="568" 
d="M485 328q114 -9 110 -57q-2 -24 -31.5 -34t-67.5 -7v-1q9 -66 11 -149v-7v-13.5v-16t-1 -17t-3 -14.5t-5 -11t-8 -3q-27 0 -56 67q-23 61 -36 173l-195 16q-41 -145 -71 -207q-16 -32 -31.5 -49.5t-27.5 -12.5q-20 9 -12 83q6 59 44 194q-58 6 -89 20t-29 39q4 48 146 36
q3 10 13 44t16 54t17.5 57t21 60.5t23 55t26.5 51.5t27.5 39t31 28t33.5 9q24 0 44 -18.5t34 -54.5t24.5 -70t18 -85.5t11 -79.5t7.5 -72.5t4 -46.5zM232 349l155 -13q-2 20 -7 71.5t-8.5 79.5t-11.5 70.5t-19 77.5q-63 -104 -109 -286zM409 884q19 -26 27.5 -48.5
t-0.5 -33.5q-19 -13 -67 53q-30 41 -33 44l-33 -44q-48 -66 -67 -53q-9 11 -0.5 33.5t27.5 48.5q2 3 11 17t14.5 20.5t14 16.5t16.5 14.5t17 4.5t17.5 -4.5t17.5 -15t13.5 -16.5t14 -21t10.5 -16z" />
    <glyph glyph-name="Atilde" unicode="&#xc3;" horiz-adv-x="568" 
d="M485 328q114 -9 110 -57q-2 -24 -31.5 -34t-67.5 -7v-1q9 -66 11 -149v-7v-13.5v-16t-1 -17t-3 -14.5t-5 -11t-8 -3q-27 0 -56 67q-23 61 -36 173l-195 16q-41 -145 -71 -207q-16 -32 -31.5 -49.5t-27.5 -12.5q-20 9 -12 83q6 59 44 194q-58 6 -89 20t-29 39q4 48 146 36
q3 10 13 44t16 54t17.5 57t21 60.5t23 55t26.5 51.5t27.5 39t31 28t33.5 9q24 0 44 -18.5t34 -54.5t24.5 -70t18 -85.5t11 -79.5t7.5 -72.5t4 -46.5zM232 349l155 -13q-2 20 -7 71.5t-8.5 79.5t-11.5 70.5t-19 77.5q-63 -104 -109 -286zM344 889q23 -14 48 -9t38 26
q13 20 20 20q16 -13 1.5 -44t-37.5 -40q-34 -14 -80.5 7.5t-67.5 12.5q-15 -7 -27 -25.5t-18 -18.5q-6 3 -8.5 12.5t1.5 24.5q15 41 53 49.5t77 -15.5z" />
    <glyph glyph-name="Adieresis" unicode="&#xc4;" horiz-adv-x="568" 
d="M485 328q114 -9 110 -57q-2 -24 -31.5 -34t-67.5 -7v-1q9 -66 11 -149v-7v-13.5v-16t-1 -17t-3 -14.5t-5 -11t-8 -3q-27 0 -56 67q-23 61 -36 173l-195 16q-41 -145 -71 -207q-16 -32 -31.5 -49.5t-27.5 -12.5q-20 9 -12 83q6 59 44 194q-58 6 -89 20t-29 39q4 48 146 36
q3 10 13 44t16 54t17.5 57t21 60.5t23 55t26.5 51.5t27.5 39t31 28t33.5 9q24 0 44 -18.5t34 -54.5t24.5 -70t18 -85.5t11 -79.5t7.5 -72.5t4 -46.5zM232 349l155 -13q-2 20 -7 71.5t-8.5 79.5t-11.5 70.5t-19 77.5q-63 -104 -109 -286zM262 914q20 2 33.5 -16.5t11.5 -39.5
q-2 -24 -26 -35.5t-48 -1.5q-21 10 -24 32q-2 20 15.5 39.5t37.5 21.5zM437 914q20 2 33.5 -16.5t11.5 -39.5q-2 -24 -26 -35.5t-48 -1.5q-21 10 -24 32q-2 20 15.5 39.5t37.5 21.5z" />
    <glyph glyph-name="Aring" unicode="&#xc5;" horiz-adv-x="568" 
d="M485 328q114 -9 110 -57q-2 -24 -31.5 -34t-67.5 -7v-1q9 -66 11 -149v-7v-13.5v-16t-1 -17t-3 -14.5t-5 -11t-8 -3q-27 0 -56 67q-23 61 -36 173l-195 16q-41 -145 -71 -207q-16 -32 -31.5 -49.5t-27.5 -12.5q-20 9 -12 83q6 59 44 194q-58 6 -89 20t-29 39q4 48 146 36
q3 10 13 44t16 54t17.5 57t21 60.5t23 55t26.5 51.5t27.5 39t31 28t33.5 9q24 0 44 -18.5t34 -54.5t24.5 -70t18 -85.5t11 -79.5t7.5 -72.5t4 -46.5zM232 349l155 -13q-2 20 -7 71.5t-8.5 79.5t-11.5 70.5t-19 77.5q-63 -104 -109 -286zM244 869q0 25 14.5 47t38.5 33
q13 5 24.5 5.5t17.5 -2t5 -6.5q0 -3 -4 -6t-13 -7.5t-15 -9.5q-30 -21 -30 -54q0 -24 18.5 -41t43.5 -17t44 17t19 41q0 33 -30 54q-6 5 -15 9.5t-13.5 7.5t-4.5 6q0 4 6 6.5t17 2t24 -5.5q49 -18 54 -80q2 -39 -29 -66.5t-72 -29.5q-40 0 -70 27.5t-30 68.5z" />
    <glyph glyph-name="AE" unicode="&#xc6;" horiz-adv-x="864" 
d="M888 660q3 -7 5.5 -17.5t1 -23t-10.5 -13.5q-5 0 -10 3t-13 9.5t-13 10.5q-71 42 -205 16q-65 -13 -118.5 -49t-53.5 -94q0 -138 303 -138q13 0 18.5 -11t3.5 -27q-2 -17 -11.5 -29.5t-26.5 -19.5t-29.5 -10.5t-36 -7.5t-30.5 -6q-46 -8 -90 -40t-39 -74
q6 -47 57.5 -67.5t121.5 -13.5q37 3 72.5 15.5t45 18.5t22.5 0q9 -11 -7.5 -33.5t-49 -44.5t-64.5 -31q-135 -36 -225 29t-108 226l-195 16q-41 -145 -71 -207q-16 -32 -31.5 -49.5t-27.5 -12.5q-20 9 -12 83q6 59 44 194q-58 6 -89 20t-29 39q4 48 146 36q3 10 13 44t16 54
t17.5 57t21 60.5t23 55t26.5 51.5t27.5 39t31 28t33.5 9q55 0 89 -101q75 80 195 94q78 10 152 -9t110 -79zM232 349l155 -13q-24 217 -46 299q-63 -104 -109 -286z" />
    <glyph glyph-name="Ccedilla" unicode="&#xc7;" horiz-adv-x="541" 
d="M44 455q28 59 72.5 115t101 102.5t126 68.5t135.5 8q54 -12 85 -57.5t25 -102.5q-6 -84 -76 -165q-28 -30 -42 -22q-5 3 -5.5 15.5t3 31t7 35t8 34.5l5.5 22q10 57 -8 84t-75 18q-84 -15 -153.5 -78.5t-106.5 -151.5q-21 -51 -24.5 -111.5t11 -115t54.5 -94.5t99 -47
q42 -4 86.5 1.5t70 13t51 10.5t29.5 -7q2 -42 -83.5 -86.5t-180.5 -35.5q-81 9 -141.5 60t-88.5 124t-25.5 161.5t40.5 169.5zM292 2q5 0 6.5 -7.5t-1.5 -20t-10 -25.5q35 -5 52.5 -29.5t17.5 -50.5q0 -27 -23 -48.5t-69 -21.5q-39 0 -60 22t-12 39q9 8 16.5 5t25.5 -11.5
t32 -8.5q39 0 43 24q5 24 -28 38q-22 10 -54 10q-10 0 5 26l2 3q9 16 27 36t30 20z" />
    <glyph glyph-name="Egrave" unicode="&#xc8;" horiz-adv-x="511" 
d="M533 660q3 -7 5.5 -17.5t1 -23t-10.5 -13.5q-5 0 -10 3t-13 9.5t-13 10.5q-71 42 -205 16q-65 -13 -118.5 -49t-53.5 -94q0 -138 303 -138q13 0 18.5 -11t3.5 -27q-2 -17 -11.5 -29.5t-26.5 -19.5t-29.5 -10.5t-36 -7.5t-30.5 -6q-46 -8 -90 -40t-39 -74
q6 -47 57.5 -67.5t121.5 -13.5q37 3 72.5 15.5t45 18.5t22.5 0q9 -11 -7.5 -33.5t-49 -44.5t-64.5 -31q-40 -13 -90.5 -10.5t-95 15.5t-78.5 47t-43 84q-17 103 71 180q-61 24 -98.5 80.5t-35.5 125.5q0 99 80 164.5t185 78.5q78 10 152 -9t110 -79zM221 889q-29 35 0 46
q27 10 57 -9q13 -8 19 -18q1 -2 8.5 -13.5t13 -20.5t13.5 -22.5t13 -24t8.5 -20.5t2.5 -15.5t-7 -5.5q-43 0 -128 103z" />
    <glyph glyph-name="Eacute" unicode="&#xc9;" horiz-adv-x="511" 
d="M533 660q3 -7 5.5 -17.5t1 -23t-10.5 -13.5q-5 0 -10 3t-13 9.5t-13 10.5q-71 42 -205 16q-65 -13 -118.5 -49t-53.5 -94q0 -138 303 -138q13 0 18.5 -11t3.5 -27q-2 -17 -11.5 -29.5t-26.5 -19.5t-29.5 -10.5t-36 -7.5t-30.5 -6q-46 -8 -90 -40t-39 -74
q6 -47 57.5 -67.5t121.5 -13.5q37 3 72.5 15.5t45 18.5t22.5 0q9 -11 -7.5 -33.5t-49 -44.5t-64.5 -31q-40 -13 -90.5 -10.5t-95 15.5t-78.5 47t-43 84q-17 103 71 180q-61 24 -98.5 80.5t-35.5 125.5q0 99 80 164.5t185 78.5q78 10 152 -9t110 -79zM287 912q17 27 56 29
q32 2 33 -18q1 -13 -13 -30q-85 -103 -128 -103q-6 0 -7 5.5t2.5 15.5t8.5 20.5t13 24t13.5 22.5t13 20.5t8.5 13.5z" />
    <glyph glyph-name="Ecircumflex" unicode="&#xca;" horiz-adv-x="511" 
d="M533 660q3 -7 5.5 -17.5t1 -23t-10.5 -13.5q-5 0 -10 3t-13 9.5t-13 10.5q-71 42 -205 16q-65 -13 -118.5 -49t-53.5 -94q0 -138 303 -138q13 0 18.5 -11t3.5 -27q-2 -17 -11.5 -29.5t-26.5 -19.5t-29.5 -10.5t-36 -7.5t-30.5 -6q-46 -8 -90 -40t-39 -74
q6 -47 57.5 -67.5t121.5 -13.5q37 3 72.5 15.5t45 18.5t22.5 0q9 -11 -7.5 -33.5t-49 -44.5t-64.5 -31q-40 -13 -90.5 -10.5t-95 15.5t-78.5 47t-43 84q-17 103 71 180q-61 24 -98.5 80.5t-35.5 125.5q0 99 80 164.5t185 78.5q78 10 152 -9t110 -79zM359 882
q19 -26 27.5 -48.5t-0.5 -33.5q-19 -13 -67 53q-30 41 -33 44l-33 -44q-48 -66 -67 -53q-9 11 -0.5 33.5t27.5 48.5q2 3 11 17t14.5 20.5t14 16.5t16.5 14.5t17 4.5t17.5 -4.5t17.5 -15t13.5 -16.5t14 -21t10.5 -16z" />
    <glyph glyph-name="Edieresis" unicode="&#xcb;" horiz-adv-x="511" 
d="M533 660q3 -7 5.5 -17.5t1 -23t-10.5 -13.5q-5 0 -10 3t-13 9.5t-13 10.5q-71 42 -205 16q-65 -13 -118.5 -49t-53.5 -94q0 -138 303 -138q13 0 18.5 -11t3.5 -27q-2 -17 -11.5 -29.5t-26.5 -19.5t-29.5 -10.5t-36 -7.5t-30.5 -6q-46 -8 -90 -40t-39 -74
q6 -47 57.5 -67.5t121.5 -13.5q37 3 72.5 15.5t45 18.5t22.5 0q9 -11 -7.5 -33.5t-49 -44.5t-64.5 -31q-40 -13 -90.5 -10.5t-95 15.5t-78.5 47t-43 84q-17 103 71 180q-61 24 -98.5 80.5t-35.5 125.5q0 99 80 164.5t185 78.5q78 10 152 -9t110 -79zM205 921
q20 2 33.5 -16.5t11.5 -39.5q-2 -24 -26 -35.5t-48 -1.5q-21 10 -24 32q-2 20 15.5 39.5t37.5 21.5zM380 921q20 2 33.5 -16.5t11.5 -39.5q-2 -24 -26 -35.5t-48 -1.5q-21 10 -24 32q-2 20 15.5 39.5t37.5 21.5z" />
    <glyph glyph-name="Igrave" unicode="&#xcc;" horiz-adv-x="160" 
d="M133 641q-3 -56 -4 -170.5t-5.5 -207.5t-17.5 -174q-23 -127 -52 -123q-14 2 -20.5 31.5t-12.5 94.5q-13 122 -8.5 279t37.5 283q15 53 35.5 86t35.5 29q13 -5 14.5 -40t-2.5 -88zM26 908q-29 35 0 46q27 10 57 -9q13 -8 19 -18q1 -2 8.5 -13.5t13 -20.5t13.5 -22.5
t13 -24t8.5 -20.5t2.5 -15.5t-7 -5.5q-43 0 -128 103z" />
    <glyph glyph-name="Iacute" unicode="&#xcd;" horiz-adv-x="160" 
d="M133 641q-3 -56 -4 -170.5t-5.5 -207.5t-17.5 -174q-23 -127 -52 -123q-14 2 -20.5 31.5t-12.5 94.5q-13 122 -8.5 279t37.5 283q15 53 35.5 86t35.5 29q13 -5 14.5 -40t-2.5 -88zM89 933q17 27 56 29q32 2 33 -18q1 -13 -13 -30q-85 -103 -128 -103q-6 0 -7 5.5
t2.5 15.5t8.5 20.5t13 24t13.5 22.5t13 20.5t8.5 13.5z" />
    <glyph glyph-name="Icircumflex" unicode="&#xce;" horiz-adv-x="160" 
d="M133 641q-3 -56 -4 -170.5t-5.5 -207.5t-17.5 -174q-23 -127 -52 -123q-14 2 -20.5 31.5t-12.5 94.5q-13 122 -8.5 279t37.5 283q15 53 35.5 86t35.5 29q13 -5 14.5 -40t-2.5 -88zM183 879q19 -26 27.5 -48.5t-0.5 -33.5q-19 -13 -67 53q-30 41 -33 44l-33 -44
q-48 -66 -67 -53q-9 11 -0.5 33.5t27.5 48.5q2 3 11 17t14.5 20.5t14 16.5t16.5 14.5t17 4.5t17.5 -4.5t17.5 -15t13.5 -16.5t14 -21t10.5 -16z" />
    <glyph glyph-name="Idieresis" unicode="&#xcf;" horiz-adv-x="160" 
d="M133 641q-3 -56 -4 -170.5t-5.5 -207.5t-17.5 -174q-23 -127 -52 -123q-14 2 -20.5 31.5t-12.5 94.5q-13 122 -8.5 279t37.5 283q15 53 35.5 86t35.5 29q13 -5 14.5 -40t-2.5 -88zM26 925q20 2 33.5 -16.5t11.5 -39.5q-2 -24 -26 -35.5t-48 -1.5q-21 10 -24 32
q-2 20 15.5 39.5t37.5 21.5zM201 925q20 2 33.5 -16.5t11.5 -39.5q-2 -24 -26 -35.5t-48 -1.5q-21 10 -24 32q-2 20 15.5 39.5t37.5 21.5z" />
    <glyph glyph-name="Eth" unicode="&#xd0;" horiz-adv-x="623" 
d="M413 730q61 -21 108.5 -69.5t71.5 -108.5t33 -129t-7 -131q-22 -97 -101 -182.5t-189 -127t-209 -12.5q-11 -19 -22 -14.5t-15 27.5q-24 10 -59.5 42.5t-18.5 49.5q3 3 8 4t12.5 -0.5t14 -3t18.5 -5t20 -5.5q3 66 17 195q-27 3 -48.5 12.5t-21.5 25.5q0 31 77 39
q11 109 0 224q-15 -8 -40.5 -47.5t-49.5 -72t-39 -27.5q-13 3 -14 30.5t11 67.5q26 88 98 149t160.5 77.5t184.5 -8.5zM525 314q20 96 -17 193.5t-127 131.5q-59 20 -120.5 9.5t-113.5 -47.5q50 -92 45 -264h86q28 0 57.5 -10t29.5 -29t-29.5 -29t-57.5 -10h-92
q-11 -117 -34 -205q122 -6 228 66.5t145 193.5z" />
    <glyph glyph-name="Ntilde" unicode="&#xd1;" horiz-adv-x="621" 
d="M625 858q11 -6 11 -14t-4 -14t-9 -11t-12.5 -22t-12.5 -42q-8 -40 -9 -118.5t2 -159.5t0 -170.5t-13.5 -157.5t-40 -112.5t-76.5 -44.5q-97 0 -174 114q-19 29 -35 61t-32 74.5t-25 69t-27 86t-26 84.5q-1 -32 -1.5 -94.5t-1.5 -102t-8.5 -93.5t-22.5 -99
q-30 -90 -78 -96q-7 -1 -11.5 1.5t-5.5 8t-1 10t0.5 12.5t0.5 11q6 46 9 85.5t4 90t1.5 80t0 107.5t-0.5 121q0 23 3 46.5t11.5 55.5t29.5 52t52 20q16 0 30 -6t26 -20t20 -24t18 -33.5t13.5 -32t12 -34t9.5 -27.5q8 -25 20.5 -72.5t21 -79.5t24.5 -75.5t32.5 -74t43 -60.5
t57.5 -49q25 69 31 167.5t1 180t1.5 174t33.5 154.5q13 34 43 58.5t64 14.5zM334 854q23 -14 48 -9t38 26q13 20 20 20q16 -13 1.5 -44t-37.5 -40q-34 -14 -80.5 7.5t-67.5 12.5q-15 -7 -27 -25.5t-18 -18.5q-6 3 -8.5 12.5t1.5 24.5q15 41 53 49.5t77 -15.5z" />
    <glyph glyph-name="Ograve" unicode="&#xd2;" horiz-adv-x="586" 
d="M556 549q10 -52 10.5 -112.5t-9 -124.5t-34 -122.5t-59.5 -104.5t-89.5 -72.5t-121.5 -24.5q-76 2 -131 53.5t-79 122.5t-24 150q0 53 11.5 111.5t36.5 115.5t60.5 99.5t88 62.5t114.5 6q54 37 101.5 14.5t80.5 -71.5t44 -103zM444 288q24 77 30 156t-19 152t-87 94
q16 -17 -14 -22q-6 -1 -22 -2q-23 -3 -34 -5q-49 -10 -84.5 -47t-53 -89.5t-25 -105t-5.5 -103.5q1 -32 7.5 -64.5t20 -67.5t39.5 -57t61 -22q120 -6 186 183zM238 894q-29 35 0 46q27 10 57 -9q13 -8 19 -18q1 -2 8.5 -13.5t13 -20.5t13.5 -22.5t13 -24t8.5 -20.5
t2.5 -15.5t-7 -5.5q-43 0 -128 103z" />
    <glyph glyph-name="Oacute" unicode="&#xd3;" horiz-adv-x="586" 
d="M556 549q10 -52 10.5 -112.5t-9 -124.5t-34 -122.5t-59.5 -104.5t-89.5 -72.5t-121.5 -24.5q-76 2 -131 53.5t-79 122.5t-24 150q0 53 11.5 111.5t36.5 115.5t60.5 99.5t88 62.5t114.5 6q54 37 101.5 14.5t80.5 -71.5t44 -103zM444 288q24 77 30 156t-19 152t-87 94
q16 -17 -14 -22q-6 -1 -22 -2q-23 -3 -34 -5q-49 -10 -84.5 -47t-53 -89.5t-25 -105t-5.5 -103.5q1 -32 7.5 -64.5t20 -67.5t39.5 -57t61 -22q120 -6 186 183zM301 913q17 27 56 29q32 2 33 -18q1 -13 -13 -30q-85 -103 -128 -103q-6 0 -7 5.5t2.5 15.5t8.5 20.5t13 24
t13.5 22.5t13 20.5t8.5 13.5z" />
    <glyph glyph-name="Ocircumflex" unicode="&#xd4;" horiz-adv-x="586" 
d="M556 549q10 -52 10.5 -112.5t-9 -124.5t-34 -122.5t-59.5 -104.5t-89.5 -72.5t-121.5 -24.5q-76 2 -131 53.5t-79 122.5t-24 150q0 53 11.5 111.5t36.5 115.5t60.5 99.5t88 62.5t114.5 6q54 37 101.5 14.5t80.5 -71.5t44 -103zM444 288q24 77 30 156t-19 152t-87 94
q16 -17 -14 -22q-6 -1 -22 -2q-23 -3 -34 -5q-49 -10 -84.5 -47t-53 -89.5t-25 -105t-5.5 -103.5q1 -32 7.5 -64.5t20 -67.5t39.5 -57t61 -22q120 -6 186 183zM376 879q19 -26 27.5 -48.5t-0.5 -33.5q-19 -13 -67 53q-30 41 -33 44l-33 -44q-48 -66 -67 -53q-9 11 -0.5 33.5
t27.5 48.5q2 3 11 17t14.5 20.5t14 16.5t16.5 14.5t17 4.5t17.5 -4.5t17.5 -15t13.5 -16.5t14 -21t10.5 -16z" />
    <glyph glyph-name="Otilde" unicode="&#xd5;" horiz-adv-x="586" 
d="M556 549q10 -52 10.5 -112.5t-9 -124.5t-34 -122.5t-59.5 -104.5t-89.5 -72.5t-121.5 -24.5q-76 2 -131 53.5t-79 122.5t-24 150q0 53 11.5 111.5t36.5 115.5t60.5 99.5t88 62.5t114.5 6q54 37 101.5 14.5t80.5 -71.5t44 -103zM444 288q24 77 30 156t-19 152t-87 94
q16 -17 -14 -22q-6 -1 -22 -2q-23 -3 -34 -5q-49 -10 -84.5 -47t-53 -89.5t-25 -105t-5.5 -103.5q1 -32 7.5 -64.5t20 -67.5t39.5 -57t61 -22q120 -6 186 183zM316 874q23 -14 48 -9t38 26q13 20 20 20q16 -13 1.5 -44t-37.5 -40q-34 -14 -80.5 7.5t-67.5 12.5
q-15 -7 -27 -25.5t-18 -18.5q-6 3 -8.5 12.5t1.5 24.5q15 41 53 49.5t77 -15.5z" />
    <glyph glyph-name="Odieresis" unicode="&#xd6;" horiz-adv-x="586" 
d="M556 549q10 -52 10.5 -112.5t-9 -124.5t-34 -122.5t-59.5 -104.5t-89.5 -72.5t-121.5 -24.5q-76 2 -131 53.5t-79 122.5t-24 150q0 53 11.5 111.5t36.5 115.5t60.5 99.5t88 62.5t114.5 6q54 37 101.5 14.5t80.5 -71.5t44 -103zM444 288q24 77 30 156t-19 152t-87 94
q16 -17 -14 -22q-6 -1 -22 -2q-23 -3 -34 -5q-49 -10 -84.5 -47t-53 -89.5t-25 -105t-5.5 -103.5q1 -32 7.5 -64.5t20 -67.5t39.5 -57t61 -22q120 -6 186 183zM219 905q20 2 33.5 -16.5t11.5 -39.5q-2 -24 -26 -35.5t-48 -1.5q-21 10 -24 32q-2 20 15.5 39.5t37.5 21.5z
M394 905q20 2 33.5 -16.5t11.5 -39.5q-2 -24 -26 -35.5t-48 -1.5q-21 10 -24 32q-2 20 15.5 39.5t37.5 21.5z" />
    <glyph glyph-name="multiply" unicode="&#xd7;" horiz-adv-x="458" 
d="M292 296q145 -145 114 -176q-32 -32 -178 114q-150 -146 -182 -114q-31 32 119 177q-77 78 -106.5 122t-12.5 61t61 -13t122 -108q80 75 123.5 102.5t60.5 10.5q31 -31 -121 -176z" />
    <glyph glyph-name="Oslash" unicode="&#xd8;" horiz-adv-x="586" 
d="M556 549q10 -52 10.5 -112.5t-9 -124.5t-34 -122.5t-59.5 -104.5t-89.5 -72.5t-121.5 -24.5q-55 2 -98 28q-24 -34 -37 -30q-17 6 -6 64q-46 46 -69.5 116.5t-23.5 147.5q0 53 11.5 111.5t36.5 115.5t60.5 99.5t88 62.5t114.5 6q56 39 114 8q26 34 41 51q25 31 35 28
q15 -6 8 -46q-12 -40 -30 -80q45 -54 58 -121zM298 661q-49 -10 -84.5 -47t-53 -89.5t-25 -105t-5.5 -103.5q2 -68 23 -122q89 250 254 475q-19 13 -39 21q16 -17 -14 -22q-6 -1 -22 -2q-23 -3 -34 -5zM444 288q53 174 16 296q-36 -76 -120.5 -229t-125.5 -239
q20 -11 44 -11q120 -6 186 183z" />
    <glyph glyph-name="Ugrave" unicode="&#xd9;" horiz-adv-x="520" 
d="M265 119q87 0 118 178q8 49 15 185.5t27 210.5q4 16 18.5 40.5t26.5 19.5q4 -3 5 -10t1.5 -25.5t1.5 -31.5q1 -30 5.5 -93t7.5 -109.5t2 -111.5t-7 -112.5t-23 -99t-43.5 -84t-71 -53.5t-103.5 -21q-58 0 -101 26t-66.5 68t-36.5 99.5t-14.5 116.5t4 123.5t14 116
t19.5 97.5q10 33 18.5 48.5t15.5 14.5q13 -1 18 -69q1 -18 4 -161.5t17 -225.5q12 -67 38 -102t90 -35zM205 844q-29 35 0 46q27 10 57 -9q13 -8 19 -18q1 -2 8.5 -13.5t13 -20.5t13.5 -22.5t13 -24t8.5 -20.5t2.5 -15.5t-7 -5.5q-43 0 -128 103z" />
    <glyph glyph-name="Uacute" unicode="&#xda;" horiz-adv-x="520" 
d="M265 119q87 0 118 178q8 49 15 185.5t27 210.5q4 16 18.5 40.5t26.5 19.5q4 -3 5 -10t1.5 -25.5t1.5 -31.5q1 -30 5.5 -93t7.5 -109.5t2 -111.5t-7 -112.5t-23 -99t-43.5 -84t-71 -53.5t-103.5 -21q-58 0 -101 26t-66.5 68t-36.5 99.5t-14.5 116.5t4 123.5t14 116
t19.5 97.5q10 33 18.5 48.5t15.5 14.5q13 -1 18 -69q1 -18 4 -161.5t17 -225.5q12 -67 38 -102t90 -35zM238 863q17 27 56 29q32 2 33 -18q1 -13 -13 -30q-85 -103 -128 -103q-6 0 -7 5.5t2.5 15.5t8.5 20.5t13 24t13.5 22.5t13 20.5t8.5 13.5z" />
    <glyph glyph-name="Ucircumflex" unicode="&#xdb;" horiz-adv-x="520" 
d="M265 119q87 0 118 178q8 49 15 185.5t27 210.5q4 16 18.5 40.5t26.5 19.5q4 -3 5 -10t1.5 -25.5t1.5 -31.5q1 -30 5.5 -93t7.5 -109.5t2 -111.5t-7 -112.5t-23 -99t-43.5 -84t-71 -53.5t-103.5 -21q-58 0 -101 26t-66.5 68t-36.5 99.5t-14.5 116.5t4 123.5t14 116
t19.5 97.5q10 33 18.5 48.5t15.5 14.5q13 -1 18 -69q1 -18 4 -161.5t17 -225.5q12 -67 38 -102t90 -35zM333 819q19 -26 27.5 -48.5t-0.5 -33.5q-19 -13 -67 53q-30 41 -33 44l-33 -44q-48 -66 -67 -53q-9 11 -0.5 33.5t27.5 48.5q2 3 11 17t14.5 20.5t14 16.5t16.5 14.5
t17 4.5t17.5 -4.5t17.5 -15t13.5 -16.5t14 -21t10.5 -16z" />
    <glyph glyph-name="Udieresis" unicode="&#xdc;" horiz-adv-x="520" 
d="M265 119q87 0 118 178q8 49 15 185.5t27 210.5q4 16 18.5 40.5t26.5 19.5q4 -3 5 -10t1.5 -25.5t1.5 -31.5q1 -30 5.5 -93t7.5 -109.5t2 -111.5t-7 -112.5t-23 -99t-43.5 -84t-71 -53.5t-103.5 -21q-58 0 -101 26t-66.5 68t-36.5 99.5t-14.5 116.5t4 123.5t14 116
t19.5 97.5q10 33 18.5 48.5t15.5 14.5q13 -1 18 -69q1 -18 4 -161.5t17 -225.5q12 -67 38 -102t90 -35zM176 875q20 2 33.5 -16.5t11.5 -39.5q-2 -24 -26 -35.5t-48 -1.5q-21 10 -24 32q-2 20 15.5 39.5t37.5 21.5zM351 875q20 2 33.5 -16.5t11.5 -39.5q-2 -24 -26 -35.5
t-48 -1.5q-21 10 -24 32q-2 20 15.5 39.5t37.5 21.5z" />
    <glyph glyph-name="Yacute" unicode="&#xdd;" horiz-adv-x="644" 
d="M608 277q-5 -29 -9 -81.5t-8 -95.5t-13 -97t-27 -98.5t-46 -86t-74.5 -72t-108.5 -46.5q-42 -10 -72.5 -6.5t-48 14t-17.5 21.5q0 5 5 10t16.5 9.5l23 9t31 12t35.5 13.5q78 25 132.5 112t60.5 211q-25 -44 -80 -73.5t-120 -29.5q-133 0 -207 80t-53 217
q25 171 70.5 285.5t79.5 114.5q7 0 11 -6.5t5.5 -19.5t1 -29t-3 -40.5t-5.5 -47t-8 -55.5t-9.5 -59.5t-11 -65t-10.5 -66.5q-18 -107 29.5 -154.5t124.5 -47.5q81 0 132 82.5t57 206.5q0 5 1 29t2 39t3.5 42t6 45.5t9 43t13.5 40.5t18.5 31t25 22.5t31.5 7.5q21 0 29 -42
t5 -110t-10 -134t-17 -135zM390 873q17 27 56 29q32 2 33 -18q1 -13 -13 -30q-85 -103 -128 -103q-6 0 -7 5.5t2.5 15.5t8.5 20.5t13 24t13.5 22.5t13 20.5t8.5 13.5z" />
    <glyph glyph-name="Thorn" unicode="&#xde;" horiz-adv-x="507" 
d="M291 722q98 13 147.5 -57t40.5 -168q-4 -86 -86 -183.5t-172 -103.5q-50 -4 -79 25q-22 23 -11 34q6 6 31 6q47 0 93 33t74 81.5t40 103.5t-9 98q-14 29 -43.5 32t-60.5 -14.5t-57 -46.5q-60 -64 -90 -160q-4 -22 -2.5 -75t0.5 -124t-2.5 -135t-13 -108.5t-31.5 -44.5
q-29 0 -42 99.5t-10.5 244.5t6.5 237.5t8 148.5q5 91 23 161q21 81 46 77q39 -7 27 -259q24 35 73.5 63.5t99.5 34.5z" />
    <glyph glyph-name="germandbls" unicode="&#xdf;" horiz-adv-x="490" 
d="M297 375q1 -19 22 -42t47 -42.5t52.5 -49t35.5 -58.5q25 -84 -33.5 -141.5t-146.5 -45.5q-68 15 -109 62q-30 35 -20 45q8 8 46 -9q52 -24 92 -24q26 -2 48.5 10t30.5 33q4 30 -10.5 56.5t-38.5 48t-49 43t-43.5 49.5t-19.5 59q0 71 42 112t84 41q8 48 -18 75t-78 27
q-55 -8 -76 -51t-24 -115q-4 -176 -18.5 -316.5t-37.5 -140.5q-24 0 -34.5 144t-6.5 314q0 105 52 183t146 78q88 0 139.5 -47t53.5 -128q0 -98 -38 -98q-29 0 -60.5 -23.5t-29.5 -48.5z" />
    <glyph glyph-name="agrave" unicode="&#xe0;" 
d="M352 41q4 -11 11 -22t10.5 -17t2.5 -10q-4 -7 -20 -3q-28 7 -53 38t-27 62q-35 -48 -83 -75t-101 -14q-39 8 -68.5 39t-33.5 71q-9 66 37.5 116.5t118.5 77.5q2 1 15 5t21.5 7t22 9t21.5 11.5t14.5 13.5t6.5 16q0 33 -23.5 48.5t-55 13t-57.5 -18.5q-11 -6 -22 -15
t-16.5 -12.5t-9.5 -2.5q-15 20 14.5 57.5t62.5 50.5q65 30 127 -6.5t68 -111.5q3 -30 -10.5 -58t-39.5 -46q-22 -16 -84.5 -41.5t-89.5 -50.5q-22 -18 -23 -42t27 -37q15 -5 31.5 1t33 22t26.5 27t23 29q4 6 16 27t19.5 31t22 19t30.5 5q10 -2 17 -12t7 -21
q2 -15 -0.5 -87.5t11.5 -93.5zM136 644q-29 35 0 46q27 10 57 -9q13 -8 19 -18q1 -2 8.5 -13.5t13 -20.5t13.5 -22.5t13 -24t8.5 -20.5t2.5 -15.5t-7 -5.5q-43 0 -128 103z" />
    <glyph glyph-name="aacute" unicode="&#xe1;" 
d="M352 41q4 -11 11 -22t10.5 -17t2.5 -10q-4 -7 -20 -3q-28 7 -53 38t-27 62q-35 -48 -83 -75t-101 -14q-39 8 -68.5 39t-33.5 71q-9 66 37.5 116.5t118.5 77.5q2 1 15 5t21.5 7t22 9t21.5 11.5t14.5 13.5t6.5 16q0 33 -23.5 48.5t-55 13t-57.5 -18.5q-11 -6 -22 -15
t-16.5 -12.5t-9.5 -2.5q-15 20 14.5 57.5t62.5 50.5q65 30 127 -6.5t68 -111.5q3 -30 -10.5 -58t-39.5 -46q-22 -16 -84.5 -41.5t-89.5 -50.5q-22 -18 -23 -42t27 -37q15 -5 31.5 1t33 22t26.5 27t23 29q4 6 16 27t19.5 31t22 19t30.5 5q10 -2 17 -12t7 -21
q2 -15 -0.5 -87.5t11.5 -93.5zM169 663q17 27 56 29q32 2 33 -18q1 -13 -13 -30q-85 -103 -128 -103q-6 0 -7 5.5t2.5 15.5t8.5 20.5t13 24t13.5 22.5t13 20.5t8.5 13.5z" />
    <glyph glyph-name="acircumflex" unicode="&#xe2;" 
d="M352 41q4 -11 11 -22t10.5 -17t2.5 -10q-4 -7 -20 -3q-28 7 -53 38t-27 62q-35 -48 -83 -75t-101 -14q-39 8 -68.5 39t-33.5 71q-9 66 37.5 116.5t118.5 77.5q2 1 15 5t21.5 7t22 9t21.5 11.5t14.5 13.5t6.5 16q0 33 -23.5 48.5t-55 13t-57.5 -18.5q-11 -6 -22 -15
t-16.5 -12.5t-9.5 -2.5q-15 20 14.5 57.5t62.5 50.5q65 30 127 -6.5t68 -111.5q3 -30 -10.5 -58t-39.5 -46q-22 -16 -84.5 -41.5t-89.5 -50.5q-22 -18 -23 -42t27 -37q15 -5 31.5 1t33 22t26.5 27t23 29q4 6 16 27t19.5 31t22 19t30.5 5q10 -2 17 -12t7 -21
q2 -15 -0.5 -87.5t11.5 -93.5zM263 619q19 -26 27.5 -48.5t-0.5 -33.5q-19 -13 -67 53q-30 41 -33 44l-33 -44q-48 -66 -67 -53q-9 11 -0.5 33.5t27.5 48.5q2 3 11 17t14.5 20.5t14 16.5t16.5 14.5t17 4.5t17.5 -4.5t17.5 -15t13.5 -16.5t14 -21t10.5 -16z" />
    <glyph glyph-name="atilde" unicode="&#xe3;" 
d="M352 41q4 -11 11 -22t10.5 -17t2.5 -10q-4 -7 -20 -3q-28 7 -53 38t-27 62q-35 -48 -83 -75t-101 -14q-39 8 -68.5 39t-33.5 71q-9 66 37.5 116.5t118.5 77.5q2 1 15 5t21.5 7t22 9t21.5 11.5t14.5 13.5t6.5 16q0 33 -23.5 48.5t-55 13t-57.5 -18.5q-11 -6 -22 -15
t-16.5 -12.5t-9.5 -2.5q-15 20 14.5 57.5t62.5 50.5q65 30 127 -6.5t68 -111.5q3 -30 -10.5 -58t-39.5 -46q-22 -16 -84.5 -41.5t-89.5 -50.5q-22 -18 -23 -42t27 -37q15 -5 31.5 1t33 22t26.5 27t23 29q4 6 16 27t19.5 31t22 19t30.5 5q10 -2 17 -12t7 -21
q2 -15 -0.5 -87.5t11.5 -93.5zM194 614q23 -14 48 -9t38 26q13 20 20 20q16 -13 1.5 -44t-37.5 -40q-34 -14 -80.5 7.5t-67.5 12.5q-15 -7 -27 -25.5t-18 -18.5q-6 3 -8.5 12.5t1.5 24.5q15 41 53 49.5t77 -15.5z" />
    <glyph glyph-name="adieresis" unicode="&#xe4;" 
d="M352 41q4 -11 11 -22t10.5 -17t2.5 -10q-4 -7 -20 -3q-28 7 -53 38t-27 62q-35 -48 -83 -75t-101 -14q-39 8 -68.5 39t-33.5 71q-9 66 37.5 116.5t118.5 77.5q2 1 15 5t21.5 7t22 9t21.5 11.5t14.5 13.5t6.5 16q0 33 -23.5 48.5t-55 13t-57.5 -18.5q-11 -6 -22 -15
t-16.5 -12.5t-9.5 -2.5q-15 20 14.5 57.5t62.5 50.5q65 30 127 -6.5t68 -111.5q3 -30 -10.5 -58t-39.5 -46q-22 -16 -84.5 -41.5t-89.5 -50.5q-22 -18 -23 -42t27 -37q15 -5 31.5 1t33 22t26.5 27t23 29q4 6 16 27t19.5 31t22 19t30.5 5q10 -2 17 -12t7 -21
q2 -15 -0.5 -87.5t11.5 -93.5zM106 675q20 2 33.5 -16.5t11.5 -39.5q-2 -24 -26 -35.5t-48 -1.5q-21 10 -24 32q-2 20 15.5 39.5t37.5 21.5zM281 675q20 2 33.5 -16.5t11.5 -39.5q-2 -24 -26 -35.5t-48 -1.5q-21 10 -24 32q-2 20 15.5 39.5t37.5 21.5z" />
    <glyph glyph-name="aring" unicode="&#xe5;" 
d="M352 41q4 -11 11 -22t10.5 -17t2.5 -10q-4 -7 -20 -3q-28 7 -53 38t-27 62q-35 -48 -83 -75t-101 -14q-39 8 -68.5 39t-33.5 71q-9 66 37.5 116.5t118.5 77.5q2 1 15 5t21.5 7t22 9t21.5 11.5t14.5 13.5t6.5 16q0 33 -23.5 48.5t-55 13t-57.5 -18.5q-11 -6 -22 -15
t-16.5 -12.5t-9.5 -2.5q-15 20 14.5 57.5t62.5 50.5q65 30 127 -6.5t68 -111.5q3 -30 -10.5 -58t-39.5 -46q-22 -16 -84.5 -41.5t-89.5 -50.5q-22 -18 -23 -42t27 -37q15 -5 31.5 1t33 22t26.5 27t23 29q4 6 16 27t19.5 31t22 19t30.5 5q10 -2 17 -12t7 -21
q2 -15 -0.5 -87.5t11.5 -93.5zM88 625q0 25 14.5 47t38.5 33q13 5 24.5 5.5t17.5 -2t5 -6.5q0 -3 -4 -6t-13 -7.5t-15 -9.5q-30 -21 -30 -54q0 -24 18.5 -41t43.5 -17t44 17t19 41q0 33 -30 54q-6 5 -15 9.5t-13.5 7.5t-4.5 6q0 4 6 6.5t17 2t24 -5.5q49 -18 54 -80
q2 -39 -29 -66.5t-72 -29.5q-40 0 -70 27.5t-30 68.5z" />
    <glyph glyph-name="ae" unicode="&#xe6;" horiz-adv-x="551" 
d="M535 115q4 -2 5 -9t-3.5 -20t-15.5 -28q-43 -59 -135 -59q-87 0 -121 88q-35 -47 -82.5 -73.5t-100.5 -13.5q-39 8 -68.5 39t-33.5 71q-9 66 37.5 116.5t118.5 77.5q2 1 15 5t21.5 7t22 9t21.5 11.5t14.5 13.5t6.5 16q0 33 -23.5 48.5t-55 13t-57.5 -18.5q-11 -6 -22 -15
t-16.5 -12.5t-9.5 -2.5q-15 20 14.5 57.5t62.5 50.5q54 24 108 3t76 -75q53 84 126 84q33 0 54.5 -18t29 -46.5t7.5 -58t-7 -58.5q-13 -60 -61 -117.5t-107 -71.5q9 -41 54.5 -52.5t78.5 13.5q7 5 19 13.5t17.5 11t9.5 0.5zM105 94q31 -9 64.5 20.5t55 68t28.5 68.5
q-11 -6 -69 -30.5t-83 -47.5q-22 -18 -23 -42t27 -37zM428 404q-27 -23 -50 -74t-25 -115q97 72 91 152q-2 30 -13 37q-2 1 -3 0z" />
    <glyph glyph-name="ccedilla" unicode="&#xe7;" horiz-adv-x="397" 
d="M107 274q-23 -75 11.5 -131t113.5 -52q33 3 88 22q39 14 46 7q11 -11 -19 -45q-76 -82 -185 -65q-67 12 -109 58.5t-49.5 108t8.5 130.5q55 145 180 184q54 12 106 -9t79 -71q9 -24 8 -36t-9 -15h-5.5t-6 3t-7 5.5t-8 7t-10.5 8.5q-34 26 -75 30q-96 4 -157 -140zM220 2
q5 0 6.5 -7.5t-1.5 -20t-10 -25.5q35 -5 52.5 -29.5t17.5 -50.5q0 -27 -23 -48.5t-69 -21.5q-39 0 -60 22t-12 39q9 8 16.5 5t25.5 -11.5t32 -8.5q39 0 43 24q5 24 -28 38q-22 10 -54 10q-10 0 5 26l2 3q9 16 27 36t30 20z" />
    <glyph glyph-name="egrave" unicode="&#xe8;" horiz-adv-x="306" 
d="M293 115q4 -2 5 -9t-3.5 -20t-15.5 -28q-43 -59 -135 -59q-109 0 -132.5 125t35.5 250t151 125q33 0 54.5 -18t29 -46.5t7.5 -58t-7 -58.5q-13 -60 -61 -117.5t-107 -71.5q9 -41 54.5 -52.5t78.5 13.5q7 5 19 13.5t17.5 11t9.5 0.5zM186 404q-27 -23 -50 -74t-25 -115
q97 72 91 152q-2 30 -13 37q-2 1 -3 0zM98 644q-29 35 0 46q27 10 57 -9q13 -8 19 -18q1 -2 8.5 -13.5t13 -20.5t13.5 -22.5t13 -24t8.5 -20.5t2.5 -15.5t-7 -5.5q-43 0 -128 103z" />
    <glyph glyph-name="eacute" unicode="&#xe9;" horiz-adv-x="306" 
d="M293 115q4 -2 5 -9t-3.5 -20t-15.5 -28q-43 -59 -135 -59q-109 0 -132.5 125t35.5 250t151 125q33 0 54.5 -18t29 -46.5t7.5 -58t-7 -58.5q-13 -60 -61 -117.5t-107 -71.5q9 -41 54.5 -52.5t78.5 13.5q7 5 19 13.5t17.5 11t9.5 0.5zM186 404q-27 -23 -50 -74t-25 -115
q97 72 91 152q-2 30 -13 37q-2 1 -3 0zM131 663q17 27 56 29q32 2 33 -18q1 -13 -13 -30q-85 -103 -128 -103q-6 0 -7 5.5t2.5 15.5t8.5 20.5t13 24t13.5 22.5t13 20.5t8.5 13.5z" />
    <glyph glyph-name="ecircumflex" unicode="&#xea;" horiz-adv-x="306" 
d="M293 115q4 -2 5 -9t-3.5 -20t-15.5 -28q-43 -59 -135 -59q-109 0 -132.5 125t35.5 250t151 125q33 0 54.5 -18t29 -46.5t7.5 -58t-7 -58.5q-13 -60 -61 -117.5t-107 -71.5q9 -41 54.5 -52.5t78.5 13.5q7 5 19 13.5t17.5 11t9.5 0.5zM186 404q-27 -23 -50 -74t-25 -115
q97 72 91 152q-2 30 -13 37q-2 1 -3 0zM226 619q19 -26 27.5 -48.5t-0.5 -33.5q-19 -13 -67 53q-30 41 -33 44l-33 -44q-48 -66 -67 -53q-9 11 -0.5 33.5t27.5 48.5q2 3 11 17t14.5 20.5t14 16.5t16.5 14.5t17 4.5t17.5 -4.5t17.5 -15t13.5 -16.5t14 -21t10.5 -16z" />
    <glyph glyph-name="edieresis" unicode="&#xeb;" horiz-adv-x="306" 
d="M293 115q4 -2 5 -9t-3.5 -20t-15.5 -28q-43 -59 -135 -59q-109 0 -132.5 125t35.5 250t151 125q33 0 54.5 -18t29 -46.5t7.5 -58t-7 -58.5q-13 -60 -61 -117.5t-107 -71.5q9 -41 54.5 -52.5t78.5 13.5q7 5 19 13.5t17.5 11t9.5 0.5zM186 404q-27 -23 -50 -74t-25 -115
q97 72 91 152q-2 30 -13 37q-2 1 -3 0zM69 675q20 2 33.5 -16.5t11.5 -39.5q-2 -24 -26 -35.5t-48 -1.5q-21 10 -24 32q-2 20 15.5 39.5t37.5 21.5zM244 675q20 2 33.5 -16.5t11.5 -39.5q-2 -24 -26 -35.5t-48 -1.5q-21 10 -24 32q-2 20 15.5 39.5t37.5 21.5z" />
    <glyph glyph-name="igrave" unicode="&#xec;" horiz-adv-x="169" 
d="M118 480q10 -6 11 -28t-2 -51q-2 -20 -3 -68t-2 -71q0 -130 -13 -186q-7 -34 -19 -54t-24 -18q-6 1 -10.5 6.5t-8 17.5t-5.5 22t-5 30q-8 69 -8 185q2 92 28 154q14 32 32 49.5t29 11.5zM30 644q-29 35 0 46q27 10 57 -9q13 -8 19 -18q1 -2 8.5 -13.5t13 -20.5
t13.5 -22.5t13 -24t8.5 -20.5t2.5 -15.5t-7 -5.5q-43 0 -128 103z" />
    <glyph glyph-name="iacute" unicode="&#xed;" horiz-adv-x="169" 
d="M118 480q10 -6 11 -28t-2 -51q-2 -20 -3 -68t-2 -71q0 -130 -13 -186q-7 -34 -19 -54t-24 -18q-6 1 -10.5 6.5t-8 17.5t-5.5 22t-5 30q-8 69 -8 185q2 92 28 154q14 32 32 49.5t29 11.5zM63 663q17 27 56 29q32 2 33 -18q1 -13 -13 -30q-85 -103 -128 -103q-6 0 -7 5.5
t2.5 15.5t8.5 20.5t13 24t13.5 22.5t13 20.5t8.5 13.5z" />
    <glyph glyph-name="icircumflex" unicode="&#xee;" horiz-adv-x="169" 
d="M118 480q10 -6 11 -28t-2 -51q-2 -20 -3 -68t-2 -71q0 -130 -13 -186q-7 -34 -19 -54t-24 -18q-6 1 -10.5 6.5t-8 17.5t-5.5 22t-5 30q-8 69 -8 185q2 92 28 154q14 32 32 49.5t29 11.5zM158 619q19 -26 27.5 -48.5t-0.5 -33.5q-19 -13 -67 53q-30 41 -33 44l-33 -44
q-48 -66 -67 -53q-9 11 -0.5 33.5t27.5 48.5q2 3 11 17t14.5 20.5t14 16.5t16.5 14.5t17 4.5t17.5 -4.5t17.5 -15t13.5 -16.5t14 -21t10.5 -16z" />
    <glyph glyph-name="idieresis" unicode="&#xef;" horiz-adv-x="169" 
d="M118 480q10 -6 11 -28t-2 -51q-2 -20 -3 -68t-2 -71q0 -130 -13 -186q-7 -34 -19 -54t-24 -18q-6 1 -10.5 6.5t-8 17.5t-5.5 22t-5 30q-8 69 -8 185q2 92 28 154q14 32 32 49.5t29 11.5zM1 675q20 2 33.5 -16.5t11.5 -39.5q-2 -24 -26 -35.5t-48 -1.5q-21 10 -24 32
q-2 20 15.5 39.5t37.5 21.5zM176 675q20 2 33.5 -16.5t11.5 -39.5q-2 -24 -26 -35.5t-48 -1.5q-21 10 -24 32q-2 20 15.5 39.5t37.5 21.5z" />
    <glyph glyph-name="eth" unicode="&#xf0;" horiz-adv-x="475" 
d="M344 570q43 -43 74 -114.5t39 -150t-6 -148t-66.5 -115t-136.5 -45.5q-87 0 -146.5 54.5t-74.5 139.5q-13 76 11 135t90 86q63 23 127 3t100 -72q-6 39 -31.5 93t-61.5 100q-1 0 -11.5 -3.5t-17 -5.5t-20 -6t-23 -6t-22 -4t-22 -2t-18.5 1.5t-14.5 6t-7.5 11.5
q-5 15 31 37t65 33q-58 48 -112 48q-20 0 -29.5 13t1.5 31q100 73 225 -52q24 12 114 40q28 0 34 -15q2 -7 -1.5 -17.5t-11.5 -18.5q-39 -33 -78 -57zM261 93q53 0 74 36t4 78q-24 57 -73.5 100.5t-104.5 20.5q-23 -10 -35.5 -35.5t-11.5 -52.5t5 -51q12 -51 55 -73.5
t87 -22.5z" />
    <glyph glyph-name="ntilde" unicode="&#xf1;" horiz-adv-x="439" 
d="M438 -4q1 -7 -7.5 -12t-24.5 -2q-27 6 -45.5 23.5t-27 37t-12.5 51t-4 52t1 54t1 43.5v13.5v21t-0.5 24.5t-1.5 27.5t-2.5 26.5t-4.5 25.5t-7 19.5t-9.5 13.5t-12.5 3.5q-50 -11 -70 -125q-4 -23 -10 -65.5t-13 -77.5t-17 -67q-23 -72 -72 -85q-39 -10 -60 22.5t-24 76.5
q-1 33 -0.5 49t2 46.5t1.5 46.5q1 30 3.5 64t6 75t5.5 65q2 20 5 26t13 5q11 -2 21 -12q20 -23 29 -62q4 -18 5 -50.5t0 -84t-1 -52.5l6 30q6 30 8 38.5t8 36t11 41.5t13 35.5t16.5 36t18.5 26.5q33 40 81 52q43 9 84 -10q34 -18 49.5 -67.5t14 -97.5t-1.5 -89
q-1 -25 -3.5 -70.5t-2 -63t4.5 -44t15 -47.5q1 -3 6 -11.5t5 -12.5zM223 614q23 -14 48 -9t38 26q13 20 20 20q16 -13 1.5 -44t-37.5 -40q-34 -14 -80.5 7.5t-67.5 12.5q-15 -7 -27 -25.5t-18 -18.5q-6 3 -8.5 12.5t1.5 24.5q15 41 53 49.5t77 -15.5z" />
    <glyph glyph-name="ograve" unicode="&#xf2;" horiz-adv-x="424" 
d="M403 282q10 -68 -6 -135t-64.5 -115t-121.5 -47q-105 0 -157.5 77.5t-40.5 197.5q9 70 41.5 132t86.5 92q25 14 46.5 14.5t25.5 -11.5q12 6 13.5 6.5t19.5 -0.5q118 -23 157 -211zM211 84q52 0 77 50t20.5 112t-27.5 105q-16 29 -23.5 41.5t-21.5 28.5t-32 27
q-5 -7 -22.5 -32.5t-28.5 -43t-20 -37.5q-27 -54 -34 -110t20.5 -98.5t91.5 -42.5zM157 644q-29 35 0 46q27 10 57 -9q13 -8 19 -18q1 -2 8.5 -13.5t13 -20.5t13.5 -22.5t13 -24t8.5 -20.5t2.5 -15.5t-7 -5.5q-43 0 -128 103z" />
    <glyph glyph-name="oacute" unicode="&#xf3;" horiz-adv-x="424" 
d="M403 282q10 -68 -6 -135t-64.5 -115t-121.5 -47q-105 0 -157.5 77.5t-40.5 197.5q9 70 41.5 132t86.5 92q25 14 46.5 14.5t25.5 -11.5q12 6 13.5 6.5t19.5 -0.5q118 -23 157 -211zM211 84q52 0 77 50t20.5 112t-27.5 105q-16 29 -23.5 41.5t-21.5 28.5t-32 27
q-5 -7 -22.5 -32.5t-28.5 -43t-20 -37.5q-27 -54 -34 -110t20.5 -98.5t91.5 -42.5zM190 663q17 27 56 29q32 2 33 -18q1 -13 -13 -30q-85 -103 -128 -103q-6 0 -7 5.5t2.5 15.5t8.5 20.5t13 24t13.5 22.5t13 20.5t8.5 13.5z" />
    <glyph glyph-name="ocircumflex" unicode="&#xf4;" horiz-adv-x="424" 
d="M403 282q10 -68 -6 -135t-64.5 -115t-121.5 -47q-105 0 -157.5 77.5t-40.5 197.5q9 70 41.5 132t86.5 92q25 14 46.5 14.5t25.5 -11.5q12 6 13.5 6.5t19.5 -0.5q118 -23 157 -211zM211 84q52 0 77 50t20.5 112t-27.5 105q-16 29 -23.5 41.5t-21.5 28.5t-32 27
q-5 -7 -22.5 -32.5t-28.5 -43t-20 -37.5q-27 -54 -34 -110t20.5 -98.5t91.5 -42.5zM285 619q19 -26 27.5 -48.5t-0.5 -33.5q-19 -13 -67 53q-30 41 -33 44l-33 -44q-48 -66 -67 -53q-9 11 -0.5 33.5t27.5 48.5q2 3 11 17t14.5 20.5t14 16.5t16.5 14.5t17 4.5t17.5 -4.5
t17.5 -15t13.5 -16.5t14 -21t10.5 -16z" />
    <glyph glyph-name="otilde" unicode="&#xf5;" horiz-adv-x="424" 
d="M403 282q10 -68 -6 -135t-64.5 -115t-121.5 -47q-105 0 -157.5 77.5t-40.5 197.5q9 70 41.5 132t86.5 92q25 14 46.5 14.5t25.5 -11.5q12 6 13.5 6.5t19.5 -0.5q118 -23 157 -211zM211 84q52 0 77 50t20.5 112t-27.5 105q-16 29 -23.5 41.5t-21.5 28.5t-32 27
q-5 -7 -22.5 -32.5t-28.5 -43t-20 -37.5q-27 -54 -34 -110t20.5 -98.5t91.5 -42.5zM215 614q23 -14 48 -9t38 26q13 20 20 20q16 -13 1.5 -44t-37.5 -40q-34 -14 -80.5 7.5t-67.5 12.5q-15 -7 -27 -25.5t-18 -18.5q-6 3 -8.5 12.5t1.5 24.5q15 41 53 49.5t77 -15.5z" />
    <glyph glyph-name="odieresis" unicode="&#xf6;" horiz-adv-x="424" 
d="M403 282q10 -68 -6 -135t-64.5 -115t-121.5 -47q-105 0 -157.5 77.5t-40.5 197.5q9 70 41.5 132t86.5 92q25 14 46.5 14.5t25.5 -11.5q12 6 13.5 6.5t19.5 -0.5q118 -23 157 -211zM211 84q52 0 77 50t20.5 112t-27.5 105q-16 29 -23.5 41.5t-21.5 28.5t-32 27
q-5 -7 -22.5 -32.5t-28.5 -43t-20 -37.5q-27 -54 -34 -110t20.5 -98.5t91.5 -42.5zM128 675q20 2 33.5 -16.5t11.5 -39.5q-2 -24 -26 -35.5t-48 -1.5q-21 10 -24 32q-2 20 15.5 39.5t37.5 21.5zM303 675q20 2 33.5 -16.5t11.5 -39.5q-2 -24 -26 -35.5t-48 -1.5
q-21 10 -24 32q-2 20 15.5 39.5t37.5 21.5z" />
    <glyph glyph-name="divide" unicode="&#xf7;" horiz-adv-x="567" 
d="M258 386q-21 10 -24 32q-2 20 15.5 39.5t37.5 21.5t33.5 -16.5t11.5 -39.5q-2 -24 -26 -35.5t-48 -1.5zM287 147q20 2 33.5 -16.5t11.5 -39.5q-2 -24 -26 -35.5t-48 -1.5q-21 10 -24 32q-2 20 15.5 39.5t37.5 21.5zM114 309h343q28 0 57.5 -10t29.5 -29t-29.5 -29
t-57.5 -10h-343q-28 0 -57.5 10t-29.5 29t29.5 29t57.5 10z" />
    <glyph glyph-name="oslash" unicode="&#xf8;" horiz-adv-x="424" 
d="M403 282q10 -68 -6 -135t-64.5 -115t-121.5 -47q-28 0 -52 6q-16 -42 -29.5 -64.5t-22.5 -20.5q-22 4 -7 110q-104 72 -87 244q9 70 41.5 132t86.5 92q25 14 46.5 14.5t25.5 -11.5q12 6 13.5 6.5t19.5 -0.5q4 -1 9 -2.5t7 -1.5q28 53 60 102q5 8 7.5 11.5t6.5 8t6.5 6
t5.5 1.5q14 -2 12 -37q-10 -53 -34 -132q55 -55 77 -167zM133 335q-28 -55 -32.5 -113t21.5 -100q38 159 109 305q-16 14 -27 21q-5 -7 -22.5 -32.5t-28.5 -43t-20 -37.5zM211 84q38 0 62 27t30.5 67t2.5 83t-18 76q-12 -33 -45.5 -118t-50.5 -134q7 -1 19 -1z" />
    <glyph glyph-name="ugrave" unicode="&#xf9;" horiz-adv-x="447" 
d="M388 480q6 -7 11 -17t7.5 -17.5t4.5 -22.5t2.5 -20t2 -23.5t1.5 -20.5q0 -35 -1.5 -127t-1 -147t4.5 -71q6 -9 -7 -14q-12 -4 -29 4q-44 24 -44 187q-11 -85 -49.5 -137.5t-117.5 -67.5q-42 -8 -73 11.5t-46.5 53t-24 80.5t-9.5 83.5t0 73.5q5 86 27 145q4 12 11 26
t20.5 28t24.5 8q10 -6 12.5 -22.5t2.5 -53.5q0 -60 -5 -135q-2 -20 -2 -47.5t2 -67t14 -65.5t32 -26q28 3 50 32.5t35.5 76t21.5 88.5t14.5 90.5t9.5 62.5q4 41 33.5 60.5t65.5 -8.5zM169 644q-29 35 0 46q27 10 57 -9q13 -8 19 -18q1 -2 8.5 -13.5t13 -20.5t13.5 -22.5
t13 -24t8.5 -20.5t2.5 -15.5t-7 -5.5q-43 0 -128 103z" />
    <glyph glyph-name="uacute" unicode="&#xfa;" horiz-adv-x="447" 
d="M388 480q6 -7 11 -17t7.5 -17.5t4.5 -22.5t2.5 -20t2 -23.5t1.5 -20.5q0 -35 -1.5 -127t-1 -147t4.5 -71q6 -9 -7 -14q-12 -4 -29 4q-44 24 -44 187q-11 -85 -49.5 -137.5t-117.5 -67.5q-42 -8 -73 11.5t-46.5 53t-24 80.5t-9.5 83.5t0 73.5q5 86 27 145q4 12 11 26
t20.5 28t24.5 8q10 -6 12.5 -22.5t2.5 -53.5q0 -60 -5 -135q-2 -20 -2 -47.5t2 -67t14 -65.5t32 -26q28 3 50 32.5t35.5 76t21.5 88.5t14.5 90.5t9.5 62.5q4 41 33.5 60.5t65.5 -8.5zM202 663q17 27 56 29q32 2 33 -18q1 -13 -13 -30q-85 -103 -128 -103q-6 0 -7 5.5
t2.5 15.5t8.5 20.5t13 24t13.5 22.5t13 20.5t8.5 13.5z" />
    <glyph glyph-name="ucircumflex" unicode="&#xfb;" horiz-adv-x="447" 
d="M388 480q6 -7 11 -17t7.5 -17.5t4.5 -22.5t2.5 -20t2 -23.5t1.5 -20.5q0 -35 -1.5 -127t-1 -147t4.5 -71q6 -9 -7 -14q-12 -4 -29 4q-44 24 -44 187q-11 -85 -49.5 -137.5t-117.5 -67.5q-42 -8 -73 11.5t-46.5 53t-24 80.5t-9.5 83.5t0 73.5q5 86 27 145q4 12 11 26
t20.5 28t24.5 8q10 -6 12.5 -22.5t2.5 -53.5q0 -60 -5 -135q-2 -20 -2 -47.5t2 -67t14 -65.5t32 -26q28 3 50 32.5t35.5 76t21.5 88.5t14.5 90.5t9.5 62.5q4 41 33.5 60.5t65.5 -8.5zM296 619q19 -26 27.5 -48.5t-0.5 -33.5q-19 -13 -67 53q-30 41 -33 44l-33 -44
q-48 -66 -67 -53q-9 11 -0.5 33.5t27.5 48.5q2 3 11 17t14.5 20.5t14 16.5t16.5 14.5t17 4.5t17.5 -4.5t17.5 -15t13.5 -16.5t14 -21t10.5 -16z" />
    <glyph glyph-name="udieresis" unicode="&#xfc;" horiz-adv-x="447" 
d="M388 480q6 -7 11 -17t7.5 -17.5t4.5 -22.5t2.5 -20t2 -23.5t1.5 -20.5q0 -35 -1.5 -127t-1 -147t4.5 -71q6 -9 -7 -14q-12 -4 -29 4q-44 24 -44 187q-11 -85 -49.5 -137.5t-117.5 -67.5q-42 -8 -73 11.5t-46.5 53t-24 80.5t-9.5 83.5t0 73.5q5 86 27 145q4 12 11 26
t20.5 28t24.5 8q10 -6 12.5 -22.5t2.5 -53.5q0 -60 -5 -135q-2 -20 -2 -47.5t2 -67t14 -65.5t32 -26q28 3 50 32.5t35.5 76t21.5 88.5t14.5 90.5t9.5 62.5q4 41 33.5 60.5t65.5 -8.5zM139 675q20 2 33.5 -16.5t11.5 -39.5q-2 -24 -26 -35.5t-48 -1.5q-21 10 -24 32
q-2 20 15.5 39.5t37.5 21.5zM314 675q20 2 33.5 -16.5t11.5 -39.5q-2 -24 -26 -35.5t-48 -1.5q-21 10 -24 32q-2 20 15.5 39.5t37.5 21.5z" />
    <glyph glyph-name="yacute" unicode="&#xfd;" horiz-adv-x="458" 
d="M373 499q47 0 60 -78.5t-1 -185.5t-29 -187t-25 -113q-93 -309 -273 -300q-11 0 -37.5 7t-49 20.5t-16.5 27.5q4 7 17 9t37.5 3.5t43.5 5.5q38 10 69.5 35t53 62t36 73.5t27.5 82.5q29 104 43 238q-14 -39 -23.5 -62t-32.5 -64.5t-44.5 -63.5t-54.5 -35t-69 -2
q-99 29 -91 227q6 74 30 189t52 115q8 0 12.5 -7.5t5.5 -22.5t0.5 -34t-2 -45.5t-3.5 -53t-4 -61t-3 -64.5q-6 -152 30 -152q18 0 34.5 13.5t31.5 41t26.5 54t24 67.5t19 64.5t16.5 62.5q24 87 49 114q18 19 40 19zM207 663q17 27 56 29q32 2 33 -18q1 -13 -13 -30
q-85 -103 -128 -103q-6 0 -7 5.5t2.5 15.5t8.5 20.5t13 24t13.5 22.5t13 20.5t8.5 13.5z" />
    <glyph glyph-name="thorn" unicode="&#xfe;" horiz-adv-x="463" 
d="M323 499q60 -9 88.5 -68.5t28.5 -131.5q0 -105 -54.5 -197.5t-153.5 -109.5q-53 -10 -87 22q-24 21 -14 35q5 5 33 5q48 0 88 35.5t67 88.5q47 84 29 154q-12 47 -47 49q-49 3 -99 -91q-7 -14 -14 -29q-15 -33 -42 -102.5t-39 -96.5v-31.5v-45t-0.5 -51t-1.5 -57
t-3 -54.5t-5.5 -51t-8.5 -40t-12 -29t-16 -10q-29 0 -42 99.5t-10.5 244.5t6.5 237.5t8 148.5q5 91 23 161q21 81 46 77q7 -1 12.5 -10t8.5 -25.5t5.5 -33.5t3 -43.5t0.5 -45.5t-1 -49.5t-1.5 -45.5t-2 -43t-1.5 -33q18 35 35.5 61.5t43.5 55t59 42t70 8.5z" />
    <glyph glyph-name="ydieresis" unicode="&#xff;" horiz-adv-x="458" 
d="M373 499q47 0 60 -78.5t-1 -185.5t-29 -187t-25 -113q-93 -309 -273 -300q-11 0 -37.5 7t-49 20.5t-16.5 27.5q4 7 17 9t37.5 3.5t43.5 5.5q38 10 69.5 35t53 62t36 73.5t27.5 82.5q29 104 43 238q-14 -39 -23.5 -62t-32.5 -64.5t-44.5 -63.5t-54.5 -35t-69 -2
q-99 29 -91 227q6 74 30 189t52 115q8 0 12.5 -7.5t5.5 -22.5t0.5 -34t-2 -45.5t-3.5 -53t-4 -61t-3 -64.5q-6 -152 30 -152q18 0 34.5 13.5t31.5 41t26.5 54t24 67.5t19 64.5t16.5 62.5q24 87 49 114q18 19 40 19zM145 675q20 2 33.5 -16.5t11.5 -39.5q-2 -24 -26 -35.5
t-48 -1.5q-21 10 -24 32q-2 20 15.5 39.5t37.5 21.5zM320 675q20 2 33.5 -16.5t11.5 -39.5q-2 -24 -26 -35.5t-48 -1.5q-21 10 -24 32q-2 20 15.5 39.5t37.5 21.5z" />
    <glyph glyph-name="Amacron" unicode="&#x100;" horiz-adv-x="568" 
d="M485 328q114 -9 110 -57q-2 -24 -31.5 -34t-67.5 -7v-1q9 -66 11 -149v-7v-13.5v-16t-1 -17t-3 -14.5t-5 -11t-8 -3q-27 0 -56 67q-23 61 -36 173l-195 16q-41 -145 -71 -207q-16 -32 -31.5 -49.5t-27.5 -12.5q-20 9 -12 83q6 59 44 194q-58 6 -89 20t-29 39q4 48 146 36
q3 10 13 44t16 54t17.5 57t21 60.5t23 55t26.5 51.5t27.5 39t31 28t33.5 9q24 0 44 -18.5t34 -54.5t24.5 -70t18 -85.5t11 -79.5t7.5 -72.5t4 -46.5zM232 349l155 -13q-2 20 -7 71.5t-8.5 79.5t-11.5 70.5t-19 77.5q-63 -104 -109 -286zM263 858h146q17 0 52.5 -8.5
t35.5 -17.5q0 -10 -29.5 -20t-57.5 -10h-147q-23 0 -58 8t-35 20t32 20t61 8z" />
    <glyph glyph-name="amacron" unicode="&#x101;" 
d="M352 41q4 -11 11 -22t10.5 -17t2.5 -10q-4 -7 -20 -3q-28 7 -53 38t-27 62q-35 -48 -83 -75t-101 -14q-39 8 -68.5 39t-33.5 71q-9 66 37.5 116.5t118.5 77.5q2 1 15 5t21.5 7t22 9t21.5 11.5t14.5 13.5t6.5 16q0 33 -23.5 48.5t-55 13t-57.5 -18.5q-11 -6 -22 -15
t-16.5 -12.5t-9.5 -2.5q-15 20 14.5 57.5t62.5 50.5q65 30 127 -6.5t68 -111.5q3 -30 -10.5 -58t-39.5 -46q-22 -16 -84.5 -41.5t-89.5 -50.5q-22 -18 -23 -42t27 -37q15 -5 31.5 1t33 22t26.5 27t23 29q4 6 16 27t19.5 31t22 19t30.5 5q10 -2 17 -12t7 -21
q2 -15 -0.5 -87.5t11.5 -93.5zM120 633h146q17 0 52.5 -8.5t35.5 -17.5q0 -10 -29.5 -20t-57.5 -10h-147q-23 0 -58 8t-35 20t32 20t61 8z" />
    <glyph glyph-name="Abreve" unicode="&#x102;" horiz-adv-x="568" 
d="M485 328q114 -9 110 -57q-2 -24 -31.5 -34t-67.5 -7v-1q9 -66 11 -149v-7v-13.5v-16t-1 -17t-3 -14.5t-5 -11t-8 -3q-27 0 -56 67q-23 61 -36 173l-195 16q-41 -145 -71 -207q-16 -32 -31.5 -49.5t-27.5 -12.5q-20 9 -12 83q6 59 44 194q-58 6 -89 20t-29 39q4 48 146 36
q3 10 13 44t16 54t17.5 57t21 60.5t23 55t26.5 51.5t27.5 39t31 28t33.5 9q24 0 44 -18.5t34 -54.5t24.5 -70t18 -85.5t11 -79.5t7.5 -72.5t4 -46.5zM232 349l155 -13q-2 20 -7 71.5t-8.5 79.5t-11.5 70.5t-19 77.5q-63 -104 -109 -286zM342 800q-42 0 -76.5 26.5
t-40.5 68.5q-1 14 3.5 23t10.5 8q8 0 21 -22q30 -54 82 -58q47 0 83 58q13 22 21 22q6 1 10.5 -8t3.5 -23q-4 -41 -38.5 -67t-79.5 -28z" />
    <glyph glyph-name="abreve" unicode="&#x103;" 
d="M352 41q4 -11 11 -22t10.5 -17t2.5 -10q-4 -7 -20 -3q-28 7 -53 38t-27 62q-35 -48 -83 -75t-101 -14q-39 8 -68.5 39t-33.5 71q-9 66 37.5 116.5t118.5 77.5q2 1 15 5t21.5 7t22 9t21.5 11.5t14.5 13.5t6.5 16q0 33 -23.5 48.5t-55 13t-57.5 -18.5q-11 -6 -22 -15
t-16.5 -12.5t-9.5 -2.5q-15 20 14.5 57.5t62.5 50.5q65 30 127 -6.5t68 -111.5q3 -30 -10.5 -58t-39.5 -46q-22 -16 -84.5 -41.5t-89.5 -50.5q-22 -18 -23 -42t27 -37q15 -5 31.5 1t33 22t26.5 27t23 29q4 6 16 27t19.5 31t22 19t30.5 5q10 -2 17 -12t7 -21
q2 -15 -0.5 -87.5t11.5 -93.5zM190 550q-42 0 -76.5 26.5t-40.5 68.5q-1 14 3.5 23t10.5 8q8 0 21 -22q30 -54 82 -58q47 0 83 58q13 22 21 22q6 1 10.5 -8t3.5 -23q-4 -41 -38.5 -67t-79.5 -28z" />
    <glyph glyph-name="Aogonek" unicode="&#x104;" horiz-adv-x="568" 
d="M485 328q114 -9 110 -57q-2 -24 -31.5 -34t-67.5 -7v-1q9 -66 11 -149v-7v-13.5v-16t-1 -17t-3 -14.5t-5 -11t-8 -3q-27 0 -56 67q-23 61 -36 173l-195 16q-41 -145 -71 -207q-16 -32 -31.5 -49.5t-27.5 -12.5q-20 9 -12 83q6 59 44 194q-58 6 -89 20t-29 39q4 48 146 36
q3 10 13 44t16 54t17.5 57t21 60.5t23 55t26.5 51.5t27.5 39t31 28t33.5 9q24 0 44 -18.5t34 -54.5t24.5 -70t18 -85.5t11 -79.5t7.5 -72.5t4 -46.5zM232 349l155 -13q-2 20 -7 71.5t-8.5 79.5t-11.5 70.5t-19 77.5q-63 -104 -109 -286zM492 4q23 -6 -4 -53
q-20 -33 -17 -54.5t15.5 -31.5t28.5 -10q9 0 26 6t27.5 5t16.5 -15q9 -22 -22 -39.5t-74 -17.5q-41 0 -65.5 31.5t-14.5 71.5t37.5 76.5t45.5 30.5z" />
    <glyph glyph-name="aogonek" unicode="&#x105;" 
d="M352 41q4 -11 11 -22t10.5 -17t2.5 -10q-4 -7 -20 -3q-28 7 -53 38t-27 62q-35 -48 -83 -75t-101 -14q-39 8 -68.5 39t-33.5 71q-9 66 37.5 116.5t118.5 77.5q2 1 15 5t21.5 7t22 9t21.5 11.5t14.5 13.5t6.5 16q0 33 -23.5 48.5t-55 13t-57.5 -18.5q-11 -6 -22 -15
t-16.5 -12.5t-9.5 -2.5q-15 20 14.5 57.5t62.5 50.5q65 30 127 -6.5t68 -111.5q3 -30 -10.5 -58t-39.5 -46q-22 -16 -84.5 -41.5t-89.5 -50.5q-22 -18 -23 -42t27 -37q15 -5 31.5 1t33 22t26.5 27t23 29q4 6 16 27t19.5 31t22 19t30.5 5q10 -2 17 -12t7 -21
q2 -15 -0.5 -87.5t11.5 -93.5zM360 -13q23 -6 -4 -53q-20 -33 -17 -54.5t15.5 -31.5t28.5 -10q9 0 26 6t27.5 5t16.5 -15q9 -22 -22 -39.5t-74 -17.5q-41 0 -65.5 31.5t-14.5 71.5t37.5 76.5t45.5 30.5z" />
    <glyph glyph-name="Cacute" unicode="&#x106;" horiz-adv-x="541" 
d="M44 455q28 59 72.5 115t101 102.5t126 68.5t135.5 8q54 -12 85 -57.5t25 -102.5q-6 -84 -76 -165q-28 -30 -42 -22q-5 3 -5.5 15.5t3 31t7 35t8 34.5l5.5 22q10 57 -8 84t-75 18q-84 -15 -153.5 -78.5t-106.5 -151.5q-21 -51 -24.5 -111.5t11 -115t54.5 -94.5t99 -47
q42 -4 86.5 1.5t70 13t51 10.5t29.5 -7q2 -42 -83.5 -86.5t-180.5 -35.5q-81 9 -141.5 60t-88.5 124t-25.5 161.5t40.5 169.5zM443 908q17 27 56 29q32 2 33 -18q1 -13 -13 -30q-85 -103 -128 -103q-6 0 -7 5.5t2.5 15.5t8.5 20.5t13 24t13.5 22.5t13 20.5t8.5 13.5z" />
    <glyph glyph-name="cacute" unicode="&#x107;" horiz-adv-x="397" 
d="M107 274q-23 -75 11.5 -131t113.5 -52q33 3 88 22q39 14 46 7q11 -11 -19 -45q-76 -82 -185 -65q-67 12 -109 58.5t-49.5 108t8.5 130.5q55 145 180 184q54 12 106 -9t79 -71q9 -24 8 -36t-9 -15h-5.5t-6 3t-7 5.5t-8 7t-10.5 8.5q-34 26 -75 30q-96 4 -157 -140z
M199 663q17 27 56 29q32 2 33 -18q1 -13 -13 -30q-85 -103 -128 -103q-6 0 -7 5.5t2.5 15.5t8.5 20.5t13 24t13.5 22.5t13 20.5t8.5 13.5z" />
    <glyph glyph-name="Ccaron" unicode="&#x10c;" horiz-adv-x="541" 
d="M44 455q28 59 72.5 115t101 102.5t126 68.5t135.5 8q54 -12 85 -57.5t25 -102.5q-6 -84 -76 -165q-28 -30 -42 -22q-5 3 -5.5 15.5t3 31t7 35t8 34.5l5.5 22q10 57 -8 84t-75 18q-84 -15 -153.5 -78.5t-106.5 -151.5q-21 -51 -24.5 -111.5t11 -115t54.5 -94.5t99 -47
q42 -4 86.5 1.5t70 13t51 10.5t29.5 -7q2 -42 -83.5 -86.5t-180.5 -35.5q-81 9 -141.5 60t-88.5 124t-25.5 161.5t40.5 169.5zM353 866q-19 26 -27.5 48.5t0.5 33.5q19 13 67 -53q30 -41 33 -44l33 44q48 66 67 53q9 -11 0.5 -33.5t-27.5 -48.5q-3 -4 -11.5 -17.5t-14 -20.5
t-14 -16.5t-16.5 -14t-17 -4.5t-17.5 4.5t-17.5 15t-13.5 16.5t-14 21t-10.5 16z" />
    <glyph glyph-name="ccaron" unicode="&#x10d;" horiz-adv-x="397" 
d="M107 274q-23 -75 11.5 -131t113.5 -52q33 3 88 22q39 14 46 7q11 -11 -19 -45q-76 -82 -185 -65q-67 12 -109 58.5t-49.5 108t8.5 130.5q55 145 180 184q54 12 106 -9t79 -71q9 -24 8 -36t-9 -15h-5.5t-6 3t-7 5.5t-8 7t-10.5 8.5q-34 26 -75 30q-96 4 -157 -140z
M153 608q-19 26 -27.5 48.5t0.5 33.5q19 13 67 -53q30 -41 33 -44l33 44q48 66 67 53q9 -11 0.5 -33.5t-27.5 -48.5q-3 -4 -11.5 -17.5t-14 -20.5t-14 -16.5t-16.5 -14t-17 -4.5t-17.5 4.5t-17.5 15t-13.5 16.5t-14 21t-10.5 16z" />
    <glyph glyph-name="Dcaron" unicode="&#x10e;" horiz-adv-x="623" 
d="M413 730q61 -21 108.5 -69.5t71.5 -108.5t33 -129t-7 -131q-22 -97 -101 -182.5t-189 -127t-209 -12.5q-11 -19 -22 -14.5t-15 27.5q-24 10 -59.5 42.5t-18.5 49.5q3 3 8 4t12.5 -0.5t14 -3t18.5 -5t20 -5.5q3 55 14 159.5t14 159.5t-4 177q-15 -8 -40.5 -47.5t-49.5 -72
t-39 -27.5q-13 3 -14 30.5t11 67.5q26 88 98 149t160.5 77.5t184.5 -8.5zM525 314q20 96 -17 193.5t-127 131.5q-59 20 -120.5 9.5t-113.5 -47.5q35 -64 41.5 -170.5t-4.5 -197t-32 -179.5q122 -6 228 66.5t145 193.5zM238 868q-19 26 -27.5 48.5t0.5 33.5q19 13 67 -53
q30 -41 33 -44l33 44q48 66 67 53q9 -11 0.5 -33.5t-27.5 -48.5q-3 -4 -11.5 -17.5t-14 -20.5t-14 -16.5t-16.5 -14t-17 -4.5t-17.5 4.5t-17.5 15t-13.5 16.5t-14 21t-10.5 16z" />
    <glyph glyph-name="dcaron" unicode="&#x10f;" horiz-adv-x="710" 
d="M518 647q0 -174 -101 -410q16 -176 48 -264q2 -5 6.5 -16t4.5 -12v-9q-2 -4 -8 -5t-16 2.5t-21 12.5q-23 18 -40.5 49t-25.5 54t-19 62q-81 -112 -185 -112q-82 0 -119.5 64.5t-28.5 152.5q6 57 35 120t83 111t116 44q36 -3 64 -28v22v50.5t1 54t3.5 58.5t7 54t12 51
t18 39t25.5 28t33 9q95 -3 107 -182zM204 95q62 27 120 132q-11 84 -13 207q-44 7 -81.5 -12.5t-61.5 -56.5t-39 -77.5t-22 -82.5q-10 -57 14.5 -97t82.5 -13zM404 420q16 48 23 75t13.5 69t1 82t-21.5 84q-24 -119 -16 -310zM638 768q5 17 28.5 18.5t28.5 -16.5
q13 -47 -7.5 -105t-63.5 -81q-41 -23 -49 1q-7 13 12 46q30 48 51 137z" />
    <glyph glyph-name="Dcroat" unicode="&#x110;" horiz-adv-x="623" 
d="M413 730q61 -21 108.5 -69.5t71.5 -108.5t33 -129t-7 -131q-22 -97 -101 -182.5t-189 -127t-209 -12.5q-11 -19 -22 -14.5t-15 27.5q-24 10 -59.5 42.5t-18.5 49.5q3 3 8 4t12.5 -0.5t14 -3t18.5 -5t20 -5.5q1 33 22 241q-23 0 -56.5 8.5t-33.5 19.5q0 12 32 20t61 8h1
q7 108 -2 199q-15 -8 -40.5 -47.5t-49.5 -72t-39 -27.5q-13 3 -14 30.5t11 67.5q26 88 98 149t160.5 77.5t184.5 -8.5zM525 314q20 96 -17 193.5t-127 131.5q-59 20 -120.5 9.5t-113.5 -47.5q47 -81 45 -239h57q17 0 52.5 -8.5t35.5 -17.5q0 -10 -29.5 -20t-57.5 -10h-60
q-6 -118 -38 -252q122 -6 228 66.5t145 193.5z" />
    <glyph glyph-name="dcroat" unicode="&#x111;" horiz-adv-x="495" 
d="M518 633h15q25 0 74 -11.5t49 -24.5q0 -15 -41.5 -28.5t-80.5 -13.5h-22q-16 -137 -95 -318q16 -176 48 -264q2 -5 6.5 -16t4.5 -12v-9q-2 -4 -8 -5t-16 2.5t-21 12.5q-23 18 -40.5 49t-25.5 54t-19 62q-81 -112 -185 -112q-82 0 -119.5 64.5t-28.5 152.5q6 57 35 120
t83 111t116 44q36 -3 64 -28q0 57 1 92q-37 3 -76 14t-39 25q0 16 38 26t80 13q16 196 96 196q95 -3 107 -182v-14zM420 730q-9 -41 -14 -97h36q-3 47 -22 97zM204 95q62 27 120 132q-11 84 -13 207q-44 7 -81.5 -12.5t-61.5 -56.5t-39 -77.5t-22 -82.5q-10 -57 14.5 -97
t82.5 -13zM404 420q28 87 35 135h-37q-2 -84 2 -135z" />
    <glyph glyph-name="Emacron" unicode="&#x112;" horiz-adv-x="511" 
d="M533 660q3 -7 5.5 -17.5t1 -23t-10.5 -13.5q-5 0 -10 3t-13 9.5t-13 10.5q-71 42 -205 16q-65 -13 -118.5 -49t-53.5 -94q0 -138 303 -138q13 0 18.5 -11t3.5 -27q-2 -17 -11.5 -29.5t-26.5 -19.5t-29.5 -10.5t-36 -7.5t-30.5 -6q-46 -8 -90 -40t-39 -74
q6 -47 57.5 -67.5t121.5 -13.5q37 3 72.5 15.5t45 18.5t22.5 0q9 -11 -7.5 -33.5t-49 -44.5t-64.5 -31q-40 -13 -90.5 -10.5t-95 15.5t-78.5 47t-43 84q-17 103 71 180q-61 24 -98.5 80.5t-35.5 125.5q0 99 80 164.5t185 78.5q78 10 152 -9t110 -79zM235 857h146
q17 0 52.5 -8.5t35.5 -17.5q0 -10 -29.5 -20t-57.5 -10h-147q-23 0 -58 8t-35 20t32 20t61 8z" />
    <glyph glyph-name="emacron" unicode="&#x113;" horiz-adv-x="306" 
d="M293 115q4 -2 5 -9t-3.5 -20t-15.5 -28q-43 -59 -135 -59q-109 0 -132.5 125t35.5 250t151 125q33 0 54.5 -18t29 -46.5t7.5 -58t-7 -58.5q-13 -60 -61 -117.5t-107 -71.5q9 -41 54.5 -52.5t78.5 13.5q7 5 19 13.5t17.5 11t9.5 0.5zM186 404q-27 -23 -50 -74t-25 -115
q97 72 91 152q-2 30 -13 37q-2 1 -3 0zM83 633h146q17 0 52.5 -8.5t35.5 -17.5q0 -10 -29.5 -20t-57.5 -10h-147q-23 0 -58 8t-35 20t32 20t61 8z" />
    <glyph glyph-name="Edotaccent" unicode="&#x116;" horiz-adv-x="511" 
d="M533 660q3 -7 5.5 -17.5t1 -23t-10.5 -13.5q-5 0 -10 3t-13 9.5t-13 10.5q-71 42 -205 16q-65 -13 -118.5 -49t-53.5 -94q0 -138 303 -138q13 0 18.5 -11t3.5 -27q-2 -17 -11.5 -29.5t-26.5 -19.5t-29.5 -10.5t-36 -7.5t-30.5 -6q-46 -8 -90 -40t-39 -74
q6 -47 57.5 -67.5t121.5 -13.5q37 3 72.5 15.5t45 18.5t22.5 0q9 -11 -7.5 -33.5t-49 -44.5t-64.5 -31q-40 -13 -90.5 -10.5t-95 15.5t-78.5 47t-43 84q-17 103 71 180q-61 24 -98.5 80.5t-35.5 125.5q0 99 80 164.5t185 78.5q78 10 152 -9t110 -79zM315 900
q20 2 33.5 -16.5t11.5 -39.5q-2 -24 -26 -35.5t-48 -1.5q-21 10 -24 32q-2 20 15.5 39.5t37.5 21.5z" />
    <glyph glyph-name="edotaccent" unicode="&#x117;" horiz-adv-x="306" 
d="M293 115q4 -2 5 -9t-3.5 -20t-15.5 -28q-43 -59 -135 -59q-109 0 -132.5 125t35.5 250t151 125q33 0 54.5 -18t29 -46.5t7.5 -58t-7 -58.5q-13 -60 -61 -117.5t-107 -71.5q9 -41 54.5 -52.5t78.5 13.5q7 5 19 13.5t17.5 11t9.5 0.5zM186 404q-27 -23 -50 -74t-25 -115
q97 72 91 152q-2 30 -13 37q-2 1 -3 0zM165 640q20 2 33.5 -16.5t11.5 -39.5q-2 -24 -26 -35.5t-48 -1.5q-21 10 -24 32q-2 20 15.5 39.5t37.5 21.5z" />
    <glyph glyph-name="Eogonek" unicode="&#x118;" horiz-adv-x="511" 
d="M533 660q3 -7 5.5 -17.5t1 -23t-10.5 -13.5q-5 0 -10 3t-13 9.5t-13 10.5q-71 42 -205 16q-65 -13 -118.5 -49t-53.5 -94q0 -138 303 -138q13 0 18.5 -11t3.5 -27q-2 -17 -11.5 -29.5t-26.5 -19.5t-29.5 -10.5t-36 -7.5t-30.5 -6q-46 -8 -90 -40t-39 -74
q6 -47 57.5 -67.5t121.5 -13.5q37 3 72.5 15.5t45 18.5t22.5 0q9 -11 -7.5 -33.5t-49 -44.5t-64.5 -31q-40 -13 -90.5 -10.5t-95 15.5t-78.5 47t-43 84q-17 103 71 180q-61 24 -98.5 80.5t-35.5 125.5q0 99 80 164.5t185 78.5q78 10 152 -9t110 -79zM444 4q23 -6 -4 -53
q-20 -33 -17 -54.5t15.5 -31.5t28.5 -10q9 0 26 6t27.5 5t16.5 -15q9 -22 -22 -39.5t-74 -17.5q-41 0 -65.5 31.5t-14.5 71.5t37.5 76.5t45.5 30.5z" />
    <glyph glyph-name="eogonek" unicode="&#x119;" horiz-adv-x="306" 
d="M293 115q4 -2 5 -9t-3.5 -20t-15.5 -28q-43 -59 -135 -59q-109 0 -132.5 125t35.5 250t151 125q33 0 54.5 -18t29 -46.5t7.5 -58t-7 -58.5q-13 -60 -61 -117.5t-107 -71.5q9 -41 54.5 -52.5t78.5 13.5q7 5 19 13.5t17.5 11t9.5 0.5zM186 404q-27 -23 -50 -74t-25 -115
q97 72 91 152q-2 30 -13 37q-2 1 -3 0zM195 4q23 -6 -4 -53q-20 -33 -17 -54.5t15.5 -31.5t28.5 -10q9 0 26 6t27.5 5t16.5 -15q9 -22 -22 -39.5t-74 -17.5q-41 0 -65.5 31.5t-14.5 71.5t37.5 76.5t45.5 30.5z" />
    <glyph glyph-name="Ecaron" unicode="&#x11a;" horiz-adv-x="511" 
d="M533 660q3 -7 5.5 -17.5t1 -23t-10.5 -13.5q-5 0 -10 3t-13 9.5t-13 10.5q-71 42 -205 16q-65 -13 -118.5 -49t-53.5 -94q0 -138 303 -138q13 0 18.5 -11t3.5 -27q-2 -17 -11.5 -29.5t-26.5 -19.5t-29.5 -10.5t-36 -7.5t-30.5 -6q-46 -8 -90 -40t-39 -74
q6 -47 57.5 -67.5t121.5 -13.5q37 3 72.5 15.5t45 18.5t22.5 0q9 -11 -7.5 -33.5t-49 -44.5t-64.5 -31q-40 -13 -90.5 -10.5t-95 15.5t-78.5 47t-43 84q-17 103 71 180q-61 24 -98.5 80.5t-35.5 125.5q0 99 80 164.5t185 78.5q78 10 152 -9t110 -79zM213 860
q-19 26 -27.5 48.5t0.5 33.5q19 13 67 -53q30 -41 33 -44l33 44q48 66 67 53q9 -11 0.5 -33.5t-27.5 -48.5q-3 -4 -11.5 -17.5t-14 -20.5t-14 -16.5t-16.5 -14t-17 -4.5t-17.5 4.5t-17.5 15t-13.5 16.5t-14 21t-10.5 16z" />
    <glyph glyph-name="ecaron" unicode="&#x11b;" horiz-adv-x="306" 
d="M293 115q4 -2 5 -9t-3.5 -20t-15.5 -28q-43 -59 -135 -59q-109 0 -132.5 125t35.5 250t151 125q33 0 54.5 -18t29 -46.5t7.5 -58t-7 -58.5q-13 -60 -61 -117.5t-107 -71.5q9 -41 54.5 -52.5t78.5 13.5q7 5 19 13.5t17.5 11t9.5 0.5zM186 404q-27 -23 -50 -74t-25 -115
q97 72 91 152q-2 30 -13 37q-2 1 -3 0zM91 608q-19 26 -27.5 48.5t0.5 33.5q19 13 67 -53q30 -41 33 -44l33 44q48 66 67 53q9 -11 0.5 -33.5t-27.5 -48.5q-3 -4 -11.5 -17.5t-14 -20.5t-14 -16.5t-16.5 -14t-17 -4.5t-17.5 4.5t-17.5 15t-13.5 16.5t-14 21t-10.5 16z" />
    <glyph glyph-name="Gbreve" unicode="&#x11e;" horiz-adv-x="628" 
d="M554 689q30 -23 50 -47.5t25.5 -41t-0.5 -22.5t-19.5 -1t-44 22t-50.5 26q-49 22 -97 26q-116 9 -202 -86.5t-92 -219.5q-4 -103 61 -189t155 -86q26 0 55 11t35 24q-22 70 -26 127q-3 63 24.5 109.5t86.5 41.5q46 -8 75 -52.5t33 -97.5q7 -87 -85 -172q8 -24 9 -58
t-5 -71.5t-21 -73t-36.5 -63t-55 -41t-72.5 -6.5q-37 6 -36 21q0 10 32 23q65 28 83.5 78.5t11.5 135.5q-72 -32 -119 -32q-127 0 -217 113t-84 262q3 75 35 150.5t84 134t127 90t156 18.5q65 -11 124 -53zM505 284q-14 -30 6 -111q36 47 -6 111zM375 797q-42 0 -76.5 26.5
t-40.5 68.5q-1 14 3.5 23t10.5 8q8 0 21 -22q30 -54 82 -58q47 0 83 58q13 22 21 22q6 1 10.5 -8t3.5 -23q-4 -41 -38.5 -67t-79.5 -28z" />
    <glyph glyph-name="gbreve" unicode="&#x11f;" horiz-adv-x="459" 
d="M445 380q8 -10 7 -61t-23 -51q-8 0 -14.5 10.5t-17 34t-19.5 37.5q-19 29 -50.5 42t-69.5 4q-68 -17 -109.5 -78.5t-52.5 -138.5q-3 -23 6 -52t33 -29q33 -6 60.5 13.5t47.5 50.5t38.5 63.5t41 55.5t47.5 23q39 0 45.5 -91t-7.5 -186t-28 -136q-16 -45 -35.5 -85
t-48.5 -81t-68.5 -67.5t-84.5 -32.5q-40 -6 -76.5 15t-49.5 60q-10 30 3 37q7 5 39.5 -14t42.5 -19q45 -5 83.5 27.5t63 83.5t42.5 113t26.5 112.5t9.5 86.5q-105 -134 -211 -124q-66 2 -94 58.5t-20 129.5q13 103 75 189t159 109q67 15 127.5 -14t81.5 -95zM248 550
q-42 0 -76.5 26.5t-40.5 68.5q-1 14 3.5 23t10.5 8q8 0 21 -22q30 -54 82 -58q47 0 83 58q13 22 21 22q6 1 10.5 -8t3.5 -23q-4 -41 -38.5 -67t-79.5 -28z" />
    <glyph glyph-name="Imacron" unicode="&#x12a;" horiz-adv-x="160" 
d="M133 641q-3 -56 -4 -170.5t-5.5 -207.5t-17.5 -174q-23 -127 -52 -123q-14 2 -20.5 31.5t-12.5 94.5q-13 122 -8.5 279t37.5 283q15 53 35.5 86t35.5 29q13 -5 14.5 -40t-2.5 -88zM20 857h146q17 0 52.5 -8.5t35.5 -17.5q0 -10 -29.5 -20t-57.5 -10h-147q-23 0 -58 8
t-35 20t32 20t61 8z" />
    <glyph glyph-name="imacron" unicode="&#x12b;" horiz-adv-x="169" 
d="M118 480q10 -6 11 -28t-2 -51q-2 -20 -3 -68t-2 -71q0 -130 -13 -186q-7 -34 -19 -54t-24 -18q-6 1 -10.5 6.5t-8 17.5t-5.5 22t-5 30q-8 69 -8 185q2 92 28 154q14 32 32 49.5t29 11.5zM14 633h146q17 0 52.5 -8.5t35.5 -17.5q0 -10 -29.5 -20t-57.5 -10h-147
q-23 0 -58 8t-35 20t32 20t61 8z" />
    <glyph glyph-name="Iogonek" unicode="&#x12e;" horiz-adv-x="160" 
d="M133 641q-3 -56 -4 -170.5t-5.5 -207.5t-17.5 -174q-23 -127 -52 -123q-14 2 -20.5 31.5t-12.5 94.5q-13 122 -8.5 279t37.5 283q15 53 35.5 86t35.5 29q13 -5 14.5 -40t-2.5 -88zM67 -33q23 -6 -4 -53q-20 -33 -17 -54.5t15.5 -31.5t28.5 -10q9 0 26 6t27.5 5t16.5 -15
q9 -22 -22 -39.5t-74 -17.5q-41 0 -65.5 31.5t-14.5 71.5t37.5 76.5t45.5 30.5z" />
    <glyph glyph-name="iogonek" unicode="&#x12f;" horiz-adv-x="169" 
d="M114 675q20 2 33.5 -16.5t11.5 -39.5q-2 -24 -26 -35.5t-48 -1.5q-21 10 -24 32q-2 20 15.5 39.5t37.5 21.5zM118 480q10 -6 11 -28t-2 -51q-2 -20 -3 -68t-2 -71q0 -130 -13 -186q-7 -34 -19 -54t-24 -18q-6 1 -10.5 6.5t-8 17.5t-5.5 22t-5 30q-8 69 -8 185
q2 92 28 154q14 32 32 49.5t29 11.5zM80 4q23 -6 -4 -53q-20 -33 -17 -54.5t15.5 -31.5t28.5 -10q9 0 26 6t27.5 5t16.5 -15q9 -22 -22 -39.5t-74 -17.5q-41 0 -65.5 31.5t-14.5 71.5t37.5 76.5t45.5 30.5z" />
    <glyph glyph-name="Idotaccent" unicode="&#x130;" horiz-adv-x="160" 
d="M133 641q-3 -56 -4 -170.5t-5.5 -207.5t-17.5 -174q-23 -127 -52 -123q-14 2 -20.5 31.5t-12.5 94.5q-13 122 -8.5 279t37.5 283q15 53 35.5 86t35.5 29q13 -5 14.5 -40t-2.5 -88zM113 904q20 2 33.5 -16.5t11.5 -39.5q-2 -24 -26 -35.5t-48 -1.5q-21 10 -24 32
q-2 20 15.5 39.5t37.5 21.5z" />
    <glyph glyph-name="dotlessi" unicode="&#x131;" horiz-adv-x="169" 
d="M118 480q10 -6 11 -28t-2 -51q-2 -20 -3 -68t-2 -71q0 -130 -13 -186q-7 -34 -19 -54t-24 -18q-6 1 -10.5 6.5t-8 17.5t-5.5 22t-5 30q-8 69 -8 185q2 92 28 154q14 32 32 49.5t29 11.5z" />
    <glyph glyph-name="uni0136" unicode="&#x136;" horiz-adv-x="446" 
d="M455 41q12 -11 30.5 -19.5t29.5 -14.5t11 -14q0 -16 -28 -22q-49 -11 -89.5 12t-66 68.5t-43.5 91t-32.5 89.5t-21.5 55q-25 -17 -65 -38q-15 -154 -57 -225q-17 -30 -35.5 -43.5t-30.5 -5.5q-18 10 -9 76q3 23 11 75t12 80q-60 -14 -70 4q-8 20 78 81h1q9 130 -2 287
q-11 201 32 207q18 2 34 -29t25.5 -77.5t12.5 -94.5q6 -115 5 -215q29 19 62 47.5t54 50t61.5 64.5t57.5 61q39 40 60 56t32 9q25 -17 -28 -112q-56 -101 -165 -200q21 -35 38 -98t38 -118t58 -88zM257 2q5 0 6.5 -7.5t-1.5 -20t-10 -25.5q35 -5 52.5 -29.5t17.5 -50.5
q0 -27 -23 -48.5t-69 -21.5q-39 0 -60 22t-12 39q9 8 16.5 5t25.5 -11.5t32 -8.5q39 0 43 24q5 24 -28 38q-22 10 -54 10q-10 0 5 26l2 3q9 16 27 36t30 20z" />
    <glyph glyph-name="uni0137" unicode="&#x137;" horiz-adv-x="376" 
d="M207 2q5 0 6.5 -7.5t-1.5 -20t-10 -25.5q35 -5 52.5 -29.5t17.5 -50.5q0 -27 -23 -48.5t-69 -21.5q-39 0 -60 22t-12 39q9 8 16.5 5t25.5 -11.5t32 -8.5q39 0 43 24q5 24 -28 38q-22 10 -54 10q-10 0 5 26l2 3q9 16 27 36t30 20zM451 70q10 -10 -2 -30q-16 -25 -54 -34
q-36 -7 -72 7.5t-65.5 44.5t-52 62t-40.5 67q-6 -17 -15 -38.5t-16 -40t-12 -41.5q-8 -31 -22 -49.5t-43 -16.5q-43 1 -43 103q0 78 4 157t13 197t13 180q4 80 20.5 145t40.5 63q43 -4 32 -214q-14 -219 -19 -317q66 135 158 186q32 17 59 15q25 -1 27 -16q0 -8 -4.5 -15
t-19 -22t-20.5 -21q-71 -74 -118 -171q19 -19 52.5 -66t66.5 -80.5t71 -46.5q10 -4 34.5 -2.5t26.5 -5.5z" />
    <glyph glyph-name="Lacute" unicode="&#x139;" horiz-adv-x="476" 
d="M693 -50q14 -9 4 -37q-15 -45 -66 -64.5t-107 -10.5q-46 8 -121 45.5t-145 71.5t-112 36q-17 -31 -27.5 -48.5t-31.5 -39.5t-46 -34q-44 -14 -71.5 19.5t-34.5 85.5q-4 64 41 100.5t110 30.5q23 65 26 135t-8.5 184t-13.5 149q-7 111 17 196q12 43 28 67.5t30 20.5
q17 -4 21 -82q1 -11 1 -16q2 -94 6 -181q2 -39 9 -119t9.5 -129t-2 -118t-20.5 -126q38 -1 95.5 -28.5t107 -59t111 -54.5t108.5 -18q18 1 45.5 15t36.5 9zM195 1017q17 27 56 29q32 2 33 -18q1 -13 -13 -30q-85 -103 -128 -103q-6 0 -7 5.5t2.5 15.5t8.5 20.5t13 24
t13.5 22.5t13 20.5t8.5 13.5z" />
    <glyph glyph-name="lacute" unicode="&#x13a;" horiz-adv-x="207" 
d="M210 120q4 0 5.5 -6t0 -17.5t-5.5 -25.5q-7 -26 -35.5 -48t-64.5 -22q-20 0 -35 10.5t-22.5 32.5t-12.5 43.5t-5 55.5t0.5 55.5t3 57t2.5 46.5q5 105 16.5 282.5t14.5 232.5q2 36 12 42q7 2 22.5 -9.5t20.5 -30.5q8 -27 12.5 -66t6.5 -72.5t1 -93t-2 -90.5t-4.5 -103.5
t-4.5 -96.5q-6 -85 -4.5 -156t20.5 -71q21 3 31.5 16t15.5 23.5t11 10.5zM105 1010q17 27 56 29q32 2 33 -18q1 -13 -13 -30q-85 -103 -128 -103q-6 0 -7 5.5t2.5 15.5t8.5 20.5t13 24t13.5 22.5t13 20.5t8.5 13.5z" />
    <glyph glyph-name="uni013B" unicode="&#x13b;" horiz-adv-x="535" 
d="M257 -78q5 0 6.5 -7.5t-1.5 -20t-10 -25.5q35 -5 52.5 -29.5t17.5 -50.5q0 -27 -23 -48.5t-69 -21.5q-39 0 -60 22t-12 39q9 8 16.5 5t25.5 -11.5t32 -8.5q39 0 43 24q5 24 -28 38q-22 10 -54 10q-10 0 5 26l2 3q9 16 27 36t30 20zM693 -50q14 -9 4 -37
q-15 -45 -66 -64.5t-107 -10.5q-46 8 -121 45.5t-145 71.5t-112 36q-17 -31 -27.5 -48.5t-31.5 -39.5t-46 -34q-44 -14 -71.5 19.5t-34.5 85.5q-4 64 41 100.5t110 30.5q23 65 26 135t-8.5 184t-13.5 149q-7 111 17 196q12 43 28 67.5t30 20.5q17 -4 21 -82q1 -11 1 -16
q2 -94 6 -181q2 -39 9 -119t9.5 -129t-2 -118t-20.5 -126q38 -1 95.5 -28.5t107 -59t111 -54.5t108.5 -18q18 1 45.5 15t36.5 9z" />
    <glyph glyph-name="uni013C" unicode="&#x13c;" horiz-adv-x="214" 
d="M127 -78q5 0 6.5 -7.5t-1.5 -20t-10 -25.5q35 -5 52.5 -29.5t17.5 -50.5q0 -27 -23 -48.5t-69 -21.5q-39 0 -60 22t-12 39q9 8 16.5 5t25.5 -11.5t32 -8.5q39 0 43 24q5 24 -28 38q-22 10 -54 10q-10 0 5 26l2 3q9 16 27 36t30 20zM210 120q4 0 5.5 -6t0 -17.5
t-5.5 -25.5q-7 -26 -35.5 -48t-64.5 -22q-20 0 -35 10.5t-22.5 32.5t-12.5 43.5t-5 55.5t0.5 55.5t3 57t2.5 46.5q5 105 16.5 282.5t14.5 232.5q2 36 12 42q7 2 22.5 -9.5t20.5 -30.5q8 -27 12.5 -66t6.5 -72.5t1 -93t-2 -90.5t-4.5 -103.5t-4.5 -96.5q-6 -85 -4.5 -156
t20.5 -71q21 3 31.5 16t15.5 23.5t11 10.5z" />
    <glyph glyph-name="Lcaron" unicode="&#x13d;" horiz-adv-x="476" 
d="M693 -50q14 -9 4 -37q-15 -45 -66 -64.5t-107 -10.5q-46 8 -121 45.5t-145 71.5t-112 36q-17 -31 -27.5 -48.5t-31.5 -39.5t-46 -34q-44 -14 -71.5 19.5t-34.5 85.5q-4 64 41 100.5t110 30.5q23 65 26 135t-8.5 184t-13.5 149q-7 111 17 196q12 43 28 67.5t30 20.5
q17 -4 21 -82q1 -11 1 -16q2 -94 6 -181q2 -39 9 -119t9.5 -129t-2 -118t-20.5 -126q38 -1 95.5 -28.5t107 -59t111 -54.5t108.5 -18q18 1 45.5 15t36.5 9zM357 840q5 17 28.5 18.5t28.5 -16.5q13 -47 -7.5 -105t-63.5 -81q-41 -23 -49 1q-7 13 12 46q30 48 51 137z" />
    <glyph glyph-name="lcaron" unicode="&#x13e;" horiz-adv-x="422" 
d="M210 120q4 0 5.5 -6t0 -17.5t-5.5 -25.5q-7 -26 -35.5 -48t-64.5 -22q-20 0 -35 10.5t-22.5 32.5t-12.5 43.5t-5 55.5t0.5 55.5t3 57t2.5 46.5q5 105 16.5 282.5t14.5 232.5q2 36 12 42q7 2 22.5 -9.5t20.5 -30.5q8 -27 12.5 -66t6.5 -72.5t1 -93t-2 -90.5t-4.5 -103.5
t-4.5 -96.5q-6 -85 -4.5 -156t20.5 -71q21 3 31.5 16t15.5 23.5t11 10.5zM300 838q5 17 28.5 18.5t28.5 -16.5q13 -47 -7.5 -105t-63.5 -81q-41 -23 -49 1q-7 13 12 46q30 48 51 137z" />
    <glyph glyph-name="Lslash" unicode="&#x141;" horiz-adv-x="476" 
d="M693 -50q14 -9 4 -37q-15 -45 -66 -64.5t-107 -10.5q-46 8 -121 45.5t-145 71.5t-112 36q-17 -31 -27.5 -48.5t-31.5 -39.5t-46 -34q-44 -14 -71.5 19.5t-34.5 85.5q-4 64 41 100.5t110 30.5q23 67 25 154l-33 -15q-16 -7 -35.5 -12t-37.5 -4t-22 13q-5 17 19.5 39.5
t52.5 34.5l54 24q-2 28 -9.5 108.5t-9.5 125.5q-7 111 17 196q12 43 28 67.5t30 20.5q17 -4 21 -82q1 -11 1 -16q2 -94 6 -181q1 -28 3.5 -60.5t6 -72t5.5 -61.5l119 54q15 7 34.5 12t37.5 3.5t22 -13.5q6 -17 -18 -37.5t-53 -35.5l-138 -63q5 -116 -23 -218
q38 -1 95.5 -28.5t107 -59t111 -54.5t108.5 -18q18 1 45.5 15t36.5 9z" />
    <glyph glyph-name="lslash" unicode="&#x142;" horiz-adv-x="207" 
d="M276 401q6 -18 -30 -44t-110 -60q-6 -85 -4.5 -156t20.5 -71q21 3 31.5 16t15.5 23.5t11 10.5q4 0 5.5 -6t0 -17.5t-5.5 -25.5q-7 -26 -35.5 -48t-64.5 -22q-15 0 -27.5 6t-20.5 19.5t-13.5 26t-8 35.5t-4 38.5t-1 43.5t1 41.5t1.5 41.5q-26 -11 -49.5 -18t-42.5 -6.5
t-23 12.5q-11 36 120 96q5 91 15 251t14 229q2 36 12 42q7 2 22.5 -9.5t20.5 -30.5q29 -101 13 -438q125 57 136 20z" />
    <glyph glyph-name="Nacute" unicode="&#x143;" horiz-adv-x="621" 
d="M625 858q11 -6 11 -14t-4 -14t-9 -11t-12.5 -22t-12.5 -42q-8 -40 -9 -118.5t2 -159.5t0 -170.5t-13.5 -157.5t-40 -112.5t-76.5 -44.5q-97 0 -174 114q-19 29 -35 61t-32 74.5t-25 69t-27 86t-26 84.5q-1 -32 -1.5 -94.5t-1.5 -102t-8.5 -93.5t-22.5 -99
q-30 -90 -78 -96q-7 -1 -11.5 1.5t-5.5 8t-1 10t0.5 12.5t0.5 11q6 46 9 85.5t4 90t1.5 80t0 107.5t-0.5 121q0 23 3 46.5t11.5 55.5t29.5 52t52 20q16 0 30 -6t26 -20t20 -24t18 -33.5t13.5 -32t12 -34t9.5 -27.5q8 -25 20.5 -72.5t21 -79.5t24.5 -75.5t32.5 -74t43 -60.5
t57.5 -49q25 69 31 167.5t1 180t1.5 174t33.5 154.5q13 34 43 58.5t64 14.5zM330 904q17 27 56 29q32 2 33 -18q1 -13 -13 -30q-85 -103 -128 -103q-6 0 -7 5.5t2.5 15.5t8.5 20.5t13 24t13.5 22.5t13 20.5t8.5 13.5z" />
    <glyph glyph-name="nacute" unicode="&#x144;" horiz-adv-x="439" 
d="M438 -4q1 -7 -7.5 -12t-24.5 -2q-27 6 -45.5 23.5t-27 37t-12.5 51t-4 52t1 54t1 43.5v13.5v21t-0.5 24.5t-1.5 27.5t-2.5 26.5t-4.5 25.5t-7 19.5t-9.5 13.5t-12.5 3.5q-50 -11 -70 -125q-4 -23 -10 -65.5t-13 -77.5t-17 -67q-23 -72 -72 -85q-39 -10 -60 22.5t-24 76.5
q-1 33 -0.5 49t2 46.5t1.5 46.5q1 30 3.5 64t6 75t5.5 65q2 20 5 26t13 5q11 -2 21 -12q20 -23 29 -62q4 -18 5 -50.5t0 -84t-1 -52.5l6 30q6 30 8 38.5t8 36t11 41.5t13 35.5t16.5 36t18.5 26.5q33 40 81 52q43 9 84 -10q34 -18 49.5 -67.5t14 -97.5t-1.5 -89
q-1 -25 -3.5 -70.5t-2 -63t4.5 -44t15 -47.5q1 -3 6 -11.5t5 -12.5zM231 663q17 27 56 29q32 2 33 -18q1 -13 -13 -30q-85 -103 -128 -103q-6 0 -7 5.5t2.5 15.5t8.5 20.5t13 24t13.5 22.5t13 20.5t8.5 13.5z" />
    <glyph glyph-name="uni0145" unicode="&#x145;" horiz-adv-x="625" 
d="M257 -78q5 0 6.5 -7.5t-1.5 -20t-10 -25.5q35 -5 52.5 -29.5t17.5 -50.5q0 -27 -23 -48.5t-69 -21.5q-39 0 -60 22t-12 39q9 8 16.5 5t25.5 -11.5t32 -8.5q39 0 43 24q5 24 -28 38q-22 10 -54 10q-10 0 5 26l2 3q9 16 27 36t30 20zM625 858q11 -6 11 -14t-4 -14t-9 -11
t-12.5 -22t-12.5 -42q-8 -40 -9 -118.5t2 -159.5t0 -170.5t-13.5 -157.5t-40 -112.5t-76.5 -44.5q-97 0 -174 114q-19 29 -35 61t-32 74.5t-25 69t-27 86t-26 84.5q-1 -32 -1.5 -94.5t-1.5 -102t-8.5 -93.5t-22.5 -99q-30 -90 -78 -96q-7 -1 -11.5 1.5t-5.5 8t-1 10
t0.5 12.5t0.5 11q6 46 9 85.5t4 90t1.5 80t0 107.5t-0.5 121q0 23 3 46.5t11.5 55.5t29.5 52t52 20q16 0 30 -6t26 -20t20 -24t18 -33.5t13.5 -32t12 -34t9.5 -27.5q8 -25 20.5 -72.5t21 -79.5t24.5 -75.5t32.5 -74t43 -60.5t57.5 -49q25 69 31 167.5t1 180t1.5 174
t33.5 154.5q13 34 43 58.5t64 14.5z" />
    <glyph glyph-name="uni0146" unicode="&#x146;" horiz-adv-x="433" 
d="M257 -78q5 0 6.5 -7.5t-1.5 -20t-10 -25.5q35 -5 52.5 -29.5t17.5 -50.5q0 -27 -23 -48.5t-69 -21.5q-39 0 -60 22t-12 39q9 8 16.5 5t25.5 -11.5t32 -8.5q39 0 43 24q5 24 -28 38q-22 10 -54 10q-10 0 5 26l2 3q9 16 27 36t30 20zM438 -4q1 -7 -7.5 -12t-24.5 -2
q-27 6 -45.5 23.5t-27 37t-12.5 51t-4 52t1 54t1 43.5v13.5v21t-0.5 24.5t-1.5 27.5t-2.5 26.5t-4.5 25.5t-7 19.5t-9.5 13.5t-12.5 3.5q-50 -11 -70 -125q-4 -23 -10 -65.5t-13 -77.5t-17 -67q-23 -72 -72 -85q-39 -10 -60 22.5t-24 76.5q-1 33 -0.5 49t2 46.5t1.5 46.5
q1 30 3.5 64t6 75t5.5 65q2 20 5 26t13 5q11 -2 21 -12q20 -23 29 -62q4 -18 5 -50.5t0 -84t-1 -52.5l6 30q6 30 8 38.5t8 36t11 41.5t13 35.5t16.5 36t18.5 26.5q33 40 81 52q43 9 84 -10q34 -18 49.5 -67.5t14 -97.5t-1.5 -89q-1 -25 -3.5 -70.5t-2 -63t4.5 -44t15 -47.5
q1 -3 6 -11.5t5 -12.5z" />
    <glyph glyph-name="Ncaron" unicode="&#x147;" horiz-adv-x="621" 
d="M625 858q11 -6 11 -14t-4 -14t-9 -11t-12.5 -22t-12.5 -42q-8 -40 -9 -118.5t2 -159.5t0 -170.5t-13.5 -157.5t-40 -112.5t-76.5 -44.5q-97 0 -174 114q-19 29 -35 61t-32 74.5t-25 69t-27 86t-26 84.5q-1 -32 -1.5 -94.5t-1.5 -102t-8.5 -93.5t-22.5 -99
q-30 -90 -78 -96q-7 -1 -11.5 1.5t-5.5 8t-1 10t0.5 12.5t0.5 11q6 46 9 85.5t4 90t1.5 80t0 107.5t-0.5 121q0 23 3 46.5t11.5 55.5t29.5 52t52 20q16 0 30 -6t26 -20t20 -24t18 -33.5t13.5 -32t12 -34t9.5 -27.5q8 -25 20.5 -72.5t21 -79.5t24.5 -75.5t32.5 -74t43 -60.5
t57.5 -49q25 69 31 167.5t1 180t1.5 174t33.5 154.5q13 34 43 58.5t64 14.5zM283 860q-19 26 -27.5 48.5t0.5 33.5q19 13 67 -53q30 -41 33 -44l33 44q48 66 67 53q9 -11 0.5 -33.5t-27.5 -48.5q-3 -4 -11.5 -17.5t-14 -20.5t-14 -16.5t-16.5 -14t-17 -4.5t-17.5 4.5
t-17.5 15t-13.5 16.5t-14 21t-10.5 16z" />
    <glyph glyph-name="ncaron" unicode="&#x148;" horiz-adv-x="439" 
d="M438 -4q1 -7 -7.5 -12t-24.5 -2q-27 6 -45.5 23.5t-27 37t-12.5 51t-4 52t1 54t1 43.5v13.5v21t-0.5 24.5t-1.5 27.5t-2.5 26.5t-4.5 25.5t-7 19.5t-9.5 13.5t-12.5 3.5q-50 -11 -70 -125q-4 -23 -10 -65.5t-13 -77.5t-17 -67q-23 -72 -72 -85q-39 -10 -60 22.5t-24 76.5
q-1 33 -0.5 49t2 46.5t1.5 46.5q1 30 3.5 64t6 75t5.5 65q2 20 5 26t13 5q11 -2 21 -12q20 -23 29 -62q4 -18 5 -50.5t0 -84t-1 -52.5l6 30q6 30 8 38.5t8 36t11 41.5t13 35.5t16.5 36t18.5 26.5q33 40 81 52q43 9 84 -10q34 -18 49.5 -67.5t14 -97.5t-1.5 -89
q-1 -25 -3.5 -70.5t-2 -63t4.5 -44t15 -47.5q1 -3 6 -11.5t5 -12.5zM187 618q-19 26 -27.5 48.5t0.5 33.5q19 13 67 -53q30 -41 33 -44l33 44q48 66 67 53q9 -11 0.5 -33.5t-27.5 -48.5q-3 -4 -11.5 -17.5t-14 -20.5t-14 -16.5t-16.5 -14t-17 -4.5t-17.5 4.5t-17.5 15
t-13.5 16.5t-14 21t-10.5 16z" />
    <glyph glyph-name="Omacron" unicode="&#x14c;" horiz-adv-x="586" 
d="M556 549q10 -52 10.5 -112.5t-9 -124.5t-34 -122.5t-59.5 -104.5t-89.5 -72.5t-121.5 -24.5q-76 2 -131 53.5t-79 122.5t-24 150q0 53 11.5 111.5t36.5 115.5t60.5 99.5t88 62.5t114.5 6q54 37 101.5 14.5t80.5 -71.5t44 -103zM444 288q24 77 30 156t-19 152t-87 94
q16 -17 -14 -22q-6 -1 -22 -2q-23 -3 -34 -5q-49 -10 -84.5 -47t-53 -89.5t-25 -105t-5.5 -103.5q1 -32 7.5 -64.5t20 -67.5t39.5 -57t61 -22q120 -6 186 183zM232 859h146q17 0 52.5 -8.5t35.5 -17.5q0 -10 -29.5 -20t-57.5 -10h-147q-23 0 -58 8t-35 20t32 20t61 8z" />
    <glyph glyph-name="omacron" unicode="&#x14d;" horiz-adv-x="424" 
d="M403 282q10 -68 -6 -135t-64.5 -115t-121.5 -47q-105 0 -157.5 77.5t-40.5 197.5q9 70 41.5 132t86.5 92q25 14 46.5 14.5t25.5 -11.5q12 6 13.5 6.5t19.5 -0.5q118 -23 157 -211zM211 84q52 0 77 50t20.5 112t-27.5 105q-16 29 -23.5 41.5t-21.5 28.5t-32 27
q-5 -7 -22.5 -32.5t-28.5 -43t-20 -37.5q-27 -54 -34 -110t20.5 -98.5t91.5 -42.5zM141 633h146q17 0 52.5 -8.5t35.5 -17.5q0 -10 -29.5 -20t-57.5 -10h-147q-23 0 -58 8t-35 20t32 20t61 8z" />
    <glyph glyph-name="Ohungarumlaut" unicode="&#x150;" horiz-adv-x="586" 
d="M556 549q10 -52 10.5 -112.5t-9 -124.5t-34 -122.5t-59.5 -104.5t-89.5 -72.5t-121.5 -24.5q-76 2 -131 53.5t-79 122.5t-24 150q0 53 11.5 111.5t36.5 115.5t60.5 99.5t88 62.5t114.5 6q54 37 101.5 14.5t80.5 -71.5t44 -103zM444 288q24 77 30 156t-19 152t-87 94
q16 -17 -14 -22q-6 -1 -22 -2q-23 -3 -34 -5q-49 -10 -84.5 -47t-53 -89.5t-25 -105t-5.5 -103.5q1 -32 7.5 -64.5t20 -67.5t39.5 -57t61 -22q120 -6 186 183zM251 883q17 27 56 29q32 2 33 -18q1 -13 -13 -30q-85 -103 -128 -103q-6 0 -7 5.5t2.5 15.5t8.5 20.5t13 24
t13.5 22.5t13 20.5t8.5 13.5zM396 883q17 27 56 29q32 2 33 -18q1 -13 -13 -30q-85 -103 -128 -103q-6 0 -7 5.5t2.5 15.5t8.5 20.5t13 24t13.5 22.5t13 20.5t8.5 13.5z" />
    <glyph glyph-name="ohungarumlaut" unicode="&#x151;" horiz-adv-x="424" 
d="M403 282q10 -68 -6 -135t-64.5 -115t-121.5 -47q-105 0 -157.5 77.5t-40.5 197.5q9 70 41.5 132t86.5 92q25 14 46.5 14.5t25.5 -11.5q12 6 13.5 6.5t19.5 -0.5q118 -23 157 -211zM211 84q52 0 77 50t20.5 112t-27.5 105q-16 29 -23.5 41.5t-21.5 28.5t-32 27
q-5 -7 -22.5 -32.5t-28.5 -43t-20 -37.5q-27 -54 -34 -110t20.5 -98.5t91.5 -42.5zM158 663q17 27 56 29q32 2 33 -18q1 -13 -13 -30q-85 -103 -128 -103q-6 0 -7 5.5t2.5 15.5t8.5 20.5t13 24t13.5 22.5t13 20.5t8.5 13.5zM303 663q17 27 56 29q32 2 33 -18q1 -13 -13 -30
q-85 -103 -128 -103q-6 0 -7 5.5t2.5 15.5t8.5 20.5t13 24t13.5 22.5t13 20.5t8.5 13.5z" />
    <glyph glyph-name="OE" unicode="&#x152;" horiz-adv-x="913" 
d="M942 660q3 -7 5.5 -17.5t1 -23t-10.5 -13.5q-5 0 -10 3t-13 9.5t-13 10.5q-71 42 -205 16q-65 -13 -118.5 -49t-53.5 -94q0 -138 303 -138q13 0 18.5 -11t3.5 -27q-2 -17 -11.5 -29.5t-26.5 -19.5t-29.5 -10.5t-36 -7.5t-30.5 -6q-46 -8 -90 -40t-39 -74
q6 -47 57.5 -67.5t121.5 -13.5q37 3 72.5 15.5t45 18.5t22.5 0q9 -11 -7.5 -33.5t-49 -44.5t-64.5 -31q-39 -14 -87.5 -11.5t-92 14t-78.5 43t-46 77.5q-85 -122 -228 -118q-76 2 -131 53.5t-79 122.5t-24 150q0 53 11.5 111.5t36.5 115.5t60.5 99.5t88 62.5t114.5 6
q85 60 168 -38q76 64 182 77q78 10 152 -9t110 -79zM258 105q42 0 79 24t63.5 64t44 78t30.5 78q-64 66 -60 156q0 61 33 111q-27 55 -80 74q16 -17 -14 -22q-6 -1 -22 -2q-23 -3 -34 -5q-49 -10 -84.5 -47t-53 -89.5t-25 -105t-5.5 -103.5q1 -32 7.5 -64.5t20 -67.5
t39.5 -57t61 -22z" />
    <glyph glyph-name="oe" unicode="&#x153;" horiz-adv-x="667" 
d="M635 115q4 -2 5 -9t-3.5 -20t-15.5 -28q-43 -59 -135 -59q-52 0 -96 52q-51 -67 -139 -66q-105 0 -157.5 77.5t-40.5 197.5q9 70 41.5 132t86.5 92q25 14 46.5 14.5t25.5 -11.5q12 6 13.5 6.5t19.5 -0.5q71 -14 117 -94q55 100 137 100q33 0 54.5 -18t29 -46.5t7.5 -58
t-7 -58.5q-13 -60 -61 -117.5t-107 -71.5q9 -41 54.5 -52.5t78.5 13.5q7 5 19 13.5t17.5 11t9.5 0.5zM251 84q52 0 77 50t20.5 112t-27.5 105q-16 29 -23.5 41.5t-21.5 28.5t-32 27q-5 -7 -22.5 -32.5t-28.5 -43t-20 -37.5q-27 -54 -34 -110t20.5 -98.5t91.5 -42.5zM528 404
q-27 -23 -50 -74t-25 -115q97 72 91 152q-2 30 -13 37q-2 1 -3 0z" />
    <glyph glyph-name="Racute" unicode="&#x154;" horiz-adv-x="488" 
d="M649 -38q7 -11 -22 -31q-38 -24 -87 -23t-99 29t-90.5 72t-72 90.5t-54.5 94.5q-46 -12 -81 -8q-5 -65 -17 -111.5t-44 -84.5q-25 -30 -56 -28q-36 0 -13 38q18 26 28.5 72.5t12.5 71.5t4 81q-30 34 -32.5 81.5t27.5 82.5q-2 18 -14 112q-10 -18 -20 -42.5t-16 -36
t-13 -11.5q-13 0 -19 33q-12 83 58 179q0 79 25 83q8 1 14 -6.5t16 -23.5q96 75 214 63q77 -9 132.5 -56.5t68.5 -122.5q17 -102 -39 -193.5t-154 -141.5q23 -37 29.5 -47t30.5 -47t40 -54t41 -42t50 -39.5t51 -20.5q21 -6 45.5 -6t38.5 -0.5t17 -6.5zM146 273q12 -2 29 0
q-22 33 -30 38q0 -6 0.5 -18.5t0.5 -19.5zM138 412q26 -7 49.5 -25.5t37 -36t36.5 -50.5q71 35 118 101.5t34 142.5q-8 45 -41.5 74.5t-82.5 34.5q-88 7 -178 -64q13 -59 27 -177zM245 910q17 27 56 29q32 2 33 -18q1 -13 -13 -30q-85 -103 -128 -103q-6 0 -7 5.5t2.5 15.5
t8.5 20.5t13 24t13.5 22.5t13 20.5t8.5 13.5z" />
    <glyph glyph-name="racute" unicode="&#x155;" horiz-adv-x="348" 
d="M343 372q12 -12 12 -22q0 -19 -28 -20.5t-41 6.5q-17 7 -32 19.5t-32 30t-28 26.5q-7 -27 -10.5 -61.5t-3.5 -59t1 -67t1 -61.5q-5 -87 -15 -116q-20 -65 -72 -53q-11 2 -20 6.5t-16 13t-12.5 15.5t-10 20t-7 20.5t-5 23.5t-3.5 22.5t-3 23.5t-3 21q-19 258 37 258
q28 0 41 -90q0 124 47 166q20 15 57 15q31 -4 55.5 -25t52.5 -61t38 -51zM152 663q17 27 56 29q32 2 33 -18q1 -13 -13 -30q-85 -103 -128 -103q-6 0 -7 5.5t2.5 15.5t8.5 20.5t13 24t13.5 22.5t13 20.5t8.5 13.5z" />
    <glyph glyph-name="Sacute" unicode="&#x15a;" horiz-adv-x="465" 
d="M453 195q0 -87 -81 -140t-195 -53q-72 0 -119.5 50.5t-53.5 127.5q0 42 15 43q6 1 12.5 -7t15.5 -25q49 -98 128 -98q67 0 125 29t58 84q0 48 -47 74q-22 8 -62.5 19t-69 20.5t-60.5 25t-55 41t-35 60.5q-39 109 34.5 191.5t200.5 82.5q74 0 136 -49.5t62 -121.5
q0 -20 -5 -31.5t-12 -11.5q-6 0 -12.5 10t-13 23.5t-20.5 30.5t-32 29q-39 30 -97 30q-65 0 -117.5 -43.5t-33.5 -107.5q14 -35 49.5 -57t73 -30.5t84 -25t74.5 -39.5q53 -45 53 -131zM240 906q17 27 56 29q32 2 33 -18q1 -13 -13 -30q-85 -103 -128 -103q-6 0 -7 5.5
t2.5 15.5t8.5 20.5t13 24t13.5 22.5t13 20.5t8.5 13.5z" />
    <glyph glyph-name="sacute" unicode="&#x15b;" horiz-adv-x="347" 
d="M-5 308q-14 60 19.5 112t93.5 74t118 3q45 -15 71.5 -53.5t26.5 -76.5q0 -13 -6 -20t-13 -6t-21.5 16.5t-36.5 32.5t-45 20q-34 6 -66 -6.5t-46 -43.5q-14 -34 17 -54.5t86.5 -35.5t70.5 -25q34 -21 50.5 -59.5t7.5 -77.5q-9 -37 -40 -64.5t-72 -39.5q-42 -10 -85 -5.5
t-71.5 26t-18.5 49.5q2 7 23.5 1.5t50 -12t62.5 3.5q54 17 59 68q2 17 -17 28.5t-42 16.5q-37 9 -58.5 16t-49 21.5t-44 37t-24.5 53.5zM152 663q17 27 56 29q32 2 33 -18q1 -13 -13 -30q-85 -103 -128 -103q-6 0 -7 5.5t2.5 15.5t8.5 20.5t13 24t13.5 22.5t13 20.5
t8.5 13.5z" />
    <glyph glyph-name="uni015E" unicode="&#x15e;" horiz-adv-x="465" 
d="M257 -78q5 0 6.5 -7.5t-1.5 -20t-10 -25.5q35 -5 52.5 -29.5t17.5 -50.5q0 -27 -23 -48.5t-69 -21.5q-39 0 -60 22t-12 39q9 8 16.5 5t25.5 -11.5t32 -8.5q39 0 43 24q5 24 -28 38q-22 10 -54 10q-10 0 5 26l2 3q9 16 27 36t30 20zM453 195q0 -87 -81 -140t-195 -53
q-72 0 -119.5 50.5t-53.5 127.5q0 42 15 43q6 1 12.5 -7t15.5 -25q49 -98 128 -98q67 0 125 29t58 84q0 48 -47 74q-22 8 -62.5 19t-69 20.5t-60.5 25t-55 41t-35 60.5q-39 109 34.5 191.5t200.5 82.5q74 0 136 -49.5t62 -121.5q0 -20 -5 -31.5t-12 -11.5q-6 0 -12.5 10
t-13 23.5t-20.5 30.5t-32 29q-39 30 -97 30q-65 0 -117.5 -43.5t-33.5 -107.5q14 -35 49.5 -57t73 -30.5t84 -25t74.5 -39.5q53 -45 53 -131z" />
    <glyph glyph-name="uni015F" unicode="&#x15f;" horiz-adv-x="348" 
d="M187 -78q5 0 6.5 -7.5t-1.5 -20t-10 -25.5q35 -5 52.5 -29.5t17.5 -50.5q0 -27 -23 -48.5t-69 -21.5q-39 0 -60 22t-12 39q9 8 16.5 5t25.5 -11.5t32 -8.5q39 0 43 24q5 24 -28 38q-22 10 -54 10q-10 0 5 26l2 3q9 16 27 36t30 20zM-5 308q-14 60 19.5 112t93.5 74t118 3
q45 -15 71.5 -53.5t26.5 -76.5q0 -13 -6 -20t-13 -6t-21.5 16.5t-36.5 32.5t-45 20q-34 6 -66 -6.5t-46 -43.5q-14 -34 17 -54.5t86.5 -35.5t70.5 -25q34 -21 50.5 -59.5t7.5 -77.5q-9 -37 -40 -64.5t-72 -39.5q-42 -10 -85 -5.5t-71.5 26t-18.5 49.5q2 7 23.5 1.5t50 -12
t62.5 3.5q54 17 59 68q2 17 -17 28.5t-42 16.5q-37 9 -58.5 16t-49 21.5t-44 37t-24.5 53.5z" />
    <glyph glyph-name="Scaron" unicode="&#x160;" horiz-adv-x="465" 
d="M453 195q0 -87 -81 -140t-195 -53q-72 0 -119.5 50.5t-53.5 127.5q0 42 15 43q6 1 12.5 -7t15.5 -25q49 -98 128 -98q67 0 125 29t58 84q0 48 -47 74q-22 8 -62.5 19t-69 20.5t-60.5 25t-55 41t-35 60.5q-39 109 34.5 191.5t200.5 82.5q74 0 136 -49.5t62 -121.5
q0 -20 -5 -31.5t-12 -11.5q-6 0 -12.5 10t-13 23.5t-20.5 30.5t-32 29q-39 30 -97 30q-65 0 -117.5 -43.5t-33.5 -107.5q14 -35 49.5 -57t73 -30.5t84 -25t74.5 -39.5q53 -45 53 -131zM159 808q-19 26 -27.5 48.5t0.5 33.5q19 13 67 -53q30 -41 33 -44l33 44q48 66 67 53
q9 -11 0.5 -33.5t-27.5 -48.5q-3 -4 -11.5 -17.5t-14 -20.5t-14 -16.5t-16.5 -14t-17 -4.5t-17.5 4.5t-17.5 15t-13.5 16.5t-14 21t-10.5 16z" />
    <glyph glyph-name="scaron" unicode="&#x161;" horiz-adv-x="347" 
d="M-5 308q-14 60 19.5 112t93.5 74t118 3q45 -15 71.5 -53.5t26.5 -76.5q0 -13 -6 -20t-13 -6t-21.5 16.5t-36.5 32.5t-45 20q-34 6 -66 -6.5t-46 -43.5q-14 -34 17 -54.5t86.5 -35.5t70.5 -25q34 -21 50.5 -59.5t7.5 -77.5q-9 -37 -40 -64.5t-72 -39.5q-42 -10 -85 -5.5
t-71.5 26t-18.5 49.5q2 7 23.5 1.5t50 -12t62.5 3.5q54 17 59 68q2 17 -17 28.5t-42 16.5q-37 9 -58.5 16t-49 21.5t-44 37t-24.5 53.5zM100 608q-19 26 -27.5 48.5t0.5 33.5q19 13 67 -53q30 -41 33 -44l33 44q48 66 67 53q9 -11 0.5 -33.5t-27.5 -48.5q-3 -4 -11.5 -17.5
t-14 -20.5t-14 -16.5t-16.5 -14t-17 -4.5t-17.5 4.5t-17.5 15t-13.5 16.5t-14 21t-10.5 16z" />
    <glyph glyph-name="uni0162" unicode="&#x162;" horiz-adv-x="337" 
d="M709 721q6 -13 -26 -36.5t-87 -41.5q-104 -36 -298 -41q7 -82 8 -176.5t-14.5 -200t-45.5 -170.5q-17 -36 -49.5 -72.5t-43.5 -9.5q-3 5 -3.5 14.5t2 23.5t5 24.5t6.5 26t5 18.5q44 175 51 523q-102 4 -207 20q-127 19 -127 43q0 27 130 39q69 4 261.5 5t300.5 13
q102 11 119 7q10 -3 13 -9zM187 -78q5 0 6.5 -7.5t-1.5 -20t-10 -25.5q35 -5 52.5 -29.5t17.5 -50.5q0 -27 -23 -48.5t-69 -21.5q-39 0 -60 22t-12 39q9 8 16.5 5t25.5 -11.5t32 -8.5q39 0 43 24q5 24 -28 38q-22 10 -54 10q-10 0 5 26l2 3q9 16 27 36t30 20z" />
    <glyph glyph-name="uni0163" unicode="&#x163;" horiz-adv-x="259" 
d="M167 -78q5 0 6.5 -7.5t-1.5 -20t-10 -25.5q35 -5 52.5 -29.5t17.5 -50.5q0 -27 -23 -48.5t-69 -21.5q-39 0 -60 22t-12 39q9 8 16.5 5t25.5 -11.5t32 -8.5q39 0 43 24q5 24 -28 38q-22 10 -54 10q-10 0 5 26l2 3q9 16 27 36t30 20zM162 423q-10 -50 -15 -180
q-7 -193 32 -180q2 0 3 1q7 3 26.5 26.5t25.5 23.5q17 -6 11 -44q-6 -36 -33.5 -60t-64.5 -18q-26 5 -44.5 24.5t-27.5 51.5t-14 65.5t-4.5 76t2 73.5t4.5 68.5t4 50.5q-24 -4 -41.5 9t-13.5 33q1 11 8.5 19.5t13.5 12.5t23.5 11.5t22.5 10.5q2 14 7.5 57t10.5 72.5t12 57.5
q6 38 16 39q6 2 13.5 -7.5t13.5 -27.5q20 -61 14 -170q38 7 62 6q60 -5 60 -31q-1 -19 -48 -40q-39 -18 -79 -31z" />
    <glyph glyph-name="Tcaron" unicode="&#x164;" horiz-adv-x="326" 
d="M709 721q6 -13 -26 -36.5t-87 -41.5q-104 -36 -298 -41q7 -82 8 -176.5t-14.5 -200t-45.5 -170.5q-17 -36 -49.5 -72.5t-43.5 -9.5q-3 5 -3.5 14.5t2 23.5t5 24.5t6.5 26t5 18.5q44 175 51 523q-102 4 -207 20q-127 19 -127 43q0 27 130 39q69 4 261.5 5t300.5 13
q102 11 119 7q10 -3 13 -9zM182 864q-19 26 -27.5 48.5t0.5 33.5q19 13 67 -53q30 -41 33 -44l33 44q48 66 67 53q9 -11 0.5 -33.5t-27.5 -48.5q-3 -4 -11.5 -17.5t-14 -20.5t-14 -16.5t-16.5 -14t-17 -4.5t-17.5 4.5t-17.5 15t-13.5 16.5t-14 21t-10.5 16z" />
    <glyph glyph-name="tcaron" unicode="&#x165;" horiz-adv-x="400" 
d="M162 423q-10 -50 -15 -180q-7 -193 32 -180q2 0 3 1q7 3 26.5 26.5t25.5 23.5q17 -6 11 -44q-6 -36 -33.5 -60t-64.5 -18q-26 5 -44.5 24.5t-27.5 51.5t-14 65.5t-4.5 76t2 73.5t4.5 68.5t4 50.5q-24 -4 -41.5 9t-13.5 33q1 11 8.5 19.5t13.5 12.5t23.5 11.5t22.5 10.5
q2 14 7.5 57t10.5 72.5t12 57.5q6 38 16 39q6 2 13.5 -7.5t13.5 -27.5q20 -61 14 -170q38 7 62 6q60 -5 60 -31q-1 -19 -48 -40q-39 -18 -79 -31zM388 701q5 17 28.5 18.5t28.5 -16.5q13 -47 -7.5 -105t-63.5 -81q-41 -23 -49 1q-7 13 12 46q30 48 51 137z" />
    <glyph glyph-name="Umacron" unicode="&#x16a;" horiz-adv-x="520" 
d="M265 119q87 0 118 178q8 49 15 185.5t27 210.5q4 16 18.5 40.5t26.5 19.5q4 -3 5 -10t1.5 -25.5t1.5 -31.5q1 -30 5.5 -93t7.5 -109.5t2 -111.5t-7 -112.5t-23 -99t-43.5 -84t-71 -53.5t-103.5 -21q-58 0 -101 26t-66.5 68t-36.5 99.5t-14.5 116.5t4 123.5t14 116
t19.5 97.5q10 33 18.5 48.5t15.5 14.5q13 -1 18 -69q1 -18 4 -161.5t17 -225.5q12 -67 38 -102t90 -35zM197 856h146q17 0 52.5 -8.5t35.5 -17.5q0 -10 -29.5 -20t-57.5 -10h-147q-23 0 -58 8t-35 20t32 20t61 8z" />
    <glyph glyph-name="umacron" unicode="&#x16b;" horiz-adv-x="447" 
d="M388 480q6 -7 11 -17t7.5 -17.5t4.5 -22.5t2.5 -20t2 -23.5t1.5 -20.5q0 -35 -1.5 -127t-1 -147t4.5 -71q6 -9 -7 -14q-12 -4 -29 4q-44 24 -44 187q-11 -85 -49.5 -137.5t-117.5 -67.5q-42 -8 -73 11.5t-46.5 53t-24 80.5t-9.5 83.5t0 73.5q5 86 27 145q4 12 11 26
t20.5 28t24.5 8q10 -6 12.5 -22.5t2.5 -53.5q0 -60 -5 -135q-2 -20 -2 -47.5t2 -67t14 -65.5t32 -26q28 3 50 32.5t35.5 76t21.5 88.5t14.5 90.5t9.5 62.5q4 41 33.5 60.5t65.5 -8.5zM153 633h146q17 0 52.5 -8.5t35.5 -17.5q0 -10 -29.5 -20t-57.5 -10h-147q-23 0 -58 8
t-35 20t32 20t61 8z" />
    <glyph glyph-name="Ubreve" unicode="&#x16c;" horiz-adv-x="520" 
d="M265 119q87 0 118 178q8 49 15 185.5t27 210.5q4 16 18.5 40.5t26.5 19.5q4 -3 5 -10t1.5 -25.5t1.5 -31.5q1 -30 5.5 -93t7.5 -109.5t2 -111.5t-7 -112.5t-23 -99t-43.5 -84t-71 -53.5t-103.5 -21q-58 0 -101 26t-66.5 68t-36.5 99.5t-14.5 116.5t4 123.5t14 116
t19.5 97.5q10 33 18.5 48.5t15.5 14.5q13 -1 18 -69q1 -18 4 -161.5t17 -225.5q12 -67 38 -102t90 -35zM259 750q-42 0 -76.5 26.5t-40.5 68.5q-1 14 3.5 23t10.5 8q8 0 21 -22q30 -54 82 -58q47 0 83 58q13 22 21 22q6 1 10.5 -8t3.5 -23q-4 -41 -38.5 -67t-79.5 -28z" />
    <glyph glyph-name="ubreve" unicode="&#x16d;" horiz-adv-x="447" 
d="M388 480q6 -7 11 -17t7.5 -17.5t4.5 -22.5t2.5 -20t2 -23.5t1.5 -20.5q0 -35 -1.5 -127t-1 -147t4.5 -71q6 -9 -7 -14q-12 -4 -29 4q-44 24 -44 187q-11 -85 -49.5 -137.5t-117.5 -67.5q-42 -8 -73 11.5t-46.5 53t-24 80.5t-9.5 83.5t0 73.5q5 86 27 145q4 12 11 26
t20.5 28t24.5 8q10 -6 12.5 -22.5t2.5 -53.5q0 -60 -5 -135q-2 -20 -2 -47.5t2 -67t14 -65.5t32 -26q28 3 50 32.5t35.5 76t21.5 88.5t14.5 90.5t9.5 62.5q4 41 33.5 60.5t65.5 -8.5zM223 550q-42 0 -76.5 26.5t-40.5 68.5q-1 14 3.5 23t10.5 8q8 0 21 -22q30 -54 82 -58
q47 0 83 58q13 22 21 22q6 1 10.5 -8t3.5 -23q-4 -41 -38.5 -67t-79.5 -28z" />
    <glyph glyph-name="Uring" unicode="&#x16e;" horiz-adv-x="520" 
d="M265 119q87 0 118 178q8 49 15 185.5t27 210.5q4 16 18.5 40.5t26.5 19.5q4 -3 5 -10t1.5 -25.5t1.5 -31.5q1 -30 5.5 -93t7.5 -109.5t2 -111.5t-7 -112.5t-23 -99t-43.5 -84t-71 -53.5t-103.5 -21q-58 0 -101 26t-66.5 68t-36.5 99.5t-14.5 116.5t4 123.5t14 116
t19.5 97.5q10 33 18.5 48.5t15.5 14.5q13 -1 18 -69q1 -18 4 -161.5t17 -225.5q12 -67 38 -102t90 -35zM158 825q0 25 14.5 47t38.5 33q13 5 24.5 5.5t17.5 -2t5 -6.5q0 -3 -4 -6t-13 -7.5t-15 -9.5q-30 -21 -30 -54q0 -24 18.5 -41t43.5 -17t44 17t19 41q0 33 -30 54
q-6 5 -15 9.5t-13.5 7.5t-4.5 6q0 4 6 6.5t17 2t24 -5.5q49 -18 54 -80q2 -39 -29 -66.5t-72 -29.5q-40 0 -70 27.5t-30 68.5z" />
    <glyph glyph-name="uring" unicode="&#x16f;" horiz-adv-x="447" 
d="M388 480q6 -7 11 -17t7.5 -17.5t4.5 -22.5t2.5 -20t2 -23.5t1.5 -20.5q0 -35 -1.5 -127t-1 -147t4.5 -71q6 -9 -7 -14q-12 -4 -29 4q-44 24 -44 187q-11 -85 -49.5 -137.5t-117.5 -67.5q-42 -8 -73 11.5t-46.5 53t-24 80.5t-9.5 83.5t0 73.5q5 86 27 145q4 12 11 26
t20.5 28t24.5 8q10 -6 12.5 -22.5t2.5 -53.5q0 -60 -5 -135q-2 -20 -2 -47.5t2 -67t14 -65.5t32 -26q28 3 50 32.5t35.5 76t21.5 88.5t14.5 90.5t9.5 62.5q4 41 33.5 60.5t65.5 -8.5zM121 625q0 25 14.5 47t38.5 33q13 5 24.5 5.5t17.5 -2t5 -6.5q0 -3 -4 -6t-13 -7.5
t-15 -9.5q-30 -21 -30 -54q0 -24 18.5 -41t43.5 -17t44 17t19 41q0 33 -30 54q-6 5 -15 9.5t-13.5 7.5t-4.5 6q0 4 6 6.5t17 2t24 -5.5q49 -18 54 -80q2 -39 -29 -66.5t-72 -29.5q-40 0 -70 27.5t-30 68.5z" />
    <glyph glyph-name="Uhungarumlaut" unicode="&#x170;" horiz-adv-x="520" 
d="M265 119q87 0 118 178q8 49 15 185.5t27 210.5q4 16 18.5 40.5t26.5 19.5q4 -3 5 -10t1.5 -25.5t1.5 -31.5q1 -30 5.5 -93t7.5 -109.5t2 -111.5t-7 -112.5t-23 -99t-43.5 -84t-71 -53.5t-103.5 -21q-58 0 -101 26t-66.5 68t-36.5 99.5t-14.5 116.5t4 123.5t14 116
t19.5 97.5q10 33 18.5 48.5t15.5 14.5q13 -1 18 -69q1 -18 4 -161.5t17 -225.5q12 -67 38 -102t90 -35zM190 863q17 27 56 29q32 2 33 -18q1 -13 -13 -30q-85 -103 -128 -103q-6 0 -7 5.5t2.5 15.5t8.5 20.5t13 24t13.5 22.5t13 20.5t8.5 13.5zM335 863q17 27 56 29
q32 2 33 -18q1 -13 -13 -30q-85 -103 -128 -103q-6 0 -7 5.5t2.5 15.5t8.5 20.5t13 24t13.5 22.5t13 20.5t8.5 13.5z" />
    <glyph glyph-name="uhungarumlaut" unicode="&#x171;" horiz-adv-x="447" 
d="M388 480q6 -7 11 -17t7.5 -17.5t4.5 -22.5t2.5 -20t2 -23.5t1.5 -20.5q0 -35 -1.5 -127t-1 -147t4.5 -71q6 -9 -7 -14q-12 -4 -29 4q-44 24 -44 187q-11 -85 -49.5 -137.5t-117.5 -67.5q-42 -8 -73 11.5t-46.5 53t-24 80.5t-9.5 83.5t0 73.5q5 86 27 145q4 12 11 26
t20.5 28t24.5 8q10 -6 12.5 -22.5t2.5 -53.5q0 -60 -5 -135q-2 -20 -2 -47.5t2 -67t14 -65.5t32 -26q28 3 50 32.5t35.5 76t21.5 88.5t14.5 90.5t9.5 62.5q4 41 33.5 60.5t65.5 -8.5zM147 663q17 27 56 29q32 2 33 -18q1 -13 -13 -30q-85 -103 -128 -103q-6 0 -7 5.5
t2.5 15.5t8.5 20.5t13 24t13.5 22.5t13 20.5t8.5 13.5zM292 663q17 27 56 29q32 2 33 -18q1 -13 -13 -30q-85 -103 -128 -103q-6 0 -7 5.5t2.5 15.5t8.5 20.5t13 24t13.5 22.5t13 20.5t8.5 13.5z" />
    <glyph glyph-name="Uogonek" unicode="&#x172;" horiz-adv-x="520" 
d="M265 119q87 0 118 178q8 49 15 185.5t27 210.5q4 16 18.5 40.5t26.5 19.5q4 -3 5 -10t1.5 -25.5t1.5 -31.5q1 -30 5.5 -93t7.5 -109.5t2 -111.5t-7 -112.5t-23 -99t-43.5 -84t-71 -53.5t-103.5 -21q-58 0 -101 26t-66.5 68t-36.5 99.5t-14.5 116.5t4 123.5t14 116
t19.5 97.5q10 33 18.5 48.5t15.5 14.5q13 -1 18 -69q1 -18 4 -161.5t17 -225.5q12 -67 38 -102t90 -35zM269 0q23 -6 -4 -53q-20 -33 -17 -54.5t15.5 -31.5t28.5 -10q9 0 26 6t27.5 5t16.5 -15q9 -22 -22 -39.5t-74 -17.5q-41 0 -65.5 31.5t-14.5 71.5t37.5 76.5t45.5 30.5z
" />
    <glyph glyph-name="uogonek" unicode="&#x173;" horiz-adv-x="447" 
d="M388 480q6 -7 11 -17t7.5 -17.5t4.5 -22.5t2.5 -20t2 -23.5t1.5 -20.5q0 -35 -1.5 -127t-1 -147t4.5 -71q6 -9 -7 -14q-12 -4 -29 4q-44 24 -44 187q-11 -85 -49.5 -137.5t-117.5 -67.5q-42 -8 -73 11.5t-46.5 53t-24 80.5t-9.5 83.5t0 73.5q5 86 27 145q4 12 11 26
t20.5 28t24.5 8q10 -6 12.5 -22.5t2.5 -53.5q0 -60 -5 -135q-2 -20 -2 -47.5t2 -67t14 -65.5t32 -26q28 3 50 32.5t35.5 76t21.5 88.5t14.5 90.5t9.5 62.5q4 41 33.5 60.5t65.5 -8.5zM403 -3q23 -6 -4 -53q-20 -33 -17 -54.5t15.5 -31.5t28.5 -10q9 0 26 6t27.5 5t16.5 -15
q9 -22 -22 -39.5t-74 -17.5q-41 0 -65.5 31.5t-14.5 71.5t37.5 76.5t45.5 30.5z" />
    <glyph glyph-name="Ydieresis" unicode="&#x178;" horiz-adv-x="644" 
d="M608 277q-5 -29 -9 -81.5t-8 -95.5t-13 -97t-27 -98.5t-46 -86t-74.5 -72t-108.5 -46.5q-42 -10 -72.5 -6.5t-48 14t-17.5 21.5q0 5 5 10t16.5 9.5l23 9t31 12t35.5 13.5q78 25 132.5 112t60.5 211q-25 -44 -80 -73.5t-120 -29.5q-133 0 -207 80t-53 217
q25 171 70.5 285.5t79.5 114.5q7 0 11 -6.5t5.5 -19.5t1 -29t-3 -40.5t-5.5 -47t-8 -55.5t-9.5 -59.5t-11 -65t-10.5 -66.5q-18 -107 29.5 -154.5t124.5 -47.5q81 0 132 82.5t57 206.5q0 5 1 29t2 39t3.5 42t6 45.5t9 43t13.5 40.5t18.5 31t25 22.5t31.5 7.5q21 0 29 -42
t5 -110t-10 -134t-17 -135zM302 875q20 2 33.5 -16.5t11.5 -39.5q-2 -24 -26 -35.5t-48 -1.5q-21 10 -24 32q-2 20 15.5 39.5t37.5 21.5zM477 875q20 2 33.5 -16.5t11.5 -39.5q-2 -24 -26 -35.5t-48 -1.5q-21 10 -24 32q-2 20 15.5 39.5t37.5 21.5z" />
    <glyph glyph-name="Zacute" unicode="&#x179;" horiz-adv-x="766" 
d="M843 31q3 -5 1 -12t-13 -18.5t-27 -20.5q-139 -84 -537 -5q-151 28 -209 55q-31 18 -41 53q-4 23 5.5 44.5t26 37t42.5 31t47 25.5t49 22.5t40 18.5q11 5 60 28.5t66 32t58 29.5t64.5 36t55 37t58.5 44q80 73 66 127q-12 34 -75 32q-37 -1 -104 -11t-120 -17.5t-111 -7
t-92 16.5q-18 8 -29.5 17.5t-15.5 17t0 11.5q3 5 9 6.5t22.5 1t24.5 -0.5q68 2 205 40t205 42q63 3 114.5 -23t76 -78.5t3.5 -119.5q-16 -56 -62 -107.5t-114.5 -94t-132.5 -75t-144.5 -71t-122.5 -62.5q263 -61 381 -75q123 -15 213 -6q5 1 12.5 1.5t11.5 1t9 1t8 0.5
t6.5 -0.5t5.5 -1.5t4 -3zM445 891q17 27 56 29q32 2 33 -18q1 -13 -13 -30q-85 -103 -128 -103q-6 0 -7 5.5t2.5 15.5t8.5 20.5t13 24t13.5 22.5t13 20.5t8.5 13.5z" />
    <glyph glyph-name="zacute" unicode="&#x17a;" horiz-adv-x="408" 
d="M407 60q0 -29 -94.5 -57.5t-163.5 -28.5q-136 0 -163 61q-21 53 28 96q2 2 98 71.5t150.5 121t31.5 65.5q-31 18 -121.5 18.5t-111.5 4.5q-62 9 -62 34q0 24 59 39q85 19 163 14q31 -2 56.5 -7t54.5 -17t45 -35t14 -56q-1 -46 -37.5 -94t-78.5 -80.5t-102 -74.5t-84 -63
q29 -9 82.5 -12t89.5 1q22 1 47 5t41 7t30.5 4t21 -3t6.5 -14zM182 663q17 27 56 29q32 2 33 -18q1 -13 -13 -30q-85 -103 -128 -103q-6 0 -7 5.5t2.5 15.5t8.5 20.5t13 24t13.5 22.5t13 20.5t8.5 13.5z" />
    <glyph glyph-name="Zdotaccent" unicode="&#x17b;" horiz-adv-x="766" 
d="M843 31q3 -5 1 -12t-13 -18.5t-27 -20.5q-139 -84 -537 -5q-151 28 -209 55q-31 18 -41 53q-4 23 5.5 44.5t26 37t42.5 31t47 25.5t49 22.5t40 18.5q11 5 60 28.5t66 32t58 29.5t64.5 36t55 37t58.5 44q80 73 66 127q-12 34 -75 32q-37 -1 -104 -11t-120 -17.5t-111 -7
t-92 16.5q-18 8 -29.5 17.5t-15.5 17t0 11.5q3 5 9 6.5t22.5 1t24.5 -0.5q68 2 205 40t205 42q63 3 114.5 -23t76 -78.5t3.5 -119.5q-16 -56 -62 -107.5t-114.5 -94t-132.5 -75t-144.5 -71t-122.5 -62.5q263 -61 381 -75q123 -15 213 -6q5 1 12.5 1.5t11.5 1t9 1t8 0.5
t6.5 -0.5t5.5 -1.5t4 -3zM456 890q20 2 33.5 -16.5t11.5 -39.5q-2 -24 -26 -35.5t-48 -1.5q-21 10 -24 32q-2 20 15.5 39.5t37.5 21.5z" />
    <glyph glyph-name="zdotaccent" unicode="&#x17c;" horiz-adv-x="408" 
d="M407 60q0 -29 -94.5 -57.5t-163.5 -28.5q-136 0 -163 61q-21 53 28 96q2 2 98 71.5t150.5 121t31.5 65.5q-31 18 -121.5 18.5t-111.5 4.5q-62 9 -62 34q0 24 59 39q85 19 163 14q31 -2 56.5 -7t54.5 -17t45 -35t14 -56q-1 -46 -37.5 -94t-78.5 -80.5t-102 -74.5t-84 -63
q29 -9 82.5 -12t89.5 1q22 1 47 5t41 7t30.5 4t21 -3t6.5 -14zM207 640q20 2 33.5 -16.5t11.5 -39.5q-2 -24 -26 -35.5t-48 -1.5q-21 10 -24 32q-2 20 15.5 39.5t37.5 21.5z" />
    <glyph glyph-name="Zcaron" unicode="&#x17d;" horiz-adv-x="766" 
d="M843 31q3 -5 1 -12t-13 -18.5t-27 -20.5q-139 -84 -537 -5q-151 28 -209 55q-31 18 -41 53q-4 23 5.5 44.5t26 37t42.5 31t47 25.5t49 22.5t40 18.5q11 5 60 28.5t66 32t58 29.5t64.5 36t55 37t58.5 44q80 73 66 127q-12 34 -75 32q-37 -1 -104 -11t-120 -17.5t-111 -7
t-92 16.5q-18 8 -29.5 17.5t-15.5 17t0 11.5q3 5 9 6.5t22.5 1t24.5 -0.5q68 2 205 40t205 42q63 3 114.5 -23t76 -78.5t3.5 -119.5q-16 -56 -62 -107.5t-114.5 -94t-132.5 -75t-144.5 -71t-122.5 -62.5q263 -61 381 -75q123 -15 213 -6q5 1 12.5 1.5t11.5 1t9 1t8 0.5
t6.5 -0.5t5.5 -1.5t4 -3zM387 858q-19 26 -27.5 48.5t0.5 33.5q19 13 67 -53q30 -41 33 -44l33 44q48 66 67 53q9 -11 0.5 -33.5t-27.5 -48.5q-3 -4 -11.5 -17.5t-14 -20.5t-14 -16.5t-16.5 -14t-17 -4.5t-17.5 4.5t-17.5 15t-13.5 16.5t-14 21t-10.5 16z" />
    <glyph glyph-name="zcaron" unicode="&#x17e;" horiz-adv-x="408" 
d="M407 60q0 -29 -94.5 -57.5t-163.5 -28.5q-136 0 -163 61q-21 53 28 96q2 2 98 71.5t150.5 121t31.5 65.5q-31 18 -121.5 18.5t-111.5 4.5q-62 9 -62 34q0 24 59 39q85 19 163 14q31 -2 56.5 -7t54.5 -17t45 -35t14 -56q-1 -46 -37.5 -94t-78.5 -80.5t-102 -74.5t-84 -63
q29 -9 82.5 -12t89.5 1q22 1 47 5t41 7t30.5 4t21 -3t6.5 -14zM131 608q-19 26 -27.5 48.5t0.5 33.5q19 13 67 -53q30 -41 33 -44l33 44q48 66 67 53q9 -11 0.5 -33.5t-27.5 -48.5q-3 -4 -11.5 -17.5t-14 -20.5t-14 -16.5t-16.5 -14t-17 -4.5t-17.5 4.5t-17.5 15t-13.5 16.5
t-14 21t-10.5 16z" />
    <glyph glyph-name="florin" unicode="&#x192;" horiz-adv-x="621" 
d="M372 464q-4 -15 -17 -95q116 3 130 -30q10 -21 -34 -41q-43 -19 -108 -19q-5 -38 -16.5 -143.5t-17.5 -143.5q-11 -86 -67.5 -134t-114.5 -48q-60 0 -85 47q-16 30 -3 44q6 7 18 1q33 -16 83.5 3t67.5 64q7 19 12 61t11.5 125t10.5 122q-126 -2 -137 28q-6 19 37 37
q44 19 110 22q8 57 19 99q29 118 85 171.5t120 53.5q54 0 86 -19.5t35 -43.5q0 -9 -19.5 -10t-48.5 -3.5t-60 -12.5t-58.5 -44.5t-38.5 -90.5z" />
    <glyph glyph-name="uni0218" unicode="&#x218;" horiz-adv-x="464" 
d="M453 195q0 -87 -81 -140t-195 -53q-72 0 -119.5 50.5t-53.5 127.5q0 42 15 43q6 1 12.5 -7t15.5 -25q49 -98 128 -98q67 0 125 29t58 84q0 48 -47 74q-22 8 -62.5 19t-69 20.5t-60.5 25t-55 41t-35 60.5q-39 109 34.5 191.5t200.5 82.5q74 0 136 -49.5t62 -121.5
q0 -20 -5 -31.5t-12 -11.5q-6 0 -12.5 10t-13 23.5t-20.5 30.5t-32 29q-39 30 -97 30q-65 0 -117.5 -43.5t-33.5 -107.5q14 -35 49.5 -57t73 -30.5t84 -25t74.5 -39.5q53 -45 53 -131zM251 -69q10 -54 -10 -107.5t-68 -78.5q-19 -10 -34 -9.5t-20 10.5q-5 13 14 46
q3 5 12.5 18.5t12 18t9 17t9.5 22t6.5 25.5t6.5 36q4 17 30.5 18.5t31.5 -16.5z" />
    <glyph glyph-name="uni0219" unicode="&#x219;" horiz-adv-x="343" 
d="M211 -69q10 -54 -10 -107.5t-68 -78.5q-19 -10 -34 -9.5t-20 10.5q-5 13 14 46q3 5 12.5 18.5t12 18t9 17t9.5 22t6.5 25.5t6.5 36q4 17 30.5 18.5t31.5 -16.5zM-5 308q-14 60 19.5 112t93.5 74t118 3q45 -15 71.5 -53.5t26.5 -76.5q0 -13 -6 -20t-13 -6t-21.5 16.5
t-36.5 32.5t-45 20q-34 6 -66 -6.5t-46 -43.5q-14 -34 17 -54.5t86.5 -35.5t70.5 -25q34 -21 50.5 -59.5t7.5 -77.5q-9 -37 -40 -64.5t-72 -39.5q-42 -10 -85 -5.5t-71.5 26t-18.5 49.5q2 7 23.5 1.5t50 -12t62.5 3.5q54 17 59 68q2 17 -17 28.5t-42 16.5q-37 9 -58.5 16
t-49 21.5t-44 37t-24.5 53.5z" />
    <glyph glyph-name="uni021A" unicode="&#x21a;" horiz-adv-x="326" 
d="M221 -69q10 -54 -10 -107.5t-68 -78.5q-19 -10 -34 -9.5t-20 10.5q-5 13 14 46q3 5 12.5 18.5t12 18t9 17t9.5 22t6.5 25.5t6.5 36q4 17 30.5 18.5t31.5 -16.5zM709 721q6 -13 -26 -36.5t-87 -41.5q-104 -36 -298 -41q7 -82 8 -176.5t-14.5 -200t-45.5 -170.5
q-17 -36 -49.5 -72.5t-43.5 -9.5q-3 5 -3.5 14.5t2 23.5t5 24.5t6.5 26t5 18.5q44 175 51 523q-102 4 -207 20q-127 19 -127 43q0 27 130 39q69 4 261.5 5t300.5 13q102 11 119 7q10 -3 13 -9z" />
    <glyph glyph-name="uni021B" unicode="&#x21b;" horiz-adv-x="254" 
d="M181 -69q10 -54 -10 -107.5t-68 -78.5q-19 -10 -34 -9.5t-20 10.5q-5 13 14 46q3 5 12.5 18.5t12 18t9 17t9.5 22t6.5 25.5t6.5 36q4 17 30.5 18.5t31.5 -16.5zM162 423q-10 -50 -15 -180q-7 -193 32 -180q2 0 3 1q7 3 26.5 26.5t25.5 23.5q17 -6 11 -44
q-6 -36 -33.5 -60t-64.5 -18q-26 5 -44.5 24.5t-27.5 51.5t-14 65.5t-4.5 76t2 73.5t4.5 68.5t4 50.5q-24 -4 -41.5 9t-13.5 33q1 11 8.5 19.5t13.5 12.5t23.5 11.5t22.5 10.5q2 14 7.5 57t10.5 72.5t12 57.5q6 38 16 39q6 2 13.5 -7.5t13.5 -27.5q20 -61 14 -170q38 7 62 6
q60 -5 60 -31q-1 -19 -48 -40q-39 -18 -79 -31z" />
    <glyph glyph-name="circumflex" unicode="&#x2c6;" horiz-adv-x="293" 
d="M217 619q19 -26 27.5 -48.5t-0.5 -33.5q-19 -13 -67 53q-30 41 -33 44l-33 -44q-48 -66 -67 -53q-9 11 -0.5 33.5t27.5 48.5q2 3 11 17t14.5 20.5t14 16.5t16.5 14.5t17 4.5t17.5 -4.5t17.5 -15t13.5 -16.5t14 -21t10.5 -16z" />
    <glyph glyph-name="caron" unicode="&#x2c7;" horiz-adv-x="293" 
d="M73 608q-19 26 -27.5 48.5t0.5 33.5q19 13 67 -53q30 -41 33 -44l33 44q48 66 67 53q9 -11 0.5 -33.5t-27.5 -48.5q-3 -4 -11.5 -17.5t-14 -20.5t-14 -16.5t-16.5 -14t-17 -4.5t-17.5 4.5t-17.5 15t-13.5 16.5t-14 21t-10.5 16z" />
    <glyph glyph-name="breve" unicode="&#x2d8;" horiz-adv-x="250" 
d="M124 550q-42 0 -76.5 26.5t-40.5 68.5q-1 14 3.5 23t10.5 8q8 0 21 -22q30 -54 82 -58q47 0 83 58q13 22 21 22q6 1 10.5 -8t3.5 -23q-4 -41 -38.5 -67t-79.5 -28z" />
    <glyph glyph-name="dotaccent" unicode="&#x2d9;" horiz-adv-x="150" 
d="M79 640q20 2 33.5 -16.5t11.5 -39.5q-2 -24 -26 -35.5t-48 -1.5q-21 10 -24 32q-2 20 15.5 39.5t37.5 21.5z" />
    <glyph glyph-name="ring" unicode="&#x2da;" horiz-adv-x="263" 
d="M22 625q0 25 14.5 47t38.5 33q13 5 24.5 5.5t17.5 -2t5 -6.5q0 -3 -4 -6t-13 -7.5t-15 -9.5q-30 -21 -30 -54q0 -24 18.5 -41t43.5 -17t44 17t19 41q0 33 -30 54q-6 5 -15 9.5t-13.5 7.5t-4.5 6q0 4 6 6.5t17 2t24 -5.5q49 -18 54 -80q2 -39 -29 -66.5t-72 -29.5
q-40 0 -70 27.5t-30 68.5z" />
    <glyph glyph-name="ogonek" unicode="&#x2db;" horiz-adv-x="245" 
d="M118 4q23 -6 -4 -53q-20 -33 -17 -54.5t15.5 -31.5t28.5 -10q9 0 26 6t27.5 5t16.5 -15q9 -22 -22 -39.5t-74 -17.5q-41 0 -65.5 31.5t-14.5 71.5t37.5 76.5t45.5 30.5z" />
    <glyph glyph-name="tilde" unicode="&#x2dc;" horiz-adv-x="336" 
d="M166 614q23 -14 48 -9t38 26q13 20 20 20q16 -13 1.5 -44t-37.5 -40q-34 -14 -80.5 7.5t-67.5 12.5q-15 -7 -27 -25.5t-18 -18.5q-6 3 -8.5 12.5t1.5 24.5q15 41 53 49.5t77 -15.5z" />
    <glyph glyph-name="hungarumlaut" unicode="&#x2dd;" horiz-adv-x="301" 
d="M97 663q17 27 56 29q32 2 33 -18q1 -13 -13 -30q-85 -103 -128 -103q-6 0 -7 5.5t2.5 15.5t8.5 20.5t13 24t13.5 22.5t13 20.5t8.5 13.5zM242 663q17 27 56 29q32 2 33 -18q1 -13 -13 -30q-85 -103 -128 -103q-6 0 -7 5.5t2.5 15.5t8.5 20.5t13 24t13.5 22.5t13 20.5
t8.5 13.5z" />
    <glyph glyph-name="endash" unicode="&#x2013;" horiz-adv-x="544" 
d="M126 290h285q28 0 57.5 -10t29.5 -29t-29.5 -29t-57.5 -10h-285q-28 0 -57.5 10t-29.5 29t29.5 29t57.5 10z" />
    <glyph glyph-name="emdash" unicode="&#x2014;" horiz-adv-x="1004" 
d="M131 290h746q28 0 57.5 -10t29.5 -29t-29.5 -29t-57.5 -10h-746q-28 0 -57.5 10t-29.5 29t29.5 29t57.5 10z" />
    <glyph glyph-name="quoteleft" unicode="&#x2018;" horiz-adv-x="195" 
d="M89 481q-5 -17 -28.5 -18.5t-28.5 16.5q-13 47 7.5 105.5t63.5 80.5q41 23 49 -1q7 -13 -12 -46q-30 -48 -51 -137z" />
    <glyph glyph-name="quoteright" unicode="&#x2019;" horiz-adv-x="215" 
d="M113 656q5 17 28.5 18.5t28.5 -16.5q13 -47 -7.5 -105t-63.5 -81q-41 -23 -49 1q-7 13 12 46q30 48 51 137z" />
    <glyph glyph-name="quotesinglbase" unicode="&#x201a;" horiz-adv-x="227" 
d="M171 82q10 -54 -10 -107.5t-68 -78.5q-19 -10 -34 -9.5t-20 10.5q-5 13 14 46q3 5 12.5 18.5t12 18t9 17t9.5 22t6.5 25.5t6.5 36q4 17 30.5 18.5t31.5 -16.5z" />
    <glyph glyph-name="quotedblleft" unicode="&#x201c;" horiz-adv-x="327" 
d="M96 481q-5 -17 -28.5 -18.5t-28.5 16.5q-13 47 7.5 105.5t63.5 80.5q41 23 49 -1q7 -13 -12 -46q-30 -48 -51 -137zM227 481q-5 -17 -28.5 -18.5t-28.5 16.5q-13 47 7.5 105.5t63.5 80.5q41 23 49 -1q7 -13 -12 -46q-30 -48 -51 -137z" />
    <glyph glyph-name="quotedblright" unicode="&#x201d;" horiz-adv-x="317" 
d="M86 656q5 17 28.5 18.5t28.5 -16.5q13 -47 -7.5 -105t-63.5 -81q-41 -23 -49 1q-7 13 12 46q30 48 51 137zM221 656q5 17 28.5 18.5t28.5 -16.5q13 -47 -7.5 -105t-63.5 -81q-41 -23 -49 1q-7 13 12 46q30 48 51 137z" />
    <glyph glyph-name="quotedblbase" unicode="&#x201e;" horiz-adv-x="345" 
d="M228 80q5 17 28.5 18.5t28.5 -16.5q13 -47 -7.5 -105t-63.5 -81q-41 -23 -49 1q-7 13 12 46q30 48 51 137zM96 80q5 17 28.5 18.5t28.5 -16.5q13 -47 -7.5 -105t-63.5 -81q-41 -23 -49 1q-7 13 12 46q30 48 51 137z" />
    <glyph glyph-name="dagger" unicode="&#x2020;" horiz-adv-x="252" 
d="M170 435q45 0 78 -10t33 -29t-32.5 -29t-75.5 -10q5 -231 -30 -414q-26 -123 -49 -118q-18 4 -18 127q4 55 5.5 122.5t1.5 151t1 131.5q-46 0 -79.5 9.5t-33.5 29.5t33.5 29.5t80.5 9.5q5 147 21 235q5 17 12 25.5t12 6.5q11 -3 15 -37q19 -115 25 -230z" />
    <glyph glyph-name="daggerdbl" unicode="&#x2021;" horiz-adv-x="252" 
d="M168 144q46 0 79.5 -9.5t33.5 -29.5q0 -39 -120 -39q0 -44 -23 -145t-44 -96q-8 1 -12.5 22t-5 53.5t0.5 63t2.5 62t1.5 40.5q-44 0 -77 10t-33 29t33 29t78 10l2 213q-46 0 -79.5 9.5t-33.5 29.5t33.5 29.5t80.5 9.5q5 147 21 235q5 17 12 25.5t12 6.5q11 -3 15 -37
q19 -115 25 -230q45 0 78 -10t33 -29t-32.5 -29t-75.5 -10q1 -102 -5 -213z" />
    <glyph glyph-name="bullet" unicode="&#x2022;" horiz-adv-x="323" 
d="M162 413q40 2 66.5 -34t22.5 -76q-4 -48 -52 -71.5t-94 -1.5q-42 22 -48 63q-2 41 31 78.5t74 41.5z" />
    <glyph glyph-name="ellipsis" unicode="&#x2026;" horiz-adv-x="588" 
d="M86 97q20 2 33.5 -16.5t11.5 -39.5q-2 -24 -26 -35.5t-48 -1.5q-21 10 -24 32q-2 20 15.5 39.5t37.5 21.5zM282 97q20 2 33.5 -16.5t11.5 -39.5q-2 -24 -26 -35.5t-48 -1.5q-21 10 -24 32q-2 20 15.5 39.5t37.5 21.5zM478 97q20 2 33.5 -16.5t11.5 -39.5
q-2 -24 -26 -35.5t-48 -1.5q-21 10 -24 32q-2 20 15.5 39.5t37.5 21.5z" />
    <glyph glyph-name="perthousand" unicode="&#x2030;" horiz-adv-x="1098" 
d="M311 459q-4 -34 -11.5 -64.5t-24 -64t-47 -53t-71.5 -19.5q-43 0 -71.5 23.5t-37 57.5t-11.5 71.5t4 65.5q5 35 15 66.5t35 63.5t60 38q20 5 36 -2q7 9 24 10q32 3 54 -18t31.5 -54t13 -64.5t1.5 -56.5zM242 464q0 2 1.5 21t2 27t0.5 26.5t-2.5 29t-7 24t-12.5 22.5
t-19 15q1 -3 -4.5 -6t-11 -4t-8.5 -1q-8 -2 -15.5 -6.5t-13 -9t-10.5 -13t-8.5 -14t-7 -17t-5 -17t-4 -19t-3.5 -17.5t-3 -18.5t-2 -16.5q-19 -148 48 -148q72 3 85 142zM635 388q32 3 54 -18t31.5 -54t13 -64.5t1.5 -56.5q-4 -34 -11.5 -64.5t-24 -64t-47 -53t-71.5 -19.5
q-43 0 -71.5 23.5t-37 57.5t-11.5 71.5t4 65.5q5 35 15 66.5t35 63.5t60 38q20 5 36 -2q7 9 24 10zM666 200q0 2 1.5 21t2 27t0.5 26.5t-2.5 29t-7 24t-12.5 22.5t-19 15q1 -3 -4.5 -6t-11 -4t-8.5 -1q-8 -2 -15.5 -6.5t-13 -9t-10.5 -13t-8.5 -14t-7 -17t-5 -17t-4 -19
t-3.5 -17.5t-3 -18.5t-2 -16.5q-19 -148 48 -148q72 3 85 142zM947 388q32 3 54 -18t31.5 -54t13 -64.5t1.5 -56.5q-4 -34 -11.5 -64.5t-24 -64t-47 -53t-71.5 -19.5q-43 0 -71.5 23.5t-37 57.5t-11.5 71.5t4 65.5q5 35 15 66.5t35 63.5t60 38q20 5 36 -2q7 9 24 10z
M978 200q0 2 1.5 21t2 27t0.5 26.5t-2.5 29t-7 24t-12.5 22.5t-19 15q1 -3 -4.5 -6t-11 -4t-8.5 -1q-8 -2 -15.5 -6.5t-13 -9t-10.5 -13t-8.5 -14t-7 -17t-5 -17t-4 -19t-3.5 -17.5t-3 -18.5t-2 -16.5q-19 -148 48 -148q72 3 85 142zM577 681q13 -1 5 -37
q-43 -117 -154 -315t-139 -256q-29 -52 -48.5 -79t-30.5 -25q-8 2 -9 16t5.5 40t20.5 58q56 138 141.5 293t177.5 278q22 28 31 27z" />
    <glyph glyph-name="guilsinglleft" unicode="&#x2039;" horiz-adv-x="230" 
d="M92 245q14 -17 29.5 -38t25.5 -34q63 -82 36 -104q-21 -18 -72 35t-77 95q-20 27 -20 45q0 8 3.5 17.5t6.5 15t10.5 16.5t9.5 15q3 4 10 13.5t12.5 17t14 19t15.5 19.5t16.5 18t16.5 15t15.5 10.5t14 4.5t12.5 -4q12 -15 2 -44.5t-33 -61.5q-44 -63 -48 -70z" />
    <glyph glyph-name="guilsinglright" unicode="&#x203a;" horiz-adv-x="252" 
d="M81 173q1 1 55 72q-4 7 -48 70q-23 29 -33 61.5t2 44.5q7 3 12.5 4t14 -4.5t15.5 -10.5t16.5 -15t16.5 -18t15.5 -19.5t14 -19t12.5 -17t10 -13.5q2 -4 9.5 -15t10.5 -16.5t6.5 -15t3.5 -17.5q0 -18 -20 -45q-89 -119 -126 -133q-15 -5 -23 3q-27 22 36 104z" />
    <glyph glyph-name="fraction" unicode="&#x2044;" horiz-adv-x="94" 
d="M214 643q12 0 5 -33q-40 -107 -142 -289.5t-126 -231.5q-29 -51 -45.5 -74t-26.5 -21q-7 2 -8 15t5 36.5t18 52.5q54 129 131.5 269t160.5 252q19 25 28 24z" />
    <glyph glyph-name="Euro" unicode="&#x20ac;" horiz-adv-x="527" 
d="M499 54q4 -6 -5 -17t-31 -24t-51 -20q-120 -33 -210 32.5t-123 193.5q-31 2 -54.5 14.5t-21.5 25.5q4 22 69 29v59q-73 6 -69 30q2 14 24.5 25.5t51.5 14.5q21 113 111 187.5t208 59.5q18 0 59 -17.5t33 -34.5q-3 -5 -14.5 -6t-35.5 -1t-43 -2q-84 -9 -136.5 -53.5
t-78.5 -130.5q57 0 99.5 -2.5t67 -6.5t38.5 -9.5t18.5 -11t3.5 -12.5q-2 -12 -19.5 -18.5t-68 -9.5t-148.5 -3q0 -49 1 -55q99 0 152 -4t69 -10.5t14 -17.5q-2 -13 -18.5 -21.5t-67.5 -14t-141 -5.5q40 -172 220 -164q13 1 28.5 2.5t25.5 2.5t19.5 1.5t15.5 -1t8 -5.5z" />
    <glyph glyph-name="uni20BA" unicode="&#x20ba;" horiz-adv-x="510" 
d="M483 333q0 -87 -28 -152t-66 -98t-88.5 -53t-83 -24.5t-61.5 -4.5q-33 0 -33 50q0 1 -0.5 41t-1 103.5t-0.5 122.5q-15 -4 -35 -9.5t-31 -8.5t-16 -5q-11 -6 -12 9q-1 30 34 60q25 21 60 31q-1 23 -1 69q-66 -17 -75 -21q-10 -6 -11 9q-2 30 33 60q22 18 53 29v86
q0 31 37 55q35 23 50 6q5 -6 5 -17v-105l105 31q9 2 10 -10q3 -27 -31 -59q-32 -30 -84 -43v-64l98 28q37 -24 -6 -61.5t-93 -49.5v-237q38 0 72.5 19.5t57.5 49t37 57t20 50.5q17 67 53 79q24 8 31 -13q1 -5 1 -10z" />
    <glyph glyph-name="uni20BD" unicode="&#x20bd;" horiz-adv-x="584" 
d="M302 263h-92v-32q53 0 88 -1t36 -1q49 0 71 -28q19 -26 -10 -43q-23 -14 -70 -14h-115v-123q0 -24 -28 -31.5t-56.5 4.5t-28.5 37v113q-45 0 -53 -1q-19 -2 -25 26q-8 34 14 52q9 8 24 8q7 1 40 1v32q-45 0 -53 -1q-19 -2 -25 25q-8 34 13 53q10 9 25 9q7 1 40 1v311
q0 32 57 38q24 3 56 0h92q102 0 170 -56t68 -151q0 -98 -69.5 -163t-168.5 -65zM210 608v-255h92q63 0 105.5 39t42.5 99q0 59 -41 88t-107 29h-92z" />
    <glyph glyph-name="trademark" unicode="&#x2122;" horiz-adv-x="909" 
d="M476 701q3 -9 -15.5 -25t-47.5 -25q-53 -19 -148 -23q7 -67 -1.5 -146t-32.5 -131q-13 -29 -34 -46q-13 -11 -17 0q-4 6 -4.5 28t2.5 31q16 114 17 264q-48 4 -103 12q-29 4 -49.5 13t-20.5 17q0 15 72 22q30 1 138.5 2t170.5 8q9 1 22 2t20 2t14.5 1t11.5 -1.5t5 -4.5z
M853 273q1 -2 3.5 -5.5t5 -6t4 -6t-0.5 -6t-7 -3.5q-22 -3 -38.5 21.5t-24.5 53.5q-11 45 -12.5 123.5t-1.5 131.5t-8 54q-17 -10 -28 -59.5t-17 -101.5t-24.5 -94.5t-48.5 -42.5t-43 36.5t-11.5 82t0.5 93.5t-10 63q-15 -42 -25 -121.5t-17 -110.5q-16 -67 -53 -67
q-33 0 -50.5 48.5t-17 99.5t0.5 82q5 94 22 94q13 0 25 -92q7 -79 17 -137q8 27 14.5 87.5t11.5 105.5t25.5 81.5t55.5 36.5q28 0 41.5 -26.5t14.5 -59t1.5 -75.5t5.5 -63q1 7 7 36.5t10 48t13 47.5t19.5 47t27.5 32.5t37 17.5q20 0 33 -12t19 -37.5t7.5 -38t3.5 -40.5
q1 -33 -0.5 -128.5t2.5 -133.5q5 -43 11 -56z" />
    <glyph glyph-name="minus" unicode="&#x2212;" horiz-adv-x="583" 
d="M109 309h343q28 0 57.5 -10t29.5 -29t-29.5 -29t-57.5 -10h-343q-28 0 -57.5 10t-29.5 29t29.5 29t57.5 10z" />
    <glyph glyph-name="infinity" unicode="&#x221e;" horiz-adv-x="586" 
d="M413 211q-34 0 -74 17t-58 29.5t-53 38.5q-44 31 -67.5 40.5t-45.5 3.5q-42 -12 -30 -57q3 -13 27.5 -16.5t38.5 1.5q54 16 56 -3q2 -16 -30 -33q-8 -4 -17 -7q-25 -12 -65 -1t-51 49q-11 45 9.5 85.5t67.5 55.5q11 3 20.5 5t20 1t17 -1.5t18 -6t16.5 -7.5t19 -11
t19.5 -13t23.5 -17t25 -18q8 -6 23.5 -18t23.5 -18t20 -14t22.5 -11t21.5 -3q44 0 64 26t13 55q-6 24 -43 31.5t-66 -10.5q-39 -26 -39.5 -8.5t29.5 40.5q9 7 18 12q44 26 93 10.5t61 -64.5q17 -74 -26.5 -118.5t-101.5 -44.5z" />
    <glyph glyph-name="approxequal" unicode="&#x2248;" horiz-adv-x="530" 
d="M515 258q9 -6 4 -21.5t-22 -32.5q-43 -47 -119 -47.5t-132 35.5q-27 15 -59 16.5t-58 -5t-60 -20.5q-41 -16 -52 -5q-16 16 18 54q43 49 117.5 55.5t131.5 -28.5q75 -44 180 -6q42 13 51 5zM69 319q-41 -16 -52 -5q-16 16 18 54q43 49 117.5 55.5t131.5 -28.5
q75 -44 180 -6q42 13 51 5q9 -6 4 -22t-22 -33q-44 -46 -119.5 -46.5t-131.5 35.5q-27 15 -59 16.5t-58 -5t-60 -20.5z" />
    <glyph glyph-name="notequal" unicode="&#x2260;" horiz-adv-x="527" 
d="M349 417h29q49 0 86 -10t35 -29q-3 -19 -43 -29t-89 -10h-45l-47 -123h85q49 0 86 -10t35 -29q-3 -19 -43 -29t-89 -10h-103q-17 -56 -41 -114t-40 -55q-10 1 -11.5 33t3.5 70.5t12 65.5h-25q-30 0 -57 3.5t-46.5 13t-17.5 22.5q2 19 43 29t89 10h32q17 68 38 123h-63
q-30 0 -57 3.5t-46.5 13t-17.5 22.5q2 19 43 29t89 10h84q35 79 100 182q5 8 7.5 11.5t6.5 8t6.5 6t5.5 1.5q14 -2 12 -37q-20 -102 -46 -172z" />
    <glyph glyph-name="lessequal" unicode="&#x2264;" horiz-adv-x="628" 
d="M254 470l121 -79q68 -37 118 -82t41 -62q-18 -32 -217 77l-185 103q-29 8 -35 56q-2 8 19.5 21t118.5 63q49 25 79 41q78 40 144.5 63t75.5 6q10 -18 -41.5 -59.5t-122.5 -78.5zM150 209l343 -3q30 0 58.5 -8.5t28.5 -27.5t-29.5 -29t-57.5 -10h-343q-28 0 -57.5 10
t-29.5 29t29.5 29t57.5 10z" />
    <glyph glyph-name="greaterequal" unicode="&#x2265;" horiz-adv-x="634" 
d="M108 247q-9 17 41 62t118 82l121 79l-116 69q-71 37 -122.5 78.5t-41.5 59.5q8 17 76.5 -6.5t143.5 -62.5q193 -100 207 -110q11 -9 10 -15q-6 -48 -35 -56l-185 -103q-199 -109 -217 -77zM150 199h343q28 0 57.5 -10t29.5 -29t-29.5 -29t-57.5 -10h-343q-28 0 -57.5 10
t-29.5 29t29.5 29t57.5 10z" />
    <glyph glyph-name="l.alt1" horiz-adv-x="241" 
d="M269 864q56 0 48 -124q-9 -133 -73 -284q-66 -155 -135 -181q-3 -1 -7 -2q0 -41 1.5 -66t7.5 -65.5t22 -69.5t42 -47q4 -3 11 -7.5t10.5 -7t6 -6t2.5 -6.5q0 -7 -12 -12t-33 -3q-48 7 -81.5 46t-48.5 94.5t-19.5 108.5t-1.5 102q3 57 14 124.5t33 140t51 131t71.5 96.5
t90.5 38zM111 400q90 159 119 338q-80 -107 -119 -338z" />
    <glyph glyph-name="r.alt1" horiz-adv-x="432" 
d="M407 244q-15 -176 -12 -283q0 -19 5 -36t5 -29q0 -11 -13 -12.5t-21 2.5q-42 18 -55 87t-10 138q2 78 8 137q2 62 -24 84q-14 12 -70 17q-33 -131 -50 -176q-35 -90 -84 -144q-5 -5 -16 -13.5t-28 -19t-28 -10t-16 13.5q0 4 8 25q1 2 14 31.5t15 34t13.5 31t14.5 35
t12.5 31.5t13.5 36t11 33t12 37.5t9 35.5q2 14 5 23q-58 9 -96.5 54.5t-24.5 106.5q7 33 32.5 55t60.5 22q60 0 98 -41q30 -37 32 -108q71 -9 100 -24q9 -5 18 -11q67 -47 61 -163zM102 464q8 -13 33 -18v6q-3 30 -23 43q-15 10 -15 -8q0 -9 5 -23z" />
    <glyph glyph-name="t.alt1" horiz-adv-x="261" 
d="M183 584q16 6 63.5 1t47.5 -30q-1 -13 -11.5 -22t-34.5 -20q-35 -16 -67 -26q-5 -164 -31 -402q-5 -36 -7 -51t-6 -36.5t-8.5 -29.5t-10.5 -9q-9 -1 -18 15t-15.5 45t-9.5 67q-11 115 10 377q-16 -2 -44 -0.5t-55.5 12.5t-23.5 31q1 9 9 16t16.5 10l25.5 9l81 22
q3 18 6.5 55t7.5 66t11 56q6 34 17 37q14 3 27 -33q14 -41 20 -160z" />
    <glyph glyph-name="a.alt1" horiz-adv-x="418" 
d="M402 11q3 -4 8 -8t8 -6.5t5 -6t2 -6.5q0 -4 -4.5 -8t-14 -6t-23.5 2q-35 8 -61 41.5t-40 76.5q-20 -38 -52 -64t-69 -26q-61 0 -100.5 42t-50.5 100.5t0 118.5q10 55 39.5 108t82 92.5t114.5 39.5q67 0 111 -41.5t44 -91.5q0 -39 -17 -39q-6 0 -12.5 8t-13.5 20
q-39 61 -109 56q-54 -3 -93 -56t-53 -118q-9 -49 8 -96t53 -47q27 0 50 31.5t38 66.5q3 10 8 37t9.5 44.5t17.5 32.5t33 15q18 0 29.5 -10.5t15 -31t4.5 -35.5t0 -41.5t-1 -30.5q0 -119 34 -163z" />
    </font>
</defs>
</svg>
