<?xml version="1.0" standalone="no"?>
<!DOCTYPE svg PUBLIC "-//W3C//DTD SVG 1.1//EN" "http://www.w3.org/Graphics/SVG/1.1/DTD/svg11.dtd" >
<svg>
<metadata>
Created by FontForge 20120731 at Sat Jul  1 15:16:50 2017
 By U-Meowington\zoltan,S-1-5-21-1340762506-974568153-834349593-1001
Copyright (c) 2012 by Kimberly Geswein. All rights reserved.
</metadata>
<defs>
<font id="ThrowMyHandsUpintheAir-Bold" horiz-adv-x="423" >
  <font-face 
    font-family="Throw My Hands Up in the Air"
    font-weight="700"
    font-stretch="normal"
    units-per-em="1024"
    panose-1="2 0 5 6 0 0 0 2 0 4"
    ascent="819"
    descent="-205"
    x-height="640"
    cap-height="716"
    bbox="-164.818 -441 1190 999"
    underline-thickness="50"
    underline-position="-50"
    unicode-range="U+0020-FB02"
  />
<missing-glyph horiz-adv-x="500" 
 />
    <glyph glyph-name=".notdef" horiz-adv-x="500" 
 />
    <glyph glyph-name=".null" horiz-adv-x="0" 
 />
    <glyph glyph-name="nonmarkingreturn" horiz-adv-x="500" 
 />
    <glyph glyph-name="space" unicode=" " horiz-adv-x="316" 
 />
    <glyph glyph-name="space" unicode="&#xa0;" horiz-adv-x="316" 
 />
    <glyph glyph-name="asciitilde" unicode="~" horiz-adv-x="1194" 
d="M649 290q-69 -1 -137.5 -9t-139.5 -17q-71 -10 -147 -18t-173 -10q0 9 0.5 23t4 28t11.5 26t22 17q69 3 140 7t142 10.5t140.5 17t134.5 25.5v80q-118 -12 -239 -25.5t-239 -25.5q-6 0 -22 0.5t-33 0.5q-17 1 -32 1h-22q-20 0 -26.5 11t-5 26t8.5 29.5t14 21.5l578 60
q-2 24 -7.5 47t-11.5 40q-4 14 -7 25.5t-3 19.5q0 22 13 32t33 10t41 -11.5t29 -32.5q115 -2 237.5 -3t236.5 -3q-4 -36 -30 -93t-66 -124.5t-90.5 -139t-104 -137t-105.5 -118.5t-95 -82zM721 601q2 -29 6.5 -74.5t9.5 -97.5t11 -105.5t11 -97.5q1 -16 2 -25t1.5 -15
t1 -10.5t1.5 -11.5q20 20 46.5 53.5t55.5 74t58.5 85t55.5 86.5t47.5 78t34.5 60h-342zM721 601q-1 11 -1 8.5t1 -8.5z" />
    <glyph glyph-name="exclam" unicode="!" horiz-adv-x="148" 
d="M124 160q-10 -28 -28.5 -31t-38.5 -1h-22l8 598q1 12 12.5 20.5t26 10t27.5 -5t16 -24.5zM107 84q8 -6 12 -18.5t4 -25.5q0 -21 -10.5 -39t-39.5 -18q-8 0 -20 3t-27 11q-12 25 -7 46.5t18.5 35t32.5 16t37 -10.5z" />
    <glyph glyph-name="quotedbl" unicode="&#x22;" horiz-adv-x="334" 
d="M35 434q2 8 4 18t6 22q5 18 10 39.5t5 44.5q0 20 -5 42.5t-19 50.5q0 28 19 39.5t41 11.5q31 -24 44 -62t13.5 -80t-9.5 -83t-26 -71l1 3q-3 -10 -16.5 -14t-28 -2t-26.5 11t-13 26v4zM197 435q2 8 4 18t6 22q5 18 10 39.5t5 44.5q0 20 -5 42.5t-19 50.5q0 28 19 39.5
t41 11.5q31 -24 44 -62t13.5 -80t-9.5 -83t-26 -71l1 3q-3 -10 -16.5 -14t-28 -2t-26.5 11t-13 26v4z" />
    <glyph glyph-name="numbersign" unicode="#" horiz-adv-x="646" 
d="M205 121q-36 -12 -68 -17.5t-53 -5.5q-44 0 -58.5 18t6.5 47l170 54q-3 39 -5.5 70t-5.5 74q-15 -7 -34 -15.5t-37 -16.5t-32.5 -14.5t-21.5 -8.5q-35 0 -45.5 22.5t-5.5 57.5q4 2 11.5 6.5t10.5 5.5q40 13 78.5 28t73.5 41v138q0 10 10 18t23.5 13t27.5 6.5t22 0.5
l6 -149q13 4 29 9t27 9q2 14 3 24.5t1 21.5t-0.5 20.5t-1.5 19.5q-1 8 -1 16v16q0 16 3 28t12 19.5t25.5 10.5t43.5 2q0 -21 0.5 -46t0.5 -41q1 -12 1 -24v-38q41 13 84.5 26.5t82.5 25.5q15 -12 27 -31t8 -45l-193 -74q3 -40 6 -74t6 -76q17 3 31 6.5t28 7.5q13 3 25 6.5
t25.5 6.5t30 5.5t39.5 4.5q0 -30 -6 -48t-17.5 -28.5t-29 -16.5t-39.5 -12q-17 -5 -35.5 -10.5t-42.5 -15.5q2 -49 4 -101t4 -100q-28 -15 -44.5 -10.5t-25.5 22.5t-12.5 45.5t-5.5 56.5q-2 21 -1.5 32.5t-4.5 28.5q-17 -7 -37 -14t-40 -15q1 -6 1.5 -13t0.5 -16
q0 -20 -1.5 -44t-5 -45.5t-9.5 -39t-15.5 -25.5t-23 -5t-30.5 23v142zM279 394q2 -40 4.5 -72.5t4.5 -74.5q14 5 27.5 10t30.5 10q-1 20 -1.5 38t-0.5 35t-0.5 35.5t-1.5 40.5z" />
    <glyph glyph-name="dollar" unicode="$" horiz-adv-x="492" 
d="M280 -125q-16 0 -29.5 10t-16.5 27v96q-24 0 -46.5 6t-40.5 21.5t-30 41.5t-15 66v-1q-4 26 4 43t20.5 24t26 3.5t19.5 -18.5q1 -4 1 -8.5t1 -9.5q1 -13 3 -26.5t7 -24.5t14 -18t24 -7h7.5t8.5 1q-1 46 -2 85t-2 87q-3 0 -7.5 0.5t-7.5 0.5q-36 2 -72.5 6t-67 14t-51 28
t-24.5 50l1 -3q-8 33 13 70.5t56 70t76.5 54.5t74.5 25q-1 10 -2 23t-2 27t-2.5 28t-2.5 25q16 20 29.5 28t25.5 8q20 0 32.5 -17t14.5 -32q2 -12 2.5 -28.5t0.5 -32.5q0 -13 -1 -18.5t1 -15.5q5 -2 8 -3t8 -3q21 -9 41 -19t36 -27t25.5 -43.5t8.5 -66.5q0 -25 -7.5 -29.5
t-24.5 -7.5q-5 -1 -16.5 -5t-39.5 -15q8 45 -1.5 75.5t-28.5 48.5q2 -30 4.5 -62t4.5 -66q53 -4 83 -18t44 -31.5t16.5 -34t1.5 -26.5q0 -33 -13 -61t-32.5 -52.5t-43.5 -45t-46 -38.5l-12 -10.5t-11 -9.5l2 -52l2 -52q-3 -30 -18 -42.5t-32 -12.5zM339 144q12 10 25 24.5
t22.5 31t14.5 33.5t2 31q0 4 -7 7t-16.5 4.5t-21 1.5h-21.5zM88 385q0 -9 12 -14.5t30.5 -8.5t39.5 -4t39 -1h23q-2 39 -4 71.5t-4 74.5q-24 -5 -48 -17t-43.5 -28.5t-32 -35.5t-12.5 -37z" />
    <glyph glyph-name="percent" unicode="%" horiz-adv-x="622" 
d="M363 664q-27 -5 -44 -21.5t-27.5 -39t-16.5 -50t-11 -55.5v1q-6 -34 -13 -66t-21.5 -57t-39 -40t-64.5 -15q-22 5 -37 21t-24.5 38t-13.5 46t-4 45v16q-1 0 -2 1q-4 4 -8 11.5t-7.5 16t-5.5 16.5t-2 13q7 10 34 29t64.5 42.5t80.5 48t82 45t68.5 33.5t40.5 13
q30 0 46.5 -10.5t16.5 -43.5q0 -2 0.5 -5t-1.5 -8q0 -2 -0.5 -2.5t-0.5 -2.5v-3q-10 -56 -19.5 -104t-18.5 -93q-11 -51 -20.5 -102t-19 -111t-19 -132.5t-19.5 -165.5q-4 0 -14.5 -0.5t-14.5 -0.5q-16 -2 -32 1.5t-30 27.5zM346 111q0 36 11.5 74t33 69.5t53.5 51.5t74 20
q53 -8 76 -43t23 -81q0 -38 -14 -79t-36.5 -74.5t-51 -55t-57.5 -21.5q-34 0 -56 12t-34.5 31.5t-17 44.5t-4.5 51zM511 254q-23 -3 -37.5 -19t-3.5 -44q1 -16 -3 -32.5t-9 -33.5v1q-4 -12 -6.5 -23t-2.5 -22q0 -6 3 -10.5t12 -6.5q14 6 27 19.5t22.5 31.5t15.5 38.5t6 41.5
q0 17 -6 32.5t-18 26.5zM188 517q0 21 -6 32q-13 -5 -21.5 -15.5t-14 -24.5t-8 -29.5t-2.5 -29.5q0 -15 1.5 -26t4.5 -15q9 -5 17.5 5t14.5 26.5t10 37.5t4 39zM177 554q2 -1 2.5 -2t2.5 -3q2 1 4.5 1t4.5 1z" />
    <glyph glyph-name="ampersand" unicode="&#x26;" horiz-adv-x="624" 
d="M316 127q-8 32 -11.5 64t-5.5 63q-1 9 -1 14t-0.5 9.5t-1 9.5t-1.5 14q-24 -8 -60 -15t-73 -7q-50 0 -87 18q-34 18 -44 35.5t8 52.5q10 23 33 52.5t54 60t67 59t72 50t69 32.5t59 7l-9 -227q26 11 48 22t40 21q23 13 42 20.5t37 7.5q12 0 29 -8t42 -27
q-59 -34 -99.5 -58t-67.5 -39.5t-41.5 -24t-21.5 -12.5t-8.5 -4.5l-1.5 -0.5q-5 -8 -6.5 -17t-1.5 -19q0 -20 6 -42t14 -45q8 -25 15 -50.5t7 -50.5q0 -30 -17 -63q-22 -8 -36.5 -7.5t-24.5 6.5t-17 16t-13 22h1q-2 3 0.5 2t1 2t-12 15t-38.5 43zM290 394q4 6 7.5 25
t5.5 41.5t3.5 43t0.5 30.5q-15 5 -40 -9t-51 -38t-49.5 -55t-36.5 -61q11 -2 25.5 -3t29.5 -1q34 0 65.5 5.5t38.5 19.5z" />
    <glyph glyph-name="quotesingle" unicode="'" horiz-adv-x="210" 
d="M64 434q2 8 4 18t6 22q5 18 10 39.5t5 44.5q0 20 -5 42.5t-19 50.5q0 28 19 39.5t41 11.5q31 -23 44.5 -61.5t13.5 -81.5q0 -42 -9.5 -82.5t-26.5 -70.5l1 3q-3 -10 -16.5 -14t-28 -2t-26.5 11t-13 26v4z" />
    <glyph glyph-name="parenleft" unicode="(" horiz-adv-x="312" 
d="M194 -68q-46 -2 -79.5 16.5t-56 52.5t-33 80.5t-10.5 102.5q0 32 5 90t16 126t29.5 138t45.5 127.5t62.5 94t82.5 36.5q10 4 23 -7.5t18 -28.5t-1.5 -36t-34.5 -30l5 1q-22 -5 -42.5 -33t-38.5 -70t-33.5 -94t-26 -105t-16.5 -103.5t-6 -89.5q1 -96 32.5 -137.5
t105.5 -42.5q8 -8 12 -22.5t-0.5 -29t-18 -25t-40.5 -11.5z" />
    <glyph glyph-name="parenright" unicode=")" horiz-adv-x="288" 
d="M281 182q0 -56 -10.5 -102.5t-33 -80.5t-56.5 -52.5t-79 -16.5q-27 1 -40.5 11.5t-18 25t-0.5 29t12 22.5q37 0 63 10.5t42.5 32t24 55.5t8.5 82q0 39 -6 89.5t-16.5 103.5t-25.5 105t-32.5 93.5t-37 69.5t-40.5 33q-31 13 -37.5 31t-1 34t16.5 27t16 9q46 0 83 -36.5
t65 -93.5t48 -127.5t32 -138.5t18 -125.5t6 -89.5z" />
    <glyph glyph-name="asterisk" unicode="*" horiz-adv-x="586" 
d="M193 249q-32 -8 -48.5 7t-18.5 41q0 9 6 22t15 27.5t20 29t21 26.5h-90q-9 0 -18.5 11t-17.5 26t-13 29.5t-5 21.5h71q-23 26 -36.5 57t-13.5 71q24 0 41.5 -4t30.5 -11t23 -16t19 -18l16 -16t18 -14v139h88l4 -89l1 1q17 20 41.5 39t57.5 19q2 -6 5 -11.5t5 -11.5
q6 -11 8.5 -18t0.5 -14t-9 -17t-21 -27l-5 -7q5 1 8.5 2t8.5 2q27 6 51.5 11t32.5 7q12 0 26 -2.5t25 -10t17 -21t2 -35.5q-42 -10 -90 -23t-87 -31l1 -1q18 -8 33 -15.5t26.5 -20t18 -32t6.5 -50.5q-39 0 -62 8.5t-42 19.5v-1q-11 6 -20.5 11.5t-20.5 8.5v-136
q0 -15 -13 -21.5t-30 -6t-33 7t-21 16.5l4 67z" />
    <glyph glyph-name="plus" unicode="+" horiz-adv-x="578" 
d="M223 257q-32 -7 -65.5 -14t-65.5 -14q-11 -1 -20 12t-12.5 30t0.5 32.5t18 20.5l143 29q-1 57 -2 120t-2 118l96 7l-2 -231q29 7 61 15t64 16.5t63 16t58 14.5q2 -41 -7.5 -65t-27.5 -37.5t-43 -19t-55 -10.5q-26 -4 -54.5 -9t-55.5 -16v-19v-37t-0.5 -38.5t-1 -34.5
t-1.5 -24q-19 -30 -45 -30q-24 0 -44 31z" />
    <glyph glyph-name="comma" unicode="," horiz-adv-x="184" 
d="M167 101q-31 -60 -47.5 -96t-23.5 -55.5t-6.5 -25t5.5 -4.5q-3 -2 -5.5 -2t-5.5 -1q-22 -7 -31.5 12t-9.5 53q0 27 5.5 59.5t16 61t25 47.5t32.5 19q26 0 52 -43z" />
    <glyph glyph-name="hyphen" unicode="-" horiz-adv-x="452" 
d="M403 257q-9 0 -27.5 -2t-41.5 -4q-37 -5 -82.5 -9t-87.5 -4q-33 0 -60.5 4.5t-45 16t-22.5 30t6 47.5l381 15v-74z" />
    <glyph glyph-name="slash" unicode="/" horiz-adv-x="432" 
d="M58 -74q-18 0 -29.5 2.5t-18.5 9t-11 17t-8 27.5l365 767q19 10 33 7.5t22.5 -12.5t11 -24.5t-0.5 -27.5z" />
    <glyph glyph-name="zero" unicode="0" horiz-adv-x="514" 
d="M179 -22q-40 6 -69 26.5t-47.5 53t-27 74t-8.5 88.5q0 56 11.5 117t33 120t51.5 112.5t66 94.5t77.5 66t86.5 27q57 0 88 -21.5t45 -53.5t16.5 -68t2.5 -65q0 -33 -8 -88.5t-25.5 -119t-43.5 -128t-62 -117t-82 -85.5t-102 -33h-3zM190 357q-17 5 -28.5 14.5t-19.5 20.5
q-8 -38 -14 -86.5t-6 -96.5q0 -28 3 -53t10 -44t18.5 -30.5t29.5 -12.5q33 -1 62.5 20.5t54.5 59t45 86.5t34 102t21.5 106t7.5 99q0 48 -9 82t-27 43q-45 0 -74 -23.5t-47 -59t-28 -77t-17 -78.5q-2 -7 -4 -17t-4 -20.5t-4.5 -19.5t-3.5 -15z" />
    <glyph glyph-name="one" unicode="1" horiz-adv-x="150" 
d="M111 754l-2 -746q-4 -23 -9 -33t-12 -11.5t-16 3t-19 11.5h1q-4 2 -8.5 4.5t-18.5 7.5v279q0 61 0.5 127t1 130.5t2 123.5t3.5 107z" />
    <glyph glyph-name="two" unicode="2" horiz-adv-x="516" 
d="M69 24q14 22 36 64.5t47.5 96.5t51 114t46.5 118t34 108.5t13 84.5q0 20 -8 31.5t-31 11.5q-20 0 -39 -15t-37 -38.5t-34.5 -52.5t-31.5 -56h1q-13 -23 -25 -43.5t-25 -35t-28.5 -21.5t-34.5 -3q-1 29 8.5 68t27.5 80t43.5 81t56.5 71t66.5 49.5t74.5 17.5q24 0 45 -14
t37 -35t25 -46t9 -47q-2 -45 -14 -95t-31 -102t-42.5 -105t-46.5 -104q-10 -21 -16.5 -35t-11.5 -26t-10.5 -24.5t-12.5 -30.5q18 10 50 19t61 16.5t46.5 14t5.5 11.5h-25q10 42 28.5 59t41.5 17q17 0 34 -7t30.5 -18.5t21 -27t6.5 -31.5q-6 -18 -28.5 -34.5t-57.5 -33
t-82 -34t-101 -37.5q-29 -11 -62 -23t-65 -24q-28 0 -39 17.5t-11 37.5z" />
    <glyph glyph-name="three" unicode="3" horiz-adv-x="468" 
d="M68 62q36 -4 73 6.5t71 31t64 47.5t51.5 54.5t33 54t8.5 45.5q0 18 -6.5 34.5t-18 29.5t-27 21t-33.5 8q-23 1 -44.5 -13.5t-41 -35t-36.5 -43t-31 -38.5q-13 0 -25 4.5t-21 12.5t-13.5 19t-2.5 24q24 35 62.5 74t74.5 79.5t62 80.5t26 76q-12 28 -33.5 27t-45.5 -17.5
t-48.5 -41t-43.5 -44.5l-21.5 -21.5t-22.5 -20.5t-27 -19.5t-36 -18.5q0 53 24 103t61 88.5t82.5 61.5t89.5 23q57 0 86.5 -23.5t29.5 -81.5q0 -53 -14 -93t-42 -82q32 -13 55.5 -33t38.5 -44t22.5 -51t7.5 -54q-3 -35 -20.5 -73t-44.5 -74.5t-61 -68.5t-71.5 -55.5
t-75.5 -37t-72 -11.5q-20 0 -36 12t-23.5 27t-4.5 29.5t20 21.5z" />
    <glyph glyph-name="four" unicode="4" horiz-adv-x="518" 
d="M325 316q-36 -8 -72 -18t-73 -19.5t-75 -16t-78 -6.5q-10 3 -8.5 24.5t10.5 54t23.5 72.5t29.5 80q11 30 21.5 59t19 55.5t13.5 48.5t5 38q10 -7 22.5 -16t23.5 -19.5t19 -23t8 -26.5q0 -22 -9 -53t-22 -63.5t-27 -64t-23 -53.5q26 5 59.5 12t62.5 13q34 7 70 14
q1 74 2.5 148t2.5 148q2 17 13.5 30t26 19.5t30.5 5t27 -12.5q-2 -119 -2 -183.5t0.5 -94t1.5 -34.5t3 -5q16 2 32.5 3.5t24.5 -0.5q15 -3 22 -15t7.5 -26t-6 -27t-18.5 -19q-8 -3 -17.5 -3.5l-19 -1t-18.5 -2t-15 -4.5v-11v-21.5v-39.5v-65q0 -48 -3 -94.5t-14 -79
t-31.5 -43.5t-56.5 13z" />
    <glyph glyph-name="five" unicode="5" horiz-adv-x="493" 
d="M94 23q-2 13 0 26t8.5 22.5t16.5 15.5t23 5q37 -21 77 -21q27 0 53.5 8t48.5 22.5t36.5 33.5t17.5 42q5 32 2 70.5t-17.5 71.5t-42 55.5t-71.5 22.5q-35 0 -77.5 -17.5t-91.5 -55.5q-24 0 -36.5 4.5t-18.5 12t-6.5 18t-0.5 23.5q0 14 2.5 45t7.5 70t13.5 82t21 81.5
t29.5 69t39 43.5q32 -10 37 -27.5t1 -34.5q105 10 208 28t211 26q12 -36 -0.5 -56.5t-41.5 -32t-71 -17t-90 -9.5q-60 -5 -121.5 -13t-112.5 -27q-28 -21 -28 -152q35 18 66 25.5t60 7.5q63 0 107.5 -30t71.5 -76.5t37.5 -103.5t6.5 -111q-5 -41 -27.5 -75t-56 -58.5
t-75.5 -38t-85 -13.5q-35 0 -68.5 9t-62.5 29z" />
    <glyph glyph-name="six" unicode="6" horiz-adv-x="490" 
d="M150 -30q-32 4 -57 34t-42.5 69.5t-26 81t-8.5 69.5q-2 24 2.5 74t15 111t27 125t39.5 114.5t52.5 80.5t64.5 23q-5 -36 -14 -63.5t-20 -55.5q-12 -30 -25 -67t-24 -78.5t-18 -87t-7 -92.5q0 -36 5.5 -74.5t16.5 -78.5q18 39 47 84.5t63.5 85t72 66t73.5 26.5
q20 0 38 -7.5t35 -25.5q9 -35 9 -57q0 -43 -17 -86t-44.5 -82.5t-62 -74t-70 -60t-68.5 -40t-57 -14.5zM379 333q-18 -7 -38.5 -24t-40.5 -39.5t-38 -47t-31 -47.5t-19 -41.5t-3 -27.5q5 -13 22 -6t38.5 27.5t45 49t40.5 58t25 56t-1 42.5z" />
    <glyph glyph-name="seven" unicode="7" horiz-adv-x="502" 
d="M261 26q0 18 1.5 47t4.5 64.5t6 74.5t6 76q5 51 7.5 81t3.5 48q-22 -2 -40 -9t-38 -15q-24 -9 -51 -18t-71 -11q-8 37 0 59t26 35t43 19.5t51 11.5q30 6 57 12t34 22q3 41 6.5 73t6.5 73q-54 -2 -101 -23t-87 -42h1q-36 -20 -68 -32l2 1q-13 -6 -21.5 -4.5t-14 7.5t-9 16
t-6.5 20q0 2 -0.5 3t-0.5 3q0 18 18.5 35.5t47 32.5t63 27.5t67.5 21.5t60.5 14t40.5 5h5q11 0 27 -0.5t31 -5.5t25.5 -16t10.5 -32v-156q20 4 43 8t38 7q6 -25 4 -41t-9.5 -26.5t-19.5 -17t-26 -12.5q-10 -5 -18.5 -8t-20.5 -11q-12 -108 -25 -217t-25 -217
q-8 -11 -21.5 -19t-25.5 -8q-16 0 -27 9.5t-11 34.5z" />
    <glyph glyph-name="eight" unicode="8" horiz-adv-x="516" 
d="M211 -15q-33 8 -56 25.5t-37.5 41.5t-20.5 52.5t-6 58.5q0 51 13.5 99.5t33.5 81.5q-15 8 -32.5 20.5t-31.5 24.5v-2q-2 -11 -5 -19t-10.5 -13t-21 -5.5t-35.5 5.5q0 39 10.5 83.5t29 89t44.5 85.5t58 72t68.5 50t76.5 19q12 0 20.5 -1t16.5 -3q44 -17 61.5 -50t17.5 -75
q0 -24 -5 -48.5t-13 -48.5t-17.5 -45t-19.5 -37q34 -5 63.5 -19.5t51 -38.5t33.5 -57.5t13 -78.5q0 -56 -21 -106t-55.5 -87t-79.5 -58.5t-95 -21.5q-14 0 -25.5 1.5t-22.5 3.5zM344 357q-15 3 -25 3q-33 0 -59.5 -16.5t-45 -42.5t-28 -58.5t-9.5 -64.5q0 -33 12 -61.5
t35 -45.5q5 -1 11 -1.5t10 -0.5q33 0 64 16.5t55 43.5t39 62.5t16 74.5q-2 32 -20 59.5t-53 31.5h-2zM127 493q0 -14 7 -32t24 -22q24 -8 52 8t52 44.5t39.5 64.5t15.5 70q0 26 -12 45q-2 1 -6 2t-7 1q-23 0 -50.5 -18t-52.5 -45t-42.5 -58.5t-19.5 -59.5z" />
    <glyph glyph-name="nine" unicode="9" horiz-adv-x="446" 
d="M348 483q-25 -42 -59 -76.5t-70.5 -58.5t-71.5 -36.5t-63 -10.5t-45 19.5t-17 53.5q0 32 11 71.5t31 80t48.5 79t64 68.5t76 48t85.5 18q13 0 30.5 -4.5t33 -12.5t27 -19t12.5 -23q-8 -82 -11 -173.5t-3.5 -180.5t-0.5 -169.5t-3 -139.5q-2 -11 -15 -15.5t-28.5 -4
t-29 5.5t-16.5 14zM322 633q-11 21 -32 16t-46 -25.5t-49.5 -50.5t-42 -60.5t-24.5 -55.5t4 -34q35 2 68 24.5t59 54t43 67t20 64.5z" />
    <glyph glyph-name="colon" unicode=":" horiz-adv-x="164" 
d="M121 220q8 -6 12 -18.5t4 -25.5q0 -21 -10.5 -39t-39.5 -18q-8 0 -20 3t-27 11q-12 25 -7 46.5t18.5 35t32.5 16t37 -10.5zM123 414q8 -6 12 -18.5t4 -25.5q0 -21 -10.5 -39t-39.5 -18q-8 0 -20 3t-27 11q-12 25 -7 46.5t18.5 35t32.5 16t37 -10.5z" />
    <glyph glyph-name="less" unicode="&#x3c;" horiz-adv-x="456" 
d="M35 339q15 24 27 36l23 23q34 31 69.5 63t67 59t58 47t44.5 27q38 15 53 3t7 -60l-221 -214q20 -28 43 -49t48 -37.5t51.5 -30.5t55.5 -28q13 -6 30 -14.5t30 -15.5q4 -10 5.5 -22t-2 -23t-13 -19.5t-27.5 -11.5q-21 0 -54.5 14.5t-71 37.5t-75.5 52t-69.5 58.5t-53 57
t-25.5 47.5z" />
    <glyph glyph-name="equal" unicode="=" horiz-adv-x="555" 
d="M89 292q-18 7 -26.5 18t-10 23t3.5 23t14 18l364 22q3 0 10.5 -3t15 -8t13.5 -12.5t6 -16.5q0 -11 -10.5 -24t-38.5 -24zM103 160q-19 7 -26 19t-7 24.5t6 24.5t14 18l364 22q4 0 10.5 -3t13.5 -8.5t12 -13t5 -16.5q0 -12 -10.5 -25.5t-40.5 -25.5z" />
    <glyph glyph-name="greater" unicode="&#x3e;" horiz-adv-x="440" 
d="M432 339q-4 -20 -25.5 -47.5t-53 -57t-69.5 -58.5t-75.5 -52t-71 -37.5t-54.5 -14.5q-18 3 -27.5 11.5t-13 19.5t-2 23t5.5 22q14 8 30.5 16t29.5 14q57 27 107.5 59t90.5 86q-55 53 -111 107.5t-110 106.5q-8 48 7 60t53 -3q17 -7 43 -26.5t58 -46.5t67 -59l70 -64
q11 -11 23.5 -23t27.5 -36z" />
    <glyph glyph-name="at" unicode="@" horiz-adv-x="824" 
d="M55 91q0 69 17 144t48.5 147.5t77.5 138t104 115t128 79t149 29.5q56 0 95 -18t63.5 -47.5t35.5 -69t11 -82.5q0 -37 -7.5 -75.5t-21 -75t-32.5 -69.5t-42 -58q-18 -17 -44.5 -31.5t-53.5 -18t-51.5 6t-39.5 40.5q-26 -20 -56 -36t-64 -16q-30 0 -51.5 17t-21.5 50
q0 39 19 81.5t49 79t67.5 62t74.5 29.5q17 0 35 -2t33 -9.5t24.5 -21.5t9.5 -39q-3 -5 -9 -17t-12.5 -27t-11.5 -31.5t-6 -31t3.5 -25.5t17.5 -14q21 12 40.5 37.5t34 57.5t23 68.5t8.5 71.5q0 28 -6.5 54t-21.5 45t-38 30.5t-56 11.5q-65 0 -122 -27.5t-104.5 -73t-85 -105
t-63.5 -124t-40.5 -129t-15.5 -120.5q4 -44 23 -74.5t47.5 -50t64.5 -28t74 -8.5q29 0 61 4t63.5 10.5t62 15t57.5 16.5l7 -86q-57 -20 -122 -32.5t-128 -12.5q-58 0 -111.5 12t-95 40.5t-67 75.5t-27.5 117zM398 282q13 0 28 14.5t30 35.5t28 45.5t22 45.5
q-19 -5 -38.5 -20.5t-35.5 -35.5t-27 -41.5t-14 -39.5q4 -4 7 -4z" />
    <glyph glyph-name="A" unicode="A" horiz-adv-x="600" 
d="M138 317q10 36 20 72.5t19 67t15 52.5t8 30q2 6 3 12.5t3 15.5q5 25 12 55.5t19 56t30 43t44 17.5q12 0 22.5 -7.5t18.5 -18.5t13 -22.5t7 -18.5l-1 1q24 -96 39 -157t23.5 -97t12 -51.5t4.5 -20.5q18 9 37.5 14t53.5 2q0 -18 -3 -30.5t-8 -21.5t-11.5 -15t-12.5 -12
q-8 -7 -14.5 -14.5t-6.5 -17.5q0 -32 14.5 -64t31.5 -61q20 -33 35 -68.5t15 -80.5q-33 -17 -55 -13t-37.5 22.5t-26 47t-19.5 59.5q-11 36 -27 73.5t-35 56.5q-7 -2 -24.5 -8t-39.5 -14.5t-46 -19t-44.5 -21.5t-35 -21.5t-17.5 -19.5v1q-16 -49 -32.5 -99t-32.5 -99
q-9 -23 -23 -27t-29 -4q-20 0 -36.5 10.5t-16.5 36.5zM214 251q16 3 37.5 8.5t44 13.5t43.5 18t37 24q-6 25 -15.5 67t-20.5 85t-22 79t-20 49z" />
    <glyph glyph-name="B" unicode="B" horiz-adv-x="667" 
d="M147 70q-3 38 -5 75l-4 74q-4 65 -8 128t-11 129q-5 -7 -14.5 -11t-25.5 -4q-10 0 -21.5 1t-21 6t-16 15.5t-6.5 28.5v1q0 1 0.5 1t0.5 1q1 2 1 4.5v4.5q26 22 43 40t28 30q20 23 41.5 39.5t65.5 31.5q21 9 45.5 19t51.5 18t55 13.5t55 5.5q45 0 80 -19.5t52 -71.5
q-3 -27 -17 -59t-34.5 -64.5t-45 -63.5t-46.5 -56q37 0 81.5 -3t83.5 -16t65 -40t26 -75q0 -60 -31 -114t-79 -95t-107 -65.5t-114 -24.5q-27 0 -53.5 7t-49 21t-39.5 35t-25 50zM236 78q16 -19 37.5 -27.5t46.5 -8.5q39 0 81.5 17.5t77.5 45.5t58 63t23 70q0 26 -13.5 41.5
t-34 23.5t-45 10.5t-46.5 2.5q-12 0 -42.5 -2t-62 -9t-56 -19t-24.5 -33v-175zM236 72v6q-2 2 -4 6zM431 633q-8 9 -31 9q-24 0 -53.5 -8t-58 -19t-51.5 -23.5t-34 -21.5q5 -54 8 -107.5t8 -107.5q19 2 42.5 18.5t48.5 41.5t48.5 55.5t42 60t30 56t11.5 42.5q-2 -2 -3 -2z
M220 352q0 1 -0.5 1.5t-0.5 1.5h-3q1 -1 2 -1.5t2 -1.5z" />
    <glyph glyph-name="C" unicode="C" horiz-adv-x="555" 
d="M26 211q0 36 5 87t16.5 106t31 110t47.5 98t66.5 70t88.5 27q44 0 67 -23t32.5 -56.5t10.5 -73t1 -72.5q-28 0 -44 7.5t-24.5 19.5t-11.5 27.5t-5 32.5q-1 12 -3 23.5t-6.5 20.5t-13 15t-21.5 6q-27 0 -49 -24.5t-38 -63t-27.5 -85.5t-18.5 -92.5t-10.5 -84t-3.5 -58.5
q-1 -7 -1 -13.5v-13.5q0 -24 3.5 -50t12.5 -47.5t24.5 -34t39.5 -9.5q58 0 107.5 27.5t87.5 69.5t64 93t38 98h55q0 -44 -16 -88.5t-43 -85.5t-62.5 -76.5t-76 -62t-83 -42t-82.5 -15.5q-51 0 -82 22t-48 56t-22.5 75.5t-5.5 79.5z" />
    <glyph glyph-name="D" unicode="D" horiz-adv-x="608" 
d="M94 585q-11 -5 -23.5 -9t-20.5 -4q-24 0 -31.5 14.5t14.5 49.5q33 31 73 45.5t83 19t88 1.5t87 -6q52 -13 93.5 -37t71.5 -56t47.5 -71t20.5 -82q0 -50 -19.5 -104.5t-54 -107t-80 -100t-98 -83t-108 -56.5t-109.5 -21q0 89 -5 173t-12 166q-5 70 -10 136.5t-7 131.5z
M258 634q-39 0 -77 -11q4 -152 8 -251.5t7.5 -163t6.5 -97.5t5 -53l1 -1q34 7 71 30.5t71.5 57.5t65.5 74.5t54 81.5t36 80t13 70q0 44 -23.5 78t-61.5 57.5t-85 35.5t-92 12zM209 56q0 1 -0.5 1t-0.5 1t1 -3t0 1z" />
    <glyph glyph-name="E" unicode="E" horiz-adv-x="620" 
d="M227 -22q-32 0 -67 6.5t-65 23t-49.5 43.5t-19.5 69q-1 25 6.5 49t19 46t25.5 42.5t27 37.5q5 6 9 12t8 11q-14 2 -31.5 7t-32 15.5t-23.5 28t-6 43.5q6 46 27.5 98.5t55 96.5t78.5 73.5t98 29.5q18 -1 34.5 -10t29 -22t19.5 -27.5t7 -27.5q0 -17 -13.5 -29t-44.5 -14
q-8 25 -28.5 38.5t-43.5 9.5q-21 -5 -44.5 -26.5t-43.5 -50.5t-33.5 -61t-13.5 -57q0 -16 9 -26t30 -11q24 -1 49 12.5t49 30.5q23 15 46 28t47 14q6 0 15 -0.5t18 -4t15 -11.5t6 -22q0 -26 -29.5 -49.5t-69.5 -48.5q-29 -18 -60.5 -40t-58 -47.5t-44 -55t-17.5 -63.5
q0 -21 7.5 -35t20.5 -22t30.5 -11t36.5 -3q52 0 100.5 19t93 49.5t84 68.5t74.5 77h48q0 -33 -21.5 -68t-56 -69t-77.5 -64t-86 -53t-81 -36.5t-63 -13.5z" />
    <glyph glyph-name="F" unicode="F" horiz-adv-x="538" 
d="M38 177q0 21 3.5 36t9.5 25.5t13.5 18t15.5 13.5l-1 -1q5 5 6.5 6t5.5 6q1 50 1 100t1 100q-9 -9 -17.5 -15t-18.5 -6q-14 0 -22.5 12.5t-9.5 42.5q0 6 8.5 21.5t22 35.5t30.5 41.5t33.5 39t31.5 28t24 8.5v-35q60 26 124 38.5t130 12.5q33 0 68 -3q25 -6 31.5 -29
t-7.5 -45q-13 0 -43 -1.5t-67.5 -5t-77.5 -9.5t-73.5 -16t-55 -23.5t-21.5 -31.5v-237q56 16 124.5 44.5t149.5 66.5v-5.5v-9.5v-10v-6q3 -9 2 -22t-25.5 -33.5t-82 -51t-165.5 -75.5v-24q1 -21 1 -51v-52q0 -21 -0.5 -37.5t-2.5 -26.5q-5 -18 -16.5 -27.5t-25.5 -9.5
q-11 0 -24 8.5t-24 28.5v166h-56z" />
    <glyph glyph-name="G" unicode="G" horiz-adv-x="637" 
d="M26 210q0 26 8.5 73.5t24 103.5t37.5 113.5t50 104.5t61.5 77t70.5 30h-2q11 1 24 0.5t25.5 -6.5t23 -19t16.5 -36q0 -12 -6.5 -21.5t-16.5 -15.5t-22.5 -8.5t-24.5 -0.5q-2 4 -5.5 8.5t-7.5 5.5q-15 7 -34 -9t-38 -48t-37 -76t-32 -92.5t-22.5 -98t-8.5 -93.5
q0 -31 5.5 -57.5t17.5 -44.5t31.5 -27t47.5 -5q24 0 54 8t60.5 22.5t60 34.5t52 43.5t36.5 49.5t14 53q0 10 -3 26.5t-9 32t-14.5 26.5t-20.5 11q-38 2 -70 -14.5t-57 -38t-40 -41.5l-18 -24q-6 0 -17 0.5t-21.5 4t-18.5 11.5t-8 22q0 21 15 42t38 39.5t51.5 34.5t56 28
t51 18.5t36.5 6.5q34 0 56.5 -12.5t37.5 -33.5t24 -47.5t17 -54.5q3 -12 10.5 -43t15.5 -67t15 -71t9 -56q-4 -9 -9 -20.5t-11.5 -20t-15.5 -12t-22 2.5q-15 9 -24 23.5t-14.5 31t-9 34.5t-6.5 34q-27 -33 -60 -64.5t-70.5 -56t-79 -39t-86.5 -14.5q-59 0 -96 16.5t-58 47
t-29 73t-8 95.5z" />
    <glyph glyph-name="H" unicode="H" horiz-adv-x="522" 
d="M101 -18q-11 25 -17 52t-9 55t-5 56t-6 55q-29 -1 -36 13t2 43q5 5 14.5 10.5t18.5 9.5q9 52 12.5 105.5t4 107t0 107.5t1.5 108q20 8 32.5 11t20.5 3q28 0 32.5 -15t4.5 -41q0 -81 -3.5 -162t-1.5 -174q25 10 63 25.5t73.5 32t61 31.5t25.5 26q0 62 -6.5 124t-7.5 132
q29 38 54 28.5t32 -67.5v1q1 -10 3.5 -35.5t5 -56t4.5 -60t3 -48.5q11 -6 14 -18t1 -25.5t-6.5 -26.5t-7.5 -19q1 -91 2.5 -181t2.5 -181q0 -19 -20.5 -24t-62.5 -10l-12 363q-27 -5 -61.5 -18t-67 -29.5t-58 -34t-35.5 -31.5q-4 -35 1.5 -72t5.5 -76q0 -20 -7 -38
t-17.5 -31t-23 -20t-24.5 -5z" />
    <glyph glyph-name="I" unicode="I" horiz-adv-x="161" 
d="M40 53q-4 28 -7 77.5t-4.5 110.5t-2 129t0.5 132.5t3 120.5t5 93l66 -6q1 -19 2 -48t2 -62.5t1 -70.5v-73q0 -81 4 -148.5t9 -120t10.5 -89t8.5 -54.5q2 -12 3.5 -23.5t-1.5 -21t-12 -15.5t-29 -6q-15 0 -25 8.5t-17 20t-11 24.5t-6 22z" />
    <glyph glyph-name="J" unicode="J" horiz-adv-x="604" 
d="M8 189q0 13 1 27.5t8 28t23.5 25t46.5 18.5q-6 -48 -6 -70q0 -81 47.5 -115.5t138.5 -34.5q54 0 95.5 19t69 52t42 77.5t14.5 95.5q9 94 -9.5 193.5t-48.5 195.5q31 13 53 2.5t37.5 -37t25 -65t15.5 -80.5t9 -84t5 -76q7 -67 -8.5 -135t-52.5 -122.5t-96.5 -89
t-140.5 -34.5q-45 0 -92.5 11.5t-86.5 36t-64.5 62t-25.5 90.5v9z" />
    <glyph glyph-name="K" unicode="K" horiz-adv-x="678" 
d="M129 -12q-10 -21 -24.5 -28.5t-28.5 -4t-24.5 17t-12.5 33.5q-1 22 -2 65t-2 98.5t-2.5 120.5t-2.5 130.5t-1.5 127.5t-0.5 113q12 18 27.5 25t40.5 4q15 -50 19 -101.5t4.5 -104t1.5 -105t9 -104.5q34 21 70.5 57.5t71.5 79t66.5 87t56.5 81.5q25 38 46.5 69.5t40 50
t34.5 21t30 -18.5q7 -20 -2 -50t-30 -65.5t-51 -75t-64.5 -80.5t-70.5 -80.5t-69 -75.5l-25.5 -27t-22.5 -24q60 -48 120 -79.5t118.5 -50.5t115 -28.5t110.5 -13.5q0 -1 0.5 -12t0.5 -15q0 -17 -7 -27t-18 -14.5t-23.5 -5t-22.5 -0.5h-6q-51 1 -98.5 12.5t-90.5 29
t-82.5 38t-73.5 40.5q-36 20 -66.5 36t-53.5 21z" />
    <glyph glyph-name="L" unicode="L" horiz-adv-x="555" 
d="M44 29q-14 84 -19.5 170t-7 172.5t-1.5 174t-4 175.5q36 0 55 -5.5t27.5 -15.5t9 -24.5t-1.5 -32.5q-6 -70 -3 -140t10 -141t13.5 -143t8.5 -146q13 0 39.5 6.5t61 17t73 23t74.5 24.5t67 21.5t51 14.5q30 2 46 -10t6 -46q-11 -6 -46.5 -20t-83 -30.5t-101 -34
t-100.5 -31t-82 -22t-44 -6.5q-8 -3 -17.5 1.5t-17 12t-11.5 17t-1 17.5z" />
    <glyph glyph-name="M" unicode="M" horiz-adv-x="679" 
d="M555 198q-6 42 -13 87t-14.5 89t-16 84.5t-18.5 72.5q-18 -57 -37.5 -114t-39.5 -116q-11 -32 -24.5 -71t-32 -72.5t-44 -56t-59.5 -22.5q-26 0 -46.5 8.5t-37.5 23t-30.5 33.5t-24.5 40q-1 -37 -1.5 -74t-0.5 -74q0 -26 -12.5 -39t-30.5 -13q-25 0 -47 28
q-5 136 -6.5 274.5t-5.5 292.5v4q0 7 -0.5 14.5t2 14.5t8.5 11.5t19 5.5q15 5 26 -4t19.5 -28t14.5 -46.5t12 -60.5q7 -45 17 -96t25.5 -97t39 -81t58.5 -47q18 10 35.5 37.5t34 67t32.5 88.5t31 101q20 63 41 128.5t50 131.5q24 8 39.5 7t25 -9.5t14 -24t4.5 -35.5
q25 -139 49.5 -281t49.5 -291v-31.5t-4 -34t-13 -29t-25 -14.5q-12 1 -21 18t-16 46.5t-13.5 69t-12.5 84.5z" />
    <glyph glyph-name="N" unicode="N" horiz-adv-x="557" 
d="M90 -21q-6 0 -15 0.5t-18 4t-15 11.5t-6 22v468q-16 19 -22.5 35.5t-6.5 33.5q0 21 10 37t23 28t26.5 19t21.5 9q33 0 43.5 -20.5t10.5 -49.5q0 -11 -2.5 -25t-4 -28.5t-0.5 -28t7 -24.5l-1 2q33 -46 65.5 -104t69 -115t79.5 -106.5t96 -76.5q-4 151 -8.5 301t-8.5 301
q0 15 14 23.5t31.5 12.5t32.5 4.5t17 0.5q-9 -75 -12.5 -138.5t-3.5 -118.5q0 -64 3 -122t7.5 -108.5t9.5 -91t8 -68.5q0 -13 -1 -28.5t-6 -28.5t-16 -22t-32 -9q-40 0 -83.5 30t-83.5 71.5t-73.5 84.5t-53.5 70v-1q-4 4 -12 17t-18.5 29.5t-22.5 36t-23 37.5l6 -332
q1 -12 1.5 -20t-2.5 -13.5t-10 -7.5t-21 -2z" />
    <glyph glyph-name="O" unicode="O" horiz-adv-x="429" 
d="M155 -20q-36 3 -63 28t-45 65.5t-27 93t-9 110.5q0 75 15 152t46 140t77 103.5t108 43.5q39 -3 68 -27t47.5 -62.5t27.5 -88t9 -104.5q0 -53 -8 -108.5t-23.5 -107t-37.5 -97t-50.5 -78t-62.5 -50t-73 -13.5h1zM325 420q0 37 -4.5 71t-14.5 61.5t-25 47.5t-36 29
q-33 -4 -60.5 -39.5t-47 -89t-30.5 -116.5t-11 -123q0 -34 3.5 -65t11.5 -56t20.5 -42t29.5 -24q37 -3 67.5 28t52 81.5t33 113t11.5 123.5zM242 631q1 -1 1.5 -1t1.5 -1q1 0 2 0.5t3 0.5z" />
    <glyph glyph-name="P" unicode="P" horiz-adv-x="503" 
d="M61 54q0 11 -1 41.5t-2.5 71t-3.5 87t-3.5 89.5t-3 77.5t-2.5 52.5q-22 16 -33 48q0 32 16 59t42 49t59 38.5t67 27.5t65 16.5t54 5.5q33 0 64.5 -11t56.5 -30.5t40.5 -47.5t15.5 -62q1 -31 -15 -65.5t-42.5 -67.5t-60.5 -63.5t-69 -53.5t-68.5 -36.5t-58.5 -13.5
q-18 0 -31 6q1 -47 2 -77.5t2 -50t2 -31t3 -19.5q1 -8 3 -25q0 -10 -0.5 -26.5t-5 -32t-13.5 -27.5t-25 -13q-18 -5 -28 1t-15.5 17.5t-7.5 27t-3 30.5v8zM146 336q10 7 22 12.5t26 12.5q25 12 56.5 28t61 39t54.5 55t37 75q-4 39 -29 55t-60 16q-21 0 -44 -4.5t-45.5 -12.5
t-43 -18t-35.5 -21v-76v-161z" />
    <glyph glyph-name="Q" unicode="Q" horiz-adv-x="538" 
d="M483 -21q-20 0 -38.5 15.5t-35 37t-30.5 44t-25 36.5q-14 -21 -29 -42.5t-37 -38.5t-51.5 -28.5t-71.5 -11.5q-42 5 -71.5 36.5t-48 74.5t-27 91.5t-8.5 88.5q0 11 0.5 20t1.5 17q5 69 25 139t56 126.5t88.5 92.5t121.5 36q45 -13 75 -37.5t48 -56.5t25.5 -70.5
t7.5 -79.5q0 -36 -5 -73t-13 -72t-18 -66.5t-20 -55.5q1 1 6 -5t19 -25q15 -18 43.5 -54l66.5 -84q-12 -29 -25.5 -42t-29.5 -13zM104 264q0 -22 3.5 -53.5t13 -60t26 -48.5t42.5 -20q18 0 37.5 13t36 32t27 40t10.5 36q0 8 -7.5 19t-16.5 23q-4 6 -7 8.5t-6.5 7.5t-9 16.5
t-13.5 35.5q37 0 60.5 -2.5t43.5 -17.5q12 32 19 72.5t7 84.5q0 30 -4 58t-13 51.5t-24 42t-37 28.5q-16 -1 -32.5 -8t-28.5 -19l41 -41q-37 1 -64.5 -16t-46 -44.5t-30 -62t-17.5 -68t-8 -62t-2 -45.5z" />
    <glyph glyph-name="R" unicode="R" horiz-adv-x="558" 
d="M47 12q-1 62 -4.5 124t-7 126.5t-7 132t-5.5 140.5q19 40 51 74.5t70.5 59t79 38.5t78.5 14q31 0 57.5 -9t46.5 -29t31.5 -51.5t11.5 -75.5q0 -45 -14.5 -84.5t-38.5 -74.5t-54.5 -65.5t-62.5 -57.5q10 -8 23 -16t27 -18q29 -20 62.5 -43.5t64 -48t55 -48.5t36 -45t7 -38
t-32.5 -27q-30 17 -57.5 38t-53.5 44q-24 20 -52 42.5t-62.5 44t-77.5 42.5t-96 38q2 -41 5 -86t9 -107q1 -19 -4.5 -30.5t-15.5 -17.5t-23.5 -7t-28.5 1zM120 422v-69.5t1 -61.5q42 18 87 43.5t82 59.5t61 75.5t24 91.5q0 38 -23.5 55t-56.5 17q-26 0 -51 -11.5
t-47.5 -29.5t-42 -39t-34.5 -40v-91z" />
    <glyph glyph-name="S" unicode="S" horiz-adv-x="510" 
d="M277 -22q-19 0 -42.5 4.5t-46 12.5t-40.5 20t-26.5 28t-4 34.5t27.5 40.5q24 -20 40.5 -31t29.5 -16.5t24 -7t24 -1.5q23 0 48.5 11.5t47 29.5t35.5 40.5t14 45.5q0 22 -16 38.5t-42 28.5t-59 21.5t-67 17.5q-35 9 -73 21.5t-69.5 29.5t-52 40.5t-20.5 54.5q0 47 19 94.5
t51.5 86t76 63t91.5 24.5q33 0 58.5 -11.5t43 -31.5t26.5 -47t9 -58q0 -19 -1 -35t-3.5 -32.5t-6.5 -35t-10 -40.5q-5 -11 -16.5 -14t-23.5 2.5t-21.5 20.5t-9.5 40q0 17 2.5 43.5t0 51t-14.5 42.5t-41 18q-26 0 -51.5 -14t-45 -36t-31.5 -50t-12 -56q0 -18 15.5 -33
t40.5 -27t57 -22t65 -20q40 -12 79 -24.5t69.5 -30t49.5 -40.5t19 -56q0 -40 -18.5 -82t-49 -76t-69.5 -55.5t-80 -21.5z" />
    <glyph glyph-name="T" unicode="T" horiz-adv-x="464" 
d="M5 582q0 19 13.5 31.5t33.5 21t42 13.5t40 8l-1 -1q3 1 7 2t14 3t27 6t47 11q61 15 125 29t130 25t134.5 18t139.5 7v-68q-103 -6 -191 -24.5t-157 -36.5q-11 -3 -17.5 -5t-12 -3.5t-11.5 -3.5t-16 -4q4 -19 7 -55t5 -83t4 -102t3 -112t2 -112.5t2 -103.5
q0 -18 -3.5 -31.5t-12.5 -21.5t-26 -10.5t-45 1.5v63q1 84 0 152t-3 130.5t-6 126t-9 140.5q-54 -13 -106.5 -27.5t-100.5 -29.5q-21 0 -39.5 10t-18.5 36z" />
    <glyph glyph-name="U" unicode="U" horiz-adv-x="503" 
d="M151 -12q-44 31 -70 73.5t-40 93t-18.5 105.5t-4.5 111q0 57 2 114.5t-1 116.5q13 18 34 25.5t44 4.5q4 -32 5 -59t1 -51q0 -17 -0.5 -35t-0.5 -36q-1 -20 -1 -39.5v-39.5q0 -44 2.5 -87t11 -82t23.5 -72.5t41 -57.5q5 -2 10 -2h10q33 0 61 25t50.5 66.5t39 95.5
t26.5 111.5t13 114t-1 104.5q-13 -15 -25 -15q-15 0 -23 15t-8 36q0 15 3.5 31.5t12 30.5t21 24.5t30.5 13.5q38 -17 57 -73t19 -130q0 -54 -8.5 -115t-25 -121t-41 -115t-56 -97t-70 -67t-82.5 -25q-18 0 -33 3z" />
    <glyph glyph-name="V" unicode="V" horiz-adv-x="562" 
d="M17 687q26 15 44.5 -2t32.5 -55.5t25 -92t21 -110.5q7 -39 14.5 -79t15.5 -76.5t17.5 -67.5t20.5 -51q20 42 38 94t37 107q23 67 47.5 133.5t51.5 119.5t58 85.5t68 32.5q20 0 61 -20q-45 -53 -79 -108.5t-60 -111.5t-46.5 -111.5t-38.5 -109.5q-23 -69 -50 -140.5
t-62 -145.5q-17 0 -32 11t-28 28.5t-23.5 39t-18.5 41.5t-13.5 36.5t-7.5 24.5q-7 28 -18 73.5t-22 98t-22.5 107t-20.5 102t-14.5 82.5t-5.5 48z" />
    <glyph glyph-name="W" unicode="W" horiz-adv-x="930" 
d="M670 -26q-47 37 -81 87t-58.5 105.5t-42 113.5t-31.5 112q-10 -25 -22 -55.5t-24 -63.5t-24.5 -66.5t-23.5 -63.5q-15 -41 -28 -75t-19 -49q-3 -10 -6.5 -19t-10 -14t-17 -6.5t-28.5 3.5q-26 64 -51.5 138.5t-48.5 143.5q-17 53 -34.5 105t-36 100.5t-37.5 91.5t-39 77
q-9 19 5 38t32 31q40 -53 71 -112.5t55 -120.5t42.5 -120.5t33.5 -111.5q6 -23 9.5 -36t6 -23t5.5 -18t8 -20q26 61 47 115.5t38 101.5q13 36 26.5 69.5t26.5 59.5t26.5 43.5t27.5 22.5q4 0 12 -2l8 -2q20 -8 29.5 -40t17.5 -80v1q7 -37 15.5 -80.5t23.5 -89t38 -89
t58 -80.5q13 38 24 99t23 131q10 58 20.5 116t23 108.5t27.5 89.5t33 59q23 10 44 5t38 -18t29 -30t18 -30q-54 9 -62 9q-12 0 -17 -11.5t-16 -42.5q-32 -147 -64.5 -301t-64.5 -301q-7 0 -16 -1l-18 -2q-11 -1 -21 -2z" />
    <glyph glyph-name="X" unicode="X" horiz-adv-x="461" 
d="M22 -7q0 4 2 14.5t13.5 45t36 101.5t69.5 183q-34 67 -68 135.5t-68 135.5q-1 13 10.5 22.5t27 13.5t30 2.5t19.5 -9.5v3l99 -198q6 11 13.5 25t16.5 31q18 35 39.5 74.5t43 73t42 57t37.5 26.5q13 0 24.5 -2.5t19.5 -9t10.5 -17.5t-3.5 -29q-11 -10 -28 -29t-40.5 -55
t-52.5 -93t-65 -143q4 -18 18 -48.5t33.5 -64.5t43 -68t46 -59.5t42.5 -38t33 -3.5q-11 -27 -20 -43.5t-17 -25.5t-15.5 -12t-16.5 -3q-20 0 -41.5 18.5t-45.5 52.5t-50.5 82t-54.5 107q-30 -77 -62 -160t-61 -157q-19 4 -31 12t-18.5 17.5t-8.5 19t-2 16.5z" />
    <glyph glyph-name="Y" unicode="Y" horiz-adv-x="456" 
d="M237 249q-70 80 -130.5 177.5t-103.5 198.5q16 32 34 33t38.5 -19t42 -56t45.5 -78q23 -40 46.5 -79.5t46.5 -68.5q2 11 5 23.5t5 26.5q8 50 19.5 109t26.5 110t34.5 85t43.5 34q11 0 22.5 -8t25.5 -27q-32 -80 -55.5 -158t-38.5 -160.5t-22 -171.5t-7 -189v-47
q-9 -19 -19 -29.5t-24 -10.5q-23 0 -44 34z" />
    <glyph glyph-name="Z" unicode="Z" horiz-adv-x="653" 
d="M198 -56q-61 1 -85 25.5t-24 62.5q0 34 11 66.5t27 63.5t33 62t28 63q-8 -2 -17 -5.5t-17 -6.5q-14 -6 -26 -10.5t-22.5 -3.5t-18.5 9t-13 28q0 22 8.5 35.5t22 21.5t31 12.5t35.5 8.5q23 5 44 11t27 19l-1 -1q10 27 22 52.5t22.5 51.5t19 53.5t12.5 57.5
q-35 1 -64.5 -4.5t-54 -14.5t-45.5 -19.5t-38 -20.5q-11 -6 -24 -12.5l-27 -13.5q-20 0 -36 12.5t-19 32.5q6 16 25.5 32.5t47 32t60.5 28.5t66.5 22.5t64.5 15t55 5.5q18 0 42 -6q22 -8 31 -25.5t9 -43.5q0 -29 -11 -66.5t-24 -76.5q-5 -14 -8 -22.5t-6 -16.5t-5 -16.5
t-5 -20.5q7 1 15 2.5t14 2.5q22 3 43 6.5t44 6.5t48.5 6t57.5 5q4 -38 -4.5 -59.5t-26.5 -33t-43 -15t-53 -6.5q-32 -3 -66.5 -7.5t-66.5 -19.5q-8 -15 -19 -35t-23 -42q-13 -24 -27 -49.5t-26 -51t-21 -49t-13 -41.5q11 -5 23.5 -6.5t28.5 -1.5q46 0 105 19.5t115 48.5
t100.5 62.5t62.5 62.5q12 -25 19 -42.5t7 -28.5q0 -30 -24.5 -56.5t-64 -49t-88.5 -41t-98.5 -32t-94.5 -22t-75 -11.5h-2z" />
    <glyph glyph-name="bracketleft" unicode="[" horiz-adv-x="538" 
d="M40 697q-3 20 13 36.5t44 30t63 24t69.5 17.5t63.5 10.5t46 4.5h5q11 0 22.5 -1t21.5 -7t16 -18.5t6 -36.5q-10 -2 -29 -4t-30 -4q-26 -3 -55.5 -7.5t-58.5 -10.5t-56.5 -14t-49.5 -19q9 -38 15.5 -73t11 -79t6.5 -102.5t2 -142.5v-76t-1 -84.5t-2 -98t-3 -116.5
q55 1 98 4t79 6q27 2 48.5 3.5t40.5 1.5q35 0 58 -13.5t36 -51.5l-439 -34q-2 27 -2.5 40.5t-0.5 25.5q0 32 1.5 74t3.5 90q2 60 4.5 128.5t2.5 134.5q0 54 -2 106.5t-7.5 99t-15 85t-23.5 65.5z" />
    <glyph glyph-name="backslash" unicode="\" horiz-adv-x="440" 
d="M77 741q9 -21 28 -63t43.5 -95.5t52 -111.5t52.5 -110.5l45 -94.5t30 -61q24 -48 44.5 -80.5t34.5 -54.5q12 -18 20.5 -32.5t11.5 -27.5t-0.5 -26.5t-14.5 -31.5q-15 0 -41 29.5t-58 78.5t-67.5 112.5t-71 132.5t-67.5 138t-56.5 128t-39 104t-14.5 66h68z" />
    <glyph glyph-name="bracketright" unicode="]" horiz-adv-x="489" 
d="M500 691q-14 -27 -23.5 -65.5t-15 -85t-7.5 -99t-2 -106.5q0 -68 2.5 -135t4.5 -128q2 -45 3.5 -89t1.5 -75q0 -12 -0.5 -25.5t-2.5 -40.5l-439 34q13 38 36 51.5t58 13.5q19 0 40.5 -1.5t48.5 -3.5q19 -2 38 -3.5t39.5 -3t44.5 -2.5t55 -1q-4 121 -5 212.5t-1 162.5
q0 84 2 142.5t6.5 102.5t11 79t15.5 73q-22 11 -49.5 19t-56.5 14t-58.5 10.5t-55.5 7.5q-11 2 -30 4t-29 4q0 24 6 36.5t16 18.5t21.5 7t22.5 1h4q16 -1 46 -4.5t64 -10.5t69.5 -17.5t63.5 -24t44 -30t13 -36.5z" />
    <glyph glyph-name="asciicircum" unicode="^" horiz-adv-x="316" 
d="M118 510q12 22 25.5 25.5t38.5 3.5l91 -145q-7 -11 -7.5 -13.5t-1.5 -4.5q-3 -11 -7.5 -21.5t-12 -15.5t-20 -2.5t-31.5 17.5l-35 57q-5 -9 -10 -15.5t-11 -16.5q-4 -18 -13 -30.5t-21.5 -15.5t-27 4.5t-29.5 28.5z" />
    <glyph glyph-name="underscore" unicode="_" horiz-adv-x="592" 
d="M35 -16q-13 9 -20.5 25.5t2.5 43.5l540 15q39 -29 29.5 -47t-53 -27.5t-114.5 -12.5t-156 -3q-35 0 -71 0.5t-73 0.5q-18 0 -36 0.5t-36 0.5z" />
    <glyph glyph-name="a" unicode="a" horiz-adv-x="574" 
d="M113 -22q-54 2 -77.5 48.5t-23.5 118.5q0 45 8.5 97t24 104t37 102t47 90.5t53.5 69t58 38.5q43 0 68 -20t39 -50q7 15 15.5 26t18 14t19.5 -4t20 -28q-12 -100 -17.5 -171.5t-5.5 -119.5q0 -55 5.5 -88.5t15.5 -53t23.5 -28t30.5 -12.5l-1 1q15 -3 27.5 1.5t23.5 12.5
t20 19t17 22q6 8 17 20.5t30 31.5q9 -30 2 -64.5t-25.5 -63t-47 -46.5t-61.5 -17q-37 0 -64 14.5t-45.5 38t-30 53.5t-17.5 62q-15 -36 -34 -74.5t-44 -70.5t-56 -52.5t-69 -20.5h-1zM303 433q0 16 -3 38t-10 42t-17.5 34t-26.5 15q-13 -1 -29.5 -21t-34 -53t-33.5 -75
t-29 -87t-21 -90t-8 -82q0 -35 8.5 -59t28.5 -30l-2 1q15 -3 32 13.5t34.5 45.5t34.5 67.5t31.5 80.5t26 83.5t18.5 76.5z" />
    <glyph glyph-name="b" unicode="b" horiz-adv-x="505" 
d="M50 151q5 36 7.5 70t2.5 68q0 94 -14 188t-31 194q0 16 2 31.5t10.5 27.5t24.5 18t45 5l42 -314q13 26 29 51.5t37 45t47 31.5t58 12q52 0 87 -31t57 -76.5t31.5 -96t9.5 -89.5q-2 -53 -14 -108.5t-37.5 -100.5t-65.5 -74.5t-96 -30.5q-29 -1 -66 7t-71.5 28t-61 54
t-33.5 84v6zM159 106q0 -12 13.5 -22t32.5 -16.5t38.5 -10.5t30.5 -4q43 9 69 38t40 67t18.5 77.5t4.5 69.5q0 22 -6 54t-18.5 61.5t-32.5 50t-48 20.5t-49 -24t-37 -61t-26.5 -82.5t-17 -88t-9.5 -77.5t-3 -52z" />
    <glyph glyph-name="c" unicode="c" horiz-adv-x="442" 
d="M136 -20q-30 3 -51.5 18t-35 39t-19.5 55t-6 67q0 48 10.5 103t28 109.5t41 104.5t50 88.5t54.5 62t54 24.5q31 0 54.5 -12.5t39.5 -32.5t23.5 -45t7.5 -50q0 -24 -8 -49.5t-25 -50.5q-20 6 -31.5 15.5t-17 21t-6.5 25t-1 27.5q0 10 -0.5 19.5t-3 17t-8.5 12.5t-17 5
q-21 0 -41 -23t-37 -59t-31 -80.5t-23.5 -86.5t-15 -77.5t-5.5 -53.5v-13v-28t2.5 -30.5t9 -24.5t18.5 -10q26 0 58 20t63.5 49.5t61 62.5t51.5 59q2 3 8.5 11t13.5 16.5t13 15.5t8 9q5 -36 -6 -74.5t-32.5 -75t-51.5 -69.5t-63.5 -57.5t-67.5 -39.5t-64 -15h-2z" />
    <glyph glyph-name="d" unicode="d" horiz-adv-x="489" 
d="M381 16q-2 7 -5 32.5t-6 51.5q-19 -19 -42.5 -40t-50 -39t-55 -30t-58.5 -12q-40 0 -67.5 17t-45 43.5t-25 59t-7.5 64.5q0 29 8 71.5t23.5 88.5t38.5 91.5t51.5 82t63.5 59t75 22.5q19 0 33.5 -9t24.5 -24v48q0 46 3 86t14 77q7 10 20 16.5t26.5 6.5t24.5 -7.5t16 -26.5
q-7 -48 -10 -90.5t-3 -81.5q0 -64 6.5 -123t14.5 -119q9 -65 16 -134.5t7 -155.5v-38q-1 -26 -11 -36.5t-24 -10.5q-15 0 -32 18.5t-24 41.5zM342 433q-1 8 -1.5 16.5t-0.5 16.5q-23 2 -33.5 6t-17.5 9q-4 2 -9.5 5t-10.5 3q-22 0 -42 -18t-38 -46.5t-32.5 -64t-25 -71
t-16.5 -67t-6 -52.5q0 -18 2.5 -36t9 -33t19 -24.5t32.5 -9.5q28 0 55.5 18.5t50.5 46.5t41.5 59t29.5 57q-1 49 -3 94.5t-4 90.5z" />
    <glyph glyph-name="e" unicode="e" 
d="M17 126q0 36 9.5 91t27.5 116.5t43.5 122.5t56.5 107t67 70.5t76 14.5q8 -1 19.5 -9t22 -23t17.5 -37.5t7 -53.5q0 -33 -11 -77t-38 -98.5t-73 -120.5t-117 -143q15 -13 32 -13q28 0 60.5 21.5t61.5 51t51.5 59.5t30.5 48q22 -18 31.5 -33.5t9.5 -28.5q0 -20 -13.5 -43
t-35.5 -46.5t-49.5 -45.5t-56 -38.5t-54.5 -25.5t-45 -8q-25 0 -48.5 12.5t-41.5 32.5t-29 45t-11 52zM271 529q0 19 -7 23q-17 -2 -35 -23.5t-35 -54.5t-32.5 -73t-27.5 -79.5t-19.5 -74t-8.5 -56.5q22 17 50.5 59.5t54 93.5t43 101.5t17.5 83.5zM267 552h-3h3zM262 553
q0 -1 1 -1z" />
    <glyph glyph-name="f" unicode="f" horiz-adv-x="522" 
d="M179 388q-17 -4 -34.5 -12.5t-34.5 -16.5h1q-8 -5 -19.5 -10t-19.5 -9q-13 0 -21 0.5t-13.5 4.5t-9 11.5t-7.5 22.5q0 17 12 31t31 25t41.5 20t42.5 16q7 2 15.5 6t15.5 7v9q2 33 3 67t3 65q3 33 10.5 64t23 54t41 37t63.5 14q42 0 64.5 -26t23.5 -64q2 -17 -1.5 -27.5
t-10.5 -16.5t-16 -8.5t-18 -3.5q-7 -2 -17.5 -3.5t-12.5 -2.5q-7 33 -13 47t-11 14q-14 0 -25 -21.5t-13 -49.5q0 -18 -0.5 -33t-0.5 -29.5t-0.5 -29t-0.5 -32.5q18 7 49.5 22t62.5 31q27 14 49 25.5t36 14.5q12 6 23.5 5.5t18.5 -8.5t7.5 -24t-10.5 -40l-233 -119
q-3 -62 -4 -128.5t-1 -135.5q0 -48 1 -95.5t3 -82.5q-28 -32 -48 -32q-30 0 -38 38z" />
    <glyph glyph-name="g" unicode="g" horiz-adv-x="530" 
d="M146 -398q-13 9 -18 20.5t-5 23.5q0 14 6 25.5t16 18t22 6t24 -10.5q20 -12 38 -16.5t35 -4.5q43 0 75 31.5t53 78t29.5 100t5.5 98.5l-31 386q-47 -116 -91 -189.5t-82.5 -115.5t-71 -58t-56.5 -16q-20 0 -36 7.5t-27 17.5q-10 21 -14 46.5t-4 54.5q0 48 10 107t28 119
t43.5 116.5t56.5 100.5t66.5 70.5t74.5 26.5q19 0 37 -5.5t37 -19.5q7 15 18 20.5t25 5.5t28 -8.5t25 -25.5l56 -630q1 -6 1 -14.5v-16.5q0 -28 -4 -67t-14.5 -80.5t-28.5 -82t-46.5 -72.5t-68 -51.5t-93.5 -19.5q-25 0 -53.5 5t-60.5 16zM341 501q0 20 -16 36.5t-36 18.5
q-21 -4 -42.5 -28.5t-42.5 -62t-39 -84t-32 -94t-22 -92.5t-8 -80q0 -17 1 -28t5 -19q17 1 41 25.5t49.5 62.5t51 85t45.5 95t32.5 91.5t12.5 73.5z" />
    <glyph glyph-name="h" unicode="h" horiz-adv-x="532" 
d="M136 1q-7 -11 -21 -15.5t-28 -3.5t-25 6t-11 14v-2q-14 121 -18 213t-6 173q-1 39 -2 77.5t-3 79t-6.5 84t-11.5 92.5q6 9 17 15.5t24 10.5t26 5.5t23 0.5l24 -438q16 44 37.5 91.5t48 86.5t57.5 64.5t65 25.5q37 -4 65.5 -42t50 -94.5t36 -124t23.5 -129.5t13.5 -111
t5.5 -69q-25 -23 -42 -13t-30 40.5t-22.5 77.5t-18.5 100q-9 49 -18 99.5t-19.5 91t-22.5 65.5t-26 23q-26 -16 -51 -58t-46 -96.5t-38 -113.5t-29 -108.5t-17.5 -82.5t-3.5 -35z" />
    <glyph glyph-name="i" unicode="i" horiz-adv-x="184" 
d="M100 635q22 -74 35 -159t20 -168t9.5 -156.5t4.5 -123.5q0 -35 -22.5 -41t-57.5 0q-4 45 -8 98t-7 99q-7 100 -16 205.5t-26 212.5zM129 728q0 -10 -14 -23.5t-34 -18.5t-41 3t-35 42q0 24 27 44q16 5 33 2.5t31.5 -10t23.5 -18t9 -21.5z" />
    <glyph glyph-name="k" unicode="k" horiz-adv-x="514" 
d="M43 -6q0 100 -5 187l-10 174q-5 88 -9.5 178.5t-5.5 193.5q3 13 17 16t30 -1t28.5 -12t14.5 -15v2q3 -55 6 -102.5t6 -93.5t6 -93.5t6 -102.5q20 28 39.5 65.5t38.5 76.5q14 29 28 57.5t34 60.5q10 10 23 8t23 -10t15.5 -20.5t2.5 -24.5q-2 -16 -12.5 -42t-26.5 -56
t-35 -62.5t-36 -62.5q-11 -20 -17.5 -30t-14.5 -24q25 -14 63 -34.5t76 -41.5q32 -18 63.5 -35t56.5 -32t42 -26.5t20 -17.5l-2 5q7 -9 6.5 -22t-7.5 -24t-20.5 -17t-32.5 -2q-53 20 -91 42t-64 41t-62 40.5t-97 44.5v-187q-2 -14 -17 -25.5t-32 -11.5q-29 0 -45 25z" />
    <glyph glyph-name="l" unicode="l" horiz-adv-x="148" 
d="M97 709q10 -144 16 -246t10 -171.5t6 -112t3 -66.5q1 -18 1.5 -27.5t1 -15t1 -9t2.5 -8.5q2 -8 5 -17q4 -20 -12 -37.5t-38 -17.5q-25 0 -46 28l-32 704q2 24 14 39t26 15q13 0 25 -13t17 -42v-3z" />
    <glyph glyph-name="m" unicode="m" horiz-adv-x="768" 
d="M602 534q-24 9 -43 -13.5t-34.5 -65t-28 -99.5t-24.5 -118q-11 -51 -21.5 -99.5t-23.5 -92.5q-2 -14 -15 -19.5t-29 -4.5t-30 7t-16 17q-8 45 -12.5 100.5t-9.5 113.5v1q-4 52 -8.5 101.5t-10 90t-13.5 68.5t-19 37q-11 -4 -21 -19.5t-18 -38t-15 -48.5t-12.5 -50.5
t-9 -45t-4.5 -30.5q-2 -9 -5 -32.5t-7.5 -55t-8.5 -66t-8 -66t-6.5 -55.5t-3.5 -33l-1 3q0 -9 -13 -16t-29 -9.5t-30.5 -0.5t-16.5 11q-6 47 -11 106.5t-8 122t-5.5 124t-3.5 113.5q0 15 2 32.5t10.5 33t26 25.5t49.5 10q0 -38 1 -72t4 -66q9 37 22.5 75t33 68.5t45 50
t59.5 19.5q36 -3 58.5 -34t35 -78t18.5 -103t9 -110q15 62 32.5 120.5t42.5 102t59.5 67t83.5 15.5h-2q29 -1 50.5 -27t37.5 -68t26 -95.5t16 -110t8.5 -111.5t2.5 -100q0 -43 -2 -75t-5 -45q-30 -34 -47 -29t-26 37.5t-12.5 85.5t-5.5 114q-2 53 -5 108.5t-9 102.5
t-16.5 79.5t-28.5 40.5z" />
    <glyph glyph-name="n" unicode="n" horiz-adv-x="473" 
d="M117 482q13 33 29.5 63t36.5 52.5t43.5 35.5t50.5 12q42 0 68 -24.5t42 -59t23.5 -71t10.5 -60.5v1q3 -16 4 -54.5t3 -87.5q1 -39 2 -79.5t3.5 -75.5t6.5 -61t10 -36q1 -9 -14 -19.5t-34.5 -17t-36.5 -5.5t-20 15l1 -1q-14 56 -16 127.5t-3 144.5q0 54 -1.5 104t-6 88.5
t-14 60.5t-27.5 20q-27 -1 -48 -28t-37 -69.5t-27.5 -96t-19.5 -107.5t-13.5 -104t-8.5 -85q2 -45 -13 -63t-33.5 -18.5t-34.5 10.5t-15 23v492q0 15 5 30t16 26.5t28 18.5t40 7v-108z" />
    <glyph glyph-name="o" unicode="o" horiz-adv-x="384" 
d="M12 183q9 133 29.5 223.5t49 144.5t62.5 76t71 18q38 -2 65.5 -22t45.5 -54t26.5 -78.5t8.5 -93.5q0 -70 -16.5 -143t-47.5 -134t-75.5 -100.5t-99.5 -42.5q-45 0 -69 21.5t-35 52.5t-13 66.5t-2 64.5v1zM219 564q-26 2 -48.5 -34.5t-39 -93t-26 -123t-9.5 -123.5
q0 -51 8 -85.5t25 -36.5q36 7 64.5 41t48.5 83t30.5 105.5t10.5 109.5q0 31 -4 59.5t-11.5 49.5t-19.5 34t-28 14h-1z" />
    <glyph glyph-name="p" unicode="p" horiz-adv-x="429" 
d="M-28 67q27 -5 43.5 -7t26 -1.5t15 2.5t9.5 5l-43 510q-6 20 -1.5 33t15 21t24 11t24.5 3q57 0 116 -8.5t106.5 -35.5t77.5 -77.5t30 -134.5q-1 -63 -23 -124t-57.5 -112.5t-80.5 -90t-91 -56.5q2 -100 4 -206.5t4 -206.5q-28 0 -45 12t-27 28.5t-13.5 34t-3.5 29.5
q0 4 -0.5 9t-0.5 11q-1 26 -3 67l-4 82t-3.5 75.5t-1.5 48.5q-11 -1 -18.5 -0.5t-17.5 7.5t-24 23.5t-37 47.5zM159 101q37 18 67.5 48t53 68.5t36.5 82t17 87.5q-1 44 -19 77.5t-47.5 56t-68.5 33.5t-81 11z" />
    <glyph glyph-name="q" unicode="q" horiz-adv-x="434" 
d="M321 170q0 24 0.5 48.5t0.5 49.5v3q-18 -47 -42 -99.5t-52.5 -96t-61 -72t-66.5 -28.5h2q-28 -3 -46 12.5t-28.5 40t-13.5 53t0 50.5q1 32 9.5 83.5t24.5 109.5t38 116.5t50.5 106t61.5 77t71 29.5q26 0 42.5 -12.5t27.5 -25.5q4 -5 9 -8.5t12.5 -5t18.5 1.5t28 12v-21.5
t0.5 -32.5t0.5 -37v-34q0 -31 -0.5 -66.5t-0.5 -73.5q-1 -59 -1 -118v-109v-63.5t1 -44.5v1q4 -47 8 -83t10 -65.5t15.5 -55.5t25 -54t38.5 -59.5t56 -72.5q-15 -25 -29 -36t-27 -11q-22 0 -44 22.5t-41.5 54.5t-35.5 66t-26 57q-2 5 -5 10.5t-3 3.5q-19 81 -24 151t-5 138
q0 22 0.5 44t0.5 44zM283 504q0 26 -4.5 44t-15.5 26q-23 -11 -44.5 -39.5t-40 -68t-33.5 -85.5t-26 -92.5t-17 -90t-6 -76.5q0 -26 2 -40.5t7 -15.5q16 -3 35 17.5t39 56.5t38.5 83t33 96.5t23.5 98t9 86.5zM257 577l6 -3q4 2 7 3h-13z" />
    <glyph glyph-name="r" unicode="r" 
d="M57 19q-2 48 -4.5 86t-5 77t-6.5 84t-9 107q-3 39 -6.5 86.5t-8.5 105.5v6v19.5t3 22t11 19t23 11.5q19 -3 30 -10t15.5 -19t5.5 -28.5t1 -38.5v-50t5 -64q19 45 45.5 86t61 71.5t78.5 47t99 12.5v-71q-52 -4 -90.5 -29t-66 -66t-45.5 -94.5t-28.5 -114t-16 -125.5
t-7.5 -127q-1 -20 -11.5 -31.5t-24.5 -11.5q-24 0 -44 29z" />
    <glyph glyph-name="s" unicode="s" horiz-adv-x="392" 
d="M206 -22q-35 3 -67 9t-58 18.5t-43.5 32t-21.5 48.5q36 0 59 -5t43 -10q19 -6 39 -10.5t40 -4.5q17 0 36.5 4.5t35.5 13.5t26.5 23t10.5 34q0 19 -11 39t-28 41t-38 41t-42 39q-26 23 -52 47.5t-46.5 51t-33.5 55t-13 59.5t17.5 57t44 44.5t57 29t57.5 10.5q22 2 45 -6
t40 -24.5t25.5 -41.5t0.5 -57l1 1q-5 -26 -15.5 -36t-22.5 -10t-23.5 10t-22.5 24v20.5t-1.5 19t-5 14t-10.5 5.5q-16 0 -33 -4.5t-31.5 -13.5t-24 -22.5t-9.5 -30.5q-3 -9 4.5 -22.5t21 -29.5t33 -34.5t40.5 -38.5q31 -29 62.5 -60.5t55.5 -63.5t36 -65t5 -65v2
q-4 -41 -19.5 -68t-39.5 -42.5t-55.5 -21.5t-67.5 -6h-1z" />
    <glyph glyph-name="t" unicode="t" horiz-adv-x="368" 
d="M179 16q0 -14 -12.5 -22t-28.5 -12.5t-30.5 -5.5t-17.5 -1v512l-20 -4t-21 -4q-8 -2 -16.5 -3.5t-16.5 -3.5q-11 0 -23.5 15.5t-19.5 62.5q20 5 35 9t21 5q17 2 33.5 6.5t27.5 12.5v142q0 7 6.5 18t18 19.5t28 12.5t36.5 -2l2 -166q60 11 127 24t124 24q0 -21 -7 -38
t-17.5 -29.5t-22 -20t-20.5 -10.5q-15 -4 -33.5 -8.5t-38.5 -9.5q-32 -7 -63 -14t-51 -13v-496v0z" />
    <glyph glyph-name="u" unicode="u" horiz-adv-x="415" 
d="M138 -22q-23 -5 -41 14t-31.5 54.5t-22.5 83.5t-14 100.5t-7.5 106.5t-2.5 102q0 27 0.5 51t1.5 43q0 6 5 17.5t16 21.5t30 14.5t47 -4.5q-2 -7 -4 -26.5t-4 -47.5t-3 -62t-1 -70q0 -47 1.5 -96.5t5 -91t10 -70.5t15.5 -35q19 7 38.5 31.5t38.5 59.5t35.5 78t29 89t20 92
t7.5 86q0 50 -17 93q3 4 10.5 10t16 12t16.5 10t11 4q21 0 32.5 -17.5t16.5 -40.5t5.5 -45t0.5 -31q1 -26 -7 -74t-23.5 -105t-38.5 -117t-52.5 -111t-65 -86.5t-76.5 -42.5h1z" />
    <glyph glyph-name="v" unicode="v" horiz-adv-x="524" 
d="M27 638q19 0 33.5 -5.5t24.5 -25.5q11 -32 22 -74t22 -87q10 -41 21 -83t23 -82.5t25 -77.5t28 -68q8 25 14.5 51t14.5 55q12 47 27.5 98t34 100.5t41.5 95t51 81t61.5 58.5t74.5 28l-24.5 -49t-11.5 -20.5t-5.5 -7t-5.5 -8.5q-11 -17 -24.5 -39t-29.5 -54t-34 -77
t-38.5 -108.5t-43.5 -148t-48 -194.5q-15 -18 -29 -18t-34 5q-25 29 -50 77.5t-48.5 107t-43.5 123t-35.5 125.5t-24 114t-8.5 88z" />
    <glyph glyph-name="w" unicode="w" horiz-adv-x="758" 
d="M2 618q13 35 39 35q11 0 23 -8t20 -19l69 -438q3 13 6 27t7 29q11 50 25.5 105.5t37 101t54.5 73.5t78 24h-2q27 0 49 -20t39.5 -53t32 -75t27.5 -85q13 -41 26 -80t28 -69q4 39 11.5 93t19 112.5t26.5 117t35 106.5q36 75 75.5 97.5t85.5 -13.5q-38 -32 -63.5 -85.5
t-43 -117t-28 -130.5t-17.5 -127q-5 -41 -10.5 -79t-13.5 -72t-19.5 -61t-28.5 -45q-30 32 -55 73.5t-45.5 87t-37 92.5t-31.5 90q-11 31 -20 59t-17 48.5t-14 32.5t-10 12q-17 1 -30 -14.5t-23.5 -41.5t-19 -60t-15.5 -68q-7 -36 -16 -74.5t-21.5 -76.5t-29.5 -74.5
t-41 -69.5q-13 0 -27 26t-27.5 68.5t-27 97.5t-25.5 113t-22.5 114.5t-18 102t-11.5 76t-4 36.5z" />
    <glyph glyph-name="x" unicode="x" horiz-adv-x="540" 
d="M279 233q-8 -14 -16.5 -30t-16.5 -32q-22 -41 -45 -81t-49.5 -69.5t-56 -42t-64.5 1.5l24 39t28 46q17 27 36 59.5t36.5 65t31 62.5t19.5 54q-33 60 -82 125.5t-95 125.5q-5 6 -13.5 17.5t-18 24t-18.5 23.5t-13 17h51q5 0 8.5 0.5t5.5 0.5q23 0 43 -12t38.5 -32.5
t35 -46.5t33.5 -53q18 -29 36.5 -58t38.5 -49q2 5 3.5 8l4.5 9q11 26 24.5 56t30.5 59.5t36.5 55.5t42.5 43t49.5 23.5t57.5 -3.5q-14 -17 -43.5 -56.5t-59.5 -87t-53 -95t-26 -80.5q54 -75 114 -156t114 -156l-62 -46z" />
    <glyph glyph-name="y" unicode="y" horiz-adv-x="507" 
d="M331 -428q-24 0 -53 2t-55.5 7.5t-47 15.5t-28.5 26l8 -8q-3 4 2.5 16.5t14.5 25t19.5 21t18.5 4.5h-1q50 -23 89 -23q36 0 58 20.5t34 52t16 69t4 71.5q0 32 -2 57t-3 36q-2 27 -4 64t-4.5 78.5t-5.5 86t-6 86.5t-6.5 79t-6.5 64q-17 -52 -37 -107t-41.5 -106t-44.5 -95
t-46 -75.5t-46 -48t-45 -11.5q-24 10 -42.5 35t-31 61.5t-18.5 82.5t-6 97q0 88 11.5 188t30.5 192q29 8 54.5 -1t33.5 -47q-23 -73 -32 -147.5t-9 -140.5q0 -45 2.5 -83.5t7 -67t10 -45.5t12.5 -18q6 4 18.5 30.5t28.5 66.5t34.5 89.5t37.5 100.5q26 69 50 133t44 106
q10 22 28.5 26t36.5 2h20q4 -30 9.5 -80t11 -111t11.5 -127.5t11 -127.5t9 -111.5t6 -79.5q1 -23 3 -51q2 -23 3.5 -49.5t1.5 -52.5q0 -44 -6 -87.5t-23.5 -81t-49.5 -66.5t-84 -42z" />
    <glyph glyph-name="z" unicode="z" horiz-adv-x="504" 
d="M197 -27q-60 4 -84 37t-24 81q0 31 8 65.5t20 68.5t26.5 65.5t27.5 57.5q-42 -11 -83 -22t-78 -20q-4 37 5.5 59t27 34.5t41 18.5t49.5 11q24 4 50 11t43 17q28 56 55 113q-27 -1 -52 -10.5t-48 -21.5q-29 -14 -62 -26.5t-81 -10.5q-10 19 1.5 37.5t36.5 36t60.5 32.5
t73 26t74.5 17t65 6q28 -10 39 -21t11 -28q0 -12 -6.5 -25.5t-17.5 -32.5q-9 -15 -19.5 -35t-22.5 -49q20 7 40.5 14t38.5 12q18 -13 13.5 -33.5t-24.5 -41.5t-54 -38t-76 -24q-13 -23 -29 -56.5t-30 -70t-23.5 -71.5t-9.5 -61q0 -15 5 -24t17 -8q43 -6 87 14.5t83.5 52
t71 67t49.5 58.5q3 -38 -10 -74t-36.5 -67.5t-55 -58t-65 -45t-67 -28.5t-61.5 -9z" />
    <glyph glyph-name="braceleft" unicode="{" horiz-adv-x="473" 
d="M150 -60q11 40 25.5 70t30.5 58q19 33 34 65t19 67v-2q0 33 -10 55.5t-25.5 38t-33 25.5t-32.5 17q-21 11 -35 19.5t-14 28.5q2 28 21.5 37t43.5 15q14 3 26 8t17 13q-18 12 -50 34.5t-63 48.5t-54 53.5t-23 48.5q0 37 16.5 75t46.5 69t71 50.5t89 19.5q31 0 58.5 -7.5
t48 -22.5t32 -38t11.5 -55q-23 -11 -36.5 -13t-21.5 1.5t-12.5 11t-7.5 15.5q-3 9 -12 15.5t-20 11t-23 6.5t-20 2q-30 0 -55.5 -10.5t-44 -27.5t-29 -39.5t-10.5 -46.5q10 -29 41 -53t67 -47q23 -15 46.5 -31.5t48.5 -41.5v-6.5t1 -8.5q2 -10 2 -15q0 -30 -13.5 -41.5
t-32.5 -20.5q-4 -2 -6.5 -3t-6.5 -3q35 -35 60 -74.5t36 -93.5q3 -29 -2 -53.5t-14.5 -47t-22.5 -43t-27 -41.5q-15 -22 -29.5 -46.5t-25.5 -51.5q6 -23 26 -29.5t44 -6.5q14 0 30.5 1.5t30.5 3.5h7.5t14.5 0.5t14.5 0.5h7.5q-11 -21 -27 -36.5t-34.5 -26.5t-36.5 -16.5
t-33 -5.5q-26 0 -49 10.5t-40 27t-26.5 37t-9.5 40.5z" />
    <glyph glyph-name="braceright" unicode="}" horiz-adv-x="404" 
d="M278 -65q0 -20 -9.5 -40.5t-26.5 -37t-40 -27t-49 -10.5q-15 0 -33 5.5t-36.5 16.5t-35 26.5t-26.5 36.5h7.5t14.5 -0.5t14.5 -0.5h7.5q14 -2 30.5 -3.5t30.5 -1.5q24 0 44 6.5t26 29.5q-10 27 -24.5 51t-31.5 47q-14 21 -27 41.5t-22 42.5t-14 47t-2 54q11 54 36 93.5
t60 74.5q-3 2 -6.5 3t-6.5 3q-17 8 -31.5 20.5t-14.5 41.5v6.5t1 8.5t1.5 5.5t0.5 9.5q25 25 48.5 41.5t46.5 31.5q36 23 67 47t41 53q0 24 -11 46.5t-29.5 39.5t-43.5 27.5t-55 10.5q-8 0 -20 -2t-23 -6.5t-20 -11t-12 -15.5q-3 -8 -7.5 -15.5t-12.5 -11t-22 -1.5t-36 13
q0 32 11.5 55t32 38t47.5 22.5t59 7.5q48 0 89 -19.5t71 -50.5t46.5 -69t16.5 -75q0 -21 -22.5 -48.5t-53.5 -53.5t-62.5 -48t-49.5 -34q-3 -2 -1.5 -0.5t-0.5 -0.5q5 -8 17 -13t26 -8q24 -6 43.5 -15t21.5 -37q0 -20 -14 -28.5t-35 -19.5q-15 -7 -32.5 -17t-32.5 -25.5
t-25.5 -37.5t-10.5 -54q5 -36 19.5 -68t32.5 -64q17 -29 32 -60t25 -68z" />
    <glyph glyph-name="bar" unicode="|" horiz-adv-x="948" 
d="M430 -132q34 32 69.5 72t70.5 88q-26 -9 -51.5 -13t-48.5 -4q-63 0 -133 15.5t-130.5 46.5t-103.5 75.5t-53 103.5q-2 9 -2 20v20q0 57 19.5 112t54.5 97.5t85 68.5t110 26q41 0 87.5 -14.5t94.5 -45.5q12 28 34 61t50.5 66.5t62 64t67 54.5t65.5 38t59 14q44 0 70 -36.5
t23 -122.5q0 -27 -9.5 -74t-27.5 -106.5t-44.5 -126.5t-60 -134t-73 -129.5t-85 -112.5t-96 -83t-104.5 -41zM841 676q2 35 -3.5 49t-15.5 14q-19 0 -44 -16t-52 -41t-53.5 -56t-48.5 -61.5t-37 -57.5t-19 -43q30 -41 39.5 -75.5t9.5 -61t-6 -43t-8 -19.5q-48 66 -91 112
t-81.5 74.5t-71.5 41.5t-60 13q-38 0 -67 -19.5t-49.5 -51.5t-31.5 -73t-11 -84q0 -14 7 -33t26 -39.5t52.5 -41t85.5 -37t125.5 -28.5t173.5 -15q43 64 82.5 136t70 148t51.5 154t27 155v-1z" />
    <glyph glyph-name="semicolon" unicode=";" horiz-adv-x="314" 
d="M95 -128v-1q12 19 23.5 39.5t21 41t15.5 41t6 40.5q0 24 -13.5 48t-46.5 48q0 21 7 32t17 16t21.5 5.5t21.5 0.5q28 0 45 -15.5t26.5 -38.5t12.5 -50t3 -49q-5 -23 -13 -53.5t-24 -60.5t-42 -57t-67 -43h-8h-7t-13.5 0.5t-13.5 0.5h-6zM201 380q7 -5 10 -22.5t0 -36.5
t-15 -34t-35 -15q-8 0 -19.5 2.5t-25.5 10.5q-11 24 -5.5 47t19.5 38t34 19t37 -9z" />
    <glyph glyph-name="question" unicode="?" horiz-adv-x="526" 
d="M159 66q4 12 12.5 22t19 17.5t21.5 11.5t20 4q13 0 23 -6t13 -19.5t-3.5 -36t-25.5 -55.5q-21 -11 -36 -8.5t-25 12.5t-14.5 25.5t-4.5 32.5zM408 618q0 10 -7 18t-17 13t-21.5 7.5t-20.5 2.5q-40 0 -76.5 -19t-69 -49.5t-59.5 -69t-49 -77.5h-51q0 66 30 123t75.5 98.5
t99 65t100.5 23.5q16 0 44 -9.5t55 -27t46.5 -41.5t19.5 -52q-7 -37 -28 -79t-51.5 -84.5t-68.5 -81.5t-78 -68.5t-79.5 -47.5t-73.5 -18q0 23 9 43t24.5 38.5t35.5 35t42 33.5q28 22 58 46.5t54.5 52t40.5 58.5t16 66z" />
    <glyph glyph-name="j" unicode="j" horiz-adv-x="226" 
d="M-164 -349q-3 9 5 18t19.5 16t22.5 10t16 0l-5 6q32 -25 63.5 -36t58.5 -11q46 0 75.5 26.5t31.5 64.5q-1 30 -4 80.5t-7.5 113t-10.5 133t-12 140.5t-12.5 135t-11.5 116t-9.5 84t-6.5 40q0 5 8 13t20 14.5t27 9.5t29 0q8 -51 17 -124t17.5 -156t16 -171t13.5 -170
t9.5 -152.5t4.5 -118.5q0 -44 -15 -74.5t-40.5 -49.5t-58.5 -27t-68 -8q-29 0 -58.5 5.5t-55 15t-45.5 23t-31 28.5zM44 751q17 3 32.5 -5t23.5 -22.5t7.5 -32.5t-15.5 -36q-26 -8 -43 -7t-27 7t-14.5 16.5t-4.5 22.5q0 20 12 37.5t29 19.5z" />
    <glyph glyph-name="period" unicode="." horiz-adv-x="140" 
d="M107 84q8 -6 12 -18.5t4 -25.5q0 -21 -10.5 -39t-39.5 -18q-8 0 -20 3t-27 11q-12 25 -7 46.5t18.5 35t32.5 16t37 -10.5z" />
    <glyph glyph-name="tilde" unicode="&#x2dc;" horiz-adv-x="462" 
d="M11 660q0 10 4.5 31.5t16 43t30 37.5t46.5 16q33 0 57.5 -13.5t47.5 -30.5q19 -14 39.5 -26t46.5 -12q19 -1 35.5 8t30 22.5t23 28.5t15.5 26q5 2 13.5 -3.5t17 -14t14.5 -18.5t6 -18l3 7q0 -20 -15.5 -39.5t-38.5 -36t-50 -26.5t-50 -10q-56 1 -100 25t-89 57
q-12 -4 -16.5 -21.5t-7.5 -34.5q-2 -11 -4.5 -21.5t-9.5 -26.5q-15 0 -27 6t-20.5 14t-13 16.5t-4.5 13.5z" />
    <glyph glyph-name="grave" unicode="`" horiz-adv-x="170" 
d="M7 778q8 14 15 22t15 11.5t17 4t21 0.5l83 -111q0 -9 -4.5 -21.5t-14 -22t-23 -13.5t-30.5 5z" />
    <glyph glyph-name="acute" unicode="&#xb4;" horiz-adv-x="174" 
d="M96 646q-25 -7 -38 -4.5t-20 9.5t-11 17t-12 18l83 111q12 0 21 -0.5t16.5 -4.5t15 -11.5t15.5 -22.5z" />
    <glyph glyph-name="circumflex" unicode="&#x2c6;" horiz-adv-x="248" 
d="M86 794q12 20 25.5 24t36.5 4l87 -117q0 -5 -1.5 -15t-9 -19t-24 -12t-45.5 6l-28 33q-6 -10 -10 -16.5t-10 -16.5q-10 -13 -23 -16.5t-25.5 -0.5t-23.5 12t-17 21z" />
    <glyph glyph-name="caron" unicode="&#x2c7;" horiz-adv-x="286" 
d="M166 638q-11 -17 -24.5 -21.5t-35.5 -4.5l-106 127l6 12q4 13 8 24.5t11 17t18.5 2.5t30.5 -18l50 -64q13 16 25 31.5t25 30.5q17 19 29 24.5t20.5 0t14 -19.5t8.5 -35z" />
    <glyph glyph-name="dieresis" unicode="&#xa8;" horiz-adv-x="312" 
d="M53 643q-9 13 -8 29.5t8.5 30t20 23t26.5 9.5q12 0 22.5 -5.5t20.5 -19.5l-2 2q10 -13 9.5 -29t-8 -30.5t-20.5 -24.5t-27 -10q-12 0 -22 5.5t-20 19.5zM183 646q-9 12 -8.5 28t8 30.5t20 24.5t26.5 10q24 0 42 -24l-1 1q11 -12 12 -29t-5 -32t-18.5 -25.5t-28.5 -10.5
q-24 0 -46 26z" />
    <glyph glyph-name="cedilla" unicode="&#xb8;" horiz-adv-x="302" 
d="M58 -179q-4 11 5 20.5t22 15.5t26 6t17 -8q7 -20 24 -31t34 -11q9 0 16.5 5t9.5 13q-2 20 -17 34.5t-34 25.5q-14 9 -27.5 18t-24 21t-17.5 27.5t-7 36.5q-8 38 3.5 53.5t28.5 15.5q8 0 17 -5t15.5 -14.5t10.5 -22.5t2 -28q5 -7 14.5 -14t21.5 -15h-1q15 -11 31 -23.5
t29.5 -27.5t22 -34t8.5 -43q-2 -55 -28.5 -80.5t-64.5 -25.5q-35 0 -72.5 23t-62.5 65z" />
    <glyph glyph-name="ring" unicode="&#x2da;" horiz-adv-x="226" 
d="M95 636q-47 1 -67 19.5t-20 42.5q0 18 11 36t29.5 32.5t43 22t52.5 3.5q41 -11 59.5 -31t18.5 -42q0 -16 -9 -31.5t-25.5 -27.5t-40 -19t-52.5 -5zM126 722q-17 0 -28 -4.5t-11 -9.5q0 -3 13 -8q20 2 31.5 7t11.5 10q0 4 -17 5z" />
    <glyph glyph-name="fi" unicode="&#xfb01;" horiz-adv-x="597" 
d="M179 388q-17 -4 -34.5 -12.5t-34.5 -16.5h1q-8 -5 -19.5 -10t-19.5 -9q-13 0 -21 0.5t-13.5 4.5t-9 11.5t-7.5 22.5q0 17 12 31t31 25t41.5 20t42.5 16q7 2 15.5 6t15.5 7v9q2 33 3 67t3 65q3 33 10.5 64t23 54t41 37t63.5 14q42 0 64.5 -26t23.5 -64q2 -17 -1.5 -27.5
t-10.5 -16.5t-16 -8.5t-18 -3.5q-7 -2 -17.5 -3.5t-12.5 -2.5q-7 33 -13 47t-11 14q-14 0 -25 -21.5t-13 -49.5q0 -18 -0.5 -33t-0.5 -29.5t-0.5 -29t-0.5 -32.5q18 7 49.5 22t62.5 31q27 14 49 25.5t36 14.5q12 6 23.5 5.5t18.5 -8.5t7.5 -24t-10.5 -40l-233 -119
q-3 -62 -4 -128.5t-1 -135.5q0 -48 1 -95.5t3 -82.5q-28 -32 -48 -32q-30 0 -38 38zM501 631q22 -74 35 -159t20 -168t9.5 -156.5t4.5 -123.5q0 -35 -22.5 -41t-57.5 0q-4 45 -8 98t-7 99q-7 100 -16 205.5t-26 212.5zM530 724q0 -10 -14 -23.5t-34 -18.5t-41 3t-35 42
q0 24 27 44q16 5 33 2.5t31.5 -10t23.5 -18t9 -21.5z" />
    <glyph glyph-name="fl" unicode="&#xfb02;" horiz-adv-x="615" 
d="M179 388q-17 -4 -34.5 -12.5t-34.5 -16.5h1q-8 -5 -19.5 -10t-19.5 -9q-13 0 -21 0.5t-13.5 4.5t-9 11.5t-7.5 22.5q0 17 12 31t31 25t41.5 20t42.5 16q7 2 15.5 6t15.5 7v9q2 33 3 67t3 65q3 33 10.5 64t23 54t41 37t63.5 14q42 0 64.5 -26t23.5 -64q2 -17 -1.5 -27.5
t-10.5 -16.5t-16 -8.5t-18 -3.5q-7 -2 -17.5 -3.5t-12.5 -2.5q-7 33 -13 47t-11 14q-14 0 -25 -21.5t-13 -49.5q0 -18 -0.5 -33t-0.5 -29.5t-0.5 -29t-0.5 -32.5q18 7 49.5 22t62.5 31q27 14 49 25.5t36 14.5q12 6 23.5 5.5t18.5 -8.5t7.5 -24t-10.5 -40l-233 -119
q-3 -62 -4 -128.5t-1 -135.5q0 -48 1 -95.5t3 -82.5q-28 -32 -48 -32q-30 0 -38 38zM511 700q10 -144 16 -246t10 -171.5t6 -112t3 -66.5q1 -18 1.5 -27.5t1 -15t1 -9t2.5 -8.5q2 -8 5 -17q4 -20 -12 -37.5t-38 -17.5q-25 0 -46 28l-32 704q2 24 14 39t26 15q13 0 25 -13
t17 -42v-3z" />
    <glyph glyph-name="Lslash" unicode="&#x141;" horiz-adv-x="555" 
d="M44 30q-8 42 -13 98t-8 122q-17 -8 -30.5 -13t-25.5 -5q-23 0 -34 16t-9 51l95 69q-2 47 -2 95t-1 91q0 19 -0.5 42.5t-1 46.5t-1 43.5t-0.5 34.5q35 0 54 -5.5t27.5 -15.5t9 -24.5t-1.5 -32.5q-1 -9 -2 -20.5t-1 -19.5q1 -23 2 -62.5t6 -109.5q33 24 67.5 48.5
t64.5 46.5l53 -78q-9 -7 -29 -23t-36 -29v1q-26 -21 -53 -43.5t-58 -45.5q2 -20 2.5 -42.5t2.5 -41.5q4 -57 6.5 -94t3.5 -57q14 0 42 7.5t62.5 18t72 23t72.5 23.5q44 14 75.5 24t41.5 11q21 0 27.5 -8t11.5 -20q2 -6 5.5 -13l7.5 -15q-11 -6 -46.5 -20t-83 -30.5t-101 -34
t-100.5 -31t-82 -22t-44 -6.5q-4 1 -11.5 7t-15 13.5t-13.5 15t-7 12.5z" />
    <glyph glyph-name="lslash" unicode="&#x142;" horiz-adv-x="178" 
d="M97 709q10 -144 16 -246t10 -171.5t6 -112t3 -66.5q1 -18 1.5 -27.5t1 -15t1 -9t2.5 -8.5q2 -8 5 -17q4 -20 -12 -37.5t-38 -17.5q-25 0 -46 28l-32 704q2 24 14 39t26 15q13 0 25 -13t17 -42v-3zM170.941 335q-5.02344 0 -15.3496 -2t-23.1641 -4
q-20.6523 -5 -46.0488 -9t-48.8398 -4q-18.4189 0 -33.7686 4.5t-25.1182 16q-9.76758 11.5 -12.5586 30t3.34961 47.5l212.661 15v-74z" />
    <glyph glyph-name="Zcaron" unicode="&#x17d;" horiz-adv-x="653" 
d="M198 -56q-61 1 -85 25.5t-24 62.5q0 34 11 66.5t27 63.5t33 62t28 63q-8 -2 -17 -5.5t-17 -6.5q-14 -6 -26 -10.5t-22.5 -3.5t-18.5 9t-13 28q0 22 8.5 35.5t22 21.5t31 12.5t35.5 8.5q23 5 44 11t27 19l-1 -1q10 27 22 52.5t22.5 51.5t19 53.5t12.5 57.5
q-35 1 -64.5 -4.5t-54 -14.5t-45.5 -19.5t-38 -20.5q-11 -6 -24 -12.5l-27 -13.5q-20 0 -36 12.5t-19 32.5q6 16 25.5 32.5t47 32t60.5 28.5t66.5 22.5t64.5 15t55 5.5q18 0 42 -6q22 -8 31 -25.5t9 -43.5q0 -29 -11 -66.5t-24 -76.5q-5 -14 -8 -22.5t-6 -16.5t-5 -16.5
t-5 -20.5q7 1 15 2.5t14 2.5q22 3 43 6.5t44 6.5t48.5 6t57.5 5q4 -38 -4.5 -59.5t-26.5 -33t-43 -15t-53 -6.5q-32 -3 -66.5 -7.5t-66.5 -19.5q-8 -15 -19 -35t-23 -42q-13 -24 -27 -49.5t-26 -51t-21 -49t-13 -41.5q11 -5 23.5 -6.5t28.5 -1.5q46 0 105 19.5t115 48.5
t100.5 62.5t62.5 62.5q12 -25 19 -42.5t7 -28.5q0 -30 -24.5 -56.5t-64 -49t-88.5 -41t-98.5 -32t-94.5 -22t-75 -11.5h-2zM303 723q-11 -17 -24.5 -21.5t-35.5 -4.5l-106 127l6 12q4 13 8 24.5t11 17t18.5 2.5t30.5 -18l50 -64q13 16 25 31.5t25 30.5q17 19 29 24.5t20.5 0
t14 -19.5t8.5 -35z" />
    <glyph glyph-name="zcaron" unicode="&#x17e;" horiz-adv-x="571" 
d="M197 -27q-60 4 -84 37t-24 81q0 31 8 65.5t20 68.5t26.5 65.5t27.5 57.5q-42 -11 -83 -22t-78 -20q-4 37 5.5 59t27 34.5t41 18.5t49.5 11q24 4 50 11t43 17q28 56 55 113q-27 -1 -52 -10.5t-48 -21.5q-29 -14 -62 -26.5t-81 -10.5q-10 19 1.5 37.5t36.5 36t60.5 32.5
t73 26t74.5 17t65 6q28 -10 39 -21t11 -28q0 -12 -6.5 -25.5t-17.5 -32.5q-9 -15 -19.5 -35t-22.5 -49q20 7 40.5 14t38.5 12q18 -13 13.5 -33.5t-24.5 -41.5t-54 -38t-76 -24q-13 -23 -29 -56.5t-30 -70t-23.5 -71.5t-9.5 -61q0 -15 5 -24t17 -8q43 -6 87 14.5t83.5 52
t71 67t49.5 58.5q3 -38 -10 -74t-36.5 -67.5t-55 -58t-65 -45t-67 -28.5t-61.5 -9zM270 709q-11 -17 -24.5 -21.5t-35.5 -4.5l-106 127l6 12q4 13 8 24.5t11 17t18.5 2.5t30.5 -18l50 -64q13 16 25 31.5t25 30.5q17 19 29 24.5t20.5 0t14 -19.5t8.5 -35z" />
    <glyph glyph-name="florin" unicode="&#x192;" horiz-adv-x="522" 
d="M86 -255q23 -11 45 -11q24 0 40 17.5t25 47.5t13 70t4 85q0 37 -2.5 76t-6 77t-7.5 73.5t-7 65.5v-1q-2 16 -3.5 31t-2.5 27q-9 -3 -26.5 -10.5t-35 -15.5t-31.5 -14.5t-18 -7.5h-24q-3 1 -8 4.5t-9.5 8t-8.5 8t-5 5.5q-1 3 -2 7q-2 8 -2 11q0 17 12.5 30.5t32 24.5
t43 19.5t44.5 16.5q15 5 21 6.5t13 5.5v42t-1 52v-1q-1 25 -1.5 50t-0.5 45v17.5t1 14.5q3 32 11.5 62t24.5 53.5t41.5 37.5t62.5 14q21 0 37.5 -9t27.5 -23t17 -32t6 -37q0 -20 -9 -26.5t-21 -11.5q-2 -1 -5 -3t-7.5 -6.5t-12 -13t-17.5 -21.5q-9 45 -16 64.5t-12 19.5
q-13 0 -24.5 -21t-13.5 -47q5 -51 8 -95.5t8 -95.5q16 6 45.5 20.5t58.5 29.5q27 14 50 25t34 13q3 0 9.5 -7t13.5 -18t13 -24.5t8 -26.5l-233 -117q-4 -15 -4 -42q0 -29 3.5 -67.5t8.5 -81.5q6 -54 11 -113.5t5 -116.5q0 -56 -7.5 -105.5t-26 -87t-51.5 -59.5t-84 -22
q-31 0 -79 12q-19 14 -27 31t-8 33q0 28 17.5 42t47.5 -5z" />
    <glyph glyph-name="Scaron" unicode="&#x160;" horiz-adv-x="505" 
d="M277 -22q-19 0 -42.5 4.5t-46 12.5t-40.5 20t-26.5 28t-4 34.5t27.5 40.5q24 -20 40.5 -31t29.5 -16.5t24 -7t24 -1.5q23 0 48.5 11.5t47 29.5t35.5 40.5t14 45.5q0 22 -16 38.5t-42 28.5t-59 21.5t-67 17.5q-35 9 -73 21.5t-69.5 29.5t-52 40.5t-20.5 54.5q0 47 19 94.5
t51.5 86t76 63t91.5 24.5q33 0 58.5 -11.5t43 -31.5t26.5 -47t9 -58q0 -19 -1 -35t-3.5 -32.5t-6.5 -35t-10 -40.5q-5 -11 -16.5 -14t-23.5 2.5t-21.5 20.5t-9.5 40q0 17 2.5 43.5t0 51t-14.5 42.5t-41 18q-26 0 -51.5 -14t-45 -36t-31.5 -50t-12 -56q0 -18 15.5 -33
t40.5 -27t57 -22t65 -20q40 -12 79 -24.5t69.5 -30t49.5 -40.5t19 -56q0 -40 -18.5 -82t-49 -76t-69.5 -55.5t-80 -21.5zM288 724q-11 -17 -24.5 -21.5t-35.5 -4.5l-106 127l6 12q4 13 8 24.5t11 17t18.5 2.5t30.5 -18l50 -64q13 16 25 31.5t25 30.5q17 19 29 24.5t20.5 0
t14 -19.5t8.5 -35z" />
    <glyph glyph-name="OE" unicode="&#x152;" horiz-adv-x="776" 
d="M152 -20q-31 6 -54 29.5t-38.5 59.5t-23 82t-7.5 96q0 69 14 140t41.5 128t67.5 93.5t92 36.5q13 0 26.5 -2t28.5 -8q30 29 67 47.5t79 18.5q18 -1 34.5 -10t29 -22t19.5 -27.5t7 -27.5q0 -17 -13.5 -29t-44.5 -14q-8 25 -28.5 38.5t-43.5 9.5q-21 -5 -44.5 -26.5
t-43.5 -50.5t-33.5 -61t-13.5 -57q0 -16 9 -26t30 -11q24 -1 49 12.5t49 30.5q23 15 46 28t47 14q6 0 15 -0.5t18 -4t15 -11.5t6 -22q0 -26 -29.5 -49.5t-69.5 -48.5q-29 -18 -60.5 -40t-58 -47.5t-44 -55t-17.5 -63.5q0 -21 7.5 -35t20.5 -22t30.5 -11t36.5 -3
q52 0 100.5 19t93 49.5t84 68.5t74.5 77h48q0 -33 -21.5 -68t-56 -69t-77.5 -64t-86 -53t-81 -36.5t-63 -13.5q-36 0 -76 8.5t-72 30.5q-20 -11 -41.5 -20.5t-41.5 -7.5h-2zM188 78q-4 13 -4 33q-1 25 6.5 49t19 46t25.5 42.5t27 37.5q5 6 9 12t8 11q-14 2 -31.5 7t-32 15.5
t-23.5 28t-6 43.5q5 39 20.5 82t40.5 83q-31 0 -57 -29.5t-44.5 -75.5t-29 -102.5t-10.5 -111.5q0 -60 12.5 -107t43.5 -68q12 -1 26 4zM300 306q2 0 5 -0.5t4 -0.5l-20 24q-2 -9 -10 -20q12 -3 21 -3z" />
    <glyph glyph-name="trademark" unicode="&#x2122;" horiz-adv-x="1200" 
d="M1047 304q-8 63 -15 123t-18 107q-8 -25 -17.5 -53.5t-18 -54.5t-16 -47t-10.5 -30q-3 -8 -6 -17.5t-7 -20.5q-11 -32 -24.5 -71t-32 -72.5t-44 -56t-59.5 -22.5q-25 0 -45.5 8.5t-37.5 22.5t-30.5 32.5t-23.5 39.5v-114l-1 2q0 -9 -13 -16.5t-29 -11.5t-30 -2.5
t-17 10.5q-1 19 -2 58.5t-3 89.5t-3.5 105.5t-3 105.5t-3 90t-1.5 59q0 2 -0.5 3.5t-0.5 3.5q-1 4 -1 8.5v8.5q-85 -14 -161 -32t-143 -34q-13 -3 -28.5 -7t-27.5 -7q-1 0 -8.5 -2t-17.5 -5.5t-21.5 -7.5t-20.5 -7h1q-8 -3 -15 -5t-9 -3t-4 -1q-2 -1 -5 -1q-4 -1 -8 -1h-5
q-20 0 -37.5 10t-17.5 36q0 19 13.5 31.5t33.5 21t42 13.5t40 8l-1 -1q6 2 11.5 3t9.5 2l-1 -1q76 18 148 31.5t144.5 22t148 13t158.5 4.5v-60q-19 0 -33 -0.5l-28 -1t-29 -2t-36 -4.5q21 -32 32 -83.5t19 -108.5q6 -42 13 -83t18 -74.5t26.5 -55t38.5 -22.5
q42 73 75 157.5t60 162.5q17 51 39.5 109.5t52.5 125.5q24 8 39.5 7t25 -9.5t14 -24t4.5 -35.5q25 -139 49.5 -279t49.5 -279v-14q0 -14 0.5 -31.5t-3 -34t-12 -29t-25.5 -14.5q-22 0 -37.5 26.5t-26 70.5t-18 100.5t-14.5 116.5zM287 -90v28t0.5 41t0.5 50v54
q0 55 -0.5 103.5t-0.5 68.5q0 10 -2.5 48t-5.5 82.5t-5.5 82.5t-3.5 48q0 28 9 40t23 12q15 0 32 -20t25 -42q6 -104 9 -213.5t6 -237.5v1q1 -19 1 -38.5t1 -39.5q0 -15 -1.5 -30t-8.5 -27t-20 -20.5t-37 -10.5z" />
    <glyph glyph-name="scaron" unicode="&#x161;" horiz-adv-x="407" 
d="M206 -22q-35 3 -67 9t-58 18.5t-43.5 32t-21.5 48.5q36 0 59 -5t43 -10q19 -6 39 -10.5t40 -4.5q17 0 36.5 4.5t35.5 13.5t26.5 23t10.5 34q0 19 -11 39t-28 41t-38 41t-42 39q-26 23 -52 47.5t-46.5 51t-33.5 55t-13 59.5t17.5 57t44 44.5t57 29t57.5 10.5q22 2 45 -6
t40 -24.5t25.5 -41.5t0.5 -57l1 1q-5 -26 -15.5 -36t-22.5 -10t-23.5 10t-22.5 24v20.5t-1.5 19t-5 14t-10.5 5.5q-16 0 -33 -4.5t-31.5 -13.5t-24 -22.5t-9.5 -30.5q-3 -9 4.5 -22.5t21 -29.5t33 -34.5t40.5 -38.5q31 -29 62.5 -60.5t55.5 -63.5t36 -65t5 -65v2
q-4 -41 -19.5 -68t-39.5 -42.5t-55.5 -21.5t-67.5 -6h-1zM207 683q-11 -17 -24.5 -21.5t-35.5 -4.5l-106 127l6 12q4 13 8 24.5t11 17t18.5 2.5t30.5 -18l50 -64q13 16 25 31.5t25 30.5q17 19 29 24.5t20.5 0t14 -19.5t8.5 -35z" />
    <glyph glyph-name="oe" unicode="&#x153;" horiz-adv-x="546" 
d="M9 182q-1 8 -1 16.5v16.5q0 72 16 145t44.5 132.5t67.5 96.5t84 37q25 0 47.5 -9.5t47.5 -34.5q29 38 59 51t68 4q8 -1 19.5 -9t22 -23t17.5 -37.5t7 -53.5q0 -33 -11 -77t-38 -98.5t-73 -120.5t-117 -143q15 -13 32 -13q28 0 60.5 21.5t61.5 51t51.5 59.5t30.5 48
q22 -18 31.5 -33.5t9.5 -28.5q0 -20 -13.5 -43t-35.5 -46.5t-49.5 -45.5t-56 -38.5t-54.5 -25.5t-45 -8q-43 2 -78 32q-38 -23 -86 -28q-37 7 -59.5 30t-35.5 53.5t-18 63.5t-6 59v-1zM162 115q0 32 8 82t22.5 106.5t35 113.5t46.5 104q-11 8 -19 10t-18 2q-32 0 -58.5 -31
t-45 -79t-29 -105.5t-10.5 -109.5q0 -49 10 -87t30 -52q14 3 31 13q-2 8 -2.5 16t-0.5 17zM413 521q0 15 -4 19q-14 -2 -28.5 -21.5t-29 -50t-29 -68t-26.5 -76t-21.5 -74t-14.5 -60.5q21 18 47.5 59.5t50 91t39.5 99t16 81.5zM409 540q1 0 1.5 0.5t1.5 0.5l-4 1
q0 -1 0.5 -1t0.5 -1z" />
    <glyph glyph-name="Ydieresis" unicode="&#x178;" horiz-adv-x="456" 
d="M237 249q-70 80 -130.5 177.5t-103.5 198.5q16 32 34 33t38.5 -19t42 -56t45.5 -78q23 -40 46.5 -79.5t46.5 -68.5q2 11 5 23.5t5 26.5q8 50 19.5 109t26.5 110t34.5 85t43.5 34q11 0 22.5 -8t25.5 -27q-32 -80 -55.5 -158t-38.5 -160.5t-22 -171.5t-7 -189v-47
q-9 -19 -19 -29.5t-24 -10.5q-23 0 -44 34zM87 728q-9 13 -8 29.5t8.5 30t20 23t26.5 9.5q12 0 22.5 -5.5t20.5 -19.5l-2 2q10 -13 9.5 -29t-8 -30.5t-20.5 -24.5t-27 -10q-12 0 -22 5.5t-20 19.5zM217 731q-9 12 -8.5 28t8 30.5t20 24.5t26.5 10q24 0 42 -24l-1 1
q11 -12 12 -29t-5 -32t-18.5 -25.5t-28.5 -10.5q-24 0 -46 26z" />
    <glyph glyph-name="exclamdown" unicode="&#xa1;" horiz-adv-x="148" 
d="M124.553 533.662q-10.6904 25.6094 -30.4658 28.3525q-19.7764 2.74414 -41.1553 0.915039h-23.5176l8.55176 -546.938q1.06934 -10.9756 13.3623 -18.75t27.793 -9.14648q15.5 -1.37109 29.3965 4.57324q13.8965 5.94531 17.1035 22.4082zM106.38 603.173
q8.55176 5.4873 12.8271 16.9199q4.27637 11.4326 4.27637 23.3232q0 19.2061 -11.2246 35.6689q-11.2236 16.4639 -42.2236 16.4639q-8.55176 0 -21.3799 -2.74414q-12.8271 -2.74414 -28.8623 -10.0605q-12.8271 -22.8652 -7.48242 -42.5293
q5.34473 -19.665 19.7754 -32.0117q14.4316 -12.3477 34.7422 -14.6338q20.3105 -2.28711 39.5518 9.60352z" />
    <glyph glyph-name="yen" unicode="&#xa5;" horiz-adv-x="456" 
d="M343 226q-1 -4 -1 -12h16q11 0 32 -0.5t35 -1.5h31v-86l-54 -10q-6 0 -13.5 -0.5t-12.5 -0.5q-13 -1 -21.5 -1h-19.5q-1 -8 -1 -14.5t-1 -14.5q-1 -12 -1.5 -23.5t-1.5 -23.5v-10q-2 -4 -8 -11t-13 -14.5t-13 -13.5t-9 -7l-8 -2q-8 -2 -10 -2q-4 0 -10 2q-4 1 -6 2
q-3 2 -8 7t-9.5 10.5t-8 10.5t-3.5 6v89q-22 -4 -46.5 -9.5t-62.5 -15.5l-5 -1q-1 0 -4.5 -1.5t-6.5 -3.5q-11 -5 -22.5 -8t-15.5 -3q-14 0 -22 6.5t-11.5 15.5t-4 18t-0.5 14q0 18 18 32t47 24.5t65 17.5t72 12v17q-11 -1 -20 -2t-17 -2q-14 -2 -31.5 -3.5t-49.5 -1.5
q-8 0 -16.5 0.5t-16.5 4t-15.5 12.5t-11.5 26q26 39 52.5 51.5t55.5 12.5q11 0 21 -1t21 -2q-19 25 -39 54t-30 48q-15 30 -33.5 75.5t-35 89t-26.5 75.5t-7 35q11 3 29 9t29 9q5 -11 14.5 -33.5t17.5 -39.5q12 -29 27 -63t32 -66.5t35 -61.5t38 -49q2 14 5 31.5t6 37.5
q5 33 11 70.5t13.5 74t16 69.5t19.5 58t24 40t29 15q21 0 47 -33q-15 -74 -25.5 -131t-18 -108t-13 -101t-11.5 -109q8 0 14.5 0.5t11.5 0.5h12q12 0 17.5 -4.5t7.5 -11.5t2 -14.5v-14.5v-20z" />
    <glyph glyph-name="questiondown" unicode="&#xbf;" horiz-adv-x="511" 
d="M371.35 691.154q-3.99121 -12.1543 -12.4727 -22.2822t-18.958 -17.7246q-10.4775 -7.5957 -21.4531 -11.6475q-10.9756 -4.05078 -19.9561 -4.05078q-12.9717 0 -22.9492 6.07715q-9.97852 6.07617 -12.9717 19.75q-2.99316 13.6729 3.49219 36.4609t25.4443 56.2119
q20.9531 11.1406 35.9209 8.6084q14.9668 -2.53223 24.9443 -12.6602q9.97852 -10.1279 14.4688 -25.8271q4.49023 -15.6982 4.49023 -32.916zM122.896 132.079q0 -10.1279 6.98438 -18.2314q6.98438 -8.10156 16.9629 -13.166t21.4531 -7.59668
q11.4746 -2.53125 20.4551 -2.53125q39.9121 0 76.3311 19.2432q36.4199 19.2432 68.8486 50.1348q32.4287 30.8906 59.3691 69.8838q26.9414 38.9941 48.8926 78.4932h50.8877q0 -66.8457 -29.9336 -124.576q-29.9346 -57.7305 -75.334 -99.7627
q-45.4004 -42.0312 -98.7832 -65.833q-53.3818 -23.8008 -100.278 -23.8008q-15.9648 0 -43.9043 9.62109q-27.9375 9.62207 -54.8789 27.3467q-26.9404 17.7236 -46.3975 42.0322q-19.457 24.3066 -19.457 52.666q6.98438 37.4746 27.9385 80.0127
q20.9531 42.5381 51.3867 85.583q30.4326 43.0449 68.3496 82.5449q37.916 39.5 77.8281 69.3779t79.3252 48.1084t73.3389 18.2305q0 -23.2949 -8.98047 -43.5508t-24.4463 -38.9932t-35.4219 -35.4492q-19.9561 -16.7109 -41.9072 -33.9287
q-27.9385 -22.2822 -57.873 -47.0967q-29.9336 -24.8135 -54.3799 -52.666t-40.4111 -59.25t-15.9648 -66.8457z" />
    <glyph glyph-name="Agrave" unicode="&#xc0;" horiz-adv-x="604" 
d="M138 317q10 36 20 72.5t19 67t15 52.5t8 30q2 6 3 12.5t3 15.5q5 25 12 55.5t19 56t30 43t44 17.5q12 0 22.5 -7.5t18.5 -18.5t13 -22.5t7 -18.5l-1 1q24 -96 39 -157t23.5 -97t12 -51.5t4.5 -20.5q18 9 37.5 14t53.5 2q0 -18 -3 -30.5t-8 -21.5t-11.5 -15t-12.5 -12
q-8 -7 -14.5 -14.5t-6.5 -17.5q0 -32 14.5 -64t31.5 -61q20 -33 35 -68.5t15 -80.5q-33 -17 -55 -13t-37.5 22.5t-26 47t-19.5 59.5q-11 36 -27 73.5t-35 56.5q-7 -2 -24.5 -8t-39.5 -14.5t-46 -19t-44.5 -21.5t-35 -21.5t-17.5 -19.5v1q-16 -49 -32.5 -99t-32.5 -99
q-9 -23 -23 -27t-29 -4q-20 0 -36.5 10.5t-16.5 36.5zM214 251q16 3 37.5 8.5t44 13.5t43.5 18t37 24q-6 25 -15.5 67t-20.5 85t-22 79t-20 49zM204 918q8 14 15 22t15 11.5t17 4t21 0.5l83 -111q0 -9 -4.5 -21.5t-14 -22t-23 -13.5t-30.5 5z" />
    <glyph glyph-name="Aacute" unicode="&#xc1;" horiz-adv-x="604" 
d="M138 317q10 36 20 72.5t19 67t15 52.5t8 30q2 6 3 12.5t3 15.5q5 25 12 55.5t19 56t30 43t44 17.5q12 0 22.5 -7.5t18.5 -18.5t13 -22.5t7 -18.5l-1 1q24 -96 39 -157t23.5 -97t12 -51.5t4.5 -20.5q18 9 37.5 14t53.5 2q0 -18 -3 -30.5t-8 -21.5t-11.5 -15t-12.5 -12
q-8 -7 -14.5 -14.5t-6.5 -17.5q0 -32 14.5 -64t31.5 -61q20 -33 35 -68.5t15 -80.5q-33 -17 -55 -13t-37.5 22.5t-26 47t-19.5 59.5q-11 36 -27 73.5t-35 56.5q-7 -2 -24.5 -8t-39.5 -14.5t-46 -19t-44.5 -21.5t-35 -21.5t-17.5 -19.5v1q-16 -49 -32.5 -99t-32.5 -99
q-9 -23 -23 -27t-29 -4q-20 0 -36.5 10.5t-16.5 36.5zM214 251q16 3 37.5 8.5t44 13.5t43.5 18t37 24q-6 25 -15.5 67t-20.5 85t-22 79t-20 49zM314 754q-25 -7 -38 -4.5t-20 9.5t-11 17t-12 18l83 111q12 0 21 -0.5t16.5 -4.5t15 -11.5t15.5 -22.5z" />
    <glyph glyph-name="Acircumflex" unicode="&#xc2;" horiz-adv-x="604" 
d="M138 317q10 36 20 72.5t19 67t15 52.5t8 30q2 6 3 12.5t3 15.5q5 25 12 55.5t19 56t30 43t44 17.5q12 0 22.5 -7.5t18.5 -18.5t13 -22.5t7 -18.5l-1 1q24 -96 39 -157t23.5 -97t12 -51.5t4.5 -20.5q18 9 37.5 14t53.5 2q0 -18 -3 -30.5t-8 -21.5t-11.5 -15t-12.5 -12
q-8 -7 -14.5 -14.5t-6.5 -17.5q0 -32 14.5 -64t31.5 -61q20 -33 35 -68.5t15 -80.5q-33 -17 -55 -13t-37.5 22.5t-26 47t-19.5 59.5q-11 36 -27 73.5t-35 56.5q-7 -2 -24.5 -8t-39.5 -14.5t-46 -19t-44.5 -21.5t-35 -21.5t-17.5 -19.5v1q-16 -49 -32.5 -99t-32.5 -99
q-9 -23 -23 -27t-29 -4q-20 0 -36.5 10.5t-16.5 36.5zM214 251q16 3 37.5 8.5t44 13.5t43.5 18t37 24q-6 25 -15.5 67t-20.5 85t-22 79t-20 49zM258 922q12 20 25.5 24t36.5 4l87 -117q0 -5 -1.5 -15t-9 -19t-24 -12t-45.5 6l-28 33q-6 -10 -10 -16.5t-10 -16.5
q-10 -13 -23 -16.5t-25.5 -0.5t-23.5 12t-17 21z" />
    <glyph glyph-name="Atilde" unicode="&#xc3;" horiz-adv-x="604" 
d="M138 317q10 36 20 72.5t19 67t15 52.5t8 30q2 6 3 12.5t3 15.5q5 25 12 55.5t19 56t30 43t44 17.5q12 0 22.5 -7.5t18.5 -18.5t13 -22.5t7 -18.5l-1 1q24 -96 39 -157t23.5 -97t12 -51.5t4.5 -20.5q18 9 37.5 14t53.5 2q0 -18 -3 -30.5t-8 -21.5t-11.5 -15t-12.5 -12
q-8 -7 -14.5 -14.5t-6.5 -17.5q0 -32 14.5 -64t31.5 -61q20 -33 35 -68.5t15 -80.5q-33 -17 -55 -13t-37.5 22.5t-26 47t-19.5 59.5q-11 36 -27 73.5t-35 56.5q-7 -2 -24.5 -8t-39.5 -14.5t-46 -19t-44.5 -21.5t-35 -21.5t-17.5 -19.5v1q-16 -49 -32.5 -99t-32.5 -99
q-9 -23 -23 -27t-29 -4q-20 0 -36.5 10.5t-16.5 36.5zM214 251q16 3 37.5 8.5t44 13.5t43.5 18t37 24q-6 25 -15.5 67t-20.5 85t-22 79t-20 49zM127 755q0 10 4.5 31.5t16 43t30 37.5t46.5 16q33 0 57.5 -13.5t47.5 -30.5q19 -14 39.5 -26t46.5 -12q19 -1 35.5 8t30 22.5
t23 28.5t15.5 26q5 2 13.5 -3.5t17 -14t14.5 -18.5t6 -18l3 7q0 -20 -15.5 -39.5t-38.5 -36t-50 -26.5t-50 -10q-56 1 -100 25t-89 57q-12 -4 -16.5 -21.5t-7.5 -34.5q-2 -11 -4.5 -21.5t-9.5 -26.5q-15 0 -27 6t-20.5 14t-13 16.5t-4.5 13.5z" />
    <glyph glyph-name="Adieresis" unicode="&#xc4;" horiz-adv-x="604" 
d="M138 317q10 36 20 72.5t19 67t15 52.5t8 30q2 6 3 12.5t3 15.5q5 25 12 55.5t19 56t30 43t44 17.5q12 0 22.5 -7.5t18.5 -18.5t13 -22.5t7 -18.5l-1 1q24 -96 39 -157t23.5 -97t12 -51.5t4.5 -20.5q18 9 37.5 14t53.5 2q0 -18 -3 -30.5t-8 -21.5t-11.5 -15t-12.5 -12
q-8 -7 -14.5 -14.5t-6.5 -17.5q0 -32 14.5 -64t31.5 -61q20 -33 35 -68.5t15 -80.5q-33 -17 -55 -13t-37.5 22.5t-26 47t-19.5 59.5q-11 36 -27 73.5t-35 56.5q-7 -2 -24.5 -8t-39.5 -14.5t-46 -19t-44.5 -21.5t-35 -21.5t-17.5 -19.5v1q-16 -49 -32.5 -99t-32.5 -99
q-9 -23 -23 -27t-29 -4q-20 0 -36.5 10.5t-16.5 36.5zM214 251q16 3 37.5 8.5t44 13.5t43.5 18t37 24q-6 25 -15.5 67t-20.5 85t-22 79t-20 49zM208.313 781.346q-8.03418 11.248 -7.1416 25.5244t7.58789 25.957t17.8535 19.9004q11.1592 8.21973 23.6562 8.21973
q10.7129 0 20.0859 -4.75879q9.37402 -4.75879 18.3008 -16.8721l-1.78516 1.73047q8.92676 -11.248 8.48047 -25.0918t-7.1416 -26.3896t-18.3008 -21.1982q-11.6045 -8.65234 -24.1025 -8.65234q-10.7129 0 -19.6396 4.75879t-17.8535 16.8721zM324.364 783.941
q-8.03418 10.3828 -7.58789 24.2266t7.1416 26.3896t17.8535 21.1982q11.1592 8.65234 23.6572 8.65234q21.4248 0 37.4932 -20.7656l-0.892578 0.865234q9.81934 -10.3828 10.7119 -25.0918t-4.46289 -27.6875q-5.35645 -12.9785 -16.5156 -22.0635
q-11.1582 -9.08496 -25.4414 -9.08496q-21.4248 0 -41.0645 22.4961z" />
    <glyph glyph-name="Aring" unicode="&#xc5;" horiz-adv-x="604" 
d="M138 317q10 36 20 72.5t19 67t15 52.5t8 30q2 6 3 12.5t3 15.5q5 25 12 55.5t19 56t30 43t44 17.5q12 0 22.5 -7.5t18.5 -18.5t13 -22.5t7 -18.5l-1 1q24 -96 39 -157t23.5 -97t12 -51.5t4.5 -20.5q18 9 37.5 14t53.5 2q0 -18 -3 -30.5t-8 -21.5t-11.5 -15t-12.5 -12
q-8 -7 -14.5 -14.5t-6.5 -17.5q0 -32 14.5 -64t31.5 -61q20 -33 35 -68.5t15 -80.5q-33 -17 -55 -13t-37.5 22.5t-26 47t-19.5 59.5q-11 36 -27 73.5t-35 56.5q-7 -2 -24.5 -8t-39.5 -14.5t-46 -19t-44.5 -21.5t-35 -21.5t-17.5 -19.5v1q-16 -49 -32.5 -99t-32.5 -99
q-9 -23 -23 -27t-29 -4q-20 0 -36.5 10.5t-16.5 36.5zM214 251q16 3 37.5 8.5t44 13.5t43.5 18t37 24q-6 25 -15.5 67t-20.5 85t-22 79t-20 49zM278 762q-47 1 -67 19.5t-20 42.5q0 18 11 36t29.5 32.5t43 22t52.5 3.5q41 -11 59.5 -31t18.5 -42q0 -16 -9 -31.5t-25.5 -27.5
t-40 -19t-52.5 -5zM309 848q-17 0 -28 -4.5t-11 -9.5q0 -3 13 -8q20 2 31.5 7t11.5 10q0 4 -17 5z" />
    <glyph glyph-name="AE" unicode="&#xc6;" horiz-adv-x="881" 
d="M287 162q-2 27 7 53q-18 -8 -35.5 -16.5t-31.5 -16.5t-23.5 -15.5t-12.5 -12.5l-33 -99t-32 -99q-9 -23 -23 -27t-29 -4q-20 0 -36.5 10.5t-16.5 36.5q0 10 5 25t12.5 32.5t17 36t18.5 36.5l19.5 39t10.5 24l7 24.5t11.5 42.5t15 55.5t17.5 62.5q10 36 20 72.5t19 67
t15 52.5t8 30q2 6 3 12.5t3 15.5q5 25 12 55.5t19 56t30 43t44 17.5q2 0 8.5 -9.5t15 -24t17.5 -32t16 -33.5q12 15 28 30t36.5 26.5t45 17.5t54.5 4q18 -1 34 -10t28.5 -22t19.5 -27.5t7 -27.5q0 -17 -13.5 -29t-44.5 -14q-8 25 -28.5 38.5t-43.5 9.5q-16 -6 -34.5 -23
t-36.5 -45t-33.5 -65.5t-25.5 -84.5q8 -12 35 -14q23 -1 48 12.5t49 30.5q23 15 46 28t47 14q6 0 15 -0.5t18 -4t15 -11.5t6 -22q0 -26 -29.5 -49.5t-69.5 -48.5q-29 -18 -60.5 -40t-58 -47.5t-44 -55t-17.5 -63.5q0 -21 7.5 -35t20.5 -22t30.5 -11t36.5 -3q52 0 100.5 19
t93 49.5t84 68.5t74.5 77h48q0 -33 -21.5 -68t-56 -69t-77.5 -64t-86 -53t-81 -36.5t-63 -13.5q-32 0 -67 6.5t-65 23t-49.5 44t-19.5 69.5zM375 358q-16 4 -32 11.5t-28.5 19.5t-20 28t-5.5 37q3 26 12 56t23 60q-4 22 -5 30.5t-1 11.5t-1 3t-4 5q-22 -88 -41.5 -169
t-40.5 -167q23 5 51.5 10t56.5 13z" />
    <glyph glyph-name="Ccedilla" unicode="&#xc7;" horiz-adv-x="555" 
d="M26 211q0 36 5 87t16.5 106t31 110t47.5 98t66.5 70t88.5 27q44 0 67 -23t32.5 -56.5t10.5 -73t1 -72.5q-28 0 -44 7.5t-24.5 19.5t-11.5 27.5t-5 32.5q-1 12 -3 23.5t-6.5 20.5t-13 15t-21.5 6q-27 0 -49 -24.5t-38 -63t-27.5 -85.5t-18.5 -92.5t-10.5 -84t-3.5 -58.5
q-1 -7 -1 -13.5v-13.5q0 -24 3.5 -50t12.5 -47.5t24.5 -34t39.5 -9.5q58 0 107.5 27.5t87.5 69.5t64 93t38 98h55q0 -44 -16 -88.5t-43 -85.5t-62.5 -76.5t-76 -62t-83 -42t-82.5 -15.5q-51 0 -82 22t-48 56t-22.5 75.5t-5.5 79.5zM127 -196q-4 11 5 20.5t22 15.5t26 6
t17 -8q7 -20 24 -31t34 -11q9 0 16.5 5t9.5 13q-2 20 -17 34.5t-34 25.5q-14 9 -27.5 18t-24 21t-17.5 27.5t-7 36.5q-8 38 3.5 53.5t28.5 15.5q8 0 17 -5t15.5 -14.5t10.5 -22.5t2 -28q5 -7 14.5 -14t21.5 -15h-1q15 -11 31 -23.5t29.5 -27.5t22 -34t8.5 -43
q-2 -55 -28.5 -80.5t-64.5 -25.5q-35 0 -72.5 23t-62.5 65z" />
    <glyph glyph-name="Egrave" unicode="&#xc8;" horiz-adv-x="620" 
d="M227 -22q-32 0 -67 6.5t-65 23t-49.5 43.5t-19.5 69q-1 25 6.5 49t19 46t25.5 42.5t27 37.5q5 6 9 12t8 11q-14 2 -31.5 7t-32 15.5t-23.5 28t-6 43.5q6 46 27.5 98.5t55 96.5t78.5 73.5t98 29.5q18 -1 34.5 -10t29 -22t19.5 -27.5t7 -27.5q0 -17 -13.5 -29t-44.5 -14
q-8 25 -28.5 38.5t-43.5 9.5q-21 -5 -44.5 -26.5t-43.5 -50.5t-33.5 -61t-13.5 -57q0 -16 9 -26t30 -11q24 -1 49 12.5t49 30.5q23 15 46 28t47 14q6 0 15 -0.5t18 -4t15 -11.5t6 -22q0 -26 -29.5 -49.5t-69.5 -48.5q-29 -18 -60.5 -40t-58 -47.5t-44 -55t-17.5 -63.5
q0 -21 7.5 -35t20.5 -22t30.5 -11t36.5 -3q52 0 100.5 19t93 49.5t84 68.5t74.5 77h48q0 -33 -21.5 -68t-56 -69t-77.5 -64t-86 -53t-81 -36.5t-63 -13.5zM159 871q8 14 15 22t15 11.5t17 4t21 0.5l83 -111q0 -9 -4.5 -21.5t-14 -22t-23 -13.5t-30.5 5z" />
    <glyph glyph-name="Eacute" unicode="&#xc9;" horiz-adv-x="620" 
d="M227 -22q-32 0 -67 6.5t-65 23t-49.5 43.5t-19.5 69q-1 25 6.5 49t19 46t25.5 42.5t27 37.5q5 6 9 12t8 11q-14 2 -31.5 7t-32 15.5t-23.5 28t-6 43.5q6 46 27.5 98.5t55 96.5t78.5 73.5t98 29.5q18 -1 34.5 -10t29 -22t19.5 -27.5t7 -27.5q0 -17 -13.5 -29t-44.5 -14
q-8 25 -28.5 38.5t-43.5 9.5q-21 -5 -44.5 -26.5t-43.5 -50.5t-33.5 -61t-13.5 -57q0 -16 9 -26t30 -11q24 -1 49 12.5t49 30.5q23 15 46 28t47 14q6 0 15 -0.5t18 -4t15 -11.5t6 -22q0 -26 -29.5 -49.5t-69.5 -48.5q-29 -18 -60.5 -40t-58 -47.5t-44 -55t-17.5 -63.5
q0 -21 7.5 -35t20.5 -22t30.5 -11t36.5 -3q52 0 100.5 19t93 49.5t84 68.5t74.5 77h48q0 -33 -21.5 -68t-56 -69t-77.5 -64t-86 -53t-81 -36.5t-63 -13.5zM262 728q-25 -7 -38 -4.5t-20 9.5t-11 17t-12 18l83 111q12 0 21 -0.5t16.5 -4.5t15 -11.5t15.5 -22.5z" />
    <glyph glyph-name="Ecircumflex" unicode="&#xca;" horiz-adv-x="620" 
d="M227 -22q-32 0 -67 6.5t-65 23t-49.5 43.5t-19.5 69q-1 25 6.5 49t19 46t25.5 42.5t27 37.5q5 6 9 12t8 11q-14 2 -31.5 7t-32 15.5t-23.5 28t-6 43.5q6 46 27.5 98.5t55 96.5t78.5 73.5t98 29.5q18 -1 34.5 -10t29 -22t19.5 -27.5t7 -27.5q0 -17 -13.5 -29t-44.5 -14
q-8 25 -28.5 38.5t-43.5 9.5q-21 -5 -44.5 -26.5t-43.5 -50.5t-33.5 -61t-13.5 -57q0 -16 9 -26t30 -11q24 -1 49 12.5t49 30.5q23 15 46 28t47 14q6 0 15 -0.5t18 -4t15 -11.5t6 -22q0 -26 -29.5 -49.5t-69.5 -48.5q-29 -18 -60.5 -40t-58 -47.5t-44 -55t-17.5 -63.5
q0 -21 7.5 -35t20.5 -22t30.5 -11t36.5 -3q52 0 100.5 19t93 49.5t84 68.5t74.5 77h48q0 -33 -21.5 -68t-56 -69t-77.5 -64t-86 -53t-81 -36.5t-63 -13.5zM218 884q12 20 25.5 24t36.5 4l87 -117q0 -5 -1.5 -15t-9 -19t-24 -12t-45.5 6l-28 33q-6 -10 -10 -16.5t-10 -16.5
q-10 -13 -23 -16.5t-25.5 -0.5t-23.5 12t-17 21z" />
    <glyph glyph-name="Edieresis" unicode="&#xcb;" horiz-adv-x="620" 
d="M227 -22q-32 0 -67 6.5t-65 23t-49.5 43.5t-19.5 69q-1 25 6.5 49t19 46t25.5 42.5t27 37.5q5 6 9 12t8 11q-14 2 -31.5 7t-32 15.5t-23.5 28t-6 43.5q6 46 27.5 98.5t55 96.5t78.5 73.5t98 29.5q18 -1 34.5 -10t29 -22t19.5 -27.5t7 -27.5q0 -17 -13.5 -29t-44.5 -14
q-8 25 -28.5 38.5t-43.5 9.5q-21 -5 -44.5 -26.5t-43.5 -50.5t-33.5 -61t-13.5 -57q0 -16 9 -26t30 -11q24 -1 49 12.5t49 30.5q23 15 46 28t47 14q6 0 15 -0.5t18 -4t15 -11.5t6 -22q0 -26 -29.5 -49.5t-69.5 -48.5q-29 -18 -60.5 -40t-58 -47.5t-44 -55t-17.5 -63.5
q0 -21 7.5 -35t20.5 -22t30.5 -11t36.5 -3q52 0 100.5 19t93 49.5t84 68.5t74.5 77h48q0 -33 -21.5 -68t-56 -69t-77.5 -64t-86 -53t-81 -36.5t-63 -13.5zM160 770q-9 13 -8 29.5t8.5 30t20 23t26.5 9.5q12 0 22.5 -5.5t20.5 -19.5l-2 2q10 -13 9.5 -29t-8 -30.5
t-20.5 -24.5t-27 -10q-12 0 -22 5.5t-20 19.5zM290 773q-9 12 -8.5 28t8 30.5t20 24.5t26.5 10q24 0 42 -24l-1 1q11 -12 12 -29t-5 -32t-18.5 -25.5t-28.5 -10.5q-24 0 -46 26z" />
    <glyph glyph-name="Igrave" unicode="&#xcc;" horiz-adv-x="161" 
d="M30 53q-4 28 -7 77.5t-4.5 110.5t-2 129t0.5 132.5t3 120.5t5 93l66 -6q1 -19 2 -48t2 -62.5t1 -70.5v-73q0 -81 4 -148.5t9 -120t10.5 -89t8.5 -54.5q2 -12 3.5 -23.5t-1.5 -21t-12 -15.5t-29 -6q-15 0 -25 8.5t-17 20t-11 24.5t-6 22zM-34 883q8 14 15 22t15 11.5t17 4
t21 0.5l83 -111q0 -9 -4.5 -21.5t-14 -22t-23 -13.5t-30.5 5z" />
    <glyph glyph-name="Iacute" unicode="&#xcd;" horiz-adv-x="161" 
d="M30 53q-4 28 -7 77.5t-4.5 110.5t-2 129t0.5 132.5t3 120.5t5 93l66 -6q1 -19 2 -48t2 -62.5t1 -70.5v-73q0 -81 4 -148.5t9 -120t10.5 -89t8.5 -54.5q2 -12 3.5 -23.5t-1.5 -21t-12 -15.5t-29 -6q-15 0 -25 8.5t-17 20t-11 24.5t-6 22zM98 764q-25 -7 -38 -4.5t-20 9.5
t-11 17t-12 18l83 111q12 0 21 -0.5t16.5 -4.5t15 -11.5t15.5 -22.5z" />
    <glyph glyph-name="Icircumflex" unicode="&#xce;" horiz-adv-x="161" 
d="M30 53q-4 28 -7 77.5t-4.5 110.5t-2 129t0.5 132.5t3 120.5t5 93l66 -6q1 -19 2 -48t2 -62.5t1 -70.5v-73q0 -81 4 -148.5t9 -120t10.5 -89t8.5 -54.5q2 -12 3.5 -23.5t-1.5 -21t-12 -15.5t-29 -6q-15 0 -25 8.5t-17 20t-11 24.5t-6 22zM24 912q12 20 25.5 24t36.5 4
l87 -117q0 -5 -1.5 -15t-9 -19t-24 -12t-45.5 6l-28 33q-6 -10 -10 -16.5t-10 -16.5q-10 -13 -23 -16.5t-25.5 -0.5t-23.5 12t-17 21z" />
    <glyph glyph-name="Idieresis" unicode="&#xcf;" horiz-adv-x="161" 
d="M30 53q-4 28 -7 77.5t-4.5 110.5t-2 129t0.5 132.5t3 120.5t5 93l66 -6q1 -19 2 -48t2 -62.5t1 -70.5v-73q0 -81 4 -148.5t9 -120t10.5 -89t8.5 -54.5q2 -12 3.5 -23.5t-1.5 -21t-12 -15.5t-29 -6q-15 0 -25 8.5t-17 20t-11 24.5t-6 22zM-29 780q-9 13 -8 29.5t8.5 30
t20 23t26.5 9.5q12 0 22.5 -5.5t20.5 -19.5l-2 2q10 -13 9.5 -29t-8 -30.5t-20.5 -24.5t-27 -10q-12 0 -22 5.5t-20 19.5zM101 783q-9 12 -8.5 28t8 30.5t20 24.5t26.5 10q24 0 42 -24l-1 1q11 -12 12 -29t-5 -32t-18.5 -25.5t-28.5 -10.5q-24 0 -46 26z" />
    <glyph glyph-name="Ntilde" unicode="&#xd1;" horiz-adv-x="604" 
d="M90 -21q-6 0 -15 0.5t-18 4t-15 11.5t-6 22v468q-16 19 -22.5 35.5t-6.5 33.5q0 21 10 37t23 28t26.5 19t21.5 9q33 0 43.5 -20.5t10.5 -49.5q0 -11 -2.5 -25t-4 -28.5t-0.5 -28t7 -24.5l-1 2q33 -46 65.5 -104t69 -115t79.5 -106.5t96 -76.5q-4 151 -8.5 301t-8.5 301
q0 15 14 23.5t31.5 12.5t32.5 4.5t17 0.5q-9 -75 -12.5 -138.5t-3.5 -118.5q0 -64 3 -122t7.5 -108.5t9.5 -91t8 -68.5q0 -13 -1 -28.5t-6 -28.5t-16 -22t-32 -9q-40 0 -83.5 30t-83.5 71.5t-73.5 84.5t-53.5 70v-1q-4 4 -12 17t-18.5 29.5t-22.5 36t-23 37.5l6 -332
q1 -12 1.5 -20t-2.5 -13.5t-10 -7.5t-21 -2zM64 742q0 10 4.5 31.5t16 43t30 37.5t46.5 16q33 0 57.5 -13.5t47.5 -30.5q19 -14 39.5 -26t46.5 -12q19 -1 35.5 8t30 22.5t23 28.5t15.5 26q5 2 13.5 -3.5t17 -14t14.5 -18.5t6 -18l3 7q0 -20 -15.5 -39.5t-38.5 -36t-50 -26.5
t-50 -10q-56 1 -100 25t-89 57q-12 -4 -16.5 -21.5t-7.5 -34.5q-2 -11 -4.5 -21.5t-9.5 -26.5q-15 0 -27 6t-20.5 14t-13 16.5t-4.5 13.5z" />
    <glyph glyph-name="Ograve" unicode="&#xd2;" horiz-adv-x="418" 
d="M155 -20q-36 3 -63 28t-45 65.5t-27 93t-9 110.5q0 75 15 152t46 140t77 103.5t108 43.5q39 -3 68 -27t47.5 -62.5t27.5 -88t9 -104.5q0 -53 -8 -108.5t-23.5 -107t-37.5 -97t-50.5 -78t-62.5 -50t-73 -13.5h1zM325 420q0 37 -4.5 71t-14.5 61.5t-25 47.5t-36 29
q-33 -4 -60.5 -39.5t-47 -89t-30.5 -116.5t-11 -123q0 -34 3.5 -65t11.5 -56t20.5 -42t29.5 -24q37 -3 67.5 28t52 81.5t33 113t11.5 123.5zM242 631q1 -1 1.5 -1t1.5 -1q1 0 2 0.5t3 0.5zM124 880q8 14 15 22t15 11.5t17 4t21 0.5l83 -111q0 -9 -4.5 -21.5t-14 -22
t-23 -13.5t-30.5 5z" />
    <glyph glyph-name="Oacute" unicode="&#xd3;" horiz-adv-x="421" 
d="M155 -20q-36 3 -63 28t-45 65.5t-27 93t-9 110.5q0 75 15 152t46 140t77 103.5t108 43.5q39 -3 68 -27t47.5 -62.5t27.5 -88t9 -104.5q0 -53 -8 -108.5t-23.5 -107t-37.5 -97t-50.5 -78t-62.5 -50t-73 -13.5h1zM325 420q0 37 -4.5 71t-14.5 61.5t-25 47.5t-36 29
q-33 -4 -60.5 -39.5t-47 -89t-30.5 -116.5t-11 -123q0 -34 3.5 -65t11.5 -56t20.5 -42t29.5 -24q37 -3 67.5 28t52 81.5t33 113t11.5 123.5zM242 631q1 -1 1.5 -1t1.5 -1q1 0 2 0.5t3 0.5zM216 771q-25 -7 -38 -4.5t-20 9.5t-11 17t-12 18l83 111q12 0 21 -0.5t16.5 -4.5
t15 -11.5t15.5 -22.5z" />
    <glyph glyph-name="Ocircumflex" unicode="&#xd4;" horiz-adv-x="424" 
d="M155 -20q-36 3 -63 28t-45 65.5t-27 93t-9 110.5q0 75 15 152t46 140t77 103.5t108 43.5q39 -3 68 -27t47.5 -62.5t27.5 -88t9 -104.5q0 -53 -8 -108.5t-23.5 -107t-37.5 -97t-50.5 -78t-62.5 -50t-73 -13.5h1zM325 420q0 37 -4.5 71t-14.5 61.5t-25 47.5t-36 29
q-33 -4 -60.5 -39.5t-47 -89t-30.5 -116.5t-11 -123q0 -34 3.5 -65t11.5 -56t20.5 -42t29.5 -24q37 -3 67.5 28t52 81.5t33 113t11.5 123.5zM242 631q1 -1 1.5 -1t1.5 -1q1 0 2 0.5t3 0.5zM183 899q12 20 25.5 24t36.5 4l87 -117q0 -5 -1.5 -15t-9 -19t-24 -12t-45.5 6
l-28 33q-6 -10 -10 -16.5t-10 -16.5q-10 -13 -23 -16.5t-25.5 -0.5t-23.5 12t-17 21z" />
    <glyph glyph-name="Otilde" unicode="&#xd5;" horiz-adv-x="433" 
d="M155 -20q-36 3 -63 28t-45 65.5t-27 93t-9 110.5q0 75 15 152t46 140t77 103.5t108 43.5q39 -3 68 -27t47.5 -62.5t27.5 -88t9 -104.5q0 -53 -8 -108.5t-23.5 -107t-37.5 -97t-50.5 -78t-62.5 -50t-73 -13.5h1zM325 420q0 37 -4.5 71t-14.5 61.5t-25 47.5t-36 29
q-33 -4 -60.5 -39.5t-47 -89t-30.5 -116.5t-11 -123q0 -34 3.5 -65t11.5 -56t20.5 -42t29.5 -24q37 -3 67.5 28t52 81.5t33 113t11.5 123.5zM242 631q1 -1 1.5 -1t1.5 -1q1 0 2 0.5t3 0.5zM21.0625 766.275q0 9.73145 4.11719 30.6543q4.11621 20.9219 14.6367 41.8447
q10.5195 20.9229 27.4434 36.4932t42.5381 15.5703q30.1885 0 52.6006 -13.1377t43.4531 -29.6807q17.3809 -13.624 36.1338 -25.3018q18.7539 -11.6777 42.5381 -11.6777q17.3809 -0.973633 32.4756 7.78516q15.0938 8.75879 27.4434 21.8955
q12.3506 13.1377 21.041 27.7344q8.69043 14.5977 14.1787 25.3027q4.57422 1.94531 12.3496 -3.40625q7.77637 -5.35254 15.5518 -13.624q7.77637 -8.27246 13.2646 -18.0029q5.48828 -9.73242 5.48828 -17.5176l2.74512 6.8125q0 -19.4629 -14.1797 -38.4395
q-14.1787 -18.9766 -35.2197 -35.0332q-21.04 -16.0566 -45.7393 -25.7881q-24.7002 -9.73145 -45.7402 -9.73145q-51.2285 0.972656 -91.4795 24.3281t-81.416 55.4697q-10.9785 -3.89258 -15.0947 -20.9229q-4.11621 -17.0293 -6.86035 -33.5732
q-1.83008 -10.7041 -4.11719 -20.9229q-2.28711 -10.2178 -8.69043 -25.7881q-13.7217 0 -24.6992 5.83887t-18.7539 13.624q-7.77539 7.78516 -11.8916 16.0566q-4.11719 8.27246 -4.11719 13.1377z" />
    <glyph glyph-name="Odieresis" unicode="&#xd6;" horiz-adv-x="415" 
d="M155 -20q-36 3 -63 28t-45 65.5t-27 93t-9 110.5q0 75 15 152t46 140t77 103.5t108 43.5q39 -3 68 -27t47.5 -62.5t27.5 -88t9 -104.5q0 -53 -8 -108.5t-23.5 -107t-37.5 -97t-50.5 -78t-62.5 -50t-73 -13.5h1zM325 420q0 37 -4.5 71t-14.5 61.5t-25 47.5t-36 29
q-33 -4 -60.5 -39.5t-47 -89t-30.5 -116.5t-11 -123q0 -34 3.5 -65t11.5 -56t20.5 -42t29.5 -24q37 -3 67.5 28t52 81.5t33 113t11.5 123.5zM242 631q1 -1 1.5 -1t1.5 -1q1 0 2 0.5t3 0.5zM101 762q-9 13 -8 29.5t8.5 30t20 23t26.5 9.5q12 0 22.5 -5.5t20.5 -19.5l-2 2
q10 -13 9.5 -29t-8 -30.5t-20.5 -24.5t-27 -10q-12 0 -22 5.5t-20 19.5zM231 765q-9 12 -8.5 28t8 30.5t20 24.5t26.5 10q24 0 42 -24l-1 1q11 -12 12 -29t-5 -32t-18.5 -25.5t-28.5 -10.5q-24 0 -46 26z" />
    <glyph glyph-name="Oslash" unicode="&#xd8;" horiz-adv-x="436" 
d="M155 -20q-36 3 -63 28t-45 65.5t-27 93t-9 110.5q0 75 15 152t46 140t77 103.5t108 43.5q39 -3 68 -27t47.5 -62.5t27.5 -88t9 -104.5q0 -53 -8 -108.5t-23.5 -107t-37.5 -97t-50.5 -78t-62.5 -50t-73 -13.5h1zM325 420q0 37 -4.5 71t-14.5 61.5t-25 47.5t-36 29
q-33 -4 -60.5 -39.5t-47 -89t-30.5 -116.5t-11 -123q0 -34 3.5 -65t11.5 -56t20.5 -42t29.5 -24q37 -3 67.5 28t52 81.5t33 113t11.5 123.5zM242 631q1 -1 1.5 -1t1.5 -1q1 0 2 0.5t3 0.5zM77.6406 -36.1709q-16.957 0 -27.791 2.26953q-10.834 2.26855 -17.4287 8.16895
t-10.3633 15.4316q-3.76758 9.53125 -7.53613 24.9619l343.858 696.218q17.8994 9.07617 31.0879 6.80762q13.1895 -2.26953 21.1973 -11.3467t10.3623 -22.2393q2.35547 -13.1611 -0.470703 -24.9619z" />
    <glyph glyph-name="Ugrave" unicode="&#xd9;" horiz-adv-x="489" 
d="M154 -1q-44 31 -70 73.5t-40 93t-18.5 105.5t-4.5 111q0 57 2 114.5t-1 116.5q13 18 34 25.5t44 4.5q4 -32 5 -59t1 -51q0 -17 -0.5 -35t-0.5 -36q-1 -20 -1 -39.5v-39.5q0 -44 2.5 -87t11 -82t23.5 -72.5t41 -57.5q5 -2 10 -2h10q33 0 61 25t50.5 66.5t39 95.5
t26.5 111.5t13 114t-1 104.5q-13 -15 -25 -15q-15 0 -23 15t-8 36q0 15 3.5 31.5t12 30.5t21 24.5t30.5 13.5q38 -17 57 -73t19 -130q0 -54 -8.5 -115t-25 -121t-41 -115t-56 -97t-70 -67t-82.5 -25q-18 0 -33 3zM118 849q8 14 15 22t15 11.5t17 4t21 0.5l83 -111
q0 -9 -4.5 -21.5t-14 -22t-23 -13.5t-30.5 5z" />
    <glyph glyph-name="Uacute" unicode="&#xda;" horiz-adv-x="489" 
d="M157 -9q-44 31 -70 73.5t-40 93t-18.5 105.5t-4.5 111q0 57 2 114.5t-1 116.5q13 18 34 25.5t44 4.5q4 -32 5 -59t1 -51q0 -17 -0.5 -35t-0.5 -36q-1 -20 -1 -39.5v-39.5q0 -44 2.5 -87t11 -82t23.5 -72.5t41 -57.5q5 -2 10 -2h10q33 0 61 25t50.5 66.5t39 95.5
t26.5 111.5t13 114t-1 104.5q-13 -15 -25 -15q-15 0 -23 15t-8 36q0 15 3.5 31.5t12 30.5t21 24.5t30.5 13.5q38 -17 57 -73t19 -130q0 -54 -8.5 -115t-25 -121t-41 -115t-56 -97t-70 -67t-82.5 -25q-18 0 -33 3zM208 714q-25 -7 -38 -4.5t-20 9.5t-11 17t-12 18l83 111
q12 0 21 -0.5t16.5 -4.5t15 -11.5t15.5 -22.5z" />
    <glyph glyph-name="Ucircumflex" unicode="&#xdb;" horiz-adv-x="489" 
d="M157 -6q-44 31 -70 73.5t-40 93t-18.5 105.5t-4.5 111q0 57 2 114.5t-1 116.5q13 18 34 25.5t44 4.5q4 -32 5 -59t1 -51q0 -17 -0.5 -35t-0.5 -36q-1 -20 -1 -39.5v-39.5q0 -44 2.5 -87t11 -82t23.5 -72.5t41 -57.5q5 -2 10 -2h10q33 0 61 25t50.5 66.5t39 95.5
t26.5 111.5t13 114t-1 104.5q-13 -15 -25 -15q-15 0 -23 15t-8 36q0 15 3.5 31.5t12 30.5t21 24.5t30.5 13.5q38 -17 57 -73t19 -130q0 -54 -8.5 -115t-25 -121t-41 -115t-56 -97t-70 -67t-82.5 -25q-18 0 -33 3zM157 876q12 20 25.5 24t36.5 4l87 -117q0 -5 -1.5 -15
t-9 -19t-24 -12t-45.5 6l-28 33q-6 -10 -10 -16.5t-10 -16.5q-10 -13 -23 -16.5t-25.5 -0.5t-23.5 12t-17 21z" />
    <glyph glyph-name="Udieresis" unicode="&#xdc;" horiz-adv-x="489" 
d="M154 -3q-44 31 -70 73.5t-40 93t-18.5 105.5t-4.5 111q0 57 2 114.5t-1 116.5q13 18 34 25.5t44 4.5q4 -32 5 -59t1 -51q0 -17 -0.5 -35t-0.5 -36q-1 -20 -1 -39.5v-39.5q0 -44 2.5 -87t11 -82t23.5 -72.5t41 -57.5q5 -2 10 -2h10q33 0 61 25t50.5 66.5t39 95.5
t26.5 111.5t13 114t-1 104.5q-13 -15 -25 -15q-15 0 -23 15t-8 36q0 15 3.5 31.5t12 30.5t21 24.5t30.5 13.5q38 -17 57 -73t19 -130q0 -54 -8.5 -115t-25 -121t-41 -115t-56 -97t-70 -67t-82.5 -25q-18 0 -33 3zM90 707q-9 13 -8 29.5t8.5 30t20 23t26.5 9.5
q12 0 22.5 -5.5t20.5 -19.5l-2 2q10 -13 9.5 -29t-8 -30.5t-20.5 -24.5t-27 -10q-12 0 -22 5.5t-20 19.5zM220 710q-9 12 -8.5 28t8 30.5t20 24.5t26.5 10q24 0 42 -24l-1 1q11 -12 12 -29t-5 -32t-18.5 -25.5t-28.5 -10.5q-24 0 -46 26z" />
    <glyph glyph-name="Yacute" unicode="&#xdd;" horiz-adv-x="456" 
d="M249 249q-70 80 -130.5 177.5t-103.5 198.5q16 32 34 33t38.5 -19t42 -56t45.5 -78q23 -40 46.5 -79.5t46.5 -68.5q2 11 5 23.5t5 26.5q8 50 19.5 109t26.5 110t34.5 85t43.5 34q11 0 22.5 -8t25.5 -27q-32 -80 -55.5 -158t-38.5 -160.5t-22 -171.5t-7 -189v-47
q-9 -19 -19 -29.5t-24 -10.5q-23 0 -44 34zM235 734q-25 -7 -38 -4.5t-20 9.5t-11 17t-12 18l83 111q12 0 21 -0.5t16.5 -4.5t15 -11.5t15.5 -22.5z" />
    <glyph glyph-name="agrave" unicode="&#xe0;" horiz-adv-x="574" 
d="M113 -22q-54 2 -77.5 48.5t-23.5 118.5q0 45 8.5 97t24 104t37 102t47 90.5t53.5 69t58 38.5q43 0 68 -20t39 -50q7 15 15.5 26t18 14t19.5 -4t20 -28q-12 -100 -17.5 -171.5t-5.5 -119.5q0 -55 5.5 -88.5t15.5 -53t23.5 -28t30.5 -12.5l-1 1q15 -3 27.5 1.5t23.5 12.5
t20 19t17 22q6 8 17 20.5t30 31.5q9 -30 2 -64.5t-25.5 -63t-47 -46.5t-61.5 -17q-37 0 -64 14.5t-45.5 38t-30 53.5t-17.5 62q-15 -36 -34 -74.5t-44 -70.5t-56 -52.5t-69 -20.5h-1zM303 433q0 16 -3 38t-10 42t-17.5 34t-26.5 15q-13 -1 -29.5 -21t-34 -53t-33.5 -75
t-29 -87t-21 -90t-8 -82q0 -35 8.5 -59t28.5 -30l-2 1q15 -3 32 13.5t34.5 45.5t34.5 67.5t31.5 80.5t26 83.5t18.5 76.5zM142 815q8 14 15 22t15 11.5t17 4t21 0.5l83 -111q0 -9 -4.5 -21.5t-14 -22t-23 -13.5t-30.5 5z" />
    <glyph glyph-name="aacute" unicode="&#xe1;" horiz-adv-x="574" 
d="M113 -22q-54 2 -77.5 48.5t-23.5 118.5q0 45 8.5 97t24 104t37 102t47 90.5t53.5 69t58 38.5q43 0 68 -20t39 -50q7 15 15.5 26t18 14t19.5 -4t20 -28q-12 -100 -17.5 -171.5t-5.5 -119.5q0 -55 5.5 -88.5t15.5 -53t23.5 -28t30.5 -12.5l-1 1q15 -3 27.5 1.5t23.5 12.5
t20 19t17 22q6 8 17 20.5t30 31.5q9 -30 2 -64.5t-25.5 -63t-47 -46.5t-61.5 -17q-37 0 -64 14.5t-45.5 38t-30 53.5t-17.5 62q-15 -36 -34 -74.5t-44 -70.5t-56 -52.5t-69 -20.5h-1zM303 433q0 16 -3 38t-10 42t-17.5 34t-26.5 15q-13 -1 -29.5 -21t-34 -53t-33.5 -75
t-29 -87t-21 -90t-8 -82q0 -35 8.5 -59t28.5 -30l-2 1q15 -3 32 13.5t34.5 45.5t34.5 67.5t31.5 80.5t26 83.5t18.5 76.5zM229 683q-25 -7 -38 -4.5t-20 9.5t-11 17t-12 18l83 111q12 0 21 -0.5t16.5 -4.5t15 -11.5t15.5 -22.5z" />
    <glyph glyph-name="acircumflex" unicode="&#xe2;" horiz-adv-x="574" 
d="M113 -22q-54 2 -77.5 48.5t-23.5 118.5q0 45 8.5 97t24 104t37 102t47 90.5t53.5 69t58 38.5q43 0 68 -20t39 -50q7 15 15.5 26t18 14t19.5 -4t20 -28q-12 -100 -17.5 -171.5t-5.5 -119.5q0 -55 5.5 -88.5t15.5 -53t23.5 -28t30.5 -12.5l-1 1q15 -3 27.5 1.5t23.5 12.5
t20 19t17 22q6 8 17 20.5t30 31.5q9 -30 2 -64.5t-25.5 -63t-47 -46.5t-61.5 -17q-37 0 -64 14.5t-45.5 38t-30 53.5t-17.5 62q-15 -36 -34 -74.5t-44 -70.5t-56 -52.5t-69 -20.5h-1zM303 433q0 16 -3 38t-10 42t-17.5 34t-26.5 15q-13 -1 -29.5 -21t-34 -53t-33.5 -75
t-29 -87t-21 -90t-8 -82q0 -35 8.5 -59t28.5 -30l-2 1q15 -3 32 13.5t34.5 45.5t34.5 67.5t31.5 80.5t26 83.5t18.5 76.5zM188 858q12 20 25.5 24t36.5 4l87 -117q0 -5 -1.5 -15t-9 -19t-24 -12t-45.5 6l-28 33q-6 -10 -10 -16.5t-10 -16.5q-10 -13 -23 -16.5t-25.5 -0.5
t-23.5 12t-17 21z" />
    <glyph glyph-name="atilde" unicode="&#xe3;" horiz-adv-x="574" 
d="M113 -22q-54 2 -77.5 48.5t-23.5 118.5q0 45 8.5 97t24 104t37 102t47 90.5t53.5 69t58 38.5q43 0 68 -20t39 -50q7 15 15.5 26t18 14t19.5 -4t20 -28q-12 -100 -17.5 -171.5t-5.5 -119.5q0 -55 5.5 -88.5t15.5 -53t23.5 -28t30.5 -12.5l-1 1q15 -3 27.5 1.5t23.5 12.5
t20 19t17 22q6 8 17 20.5t30 31.5q9 -30 2 -64.5t-25.5 -63t-47 -46.5t-61.5 -17q-37 0 -64 14.5t-45.5 38t-30 53.5t-17.5 62q-15 -36 -34 -74.5t-44 -70.5t-56 -52.5t-69 -20.5h-1zM303 433q0 16 -3 38t-10 42t-17.5 34t-26.5 15q-13 -1 -29.5 -21t-34 -53t-33.5 -75
t-29 -87t-21 -90t-8 -82q0 -35 8.5 -59t28.5 -30l-2 1q15 -3 32 13.5t34.5 45.5t34.5 67.5t31.5 80.5t26 83.5t18.5 76.5zM34.6631 688.014q0 11.4092 4.77051 35.9395q4.77148 24.5303 16.9639 49.0605q12.1934 24.5293 31.8076 42.7842t49.3008 18.2549
q34.9883 0 60.9639 -15.4023q25.9766 -15.4023 50.3613 -34.7988q20.1455 -15.9727 41.8799 -29.6641q21.7354 -13.6904 49.3018 -13.6904q20.1445 -1.1416 37.6377 9.12695q17.4941 10.2686 31.8076 25.6709t24.3857 32.5166t16.4336 29.6641
q5.30078 2.28223 14.3135 -3.99316q9.01172 -6.27539 18.0244 -15.9727q9.01172 -9.69824 15.373 -21.1074t6.36133 -20.5371l3.18066 7.98633q0 -22.8184 -16.4336 -45.0664t-40.8193 -41.0732t-53.0117 -30.2344q-28.627 -11.4092 -53.0127 -11.4092
q-59.373 1.14062 -106.023 28.5225q-46.6514 27.3828 -94.3623 65.0332q-12.7227 -4.56348 -17.4932 -24.5303q-4.77148 -19.9658 -7.95215 -39.3613q-2.12109 -12.5508 -4.77148 -24.5303t-10.0723 -30.2344q-15.9033 0 -28.626 6.84473q-12.7236 6.8457 -21.7354 15.9736
q-9.01172 9.12695 -13.7832 18.8252q-4.77051 9.69824 -4.77051 15.4023z" />
    <glyph glyph-name="adieresis" unicode="&#xe4;" horiz-adv-x="574" 
d="M113 -22q-54 2 -77.5 48.5t-23.5 118.5q0 45 8.5 97t24 104t37 102t47 90.5t53.5 69t58 38.5q43 0 68 -20t39 -50q7 15 15.5 26t18 14t19.5 -4t20 -28q-12 -100 -17.5 -171.5t-5.5 -119.5q0 -55 5.5 -88.5t15.5 -53t23.5 -28t30.5 -12.5l-1 1q15 -3 27.5 1.5t23.5 12.5
t20 19t17 22q6 8 17 20.5t30 31.5q9 -30 2 -64.5t-25.5 -63t-47 -46.5t-61.5 -17q-37 0 -64 14.5t-45.5 38t-30 53.5t-17.5 62q-15 -36 -34 -74.5t-44 -70.5t-56 -52.5t-69 -20.5h-1zM303 433q0 16 -3 38t-10 42t-17.5 34t-26.5 15q-13 -1 -29.5 -21t-34 -53t-33.5 -75
t-29 -87t-21 -90t-8 -82q0 -35 8.5 -59t28.5 -30l-2 1q15 -3 32 13.5t34.5 45.5t34.5 67.5t31.5 80.5t26 83.5t18.5 76.5zM150 691q-9 13 -8 29.5t8.5 30t20 23t26.5 9.5q12 0 22.5 -5.5t20.5 -19.5l-2 2q10 -13 9.5 -29t-8 -30.5t-20.5 -24.5t-27 -10q-12 0 -22 5.5
t-20 19.5zM280 694q-9 12 -8.5 28t8 30.5t20 24.5t26.5 10q24 0 42 -24l-1 1q11 -12 12 -29t-5 -32t-18.5 -25.5t-28.5 -10.5q-24 0 -46 26z" />
    <glyph glyph-name="aring" unicode="&#xe5;" horiz-adv-x="574" 
d="M113 -22q-54 2 -77.5 48.5t-23.5 118.5q0 45 8.5 97t24 104t37 102t47 90.5t53.5 69t58 38.5q43 0 68 -20t39 -50q7 15 15.5 26t18 14t19.5 -4t20 -28q-12 -100 -17.5 -171.5t-5.5 -119.5q0 -55 5.5 -88.5t15.5 -53t23.5 -28t30.5 -12.5l-1 1q15 -3 27.5 1.5t23.5 12.5
t20 19t17 22q6 8 17 20.5t30 31.5q9 -30 2 -64.5t-25.5 -63t-47 -46.5t-61.5 -17q-37 0 -64 14.5t-45.5 38t-30 53.5t-17.5 62q-15 -36 -34 -74.5t-44 -70.5t-56 -52.5t-69 -20.5h-1zM303 433q0 16 -3 38t-10 42t-17.5 34t-26.5 15q-13 -1 -29.5 -21t-34 -53t-33.5 -75
t-29 -87t-21 -90t-8 -82q0 -35 8.5 -59t28.5 -30l-2 1q15 -3 32 13.5t34.5 45.5t34.5 67.5t31.5 80.5t26 83.5t18.5 76.5zM208 684q-47 1 -67 19.5t-20 42.5q0 18 11 36t29.5 32.5t43 22t52.5 3.5q41 -11 59.5 -31t18.5 -42q0 -16 -9 -31.5t-25.5 -27.5t-40 -19t-52.5 -5z
M239 770q-17 0 -28 -4.5t-11 -9.5q0 -3 13 -8q20 2 31.5 7t11.5 10q0 4 -17 5z" />
    <glyph glyph-name="ae" unicode="&#xe6;" horiz-adv-x="625" 
d="M237 645q10 3 18.5 4t16.5 1q31 0 59 -15.5t45 -35.5q30 42 63.5 60.5t73.5 7.5q8 -1 19 -8.5t21.5 -22.5t17.5 -38t7 -54q0 -33 -11 -77t-38 -98.5t-73 -120.5t-117 -143q15 -13 32 -13q28 0 60.5 21.5t61.5 51t51.5 59.5t30.5 48q22 -18 31.5 -33.5t9.5 -28.5
q0 -20 -13.5 -43t-35 -46.5t-49.5 -45t-56 -38t-54 -26t-45 -8.5q-31 0 -60.5 19.5t-48.5 48.5q-27 -39 -62 -66t-79 -27q-54 2 -77.5 48.5t-23.5 118.5q0 45 8.5 97t24 104t36.5 101.5t46 90.5t53 69t57 38zM246 562q-13 -1 -29.5 -21t-34 -53t-33.5 -75t-29 -87t-21 -90
t-8 -82q0 -35 8.5 -59t28.5 -30l-2 1q11 -2 25 9t28.5 31.5t29 48t28.5 59.5q5 31 13 68t19 75.5t24.5 77t29.5 73.5q-3 11 -9.5 22t-16 18.5t-22 11.5t-27.5 2h-2zM483 551q0 15 -4 19q-14 -2 -28.5 -21.5t-29 -50t-29 -68t-26.5 -76t-21.5 -74t-14.5 -60.5
q21 18 47.5 59.5t50 91t39.5 99t16 81.5zM479 570q1 0 1.5 0.5t1.5 0.5l-4 1q0 -1 0.5 -1t0.5 -1z" />
    <glyph glyph-name="ccedilla" unicode="&#xe7;" horiz-adv-x="456" 
d="M136 -20q-30 3 -51.5 18t-35 39t-19.5 55t-6 67q0 48 10.5 103t28 109.5t41 104.5t50 88.5t54.5 62t54 24.5q31 0 54.5 -12.5t39.5 -32.5t23.5 -45t7.5 -50q0 -24 -8 -49.5t-25 -50.5q-20 6 -31.5 15.5t-17 21t-6.5 25t-1 27.5q0 10 -0.5 19.5t-3 17t-8.5 12.5t-17 5
q-21 0 -41 -23t-37 -59t-31 -80.5t-23.5 -86.5t-15 -77.5t-5.5 -53.5v-13v-28t2.5 -30.5t9 -24.5t18.5 -10q26 0 58 20t63.5 49.5t61 62.5t51.5 59q2 3 8.5 11t13.5 16.5t13 15.5t8 9q5 -36 -6 -74.5t-32.5 -75t-51.5 -69.5t-63.5 -57.5t-67.5 -39.5t-64 -15h-2zM78 -179
q-4 11 5 20.5t22 15.5t26 6t17 -8q7 -20 24 -31t34 -11q9 0 16.5 5t9.5 13q-2 20 -17 34.5t-34 25.5q-14 9 -27.5 18t-24 21t-17.5 27.5t-7 36.5q-8 38 3.5 53.5t28.5 15.5q8 0 17 -5t15.5 -14.5t10.5 -22.5t2 -28q5 -7 14.5 -14t21.5 -15h-1q15 -11 31 -23.5t29.5 -27.5
t22 -34t8.5 -43q-2 -55 -28.5 -80.5t-64.5 -25.5q-35 0 -72.5 23t-62.5 65z" />
    <glyph glyph-name="egrave" unicode="&#xe8;" 
d="M17 126q0 36 9.5 91t27.5 116.5t43.5 122.5t56.5 107t67 70.5t76 14.5q8 -1 19.5 -9t22 -23t17.5 -37.5t7 -53.5q0 -33 -11 -77t-38 -98.5t-73 -120.5t-117 -143q15 -13 32 -13q28 0 60.5 21.5t61.5 51t51.5 59.5t30.5 48q22 -18 31.5 -33.5t9.5 -28.5q0 -20 -13.5 -43
t-35.5 -46.5t-49.5 -45.5t-56 -38.5t-54.5 -25.5t-45 -8q-25 0 -48.5 12.5t-41.5 32.5t-29 45t-11 52zM271 529q0 19 -7 23q-17 -2 -35 -23.5t-35 -54.5t-32.5 -73t-27.5 -79.5t-19.5 -74t-8.5 -56.5q22 17 50.5 59.5t54 93.5t43 101.5t17.5 83.5zM267 552h-3h3zM262 553
q0 -1 1 -1zM157 824q8 14 15 22t15 11.5t17 4t21 0.5l83 -111q0 -9 -4.5 -21.5t-14 -22t-23 -13.5t-30.5 5z" />
    <glyph glyph-name="eacute" unicode="&#xe9;" 
d="M17 126q0 36 9.5 91t27.5 116.5t43.5 122.5t56.5 107t67 70.5t76 14.5q8 -1 19.5 -9t22 -23t17.5 -37.5t7 -53.5q0 -33 -11 -77t-38 -98.5t-73 -120.5t-117 -143q15 -13 32 -13q28 0 60.5 21.5t61.5 51t51.5 59.5t30.5 48q22 -18 31.5 -33.5t9.5 -28.5q0 -20 -13.5 -43
t-35.5 -46.5t-49.5 -45.5t-56 -38.5t-54.5 -25.5t-45 -8q-25 0 -48.5 12.5t-41.5 32.5t-29 45t-11 52zM271 529q0 19 -7 23q-17 -2 -35 -23.5t-35 -54.5t-32.5 -73t-27.5 -79.5t-19.5 -74t-8.5 -56.5q22 17 50.5 59.5t54 93.5t43 101.5t17.5 83.5zM267 552h-3h3zM262 553
q0 -1 1 -1zM239 684q-25 -7 -38 -4.5t-20 9.5t-11 17t-12 18l83 111q12 0 21 -0.5t16.5 -4.5t15 -11.5t15.5 -22.5z" />
    <glyph glyph-name="ecircumflex" unicode="&#xea;" 
d="M17 126q0 36 9.5 91t27.5 116.5t43.5 122.5t56.5 107t67 70.5t76 14.5q8 -1 19.5 -9t22 -23t17.5 -37.5t7 -53.5q0 -33 -11 -77t-38 -98.5t-73 -120.5t-117 -143q15 -13 32 -13q28 0 60.5 21.5t61.5 51t51.5 59.5t30.5 48q22 -18 31.5 -33.5t9.5 -28.5q0 -20 -13.5 -43
t-35.5 -46.5t-49.5 -45.5t-56 -38.5t-54.5 -25.5t-45 -8q-25 0 -48.5 12.5t-41.5 32.5t-29 45t-11 52zM271 529q0 19 -7 23q-17 -2 -35 -23.5t-35 -54.5t-32.5 -73t-27.5 -79.5t-19.5 -74t-8.5 -56.5q22 17 50.5 59.5t54 93.5t43 101.5t17.5 83.5zM267 552h-3h3zM262 553
q0 -1 1 -1zM231 872q12 20 25.5 24t36.5 4l87 -117q0 -5 -1.5 -15t-9 -19t-24 -12t-45.5 6l-28 33q-6 -10 -10 -16.5t-10 -16.5q-10 -13 -23 -16.5t-25.5 -0.5t-23.5 12t-17 21z" />
    <glyph glyph-name="edieresis" unicode="&#xeb;" 
d="M17 126q0 36 9.5 91t27.5 116.5t43.5 122.5t56.5 107t67 70.5t76 14.5q8 -1 19.5 -9t22 -23t17.5 -37.5t7 -53.5q0 -33 -11 -77t-38 -98.5t-73 -120.5t-117 -143q15 -13 32 -13q28 0 60.5 21.5t61.5 51t51.5 59.5t30.5 48q22 -18 31.5 -33.5t9.5 -28.5q0 -20 -13.5 -43
t-35.5 -46.5t-49.5 -45.5t-56 -38.5t-54.5 -25.5t-45 -8q-25 0 -48.5 12.5t-41.5 32.5t-29 45t-11 52zM271 529q0 19 -7 23q-17 -2 -35 -23.5t-35 -54.5t-32.5 -73t-27.5 -79.5t-19.5 -74t-8.5 -56.5q22 17 50.5 59.5t54 93.5t43 101.5t17.5 83.5zM267 552h-3h3zM262 553
q0 -1 1 -1zM144 712q-9 13 -8 29.5t8.5 30t20 23t26.5 9.5q12 0 22.5 -5.5t20.5 -19.5l-2 2q10 -13 9.5 -29t-8 -30.5t-20.5 -24.5t-27 -10q-12 0 -22 5.5t-20 19.5zM274 715q-9 12 -8.5 28t8 30.5t20 24.5t26.5 10q24 0 42 -24l-1 1q11 -12 12 -29t-5 -32t-18.5 -25.5
t-28.5 -10.5q-24 0 -46 26z" />
    <glyph glyph-name="ntilde" unicode="&#xf1;" horiz-adv-x="473" 
d="M117 482q13 33 29.5 63t36.5 52.5t43.5 35.5t50.5 12q42 0 68 -24.5t42 -59t23.5 -71t10.5 -60.5v1q3 -16 4 -54.5t3 -87.5q1 -39 2 -79.5t3.5 -75.5t6.5 -61t10 -36q1 -9 -14 -19.5t-34.5 -17t-36.5 -5.5t-20 15l1 -1q-14 56 -16 127.5t-3 144.5q0 54 -1.5 104t-6 88.5
t-14 60.5t-27.5 20q-27 -1 -48 -28t-37 -69.5t-27.5 -96t-19.5 -107.5t-13.5 -104t-8.5 -85q2 -45 -13 -63t-33.5 -18.5t-34.5 10.5t-15 23v492q0 15 5 30t16 26.5t28 18.5t40 7v-108zM10.583 685.303q0 12.5508 4.73926 39.5332q4.73828 26.9824 16.8486 53.9648
q12.1094 26.9824 31.5908 47.0625t48.9668 20.0801q34.75 0 60.5498 -16.9424q25.7988 -16.9424 50.0195 -38.2773q20.0068 -17.5703 41.5947 -32.6299q21.5869 -15.0605 48.9658 -15.0605q20.0078 -1.25488 37.3838 10.04q17.375 11.2949 31.5908 28.2383
q14.2158 16.9424 24.2197 35.7676t16.3223 32.6299q5.26562 2.50977 14.2158 -4.39258q8.95117 -6.90234 17.9014 -17.5703q8.95117 -10.667 15.2695 -23.2178q6.31836 -12.5498 6.31836 -22.5898l3.15918 8.78516q0 -25.1006 -16.3223 -49.5723
q-16.3223 -24.4727 -40.542 -45.1807q-24.2197 -20.707 -52.6523 -33.2578q-28.4316 -12.5498 -52.6514 -12.5498q-58.9707 1.25488 -105.305 31.375q-46.333 30.1201 -93.7197 71.5352q-12.6367 -5.01953 -17.376 -26.9824q-4.73828 -21.9629 -7.89746 -43.2979
q-2.10547 -13.8047 -4.73828 -26.9824t-10.0039 -33.2578q-15.7959 0 -28.4326 7.53027q-12.6357 7.53027 -21.5869 17.5703t-13.6895 20.707q-4.73926 10.668 -4.73926 16.9424z" />
    <glyph glyph-name="ograve" unicode="&#xf2;" horiz-adv-x="374" 
d="M12 183q9 133 29.5 223.5t49 144.5t62.5 76t71 18q38 -2 65.5 -22t45.5 -54t26.5 -78.5t8.5 -93.5q0 -70 -16.5 -143t-47.5 -134t-75.5 -100.5t-99.5 -42.5q-45 0 -69 21.5t-35 52.5t-13 66.5t-2 64.5v1zM219 564q-26 2 -48.5 -34.5t-39 -93t-26 -123t-9.5 -123.5
q0 -51 8 -85.5t25 -36.5q36 7 64.5 41t48.5 83t30.5 105.5t10.5 109.5q0 31 -4 59.5t-11.5 49.5t-19.5 34t-28 14h-1zM101 807q8 14 15 22t15 11.5t17 4t21 0.5l83 -111q0 -9 -4.5 -21.5t-14 -22t-23 -13.5t-30.5 5z" />
    <glyph glyph-name="oacute" unicode="&#xf3;" horiz-adv-x="374" 
d="M12 183q9 133 29.5 223.5t49 144.5t62.5 76t71 18q38 -2 65.5 -22t45.5 -54t26.5 -78.5t8.5 -93.5q0 -70 -16.5 -143t-47.5 -134t-75.5 -100.5t-99.5 -42.5q-45 0 -69 21.5t-35 52.5t-13 66.5t-2 64.5v1zM219 564q-26 2 -48.5 -34.5t-39 -93t-26 -123t-9.5 -123.5
q0 -51 8 -85.5t25 -36.5q36 7 64.5 41t48.5 83t30.5 105.5t10.5 109.5q0 31 -4 59.5t-11.5 49.5t-19.5 34t-28 14h-1zM229 663q-25 -7 -38 -4.5t-20 9.5t-11 17t-12 18l83 111q12 0 21 -0.5t16.5 -4.5t15 -11.5t15.5 -22.5z" />
    <glyph glyph-name="ocircumflex" unicode="&#xf4;" horiz-adv-x="374" 
d="M12 183q9 133 29.5 223.5t49 144.5t62.5 76t71 18q38 -2 65.5 -22t45.5 -54t26.5 -78.5t8.5 -93.5q0 -70 -16.5 -143t-47.5 -134t-75.5 -100.5t-99.5 -42.5q-45 0 -69 21.5t-35 52.5t-13 66.5t-2 64.5v1zM219 564q-26 2 -48.5 -34.5t-39 -93t-26 -123t-9.5 -123.5
q0 -51 8 -85.5t25 -36.5q36 7 64.5 41t48.5 83t30.5 105.5t10.5 109.5q0 31 -4 59.5t-11.5 49.5t-19.5 34t-28 14h-1zM144 822q12 20 25.5 24t36.5 4l87 -117q0 -5 -1.5 -15t-9 -19t-24 -12t-45.5 6l-28 33q-6 -10 -10 -16.5t-10 -16.5q-10 -13 -23 -16.5t-25.5 -0.5
t-23.5 12t-17 21z" />
    <glyph glyph-name="otilde" unicode="&#xf5;" horiz-adv-x="374" 
d="M12 183q9 133 29.5 223.5t49 144.5t62.5 76t71 18q38 -2 65.5 -22t45.5 -54t26.5 -78.5t8.5 -93.5q0 -70 -16.5 -143t-47.5 -134t-75.5 -100.5t-99.5 -42.5q-45 0 -69 21.5t-35 52.5t-13 66.5t-2 64.5v1zM219 564q-26 2 -48.5 -34.5t-39 -93t-26 -123t-9.5 -123.5
q0 -51 8 -85.5t25 -36.5q36 7 64.5 41t48.5 83t30.5 105.5t10.5 109.5q0 31 -4 59.5t-11.5 49.5t-19.5 34t-28 14h-1zM-3.54297 694.559q0 11.7207 4.27832 36.9199t15.2109 50.3984t28.5205 43.9521t44.207 18.7529q31.373 0 54.6641 -15.8232
q23.292 -15.8223 45.1582 -35.7471q18.0625 -16.4092 37.5518 -30.4736q19.4893 -14.0654 44.2061 -14.0654q18.0635 -1.17188 33.75 9.37695q15.6855 10.5488 28.5205 26.3711q12.834 15.8232 21.8652 33.4033q9.03223 17.5811 14.7354 30.4736
q4.75391 2.34473 12.835 -4.10156t16.1611 -16.4092q8.08105 -9.96289 13.7852 -21.6826q5.7041 -11.7207 5.7041 -21.0977l2.85254 8.20508q0 -23.4414 -14.7363 -46.2969q-14.7354 -22.8555 -36.6016 -42.1943q-21.8652 -19.3389 -47.5332 -31.0596
q-25.6689 -11.7207 -47.5352 -11.7207q-53.2383 1.17285 -95.0684 29.3018q-41.8301 28.1299 -84.6104 66.8076q-11.4082 -4.68848 -15.6865 -25.1992q-4.27734 -20.5107 -7.12988 -40.4365q-1.90137 -12.8926 -4.27832 -25.1992t-9.03125 -31.0596
q-14.2598 0 -25.668 7.0332q-11.4082 7.03223 -19.4893 16.4082q-8.08105 9.37695 -12.3594 19.3389q-4.27832 9.96289 -4.27832 15.8232z" />
    <glyph glyph-name="odieresis" unicode="&#xf6;" horiz-adv-x="374" 
d="M12 183q9 133 29.5 223.5t49 144.5t62.5 76t71 18q38 -2 65.5 -22t45.5 -54t26.5 -78.5t8.5 -93.5q0 -70 -16.5 -143t-47.5 -134t-75.5 -100.5t-99.5 -42.5q-45 0 -69 21.5t-35 52.5t-13 66.5t-2 64.5v1zM219 564q-26 2 -48.5 -34.5t-39 -93t-26 -123t-9.5 -123.5
q0 -51 8 -85.5t25 -36.5q36 7 64.5 41t48.5 83t30.5 105.5t10.5 109.5q0 31 -4 59.5t-11.5 49.5t-19.5 34t-28 14h-1zM100 699q-9 13 -8 29.5t8.5 30t20 23t26.5 9.5q12 0 22.5 -5.5t20.5 -19.5l-2 2q10 -13 9.5 -29t-8 -30.5t-20.5 -24.5t-27 -10q-12 0 -22 5.5t-20 19.5z
M230 702q-9 12 -8.5 28t8 30.5t20 24.5t26.5 10q24 0 42 -24l-1 1q11 -12 12 -29t-5 -32t-18.5 -25.5t-28.5 -10.5q-24 0 -46 26z" />
    <glyph glyph-name="oslash" unicode="&#xf8;" horiz-adv-x="374" 
d="M12 183q9 133 29.5 223.5t49 144.5t62.5 76t71 18q38 -2 65.5 -22t45.5 -54t26.5 -78.5t8.5 -93.5q0 -70 -16.5 -143t-47.5 -134t-75.5 -100.5t-99.5 -42.5q-45 0 -69 21.5t-35 52.5t-13 66.5t-2 64.5v1zM219 564q-26 2 -48.5 -34.5t-39 -93t-26 -123t-9.5 -123.5
q0 -51 8 -85.5t25 -36.5q36 7 64.5 41t48.5 83t30.5 105.5t10.5 109.5q0 31 -4 59.5t-11.5 49.5t-19.5 34t-28 14h-1zM31.3926 -3.65137q-17.501 0 -28.6826 1.91309q-11.1807 1.91406 -17.9873 6.89062q-6.80566 4.97656 -10.6953 13.0146
q-3.88867 8.03809 -7.77832 21.0527l354.886 587.188q18.4736 7.65625 32.0859 5.74219t21.877 -9.56934q8.26367 -7.65625 10.6953 -18.7568q2.43066 -11.1006 -0.486328 -21.0527z" />
    <glyph glyph-name="ugrave" unicode="&#xf9;" 
d="M138 -22q-23 -5 -41 14t-31.5 54.5t-22.5 83.5t-14 100.5t-7.5 106.5t-2.5 102q0 27 0.5 51t1.5 43q0 6 5 17.5t16 21.5t30 14.5t47 -4.5q-2 -7 -4 -26.5t-4 -47.5t-3 -62t-1 -70q0 -47 1.5 -96.5t5 -91t10 -70.5t15.5 -35q19 7 38.5 31.5t38.5 59.5t35.5 78t29 89t20 92
t7.5 86q0 50 -17 93q3 4 10.5 10t16 12t16.5 10t11 4q21 0 32.5 -17.5t16.5 -40.5t5.5 -45t0.5 -31q1 -26 -7 -74t-23.5 -105t-38.5 -117t-52.5 -111t-65 -86.5t-76.5 -42.5h1zM102 789q8 14 15 22t15 11.5t17 4t21 0.5l83 -111q0 -9 -4.5 -21.5t-14 -22t-23 -13.5t-30.5 5z
" />
    <glyph glyph-name="uacute" unicode="&#xfa;" 
d="M138 -22q-23 -5 -41 14t-31.5 54.5t-22.5 83.5t-14 100.5t-7.5 106.5t-2.5 102q0 27 0.5 51t1.5 43q0 6 5 17.5t16 21.5t30 14.5t47 -4.5q-2 -7 -4 -26.5t-4 -47.5t-3 -62t-1 -70q0 -47 1.5 -96.5t5 -91t10 -70.5t15.5 -35q19 7 38.5 31.5t38.5 59.5t35.5 78t29 89t20 92
t7.5 86q0 50 -17 93q3 4 10.5 10t16 12t16.5 10t11 4q21 0 32.5 -17.5t16.5 -40.5t5.5 -45t0.5 -31q1 -26 -7 -74t-23.5 -105t-38.5 -117t-52.5 -111t-65 -86.5t-76.5 -42.5h1zM224 674q-25 -7 -38 -4.5t-20 9.5t-11 17t-12 18l83 111q12 0 21 -0.5t16.5 -4.5t15 -11.5
t15.5 -22.5z" />
    <glyph glyph-name="ucircumflex" unicode="&#xfb;" 
d="M138 -22q-23 -5 -41 14t-31.5 54.5t-22.5 83.5t-14 100.5t-7.5 106.5t-2.5 102q0 27 0.5 51t1.5 43q0 6 5 17.5t16 21.5t30 14.5t47 -4.5q-2 -7 -4 -26.5t-4 -47.5t-3 -62t-1 -70q0 -47 1.5 -96.5t5 -91t10 -70.5t15.5 -35q19 7 38.5 31.5t38.5 59.5t35.5 78t29 89t20 92
t7.5 86q0 50 -17 93q3 4 10.5 10t16 12t16.5 10t11 4q21 0 32.5 -17.5t16.5 -40.5t5.5 -45t0.5 -31q1 -26 -7 -74t-23.5 -105t-38.5 -117t-52.5 -111t-65 -86.5t-76.5 -42.5h1zM115 840q12 20 25.5 24t36.5 4l87 -117q0 -5 -1.5 -15t-9 -19t-24 -12t-45.5 6l-28 33
q-6 -10 -10 -16.5t-10 -16.5q-10 -13 -23 -16.5t-25.5 -0.5t-23.5 12t-17 21z" />
    <glyph glyph-name="udieresis" unicode="&#xfc;" 
d="M138 -22q-23 -5 -41 14t-31.5 54.5t-22.5 83.5t-14 100.5t-7.5 106.5t-2.5 102q0 27 0.5 51t1.5 43q0 6 5 17.5t16 21.5t30 14.5t47 -4.5q-2 -7 -4 -26.5t-4 -47.5t-3 -62t-1 -70q0 -47 1.5 -96.5t5 -91t10 -70.5t15.5 -35q19 7 38.5 31.5t38.5 59.5t35.5 78t29 89t20 92
t7.5 86q0 50 -17 93q3 4 10.5 10t16 12t16.5 10t11 4q21 0 32.5 -17.5t16.5 -40.5t5.5 -45t0.5 -31q1 -26 -7 -74t-23.5 -105t-38.5 -117t-52.5 -111t-65 -86.5t-76.5 -42.5h1zM85 673q-9 13 -8 29.5t8.5 30t20 23t26.5 9.5q12 0 22.5 -5.5t20.5 -19.5l-2 2q10 -13 9.5 -29
t-8 -30.5t-20.5 -24.5t-27 -10q-12 0 -22 5.5t-20 19.5zM215 676q-9 12 -8.5 28t8 30.5t20 24.5t26.5 10q24 0 42 -24l-1 1q11 -12 12 -29t-5 -32t-18.5 -25.5t-28.5 -10.5q-24 0 -46 26z" />
    <glyph glyph-name="yacute" unicode="&#xfd;" horiz-adv-x="555" 
d="M331 -428q-24 0 -53 2t-55.5 7.5t-47 15.5t-28.5 26l8 -8q-3 4 2.5 16.5t14.5 25t19.5 21t18.5 4.5h-1q50 -23 89 -23q36 0 58 20.5t34 52t16 69t4 71.5q0 32 -2 57t-3 36q-2 27 -4 64t-4.5 78.5t-5.5 86t-6 86.5t-6.5 79t-6.5 64q-17 -52 -37 -107t-41.5 -106t-44.5 -95
t-46 -75.5t-46 -48t-45 -11.5q-24 10 -42.5 35t-31 61.5t-18.5 82.5t-6 97q0 88 11.5 188t30.5 192q29 8 54.5 -1t33.5 -47q-23 -73 -32 -147.5t-9 -140.5q0 -45 2.5 -83.5t7 -67t10 -45.5t12.5 -18q6 4 18.5 30.5t28.5 66.5t34.5 89.5t37.5 100.5q26 69 50 133t44 106
q10 22 28.5 26t36.5 2h20q4 -30 9.5 -80t11 -111t11.5 -127.5t11 -127.5t9 -111.5t6 -79.5q1 -23 3 -51q2 -23 3.5 -49.5t1.5 -52.5q0 -44 -6 -87.5t-23.5 -81t-49.5 -66.5t-84 -42zM293 698q-25 -7 -38 -4.5t-20 9.5t-11 17t-12 18l83 111q12 0 21 -0.5t16.5 -4.5t15 -11.5
t15.5 -22.5z" />
    <glyph glyph-name="ydieresis" unicode="&#xff;" horiz-adv-x="555" 
d="M331 -428q-24 0 -53 2t-55.5 7.5t-47 15.5t-28.5 26l8 -8q-3 4 2.5 16.5t14.5 25t19.5 21t18.5 4.5h-1q50 -23 89 -23q36 0 58 20.5t34 52t16 69t4 71.5q0 32 -2 57t-3 36q-2 27 -4 64t-4.5 78.5t-5.5 86t-6 86.5t-6.5 79t-6.5 64q-17 -52 -37 -107t-41.5 -106t-44.5 -95
t-46 -75.5t-46 -48t-45 -11.5q-24 10 -42.5 35t-31 61.5t-18.5 82.5t-6 97q0 88 11.5 188t30.5 192q29 8 54.5 -1t33.5 -47q-23 -73 -32 -147.5t-9 -140.5q0 -45 2.5 -83.5t7 -67t10 -45.5t12.5 -18q6 4 18.5 30.5t28.5 66.5t34.5 89.5t37.5 100.5q26 69 50 133t44 106
q10 22 28.5 26t36.5 2h20q4 -30 9.5 -80t11 -111t11.5 -127.5t11 -127.5t9 -111.5t6 -79.5q1 -23 3 -51q2 -23 3.5 -49.5t1.5 -52.5q0 -44 -6 -87.5t-23.5 -81t-49.5 -66.5t-84 -42zM152 703q-9 13 -8 29.5t8.5 30t20 23t26.5 9.5q12 0 22.5 -5.5t20.5 -19.5l-2 2
q10 -13 9.5 -29t-8 -30.5t-20.5 -24.5t-27 -10q-12 0 -22 5.5t-20 19.5zM282 706q-9 12 -8.5 28t8 30.5t20 24.5t26.5 10q24 0 42 -24l-1 1q11 -12 12 -29t-5 -32t-18.5 -25.5t-28.5 -10.5q-24 0 -46 26z" />
    <glyph glyph-name="sterling" unicode="&#xa3;" horiz-adv-x="730" 
d="M8 314q0 14 11 26t20 20q20 -2 42 -3t39 -1h15h10.5h9.5t13 1q-1 17 -1.5 38t-0.5 37q0 91 17 153t44.5 99.5t63 53.5t72.5 16q27 0 54.5 -8t51.5 -22t44 -32.5t33 -39.5q-5 -27 -21.5 -41t-35.5 3q-38 27 -70 41.5t-56 14.5q-51 0 -74.5 -61t-23.5 -168v-19v-15.5
t0.5 -16t1.5 -21.5q10 2 19 3.5t18 3.5q39 8 86.5 13.5t118.5 5.5v-89q-4 -1 -32 -6t-65.5 -11.5t-76 -13t-63.5 -9.5q1 -25 1.5 -50t1.5 -47q2 -33 2 -51t1 -32q55 21 114.5 37t119.5 16q45 0 87 -12t81 -41q19 -17 25 -31t4 -24.5t-11.5 -18.5t-22.5 -13q-35 23 -72.5 33
t-75.5 10q-60 0 -118 -13.5t-103 -27.5q-24 -7 -44 -12t-35 -6t-24.5 4t-12.5 17q-11 55 -13.5 112t-3.5 116v23q-11 -1 -24 -1.5t-27 -0.5q-21 0 -41 2.5t-36.5 9t-26.5 18.5t-10 31z" />
    <glyph glyph-name="breve" unicode="&#x2d8;" horiz-adv-x="282" 
d="M60 756q21 -32 41 -43t37.5 -8.5t32.5 14.5t26 25t17.5 23.5t7.5 10.5q7 0 19 -1t21 -7t11.5 -18.5t-8.5 -35.5q-9 -28 -31.5 -45.5t-50.5 -26t-58.5 -7.5t-56.5 9.5t-44 24t-21 36.5z" />
    <glyph glyph-name="dotaccent" unicode="&#x2d9;" horiz-adv-x="128" 
d="M14 676q-6 13 -3.5 30t11.5 31.5t22.5 24.5t28.5 10q24 0 42 -24l-1 2q9 -9 7 -27t-11 -35.5t-23 -30.5t-29 -13q-12 0 -24 8t-20 25v-1z" />
    <glyph glyph-name="ogonek" unicode="&#x2db;" horiz-adv-x="266" 
d="M259 -154q-15 -15 -37.5 -23t-45.5 -8q-18 0 -35.5 5t-31 16t-22 28.5t-8.5 41.5q0 7 4 24.5t14 36.5t26.5 36t40.5 24l49 -41q-26 -17 -41 -38t-15 -36q0 -9 4.5 -15.5t15.5 -6.5q5 0 8 0.5t7 0.5q13 1 28 -1t35 -13z" />
    <glyph glyph-name="fraction" unicode="&#x2044;" horiz-adv-x="456" 
d="M340 859v-1l3 9q5 12 12 28t18.5 29.5t29 23t43.5 9.5v-25q0 -4 -0.5 -9.5t-0.5 -7.5q-2 -7 -7 -22.5t-10 -32t-10 -30.5t-7 -18q-5 -13 -19 -47.5t-33 -82.5t-42 -105.5t-46.5 -117t-46 -117t-41.5 -105.5t-32.5 -82.5t-18.5 -47.5q-6 -17 -12.5 -36t-13.5 -42
q-14 -48 -32.5 -99.5t-47.5 -97.5h-5.5t-5.5 -1q-1 0 -1 -0.5t-1 -0.5h-1q-5 0 -15 2q-4 1 -9 3q-4 2 -14 12t-12 14v28z" />
    <glyph glyph-name="Abreve" unicode="&#x102;" horiz-adv-x="604" 
d="M138 317q10 36 20 72.5t19 67t15 52.5t8 30q2 6 3 12.5t3 15.5q5 25 12 55.5t19 56t30 43t44 17.5q12 0 22.5 -7.5t18.5 -18.5t13 -22.5t7 -18.5l-1 1q24 -96 39 -157t23.5 -97t12 -51.5t4.5 -20.5q18 9 37.5 14t53.5 2q0 -18 -3 -30.5t-8 -21.5t-11.5 -15t-12.5 -12
q-8 -7 -14.5 -14.5t-6.5 -17.5q0 -32 14.5 -64t31.5 -61q20 -33 35 -68.5t15 -80.5q-33 -17 -55 -13t-37.5 22.5t-26 47t-19.5 59.5q-11 36 -27 73.5t-35 56.5q-7 -2 -24.5 -8t-39.5 -14.5t-46 -19t-44.5 -21.5t-35 -21.5t-17.5 -19.5v1q-16 -49 -32.5 -99t-32.5 -99
q-9 -23 -23 -27t-29 -4q-20 0 -36.5 10.5t-16.5 36.5zM214 251q16 3 37.5 8.5t44 13.5t43.5 18t37 24q-6 25 -15.5 67t-20.5 85t-22 79t-20 49zM253 874q21 -32 41 -43t37.5 -8.5t32.5 14.5t26 25t17.5 23.5t7.5 10.5q7 0 19 -1t21 -7t11.5 -18.5t-8.5 -35.5
q-9 -28 -31.5 -45.5t-50.5 -26t-58.5 -7.5t-56.5 9.5t-44 24t-21 36.5z" />
    <glyph glyph-name="macron" unicode="&#xaf;" horiz-adv-x="407" 
d="M8 654q0 7 2 19t5.5 23.5t8.5 21.5t10 15l354 -11l6 -84z" />
    <glyph glyph-name="Amacron" unicode="&#x100;" horiz-adv-x="604" 
d="M138 317q10 36 20 72.5t19 67t15 52.5t8 30q2 6 3 12.5t3 15.5q5 25 12 55.5t19 56t30 43t44 17.5q12 0 22.5 -7.5t18.5 -18.5t13 -22.5t7 -18.5l-1 1q24 -96 39 -157t23.5 -97t12 -51.5t4.5 -20.5q18 9 37.5 14t53.5 2q0 -18 -3 -30.5t-8 -21.5t-11.5 -15t-12.5 -12
q-8 -7 -14.5 -14.5t-6.5 -17.5q0 -32 14.5 -64t31.5 -61q20 -33 35 -68.5t15 -80.5q-33 -17 -55 -13t-37.5 22.5t-26 47t-19.5 59.5q-11 36 -27 73.5t-35 56.5q-7 -2 -24.5 -8t-39.5 -14.5t-46 -19t-44.5 -21.5t-35 -21.5t-17.5 -19.5v1q-16 -49 -32.5 -99t-32.5 -99
q-9 -23 -23 -27t-29 -4q-20 0 -36.5 10.5t-16.5 36.5zM214 251q16 3 37.5 8.5t44 13.5t43.5 18t37 24q-6 25 -15.5 67t-20.5 85t-22 79t-20 49zM87 783q0 7 2 19t5.5 23.5t8.5 21.5t10 15l354 -11l6 -84z" />
    <glyph glyph-name="Aogonek" unicode="&#x104;" horiz-adv-x="604" 
d="M138 317q10 36 20 72.5t19 67t15 52.5t8 30q2 6 3 12.5t3 15.5q5 25 12 55.5t19 56t30 43t44 17.5q12 0 22.5 -7.5t18.5 -18.5t13 -22.5t7 -18.5l-1 1q24 -96 39 -157t23.5 -97t12 -51.5t4.5 -20.5q18 9 37.5 14t53.5 2q0 -18 -3 -30.5t-8 -21.5t-11.5 -15t-12.5 -12
q-8 -7 -14.5 -14.5t-6.5 -17.5q0 -32 14.5 -64t31.5 -61q20 -33 35 -68.5t15 -80.5q-33 -17 -55 -13t-37.5 22.5t-26 47t-19.5 59.5q-11 36 -27 73.5t-35 56.5q-7 -2 -24.5 -8t-39.5 -14.5t-46 -19t-44.5 -21.5t-35 -21.5t-17.5 -19.5v1q-16 -49 -32.5 -99t-32.5 -99
q-9 -23 -23 -27t-29 -4q-20 0 -36.5 10.5t-16.5 36.5zM214 251q16 3 37.5 8.5t44 13.5t43.5 18t37 24q-6 25 -15.5 67t-20.5 85t-22 79t-20 49zM620 -129q-15 -15 -37.5 -23t-45.5 -8q-18 0 -35.5 5t-31 16t-22 28.5t-8.5 41.5q0 7 4 24.5t14 36.5t26.5 36t40.5 24l49 -41
q-26 -17 -41 -38t-15 -36q0 -9 4.5 -15.5t15.5 -6.5q5 0 8 0.5t7 0.5q13 1 28 -1t35 -13z" />
    <glyph glyph-name="Cacute" unicode="&#x106;" horiz-adv-x="555" 
d="M26 211q0 36 5 87t16.5 106t31 110t47.5 98t66.5 70t88.5 27q44 0 67 -23t32.5 -56.5t10.5 -73t1 -72.5q-28 0 -44 7.5t-24.5 19.5t-11.5 27.5t-5 32.5q-1 12 -3 23.5t-6.5 20.5t-13 15t-21.5 6q-27 0 -49 -24.5t-38 -63t-27.5 -85.5t-18.5 -92.5t-10.5 -84t-3.5 -58.5
q-1 -7 -1 -13.5v-13.5q0 -24 3.5 -50t12.5 -47.5t24.5 -34t39.5 -9.5q58 0 107.5 27.5t87.5 69.5t64 93t38 98h55q0 -44 -16 -88.5t-43 -85.5t-62.5 -76.5t-76 -62t-83 -42t-82.5 -15.5q-51 0 -82 22t-48 56t-22.5 75.5t-5.5 79.5zM266 753q-25 -7 -38 -4.5t-20 9.5t-11 17
t-12 18l83 111q12 0 21 -0.5t16.5 -4.5t15 -11.5t15.5 -22.5z" />
    <glyph glyph-name="Ccaron" unicode="&#x10c;" horiz-adv-x="555" 
d="M26 211q0 36 5 87t16.5 106t31 110t47.5 98t66.5 70t88.5 27q44 0 67 -23t32.5 -56.5t10.5 -73t1 -72.5q-28 0 -44 7.5t-24.5 19.5t-11.5 27.5t-5 32.5q-1 12 -3 23.5t-6.5 20.5t-13 15t-21.5 6q-27 0 -49 -24.5t-38 -63t-27.5 -85.5t-18.5 -92.5t-10.5 -84t-3.5 -58.5
q-1 -7 -1 -13.5v-13.5q0 -24 3.5 -50t12.5 -47.5t24.5 -34t39.5 -9.5q58 0 107.5 27.5t87.5 69.5t64 93t38 98h55q0 -44 -16 -88.5t-43 -85.5t-62.5 -76.5t-76 -62t-83 -42t-82.5 -15.5q-51 0 -82 22t-48 56t-22.5 75.5t-5.5 79.5zM326 769q-11 -17 -24.5 -21.5t-35.5 -4.5
l-106 127l6 12q4 13 8 24.5t11 17t18.5 2.5t30.5 -18l50 -64q13 16 25 31.5t25 30.5q17 19 29 24.5t20.5 0t14 -19.5t8.5 -35z" />
    <glyph glyph-name="Ccircumflex" unicode="&#x108;" horiz-adv-x="555" 
d="M26 211q0 36 5 87t16.5 106t31 110t47.5 98t66.5 70t88.5 27q44 0 67 -23t32.5 -56.5t10.5 -73t1 -72.5q-28 0 -44 7.5t-24.5 19.5t-11.5 27.5t-5 32.5q-1 12 -3 23.5t-6.5 20.5t-13 15t-21.5 6q-27 0 -49 -24.5t-38 -63t-27.5 -85.5t-18.5 -92.5t-10.5 -84t-3.5 -58.5
q-1 -7 -1 -13.5v-13.5q0 -24 3.5 -50t12.5 -47.5t24.5 -34t39.5 -9.5q58 0 107.5 27.5t87.5 69.5t64 93t38 98h55q0 -44 -16 -88.5t-43 -85.5t-62.5 -76.5t-76 -62t-83 -42t-82.5 -15.5q-51 0 -82 22t-48 56t-22.5 75.5t-5.5 79.5zM219 910q12 20 25.5 24t36.5 4l87 -117
q0 -5 -1.5 -15t-9 -19t-24 -12t-45.5 6l-28 33q-6 -10 -10 -16.5t-10 -16.5q-10 -13 -23 -16.5t-25.5 -0.5t-23.5 12t-17 21z" />
    <glyph glyph-name="Cdotaccent" unicode="&#x10a;" horiz-adv-x="555" 
d="M26 211q0 36 5 87t16.5 106t31 110t47.5 98t66.5 70t88.5 27q44 0 67 -23t32.5 -56.5t10.5 -73t1 -72.5q-28 0 -44 7.5t-24.5 19.5t-11.5 27.5t-5 32.5q-1 12 -3 23.5t-6.5 20.5t-13 15t-21.5 6q-27 0 -49 -24.5t-38 -63t-27.5 -85.5t-18.5 -92.5t-10.5 -84t-3.5 -58.5
q-1 -7 -1 -13.5v-13.5q0 -24 3.5 -50t12.5 -47.5t24.5 -34t39.5 -9.5q58 0 107.5 27.5t87.5 69.5t64 93t38 98h55q0 -44 -16 -88.5t-43 -85.5t-62.5 -76.5t-76 -62t-83 -42t-82.5 -15.5q-51 0 -82 22t-48 56t-22.5 75.5t-5.5 79.5zM208 776q-6 13 -3.5 30t11.5 31.5
t22.5 24.5t28.5 10q24 0 42 -24l-1 2q9 -9 7 -27t-11 -35.5t-23 -30.5t-29 -13q-12 0 -24 8t-20 25v-1z" />
    <glyph glyph-name="Dcaron" unicode="&#x10e;" horiz-adv-x="620" 
d="M94 585q-11 -5 -23.5 -9t-20.5 -4q-24 0 -31.5 14.5t14.5 49.5q33 31 73 45.5t83 19t88 1.5t87 -6q52 -13 93.5 -37t71.5 -56t47.5 -71t20.5 -82q0 -50 -19.5 -104.5t-54 -107t-80 -100t-98 -83t-108 -56.5t-109.5 -21q0 89 -5 173t-12 166q-5 70 -10 136.5t-7 131.5z
M258 634q-39 0 -77 -11q4 -152 8 -251.5t7.5 -163t6.5 -97.5t5 -53l1 -1q34 7 71 30.5t71.5 57.5t65.5 74.5t54 81.5t36 80t13 70q0 44 -23.5 78t-61.5 57.5t-85 35.5t-92 12zM209 56q0 1 -0.5 1t-0.5 1t1 -3t0 1zM316 752q-11 -17 -24.5 -21.5t-35.5 -4.5l-106 127l6 12
q4 13 8 24.5t11 17t18.5 2.5t30.5 -18l50 -64q13 16 25 31.5t25 30.5q17 19 29 24.5t20.5 0t14 -19.5t8.5 -35z" />
    <glyph glyph-name="Dcroat" unicode="&#x110;" horiz-adv-x="620" 
d="M94 585q-11 -5 -23.5 -9t-20.5 -4q-24 0 -31.5 14.5t14.5 49.5q33 31 73 45.5t83 19t88 1.5t87 -6q52 -13 93.5 -37t71.5 -56t47.5 -71t20.5 -82q0 -50 -19.5 -104.5t-54 -107t-80 -100t-98 -83t-108 -56.5t-109.5 -21q0 89 -5 173t-12 166q-5 70 -10 136.5t-7 131.5z
M258 634q-39 0 -77 -11q4 -152 8 -251.5t7.5 -163t6.5 -97.5t5 -53l1 -1q34 7 71 30.5t71.5 57.5t65.5 74.5t54 81.5t36 80t13 70q0 44 -23.5 78t-61.5 57.5t-85 35.5t-92 12zM209 56q0 1 -0.5 1t-0.5 1t1 -3t0 1zM8.32031 345.778q0 4.84668 1.3291 13.1543
q1.33008 8.30762 3.6582 16.2695q2.32715 7.96191 5.65137 14.8848q3.3252 6.92285 6.65039 10.3848l235.402 -7.61523l3.98926 -58.1553z" />
    <glyph glyph-name="Ebreve" unicode="&#x114;" horiz-adv-x="620" 
d="M227 -22q-32 0 -67 6.5t-65 23t-49.5 43.5t-19.5 69q-1 25 6.5 49t19 46t25.5 42.5t27 37.5q5 6 9 12t8 11q-14 2 -31.5 7t-32 15.5t-23.5 28t-6 43.5q6 46 27.5 98.5t55 96.5t78.5 73.5t98 29.5q18 -1 34.5 -10t29 -22t19.5 -27.5t7 -27.5q0 -17 -13.5 -29t-44.5 -14
q-8 25 -28.5 38.5t-43.5 9.5q-21 -5 -44.5 -26.5t-43.5 -50.5t-33.5 -61t-13.5 -57q0 -16 9 -26t30 -11q24 -1 49 12.5t49 30.5q23 15 46 28t47 14q6 0 15 -0.5t18 -4t15 -11.5t6 -22q0 -26 -29.5 -49.5t-69.5 -48.5q-29 -18 -60.5 -40t-58 -47.5t-44 -55t-17.5 -63.5
q0 -21 7.5 -35t20.5 -22t30.5 -11t36.5 -3q52 0 100.5 19t93 49.5t84 68.5t74.5 77h48q0 -33 -21.5 -68t-56 -69t-77.5 -64t-86 -53t-81 -36.5t-63 -13.5zM186 841q21 -32 41 -43t37.5 -8.5t32.5 14.5t26 25t17.5 23.5t7.5 10.5q7 0 19 -1t21 -7t11.5 -18.5t-8.5 -35.5
q-9 -28 -31.5 -45.5t-50.5 -26t-58.5 -7.5t-56.5 9.5t-44 24t-21 36.5z" />
    <glyph glyph-name="Ecaron" unicode="&#x11a;" horiz-adv-x="620" 
d="M227 -22q-32 0 -67 6.5t-65 23t-49.5 43.5t-19.5 69q-1 25 6.5 49t19 46t25.5 42.5t27 37.5q5 6 9 12t8 11q-14 2 -31.5 7t-32 15.5t-23.5 28t-6 43.5q6 46 27.5 98.5t55 96.5t78.5 73.5t98 29.5q18 -1 34.5 -10t29 -22t19.5 -27.5t7 -27.5q0 -17 -13.5 -29t-44.5 -14
q-8 25 -28.5 38.5t-43.5 9.5q-21 -5 -44.5 -26.5t-43.5 -50.5t-33.5 -61t-13.5 -57q0 -16 9 -26t30 -11q24 -1 49 12.5t49 30.5q23 15 46 28t47 14q6 0 15 -0.5t18 -4t15 -11.5t6 -22q0 -26 -29.5 -49.5t-69.5 -48.5q-29 -18 -60.5 -40t-58 -47.5t-44 -55t-17.5 -63.5
q0 -21 7.5 -35t20.5 -22t30.5 -11t36.5 -3q52 0 100.5 19t93 49.5t84 68.5t74.5 77h48q0 -33 -21.5 -68t-56 -69t-77.5 -64t-86 -53t-81 -36.5t-63 -13.5zM282 774q-11 -17 -24.5 -21.5t-35.5 -4.5l-106 127l6 12q4 13 8 24.5t11 17t18.5 2.5t30.5 -18l50 -64q13 16 25 31.5
t25 30.5q17 19 29 24.5t20.5 0t14 -19.5t8.5 -35z" />
    <glyph glyph-name="Edotaccent" unicode="&#x116;" horiz-adv-x="620" 
d="M227 -22q-32 0 -67 6.5t-65 23t-49.5 43.5t-19.5 69q-1 25 6.5 49t19 46t25.5 42.5t27 37.5q5 6 9 12t8 11q-14 2 -31.5 7t-32 15.5t-23.5 28t-6 43.5q6 46 27.5 98.5t55 96.5t78.5 73.5t98 29.5q18 -1 34.5 -10t29 -22t19.5 -27.5t7 -27.5q0 -17 -13.5 -29t-44.5 -14
q-8 25 -28.5 38.5t-43.5 9.5q-21 -5 -44.5 -26.5t-43.5 -50.5t-33.5 -61t-13.5 -57q0 -16 9 -26t30 -11q24 -1 49 12.5t49 30.5q23 15 46 28t47 14q6 0 15 -0.5t18 -4t15 -11.5t6 -22q0 -26 -29.5 -49.5t-69.5 -48.5q-29 -18 -60.5 -40t-58 -47.5t-44 -55t-17.5 -63.5
q0 -21 7.5 -35t20.5 -22t30.5 -11t36.5 -3q52 0 100.5 19t93 49.5t84 68.5t74.5 77h48q0 -33 -21.5 -68t-56 -69t-77.5 -64t-86 -53t-81 -36.5t-63 -13.5zM171 766q-6 13 -3.5 30t11.5 31.5t22.5 24.5t28.5 10q24 0 42 -24l-1 2q9 -9 7 -27t-11 -35.5t-23 -30.5t-29 -13
q-12 0 -24 8t-20 25v-1z" />
    <glyph glyph-name="Emacron" unicode="&#x112;" horiz-adv-x="620" 
d="M227 -22q-32 0 -67 6.5t-65 23t-49.5 43.5t-19.5 69q-1 25 6.5 49t19 46t25.5 42.5t27 37.5q5 6 9 12t8 11q-14 2 -31.5 7t-32 15.5t-23.5 28t-6 43.5q6 46 27.5 98.5t55 96.5t78.5 73.5t98 29.5q18 -1 34.5 -10t29 -22t19.5 -27.5t7 -27.5q0 -17 -13.5 -29t-44.5 -14
q-8 25 -28.5 38.5t-43.5 9.5q-21 -5 -44.5 -26.5t-43.5 -50.5t-33.5 -61t-13.5 -57q0 -16 9 -26t30 -11q24 -1 49 12.5t49 30.5q23 15 46 28t47 14q6 0 15 -0.5t18 -4t15 -11.5t6 -22q0 -26 -29.5 -49.5t-69.5 -48.5q-29 -18 -60.5 -40t-58 -47.5t-44 -55t-17.5 -63.5
q0 -21 7.5 -35t20.5 -22t30.5 -11t36.5 -3q52 0 100.5 19t93 49.5t84 68.5t74.5 77h48q0 -33 -21.5 -68t-56 -69t-77.5 -64t-86 -53t-81 -36.5t-63 -13.5zM40 744q0 7 2 19t5.5 23.5t8.5 21.5t10 15l354 -11l6 -84z" />
    <glyph glyph-name="Eogonek" unicode="&#x118;" horiz-adv-x="620" 
d="M227 -22q-32 0 -67 6.5t-65 23t-49.5 43.5t-19.5 69q-1 25 6.5 49t19 46t25.5 42.5t27 37.5q5 6 9 12t8 11q-14 2 -31.5 7t-32 15.5t-23.5 28t-6 43.5q6 46 27.5 98.5t55 96.5t78.5 73.5t98 29.5q18 -1 34.5 -10t29 -22t19.5 -27.5t7 -27.5q0 -17 -13.5 -29t-44.5 -14
q-8 25 -28.5 38.5t-43.5 9.5q-21 -5 -44.5 -26.5t-43.5 -50.5t-33.5 -61t-13.5 -57q0 -16 9 -26t30 -11q24 -1 49 12.5t49 30.5q23 15 46 28t47 14q6 0 15 -0.5t18 -4t15 -11.5t6 -22q0 -26 -29.5 -49.5t-69.5 -48.5q-29 -18 -60.5 -40t-58 -47.5t-44 -55t-17.5 -63.5
q0 -21 7.5 -35t20.5 -22t30.5 -11t36.5 -3q52 0 100.5 19t93 49.5t84 68.5t74.5 77h48q0 -33 -21.5 -68t-56 -69t-77.5 -64t-86 -53t-81 -36.5t-63 -13.5zM527 -48q-15 -15 -37.5 -23t-45.5 -8q-18 0 -35.5 5t-31 16t-22 28.5t-8.5 41.5q0 7 4 24.5t14 36.5t26.5 36t40.5 24
l49 -41q-26 -17 -41 -38t-15 -36q0 -9 4.5 -15.5t15.5 -6.5q5 0 8 0.5t7 0.5q13 1 28 -1t35 -13z" />
    <glyph glyph-name="Gbreve" unicode="&#x11e;" horiz-adv-x="637" 
d="M26 210q0 26 8.5 73.5t24 103.5t37.5 113.5t50 104.5t61.5 77t70.5 30h-2q11 1 24 0.5t25.5 -6.5t23 -19t16.5 -36q0 -12 -6.5 -21.5t-16.5 -15.5t-22.5 -8.5t-24.5 -0.5q-2 4 -5.5 8.5t-7.5 5.5q-15 7 -34 -9t-38 -48t-37 -76t-32 -92.5t-22.5 -98t-8.5 -93.5
q0 -31 5.5 -57.5t17.5 -44.5t31.5 -27t47.5 -5q24 0 54 8t60.5 22.5t60 34.5t52 43.5t36.5 49.5t14 53q0 10 -3 26.5t-9 32t-14.5 26.5t-20.5 11q-38 2 -70 -14.5t-57 -38t-40 -41.5l-18 -24q-6 0 -17 0.5t-21.5 4t-18.5 11.5t-8 22q0 21 15 42t38 39.5t51.5 34.5t56 28
t51 18.5t36.5 6.5q34 0 56.5 -12.5t37.5 -33.5t24 -47.5t17 -54.5q3 -12 10.5 -43t15.5 -67t15 -71t9 -56q-4 -9 -9 -20.5t-11.5 -20t-15.5 -12t-22 2.5q-15 9 -24 23.5t-14.5 31t-9 34.5t-6.5 34q-27 -33 -60 -64.5t-70.5 -56t-79 -39t-86.5 -14.5q-59 0 -96 16.5t-58 47
t-29 73t-8 95.5zM203 868q21 -32 41 -43t37.5 -8.5t32.5 14.5t26 25t17.5 23.5t7.5 10.5q7 0 19 -1t21 -7t11.5 -18.5t-8.5 -35.5q-9 -28 -31.5 -45.5t-50.5 -26t-58.5 -7.5t-56.5 9.5t-44 24t-21 36.5z" />
    <glyph glyph-name="Gcircumflex" unicode="&#x11c;" horiz-adv-x="637" 
d="M26 210q0 26 8.5 73.5t24 103.5t37.5 113.5t50 104.5t61.5 77t70.5 30h-2q11 1 24 0.5t25.5 -6.5t23 -19t16.5 -36q0 -12 -6.5 -21.5t-16.5 -15.5t-22.5 -8.5t-24.5 -0.5q-2 4 -5.5 8.5t-7.5 5.5q-15 7 -34 -9t-38 -48t-37 -76t-32 -92.5t-22.5 -98t-8.5 -93.5
q0 -31 5.5 -57.5t17.5 -44.5t31.5 -27t47.5 -5q24 0 54 8t60.5 22.5t60 34.5t52 43.5t36.5 49.5t14 53q0 10 -3 26.5t-9 32t-14.5 26.5t-20.5 11q-38 2 -70 -14.5t-57 -38t-40 -41.5l-18 -24q-6 0 -17 0.5t-21.5 4t-18.5 11.5t-8 22q0 21 15 42t38 39.5t51.5 34.5t56 28
t51 18.5t36.5 6.5q34 0 56.5 -12.5t37.5 -33.5t24 -47.5t17 -54.5q3 -12 10.5 -43t15.5 -67t15 -71t9 -56q-4 -9 -9 -20.5t-11.5 -20t-15.5 -12t-22 2.5q-15 9 -24 23.5t-14.5 31t-9 34.5t-6.5 34q-27 -33 -60 -64.5t-70.5 -56t-79 -39t-86.5 -14.5q-59 0 -96 16.5t-58 47
t-29 73t-8 95.5zM237 891q12 20 25.5 24t36.5 4l87 -117q0 -5 -1.5 -15t-9 -19t-24 -12t-45.5 6l-28 33q-6 -10 -10 -16.5t-10 -16.5q-10 -13 -23 -16.5t-25.5 -0.5t-23.5 12t-17 21z" />
    <glyph glyph-name="commaaccent" unicode="&#xf6c3;" horiz-adv-x="297" 
d="M190 -97q-31 -60 -47.5 -96t-23.5 -55.5t-6.5 -25t5.5 -4.5q-3 -2 -5.5 -2t-5.5 -1q-22 -7 -31.5 12t-9.5 53q0 27 5.5 59.5t16 61t25 47.5t32.5 19q26 0 52 -43z" />
    <glyph glyph-name="Gcommaaccent" unicode="&#x122;" horiz-adv-x="637" 
d="M26 210q0 26 8.5 73.5t24 103.5t37.5 113.5t50 104.5t61.5 77t70.5 30h-2q11 1 24 0.5t25.5 -6.5t23 -19t16.5 -36q0 -12 -6.5 -21.5t-16.5 -15.5t-22.5 -8.5t-24.5 -0.5q-2 4 -5.5 8.5t-7.5 5.5q-15 7 -34 -9t-38 -48t-37 -76t-32 -92.5t-22.5 -98t-8.5 -93.5
q0 -31 5.5 -57.5t17.5 -44.5t31.5 -27t47.5 -5q24 0 54 8t60.5 22.5t60 34.5t52 43.5t36.5 49.5t14 53q0 10 -3 26.5t-9 32t-14.5 26.5t-20.5 11q-38 2 -70 -14.5t-57 -38t-40 -41.5l-18 -24q-6 0 -17 0.5t-21.5 4t-18.5 11.5t-8 22q0 21 15 42t38 39.5t51.5 34.5t56 28
t51 18.5t36.5 6.5q34 0 56.5 -12.5t37.5 -33.5t24 -47.5t17 -54.5q3 -12 10.5 -43t15.5 -67t15 -71t9 -56q-4 -9 -9 -20.5t-11.5 -20t-15.5 -12t-22 2.5q-15 9 -24 23.5t-14.5 31t-9 34.5t-6.5 34q-27 -33 -60 -64.5t-70.5 -56t-79 -39t-86.5 -14.5q-59 0 -96 16.5t-58 47
t-29 73t-8 95.5zM302 -97q-31 -60 -47.5 -96t-23.5 -55.5t-6.5 -25t5.5 -4.5q-3 -2 -5.5 -2t-5.5 -1q-22 -7 -31.5 12t-9.5 53q0 27 5.5 59.5t16 61t25 47.5t32.5 19q26 0 52 -43z" />
    <glyph glyph-name="Gdotaccent" unicode="&#x120;" horiz-adv-x="637" 
d="M26 210q0 26 8.5 73.5t24 103.5t37.5 113.5t50 104.5t61.5 77t70.5 30h-2q11 1 24 0.5t25.5 -6.5t23 -19t16.5 -36q0 -12 -6.5 -21.5t-16.5 -15.5t-22.5 -8.5t-24.5 -0.5q-2 4 -5.5 8.5t-7.5 5.5q-15 7 -34 -9t-38 -48t-37 -76t-32 -92.5t-22.5 -98t-8.5 -93.5
q0 -31 5.5 -57.5t17.5 -44.5t31.5 -27t47.5 -5q24 0 54 8t60.5 22.5t60 34.5t52 43.5t36.5 49.5t14 53q0 10 -3 26.5t-9 32t-14.5 26.5t-20.5 11q-38 2 -70 -14.5t-57 -38t-40 -41.5l-18 -24q-6 0 -17 0.5t-21.5 4t-18.5 11.5t-8 22q0 21 15 42t38 39.5t51.5 34.5t56 28
t51 18.5t36.5 6.5q34 0 56.5 -12.5t37.5 -33.5t24 -47.5t17 -54.5q3 -12 10.5 -43t15.5 -67t15 -71t9 -56q-4 -9 -9 -20.5t-11.5 -20t-15.5 -12t-22 2.5q-15 9 -24 23.5t-14.5 31t-9 34.5t-6.5 34q-27 -33 -60 -64.5t-70.5 -56t-79 -39t-86.5 -14.5q-59 0 -96 16.5t-58 47
t-29 73t-8 95.5zM225 770q-6 13 -3.5 30t11.5 31.5t22.5 24.5t28.5 10q24 0 42 -24l-1 2q9 -9 7 -27t-11 -35.5t-23 -30.5t-29 -13q-12 0 -24 8t-20 25v-1z" />
    <glyph glyph-name="Hbar" unicode="&#x126;" horiz-adv-x="522" 
d="M101 -18q-11 25 -17 52t-9 55t-5 56t-6 55q-29 -1 -36 13t2 43q5 5 14.5 10.5t18.5 9.5q9 52 12.5 105.5t4 107t0 107.5t1.5 108q20 8 32.5 11t20.5 3q28 0 32.5 -15t4.5 -41q0 -81 -3.5 -162t-1.5 -174q25 10 63 25.5t73.5 32t61 31.5t25.5 26q0 62 -6.5 124t-7.5 132
q29 38 54 28.5t32 -67.5v1q1 -10 3.5 -35.5t5 -56t4.5 -60t3 -48.5q11 -6 14 -18t1 -25.5t-6.5 -26.5t-7.5 -19q1 -91 2.5 -181t2.5 -181q0 -19 -20.5 -24t-62.5 -10l-12 363q-27 -5 -61.5 -18t-67 -29.5t-58 -34t-35.5 -31.5q-4 -35 1.5 -72t5.5 -76q0 -20 -7 -38
t-17.5 -31t-23 -20t-24.5 -5zM48 512q0 7 2 19t5.5 23.5t8.5 21.5t10 15l354 -11l6 -84z" />
    <glyph glyph-name="Hcircumflex" unicode="&#x124;" horiz-adv-x="522" 
d="M101 -18q-11 25 -17 52t-9 55t-5 56t-6 55q-29 -1 -36 13t2 43q5 5 14.5 10.5t18.5 9.5q9 52 12.5 105.5t4 107t0 107.5t1.5 108q20 8 32.5 11t20.5 3q28 0 32.5 -15t4.5 -41q0 -81 -3.5 -162t-1.5 -174q25 10 63 25.5t73.5 32t61 31.5t25.5 26q0 62 -6.5 124t-7.5 132
q29 38 54 28.5t32 -67.5v1q1 -10 3.5 -35.5t5 -56t4.5 -60t3 -48.5q11 -6 14 -18t1 -25.5t-6.5 -26.5t-7.5 -19q1 -91 2.5 -181t2.5 -181q0 -19 -20.5 -24t-62.5 -10l-12 363q-27 -5 -61.5 -18t-67 -29.5t-58 -34t-35.5 -31.5q-4 -35 1.5 -72t5.5 -76q0 -20 -7 -38
t-17.5 -31t-23 -20t-24.5 -5zM209 942q12 20 25.5 24t36.5 4l87 -117q0 -5 -1.5 -15t-9 -19t-24 -12t-45.5 6l-28 33q-6 -10 -10 -16.5t-10 -16.5q-10 -13 -23 -16.5t-25.5 -0.5t-23.5 12t-17 21z" />
    <glyph glyph-name="Ibreve" unicode="&#x12c;" horiz-adv-x="161" 
d="M30 53q-4 28 -7 77.5t-4.5 110.5t-2 129t0.5 132.5t3 120.5t5 93l66 -6q1 -19 2 -48t2 -62.5t1 -70.5v-73q0 -81 4 -148.5t9 -120t10.5 -89t8.5 -54.5q2 -12 3.5 -23.5t-1.5 -21t-12 -15.5t-29 -6q-15 0 -25 8.5t-17 20t-11 24.5t-6 22zM10 884q21 -32 41 -43t37.5 -8.5
t32.5 14.5t26 25t17.5 23.5t7.5 10.5q7 0 19 -1t21 -7t11.5 -18.5t-8.5 -35.5q-9 -28 -31.5 -45.5t-50.5 -26t-58.5 -7.5t-56.5 9.5t-44 24t-21 36.5z" />
    <glyph glyph-name="Idotaccent" unicode="&#x130;" horiz-adv-x="161" 
d="M30 53q-4 28 -7 77.5t-4.5 110.5t-2 129t0.5 132.5t3 120.5t5 93l66 -6q1 -19 2 -48t2 -62.5t1 -70.5v-73q0 -81 4 -148.5t9 -120t10.5 -89t8.5 -54.5q2 -12 3.5 -23.5t-1.5 -21t-12 -15.5t-29 -6q-15 0 -25 8.5t-17 20t-11 24.5t-6 22zM14 807q-6 13 -3.5 30t11.5 31.5
t22.5 24.5t28.5 10q24 0 42 -24l-1 2q9 -9 7 -27t-11 -35.5t-23 -30.5t-29 -13q-12 0 -24 8t-20 25v-1z" />
    <glyph glyph-name="Imacron" unicode="&#x12a;" horiz-adv-x="161" 
d="M30 53q-4 28 -7 77.5t-4.5 110.5t-2 129t0.5 132.5t3 120.5t5 93l66 -6q1 -19 2 -48t2 -62.5t1 -70.5v-73q0 -81 4 -148.5t9 -120t10.5 -89t8.5 -54.5q2 -12 3.5 -23.5t-1.5 -21t-12 -15.5t-29 -6q-15 0 -25 8.5t-17 20t-11 24.5t-6 22zM-154 776q0 7 2 19t5.5 23.5
t8.5 21.5t10 15l354 -11l6 -84z" />
    <glyph glyph-name="Iogonek" unicode="&#x12e;" horiz-adv-x="161" 
d="M30 53q-4 28 -7 77.5t-4.5 110.5t-2 129t0.5 132.5t3 120.5t5 93l66 -6q1 -19 2 -48t2 -62.5t1 -70.5v-73q0 -81 4 -148.5t9 -120t10.5 -89t8.5 -54.5q2 -12 3.5 -23.5t-1.5 -21t-12 -15.5t-29 -6q-15 0 -25 8.5t-17 20t-11 24.5t-6 22zM164 -116q-15 -15 -37.5 -23
t-45.5 -8q-18 0 -35.5 5t-31 16t-22 28.5t-8.5 41.5q0 7 4 24.5t14 36.5t26.5 36t40.5 24l49 -41q-26 -17 -41 -38t-15 -36q0 -9 4.5 -15.5t15.5 -6.5q5 0 8 0.5t7 0.5q13 1 28 -1t35 -13z" />
    <glyph glyph-name="Itilde" unicode="&#x128;" horiz-adv-x="161" 
d="M30 53q-4 28 -7 77.5t-4.5 110.5t-2 129t0.5 132.5t3 120.5t5 93l66 -6q1 -19 2 -48t2 -62.5t1 -70.5v-73q0 -81 4 -148.5t9 -120t10.5 -89t8.5 -54.5q2 -12 3.5 -23.5t-1.5 -21t-12 -15.5t-29 -6q-15 0 -25 8.5t-17 20t-11 24.5t-6 22zM-120 756q0 10 4.5 31.5t16 43
t30 37.5t46.5 16q33 0 57.5 -13.5t47.5 -30.5q19 -14 39.5 -26t46.5 -12q19 -1 35.5 8t30 22.5t23 28.5t15.5 26q5 2 13.5 -3.5t17 -14t14.5 -18.5t6 -18l3 7q0 -20 -15.5 -39.5t-38.5 -36t-50 -26.5t-50 -10q-56 1 -100 25t-89 57q-12 -4 -16.5 -21.5t-7.5 -34.5
q-2 -11 -4.5 -21.5t-9.5 -26.5q-15 0 -27 6t-20.5 14t-13 16.5t-4.5 13.5z" />
    <glyph glyph-name="Jcircumflex" unicode="&#x134;" horiz-adv-x="604" 
d="M8 189q0 13 1 27.5t8 28t23.5 25t46.5 18.5q-6 -48 -6 -70q0 -81 47.5 -115.5t138.5 -34.5q54 0 95.5 19t69 52t42 77.5t14.5 95.5q9 94 -9.5 193.5t-48.5 195.5q31 13 53 2.5t37.5 -37t25 -65t15.5 -80.5t9 -84t5 -76q7 -67 -8.5 -135t-52.5 -122.5t-96.5 -89
t-140.5 -34.5q-45 0 -92.5 11.5t-86.5 36t-64.5 62t-25.5 90.5v9zM238 905q12 20 25.5 24t36.5 4l87 -117q0 -5 -1.5 -15t-9 -19t-24 -12t-45.5 6l-28 33q-6 -10 -10 -16.5t-10 -16.5q-10 -13 -23 -16.5t-25.5 -0.5t-23.5 12t-17 21z" />
    <glyph glyph-name="Kcommaaccent" unicode="&#x136;" horiz-adv-x="702" 
d="M139 2q-10 -21 -24.5 -28.5t-28.5 -4t-24.5 17t-12.5 33.5q-1 22 -2 65t-2 98.5t-2.5 120.5t-2.5 130.5t-1.5 127.5t-0.5 113q12 18 27.5 25t40.5 4q15 -50 19 -101.5t4.5 -104t1.5 -105t9 -104.5q34 21 70.5 57.5t71.5 79t66.5 87t56.5 81.5q25 38 46.5 69.5t40 50
t34.5 21t30 -18.5q7 -20 -2 -50t-30 -65.5t-51 -75t-64.5 -80.5t-70.5 -80.5t-69 -75.5l-25.5 -27t-22.5 -24q60 -48 120 -79.5t118.5 -50.5t115 -28.5t110.5 -13.5q0 -1 0.5 -12t0.5 -15q0 -17 -7 -27t-18 -14.5t-23.5 -5t-22.5 -0.5h-6q-51 1 -98.5 12.5t-90.5 29
t-82.5 38t-73.5 40.5q-36 20 -66.5 36t-53.5 21zM321 -86q-31 -60 -47.5 -96t-23.5 -55.5t-6.5 -25t5.5 -4.5q-3 -2 -5.5 -2t-5.5 -1q-22 -7 -31.5 12t-9.5 53q0 27 5.5 59.5t16 61t25 47.5t32.5 19q26 0 52 -43z" />
    <glyph glyph-name="Lacute" unicode="&#x139;" horiz-adv-x="555" 
d="M44 29q-14 84 -19.5 170t-7 172.5t-1.5 174t-4 175.5q36 0 55 -5.5t27.5 -15.5t9 -24.5t-1.5 -32.5q-6 -70 -3 -140t10 -141t13.5 -143t8.5 -146q13 0 39.5 6.5t61 17t73 23t74.5 24.5t67 21.5t51 14.5q30 2 46 -10t6 -46q-11 -6 -46.5 -20t-83 -30.5t-101 -34
t-100.5 -31t-82 -22t-44 -6.5q-8 -3 -17.5 1.5t-17 12t-11.5 17t-1 17.5zM267 728q-25 -7 -38 -4.5t-20 9.5t-11 17t-12 18l83 111q12 0 21 -0.5t16.5 -4.5t15 -11.5t15.5 -22.5z" />
    <glyph glyph-name="Lcaron" unicode="&#x13d;" horiz-adv-x="555" 
d="M302 628q-31 -60 -47.5 -96t-23.5 -55.5t-6.5 -25t5.5 -4.5q-3 -2 -5.5 -2t-5.5 -1q-22 -7 -31.5 12t-9.5 53q0 27 5.5 59.5t16 61t25 47.5t32.5 19q26 0 52 -43zM44 29q-14 84 -19.5 170t-7 172.5t-1.5 174t-4 175.5q36 0 55 -5.5t27.5 -15.5t9 -24.5t-1.5 -32.5
q-6 -70 -3 -140t10 -141t13.5 -143t8.5 -146q13 0 39.5 6.5t61 17t73 23t74.5 24.5t67 21.5t51 14.5q30 2 46 -10t6 -46q-11 -6 -46.5 -20t-83 -30.5t-101 -34t-100.5 -31t-82 -22t-44 -6.5q-8 -3 -17.5 1.5t-17 12t-11.5 17t-1 17.5z" />
    <glyph glyph-name="Lcommaaccent" unicode="&#x13b;" horiz-adv-x="555" 
d="M44 29q-14 84 -19.5 170t-7 172.5t-1.5 174t-4 175.5q36 0 55 -5.5t27.5 -15.5t9 -24.5t-1.5 -32.5q-6 -70 -3 -140t10 -141t13.5 -143t8.5 -146q13 0 39.5 6.5t61 17t73 23t74.5 24.5t67 21.5t51 14.5q30 2 46 -10t6 -46q-11 -6 -46.5 -20t-83 -30.5t-101 -34
t-100.5 -31t-82 -22t-44 -6.5q-8 -3 -17.5 1.5t-17 12t-11.5 17t-1 17.5zM379 -99q-31 -60 -47.5 -96t-23.5 -55.5t-6.5 -25t5.5 -4.5q-3 -2 -5.5 -2t-5.5 -1q-22 -7 -31.5 12t-9.5 53q0 27 5.5 59.5t16 61t25 47.5t32.5 19q26 0 52 -43z" />
    <glyph glyph-name="Ldot" unicode="&#x13f;" horiz-adv-x="555" 
d="M44 29q-14 84 -19.5 170t-7 172.5t-1.5 174t-4 175.5q36 0 55 -5.5t27.5 -15.5t9 -24.5t-1.5 -32.5q-6 -70 -3 -140t10 -141t13.5 -143t8.5 -146q13 0 39.5 6.5t61 17t73 23t74.5 24.5t67 21.5t51 14.5q30 2 46 -10t6 -46q-11 -6 -46.5 -20t-83 -30.5t-101 -34
t-100.5 -31t-82 -22t-44 -6.5q-8 -3 -17.5 1.5t-17 12t-11.5 17t-1 17.5zM240 497q-6 13 -3.5 30t11.5 31.5t22.5 24.5t28.5 10q24 0 42 -24l-1 2q9 -9 7 -27t-11 -35.5t-23 -30.5t-29 -13q-12 0 -24 8t-20 25v-1z" />
    <glyph glyph-name="Nacute" unicode="&#x143;" horiz-adv-x="604" 
d="M90 -21q-6 0 -15 0.5t-18 4t-15 11.5t-6 22v468q-16 19 -22.5 35.5t-6.5 33.5q0 21 10 37t23 28t26.5 19t21.5 9q33 0 43.5 -20.5t10.5 -49.5q0 -11 -2.5 -25t-4 -28.5t-0.5 -28t7 -24.5l-1 2q33 -46 65.5 -104t69 -115t79.5 -106.5t96 -76.5q-4 151 -8.5 301t-8.5 301
q0 15 14 23.5t31.5 12.5t32.5 4.5t17 0.5q-9 -75 -12.5 -138.5t-3.5 -118.5q0 -64 3 -122t7.5 -108.5t9.5 -91t8 -68.5q0 -13 -1 -28.5t-6 -28.5t-16 -22t-32 -9q-40 0 -83.5 30t-83.5 71.5t-73.5 84.5t-53.5 70v-1q-4 4 -12 17t-18.5 29.5t-22.5 36t-23 37.5l6 -332
q1 -12 1.5 -20t-2.5 -13.5t-10 -7.5t-21 -2zM271 682q-25 -7 -38 -4.5t-20 9.5t-11 17t-12 18l83 111q12 0 21 -0.5t16.5 -4.5t15 -11.5t15.5 -22.5z" />
    <glyph glyph-name="Ncaron" unicode="&#x147;" horiz-adv-x="604" 
d="M90 -21q-6 0 -15 0.5t-18 4t-15 11.5t-6 22v468q-16 19 -22.5 35.5t-6.5 33.5q0 21 10 37t23 28t26.5 19t21.5 9q33 0 43.5 -20.5t10.5 -49.5q0 -11 -2.5 -25t-4 -28.5t-0.5 -28t7 -24.5l-1 2q33 -46 65.5 -104t69 -115t79.5 -106.5t96 -76.5q-4 151 -8.5 301t-8.5 301
q0 15 14 23.5t31.5 12.5t32.5 4.5t17 0.5q-9 -75 -12.5 -138.5t-3.5 -118.5q0 -64 3 -122t7.5 -108.5t9.5 -91t8 -68.5q0 -13 -1 -28.5t-6 -28.5t-16 -22t-32 -9q-40 0 -83.5 30t-83.5 71.5t-73.5 84.5t-53.5 70v-1q-4 4 -12 17t-18.5 29.5t-22.5 36t-23 37.5l6 -332
q1 -12 1.5 -20t-2.5 -13.5t-10 -7.5t-21 -2zM293 660q-11 -17 -24.5 -21.5t-35.5 -4.5l-106 127l6 12q4 13 8 24.5t11 17t18.5 2.5t30.5 -18l50 -64q13 16 25 31.5t25 30.5q17 19 29 24.5t20.5 0t14 -19.5t8.5 -35z" />
    <glyph glyph-name="Ncommaaccent" unicode="&#x145;" horiz-adv-x="604" 
d="M90 -21q-6 0 -15 0.5t-18 4t-15 11.5t-6 22v468q-16 19 -22.5 35.5t-6.5 33.5q0 21 10 37t23 28t26.5 19t21.5 9q33 0 43.5 -20.5t10.5 -49.5q0 -11 -2.5 -25t-4 -28.5t-0.5 -28t7 -24.5l-1 2q33 -46 65.5 -104t69 -115t79.5 -106.5t96 -76.5q-4 151 -8.5 301t-8.5 301
q0 15 14 23.5t31.5 12.5t32.5 4.5t17 0.5q-9 -75 -12.5 -138.5t-3.5 -118.5q0 -64 3 -122t7.5 -108.5t9.5 -91t8 -68.5q0 -13 -1 -28.5t-6 -28.5t-16 -22t-32 -9q-40 0 -83.5 30t-83.5 71.5t-73.5 84.5t-53.5 70v-1q-4 4 -12 17t-18.5 29.5t-22.5 36t-23 37.5l6 -332
q1 -12 1.5 -20t-2.5 -13.5t-10 -7.5t-21 -2zM286 -97q-31 -60 -47.5 -96t-23.5 -55.5t-6.5 -25t5.5 -4.5q-3 -2 -5.5 -2t-5.5 -1q-22 -7 -31.5 12t-9.5 53q0 27 5.5 59.5t16 61t25 47.5t32.5 19q26 0 52 -43z" />
    <glyph glyph-name="Obreve" unicode="&#x14e;" horiz-adv-x="421" 
d="M155 -20q-36 3 -63 28t-45 65.5t-27 93t-9 110.5q0 75 15 152t46 140t77 103.5t108 43.5q39 -3 68 -27t47.5 -62.5t27.5 -88t9 -104.5q0 -53 -8 -108.5t-23.5 -107t-37.5 -97t-50.5 -78t-62.5 -50t-73 -13.5h1zM325 420q0 37 -4.5 71t-14.5 61.5t-25 47.5t-36 29
q-33 -4 -60.5 -39.5t-47 -89t-30.5 -116.5t-11 -123q0 -34 3.5 -65t11.5 -56t20.5 -42t29.5 -24q37 -3 67.5 28t52 81.5t33 113t11.5 123.5zM242 631q1 -1 1.5 -1t1.5 -1q1 0 2 0.5t3 0.5zM176 861q21 -32 41 -43t37.5 -8.5t32.5 14.5t26 25t17.5 23.5t7.5 10.5q7 0 19 -1
t21 -7t11.5 -18.5t-8.5 -35.5q-9 -28 -31.5 -45.5t-50.5 -26t-58.5 -7.5t-56.5 9.5t-44 24t-21 36.5z" />
    <glyph glyph-name="Omacron" unicode="&#x14c;" horiz-adv-x="421" 
d="M155 -20q-36 3 -63 28t-45 65.5t-27 93t-9 110.5q0 75 15 152t46 140t77 103.5t108 43.5q39 -3 68 -27t47.5 -62.5t27.5 -88t9 -104.5q0 -53 -8 -108.5t-23.5 -107t-37.5 -97t-50.5 -78t-62.5 -50t-73 -13.5h1zM325 420q0 37 -4.5 71t-14.5 61.5t-25 47.5t-36 29
q-33 -4 -60.5 -39.5t-47 -89t-30.5 -116.5t-11 -123q0 -34 3.5 -65t11.5 -56t20.5 -42t29.5 -24q37 -3 67.5 28t52 81.5t33 113t11.5 123.5zM242 631q1 -1 1.5 -1t1.5 -1q1 0 2 0.5t3 0.5zM39 779q0 7 2 19t5.5 23.5t8.5 21.5t10 15l354 -11l6 -84z" />
    <glyph glyph-name="Oslashacute" unicode="&#x1fe;" horiz-adv-x="447" 
d="M162 -20q-36 3 -63 28t-45 65.5t-27 93t-9 110.5q0 75 15 152t46 140t77 103.5t108 43.5q39 -3 68 -27t47.5 -62.5t27.5 -88t9 -104.5q0 -53 -8 -108.5t-23.5 -107t-37.5 -97t-50.5 -78t-62.5 -50t-73 -13.5h1zM332 420q0 37 -4.5 71t-14.5 61.5t-25 47.5t-36 29
q-33 -4 -60.5 -39.5t-47 -89t-30.5 -116.5t-11 -123q0 -34 3.5 -65t11.5 -56t20.5 -42t29.5 -24q37 -3 67.5 28t52 81.5t33 113t11.5 123.5zM249 631q1 -1 1.5 -1t1.5 -1q1 0 2 0.5t3 0.5zM60.7988 -26.0801q-19.1797 0 -31.4326 2.26562q-12.2529 2.2666 -19.7109 8.1582
q-7.45898 5.89258 -11.7207 15.4111q-4.26172 9.51758 -8.52441 24.9287l388.904 695.28q20.2441 9.06543 35.1611 6.79883t23.9736 -11.3311t11.7207 -22.209t-0.533203 -24.9287zM265 786q-25 -7 -38 -4.5t-20 9.5t-11 17t-12 18l83 111q12 0 21 -0.5t16.5 -4.5t15 -11.5
t15.5 -22.5z" />
    <glyph glyph-name="Racute" unicode="&#x154;" horiz-adv-x="576" 
d="M47 12q-1 62 -4.5 124t-7 126.5t-7 132t-5.5 140.5q19 40 51 74.5t70.5 59t79 38.5t78.5 14q31 0 57.5 -9t46.5 -29t31.5 -51.5t11.5 -75.5q0 -45 -14.5 -84.5t-38.5 -74.5t-54.5 -65.5t-62.5 -57.5q10 -8 23 -16t27 -18q29 -20 62.5 -43.5t64 -48t55 -48.5t36 -45t7 -38
t-32.5 -27q-30 17 -57.5 38t-53.5 44q-24 20 -52 42.5t-62.5 44t-77.5 42.5t-96 38q2 -41 5 -86t9 -107q1 -19 -4.5 -30.5t-15.5 -17.5t-23.5 -7t-28.5 1zM120 422v-69.5t1 -61.5q42 18 87 43.5t82 59.5t61 75.5t24 91.5q0 38 -23.5 55t-56.5 17q-26 0 -51 -11.5
t-47.5 -29.5t-42 -39t-34.5 -40v-91zM223 728q-25 -7 -38 -4.5t-20 9.5t-11 17t-12 18l83 111q12 0 21 -0.5t16.5 -4.5t15 -11.5t15.5 -22.5z" />
    <glyph glyph-name="Rcaron" unicode="&#x158;" horiz-adv-x="571" 
d="M47 12q-1 62 -4.5 124t-7 126.5t-7 132t-5.5 140.5q19 40 51 74.5t70.5 59t79 38.5t78.5 14q31 0 57.5 -9t46.5 -29t31.5 -51.5t11.5 -75.5q0 -45 -14.5 -84.5t-38.5 -74.5t-54.5 -65.5t-62.5 -57.5q10 -8 23 -16t27 -18q29 -20 62.5 -43.5t64 -48t55 -48.5t36 -45t7 -38
t-32.5 -27q-30 17 -57.5 38t-53.5 44q-24 20 -52 42.5t-62.5 44t-77.5 42.5t-96 38q2 -41 5 -86t9 -107q1 -19 -4.5 -30.5t-15.5 -17.5t-23.5 -7t-28.5 1zM120 422v-69.5t1 -61.5q42 18 87 43.5t82 59.5t61 75.5t24 91.5q0 38 -23.5 55t-56.5 17q-26 0 -51 -11.5
t-47.5 -29.5t-42 -39t-34.5 -40v-91zM300 787q-11 -17 -24.5 -21.5t-35.5 -4.5l-106 127l6 12q4 13 8 24.5t11 17t18.5 2.5t30.5 -18l50 -64q13 16 25 31.5t25 30.5q17 19 29 24.5t20.5 0t14 -19.5t8.5 -35z" />
    <glyph glyph-name="Rcommaaccent" unicode="&#x156;" horiz-adv-x="551" 
d="M47 12q-1 62 -4.5 124t-7 126.5t-7 132t-5.5 140.5q19 40 51 74.5t70.5 59t79 38.5t78.5 14q31 0 57.5 -9t46.5 -29t31.5 -51.5t11.5 -75.5q0 -45 -14.5 -84.5t-38.5 -74.5t-54.5 -65.5t-62.5 -57.5q10 -8 23 -16t27 -18q29 -20 62.5 -43.5t64 -48t55 -48.5t36 -45t7 -38
t-32.5 -27q-30 17 -57.5 38t-53.5 44q-24 20 -52 42.5t-62.5 44t-77.5 42.5t-96 38q2 -41 5 -86t9 -107q1 -19 -4.5 -30.5t-15.5 -17.5t-23.5 -7t-28.5 1zM120 422v-69.5t1 -61.5q42 18 87 43.5t82 59.5t61 75.5t24 91.5q0 38 -23.5 55t-56.5 17q-26 0 -51 -11.5
t-47.5 -29.5t-42 -39t-34.5 -40v-91zM327 -97q-31 -60 -47.5 -96t-23.5 -55.5t-6.5 -25t5.5 -4.5q-3 -2 -5.5 -2t-5.5 -1q-22 -7 -31.5 12t-9.5 53q0 27 5.5 59.5t16 61t25 47.5t32.5 19q26 0 52 -43z" />
    <glyph glyph-name="Sacute" unicode="&#x15a;" horiz-adv-x="505" 
d="M277 -22q-19 0 -42.5 4.5t-46 12.5t-40.5 20t-26.5 28t-4 34.5t27.5 40.5q24 -20 40.5 -31t29.5 -16.5t24 -7t24 -1.5q23 0 48.5 11.5t47 29.5t35.5 40.5t14 45.5q0 22 -16 38.5t-42 28.5t-59 21.5t-67 17.5q-35 9 -73 21.5t-69.5 29.5t-52 40.5t-20.5 54.5q0 47 19 94.5
t51.5 86t76 63t91.5 24.5q33 0 58.5 -11.5t43 -31.5t26.5 -47t9 -58q0 -19 -1 -35t-3.5 -32.5t-6.5 -35t-10 -40.5q-5 -11 -16.5 -14t-23.5 2.5t-21.5 20.5t-9.5 40q0 17 2.5 43.5t0 51t-14.5 42.5t-41 18q-26 0 -51.5 -14t-45 -36t-31.5 -50t-12 -56q0 -18 15.5 -33
t40.5 -27t57 -22t65 -20q40 -12 79 -24.5t69.5 -30t49.5 -40.5t19 -56q0 -40 -18.5 -82t-49 -76t-69.5 -55.5t-80 -21.5zM236 745q-25 -7 -38 -4.5t-20 9.5t-11 17t-12 18l83 111q12 0 21 -0.5t16.5 -4.5t15 -11.5t15.5 -22.5z" />
    <glyph glyph-name="Scedilla" unicode="&#x15e;" horiz-adv-x="505" 
d="M277 -22q-19 0 -42.5 4.5t-46 12.5t-40.5 20t-26.5 28t-4 34.5t27.5 40.5q24 -20 40.5 -31t29.5 -16.5t24 -7t24 -1.5q23 0 48.5 11.5t47 29.5t35.5 40.5t14 45.5q0 22 -16 38.5t-42 28.5t-59 21.5t-67 17.5q-35 9 -73 21.5t-69.5 29.5t-52 40.5t-20.5 54.5q0 47 19 94.5
t51.5 86t76 63t91.5 24.5q33 0 58.5 -11.5t43 -31.5t26.5 -47t9 -58q0 -19 -1 -35t-3.5 -32.5t-6.5 -35t-10 -40.5q-5 -11 -16.5 -14t-23.5 2.5t-21.5 20.5t-9.5 40q0 17 2.5 43.5t0 51t-14.5 42.5t-41 18q-26 0 -51.5 -14t-45 -36t-31.5 -50t-12 -56q0 -18 15.5 -33
t40.5 -27t57 -22t65 -20q40 -12 79 -24.5t69.5 -30t49.5 -40.5t19 -56q0 -40 -18.5 -82t-49 -76t-69.5 -55.5t-80 -21.5zM150 -182q-4 11 5 20.5t22 15.5t26 6t17 -8q7 -20 24 -31t34 -11q9 0 16.5 5t9.5 13q-2 20 -17 34.5t-34 25.5q-14 9 -27.5 18t-24 21t-17.5 27.5
t-7 36.5q-8 38 3.5 53.5t28.5 15.5q8 0 17 -5t15.5 -14.5t10.5 -22.5t2 -28q5 -7 14.5 -14t21.5 -15h-1q15 -11 31 -23.5t29.5 -27.5t22 -34t8.5 -43q-2 -55 -28.5 -80.5t-64.5 -25.5q-35 0 -72.5 23t-62.5 65z" />
    <glyph glyph-name="Scircumflex" unicode="&#x15c;" horiz-adv-x="505" 
d="M277 -22q-19 0 -42.5 4.5t-46 12.5t-40.5 20t-26.5 28t-4 34.5t27.5 40.5q24 -20 40.5 -31t29.5 -16.5t24 -7t24 -1.5q23 0 48.5 11.5t47 29.5t35.5 40.5t14 45.5q0 22 -16 38.5t-42 28.5t-59 21.5t-67 17.5q-35 9 -73 21.5t-69.5 29.5t-52 40.5t-20.5 54.5q0 47 19 94.5
t51.5 86t76 63t91.5 24.5q33 0 58.5 -11.5t43 -31.5t26.5 -47t9 -58q0 -19 -1 -35t-3.5 -32.5t-6.5 -35t-10 -40.5q-5 -11 -16.5 -14t-23.5 2.5t-21.5 20.5t-9.5 40q0 17 2.5 43.5t0 51t-14.5 42.5t-41 18q-26 0 -51.5 -14t-45 -36t-31.5 -50t-12 -56q0 -18 15.5 -33
t40.5 -27t57 -22t65 -20q40 -12 79 -24.5t69.5 -30t49.5 -40.5t19 -56q0 -40 -18.5 -82t-49 -76t-69.5 -55.5t-80 -21.5zM188 922q12 20 25.5 24t36.5 4l87 -117q0 -5 -1.5 -15t-9 -19t-24 -12t-45.5 6l-28 33q-6 -10 -10 -16.5t-10 -16.5q-10 -13 -23 -16.5t-25.5 -0.5
t-23.5 12t-17 21z" />
    <glyph glyph-name="Scommaaccent" unicode="&#x218;" horiz-adv-x="505" 
d="M277 -22q-19 0 -42.5 4.5t-46 12.5t-40.5 20t-26.5 28t-4 34.5t27.5 40.5q24 -20 40.5 -31t29.5 -16.5t24 -7t24 -1.5q23 0 48.5 11.5t47 29.5t35.5 40.5t14 45.5q0 22 -16 38.5t-42 28.5t-59 21.5t-67 17.5q-35 9 -73 21.5t-69.5 29.5t-52 40.5t-20.5 54.5q0 47 19 94.5
t51.5 86t76 63t91.5 24.5q33 0 58.5 -11.5t43 -31.5t26.5 -47t9 -58q0 -19 -1 -35t-3.5 -32.5t-6.5 -35t-10 -40.5q-5 -11 -16.5 -14t-23.5 2.5t-21.5 20.5t-9.5 40q0 17 2.5 43.5t0 51t-14.5 42.5t-41 18q-26 0 -51.5 -14t-45 -36t-31.5 -50t-12 -56q0 -18 15.5 -33
t40.5 -27t57 -22t65 -20q40 -12 79 -24.5t69.5 -30t49.5 -40.5t19 -56q0 -40 -18.5 -82t-49 -76t-69.5 -55.5t-80 -21.5zM305 -124q-31 -60 -47.5 -96t-23.5 -55.5t-6.5 -25t5.5 -4.5q-3 -2 -5.5 -2t-5.5 -1q-22 -7 -31.5 12t-9.5 53q0 27 5.5 59.5t16 61t25 47.5t32.5 19
q26 0 52 -43z" />
    <glyph glyph-name="Tbar" unicode="&#x166;" horiz-adv-x="521" 
d="M5 582q0 19 13.5 31.5t33.5 21t42 13.5t40 8l-1 -1q3 1 7 2t14 3t27 6t47 11q61 15 125 29t130 25t134.5 18t139.5 7v-68q-103 -6 -191 -24.5t-157 -36.5q-11 -3 -17.5 -5t-12 -3.5t-11.5 -3.5t-16 -4q4 -19 7 -55t5 -83t4 -102t3 -112t2 -112.5t2 -103.5
q0 -18 -3.5 -31.5t-12.5 -21.5t-26 -10.5t-45 1.5v63q1 84 0 152t-3 130.5t-6 126t-9 140.5q-54 -13 -106.5 -27.5t-100.5 -29.5q-21 0 -39.5 10t-18.5 36zM128 785q0 7 2 19t5.5 23.5t8.5 21.5t10 15l354 -11l6 -84z" />
    <glyph glyph-name="Tcaron" unicode="&#x164;" horiz-adv-x="523" 
d="M5 582q0 19 13.5 31.5t33.5 21t42 13.5t40 8l-1 -1q3 1 7 2t14 3t27 6t47 11q61 15 125 29t130 25t134.5 18t139.5 7v-68q-103 -6 -191 -24.5t-157 -36.5q-11 -3 -17.5 -5t-12 -3.5t-11.5 -3.5t-16 -4q4 -19 7 -55t5 -83t4 -102t3 -112t2 -112.5t2 -103.5
q0 -18 -3.5 -31.5t-12.5 -21.5t-26 -10.5t-45 1.5v63q1 84 0 152t-3 130.5t-6 126t-9 140.5q-54 -13 -106.5 -27.5t-100.5 -29.5q-21 0 -39.5 10t-18.5 36zM360 766q-11 -17 -24.5 -21.5t-35.5 -4.5l-106 127l6 12q4 13 8 24.5t11 17t18.5 2.5t30.5 -18l50 -64
q13 16 25 31.5t25 30.5q17 19 29 24.5t20.5 0t14 -19.5t8.5 -35z" />
    <glyph glyph-name="Tcommaaccent" unicode="&#x162;" horiz-adv-x="541" 
d="M5 582q0 19 13.5 31.5t33.5 21t42 13.5t40 8l-1 -1q3 1 7 2t14 3t27 6t47 11q61 15 125 29t130 25t134.5 18t139.5 7v-68q-103 -6 -191 -24.5t-157 -36.5q-11 -3 -17.5 -5t-12 -3.5t-11.5 -3.5t-16 -4q4 -19 7 -55t5 -83t4 -102t3 -112t2 -112.5t2 -103.5
q0 -18 -3.5 -31.5t-12.5 -21.5t-26 -10.5t-45 1.5v63q1 84 0 152t-3 130.5t-6 126t-9 140.5q-54 -13 -106.5 -27.5t-100.5 -29.5q-21 0 -39.5 10t-18.5 36zM368 -97q-31 -60 -47.5 -96t-23.5 -55.5t-6.5 -25t5.5 -4.5q-3 -2 -5.5 -2t-5.5 -1q-22 -7 -31.5 12t-9.5 53
q0 27 5.5 59.5t16 61t25 47.5t32.5 19q26 0 52 -43z" />
    <glyph glyph-name="Ubreve" unicode="&#x16c;" horiz-adv-x="489" 
d="M151 -12q-44 31 -70 73.5t-40 93t-18.5 105.5t-4.5 111q0 57 2 114.5t-1 116.5q13 18 34 25.5t44 4.5q4 -32 5 -59t1 -51q0 -17 -0.5 -35t-0.5 -36q-1 -20 -1 -39.5v-39.5q0 -44 2.5 -87t11 -82t23.5 -72.5t41 -57.5q5 -2 10 -2h10q33 0 61 25t50.5 66.5t39 95.5
t26.5 111.5t13 114t-1 104.5q-13 -15 -25 -15q-15 0 -23 15t-8 36q0 15 3.5 31.5t12 30.5t21 24.5t30.5 13.5q38 -17 57 -73t19 -130q0 -54 -8.5 -115t-25 -121t-41 -115t-56 -97t-70 -67t-82.5 -25q-18 0 -33 3zM140 841q21 -32 41 -43t37.5 -8.5t32.5 14.5t26 25
t17.5 23.5t7.5 10.5q7 0 19 -1t21 -7t11.5 -18.5t-8.5 -35.5q-9 -28 -31.5 -45.5t-50.5 -26t-58.5 -7.5t-56.5 9.5t-44 24t-21 36.5z" />
    <glyph glyph-name="Umacron" unicode="&#x16a;" horiz-adv-x="489" 
d="M150 -12q-44 31 -70 73.5t-40 93t-18.5 105.5t-4.5 111q0 57 2 114.5t-1 116.5q13 18 34 25.5t44 4.5q4 -32 5 -59t1 -51q0 -17 -0.5 -35t-0.5 -36q-1 -20 -1 -39.5v-39.5q0 -44 2.5 -87t11 -82t23.5 -72.5t41 -57.5q5 -2 10 -2h10q33 0 61 25t50.5 66.5t39 95.5
t26.5 111.5t13 114t-1 104.5q-13 -15 -25 -15q-15 0 -23 15t-8 36q0 15 3.5 31.5t12 30.5t21 24.5t30.5 13.5q38 -17 57 -73t19 -130q0 -54 -8.5 -115t-25 -121t-41 -115t-56 -97t-70 -67t-82.5 -25q-18 0 -33 3zM39 772q0 7 2 19t5.5 23.5t8.5 21.5t10 15l354 -11l6 -84z
" />
    <glyph glyph-name="Uogonek" unicode="&#x172;" horiz-adv-x="489" 
d="M151 -12q-44 31 -70 73.5t-40 93t-18.5 105.5t-4.5 111q0 57 2 114.5t-1 116.5q13 18 34 25.5t44 4.5q4 -32 5 -59t1 -51q0 -17 -0.5 -35t-0.5 -36q-1 -20 -1 -39.5v-39.5q0 -44 2.5 -87t11 -82t23.5 -72.5t41 -57.5q5 -2 10 -2h10q33 0 61 25t50.5 66.5t39 95.5
t26.5 111.5t13 114t-1 104.5q-13 -15 -25 -15q-15 0 -23 15t-8 36q0 15 3.5 31.5t12 30.5t21 24.5t30.5 13.5q38 -17 57 -73t19 -130q0 -54 -8.5 -115t-25 -121t-41 -115t-56 -97t-70 -67t-82.5 -25q-18 0 -33 3zM335 -106q-15 -15 -37.5 -23t-45.5 -8q-18 0 -35.5 5t-31 16
t-22 28.5t-8.5 41.5q0 7 4 24.5t14 36.5t26.5 36t40.5 24l49 -41q-26 -17 -41 -38t-15 -36q0 -9 4.5 -15.5t15.5 -6.5q5 0 8 0.5t7 0.5q13 1 28 -1t35 -13z" />
    <glyph glyph-name="Uring" unicode="&#x16e;" horiz-adv-x="489" 
d="M151 -12q-44 31 -70 73.5t-40 93t-18.5 105.5t-4.5 111q0 57 2 114.5t-1 116.5q13 18 34 25.5t44 4.5q4 -32 5 -59t1 -51q0 -17 -0.5 -35t-0.5 -36q-1 -20 -1 -39.5v-39.5q0 -44 2.5 -87t11 -82t23.5 -72.5t41 -57.5q5 -2 10 -2h10q33 0 61 25t50.5 66.5t39 95.5
t26.5 111.5t13 114t-1 104.5q-13 -15 -25 -15q-15 0 -23 15t-8 36q0 15 3.5 31.5t12 30.5t21 24.5t30.5 13.5q38 -17 57 -73t19 -130q0 -54 -8.5 -115t-25 -121t-41 -115t-56 -97t-70 -67t-82.5 -25q-18 0 -33 3zM188 692q-47 1 -67 19.5t-20 42.5q0 18 11 36t29.5 32.5
t43 22t52.5 3.5q41 -11 59.5 -31t18.5 -42q0 -16 -9 -31.5t-25.5 -27.5t-40 -19t-52.5 -5zM219 778q-17 0 -28 -4.5t-11 -9.5q0 -3 13 -8q20 2 31.5 7t11.5 10q0 4 -17 5z" />
    <glyph glyph-name="Utilde" unicode="&#x168;" horiz-adv-x="489" 
d="M155 -7q-44 31 -70 73.5t-40 93t-18.5 105.5t-4.5 111q0 57 2 114.5t-1 116.5q13 18 34 25.5t44 4.5q4 -32 5 -59t1 -51q0 -17 -0.5 -35t-0.5 -36q-1 -20 -1 -39.5v-39.5q0 -44 2.5 -87t11 -82t23.5 -72.5t41 -57.5q5 -2 10 -2h10q33 0 61 25t50.5 66.5t39 95.5
t26.5 111.5t13 114t-1 104.5q-13 -15 -25 -15q-15 0 -23 15t-8 36q0 15 3.5 31.5t12 30.5t21 24.5t30.5 13.5q38 -17 57 -73t19 -130q0 -54 -8.5 -115t-25 -121t-41 -115t-56 -97t-70 -67t-82.5 -25q-18 0 -33 3zM10 782q0 10 4.5 31.5t16 43t30 37.5t46.5 16
q33 0 57.5 -13.5t47.5 -30.5q19 -14 39.5 -26t46.5 -12q19 -1 35.5 8t30 22.5t23 28.5t15.5 26q5 2 13.5 -3.5t17 -14t14.5 -18.5t6 -18l3 7q0 -20 -15.5 -39.5t-38.5 -36t-50 -26.5t-50 -10q-56 1 -100 25t-89 57q-12 -4 -16.5 -21.5t-7.5 -34.5q-2 -11 -4.5 -21.5
t-9.5 -26.5q-15 0 -27 6t-20.5 14t-13 16.5t-4.5 13.5z" />
    <glyph glyph-name="Wacute" unicode="&#x1e82;" horiz-adv-x="964" 
d="M670 -26q-47 37 -81 87t-58.5 105.5t-42 113.5t-31.5 112q-10 -25 -22 -55.5t-24 -63.5t-24.5 -66.5t-23.5 -63.5q-15 -41 -28 -75t-19 -49q-3 -10 -6.5 -19t-10 -14t-17 -6.5t-28.5 3.5q-26 64 -51.5 138.5t-48.5 143.5q-17 53 -34.5 105t-36 100.5t-37.5 91.5t-39 77
q-9 19 5 38t32 31q40 -53 71 -112.5t55 -120.5t42.5 -120.5t33.5 -111.5q6 -23 9.5 -36t6 -23t5.5 -18t8 -20q26 61 47 115.5t38 101.5q13 36 26.5 69.5t26.5 59.5t26.5 43.5t27.5 22.5q4 0 12 -2l8 -2q20 -8 29.5 -40t17.5 -80v1q7 -37 15.5 -80.5t23.5 -89t38 -89
t58 -80.5q13 38 24 99t23 131q10 58 20.5 116t23 108.5t27.5 89.5t33 59q23 10 44 5t38 -18t29 -30t18 -30q-54 9 -62 9q-12 0 -17 -11.5t-16 -42.5q-32 -147 -64.5 -301t-64.5 -301q-7 0 -16 -1l-18 -2q-11 -1 -21 -2zM457 743q-25 -7 -38 -4.5t-20 9.5t-11 17t-12 18
l83 111q12 0 21 -0.5t16.5 -4.5t15 -11.5t15.5 -22.5z" />
    <glyph glyph-name="Wcircumflex" unicode="&#x174;" horiz-adv-x="964" 
d="M670 -26q-47 37 -81 87t-58.5 105.5t-42 113.5t-31.5 112q-10 -25 -22 -55.5t-24 -63.5t-24.5 -66.5t-23.5 -63.5q-15 -41 -28 -75t-19 -49q-3 -10 -6.5 -19t-10 -14t-17 -6.5t-28.5 3.5q-26 64 -51.5 138.5t-48.5 143.5q-17 53 -34.5 105t-36 100.5t-37.5 91.5t-39 77
q-9 19 5 38t32 31q40 -53 71 -112.5t55 -120.5t42.5 -120.5t33.5 -111.5q6 -23 9.5 -36t6 -23t5.5 -18t8 -20q26 61 47 115.5t38 101.5q13 36 26.5 69.5t26.5 59.5t26.5 43.5t27.5 22.5q4 0 12 -2l8 -2q20 -8 29.5 -40t17.5 -80v1q7 -37 15.5 -80.5t23.5 -89t38 -89
t58 -80.5q13 38 24 99t23 131q10 58 20.5 116t23 108.5t27.5 89.5t33 59q23 10 44 5t38 -18t29 -30t18 -30q-54 9 -62 9q-12 0 -17 -11.5t-16 -42.5q-32 -147 -64.5 -301t-64.5 -301q-7 0 -16 -1l-18 -2q-11 -1 -21 -2zM414 911q12 20 25.5 24t36.5 4l87 -117q0 -5 -1.5 -15
t-9 -19t-24 -12t-45.5 6l-28 33q-6 -10 -10 -16.5t-10 -16.5q-10 -13 -23 -16.5t-25.5 -0.5t-23.5 12t-17 21z" />
    <glyph glyph-name="Wdieresis" unicode="&#x1e84;" horiz-adv-x="964" 
d="M670 -26q-47 37 -81 87t-58.5 105.5t-42 113.5t-31.5 112q-10 -25 -22 -55.5t-24 -63.5t-24.5 -66.5t-23.5 -63.5q-15 -41 -28 -75t-19 -49q-3 -10 -6.5 -19t-10 -14t-17 -6.5t-28.5 3.5q-26 64 -51.5 138.5t-48.5 143.5q-17 53 -34.5 105t-36 100.5t-37.5 91.5t-39 77
q-9 19 5 38t32 31q40 -53 71 -112.5t55 -120.5t42.5 -120.5t33.5 -111.5q6 -23 9.5 -36t6 -23t5.5 -18t8 -20q26 61 47 115.5t38 101.5q13 36 26.5 69.5t26.5 59.5t26.5 43.5t27.5 22.5q4 0 12 -2l8 -2q20 -8 29.5 -40t17.5 -80v1q7 -37 15.5 -80.5t23.5 -89t38 -89
t58 -80.5q13 38 24 99t23 131q10 58 20.5 116t23 108.5t27.5 89.5t33 59q23 10 44 5t38 -18t29 -30t18 -30q-54 9 -62 9q-12 0 -17 -11.5t-16 -42.5q-32 -147 -64.5 -301t-64.5 -301q-7 0 -16 -1l-18 -2q-11 -1 -21 -2zM381 699q-9 13 -8 29.5t8.5 30t20 23t26.5 9.5
q12 0 22.5 -5.5t20.5 -19.5l-2 2q10 -13 9.5 -29t-8 -30.5t-20.5 -24.5t-27 -10q-12 0 -22 5.5t-20 19.5zM511 702q-9 12 -8.5 28t8 30.5t20 24.5t26.5 10q24 0 42 -24l-1 1q11 -12 12 -29t-5 -32t-18.5 -25.5t-28.5 -10.5q-24 0 -46 26z" />
    <glyph glyph-name="Wgrave" unicode="&#x1e80;" horiz-adv-x="964" 
d="M670 -26q-47 37 -81 87t-58.5 105.5t-42 113.5t-31.5 112q-10 -25 -22 -55.5t-24 -63.5t-24.5 -66.5t-23.5 -63.5q-15 -41 -28 -75t-19 -49q-3 -10 -6.5 -19t-10 -14t-17 -6.5t-28.5 3.5q-26 64 -51.5 138.5t-48.5 143.5q-17 53 -34.5 105t-36 100.5t-37.5 91.5t-39 77
q-9 19 5 38t32 31q40 -53 71 -112.5t55 -120.5t42.5 -120.5t33.5 -111.5q6 -23 9.5 -36t6 -23t5.5 -18t8 -20q26 61 47 115.5t38 101.5q13 36 26.5 69.5t26.5 59.5t26.5 43.5t27.5 22.5q4 0 12 -2l8 -2q20 -8 29.5 -40t17.5 -80v1q7 -37 15.5 -80.5t23.5 -89t38 -89
t58 -80.5q13 38 24 99t23 131q10 58 20.5 116t23 108.5t27.5 89.5t33 59q23 10 44 5t38 -18t29 -30t18 -30q-54 9 -62 9q-12 0 -17 -11.5t-16 -42.5q-32 -147 -64.5 -301t-64.5 -301q-7 0 -16 -1l-18 -2q-11 -1 -21 -2zM353 840q8 14 15 22t15 11.5t17 4t21 0.5l83 -111
q0 -9 -4.5 -21.5t-14 -22t-23 -13.5t-30.5 5z" />
    <glyph glyph-name="Ycircumflex" unicode="&#x176;" horiz-adv-x="456" 
d="M237 249q-70 80 -130.5 177.5t-103.5 198.5q16 32 34 33t38.5 -19t42 -56t45.5 -78q23 -40 46.5 -79.5t46.5 -68.5q2 11 5 23.5t5 26.5q8 50 19.5 109t26.5 110t34.5 85t43.5 34q11 0 22.5 -8t25.5 -27q-32 -80 -55.5 -158t-38.5 -160.5t-22 -171.5t-7 -189v-47
q-9 -19 -19 -29.5t-24 -10.5q-23 0 -44 34zM170 911q12 20 25.5 24t36.5 4l87 -117q0 -5 -1.5 -15t-9 -19t-24 -12t-45.5 6l-28 33q-6 -10 -10 -16.5t-10 -16.5q-10 -13 -23 -16.5t-25.5 -0.5t-23.5 12t-17 21z" />
    <glyph glyph-name="Ygrave" unicode="&#x1ef2;" horiz-adv-x="456" 
d="M237 249q-70 80 -130.5 177.5t-103.5 198.5q16 32 34 33t38.5 -19t42 -56t45.5 -78q23 -40 46.5 -79.5t46.5 -68.5q2 11 5 23.5t5 26.5q8 50 19.5 109t26.5 110t34.5 85t43.5 34q11 0 22.5 -8t25.5 -27q-32 -80 -55.5 -158t-38.5 -160.5t-22 -171.5t-7 -189v-47
q-9 -19 -19 -29.5t-24 -10.5q-23 0 -44 34zM109 862q8 14 15 22t15 11.5t17 4t21 0.5l83 -111q0 -9 -4.5 -21.5t-14 -22t-23 -13.5t-30.5 5z" />
    <glyph glyph-name="Zacute" unicode="&#x179;" horiz-adv-x="653" 
d="M198 -56q-61 1 -85 25.5t-24 62.5q0 34 11 66.5t27 63.5t33 62t28 63q-8 -2 -17 -5.5t-17 -6.5q-14 -6 -26 -10.5t-22.5 -3.5t-18.5 9t-13 28q0 22 8.5 35.5t22 21.5t31 12.5t35.5 8.5q23 5 44 11t27 19l-1 -1q10 27 22 52.5t22.5 51.5t19 53.5t12.5 57.5
q-35 1 -64.5 -4.5t-54 -14.5t-45.5 -19.5t-38 -20.5q-11 -6 -24 -12.5l-27 -13.5q-20 0 -36 12.5t-19 32.5q6 16 25.5 32.5t47 32t60.5 28.5t66.5 22.5t64.5 15t55 5.5q18 0 42 -6q22 -8 31 -25.5t9 -43.5q0 -29 -11 -66.5t-24 -76.5q-5 -14 -8 -22.5t-6 -16.5t-5 -16.5
t-5 -20.5q7 1 15 2.5t14 2.5q22 3 43 6.5t44 6.5t48.5 6t57.5 5q4 -38 -4.5 -59.5t-26.5 -33t-43 -15t-53 -6.5q-32 -3 -66.5 -7.5t-66.5 -19.5q-8 -15 -19 -35t-23 -42q-13 -24 -27 -49.5t-26 -51t-21 -49t-13 -41.5q11 -5 23.5 -6.5t28.5 -1.5q46 0 105 19.5t115 48.5
t100.5 62.5t62.5 62.5q12 -25 19 -42.5t7 -28.5q0 -30 -24.5 -56.5t-64 -49t-88.5 -41t-98.5 -32t-94.5 -22t-75 -11.5h-2zM296 754q-25 -7 -38 -4.5t-20 9.5t-11 17t-12 18l83 111q12 0 21 -0.5t16.5 -4.5t15 -11.5t15.5 -22.5z" />
    <glyph glyph-name="Zdotaccent" unicode="&#x17b;" horiz-adv-x="653" 
d="M198 -56q-61 1 -85 25.5t-24 62.5q0 34 11 66.5t27 63.5t33 62t28 63q-8 -2 -17 -5.5t-17 -6.5q-14 -6 -26 -10.5t-22.5 -3.5t-18.5 9t-13 28q0 22 8.5 35.5t22 21.5t31 12.5t35.5 8.5q23 5 44 11t27 19l-1 -1q10 27 22 52.5t22.5 51.5t19 53.5t12.5 57.5
q-35 1 -64.5 -4.5t-54 -14.5t-45.5 -19.5t-38 -20.5q-11 -6 -24 -12.5l-27 -13.5q-20 0 -36 12.5t-19 32.5q6 16 25.5 32.5t47 32t60.5 28.5t66.5 22.5t64.5 15t55 5.5q18 0 42 -6q22 -8 31 -25.5t9 -43.5q0 -29 -11 -66.5t-24 -76.5q-5 -14 -8 -22.5t-6 -16.5t-5 -16.5
t-5 -20.5q7 1 15 2.5t14 2.5q22 3 43 6.5t44 6.5t48.5 6t57.5 5q4 -38 -4.5 -59.5t-26.5 -33t-43 -15t-53 -6.5q-32 -3 -66.5 -7.5t-66.5 -19.5q-8 -15 -19 -35t-23 -42q-13 -24 -27 -49.5t-26 -51t-21 -49t-13 -41.5q11 -5 23.5 -6.5t28.5 -1.5q46 0 105 19.5t115 48.5
t100.5 62.5t62.5 62.5q12 -25 19 -42.5t7 -28.5q0 -30 -24.5 -56.5t-64 -49t-88.5 -41t-98.5 -32t-94.5 -22t-75 -11.5h-2zM243 798q-6 13 -3.5 30t11.5 31.5t22.5 24.5t28.5 10q24 0 42 -24l-1 2q9 -9 7 -27t-11 -35.5t-23 -30.5t-29 -13q-12 0 -24 8t-20 25v-1z" />
    <glyph glyph-name="abreve" unicode="&#x103;" horiz-adv-x="574" 
d="M113 -22q-54 2 -77.5 48.5t-23.5 118.5q0 45 8.5 97t24 104t37 102t47 90.5t53.5 69t58 38.5q43 0 68 -20t39 -50q7 15 15.5 26t18 14t19.5 -4t20 -28q-12 -100 -17.5 -171.5t-5.5 -119.5q0 -55 5.5 -88.5t15.5 -53t23.5 -28t30.5 -12.5l-1 1q15 -3 27.5 1.5t23.5 12.5
t20 19t17 22q6 8 17 20.5t30 31.5q9 -30 2 -64.5t-25.5 -63t-47 -46.5t-61.5 -17q-37 0 -64 14.5t-45.5 38t-30 53.5t-17.5 62q-15 -36 -34 -74.5t-44 -70.5t-56 -52.5t-69 -20.5h-1zM303 433q0 16 -3 38t-10 42t-17.5 34t-26.5 15q-13 -1 -29.5 -21t-34 -53t-33.5 -75
t-29 -87t-21 -90t-8 -82q0 -35 8.5 -59t28.5 -30l-2 1q15 -3 32 13.5t34.5 45.5t34.5 67.5t31.5 80.5t26 83.5t18.5 76.5zM171 844q21 -32 41 -43t37.5 -8.5t32.5 14.5t26 25t17.5 23.5t7.5 10.5q7 0 19 -1t21 -7t11.5 -18.5t-8.5 -35.5q-9 -28 -31.5 -45.5t-50.5 -26
t-58.5 -7.5t-56.5 9.5t-44 24t-21 36.5z" />
    <glyph glyph-name="amacron" unicode="&#x101;" horiz-adv-x="574" 
d="M113 -22q-54 2 -77.5 48.5t-23.5 118.5q0 45 8.5 97t24 104t37 102t47 90.5t53.5 69t58 38.5q43 0 68 -20t39 -50q7 15 15.5 26t18 14t19.5 -4t20 -28q-12 -100 -17.5 -171.5t-5.5 -119.5q0 -55 5.5 -88.5t15.5 -53t23.5 -28t30.5 -12.5l-1 1q15 -3 27.5 1.5t23.5 12.5
t20 19t17 22q6 8 17 20.5t30 31.5q9 -30 2 -64.5t-25.5 -63t-47 -46.5t-61.5 -17q-37 0 -64 14.5t-45.5 38t-30 53.5t-17.5 62q-15 -36 -34 -74.5t-44 -70.5t-56 -52.5t-69 -20.5h-1zM303 433q0 16 -3 38t-10 42t-17.5 34t-26.5 15q-13 -1 -29.5 -21t-34 -53t-33.5 -75
t-29 -87t-21 -90t-8 -82q0 -35 8.5 -59t28.5 -30l-2 1q15 -3 32 13.5t34.5 45.5t34.5 67.5t31.5 80.5t26 83.5t18.5 76.5zM55 694q0 7 2 19t5.5 23.5t8.5 21.5t10 15l354 -11l6 -84z" />
    <glyph glyph-name="aogonek" unicode="&#x105;" horiz-adv-x="574" 
d="M113 -22q-54 2 -77.5 48.5t-23.5 118.5q0 45 8.5 97t24 104t37 102t47 90.5t53.5 69t58 38.5q43 0 68 -20t39 -50q7 15 15.5 26t18 14t19.5 -4t20 -28q-12 -100 -17.5 -171.5t-5.5 -119.5q0 -55 5.5 -88.5t15.5 -53t23.5 -28t30.5 -12.5l-1 1q15 -3 27.5 1.5t23.5 12.5
t20 19t17 22q6 8 17 20.5t30 31.5q9 -30 2 -64.5t-25.5 -63t-47 -46.5t-61.5 -17q-37 0 -64 14.5t-45.5 38t-30 53.5t-17.5 62q-15 -36 -34 -74.5t-44 -70.5t-56 -52.5t-69 -20.5h-1zM303 433q0 16 -3 38t-10 42t-17.5 34t-26.5 15q-13 -1 -29.5 -21t-34 -53t-33.5 -75
t-29 -87t-21 -90t-8 -82q0 -35 8.5 -59t28.5 -30l-2 1q15 -3 32 13.5t34.5 45.5t34.5 67.5t31.5 80.5t26 83.5t18.5 76.5zM507 -70q-15 -15 -37.5 -23t-45.5 -8q-18 0 -35.5 5t-31 16t-22 28.5t-8.5 41.5q0 7 4 24.5t14 36.5t26.5 36t40.5 24l49 -41q-26 -17 -41 -38
t-15 -36q0 -9 4.5 -15.5t15.5 -6.5q5 0 8 0.5t7 0.5q13 1 28 -1t35 -13z" />
    <glyph glyph-name="aeacute" unicode="&#x1fd;" horiz-adv-x="637" 
d="M237 645q-29 -10 -57 -38t-53 -69t-46 -90.5t-36.5 -101.5t-24 -104t-8.5 -97q0 -72 23.5 -118.5t77.5 -48.5q44 0 79 27t62 66q19 -29 48.5 -48.5t60.5 -19.5q19 -1 45 8.5t54 26t56 38t49.5 45t35 46.5t13.5 43q0 13 -9.5 28.5t-31.5 33.5q-8 -18 -30.5 -48
t-51.5 -59.5t-61.5 -51t-60.5 -21.5q-17 0 -32 13q71 77 117 143t73 120.5t38 98.5t11 77q0 31 -7 54t-17.5 38t-21.5 22.5t-19 8.5q-40 11 -73.5 -7.5t-63.5 -60.5q-17 20 -45 35.5t-59 15.5q-8 0 -16.5 -1t-18.5 -4zM248 562q15 2 27.5 -2t22 -11.5t16 -18.5t9.5 -22
q-16 -35 -29.5 -73.5t-24.5 -77t-19 -75.5t-13 -68q-14 -32 -28.5 -59.5t-29 -48t-28.5 -31.5t-25 -9l2 -1q-20 6 -28.5 30t-8.5 59q0 37 8 82t21 90t29 87t33.5 75t34 53t29.5 21h2zM483 551q0 -32 -16 -81.5t-39.5 -99t-50 -91t-47.5 -59.5q5 25 14.5 60.5t21.5 74
t26.5 76t29 68t29 50t28.5 21.5q4 -4 4 -19zM479 570q1 0 1.5 0.5t1.5 0.5l-4 1q0 -1 0.5 -1t0.5 -1zM358 702q-25 -7 -38 -4.5t-20 9.5t-11 17t-12 18l83 111q12 0 21 -0.5t16.5 -4.5t15 -11.5t15.5 -22.5z" />
    <glyph glyph-name="cacute" unicode="&#x107;" horiz-adv-x="456" 
d="M136 -20q-30 3 -51.5 18t-35 39t-19.5 55t-6 67q0 48 10.5 103t28 109.5t41 104.5t50 88.5t54.5 62t54 24.5q31 0 54.5 -12.5t39.5 -32.5t23.5 -45t7.5 -50q0 -24 -8 -49.5t-25 -50.5q-20 6 -31.5 15.5t-17 21t-6.5 25t-1 27.5q0 10 -0.5 19.5t-3 17t-8.5 12.5t-17 5
q-21 0 -41 -23t-37 -59t-31 -80.5t-23.5 -86.5t-15 -77.5t-5.5 -53.5v-13v-28t2.5 -30.5t9 -24.5t18.5 -10q26 0 58 20t63.5 49.5t61 62.5t51.5 59q2 3 8.5 11t13.5 16.5t13 15.5t8 9q5 -36 -6 -74.5t-32.5 -75t-51.5 -69.5t-63.5 -57.5t-67.5 -39.5t-64 -15h-2zM263 684
q-25 -7 -38 -4.5t-20 9.5t-11 17t-12 18l83 111q12 0 21 -0.5t16.5 -4.5t15 -11.5t15.5 -22.5z" />
    <glyph glyph-name="ccaron" unicode="&#x10d;" horiz-adv-x="456" 
d="M136 -20q-30 3 -51.5 18t-35 39t-19.5 55t-6 67q0 48 10.5 103t28 109.5t41 104.5t50 88.5t54.5 62t54 24.5q31 0 54.5 -12.5t39.5 -32.5t23.5 -45t7.5 -50q0 -24 -8 -49.5t-25 -50.5q-20 6 -31.5 15.5t-17 21t-6.5 25t-1 27.5q0 10 -0.5 19.5t-3 17t-8.5 12.5t-17 5
q-21 0 -41 -23t-37 -59t-31 -80.5t-23.5 -86.5t-15 -77.5t-5.5 -53.5v-13v-28t2.5 -30.5t9 -24.5t18.5 -10q26 0 58 20t63.5 49.5t61 62.5t51.5 59q2 3 8.5 11t13.5 16.5t13 15.5t8 9q5 -36 -6 -74.5t-32.5 -75t-51.5 -69.5t-63.5 -57.5t-67.5 -39.5t-64 -15h-2zM303 694
q-11 -17 -24.5 -21.5t-35.5 -4.5l-106 127l6 12q4 13 8 24.5t11 17t18.5 2.5t30.5 -18l50 -64q13 16 25 31.5t25 30.5q17 19 29 24.5t20.5 0t14 -19.5t8.5 -35z" />
    <glyph glyph-name="ccircumflex" unicode="&#x109;" horiz-adv-x="456" 
d="M136 -20q-30 3 -51.5 18t-35 39t-19.5 55t-6 67q0 48 10.5 103t28 109.5t41 104.5t50 88.5t54.5 62t54 24.5q31 0 54.5 -12.5t39.5 -32.5t23.5 -45t7.5 -50q0 -24 -8 -49.5t-25 -50.5q-20 6 -31.5 15.5t-17 21t-6.5 25t-1 27.5q0 10 -0.5 19.5t-3 17t-8.5 12.5t-17 5
q-21 0 -41 -23t-37 -59t-31 -80.5t-23.5 -86.5t-15 -77.5t-5.5 -53.5v-13v-28t2.5 -30.5t9 -24.5t18.5 -10q26 0 58 20t63.5 49.5t61 62.5t51.5 59q2 3 8.5 11t13.5 16.5t13 15.5t8 9q5 -36 -6 -74.5t-32.5 -75t-51.5 -69.5t-63.5 -57.5t-67.5 -39.5t-64 -15h-2zM221 843
q12 20 25.5 24t36.5 4l87 -117q0 -5 -1.5 -15t-9 -19t-24 -12t-45.5 6l-28 33q-6 -10 -10 -16.5t-10 -16.5q-10 -13 -23 -16.5t-25.5 -0.5t-23.5 12t-17 21z" />
    <glyph glyph-name="cdotaccent" unicode="&#x10b;" horiz-adv-x="456" 
d="M136 -20q-30 3 -51.5 18t-35 39t-19.5 55t-6 67q0 48 10.5 103t28 109.5t41 104.5t50 88.5t54.5 62t54 24.5q31 0 54.5 -12.5t39.5 -32.5t23.5 -45t7.5 -50q0 -24 -8 -49.5t-25 -50.5q-20 6 -31.5 15.5t-17 21t-6.5 25t-1 27.5q0 10 -0.5 19.5t-3 17t-8.5 12.5t-17 5
q-21 0 -41 -23t-37 -59t-31 -80.5t-23.5 -86.5t-15 -77.5t-5.5 -53.5v-13v-28t2.5 -30.5t9 -24.5t18.5 -10q26 0 58 20t63.5 49.5t61 62.5t51.5 59q2 3 8.5 11t13.5 16.5t13 15.5t8 9q5 -36 -6 -74.5t-32.5 -75t-51.5 -69.5t-63.5 -57.5t-67.5 -39.5t-64 -15h-2zM203 716
q-6 13 -3.5 30t11.5 31.5t22.5 24.5t28.5 10q24 0 42 -24l-1 2q9 -9 7 -27t-11 -35.5t-23 -30.5t-29 -13q-12 0 -24 8t-20 25v-1z" />
    <glyph glyph-name="dcaron" unicode="&#x10f;" horiz-adv-x="579" 
d="M443 465q2 8 4 18t6 22q5 18 10 39.5t5 44.5q0 20 -5 42.5t-19 50.5q0 28 19 39.5t41 11.5q31 -23 44.5 -61.5t13.5 -81.5q0 -42 -9.5 -82.5t-26.5 -70.5l1 3q-3 -10 -16.5 -14t-28 -2t-26.5 11t-13 26v4zM381 16q-2 7 -5 32.5t-6 51.5q-19 -19 -42.5 -40t-50 -39
t-55 -30t-58.5 -12q-40 0 -67.5 17t-45 43.5t-25 59t-7.5 64.5q0 29 8 71.5t23.5 88.5t38.5 91.5t51.5 82t63.5 59t75 22.5q19 0 33.5 -9t24.5 -24v48q0 46 3 86t14 77q7 10 20 16.5t26.5 6.5t24.5 -7.5t16 -26.5q-7 -48 -10 -90.5t-3 -81.5q0 -64 6.5 -123t14.5 -119
q9 -65 16 -134.5t7 -155.5v-38q-1 -26 -11 -36.5t-24 -10.5q-15 0 -32 18.5t-24 41.5zM342 433q-1 8 -1.5 16.5t-0.5 16.5q-23 2 -33.5 6t-17.5 9q-4 2 -9.5 5t-10.5 3q-22 0 -42 -18t-38 -46.5t-32.5 -64t-25 -71t-16.5 -67t-6 -52.5q0 -18 2.5 -36t9 -33t19 -24.5
t32.5 -9.5q28 0 55.5 18.5t50.5 46.5t41.5 59t29.5 57q-1 49 -3 94.5t-4 90.5z" />
    <glyph glyph-name="dcroat" unicode="&#x111;" horiz-adv-x="489" 
d="M377 28q-2 7 -5 32.5t-6 51.5q-19 -19 -42.5 -40t-50 -39t-55 -30t-58.5 -12q-40 0 -67.5 17t-45 43.5t-25 59t-7.5 64.5q0 29 8 71.5t23.5 88.5t38.5 91.5t51.5 82t63.5 59t75 22.5q19 0 33.5 -9t24.5 -24v48q0 46 3 86t14 77q7 10 20 16.5t26.5 6.5t24.5 -7.5t16 -26.5
q-7 -48 -10 -90.5t-3 -81.5q0 -64 6.5 -123t14.5 -119q9 -65 16 -134.5t7 -155.5v-38q-1 -26 -11 -36.5t-24 -10.5q-15 0 -32 18.5t-24 41.5zM338 445q-1 8 -1.5 16.5t-0.5 16.5q-23 2 -33.5 6t-17.5 9q-4 2 -9.5 5t-10.5 3q-22 0 -42 -18t-38 -46.5t-32.5 -64t-25 -71
t-16.5 -67t-6 -52.5q0 -18 2.5 -36t9 -33t19 -24.5t32.5 -9.5q28 0 55.5 18.5t50.5 46.5t41.5 59t29.5 57q-1 49 -3 94.5t-4 90.5zM535 618q-9 0 -27.5 -2t-41.5 -4q-37 -5 -82.5 -9t-87.5 -4q-33 0 -60.5 4.5t-45 16t-22.5 30t6 47.5l381 15v-74z" />
    <glyph glyph-name="ebreve" unicode="&#x115;" 
d="M17 126q0 36 9.5 91t27.5 116.5t43.5 122.5t56.5 107t67 70.5t76 14.5q8 -1 19.5 -9t22 -23t17.5 -37.5t7 -53.5q0 -33 -11 -77t-38 -98.5t-73 -120.5t-117 -143q15 -13 32 -13q28 0 60.5 21.5t61.5 51t51.5 59.5t30.5 48q22 -18 31.5 -33.5t9.5 -28.5q0 -20 -13.5 -43
t-35.5 -46.5t-49.5 -45.5t-56 -38.5t-54.5 -25.5t-45 -8q-25 0 -48.5 12.5t-41.5 32.5t-29 45t-11 52zM271 529q0 19 -7 23q-17 -2 -35 -23.5t-35 -54.5t-32.5 -73t-27.5 -79.5t-19.5 -74t-8.5 -56.5q22 17 50.5 59.5t54 93.5t43 101.5t17.5 83.5zM267 552h-3h3zM262 553
q0 -1 1 -1zM188 810q21 -32 41 -43t37.5 -8.5t32.5 14.5t26 25t17.5 23.5t7.5 10.5q7 0 19 -1t21 -7t11.5 -18.5t-8.5 -35.5q-9 -28 -31.5 -45.5t-50.5 -26t-58.5 -7.5t-56.5 9.5t-44 24t-21 36.5z" />
    <glyph glyph-name="ecaron" unicode="&#x11b;" 
d="M17 126q0 36 9.5 91t27.5 116.5t43.5 122.5t56.5 107t67 70.5t76 14.5q8 -1 19.5 -9t22 -23t17.5 -37.5t7 -53.5q0 -33 -11 -77t-38 -98.5t-73 -120.5t-117 -143q15 -13 32 -13q28 0 60.5 21.5t61.5 51t51.5 59.5t30.5 48q22 -18 31.5 -33.5t9.5 -28.5q0 -20 -13.5 -43
t-35.5 -46.5t-49.5 -45.5t-56 -38.5t-54.5 -25.5t-45 -8q-25 0 -48.5 12.5t-41.5 32.5t-29 45t-11 52zM271 529q0 19 -7 23q-17 -2 -35 -23.5t-35 -54.5t-32.5 -73t-27.5 -79.5t-19.5 -74t-8.5 -56.5q22 17 50.5 59.5t54 93.5t43 101.5t17.5 83.5zM267 552h-3h3zM262 553
q0 -1 1 -1zM281 693q-11 -17 -24.5 -21.5t-35.5 -4.5l-106 127l6 12q4 13 8 24.5t11 17t18.5 2.5t30.5 -18l50 -64q13 16 25 31.5t25 30.5q17 19 29 24.5t20.5 0t14 -19.5t8.5 -35z" />
    <glyph glyph-name="edotaccent" unicode="&#x117;" 
d="M17 126q0 36 9.5 91t27.5 116.5t43.5 122.5t56.5 107t67 70.5t76 14.5q8 -1 19.5 -9t22 -23t17.5 -37.5t7 -53.5q0 -33 -11 -77t-38 -98.5t-73 -120.5t-117 -143q15 -13 32 -13q28 0 60.5 21.5t61.5 51t51.5 59.5t30.5 48q22 -18 31.5 -33.5t9.5 -28.5q0 -20 -13.5 -43
t-35.5 -46.5t-49.5 -45.5t-56 -38.5t-54.5 -25.5t-45 -8q-25 0 -48.5 12.5t-41.5 32.5t-29 45t-11 52zM271 529q0 19 -7 23q-17 -2 -35 -23.5t-35 -54.5t-32.5 -73t-27.5 -79.5t-19.5 -74t-8.5 -56.5q22 17 50.5 59.5t54 93.5t43 101.5t17.5 83.5zM267 552h-3h3zM262 553
q0 -1 1 -1zM211 721q-6 13 -3.5 30t11.5 31.5t22.5 24.5t28.5 10q24 0 42 -24l-1 2q9 -9 7 -27t-11 -35.5t-23 -30.5t-29 -13q-12 0 -24 8t-20 25v-1z" />
    <glyph glyph-name="emacron" unicode="&#x113;" 
d="M17 126q0 36 9.5 91t27.5 116.5t43.5 122.5t56.5 107t67 70.5t76 14.5q8 -1 19.5 -9t22 -23t17.5 -37.5t7 -53.5q0 -33 -11 -77t-38 -98.5t-73 -120.5t-117 -143q15 -13 32 -13q28 0 60.5 21.5t61.5 51t51.5 59.5t30.5 48q22 -18 31.5 -33.5t9.5 -28.5q0 -20 -13.5 -43
t-35.5 -46.5t-49.5 -45.5t-56 -38.5t-54.5 -25.5t-45 -8q-25 0 -48.5 12.5t-41.5 32.5t-29 45t-11 52zM271 529q0 19 -7 23q-17 -2 -35 -23.5t-35 -54.5t-32.5 -73t-27.5 -79.5t-19.5 -74t-8.5 -56.5q22 17 50.5 59.5t54 93.5t43 101.5t17.5 83.5zM267 552h-3h3zM262 553
q0 -1 1 -1zM39 688q0 7 2 19t5.5 23.5t8.5 21.5t10 15l354 -11l6 -84z" />
    <glyph glyph-name="eogonek" unicode="&#x119;" 
d="M17 126q0 36 9.5 91t27.5 116.5t43.5 122.5t56.5 107t67 70.5t76 14.5q8 -1 19.5 -9t22 -23t17.5 -37.5t7 -53.5q0 -33 -11 -77t-38 -98.5t-73 -120.5t-117 -143q15 -13 32 -13q28 0 60.5 21.5t61.5 51t51.5 59.5t30.5 48q22 -18 31.5 -33.5t9.5 -28.5q0 -20 -13.5 -43
t-35.5 -46.5t-49.5 -45.5t-56 -38.5t-54.5 -25.5t-45 -8q-25 0 -48.5 12.5t-41.5 32.5t-29 45t-11 52zM271 529q0 19 -7 23q-17 -2 -35 -23.5t-35 -54.5t-32.5 -73t-27.5 -79.5t-19.5 -74t-8.5 -56.5q22 17 50.5 59.5t54 93.5t43 101.5t17.5 83.5zM267 552h-3h3zM262 553
q0 -1 1 -1zM327 -90q-15 -15 -37.5 -23t-45.5 -8q-18 0 -35.5 5t-31 16t-22 28.5t-8.5 41.5q0 7 4 24.5t14 36.5t26.5 36t40.5 24l49 -41q-26 -17 -41 -38t-15 -36q0 -9 4.5 -15.5t15.5 -6.5q5 0 8 0.5t7 0.5q13 1 28 -1t35 -13z" />
    <glyph glyph-name="gbreve" unicode="&#x11f;" horiz-adv-x="574" 
d="M185 -395q-13 9 -18 20.5t-5 23.5q0 14 6 25.5t16 18t22 6t24 -10.5q20 -12 38 -16.5t35 -4.5q43 0 75 31.5t53 78t29.5 100t5.5 98.5l-31 386q-47 -116 -91 -189.5t-82.5 -115.5t-71 -58t-56.5 -16q-20 0 -36 7.5t-27 17.5q-10 21 -14 46.5t-4 54.5q0 48 10 107t28 119
t43.5 116.5t56.5 100.5t66.5 70.5t74.5 26.5q19 0 37 -5.5t37 -19.5q7 15 18 20.5t25 5.5t28 -8.5t25 -25.5l56 -630q1 -6 1 -14.5v-16.5q0 -28 -4 -67t-14.5 -80.5t-28.5 -82t-46.5 -72.5t-68 -51.5t-93.5 -19.5q-25 0 -53.5 5t-60.5 16zM380 504q0 20 -16 36.5t-36 18.5
q-21 -4 -42.5 -28.5t-42.5 -62t-39 -84t-32 -94t-22 -92.5t-8 -80q0 -17 1 -28t5 -19q17 1 41 25.5t49.5 62.5t51 85t45.5 95t32.5 91.5t12.5 73.5zM283 806q21 -32 41 -43t37.5 -8.5t32.5 14.5t26 25t17.5 23.5t7.5 10.5q7 0 19 -1t21 -7t11.5 -18.5t-8.5 -35.5
q-9 -28 -31.5 -45.5t-50.5 -26t-58.5 -7.5t-56.5 9.5t-44 24t-21 36.5z" />
    <glyph glyph-name="gcircumflex" unicode="&#x11d;" horiz-adv-x="539" 
d="M156 -417q-13 9 -18 20.5t-5 23.5q0 14 6 25.5t16 18t22 6t24 -10.5q20 -12 38 -16.5t35 -4.5q43 0 75 31.5t53 78t29.5 100t5.5 98.5l-31 386q-47 -116 -91 -189.5t-82.5 -115.5t-71 -58t-56.5 -16q-20 0 -36 7.5t-27 17.5q-10 21 -14 46.5t-4 54.5q0 48 10 107t28 119
t43.5 116.5t56.5 100.5t66.5 70.5t74.5 26.5q19 0 37 -5.5t37 -19.5q7 15 18 20.5t25 5.5t28 -8.5t25 -25.5l56 -630q1 -6 1 -14.5v-16.5q0 -28 -4 -67t-14.5 -80.5t-28.5 -82t-46.5 -72.5t-68 -51.5t-93.5 -19.5q-25 0 -53.5 5t-60.5 16zM351 482q0 20 -16 36.5t-36 18.5
q-21 -4 -42.5 -28.5t-42.5 -62t-39 -84t-32 -94t-22 -92.5t-8 -80q0 -17 1 -28t5 -19q17 1 41 25.5t49.5 62.5t51 85t45.5 95t32.5 91.5t12.5 73.5zM271 840q12 20 25.5 24t36.5 4l87 -117q0 -5 -1.5 -15t-9 -19t-24 -12t-45.5 6l-28 33q-6 -10 -10 -16.5t-10 -16.5
q-10 -13 -23 -16.5t-25.5 -0.5t-23.5 12t-17 21z" />
    <glyph glyph-name="gcommaaccent" unicode="&#x123;" horiz-adv-x="571" 
d="M172 716q2 8 4 18t6 22q5 18 10 39.5t5 44.5q0 20 -5 42.5t-19 50.5q0 28 19 39.5t41 11.5q31 -23 44.5 -61.5t13.5 -81.5q0 -42 -9.5 -82.5t-26.5 -70.5l1 3q-3 -10 -16.5 -14t-28 -2t-26.5 11t-13 26v4zM168 -401q-13 9 -18 20.5t-5 23.5q0 14 6 25.5t16 18t22 6
t24 -10.5q20 -12 38 -16.5t35 -4.5q43 0 75 31.5t53 78t29.5 100t5.5 98.5l-31 386q-47 -116 -91 -189.5t-82.5 -115.5t-71 -58t-56.5 -16q-20 0 -36 7.5t-27 17.5q-10 21 -14 46.5t-4 54.5q0 48 10 107t28 119t43.5 116.5t56.5 100.5t66.5 70.5t74.5 26.5q19 0 37 -5.5
t37 -19.5q7 15 18 20.5t25 5.5t28 -8.5t25 -25.5l56 -630q1 -6 1 -14.5v-16.5q0 -28 -4 -67t-14.5 -80.5t-28.5 -82t-46.5 -72.5t-68 -51.5t-93.5 -19.5q-25 0 -53.5 5t-60.5 16zM363 498q0 20 -16 36.5t-36 18.5q-21 -4 -42.5 -28.5t-42.5 -62t-39 -84t-32 -94t-22 -92.5
t-8 -80q0 -17 1 -28t5 -19q17 1 41 25.5t49.5 62.5t51 85t45.5 95t32.5 91.5t12.5 73.5z" />
    <glyph glyph-name="gdotaccent" unicode="&#x121;" horiz-adv-x="568" 
d="M162 -392q-13 9 -18 20.5t-5 23.5q0 14 6 25.5t16 18t22 6t24 -10.5q20 -12 38 -16.5t35 -4.5q43 0 75 31.5t53 78t29.5 100t5.5 98.5l-31 386q-47 -116 -91 -189.5t-82.5 -115.5t-71 -58t-56.5 -16q-20 0 -36 7.5t-27 17.5q-10 21 -14 46.5t-4 54.5q0 48 10 107t28 119
t43.5 116.5t56.5 100.5t66.5 70.5t74.5 26.5q19 0 37 -5.5t37 -19.5q7 15 18 20.5t25 5.5t28 -8.5t25 -25.5l56 -630q1 -6 1 -14.5v-16.5q0 -28 -4 -67t-14.5 -80.5t-28.5 -82t-46.5 -72.5t-68 -51.5t-93.5 -19.5q-25 0 -53.5 5t-60.5 16zM357 507q0 20 -16 36.5t-36 18.5
q-21 -4 -42.5 -28.5t-42.5 -62t-39 -84t-32 -94t-22 -92.5t-8 -80q0 -17 1 -28t5 -19q17 1 41 25.5t49.5 62.5t51 85t45.5 95t32.5 91.5t12.5 73.5zM232 736q-6 13 -3.5 30t11.5 31.5t22.5 24.5t28.5 10q24 0 42 -24l-1 2q9 -9 7 -27t-11 -35.5t-23 -30.5t-29 -13
q-12 0 -24 8t-20 25v-1z" />
    <glyph glyph-name="hbar" unicode="&#x127;" horiz-adv-x="555" 
d="M159 1q-7 -11 -21 -15.5t-28 -3.5t-25 6t-11 14v-2q-14 121 -18 213t-6 173q-1 39 -2 77.5t-3 79t-6.5 84t-11.5 92.5q6 9 17 15.5t24 10.5t26 5.5t23 0.5l24 -438q16 44 37.5 91.5t48 86.5t57.5 64.5t65 25.5q37 -4 65.5 -42t50 -94.5t36 -124t23.5 -129.5t13.5 -111
t5.5 -69q-25 -23 -42 -13t-30 40.5t-22.5 77.5t-18.5 100q-9 49 -18 99.5t-19.5 91t-22.5 65.5t-26 23q-26 -16 -51 -58t-46 -96.5t-38 -113.5t-29 -108.5t-17.5 -82.5t-3.5 -35zM-98 594q0 7 2 19t5.5 23.5t8.5 21.5t10 15l354 -11l6 -84z" />
    <glyph glyph-name="hcircumflex" unicode="&#x125;" horiz-adv-x="555" 
d="M159 1q-7 -11 -21 -15.5t-28 -3.5t-25 6t-11 14v-2q-14 121 -18 213t-6 173q-1 39 -2 77.5t-3 79t-6.5 84t-11.5 92.5q6 9 17 15.5t24 10.5t26 5.5t23 0.5l24 -438q16 44 37.5 91.5t48 86.5t57.5 64.5t65 25.5q37 -4 65.5 -42t50 -94.5t36 -124t23.5 -129.5t13.5 -111
t5.5 -69q-25 -23 -42 -13t-30 40.5t-22.5 77.5t-18.5 100q-9 49 -18 99.5t-19.5 91t-22.5 65.5t-26 23q-26 -16 -51 -58t-46 -96.5t-38 -113.5t-29 -108.5t-17.5 -82.5t-3.5 -35zM294 901q12 20 25.5 24t36.5 4l87 -117q0 -5 -1.5 -15t-9 -19t-24 -12t-45.5 6l-28 33
q-6 -10 -10 -16.5t-10 -16.5q-10 -13 -23 -16.5t-25.5 -0.5t-23.5 12t-17 21z" />
    <glyph glyph-name="dotlessj" unicode="&#x237;" horiz-adv-x="226" 
d="M-164 -349q-3 9 5 18t19.5 16t22.5 10t16 0l-5 6q32 -25 63.5 -36t58.5 -11q46 0 75.5 26.5t31.5 64.5q-1 30 -4 80.5t-7.5 113t-10.5 133t-12 140.5t-12.5 135t-11.5 116t-9.5 84t-6.5 40q0 5 8 13t20 14.5t27 9.5t29 0q8 -51 17 -124t17.5 -156t16 -171t13.5 -170
t9.5 -152.5t4.5 -118.5q0 -44 -15 -74.5t-40.5 -49.5t-58.5 -27t-68 -8q-29 0 -58.5 5.5t-55 15t-45.5 23t-31 28.5z" />
    <glyph glyph-name="jcircumflex" unicode="&#x135;" horiz-adv-x="285" 
d="M-164 -349q-3 9 5 18t19.5 16t22.5 10t16 0l-5 6q32 -25 63.5 -36t58.5 -11q46 0 75.5 26.5t31.5 64.5q-1 30 -4 80.5t-7.5 113t-10.5 133t-12 140.5t-12.5 135t-11.5 116t-9.5 84t-6.5 40q0 5 8 13t20 14.5t27 9.5t29 0q8 -51 17 -124t17.5 -156t16 -171t13.5 -170
t9.5 -152.5t4.5 -118.5q0 -44 -15 -74.5t-40.5 -49.5t-58.5 -27t-68 -8q-29 0 -58.5 5.5t-55 15t-45.5 23t-31 28.5zM72 869q12 20 25.5 24t36.5 4l87 -117q0 -5 -1.5 -15t-9 -19t-24 -12t-45.5 6l-28 33q-6 -10 -10 -16.5t-10 -16.5q-10 -13 -23 -16.5t-25.5 -0.5t-23.5 12
t-17 21z" />
    <glyph glyph-name="kcommaaccent" unicode="&#x137;" horiz-adv-x="537" 
d="M43 -6q0 100 -5 187l-10 174q-5 88 -9.5 178.5t-5.5 193.5q3 13 17 16t30 -1t28.5 -12t14.5 -15v2q3 -55 6 -102.5t6 -93.5t6 -93.5t6 -102.5q20 28 39.5 65.5t38.5 76.5q14 29 28 57.5t34 60.5q10 10 23 8t23 -10t15.5 -20.5t2.5 -24.5q-2 -16 -12.5 -42t-26.5 -56
t-35 -62.5t-36 -62.5q-11 -20 -17.5 -30t-14.5 -24q25 -14 63 -34.5t76 -41.5q32 -18 63.5 -35t56.5 -32t42 -26.5t20 -17.5l-2 5q7 -9 6.5 -22t-7.5 -24t-20.5 -17t-32.5 -2q-53 20 -91 42t-64 41t-62 40.5t-97 44.5v-187q-2 -14 -17 -25.5t-32 -11.5q-29 0 -45 25z
M252 -97q-31 -60 -47.5 -96t-23.5 -55.5t-6.5 -25t5.5 -4.5q-3 -2 -5.5 -2t-5.5 -1q-22 -7 -31.5 12t-9.5 53q0 27 5.5 59.5t16 61t25 47.5t32.5 19q26 0 52 -43z" />
    <glyph glyph-name="lacute" unicode="&#x13a;" horiz-adv-x="178" 
d="M97 709q10 -144 16 -246t10 -171.5t6 -112t3 -66.5q1 -18 1.5 -27.5t1 -15t1 -9t2.5 -8.5q2 -8 5 -17q4 -20 -12 -37.5t-38 -17.5q-25 0 -46 28l-32 704q2 24 14 39t26 15q13 0 25 -13t17 -42v-3zM98 848q-25 -7 -38 -4.5t-20 9.5t-11 17t-12 18l83 111q12 0 21 -0.5
t16.5 -4.5t15 -11.5t15.5 -22.5z" />
    <glyph glyph-name="lcaron" unicode="&#x13e;" horiz-adv-x="269" 
d="M121 474q2 8 4 18t6 22q5 18 10 39.5t5 44.5q0 20 -5 42.5t-19 50.5q0 28 19 39.5t41 11.5q31 -23 44.5 -61.5t13.5 -81.5q0 -42 -9.5 -82.5t-26.5 -70.5l1 3q-3 -10 -16.5 -14t-28 -2t-26.5 11t-13 26v4zM97 709q10 -144 16 -246t10 -171.5t6 -112t3 -66.5
q1 -18 1.5 -27.5t1 -15t1 -9t2.5 -8.5q2 -8 5 -17q4 -20 -12 -37.5t-38 -17.5q-25 0 -46 28l-32 704q2 24 14 39t26 15q13 0 25 -13t17 -42v-3z" />
    <glyph glyph-name="lcommaaccent" unicode="&#x13c;" horiz-adv-x="178" 
d="M97 709q10 -144 16 -246t10 -171.5t6 -112t3 -66.5q1 -18 1.5 -27.5t1 -15t1 -9t2.5 -8.5q2 -8 5 -17q4 -20 -12 -37.5t-38 -17.5q-25 0 -46 28l-32 704q2 24 14 39t26 15q13 0 25 -13t17 -42v-3zM157 -97q-31 -60 -47.5 -96t-23.5 -55.5t-6.5 -25t5.5 -4.5
q-3 -2 -5.5 -2t-5.5 -1q-22 -7 -31.5 12t-9.5 53q0 27 5.5 59.5t16 61t25 47.5t32.5 19q26 0 52 -43z" />
    <glyph glyph-name="ldot" unicode="&#x140;" horiz-adv-x="282" 
d="M109 729q10 -144 16 -246t10 -171.5t6 -112t3 -66.5q1 -18 1.5 -27.5t1 -15t1 -9t2.5 -8.5q2 -8 5 -17q4 -20 -12 -37.5t-38 -17.5q-25 0 -46 28l-32 704q2 24 14 39t26 15q13 0 25 -13t17 -42v-3zM161 366q-6 13 -3.5 30t11.5 31.5t22.5 24.5t28.5 10q24 0 42 -24l-1 2
q9 -9 7 -27t-11 -35.5t-23 -30.5t-29 -13q-12 0 -24 8t-20 25v-1z" />
    <glyph glyph-name="nacute" unicode="&#x144;" horiz-adv-x="473" 
d="M117 482q13 33 29.5 63t36.5 52.5t43.5 35.5t50.5 12q42 0 68 -24.5t42 -59t23.5 -71t10.5 -60.5v1q3 -16 4 -54.5t3 -87.5q1 -39 2 -79.5t3.5 -75.5t6.5 -61t10 -36q1 -9 -14 -19.5t-34.5 -17t-36.5 -5.5t-20 15l1 -1q-14 56 -16 127.5t-3 144.5q0 54 -1.5 104t-6 88.5
t-14 60.5t-27.5 20q-27 -1 -48 -28t-37 -69.5t-27.5 -96t-19.5 -107.5t-13.5 -104t-8.5 -85q2 -45 -13 -63t-33.5 -18.5t-34.5 10.5t-15 23v492q0 15 5 30t16 26.5t28 18.5t40 7v-108zM272 697q-25 -7 -38 -4.5t-20 9.5t-11 17t-12 18l83 111q12 0 21 -0.5t16.5 -4.5
t15 -11.5t15.5 -22.5z" />
    <glyph glyph-name="napostrophe" unicode="&#x149;" horiz-adv-x="473" 
d="M117 482q13 33 29.5 63t36.5 52.5t43.5 35.5t50.5 12q42 0 68 -24.5t42 -59t23.5 -71t10.5 -60.5v1q3 -16 4 -54.5t3 -87.5q1 -39 2 -79.5t3.5 -75.5t6.5 -61t10 -36q1 -9 -14 -19.5t-34.5 -17t-36.5 -5.5t-20 15l1 -1q-14 56 -16 127.5t-3 144.5q0 54 -1.5 104t-6 88.5
t-14 60.5t-27.5 20q-27 -1 -48 -28t-37 -69.5t-27.5 -96t-19.5 -107.5t-13.5 -104t-8.5 -85q2 -45 -13 -63t-33.5 -18.5t-34.5 10.5t-15 23v492q0 15 5 30t16 26.5t28 18.5t40 7v-108zM233 794q-31 -60 -47.5 -96t-23.5 -55.5t-6.5 -25t5.5 -4.5q-3 -2 -5.5 -2t-5.5 -1
q-22 -7 -31.5 12t-9.5 53q0 27 5.5 59.5t16 61t25 47.5t32.5 19q26 0 52 -43z" />
    <glyph glyph-name="ncaron" unicode="&#x148;" horiz-adv-x="473" 
d="M117 482q13 33 29.5 63t36.5 52.5t43.5 35.5t50.5 12q42 0 68 -24.5t42 -59t23.5 -71t10.5 -60.5v1q3 -16 4 -54.5t3 -87.5q1 -39 2 -79.5t3.5 -75.5t6.5 -61t10 -36q1 -9 -14 -19.5t-34.5 -17t-36.5 -5.5t-20 15l1 -1q-14 56 -16 127.5t-3 144.5q0 54 -1.5 104t-6 88.5
t-14 60.5t-27.5 20q-27 -1 -48 -28t-37 -69.5t-27.5 -96t-19.5 -107.5t-13.5 -104t-8.5 -85q2 -45 -13 -63t-33.5 -18.5t-34.5 10.5t-15 23v492q0 15 5 30t16 26.5t28 18.5t40 7v-108zM294 701q-11 -17 -24.5 -21.5t-35.5 -4.5l-106 127l6 12q4 13 8 24.5t11 17t18.5 2.5
t30.5 -18l50 -64q13 16 25 31.5t25 30.5q17 19 29 24.5t20.5 0t14 -19.5t8.5 -35z" />
    <glyph glyph-name="ncommaaccent" unicode="&#x146;" horiz-adv-x="473" 
d="M117 482q13 33 29.5 63t36.5 52.5t43.5 35.5t50.5 12q42 0 68 -24.5t42 -59t23.5 -71t10.5 -60.5v1q3 -16 4 -54.5t3 -87.5q1 -39 2 -79.5t3.5 -75.5t6.5 -61t10 -36q1 -9 -14 -19.5t-34.5 -17t-36.5 -5.5t-20 15l1 -1q-14 56 -16 127.5t-3 144.5q0 54 -1.5 104t-6 88.5
t-14 60.5t-27.5 20q-27 -1 -48 -28t-37 -69.5t-27.5 -96t-19.5 -107.5t-13.5 -104t-8.5 -85q2 -45 -13 -63t-33.5 -18.5t-34.5 10.5t-15 23v492q0 15 5 30t16 26.5t28 18.5t40 7v-108zM220 -97q-31 -60 -47.5 -96t-23.5 -55.5t-6.5 -25t5.5 -4.5q-3 -2 -5.5 -2t-5.5 -1
q-22 -7 -31.5 12t-9.5 53q0 27 5.5 59.5t16 61t25 47.5t32.5 19q26 0 52 -43z" />
    <glyph glyph-name="obreve" unicode="&#x14f;" horiz-adv-x="374" 
d="M12 183q9 133 29.5 223.5t49 144.5t62.5 76t71 18q38 -2 65.5 -22t45.5 -54t26.5 -78.5t8.5 -93.5q0 -70 -16.5 -143t-47.5 -134t-75.5 -100.5t-99.5 -42.5q-45 0 -69 21.5t-35 52.5t-13 66.5t-2 64.5v1zM219 564q-26 2 -48.5 -34.5t-39 -93t-26 -123t-9.5 -123.5
q0 -51 8 -85.5t25 -36.5q36 7 64.5 41t48.5 83t30.5 105.5t10.5 109.5q0 31 -4 59.5t-11.5 49.5t-19.5 34t-28 14h-1zM146 781q21 -32 41 -43t37.5 -8.5t32.5 14.5t26 25t17.5 23.5t7.5 10.5q7 0 19 -1t21 -7t11.5 -18.5t-8.5 -35.5q-9 -28 -31.5 -45.5t-50.5 -26
t-58.5 -7.5t-56.5 9.5t-44 24t-21 36.5z" />
    <glyph glyph-name="omacron" unicode="&#x14d;" horiz-adv-x="374" 
d="M12 183q9 133 29.5 223.5t49 144.5t62.5 76t71 18q38 -2 65.5 -22t45.5 -54t26.5 -78.5t8.5 -93.5q0 -70 -16.5 -143t-47.5 -134t-75.5 -100.5t-99.5 -42.5q-45 0 -69 21.5t-35 52.5t-13 66.5t-2 64.5v1zM219 564q-26 2 -48.5 -34.5t-39 -93t-26 -123t-9.5 -123.5
q0 -51 8 -85.5t25 -36.5q36 7 64.5 41t48.5 83t30.5 105.5t10.5 109.5q0 31 -4 59.5t-11.5 49.5t-19.5 34t-28 14h-1zM-1 695q0 7 2 19t5.5 23.5t8.5 21.5t10 15l354 -11l6 -84z" />
    <glyph glyph-name="oslashacute" unicode="&#x1ff;" horiz-adv-x="374" 
d="M12 183q9 133 29.5 223.5t49 144.5t62.5 76t71 18q38 -2 65.5 -22t45.5 -54t26.5 -78.5t8.5 -93.5q0 -70 -16.5 -143t-47.5 -134t-75.5 -100.5t-99.5 -42.5q-45 0 -69 21.5t-35 52.5t-13 66.5t-2 64.5v1zM219 564q-26 2 -48.5 -34.5t-39 -93t-26 -123t-9.5 -123.5
q0 -51 8 -85.5t25 -36.5q36 7 64.5 41t48.5 83t30.5 105.5t10.5 109.5q0 31 -4 59.5t-11.5 49.5t-19.5 34t-28 14h-1zM26.7061 -29.7002q-17.9092 0 -29.3506 2.0166t-18.4062 7.26074t-10.9443 13.7148q-3.97949 8.47168 -7.95898 22.1865l363.15 618.787
q18.9043 8.06738 32.833 6.05078q13.9287 -2.01758 22.3857 -10.085t10.9443 -19.7656t-0.49707 -22.1865zM217 703q-25 -7 -38 -4.5t-20 9.5t-11 17t-12 18l83 111q12 0 21 -0.5t16.5 -4.5t15 -11.5t15.5 -22.5z" />
    <glyph glyph-name="racute" unicode="&#x155;" 
d="M57 19q-2 48 -4.5 86t-5 77t-6.5 84t-9 107q-3 39 -6.5 86.5t-8.5 105.5v6v19.5t3 22t11 19t23 11.5q19 -3 30 -10t15.5 -19t5.5 -28.5t1 -38.5v-50t5 -64q19 45 45.5 86t61 71.5t78.5 47t99 12.5v-71q-52 -4 -90.5 -29t-66 -66t-45.5 -94.5t-28.5 -114t-16 -125.5
t-7.5 -127q-1 -20 -11.5 -31.5t-24.5 -11.5q-24 0 -44 29zM218 672q-25 -7 -38 -4.5t-20 9.5t-11 17t-12 18l83 111q12 0 21 -0.5t16.5 -4.5t15 -11.5t15.5 -22.5z" />
    <glyph glyph-name="rcaron" unicode="&#x159;" 
d="M57 19q-2 48 -4.5 86t-5 77t-6.5 84t-9 107q-3 39 -6.5 86.5t-8.5 105.5v6v19.5t3 22t11 19t23 11.5q19 -3 30 -10t15.5 -19t5.5 -28.5t1 -38.5v-50t5 -64q19 45 45.5 86t61 71.5t78.5 47t99 12.5v-71q-52 -4 -90.5 -29t-66 -66t-45.5 -94.5t-28.5 -114t-16 -125.5
t-7.5 -127q-1 -20 -11.5 -31.5t-24.5 -11.5q-24 0 -44 29zM236 667q-11 -17 -24.5 -21.5t-35.5 -4.5l-106 127l6 12q4 13 8 24.5t11 17t18.5 2.5t30.5 -18l50 -64q13 16 25 31.5t25 30.5q17 19 29 24.5t20.5 0t14 -19.5t8.5 -35z" />
    <glyph glyph-name="rcommaaccent" unicode="&#x157;" 
d="M57 19q-2 48 -4.5 86t-5 77t-6.5 84t-9 107q-3 39 -6.5 86.5t-8.5 105.5v6v19.5t3 22t11 19t23 11.5q19 -3 30 -10t15.5 -19t5.5 -28.5t1 -38.5v-50t5 -64q19 45 45.5 86t61 71.5t78.5 47t99 12.5v-71q-52 -4 -90.5 -29t-66 -66t-45.5 -94.5t-28.5 -114t-16 -125.5
t-7.5 -127q-1 -20 -11.5 -31.5t-24.5 -11.5q-24 0 -44 29zM195 -97q-31 -60 -47.5 -96t-23.5 -55.5t-6.5 -25t5.5 -4.5q-3 -2 -5.5 -2t-5.5 -1q-22 -7 -31.5 12t-9.5 53q0 27 5.5 59.5t16 61t25 47.5t32.5 19q26 0 52 -43z" />
    <glyph glyph-name="sacute" unicode="&#x15b;" horiz-adv-x="407" 
d="M206 -22q-35 3 -67 9t-58 18.5t-43.5 32t-21.5 48.5q36 0 59 -5t43 -10q19 -6 39 -10.5t40 -4.5q17 0 36.5 4.5t35.5 13.5t26.5 23t10.5 34q0 19 -11 39t-28 41t-38 41t-42 39q-26 23 -52 47.5t-46.5 51t-33.5 55t-13 59.5t17.5 57t44 44.5t57 29t57.5 10.5q22 2 45 -6
t40 -24.5t25.5 -41.5t0.5 -57l1 1q-5 -26 -15.5 -36t-22.5 -10t-23.5 10t-22.5 24v20.5t-1.5 19t-5 14t-10.5 5.5q-16 0 -33 -4.5t-31.5 -13.5t-24 -22.5t-9.5 -30.5q-3 -9 4.5 -22.5t21 -29.5t33 -34.5t40.5 -38.5q31 -29 62.5 -60.5t55.5 -63.5t36 -65t5 -65v2
q-4 -41 -19.5 -68t-39.5 -42.5t-55.5 -21.5t-67.5 -6h-1zM210 669q-25 -7 -38 -4.5t-20 9.5t-11 17t-12 18l83 111q12 0 21 -0.5t16.5 -4.5t15 -11.5t15.5 -22.5z" />
    <glyph glyph-name="scedilla" unicode="&#x15f;" horiz-adv-x="407" 
d="M206 -22q-35 3 -67 9t-58 18.5t-43.5 32t-21.5 48.5q36 0 59 -5t43 -10q19 -6 39 -10.5t40 -4.5q17 0 36.5 4.5t35.5 13.5t26.5 23t10.5 34q0 19 -11 39t-28 41t-38 41t-42 39q-26 23 -52 47.5t-46.5 51t-33.5 55t-13 59.5t17.5 57t44 44.5t57 29t57.5 10.5q22 2 45 -6
t40 -24.5t25.5 -41.5t0.5 -57l1 1q-5 -26 -15.5 -36t-22.5 -10t-23.5 10t-22.5 24v20.5t-1.5 19t-5 14t-10.5 5.5q-16 0 -33 -4.5t-31.5 -13.5t-24 -22.5t-9.5 -30.5q-3 -9 4.5 -22.5t21 -29.5t33 -34.5t40.5 -38.5q31 -29 62.5 -60.5t55.5 -63.5t36 -65t5 -65v2
q-4 -41 -19.5 -68t-39.5 -42.5t-55.5 -21.5t-67.5 -6h-1zM55 -179q-4 11 5 20.5t22 15.5t26 6t17 -8q7 -20 24 -31t34 -11q9 0 16.5 5t9.5 13q-2 20 -17 34.5t-34 25.5q-14 9 -27.5 18t-24 21t-17.5 27.5t-7 36.5q-8 38 3.5 53.5t28.5 15.5q8 0 17 -5t15.5 -14.5t10.5 -22.5
t2 -28q5 -7 14.5 -14t21.5 -15h-1q15 -11 31 -23.5t29.5 -27.5t22 -34t8.5 -43q-2 -55 -28.5 -80.5t-64.5 -25.5q-35 0 -72.5 23t-62.5 65z" />
    <glyph glyph-name="scircumflex" unicode="&#x15d;" horiz-adv-x="407" 
d="M206 -22q-35 3 -67 9t-58 18.5t-43.5 32t-21.5 48.5q36 0 59 -5t43 -10q19 -6 39 -10.5t40 -4.5q17 0 36.5 4.5t35.5 13.5t26.5 23t10.5 34q0 19 -11 39t-28 41t-38 41t-42 39q-26 23 -52 47.5t-46.5 51t-33.5 55t-13 59.5t17.5 57t44 44.5t57 29t57.5 10.5q22 2 45 -6
t40 -24.5t25.5 -41.5t0.5 -57l1 1q-5 -26 -15.5 -36t-22.5 -10t-23.5 10t-22.5 24v20.5t-1.5 19t-5 14t-10.5 5.5q-16 0 -33 -4.5t-31.5 -13.5t-24 -22.5t-9.5 -30.5q-3 -9 4.5 -22.5t21 -29.5t33 -34.5t40.5 -38.5q31 -29 62.5 -60.5t55.5 -63.5t36 -65t5 -65v2
q-4 -41 -19.5 -68t-39.5 -42.5t-55.5 -21.5t-67.5 -6h-1zM157 837q12 20 25.5 24t36.5 4l87 -117q0 -5 -1.5 -15t-9 -19t-24 -12t-45.5 6l-28 33q-6 -10 -10 -16.5t-10 -16.5q-10 -13 -23 -16.5t-25.5 -0.5t-23.5 12t-17 21z" />
    <glyph glyph-name="scommaaccent" unicode="&#x219;" horiz-adv-x="407" 
d="M206 -22q-35 3 -67 9t-58 18.5t-43.5 32t-21.5 48.5q36 0 59 -5t43 -10q19 -6 39 -10.5t40 -4.5q17 0 36.5 4.5t35.5 13.5t26.5 23t10.5 34q0 19 -11 39t-28 41t-38 41t-42 39q-26 23 -52 47.5t-46.5 51t-33.5 55t-13 59.5t17.5 57t44 44.5t57 29t57.5 10.5q22 2 45 -6
t40 -24.5t25.5 -41.5t0.5 -57l1 1q-5 -26 -15.5 -36t-22.5 -10t-23.5 10t-22.5 24v20.5t-1.5 19t-5 14t-10.5 5.5q-16 0 -33 -4.5t-31.5 -13.5t-24 -22.5t-9.5 -30.5q-3 -9 4.5 -22.5t21 -29.5t33 -34.5t40.5 -38.5q31 -29 62.5 -60.5t55.5 -63.5t36 -65t5 -65v2
q-4 -41 -19.5 -68t-39.5 -42.5t-55.5 -21.5t-67.5 -6h-1zM189 -97q-31 -60 -47.5 -96t-23.5 -55.5t-6.5 -25t5.5 -4.5q-3 -2 -5.5 -2t-5.5 -1q-22 -7 -31.5 12t-9.5 53q0 27 5.5 59.5t16 61t25 47.5t32.5 19q26 0 52 -43z" />
    <glyph glyph-name="tcaron" unicode="&#x165;" horiz-adv-x="378" 
d="M212 703q2 8 4 18t6 22q5 18 10 39.5t5 44.5q0 20 -5 42.5t-19 50.5q0 28 19 39.5t41 11.5q31 -23 44.5 -61.5t13.5 -81.5q0 -42 -9.5 -82.5t-26.5 -70.5l1 3q-3 -10 -16.5 -14t-28 -2t-26.5 11t-13 26v4zM179 16q0 -14 -12.5 -22t-28.5 -12.5t-30.5 -5.5t-17.5 -1v512
l-20 -4t-21 -4q-8 -2 -16.5 -3.5t-16.5 -3.5q-11 0 -23.5 15.5t-19.5 62.5q20 5 35 9t21 5q17 2 33.5 6.5t27.5 12.5v142q0 7 6.5 18t18 19.5t28 12.5t36.5 -2l2 -166q60 11 127 24t124 24q0 -21 -7 -38t-17.5 -29.5t-22 -20t-20.5 -10.5q-15 -4 -33.5 -8.5t-38.5 -9.5
q-32 -7 -63 -14t-51 -13v-496z" />
    <glyph glyph-name="tcommaaccent" unicode="&#x163;" horiz-adv-x="368" 
d="M179 16q0 -14 -12.5 -22t-28.5 -12.5t-30.5 -5.5t-17.5 -1v512l-20 -4t-21 -4q-8 -2 -16.5 -3.5t-16.5 -3.5q-11 0 -23.5 15.5t-19.5 62.5q20 5 35 9t21 5q17 2 33.5 6.5t27.5 12.5v142q0 7 6.5 18t18 19.5t28 12.5t36.5 -2l2 -166q60 11 127 24t124 24q0 -21 -7 -38
t-17.5 -29.5t-22 -20t-20.5 -10.5q-15 -4 -33.5 -8.5t-38.5 -9.5q-32 -7 -63 -14t-51 -13v-496v0zM196 -122q-31 -60 -47.5 -96t-23.5 -55.5t-6.5 -25t5.5 -4.5q-3 -2 -5.5 -2t-5.5 -1q-22 -7 -31.5 12t-9.5 53q0 27 5.5 59.5t16 61t25 47.5t32.5 19q26 0 52 -43z" />
    <glyph glyph-name="ubreve" unicode="&#x16d;" 
d="M138 -22q-23 -5 -41 14t-31.5 54.5t-22.5 83.5t-14 100.5t-7.5 106.5t-2.5 102q0 27 0.5 51t1.5 43q0 6 5 17.5t16 21.5t30 14.5t47 -4.5q-2 -7 -4 -26.5t-4 -47.5t-3 -62t-1 -70q0 -47 1.5 -96.5t5 -91t10 -70.5t15.5 -35q19 7 38.5 31.5t38.5 59.5t35.5 78t29 89t20 92
t7.5 86q0 50 -17 93q3 4 10.5 10t16 12t16.5 10t11 4q21 0 32.5 -17.5t16.5 -40.5t5.5 -45t0.5 -31q1 -26 -7 -74t-23.5 -105t-38.5 -117t-52.5 -111t-65 -86.5t-76.5 -42.5h1zM141 779q21 -32 41 -43t37.5 -8.5t32.5 14.5t26 25t17.5 23.5t7.5 10.5q7 0 19 -1t21 -7
t11.5 -18.5t-8.5 -35.5q-9 -28 -31.5 -45.5t-50.5 -26t-58.5 -7.5t-56.5 9.5t-44 24t-21 36.5z" />
    <glyph glyph-name="umacron" unicode="&#x16b;" 
d="M138 -22q-23 -5 -41 14t-31.5 54.5t-22.5 83.5t-14 100.5t-7.5 106.5t-2.5 102q0 27 0.5 51t1.5 43q0 6 5 17.5t16 21.5t30 14.5t47 -4.5q-2 -7 -4 -26.5t-4 -47.5t-3 -62t-1 -70q0 -47 1.5 -96.5t5 -91t10 -70.5t15.5 -35q19 7 38.5 31.5t38.5 59.5t35.5 78t29 89t20 92
t7.5 86q0 50 -17 93q3 4 10.5 10t16 12t16.5 10t11 4q21 0 32.5 -17.5t16.5 -40.5t5.5 -45t0.5 -31q1 -26 -7 -74t-23.5 -105t-38.5 -117t-52.5 -111t-65 -86.5t-76.5 -42.5h1zM3 722q0 7 2 19t5.5 23.5t8.5 21.5t10 15l354 -11l6 -84z" />
    <glyph glyph-name="uogonek" unicode="&#x173;" 
d="M138 -22q-23 -5 -41 14t-31.5 54.5t-22.5 83.5t-14 100.5t-7.5 106.5t-2.5 102q0 27 0.5 51t1.5 43q0 6 5 17.5t16 21.5t30 14.5t47 -4.5q-2 -7 -4 -26.5t-4 -47.5t-3 -62t-1 -70q0 -47 1.5 -96.5t5 -91t10 -70.5t15.5 -35q19 7 38.5 31.5t38.5 59.5t35.5 78t29 89t20 92
t7.5 86q0 50 -17 93q3 4 10.5 10t16 12t16.5 10t11 4q21 0 32.5 -17.5t16.5 -40.5t5.5 -45t0.5 -31q1 -26 -7 -74t-23.5 -105t-38.5 -117t-52.5 -111t-65 -86.5t-76.5 -42.5h1zM262 -118q-15 -15 -37.5 -23t-45.5 -8q-18 0 -35.5 5t-31 16t-22 28.5t-8.5 41.5q0 7 4 24.5
t14 36.5t26.5 36t40.5 24l49 -41q-26 -17 -41 -38t-15 -36q0 -9 4.5 -15.5t15.5 -6.5q5 0 8 0.5t7 0.5q13 1 28 -1t35 -13z" />
    <glyph glyph-name="uring" unicode="&#x16f;" 
d="M138 -22q-23 -5 -41 14t-31.5 54.5t-22.5 83.5t-14 100.5t-7.5 106.5t-2.5 102q0 27 0.5 51t1.5 43q0 6 5 17.5t16 21.5t30 14.5t47 -4.5q-2 -7 -4 -26.5t-4 -47.5t-3 -62t-1 -70q0 -47 1.5 -96.5t5 -91t10 -70.5t15.5 -35q19 7 38.5 31.5t38.5 59.5t35.5 78t29 89t20 92
t7.5 86q0 50 -17 93q3 4 10.5 10t16 12t16.5 10t11 4q21 0 32.5 -17.5t16.5 -40.5t5.5 -45t0.5 -31q1 -26 -7 -74t-23.5 -105t-38.5 -117t-52.5 -111t-65 -86.5t-76.5 -42.5h1zM164 651q-47 1 -67 19.5t-20 42.5q0 18 11 36t29.5 32.5t43 22t52.5 3.5q41 -11 59.5 -31
t18.5 -42q0 -16 -9 -31.5t-25.5 -27.5t-40 -19t-52.5 -5zM195 737q-17 0 -28 -4.5t-11 -9.5q0 -3 13 -8q20 2 31.5 7t11.5 10q0 4 -17 5z" />
    <glyph glyph-name="utilde" unicode="&#x169;" 
d="M138 -22q-23 -5 -41 14t-31.5 54.5t-22.5 83.5t-14 100.5t-7.5 106.5t-2.5 102q0 27 0.5 51t1.5 43q0 6 5 17.5t16 21.5t30 14.5t47 -4.5q-2 -7 -4 -26.5t-4 -47.5t-3 -62t-1 -70q0 -47 1.5 -96.5t5 -91t10 -70.5t15.5 -35q19 7 38.5 31.5t38.5 59.5t35.5 78t29 89t20 92
t7.5 86q0 50 -17 93q3 4 10.5 10t16 12t16.5 10t11 4q21 0 32.5 -17.5t16.5 -40.5t5.5 -45t0.5 -31q1 -26 -7 -74t-23.5 -105t-38.5 -117t-52.5 -111t-65 -86.5t-76.5 -42.5h1zM-2 691q0 10 4.5 31.5t16 43t30 37.5t46.5 16q33 0 57.5 -13.5t47.5 -30.5q19 -14 39.5 -26
t46.5 -12q19 -1 35.5 8t30 22.5t23 28.5t15.5 26q5 2 13.5 -3.5t17 -14t14.5 -18.5t6 -18l3 7q0 -20 -15.5 -39.5t-38.5 -36t-50 -26.5t-50 -10q-56 1 -100 25t-89 57q-12 -4 -16.5 -21.5t-7.5 -34.5q-2 -11 -4.5 -21.5t-9.5 -26.5q-15 0 -27 6t-20.5 14t-13 16.5t-4.5 13.5
z" />
    <glyph glyph-name="wacute" unicode="&#x1e83;" horiz-adv-x="833" 
d="M2 618q13 35 39 35q11 0 23 -8t20 -19l69 -438q3 13 6 27t7 29q11 50 25.5 105.5t37 101t54.5 73.5t78 24h-2q27 0 49 -20t39.5 -53t32 -75t27.5 -85q13 -41 26 -80t28 -69q4 39 11.5 93t19 112.5t26.5 117t35 106.5q36 75 75.5 97.5t85.5 -13.5q-38 -32 -63.5 -85.5
t-43 -117t-28 -130.5t-17.5 -127q-5 -41 -10.5 -79t-13.5 -72t-19.5 -61t-28.5 -45q-30 32 -55 73.5t-45.5 87t-37 92.5t-31.5 90q-11 31 -20 59t-17 48.5t-14 32.5t-10 12q-17 1 -30 -14.5t-23.5 -41.5t-19 -60t-15.5 -68q-7 -36 -16 -74.5t-21.5 -76.5t-29.5 -74.5
t-41 -69.5q-13 0 -27 26t-27.5 68.5t-27 97.5t-25.5 113t-22.5 114.5t-18 102t-11.5 76t-4 36.5zM311 646q-25 -7 -38 -4.5t-20 9.5t-11 17t-12 18l83 111q12 0 21 -0.5t16.5 -4.5t15 -11.5t15.5 -22.5z" />
    <glyph glyph-name="wcircumflex" unicode="&#x175;" horiz-adv-x="833" 
d="M2 618q13 35 39 35q11 0 23 -8t20 -19l69 -438q3 13 6 27t7 29q11 50 25.5 105.5t37 101t54.5 73.5t78 24h-2q27 0 49 -20t39.5 -53t32 -75t27.5 -85q13 -41 26 -80t28 -69q4 39 11.5 93t19 112.5t26.5 117t35 106.5q36 75 75.5 97.5t85.5 -13.5q-38 -32 -63.5 -85.5
t-43 -117t-28 -130.5t-17.5 -127q-5 -41 -10.5 -79t-13.5 -72t-19.5 -61t-28.5 -45q-30 32 -55 73.5t-45.5 87t-37 92.5t-31.5 90q-11 31 -20 59t-17 48.5t-14 32.5t-10 12q-17 1 -30 -14.5t-23.5 -41.5t-19 -60t-15.5 -68q-7 -36 -16 -74.5t-21.5 -76.5t-29.5 -74.5
t-41 -69.5q-13 0 -27 26t-27.5 68.5t-27 97.5t-25.5 113t-22.5 114.5t-18 102t-11.5 76t-4 36.5zM327 805q12 20 25.5 24t36.5 4l87 -117q0 -5 -1.5 -15t-9 -19t-24 -12t-45.5 6l-28 33q-6 -10 -10 -16.5t-10 -16.5q-10 -13 -23 -16.5t-25.5 -0.5t-23.5 12t-17 21z" />
    <glyph glyph-name="wdieresis" unicode="&#x1e85;" horiz-adv-x="833" 
d="M2 618q13 35 39 35q11 0 23 -8t20 -19l69 -438q3 13 6 27t7 29q11 50 25.5 105.5t37 101t54.5 73.5t78 24h-2q27 0 49 -20t39.5 -53t32 -75t27.5 -85q13 -41 26 -80t28 -69q4 39 11.5 93t19 112.5t26.5 117t35 106.5q36 75 75.5 97.5t85.5 -13.5q-38 -32 -63.5 -85.5
t-43 -117t-28 -130.5t-17.5 -127q-5 -41 -10.5 -79t-13.5 -72t-19.5 -61t-28.5 -45q-30 32 -55 73.5t-45.5 87t-37 92.5t-31.5 90q-11 31 -20 59t-17 48.5t-14 32.5t-10 12q-17 1 -30 -14.5t-23.5 -41.5t-19 -60t-15.5 -68q-7 -36 -16 -74.5t-21.5 -76.5t-29.5 -74.5
t-41 -69.5q-13 0 -27 26t-27.5 68.5t-27 97.5t-25.5 113t-22.5 114.5t-18 102t-11.5 76t-4 36.5zM279 703q-9 13 -8 29.5t8.5 30t20 23t26.5 9.5q12 0 22.5 -5.5t20.5 -19.5l-2 2q10 -13 9.5 -29t-8 -30.5t-20.5 -24.5t-27 -10q-12 0 -22 5.5t-20 19.5zM409 706
q-9 12 -8.5 28t8 30.5t20 24.5t26.5 10q24 0 42 -24l-1 1q11 -12 12 -29t-5 -32t-18.5 -25.5t-28.5 -10.5q-24 0 -46 26z" />
    <glyph glyph-name="wgrave" unicode="&#x1e81;" horiz-adv-x="833" 
d="M2 618q13 35 39 35q11 0 23 -8t20 -19l69 -438q3 13 6 27t7 29q11 50 25.5 105.5t37 101t54.5 73.5t78 24h-2q27 0 49 -20t39.5 -53t32 -75t27.5 -85q13 -41 26 -80t28 -69q4 39 11.5 93t19 112.5t26.5 117t35 106.5q36 75 75.5 97.5t85.5 -13.5q-38 -32 -63.5 -85.5
t-43 -117t-28 -130.5t-17.5 -127q-5 -41 -10.5 -79t-13.5 -72t-19.5 -61t-28.5 -45q-30 32 -55 73.5t-45.5 87t-37 92.5t-31.5 90q-11 31 -20 59t-17 48.5t-14 32.5t-10 12q-17 1 -30 -14.5t-23.5 -41.5t-19 -60t-15.5 -68q-7 -36 -16 -74.5t-21.5 -76.5t-29.5 -74.5
t-41 -69.5q-13 0 -27 26t-27.5 68.5t-27 97.5t-25.5 113t-22.5 114.5t-18 102t-11.5 76t-4 36.5zM277 804q8 14 15 22t15 11.5t17 4t21 0.5l83 -111q0 -9 -4.5 -21.5t-14 -22t-23 -13.5t-30.5 5z" />
    <glyph glyph-name="ycircumflex" unicode="&#x177;" horiz-adv-x="506" 
d="M331 -428q-24 0 -53 2t-55.5 7.5t-47 15.5t-28.5 26l8 -8q-3 4 2.5 16.5t14.5 25t19.5 21t18.5 4.5h-1q50 -23 89 -23q36 0 58 20.5t34 52t16 69t4 71.5q0 32 -2 57t-3 36q-2 27 -4 64t-4.5 78.5t-5.5 86t-6 86.5t-6.5 79t-6.5 64q-17 -52 -37 -107t-41.5 -106t-44.5 -95
t-46 -75.5t-46 -48t-45 -11.5q-24 10 -42.5 35t-31 61.5t-18.5 82.5t-6 97q0 88 11.5 188t30.5 192q29 8 54.5 -1t33.5 -47q-23 -73 -32 -147.5t-9 -140.5q0 -45 2.5 -83.5t7 -67t10 -45.5t12.5 -18q6 4 18.5 30.5t28.5 66.5t34.5 89.5t37.5 100.5q26 69 50 133t44 106
q10 22 28.5 26t36.5 2h20q4 -30 9.5 -80t11 -111t11.5 -127.5t11 -127.5t9 -111.5t6 -79.5q1 -23 3 -51q2 -23 3.5 -49.5t1.5 -52.5q0 -44 -6 -87.5t-23.5 -81t-49.5 -66.5t-84 -42zM220 872q12 20 25.5 24t36.5 4l87 -117q0 -5 -1.5 -15t-9 -19t-24 -12t-45.5 6l-28 33
q-6 -10 -10 -16.5t-10 -16.5q-10 -13 -23 -16.5t-25.5 -0.5t-23.5 12t-17 21z" />
    <glyph glyph-name="ygrave" unicode="&#x1ef3;" horiz-adv-x="506" 
d="M331 -428q-24 0 -53 2t-55.5 7.5t-47 15.5t-28.5 26l8 -8q-3 4 2.5 16.5t14.5 25t19.5 21t18.5 4.5h-1q50 -23 89 -23q36 0 58 20.5t34 52t16 69t4 71.5q0 32 -2 57t-3 36q-2 27 -4 64t-4.5 78.5t-5.5 86t-6 86.5t-6.5 79t-6.5 64q-17 -52 -37 -107t-41.5 -106t-44.5 -95
t-46 -75.5t-46 -48t-45 -11.5q-24 10 -42.5 35t-31 61.5t-18.5 82.5t-6 97q0 88 11.5 188t30.5 192q29 8 54.5 -1t33.5 -47q-23 -73 -32 -147.5t-9 -140.5q0 -45 2.5 -83.5t7 -67t10 -45.5t12.5 -18q6 4 18.5 30.5t28.5 66.5t34.5 89.5t37.5 100.5q26 69 50 133t44 106
q10 22 28.5 26t36.5 2h20q4 -30 9.5 -80t11 -111t11.5 -127.5t11 -127.5t9 -111.5t6 -79.5q1 -23 3 -51q2 -23 3.5 -49.5t1.5 -52.5q0 -44 -6 -87.5t-23.5 -81t-49.5 -66.5t-84 -42zM156 821q8 14 15 22t15 11.5t17 4t21 0.5l83 -111q0 -9 -4.5 -21.5t-14 -22t-23 -13.5
t-30.5 5z" />
    <glyph glyph-name="zacute" unicode="&#x17a;" horiz-adv-x="506" 
d="M197 -27q-60 4 -84 37t-24 81q0 31 8 65.5t20 68.5t26.5 65.5t27.5 57.5q-42 -11 -83 -22t-78 -20q-4 37 5.5 59t27 34.5t41 18.5t49.5 11q24 4 50 11t43 17q28 56 55 113q-27 -1 -52 -10.5t-48 -21.5q-29 -14 -62 -26.5t-81 -10.5q-10 19 1.5 37.5t36.5 36t60.5 32.5
t73 26t74.5 17t65 6q28 -10 39 -21t11 -28q0 -12 -6.5 -25.5t-17.5 -32.5q-9 -15 -19.5 -35t-22.5 -49q20 7 40.5 14t38.5 12q18 -13 13.5 -33.5t-24.5 -41.5t-54 -38t-76 -24q-13 -23 -29 -56.5t-30 -70t-23.5 -71.5t-9.5 -61q0 -15 5 -24t17 -8q43 -6 87 14.5t83.5 52
t71 67t49.5 58.5q3 -38 -10 -74t-36.5 -67.5t-55 -58t-65 -45t-67 -28.5t-61.5 -9zM286 696q-25 -7 -38 -4.5t-20 9.5t-11 17t-12 18l83 111q12 0 21 -0.5t16.5 -4.5t15 -11.5t15.5 -22.5z" />
    <glyph glyph-name="zdotaccent" unicode="&#x17c;" horiz-adv-x="489" 
d="M197 -27q-60 4 -84 37t-24 81q0 31 8 65.5t20 68.5t26.5 65.5t27.5 57.5q-42 -11 -83 -22t-78 -20q-4 37 5.5 59t27 34.5t41 18.5t49.5 11q24 4 50 11t43 17q28 56 55 113q-27 -1 -52 -10.5t-48 -21.5q-29 -14 -62 -26.5t-81 -10.5q-10 19 1.5 37.5t36.5 36t60.5 32.5
t73 26t74.5 17t65 6q28 -10 39 -21t11 -28q0 -12 -6.5 -25.5t-17.5 -32.5q-9 -15 -19.5 -35t-22.5 -49q20 7 40.5 14t38.5 12q18 -13 13.5 -33.5t-24.5 -41.5t-54 -38t-76 -24q-13 -23 -29 -56.5t-30 -70t-23.5 -71.5t-9.5 -61q0 -15 5 -24t17 -8q43 -6 87 14.5t83.5 52
t71 67t49.5 58.5q3 -38 -10 -74t-36.5 -67.5t-55 -58t-65 -45t-67 -28.5t-61.5 -9zM257 744q-6 13 -3.5 30t11.5 31.5t22.5 24.5t28.5 10q24 0 42 -24l-1 2q9 -9 7 -27t-11 -35.5t-23 -30.5t-29 -13q-12 0 -24 8t-20 25v-1z" />
    <glyph glyph-name="hungarumlaut" unicode="&#x2dd;" horiz-adv-x="332" 
d="M98 648q-23 -5 -36.5 -2t-22 10t-13 15.5t-8.5 14.5l75 107q19 7 38.5 3t38.5 -36zM243 637q-15 -6 -29 -4.5t-25 7t-19 13t-12 13.5l79 123h22.5t20.5 -3t19 -10.5t17 -22.5z" />
    <glyph glyph-name="dotlessi" unicode="&#x131;" horiz-adv-x="184" 
d="M100 635q22 -74 35 -159t20 -168t9.5 -156.5t4.5 -123.5q0 -35 -22.5 -41t-57.5 0q-4 45 -8 98t-7 99q-7 100 -16 205.5t-26 212.5z" />
    <glyph glyph-name="quotesinglbase" unicode="&#x201a;" horiz-adv-x="210" 
d="M48 -8q2 8 4 18t6 22q5 18 10 39.5t5 44.5q0 20 -5 42.5t-19 50.5q0 28 19 39.5t41 11.5q31 -23 44.5 -61.5t13.5 -81.5q0 -42 -9.5 -82.5t-26.5 -70.5l1 3q-3 -10 -16.5 -14t-28 -2t-26.5 11t-13 26v4z" />
    <glyph glyph-name="quotedblbase" unicode="&#x201e;" horiz-adv-x="336" 
d="M35 -52q2 8 4 18t6 22q5 18 10 39.5t5 44.5q0 20 -5 42.5t-19 50.5q0 28 19 39.5t41 11.5q31 -24 44 -62t13.5 -80t-9.5 -83t-26 -71l1 3q-3 -10 -16.5 -14t-28 -2t-26.5 11t-13 26v4zM197 -51q2 8 4 18t6 22q5 18 10 39.5t5 44.5q0 20 -5 42.5t-19 50.5q0 28 19 39.5
t41 11.5q31 -24 44 -62t13.5 -80t-9.5 -83t-26 -71l1 3q-3 -10 -16.5 -14t-28 -2t-26.5 11t-13 26v4z" />
    <glyph glyph-name="Euro" unicode="&#x20ac;" horiz-adv-x="638" 
d="M193 192q0 -24 3 -50t11.5 -46t24.5 -31.5t41 -8.5q58 0 107.5 27.5t87.5 69.5t64 93t38 98h55q0 -44 -16 -88.5t-43 -85.5t-62.5 -76.5t-76 -62t-83 -42t-82.5 -15.5q-47 0 -77.5 19.5t-48 50.5t-24.5 69t-8 75q-14 -1 -29 -1t-28 -1q-17 6 -25 19t-8.5 28t4 28t12.5 19
l77 5q1 8 1.5 15.5t2.5 21.5q-21 -1 -39.5 -2t-38.5 -2q-17 6 -25 19t-8.5 28t4 28t12.5 19l112 7q12 53 31.5 104.5t48 92t66 65t85.5 24.5q44 0 67 -23t32.5 -56.5t10.5 -73t1 -72.5q-28 0 -44 7.5t-24.5 19.5t-11.5 27.5t-5 32.5q-1 12 -3 23.5t-6.5 20.5t-13 15t-21.5 6
q-22 0 -40.5 -18t-33.5 -47.5t-26.5 -66.5t-20.5 -76q41 2 80 5t80 5q26 0 37.5 -11.5t11.5 -27.5q0 -9 -5 -19.5t-13.5 -19.5t-19 -15t-21.5 -7l-168 -8q-2 -11 -3 -19.5t-2 -17.5q48 3 98.5 7t98.5 6q4 0 11 -3.5t14.5 -10t13 -15t5.5 -18.5q0 -13 -10 -27.5t-39 -25.5z
" />
    <glyph glyph-name="ellipsis" unicode="&#x2026;" horiz-adv-x="360" 
d="M107 84q8 -6 12 -18.5t4 -25.5q0 -21 -10.5 -39t-39.5 -18q-8 0 -20 3t-27 11q-12 25 -7 46.5t18.5 35t32.5 16t37 -10.5zM217 84q8 -6 12 -18.5t4 -25.5q0 -21 -10.5 -39t-39.5 -18q-8 0 -20 3t-27 11q-12 25 -7 46.5t18.5 35t32.5 16t37 -10.5zM327 84q8 -6 12 -18.5
t4 -25.5q0 -21 -10.5 -39t-39.5 -18q-8 0 -20 3t-27 11q-12 25 -7 46.5t18.5 35t32.5 16t37 -10.5z" />
    <glyph glyph-name="quoteleft" unicode="&#x2018;" horiz-adv-x="210" 
d="M166 428q-1 -17 -13 -26t-26.5 -11t-28 2t-16.5 14l1 -3q-17 30 -26.5 70.5t-9.5 82.5q0 43 13.5 81.5t44.5 61.5q22 0 41 -11.5t19 -39.5q-14 -28 -19 -50.5t-5 -42.5q0 -23 4.5 -44.5t10.5 -39.5q4 -12 6 -22t4 -18v-4z" />
    <glyph glyph-name="quoteright" unicode="&#x2019;" horiz-adv-x="210" 
d="M64 434q2 8 4 18t6 22q5 18 10 39.5t5 44.5q0 20 -5 42.5t-19 50.5q0 28 19 39.5t41 11.5q31 -23 44.5 -61.5t13.5 -81.5q0 -42 -9.5 -82.5t-26.5 -70.5l1 3q-3 -10 -16.5 -14t-28 -2t-26.5 11t-13 26v4z" />
    </font>
</defs>
</svg>
