<?xml version="1.0" standalone="no"?>
<!DOCTYPE svg PUBLIC "-//W3C//DTD SVG 1.1//EN" "http://www.w3.org/Graphics/SVG/1.1/DTD/svg11.dtd" >
<svg>
<metadata>
Created by FontForge 20120731 at Sat Jul  1 15:16:48 2017
 By U-Meowington\zoltan,S-1-5-21-1340762506-974568153-834349593-1001
Copyright (c) 2012 by Kimberly Geswein. All rights reserved.
</metadata>
<defs>
<font id="ThrowMyHandsUpintheAir" horiz-adv-x="393" >
  <font-face 
    font-family="Throw My Hands Up in the Air"
    font-weight="400"
    font-stretch="normal"
    units-per-em="1024"
    panose-1="2 0 5 6 0 0 0 2 0 4"
    ascent="819"
    descent="-205"
    x-height="621"
    cap-height="690"
    bbox="-161.5 -421.632 1153 964"
    underline-thickness="50"
    underline-position="-50"
    unicode-range="U+0020-FB02"
  />
<missing-glyph horiz-adv-x="500" 
 />
    <glyph glyph-name=".notdef" horiz-adv-x="500" 
 />
    <glyph glyph-name=".null" horiz-adv-x="0" 
 />
    <glyph glyph-name="nonmarkingreturn" horiz-adv-x="500" 
 />
    <glyph glyph-name="space" unicode=" " horiz-adv-x="316" 
 />
    <glyph glyph-name="space" unicode="&#xa0;" horiz-adv-x="316" 
 />
    <glyph glyph-name="asciitilde" unicode="~" horiz-adv-x="1164" 
d="M652 310q-73 0 -145.5 -8t-146 -17.5t-149 -18.5t-154.5 -10q0 5 0.5 13t2.5 16.5t6 15t12 9.5q143 6 289 18t285 47v117l-500 -53q-6 0 -21 0.5t-32 0.5t-32.5 0.5t-21.5 0.5q-10 0 -12.5 6t-1 14.5t5.5 16.5t8 12l589 61q0 25 -4.5 48.5t-10 43t-10 34.5t-4.5 24
q0 15 12 19.5t27 1t27.5 -14.5t13.5 -28l468 -6q-3 -33 -27 -85.5t-61.5 -114.5t-84 -128.5t-96 -126.5t-97.5 -109t-88 -76zM685 621q1 -19 4 -57.5t8 -86.5t10.5 -101t11 -101.5t9.5 -87t6 -58.5q19 8 51.5 44.5t70 87.5t76 109.5t70.5 110.5t53 90.5t23 49.5h-393z" />
    <glyph glyph-name="exclam" unicode="!" horiz-adv-x="116" 
d="M90 148q-3 -8 -8 -12t-12 -5t-14.5 -0.5t-14.5 1.5l5 594q0 6 6 10t13.5 4.5t14 -3.5t8.5 -13zM84 10q-12 -5 -24.5 -2t-20 11t-7 19t16.5 23q9 8 21 4.5t20 -12.5t8.5 -21.5t-14.5 -21.5z" />
    <glyph glyph-name="quotedbl" unicode="&#x22;" horiz-adv-x="279" 
d="M164 434q4 22 11.5 46.5t11 52.5t-0.5 60.5t-22 70.5q0 14 10.5 20t22.5 6q24 -18 34.5 -51t10.5 -71.5t-9 -77t-25 -66.5q-2 -5 -9 -7.5t-14.5 -1.5t-14 5.5t-6.5 13.5zM69 431q4 21 11.5 44.5t11.5 51t0 59.5t-22 70q0 14 10.5 20t22.5 6q24 -18 34.5 -51t10.5 -71.5
t-9 -77t-25 -66.5q-2 -5 -9 -7t-15 0t-14.5 7.5t-6.5 14.5z" />
    <glyph glyph-name="numbersign" unicode="#" horiz-adv-x="616" 
d="M210 150q-48 -18 -85 -25.5t-61 -6.5t-33 8.5t-1 19.5l178 57l-14 189q-8 -5 -28.5 -14.5t-44 -20t-44.5 -19.5t-30 -12q-23 0 -29.5 14t-3.5 35q48 16 93.5 33t86.5 49v148q0 6 5.5 10t12.5 7t14.5 4t11.5 0l6 -156q4 0 17.5 3.5t29.5 8.5t29.5 9.5t16.5 6.5
q8 38 5.5 70.5t-3.5 56t7 36t38 10.5q0 -23 0.5 -39.5t0.5 -33.5t0.5 -36.5t0.5 -47.5l183 57q9 -7 16 -17t5 -22l-196 -75l14 -187q45 6 89 20t89 18q0 -24 -11 -35.5t-33 -19t-53.5 -15.5t-72.5 -26l8 -202q-14 -8 -22.5 -2t-13.5 21.5t-7.5 37.5t-4.5 46t-4.5 47t-7.5 40
l-112 -42q1 2 2 -14t0.5 -40t-2.5 -51t-7 -46.5t-13.5 -27.5t-21.5 7v164zM244 408l10 -188l98 32l-6 192z" />
    <glyph glyph-name="dollar" unicode="$" horiz-adv-x="462" 
d="M239 30q-24 -3 -46.5 0.5t-40.5 16.5t-30 36.5t-15 61.5q-2 14 1 25.5t8.5 18.5t11.5 8t9 -6q3 -19 5 -42t12 -40.5t30 -25.5t59 2l-4 207q-35 3 -74 5t-72.5 9.5t-57 23t-26.5 44.5q-5 21 4 44.5t28 46t44 42.5t51.5 34.5t51.5 22t43 5.5q-1 23 -3 45q-2 19 -3 38.5
t-3 33.5q14 18 26 21t20 -2t12 -14t3 -16q4 -22 2.5 -52t1.5 -52q20 -10 43 -18.5t41.5 -23.5t30.5 -39.5t11 -66.5q0 -10 -2 -13t-7 -4.5t-13 -2.5t-20 -6q7 42 -16.5 75.5t-61.5 56.5l11 -187q53 -2 82.5 -13t43.5 -25t17 -28.5t2 -22.5q0 -35 -16.5 -65t-40.5 -55.5
t-51.5 -48t-49.5 -41.5l4 -112q-2 -19 -10.5 -27.5t-18 -9t-18 5.5t-9.5 15v115zM304 112q15 3 35.5 20t37.5 39.5t26.5 47.5t4.5 46q-1 13 -14 19.5t-30 9.5t-34.5 3t-27.5 -1zM53 385q0 -22 25 -32.5t57.5 -14t62.5 -2.5t41 1l-12 189q-29 -2 -59.5 -15.5t-56 -33.5
t-42 -44.5t-16.5 -47.5z" />
    <glyph glyph-name="percent" unicode="%" horiz-adv-x="592" 
d="M372 686q-53 0 -80.5 -25.5t-41 -64t-19.5 -83t-17 -83t-32.5 -64t-66.5 -25.5q-24 5 -38 28.5t-20 51.5t-5 54t6 37q-2 0 -8 -4t-9 -3q-2 3 -5 8l-6 10t-4.5 9.5t-0.5 5.5q2 6 25.5 23.5t59 39.5t77.5 46t80.5 43.5t68.5 32.5t41 13q20 0 31.5 -6.5t11.5 -27.5
q0 -2 -1 -8.5t-1 -7.5q-11 -61 -21 -112t-19.5 -99.5t-19 -97.5t-18.5 -105.5t-18 -124.5t-18 -154q-15 0 -28.5 -2t-23.5 14zM351 111q0 33 10 67.5t28.5 63t46.5 46.5t64 18q41 -6 60 -32t21.5 -61t-9 -74t-31.5 -72t-46 -54.5t-52 -20.5q-28 0 -46 10.5t-28 27t-14 38
t-4 43.5zM435 190q1 -21 -7 -45t-12.5 -45t1 -37t34.5 -20q24 10 47 39t34 64t6 70.5t-36 57.5q-22 -1 -41 -11t-33 -26.5t-21 -37.5t-5 -42zM173 571q-31 -5 -47.5 -31t-22 -56.5t-1.5 -57.5t15 -34q13 -8 26 0t23.5 25.5t17.5 40.5t8.5 45.5t-3 41t-16.5 26.5z" />
    <glyph glyph-name="ampersand" unicode="&#x26;" horiz-adv-x="594" 
d="M328 106q-17 54 -20 110.5t-11 111.5q-12 -4 -39 -12t-60 -12.5t-67 -3.5t-61 15q-12 7 -20.5 12.5t-12 12.5t-2.5 15.5t8 21.5q7 21 27 49t47.5 57t60 57t65 49t62 32.5t52.5 7.5l-8 -238q51 17 84.5 35t57.5 30t42 14t38 -13q-81 -47 -125.5 -73t-65.5 -38.5
t-25.5 -15.5t-4.5 -4q-11 -21 -10.5 -44t6.5 -47t14.5 -49t14.5 -49.5t6 -47.5t-11 -44q-19 -6 -29.5 -2t-18 14t-14 24t-17.5 26zM292 383q5 7 9 30.5t6.5 50.5t3.5 50t0 31q-11 10 -30 6.5t-41 -16.5t-45.5 -33t-44.5 -44t-37 -49.5t-23 -49.5q13 -7 43.5 -10.5t62.5 -1
t59.5 11t36.5 24.5z" />
    <glyph glyph-name="quotesingle" unicode="'" horiz-adv-x="180" 
d="M69 431q4 21 11.5 44.5t11.5 51t0 59.5t-22 70q0 14 10.5 20t22.5 6q24 -18 34.5 -51t10.5 -71.5t-9 -77t-25 -66.5q-2 -5 -9 -7t-15 0t-14.5 7.5t-6.5 14.5z" />
    <glyph glyph-name="parenleft" unicode="(" horiz-adv-x="279" 
d="M179 -48q-41 -2 -71 15t-49.5 48t-29 74.5t-9.5 94.5q0 31 5.5 87t17 121.5t29.5 133.5t44 123.5t59.5 90.5t76.5 35q12 4 15 -5t0.5 -21.5t-9 -23.5t-12.5 -11q-24 -6 -46.5 -35t-42.5 -73t-36 -97.5t-28 -108.5t-18.5 -107.5t-6.5 -92.5q1 -53 9 -91t26 -62t46 -35.5
t69 -11.5q4 -5 5 -12.5t-3 -15.5t-14 -14t-27 -6z" />
    <glyph glyph-name="parenright" unicode=")" horiz-adv-x="258" 
d="M87 -50q-17 0 -27 6t-14 14t-3.5 15.5t5.5 12.5q40 0 68.5 11.5t46.5 35.5t26 62t9 91q0 40 -6.5 92.5t-18.5 107.5t-28 108.5t-36 97.5t-42.5 73t-46.5 35q-6 0 -12.5 11t-9 23.5t0.5 21.5t15 5q43 0 76.5 -35t59.5 -90.5t44 -123.5t29.5 -133.5t17 -121.5t5.5 -87
q0 -51 -9.5 -94.5t-29 -74.5t-50 -48t-70.5 -15z" />
    <glyph glyph-name="asterisk" unicode="*" horiz-adv-x="556" 
d="M165 266q-16 -4 -24 6t-10 27q0 9 12 28t27 38.5t28.5 35.5t16.5 21h-132q-6 0 -12 6t-11 14t-8 16t-3 12h101q-35 29 -57.5 60t-22.5 68q26 0 43 -11.5t32 -26.5t31.5 -29.5t41.5 -20.5v148h49l4 -115q10 5 22.5 19t26.5 28.5t28.5 26t28.5 11.5q7 -15 10 -21.5
t-1.5 -15.5t-19 -26.5t-42.5 -54.5q7 2 29.5 7t48 10t47.5 10t29 7q8 0 17.5 -1t17 -5t12 -10.5t2.5 -16.5q-47 -11 -102 -27.5t-101 -43.5q21 -11 40.5 -19t35 -17.5t24.5 -23.5t9 -38q-22 0 -39.5 8t-34 17t-33.5 17t-38 8v-159q0 -9 -8 -12t-17.5 -2.5t-19 4.5t-12.5 10
l9 127z" />
    <glyph glyph-name="plus" unicode="+" horiz-adv-x="548" 
d="M228 282l-158 -34q-6 -1 -11 6.5t-6.5 17.5t1 19t10.5 12l162 33l-4 236l56 5l-3 -235l248 62q2 -27 -7.5 -42.5t-26.5 -24t-41 -13t-51.5 -9t-57.5 -11t-60 -19.5v-32.5v-46t-1 -46.5t-2 -34q-11 -17 -24.5 -17t-24.5 17z" />
    <glyph glyph-name="comma" unicode="," horiz-adv-x="154" 
d="M95 -54q1 1 -3.5 -0.5t-10 -3.5t-10.5 -4t-5 -1q-11 -6 -15.5 14t-2 50.5t10 64.5t19 56.5t27 26.5t33.5 -26z" />
    <glyph glyph-name="hyphen" unicode="-" horiz-adv-x="422" 
d="M388 277q-18 0 -53 -4.5t-77 -8.5t-85 -5.5t-75.5 3t-49.5 17t-7 37.5l347 14v-53v0z" />
    <glyph glyph-name="slash" unicode="/" horiz-adv-x="402" 
d="M30 -54q-17 0 -22.5 6.5t-10.5 26.5l359 755q10 5 17 3.5t11 -7t5.5 -14t-0.5 -15.5z" />
    <glyph glyph-name="zero" unicode="0" horiz-adv-x="484" 
d="M167 -2q-51 7 -81.5 42.5t-43 88t-9 118t20 132.5t45 130.5t66 113.5t81.5 81t93 33q49 0 75.5 -19.5t39 -48t14.5 -61.5t2 -59q0 -32 -7.5 -85.5t-23.5 -114.5t-41 -123.5t-58.5 -113t-76.5 -82.5t-96 -32zM123 465q-4 -17 -12 -54t-14.5 -82.5t-8.5 -94t4 -89
t23.5 -67.5t51.5 -29q38 -2 71.5 23t62 67.5t50.5 97.5t36.5 114t21 116t3.5 104t-16 78t-37 38q-41 0 -70 -15.5t-49 -41t-32.5 -58.5t-21 -66.5t-14 -66t-11.5 -57.5q-12 4 -19 16t-11 25.5t-6 25.5t-2 16z" />
    <glyph glyph-name="one" unicode="1" horiz-adv-x="120" 
d="M76 734l-2 -723q-3 -16 -7 -19.5t-9 -1.5t-11.5 7t-14.5 7q0 78 -0.5 173.5t0 194.5t2 193.5t4.5 170.5z" />
    <glyph glyph-name="two" unicode="2" horiz-adv-x="486" 
d="M71 13q16 26 43.5 79t57.5 119t58.5 138t47.5 135t23.5 110t-13.5 64q-34 23 -64 12.5t-56 -39.5t-49 -69t-43 -76t-36.5 -60t-30.5 -21q-1 26 8 61t25.5 72t40 73t52 63.5t61.5 44.5t69 16q20 0 38 -11.5t31 -29.5t20.5 -39.5t7.5 -40.5q-2 -63 -25 -135.5t-54.5 -146.5
t-65.5 -145.5t-57 -132.5q17 8 44 18t56 21t58 23t51 22.5t33.5 19t6.5 14.5h-49q6 26 25.5 32.5t40.5 0.5t37 -21.5t14 -34.5q-6 -18 -38.5 -36t-84 -39t-117.5 -44.5t-140 -51.5q-14 0 -20 11t-6 24z" />
    <glyph glyph-name="three" unicode="3" horiz-adv-x="438" 
d="M60 43q36 -5 74 6.5t74 33.5t67.5 51.5t54.5 60.5t35 59.5t9 49.5q0 21 -8 41t-22.5 35t-33.5 24.5t-40 9.5q-23 1 -42 -9t-38.5 -27.5t-39.5 -41.5t-44 -52q-14 0 -24.5 9t-8.5 23q46 57 91 102.5t77.5 87t48.5 80.5t4 83q-20 18 -44 15t-49 -18.5t-51 -39.5t-50 -48
t-44.5 -43.5t-34.5 -26.5q0 43 22 84t56.5 72.5t76.5 50.5t82 19q47 0 71.5 -19t24.5 -66q0 -28 -4.5 -51.5t-13 -45t-21 -43t-29.5 -45.5q73 -20 106 -68t30 -104q0 -34 -15.5 -69.5t-40.5 -69.5t-57.5 -64t-68.5 -52t-72.5 -34.5t-69.5 -10.5q-12 0 -23.5 6.5t-18 15
t-6.5 17t10 12.5z" />
    <glyph glyph-name="four" unicode="4" horiz-adv-x="488" 
d="M330 340q-51 -9 -95.5 -21t-84 -22.5t-73.5 -16.5t-63 -4q-3 0 6 26t23.5 66t32.5 86.5t33.5 87.5t26 70t10.5 34q12 -11 20.5 -17t11.5 -15t-0.5 -25t-14.5 -46.5t-30.5 -79.5t-48.5 -123q6 2 19.5 5t32 7t40 8t43.5 9q50 10 111 22l5 310q1 12 8 21.5t15.5 15t18 6
t15.5 -5.5l-8 -332q5 0 17 1t25 2.5t24.5 2.5t15.5 0q8 -2 12.5 -8.5t5.5 -14.5t-2 -15t-10 -10q-3 -1 -15 -3t-26 -4.5t-26 -4.5t-15 -4q-4 -16 -3.5 -52t0.5 -79.5t-1 -88t-7.5 -77.5t-20 -48t-36.5 1z" />
    <glyph glyph-name="five" unicode="5" horiz-adv-x="448" 
d="M90 40q1 3 3.5 8.5t6.5 11t9.5 9t12.5 3.5q37 -21 80 -20.5t80.5 16t65 43.5t32.5 63q12 81 -9.5 139.5t-66.5 84.5t-109.5 15t-139.5 -69q-27 0 -31 10.5t-4 27.5q0 14 2 43.5t6.5 67t11.5 78.5t17.5 77.5t25 64.5t33.5 39q12 -3 15 -11.5t2 -18t-4 -18.5t-3 -15
q57 4 119.5 13t121 17.5t108.5 15.5t81 9q8 -24 -9.5 -37t-51.5 -20.5t-80.5 -12t-97 -9.5t-101 -13t-92.5 -24q-13 -8 -21.5 -27.5t-13 -46.5t-5 -60t3.5 -68q56 34 104.5 42t89 -3.5t71.5 -40t50.5 -68t27.5 -87t3 -97.5q-4 -34 -22 -63t-46 -50.5t-62.5 -35t-71.5 -17
t-74 4.5t-68 29z" />
    <glyph glyph-name="six" unicode="6" horiz-adv-x="442" 
d="M21 226q-2 23 1 71t11 106.5t21 120t31.5 110.5t42 78.5t52.5 23.5q-3 -24 -17 -60.5t-31 -83t-32.5 -102.5t-22 -119t0.5 -132.5t36 -142.5q7 24 25.5 62t44.5 78t57 76.5t63.5 59t64 25.5t59.5 -25q12 -42 1.5 -87t-34.5 -87.5t-58 -80.5t-70 -66t-70 -44.5t-59 -16.5
q-29 4 -51 32t-37 65t-22.5 75.5t-6.5 63.5zM382 342q-15 8 -35.5 -5t-43.5 -38.5t-47 -59.5t-45.5 -68.5t-38 -66.5t-24.5 -52q3 -11 24 2t49.5 40t60.5 63t57 72t38 66.5t5 46.5z" />
    <glyph glyph-name="seven" unicode="7" horiz-adv-x="466" 
d="M260 26q0 19 2 53t5 74.5t7 84.5t7.5 83.5t5.5 70.5t3 46q-28 0 -53 -7.5t-49 -17t-49.5 -18t-53.5 -10.5q-6 27 5.5 42.5t33.5 24.5t49.5 13.5t53.5 10t46 15t27 28.5l14 170q-44 1 -84.5 -10.5t-76 -28t-66.5 -33.5t-56 -26q-12 -6 -16 5t-7 22q0 16 17 30.5t44 27.5
t59.5 23.5t63 18.5t56 12t37.5 4h20.5t26.5 -3t22.5 -10t9.5 -21v-180l86 16q4 -19 -2.5 -29t-20.5 -17.5t-33 -15t-38 -20.5l-50 -438q-4 -5 -11.5 -9.5t-15 -4.5t-13.5 5t-6 19z" />
    <glyph glyph-name="eight" unicode="8" horiz-adv-x="486" 
d="M201 4q-39 10 -62 34.5t-33 57t-9.5 70t8.5 73t21 66t27 48.5q-8 0 -24.5 9t-33.5 21t-30 24t-14 19q-9 -12 -10.5 -23.5t-3.5 -20t-7.5 -12.5t-22.5 0q0 38 11 81.5t30.5 86.5t47 82t60.5 66.5t71 40t79 3.5q32 -12 46.5 -36.5t16.5 -54.5t-5 -63t-18.5 -62t-24.5 -51.5
t-23 -32.5q37 -1 69.5 -12t56.5 -32.5t37.5 -54.5t14.5 -79q0 -59 -23.5 -109.5t-62 -85t-88 -50t-101.5 -3.5zM333 377q-44 8 -79.5 -7t-60.5 -45t-38 -69t-13 -78t14.5 -73t44.5 -53q40 -9 80 6t71.5 46t51.5 74t20 90q-2 19 -8 37.5t-17 33.5t-27.5 25.5t-38.5 12.5z
M92 494q0 -9 3 -21t9 -23.5t15.5 -20t23.5 -11.5q22 -7 47 3.5t48.5 32t42.5 51.5t30 61.5t10.5 62.5t-15.5 55q-14 12 -35 9.5t-44 -15.5t-46.5 -34.5t-42.5 -47t-31.5 -52t-14.5 -50.5z" />
    <glyph glyph-name="nine" unicode="9" horiz-adv-x="428" 
d="M337 522q-22 -30 -52 -66t-66 -66t-76 -47t-82 -8q-17 0 -32.5 16t-15.5 34q0 29 15 66.5t40 76.5t57.5 77t67.5 68t69 48t63 18q17 0 34 -2.5t30 -9.5t21 -19.5t8 -32.5q-13 -84 -23.5 -163.5t-15.5 -158t-3 -159.5t14 -169q-5 -10 -13 -18.5t-17 -12t-19 -1t-17 14.5z
M351 672q-23 19 -56 9t-68.5 -37t-69 -65.5t-58 -76.5t-35 -70t0.5 -46q24 -12 53.5 -3t61 32.5t61.5 56.5t54 69t39 70.5t17 60.5z" />
    <glyph glyph-name="colon" unicode=":" horiz-adv-x="134" 
d="M94 204q5 -4 7.5 -18.5t-2 -27t-18.5 -18t-41 7.5q-8 16 -4.5 30.5t12.5 23t21.5 10t24.5 -7.5zM96 398q5 -4 7.5 -18.5t-2 -27t-18.5 -18t-41 7.5q-8 16 -4.5 30.5t12.5 23t21.5 10t24.5 -7.5z" />
    <glyph glyph-name="less" unicode="&#x3c;" horiz-adv-x="426" 
d="M40 343q38 34 79 72t78.5 71t69 57t50.5 32q20 8 29 2t4 -31l-228 -220q27 -41 56.5 -68.5t62.5 -47.5t70 -37.5t80 -39.5q5 -11 1 -24t-26 -17q-20 0 -51 13.5t-66 35t-70.5 49t-65 55.5t-49.5 53.5t-24 44.5z" />
    <glyph glyph-name="equal" unicode="=" horiz-adv-x="525" 
d="M78 312q-21 8 -22.5 21.5t6.5 20.5l358 22q3 0 11 -4t11.5 -10.5t-2.5 -15t-30 -18.5zM92 180q-11 4 -15 10.5t-4.5 13t2.5 13t7 9.5l358 22q3 0 10 -4.5t9.5 -12t-4.5 -16.5t-31 -19z" />
    <glyph glyph-name="greater" unicode="&#x3e;" horiz-adv-x="410" 
d="M397 343q-4 -19 -24 -44.5t-49.5 -53.5t-65 -55.5t-70.5 -49t-66 -35t-51 -13.5q-22 4 -26 17t1 24q43 22 80 39.5t70 37.5t62.5 47.5t56.5 68.5l-228 220q-5 25 4 31t29 -2q19 -8 50.5 -32t69 -57t78.5 -71t79 -72z" />
    <glyph glyph-name="at" unicode="@" horiz-adv-x="794" 
d="M60 91q0 67 16 139.5t46.5 143t75 134t100.5 111.5t123 76.5t143 28.5q64 0 103.5 -25t59.5 -65t22 -90.5t-9.5 -101.5t-34.5 -98.5t-53 -80.5q-18 -18 -44 -31.5t-50.5 -15t-44 12.5t-25.5 51q-17 -14 -38.5 -29.5t-45.5 -26t-49 -11t-47 17.5q-10 36 4 79.5t42.5 83
t66 67.5t75.5 32q13 0 27 -1.5t26 -6t19.5 -14t7.5 -25.5q-14 -24 -25 -53.5t-13.5 -55.5t7.5 -44t37 -19q30 14 56.5 50.5t43 83t21 96.5t-8 91.5t-44.5 68.5t-88 27q-69 0 -129 -28.5t-110 -76t-89.5 -109t-66.5 -128t-41.5 -133.5t-14.5 -125q4 -59 28.5 -96t63 -56.5
t86.5 -24.5t97.5 -0.5t96.5 14.5t83 22l4 -45q-46 -16 -101 -27t-111 -12.5t-109 8.5t-94.5 36t-67.5 70t-27 111zM521 444q-25 6 -54 -10.5t-53.5 -42.5t-41 -56.5t-17.5 -54.5q12 -19 28 -18t32.5 14.5t33.5 35.5t31.5 46.5t25 47.5t15.5 38z" />
    <glyph glyph-name="A" unicode="A" horiz-adv-x="570" 
d="M9 -61q0 14 11.5 40.5t26.5 55.5t28 54.5t16 37.5q2 10 11 41t20.5 73t25 89t25 89t20 73.5t11.5 41.5q5 19 11 50.5t16 61.5t25.5 51.5t39.5 21.5q8 0 15 -6t12.5 -14t9 -16.5t4.5 -14.5q21 -83 36 -141t25.5 -96t17.5 -59.5t11 -32t5.5 -13t2.5 -2.5q18 10 34.5 16
t36.5 4q0 -16 -9 -26.5t-19.5 -19.5t-19 -19.5t-8.5 -26.5q0 -36 15 -68.5t33 -64.5t33 -63.5t15 -65.5q-25 -13 -41.5 -3t-29 33.5t-21.5 56.5t-20.5 65.5t-26 60t-36.5 41.5q-3 0 -20.5 -5.5t-42 -15t-52.5 -22t-52.5 -25.5t-42 -25.5t-21.5 -23.5l-65 -197
q-5 -14 -14 -16t-19 -2q-13 0 -23 6t-10 21zM173 225q10 3 35.5 8.5t57 15t63.5 24t54 35.5q-3 13 -10.5 41.5t-17 64t-20.5 74.5t-21.5 73t-20 60t-15.5 35z" />
    <glyph glyph-name="B" unicode="B" horiz-adv-x="656" 
d="M152 72q-8 118 -14 230.5t-19 228.5q-11 -7 -15 -16t-8 -16.5t-10.5 -12.5t-21.5 -5q-7 0 -15 0.5t-14.5 3t-11 8t-4.5 14.5q0 1 1 3.5t1 4.5q33 28 50 48t31 35t31.5 26t51.5 22q23 10 52.5 21.5t61 20t63 12.5t58 -1.5t47.5 -22t31 -48.5q-3 -29 -21.5 -65.5t-44 -73
t-54 -69t-49.5 -53.5q18 -1 46.5 -0.5t59.5 -1t62.5 -7t57 -18t41 -33.5t15.5 -54q0 -56 -29 -106.5t-74.5 -88.5t-100.5 -61t-107 -23q-24 0 -47.5 6t-43.5 18t-35 30.5t-22 43.5zM201 72q24 -33 60 -43.5t76.5 -4t81 27.5t73 50.5t53 65t20.5 70.5q0 33 -15.5 52.5
t-39 29.5t-51.5 13t-53 3q-9 0 -27.5 -1t-41.5 -4t-47 -9t-44 -15t-32.5 -22.5t-12.5 -31.5v-181zM431 646q-11 13 -33 15t-49 -3t-56 -15t-55 -22t-45 -23.5t-26 -19.5l18 -227q0 -4 6 -10t10 -6q20 0 46 17t53.5 44t54 60t47 66t33 61.5t12.5 46.5q0 2 -6 8t-10 8z" />
    <glyph glyph-name="C" unicode="C" horiz-adv-x="525" 
d="M31 211q0 34 4.5 83t15.5 102t28.5 105.5t43.5 94t61.5 67.5t81.5 26q36 0 54.5 -19t27 -46.5t9 -60t0.5 -59.5q-20 0 -28.5 11.5t-12 28t-5 36.5t-7 36.5t-18 28t-38.5 11.5q-31 0 -55.5 -25.5t-43 -66t-31.5 -89.5t-21.5 -96.5t-12 -87.5t-3.5 -61q-2 -27 0 -61.5
t12.5 -64.5t31.5 -49t57 -15q62 0 113.5 27.5t91 69.5t66.5 93t39 98h20q0 -59 -32.5 -117.5t-82.5 -106t-110.5 -77t-117.5 -29.5q-44 0 -71 20t-42 51.5t-20 69t-5 72.5z" />
    <glyph glyph-name="D" unicode="D" horiz-adv-x="578" 
d="M90 614q-10 -7 -24.5 -14t-26 -8.5t-15 5t8.5 26.5q32 31 76.5 44t89.5 15.5t85 -1t64 -5.5q48 -12 86 -34t65.5 -52t43.5 -66t19 -76q0 -48 -18 -100t-49 -102t-73 -95t-89.5 -79t-99 -54t-100.5 -20q0 71 -5 146t-11 150.5t-11.5 150.5t-6.5 145zM146 638
q3 -121 6.5 -210t6.5 -152.5t5.5 -104.5t5 -68t4 -42.5t2.5 -26.5q37 2 77.5 24.5t79.5 57.5t74 79.5t61.5 90t41.5 88.5t15 77q0 41 -18.5 74.5t-49 58.5t-70 41t-82 23t-84 4.5t-75.5 -14.5z" />
    <glyph glyph-name="E" unicode="E" horiz-adv-x="590" 
d="M31 121q-1 33 14 66t34.5 61.5t36.5 51t20 34.5q-2 1 -19.5 2.5t-37 9t-34.5 22.5t-12 42q6 43 25.5 92.5t51 91t72.5 69t90 27.5q21 -1 38.5 -15t25.5 -30t5 -29.5t-23 -14.5q-8 26 -34 39.5t-56 7.5q-22 -5 -47 -26.5t-47 -51.5t-38 -63.5t-19 -62t10 -48t49 -20.5
q27 0 52.5 13t49.5 28.5t46.5 29t43.5 14.5q4 0 9.5 -0.5t10.5 -2t9 -5t4 -10.5q0 -16 -20.5 -33t-51.5 -36.5t-67.5 -43t-67.5 -52t-51.5 -63t-20.5 -76.5q0 -27 9 -45t25 -28t37 -14t44 -4q55 0 105 19t95.5 49.5t85.5 68.5t75 77h19q0 -28 -20.5 -59t-53 -60t-73.5 -55.5
t-81.5 -46.5t-76.5 -31.5t-60 -11.5q-29 0 -60.5 5.5t-58.5 20t-44.5 38t-17.5 59.5z" />
    <glyph glyph-name="F" unicode="F" horiz-adv-x="508" 
d="M43 197q0 15 5.5 25.5t14 19t17.5 15.5t16 15l3 254q-15 -10 -27.5 -23t-21.5 -19t-14.5 -0.5t-5.5 32.5q0 5 6.5 19t16 31.5t22 37t25 35t23 25t17.5 8.5v-49q79 39 166 53.5t176 5.5q12 -3 15.5 -13.5t-2.5 -20.5q-13 0 -44 -1.5t-69.5 -6t-79.5 -12t-75.5 -19.5
t-56.5 -29t-22 -39v-262q62 15 128 42t146 63q-1 -5 2 -9.5t0.5 -12t-14.5 -18.5t-42 -28t-82.5 -41.5t-135.5 -58.5q0 -11 0.5 -39.5t1 -61t0.5 -61t-2 -38.5q-6 -20 -21 -22.5t-30 22.5v181h-56z" />
    <glyph glyph-name="G" unicode="G" horiz-adv-x="607" 
d="M31 210q0 25 7.5 70.5t22 99t35 109t46.5 101t56.5 74t64.5 28.5q9 1 18.5 0.5t18.5 -5t17 -13.5t13 -26q0 -13 -11.5 -20t-23.5 -5q-2 4 -8 9t-16 7q-20 9 -44.5 -13t-49 -64t-46.5 -98t-36.5 -115.5t-18.5 -116t6.5 -100t38.5 -67t79 -17.5q38 0 89 19.5t96.5 52t77 74
t31.5 85.5q0 13 -4 32.5t-12.5 38t-21 32t-28.5 13.5q-42 2 -77 -14.5t-60.5 -38t-41 -41.5t-18.5 -24q-3 0 -9 0.5t-11.5 2t-9.5 5t-4 10.5q0 19 13.5 37t35 35t47.5 31t51.5 24t47 16t33.5 6q29 0 48.5 -11t32 -29.5t20.5 -42.5t15 -50q3 -11 10 -40.5t15 -63.5t15 -65
t9 -44v-8v-8q0 -3 -2.5 -8l-5 -10t-5 -9.5t-3.5 -5.5t-3 -1h-5h-5q-2 0 -3 1q-3 2 -9 8t-8 9q-2 7 -7 25.5t-10.5 39.5t-10 39.5t-5.5 26.5q-26 -35 -59.5 -70t-73 -64t-83.5 -47t-90 -18q-53 0 -86.5 15t-52 43t-25.5 67t-7 87z" />
    <glyph glyph-name="H" unicode="H" horiz-adv-x="492" 
d="M64 222q-23 -3 -29.5 3t-1.5 21q4 4 16.5 10t16.5 6q9 49 12.5 107t4.5 116t1 111.5t2 93.5q20 7 30.5 7.5t15 -4t4.5 -13v-18.5q0 -75 -3 -142.5t-3 -142.5v-16.5t0.5 -24.5t0.5 -25v-16q11 6 35 16t53 22t60 25.5t56.5 27.5t42 28t16.5 27q0 60 -7 123.5t-7 125.5
q15 20 28 11t18 -45q1 -12 4 -42t5.5 -64t4.5 -64.5t3 -42.5q11 0 13.5 -9t0 -20t-7 -22t-6.5 -15l5 -369q0 -5 -11 -7.5t-33 -4.5l-12 363q-28 0 -69 -14t-80.5 -34t-71 -42.5t-40.5 -38.5q-1 -8 0.5 -29.5t3 -46t2.5 -47t1 -31.5q0 -31 -13 -54.5t-26 -21.5
q-7 15 -11.5 49.5t-8.5 71t-7.5 66.5t-7.5 35z" />
    <glyph glyph-name="I" unicode="I" horiz-adv-x="131" 
d="M43 66q-1 17 -2.5 52.5t-3 82t-3 100.5t-2.5 108t-1.5 104.5t0.5 89t2.5 62.5t5.5 25h28q3 -37 3.5 -98t0.5 -130.5t0.5 -140t3.5 -128.5t9 -95.5t17 -39.5q0 -8 2.5 -18t2.5 -19.5t-4.5 -16t-17.5 -6.5q-10 0 -17 8.5t-12 20t-8 22.5t-4 17z" />
    <glyph glyph-name="J" unicode="J" horiz-adv-x="574" 
d="M13 180v24t3 24.5t10.5 20.5t22.5 13q-14 -116 38.5 -165t164.5 -49q59 0 104 20.5t75.5 56t46 83.5t15.5 103q3 65 -3 125t-15 110t-19 87t-16 57q22 9 37 -5.5t26 -45t17.5 -71t11 -83.5t6.5 -83t4 -69q0 -65 -16 -125t-50 -106t-87 -74t-127 -28q-41 0 -85 10.5
t-80.5 32.5t-60 56t-23.5 81z" />
    <glyph glyph-name="K" unicode="K" horiz-adv-x="648" 
d="M94 -8q-5 -12 -13 -15t-16 0t-14 11t-7 20q-1 24 -2 72.5t-2.5 110.5t-3 130.5t-2.5 132.5t-1.5 117.5t0.5 84.5q13 19 33 16q10 -35 14 -90t6 -115.5t4 -119t9 -101.5q38 14 74 43t69.5 67t64.5 81t58.5 84.5t51 78t42.5 61.5t32.5 34.5t21.5 -2.5q7 -20 -7.5 -53.5
t-43 -74.5t-66.5 -87.5t-79 -92t-80 -88t-69 -75.5q64 -54 126 -88.5t121.5 -55.5t115.5 -31t109 -14q0 -2 0.5 -4.5t0.5 -3.5q0 -12 -6 -17.5t-15 -8t-19 -2t-17 0.5q-55 1 -106 15t-97.5 34t-87.5 43.5t-76.5 43t-65 32t-52.5 11.5z" />
    <glyph glyph-name="L" unicode="L" horiz-adv-x="525" 
d="M49 33q-7 39 -11.5 91.5t-7.5 112t-4.5 123t-3 125t-2.5 117t-2 99.5q28 0 38.5 -6.5t12 -19t-1.5 -31t-3 -42.5q0 -18 2.5 -61t6 -97.5t7 -115t7 -114.5t6 -97t3.5 -61q10 -5 40 1t70 17.5t85.5 26t85 27.5t69 22t38.5 10q12 0 15 -9t9 -20q-10 -6 -42.5 -18.5
t-77 -27.5t-94.5 -31t-94 -28.5t-76.5 -20t-41.5 -5.5q-3 1 -8.5 5t-10.5 9t-9 10.5t-5 8.5z" />
    <glyph glyph-name="M" unicode="M" horiz-adv-x="634" 
d="M477 592q-3 -10 -9 -29t-14 -43.5t-17 -51.5t-17.5 -51t-15 -43t-9.5 -28q-9 -26 -22 -68t-31 -82t-42.5 -68.5t-58.5 -28.5q-35 0 -60 19t-43 46.5t-31 59t-23 57.5l-4 -245q0 -26 -17 -31t-33 14q-5 128 -6.5 272.5t-5.5 287.5q0 8 1 19t15 11q15 8 23.5 -19.5
t16.5 -74t18.5 -105t28 -112.5t46 -95.5t72.5 -54.5q25 6 46 35.5t40 75t36.5 101.5t35.5 116.5t37.5 120t42.5 110.5q28 9 38 -5.5t11 -43.5l99 -558q0 -8 1 -23.5t-0.5 -32t-6.5 -29.5t-17 -15q-7 1 -15 35.5t-16 89t-17.5 121.5t-21 132.5t-25 122.5t-30.5 91z" />
    <glyph glyph-name="N" unicode="N" horiz-adv-x="509" 
d="M41 493q-27 29 -28 53t10 41.5t27 27.5t24 12q16 0 23 -9.5t9 -24.5t0 -33.5t-3 -37t0 -35t8 -27.5q15 -17 34.5 -50.5t43.5 -75.5t52.5 -88t62 -87t71.5 -72.5t81 -44.5l-17 631q0 8 7.5 12t17 6t18 2.5t9.5 0.5q-12 -101 -13 -197t3.5 -178.5t12 -148t12.5 -105.5
q0 -10 -0.5 -21.5t-4 -21.5t-10.5 -16.5t-20 -6.5q-36 0 -77 29t-79 69t-70.5 82t-51.5 68q-6 8 -22.5 34t-35 56t-34 56.5t-20.5 35.5l5 -390q0 -23 2 -31.5t-13 -8.5q-4 0 -9.5 0.5t-11 2t-9.5 5t-4 10.5v476v0z" />
    <glyph glyph-name="O" unicode="O" horiz-adv-x="394" 
d="M141 0q-36 3 -62 33.5t-41 79.5t-20 110.5t1 125.5t23 125.5t44.5 110t66 79t88.5 32.5q43 -4 71.5 -37t43.5 -84t17.5 -114.5t-6.5 -129t-28.5 -127t-48.5 -108.5t-66.5 -73.5t-82.5 -22.5zM234 650q-30 -1 -56.5 -25t-47.5 -63t-36.5 -88.5t-23.5 -102.5t-8.5 -105
t8 -95.5t26 -74.5t46.5 -42q35 -3 64.5 18.5t53 59t39.5 87.5t24 103.5t7.5 107t-11 98.5t-31.5 77.5t-54 44.5z" />
    <glyph glyph-name="P" unicode="P" horiz-adv-x="468" 
d="M50 484q-22 10 -33 41q0 28 15 52t39.5 43t55 33.5t62 24t61 14.5t50.5 5q30 0 58 -9.5t50 -26.5t35.5 -41.5t13.5 -54.5q1 -33 -19 -71t-52 -73t-71.5 -65t-76.5 -48t-67.5 -21.5t-44.5 14.5q0 10 17.5 20t44.5 22.5t60 29t64.5 42t57 60t38.5 83.5q-3 36 -20 56.5
t-43.5 28.5t-59 5.5t-64.5 -12t-61 -23.5t-49 -30q0 -122 0.5 -204t1.5 -134.5t2.5 -81.5t3 -45.5t3 -25.5t2.5 -22v-19.5t-2.5 -27t-8 -23.5t-15.5 -10q-11 -4 -17.5 1t-9.5 15t-3.5 23t-1.5 25q0 12 -1 45t-2.5 77t-3.5 93.5t-3.5 93t-3 76.5t-2.5 45z" />
    <glyph glyph-name="Q" unicode="Q" horiz-adv-x="508" 
d="M336 146q-14 -21 -28.5 -44.5t-34.5 -43.5t-49 -33.5t-72 -13.5q-28 3 -49.5 21t-37.5 44.5t-26.5 59.5t-16 65.5t-7 63t1.5 53.5q4 65 23 132t52.5 121t82 88t112.5 34q52 -15 81.5 -48.5t43 -77.5t13 -95t-9 -100.5t-22 -94t-26.5 -75.5q0 -3 4.5 -9.5t19 -24t40.5 -50
t69 -87.5q-10 -26 -23.5 -30.5t-28 5t-30 29.5t-30.5 41.5t-28.5 41t-23.5 28.5zM69 264q0 -24 4 -59t15.5 -66.5t32 -54t53.5 -22.5q21 0 44.5 15.5t42.5 37t31.5 46t12.5 42.5q0 10 -6.5 21.5t-15 23.5t-17 23t-12.5 22q12 0 22 -1t19.5 -4t19 -9.5t21.5 -18.5
q12 25 21.5 60t14 74t3 78.5t-12 74.5t-30.5 62t-52 41q-26 0 -51 -13t-39 -36l17 -17q-31 1 -53 -17.5t-37.5 -48t-24.5 -66t-14.5 -72.5t-7 -67t-1.5 -49z" />
    <glyph glyph-name="R" unicode="R" horiz-adv-x="528" 
d="M52 12q-2 123 -12.5 252.5t-11.5 265.5q21 43 58 79t79.5 58.5t87 30.5t80 -3.5t58.5 -45t23 -93.5q0 -45 -16 -85t-41.5 -75t-58 -65t-66.5 -57q15 -12 47.5 -34t70 -48.5t75.5 -55t63.5 -53.5t33.5 -44t-14 -27q-38 20 -73.5 52t-79.5 66.5t-101 68.5t-138 59
q0 2 0.5 8.5t0.5 7.5q43 17 89.5 43.5t85 62.5t63.5 81t25 100q0 48 -29 70t-71 22q-29 0 -57 -13t-53.5 -33t-47 -43.5t-37.5 -43.5v-98q0 -53 0.5 -94.5t2 -83.5t4.5 -89t9 -110q2 -24 -13.5 -30t-35.5 -3z" />
    <glyph glyph-name="S" unicode="S" horiz-adv-x="475" 
d="M127 51q0 1 3.5 4.5l8 8l8 8t3.5 4.5q29 -24 49 -29t49 -5q26 0 55 13t53.5 34t40.5 47t16 53q0 39 -29.5 61.5t-74 37.5t-96 26t-96 26.5t-74 38.5t-29.5 62q0 43 17.5 87.5t47.5 80t69.5 58t83.5 22.5q28 0 49.5 -10t36.5 -27.5t23 -40.5t8 -50q0 -18 -1 -34
t-3.5 -31.5t-6 -32t-8.5 -36.5q-1 -2 -3.5 -2.5t-4.5 -0.5q-18 0 -22 16t-2.5 40.5t3.5 52.5t-3 52.5t-21.5 40.5t-52.5 16q-30 0 -59 -15.5t-51.5 -40.5t-36 -56.5t-13.5 -63.5q0 -33 29.5 -55t73 -38t95 -29.5t95 -30.5t73 -40.5t29.5 -59.5q0 -37 -16.5 -75t-44.5 -69
t-63.5 -51t-72.5 -20q-13 0 -36 2.5t-45 8.5t-38 16t-16 26z" />
    <glyph glyph-name="T" unicode="T" horiz-adv-x="434" 
d="M10 582q0 15 16.5 24.5t39 16.5t44.5 10.5t33 6.5q75 18 146 35t141.5 30.5t142.5 22t149 8.5v-29q-62 -3 -119 -13t-110 -22t-101 -25t-90 -23q8 -6 14 -16t7 -21q1 -18 3 -56.5t4 -89t4 -108t3.5 -112t2.5 -101t0 -76.5q-1 -26 -9 -37.5t-38 -7.5v64t-0.5 93t-1 93
t-0.5 63q0 8 -1.5 32t-3 55.5t-4 67t-4 66.5t-2.5 54t-1 31q-123 -29 -230 -62q-13 0 -24 5.5t-11 20.5z" />
    <glyph glyph-name="U" unicode="U" horiz-adv-x="459" 
d="M134 4q-42 30 -67.5 72.5t-38 93t-16.5 106t-3.5 111.5t2 109.5t-0.5 100.5q7 10 18 14.5t22 2.5q4 -43 3.5 -92.5t-1.5 -102t1 -105t10.5 -100t26.5 -88.5t50 -70q45 -14 83 11t67.5 74.5t50 117.5t31 139t9.5 138.5t-13 117.5q-12 -39 -21.5 -51.5t-15.5 -8t-7.5 21
t2.5 35t14 34t28 18.5q25 -12 39 -50.5t17.5 -93t-3 -120t-22.5 -130.5t-41.5 -125t-59 -103.5t-74.5 -65.5t-90 -11z" />
    <glyph glyph-name="V" unicode="V" horiz-adv-x="532" 
d="M12 670q16 10 29 -5.5t23.5 -47.5t19.5 -77t17.5 -95t18 -101.5t20.5 -97t24.5 -80t31.5 -51.5q24 45 47.5 110.5t47.5 136t49.5 138.5t53.5 117.5t59.5 73.5t68.5 7q-66 -77 -106.5 -161.5t-72.5 -173t-62.5 -180.5t-75.5 -185q-16 0 -31.5 22.5t-27.5 51t-20.5 56
t-11.5 36.5q-7 26 -17.5 69.5t-22 95.5t-22.5 107t-20 102.5t-14.5 83t-5.5 48.5z" />
    <glyph glyph-name="W" unicode="W" horiz-adv-x="900" 
d="M448 454q-9 -18 -23.5 -53.5t-31 -78.5t-34 -89.5t-32.5 -88t-27 -73.5t-18 -46q-4 -12 -8.5 -20.5t-20.5 -4.5q-33 81 -62 170.5t-58 176t-59 164.5t-65 137q-5 10 1.5 19t14.5 14q34 -44 61.5 -97t49.5 -109t39.5 -112.5t32 -107.5t27 -92.5t24.5 -67.5q40 88 69 166
t51.5 137.5t40.5 96.5t36 43q1 0 2 -0.5t3 -0.5q2 -1 4 -1q12 -5 18.5 -31t14 -65.5t17.5 -89t28 -100.5t46 -100.5t72 -88.5q13 25 24.5 75t23 112t22.5 130t24.5 128.5t29 108t34.5 68.5q16 7 30 5.5t24.5 -7.5t17.5 -14.5t10 -15.5v1q-22 3 -34.5 2.5t-20.5 -7.5
t-13.5 -22t-13.5 -40l-126 -586q-1 0 -6 -0.5t-11 -1.5q-7 -1 -15 -2q-48 39 -82 94.5t-58.5 118t-41.5 126.5t-31 120z" />
    <glyph glyph-name="X" unicode="X" horiz-adv-x="426" 
d="M27 -7q0 3 2 13t13.5 44t36.5 101.5t71 185.5l-138 277q-1 14 6 22.5t16 10.5t17.5 -2t9.5 -14l115 -230q6 6 19.5 30.5t31 58t37.5 71.5t40 70t38 54t31 24q15 0 25.5 -5t5.5 -22q-11 -10 -28.5 -29.5t-41 -56t-53.5 -95.5t-67 -149q4 -18 17.5 -50.5t32.5 -69.5
t41 -74.5t43.5 -65.5t40 -43.5t29.5 -8.5q-16 -38 -39 -34.5t-52.5 40t-64 101.5t-74.5 149l-134 -344q-17 4 -22 18t-5 23z" />
    <glyph glyph-name="Y" unicode="Y" horiz-adv-x="426" 
d="M242 256q-70 79 -130 175t-102 193q9 20 24.5 10t35 -37.5t42 -67.5t46.5 -81t48.5 -77.5t47.5 -56.5q6 22 13 67t17 97.5t22 105t26 89t31 49t37 -13.5q-33 -81 -56.5 -162.5t-38 -168.5t-21 -183t-4.5 -206q-9 -20 -20.5 -24.5t-26.5 20.5z" />
    <glyph glyph-name="Z" unicode="Z" horiz-adv-x="623" 
d="M183 -36q-53 1 -72 22.5t-16.5 54.5t20 73.5t36.5 78t33 68.5t10 46q-18 3 -36.5 -4t-34.5 -14t-27.5 -7t-16.5 17q0 19 10.5 29.5t26.5 16.5t35.5 9t38 8t33.5 13t22 23q12 27 25.5 56.5t25.5 60t19.5 62t7.5 62.5q-54 3 -96 -6t-75 -23.5t-58.5 -30t-47.5 -24.5
q-11 0 -20 6t-11 17q6 16 28 32t52.5 30.5t66.5 26t70.5 19t63.5 10t47 -2.5q20 -6 27 -22.5t5 -39.5t-10 -51.5t-18 -59.5t-20.5 -62t-16.5 -60q67 11 120 19.5t110 12.5q3 -27 -7 -40.5t-29 -20.5t-45 -9t-55.5 -5t-61 -9.5t-60.5 -21.5q-12 -26 -33.5 -64.5t-43.5 -79.5
t-38.5 -80.5t-18.5 -67.5q24 -17 63 -18t85 9t95 29t91.5 41.5t74.5 47t45 45.5q16 -31 0.5 -58.5t-51.5 -51t-86 -43t-102 -33.5t-100 -23.5t-80 -12.5z" />
    <glyph glyph-name="bracketleft" unicode="[" horiz-adv-x="508" 
d="M45 700q-3 16 12.5 29.5t41.5 24.5t59 19.5t65 14t59.5 8.5t42.5 4h16t16.5 -2.5t12.5 -8t5 -15.5q-29 -4 -65.5 -8.5t-75 -11.5t-75.5 -18t-65 -28q8 -37 15 -70.5t11.5 -74.5t7 -94.5t3 -130.5t-1 -182.5t-5.5 -249.5q87 1 150.5 6.5t106.5 7.5t67 -2.5t30 -23.5
l-394 -30q-3 38 -0.5 103t6 144t5 165t-2 166t-14.5 148t-33 110z" />
    <glyph glyph-name="backslash" unicode="\" horiz-adv-x="410" 
d="M49 721q8 -20 27 -61.5t43 -93.5t50.5 -109t51.5 -108.5t44.5 -92.5t29.5 -60q31 -62 55 -98t38 -58.5t17 -36.5t-7 -31q-14 0 -38 28t-53.5 74.5t-62.5 107t-65.5 125.5t-62.5 130.5t-52.5 122t-36 99t-13.5 62.5h35z" />
    <glyph glyph-name="bracketright" unicode="]" horiz-adv-x="459" 
d="M467 700q-23 -42 -33.5 -110t-14 -148t-2 -166t5 -165t6 -144t-0.5 -103l-394 30q6 19 30 23.5t67 2.5t106.5 -7.5t150.5 -6.5q-4 144 -5.5 249.5t-1 182.5t3 130.5t7 94.5t11.5 74.5t15 70.5q-29 17 -65.5 28t-75 18t-75.5 11.5t-65 8.5q0 10 5 15.5t12.5 8t16 2.5h16.5
q15 -1 42.5 -4t59.5 -8.5t65 -14t59 -19.5t41.5 -24.5t12.5 -29.5z" />
    <glyph glyph-name="asciicircum" unicode="^" horiz-adv-x="286" 
d="M132 539q8 14 15 16t20 2l78 -125q-3 -6 -5 -14.5t-6 -14.5t-11 -6.5t-19 9.5l-50 82l-40 -66q-2 -11 -7 -19.5t-11.5 -11.5t-14.5 0t-16 14z" />
    <glyph glyph-name="underscore" unicode="_" horiz-adv-x="562" 
d="M32 0q-8 6 -14 14t-2 19l520 15q19 -14 8.5 -23.5t-43 -15t-83.5 -8t-113.5 -3t-132.5 0t-140 1.5z" />
    <glyph glyph-name="a" unicode="a" horiz-adv-x="544" 
d="M99 -2q-34 1 -52.5 26.5t-25.5 66.5t-2.5 94t17.5 109t33.5 111t45.5 100.5t54 78t59 42.5q25 0 42.5 -9.5t29.5 -25.5t19.5 -36t12.5 -41q1 9 6.5 27t13 32.5t16 19.5t16.5 -11q-13 -105 -18 -181t-4 -129t8 -86t19 -52t28 -28t35 -14q27 -5 46.5 4.5t34.5 25.5t26.5 33
t22.5 27q7 -21 -1 -45t-25.5 -44.5t-43 -33t-53.5 -11.5q-43 0 -70.5 23t-44 58t-23.5 75t-9 75q-11 -29 -29 -76.5t-43.5 -93t-60.5 -78.5t-80 -33zM230 582q-15 -1 -33.5 -22.5t-38.5 -57t-38.5 -80.5t-33 -93t-23 -95.5t-7.5 -86.5t13 -66t38 -35q18 -4 39 13t41.5 47
t39.5 71t35.5 85t28 87.5t17.5 80.5q0 18 -4 44t-13 50t-24 41t-37 17z" />
    <glyph glyph-name="b" unicode="b" horiz-adv-x="475" 
d="M55 148q10 66 10 131t-6 130.5t-16.5 131t-22.5 133.5q0 12 1 23t5.5 19.5t13.5 13.5t24 4l50 -373q11 29 26.5 63.5t37 64.5t50.5 50t67 20q46 0 77.5 -29t51 -71t28 -89t8.5 -83q-2 -51 -12.5 -103t-33.5 -95t-59.5 -70t-88.5 -27q-26 -2 -59.5 5t-65 25t-55.5 49
t-31 77zM124 106q0 -18 17 -31.5t39.5 -22.5t46 -14t35.5 -5q52 7 82 38t45 72.5t18.5 85t3.5 76.5q0 25 -7 60.5t-22 67.5t-39 55t-57 23q-32 0 -56 -25t-42 -64t-30.5 -86.5t-20 -92.5t-10.5 -82t-3 -55z" />
    <glyph glyph-name="c" unicode="c" horiz-adv-x="412" 
d="M123 0q-40 4 -61.5 33t-28.5 74t-1.5 100.5t20.5 113.5t37.5 113t49 98.5t54.5 70.5t55 28q38 -1 62.5 -22t34.5 -51.5t6.5 -64.5t-21.5 -59q-15 4 -20 16t-6 27.5t-0.5 32.5t-3 31.5t-14 23.5t-32.5 9q-24 0 -46.5 -24.5t-41.5 -62.5t-35 -84.5t-27 -91t-17 -81.5
t-6 -56q0 -12 -0.5 -33.5t3.5 -42t14.5 -35.5t32.5 -15q33 0 70 24.5t73 58.5t67.5 70.5t52.5 60.5q4 -29 -7 -59.5t-31.5 -59.5t-49 -54.5t-60 -45t-63.5 -31.5t-60 -12z" />
    <glyph glyph-name="d" unicode="d" horiz-adv-x="459" 
d="M370 147q-16 -17 -40 -42t-53 -48.5t-62 -40.5t-66 -17q-35 0 -58.5 15t-38.5 39t-21.5 53t-6.5 57t7.5 68t22 84t35 87.5t47.5 78t59 56t69 21.5q29 0 44.5 -21.5t15.5 -50.5q-15 0 -23 3.5t-15 8t-13.5 8t-18.5 3.5q-24 0 -47 -19t-43 -49.5t-36.5 -68t-28.5 -75.5
t-18.5 -71.5t-6.5 -55.5q0 -21 3 -43t12 -39.5t25.5 -29t42.5 -11.5q33 0 63.5 21t56.5 51t46 64.5t31 61.5q-1 78 -5 150t-6 135.5t0 118t14 97.5q4 6 11.5 10t15 5t14 -2t8.5 -13q-11 -75 -12.5 -138.5t3 -121t11.5 -112t14.5 -111.5t12 -120.5t2.5 -138.5
q-1 -20 -7.5 -25t-15 -1t-16 15t-11.5 23q-2 7 -4.5 25.5t-5 39.5t-4.5 39.5t-3 26.5z" />
    <glyph glyph-name="e" unicode="e" 
d="M22 126q0 34 9 88t25.5 113.5t40 118.5t52 103.5t61.5 67.5t70 11q7 1 20.5 -12.5t21.5 -42t5 -72t-27.5 -104t-76 -137.5t-141.5 -172q18 -28 43 -33t53 5t56 31.5t52 45.5t41.5 47.5t24.5 37.5q17 -15 13 -37.5t-21.5 -47.5t-45 -49.5t-57.5 -43.5t-59 -30.5t-49 -9.5
q-21 0 -41 10.5t-35.5 27.5t-25 39t-9.5 45zM252 572q-21 0 -43.5 -26.5t-43.5 -67t-39.5 -89t-31.5 -94t-19 -81t-3 -50.5q16 -1 42.5 27t54.5 71.5t53 95t39.5 97.5t14 78.5t-23.5 38.5z" />
    <glyph glyph-name="f" unicode="f" horiz-adv-x="492" 
d="M183 410q-17 0 -33.5 -5t-32.5 -12.5t-32 -16.5t-32 -16q-14 0 -18.5 2.5t-8.5 17.5q0 16 20 29.5t46 24.5t52.5 19.5t38.5 15.5q2 38 3.5 78t3.5 77q3 30 9.5 57t19.5 47.5t34.5 33t54.5 12.5q32 0 50 -21.5t18 -51.5q2 -14 -1.5 -20t-9.5 -9t-14 -3.5t-15 -2.5
q-8 40 -24 50.5t-32 1.5t-28.5 -33t-13.5 -52l-2 -147q6 -2 23.5 3.5t40 16t47.5 23t48 23.5t40.5 19.5t24.5 9.5q5 3 10.5 3t8.5 -3.5t3 -11.5t-5 -20l-237 -121q-2 -53 -3.5 -113t-2 -120t0 -116t3.5 -99q-19 -21 -30.5 -18.5t-15.5 21.5z" />
    <glyph glyph-name="g" unicode="g" horiz-adv-x="500" 
d="M143 -382q-12 9 -14 21.5t2.5 22t14 13t18.5 -4.5q46 -28 85 -26.5t70 22.5t53.5 57t36.5 79t20 88t3 84l-38 476q-45 -123 -86.5 -205.5t-78 -134t-68 -76t-56.5 -32t-43.5 -2t-28.5 15.5q-13 29 -14 77.5t7.5 105.5t26.5 118.5t42 117.5t54.5 100.5t65.5 68t72.5 21
t76.5 -40.5q0 18 7 28.5t17.5 12.5t21 -2.5t18.5 -16.5l56 -626q2 -24 -0.5 -67.5t-13.5 -93t-33.5 -97.5t-61.5 -80t-95.5 -42t-136.5 18zM270 576q-27 -6 -55.5 -41t-54.5 -86.5t-47 -112.5t-32.5 -117.5t-12.5 -102.5t14 -67q17 -4 43.5 18.5t56 62t59 90t53 102t38 99
t14.5 80.5q0 15 -7 28.5t-17.5 24t-24.5 16.5t-27 6z" />
    <glyph glyph-name="h" unicode="h" horiz-adv-x="502" 
d="M56 2q-10 80 -14.5 146.5t-6.5 125t-3 111.5t-2.5 105.5t-6 107t-13.5 117.5q7 10 23 15t27 3l29 -540q4 21 14.5 56.5t25.5 76.5t34 82.5t42 75.5t49 55.5t55 21.5q33 -3 59 -39t45 -90t32.5 -118.5t22 -123.5t12.5 -105.5t5 -65.5q-14 -13 -24.5 3t-19.5 50t-17.5 81
t-17 98t-18.5 100t-23 87t-29 59.5t-37 16.5q-28 -16 -54.5 -59.5t-49.5 -100t-42.5 -118t-32.5 -113.5t-19.5 -86.5t-4.5 -36.5q-4 -6 -11.5 -8t-14.5 -1.5t-11.5 3.5t-2.5 8z" />
    <glyph glyph-name="i" unicode="i" horiz-adv-x="154" 
d="M72 608q19 -65 30.5 -145t18 -160t9 -153t4.5 -122q0 -20 -11.5 -23.5t-29.5 -0.5q-13 146 -22 293.5t-32 293.5zM60 641q-12 -5 -24.5 -2t-20 11t-7 19t16.5 23q17 6 34.5 0.5t26.5 -15t5 -20.5t-31 -16z" />
    <glyph glyph-name="k" unicode="k" horiz-adv-x="484" 
d="M48 -6q0 100 -5 188.5t-10 175t-10 176.5t-5 192q4 14 12.5 17t17.5 -0.5t15 -11.5t5 -15l27 -440q24 20 45.5 55t42.5 76.5t41.5 84t41.5 78.5q6 5 12.5 4t11.5 -6t7 -12.5t-1 -13.5q0 -12 -8.5 -33t-21.5 -47t-29.5 -55t-33 -57t-31 -53t-24.5 -43q18 -11 49 -28.5
t67.5 -37t73.5 -40t67.5 -38t50.5 -29t21 -14.5q4 -5 3 -11.5t-5.5 -12t-12.5 -8.5t-18 -1q-40 14 -67 28t-48.5 28t-40.5 28t-43 29t-57.5 30.5t-82.5 32.5v-213q0 -7 -7 -12t-16 -6.5t-18.5 2t-15.5 13.5z" />
    <glyph glyph-name="l" unicode="l" horiz-adv-x="118" 
d="M62 708q12 -184 19 -301t10.5 -186t4.5 -100.5t2 -45t3 -19t7 -22.5q2 -9 -3.5 -17.5t-14 -13t-19 -2t-19.5 14.5l-32 696q1 15 6.5 24.5t12 10.5t13 -8t10.5 -31z" />
    <glyph glyph-name="m" unicode="m" horiz-adv-x="738" 
d="M594 553q-30 10 -52.5 -9t-40 -57.5t-31 -92.5t-25.5 -113.5t-25 -119.5t-28 -112q0 -8 -8 -11t-17 -2.5t-16.5 4t-8.5 9.5q-8 44 -12.5 98.5t-9 111t-9 111t-12 99t-18.5 74t-27 36.5q-16 0 -29 -15t-24.5 -39t-20 -53t-15 -57t-11 -51t-5.5 -34q-2 -9 -5 -33t-7.5 -55
t-8.5 -66t-8 -66.5t-6.5 -56t-3.5 -33.5q2 -10 -4.5 -17t-15.5 -10t-18 -0.5t-11 11.5q-7 50 -11.5 110t-8 123t-6 124t-3.5 112q0 12 1 26t5.5 26t14.5 20t27 8q0 -63 4.5 -119.5t15.5 -119.5q4 19 9.5 50t14.5 66t21 70.5t28.5 63.5t38.5 46t51 18q27 -2 45 -26.5t29 -62
t17 -84t9.5 -94t5.5 -90.5t6 -74q14 49 26 100.5t25 99t28.5 89t36 70.5t47.5 43.5t63 8.5q25 -1 43.5 -25.5t32 -64t22.5 -90.5t14 -104.5t7.5 -106.5t2.5 -96.5t-1.5 -74t-3.5 -40.5q-17 -20 -27 -9t-15 43t-7.5 80t-4.5 101.5t-5 108.5t-10.5 101.5t-20.5 79.5t-34 42z
" />
    <glyph glyph-name="n" unicode="n" horiz-adv-x="443" 
d="M82 295q-1 20 3.5 53t14.5 70.5t25.5 75t36 67.5t45.5 48t55 16q35 0 58 -22.5t36.5 -54t20 -65.5t9.5 -56q3 -14 4 -46t2 -72.5t2.5 -85t4 -84t6.5 -69t11 -40.5q1 -9 -8 -17.5t-21 -13t-23 -2t-14 16.5q-11 45 -14 105t-4 123.5t-1.5 124t-6.5 108t-20.5 75t-41.5 24.5
q-30 -2 -53.5 -28t-41.5 -67.5t-30.5 -94t-21.5 -107t-15 -105.5t-9.5 -90t-6 -60.5t-4.5 -17.5q-3 0 -11 -0.5t-16 0t-14 3t-6 9.5v492q0 23 11.5 42.5t37.5 19.5v-275z" />
    <glyph glyph-name="o" unicode="o" horiz-adv-x="344" 
d="M17 182q9 129 27 215.5t43.5 138.5t55.5 72.5t63 16.5q41 -2 68.5 -29t42.5 -71t17.5 -99.5t-5.5 -113.5t-26 -114t-45.5 -100t-63 -71.5t-78.5 -29.5q-37 0 -57 19t-29.5 47.5t-11 60.5t-1.5 58zM206 584q-24 2 -45 -20.5t-38.5 -60.5t-30.5 -87t-21 -100.5t-9.5 -100.5
t3.5 -87t17.5 -60t34.5 -20q44 6 78 48t55.5 100.5t31 125.5t5 124.5t-24.5 96t-56 41.5z" />
    <glyph glyph-name="p" unicode="p" horiz-adv-x="394" 
d="M28 578q-5 13 -1.5 22t10.5 14t16 7.5t17 2.5q54 0 109 -8t100 -33t73 -71.5t28 -123.5q-1 -62 -23 -122t-58 -110t-80.5 -86t-90.5 -51l8 -407q-15 0 -24.5 10t-14.5 23.5t-7.5 28t-2.5 23.5q0 11 -1.5 35.5t-3 55.5t-3 66t-2.5 66t-2 55t-1 35q-15 0 -23.5 -1.5t-15 0
t-13 8t-18.5 21.5q29 -5 41 1.5t27 16.5zM126 72q45 15 82.5 46.5t65.5 74t44.5 92.5t19.5 101q1 55 -20 94t-57 63.5t-83 34.5t-98 6z" />
    <glyph glyph-name="q" unicode="q" horiz-adv-x="404" 
d="M316 386q-5 -20 -16.5 -57t-28.5 -80.5t-38.5 -88.5t-46 -81.5t-52 -60t-56.5 -23.5q-22 -3 -36 10.5t-21.5 34.5t-9.5 45t1 43q0 30 8 79.5t22.5 105.5t35 113t46.5 103t57 75t66 29q22 0 35 -12t24.5 -24.5t24.5 -19t34 4.5q1 -22 0.5 -66.5t-0.5 -100t-0.5 -117
t-0.5 -117.5v-100.5t1 -66.5q5 -49 9 -86t10 -67t15 -56.5t24 -53.5t37 -58t54 -70q-15 -25 -32.5 -24t-35 18.5t-34 46t-30 56.5t-23.5 51t-13 31q-19 79 -24 151.5t-4.5 143.5t2.5 142t-4 147zM241 596q-33 -12 -63.5 -56.5t-54.5 -104.5t-41 -127.5t-24 -124.5t-2 -95.5
t24 -41.5q17 -3 38 17t43 55.5t42.5 83t37 98t27.5 100.5t12.5 91t-7.5 69t-32 36z" />
    <glyph glyph-name="r" unicode="r" 
d="M62 20q-2 42 -4 76t-4 67.5t-5 70t-7 83.5t-9 107t-11 142q0 4 -0.5 13t0.5 18t5 16t13 9q22 -4 26.5 -19.5t4.5 -46.5t1.5 -79t17.5 -117q18 52 41.5 102.5t56 89t75 61t97.5 18.5v-33q-53 -4 -92 -29.5t-66.5 -67t-45 -97t-28 -118t-15.5 -129.5t-7 -133q0 -24 -15 -24
t-29 20z" />
    <glyph glyph-name="s" unicode="s" horiz-adv-x="362" 
d="M192 -2q-32 2 -61 6.5t-52 12.5t-37.5 20t-17.5 29q18 0 37.5 -4.5t39 -10.5t40 -10.5t41.5 -4.5q20 0 43 5.5t42 17t31.5 29.5t12.5 43q0 33 -19.5 63t-49 59t-63.5 58t-63.5 59.5t-49 63.5t-19.5 70q0 27 16 49.5t39.5 38t51 24.5t51.5 9q18 2 37 -4t33 -19.5t20.5 -34
t-0.5 -46.5q-3 -17 -8 -24t-10.5 -6t-12 7t-13.5 14q0 12 -0.5 25t-3.5 23.5t-10.5 17t-22.5 6.5q-19 0 -40 -6t-38 -17.5t-28.5 -28t-11.5 -38.5q-5 -19 14.5 -45t50.5 -57t68 -65t67 -69.5t47.5 -71t10.5 -68.5q-3 -36 -16.5 -59.5t-35.5 -37t-50 -18.5t-60 -5z" />
    <glyph glyph-name="t" unicode="t" horiz-adv-x="338" 
d="M95 508q-25 0 -48.5 -5.5t-49.5 -10.5q-4 0 -8.5 9t-8.5 35q13 4 28.5 6.5t31.5 6.5t30.5 9.5t24.5 15.5v151q0 5 3.5 12t10 12.5t15.5 8.5t20 0l2 -176l251 48q0 -11 -5.5 -20t-13.5 -16t-17 -11.5t-16 -6.5q-21 -6 -49 -12t-56.5 -12t-54 -13t-41.5 -14v-509
q0 -7 -7 -11t-15.5 -6.5t-16.5 -3t-10 -0.5v513v0z" />
    <glyph glyph-name="u" unicode="u" horiz-adv-x="380" 
d="M123 -2q-22 -5 -38.5 22.5t-27.5 74.5t-17.5 107t-9 121t-2.5 116t2 93q0 3 2.5 11t8.5 15t16.5 11t26.5 -1q-1 -5 -3 -29t-3 -60t-1.5 -80t0.5 -89t4 -88.5t9 -78t14.5 -56.5t21.5 -25q25 4 52 36.5t51.5 81.5t44.5 108.5t31 119t11.5 113t-14.5 90.5q1 2 5.5 5t9.5 5.5
t10 4.5t7 2q14 0 21 -15t10 -35t3.5 -39t0.5 -26q1 -25 -6.5 -71t-22 -101t-36 -113t-49.5 -107t-61 -82.5t-71 -40.5z" />
    <glyph glyph-name="v" unicode="v" horiz-adv-x="494" 
d="M12 618q14 0 24 -3.5t16 -16.5q16 -49 33.5 -119t37.5 -143t43 -140.5t50 -111.5q15 46 30.5 106.5t33 124.5t38.5 126.5t46.5 113t57.5 84t73 38.5q-9 -20 -22.5 -39.5t-31 -48.5t-38.5 -72t-45.5 -111t-52.5 -166t-59 -236q-7 -8 -14.5 -7.5t-18.5 3.5q-24 27 -48 74
t-46.5 104.5t-42 120t-33.5 122t-22.5 111t-8.5 86.5z" />
    <glyph glyph-name="w" unicode="w" horiz-adv-x="728" 
d="M6 612q8 23 21.5 20.5t22.5 -14.5l80 -508q12 12 22 49t20.5 84.5t23.5 99t33 94t47.5 68.5t67.5 23q26 0 46.5 -24.5t37 -63.5t31.5 -87t30 -95t32 -87.5t39 -64.5q2 25 7.5 82t16.5 127t28.5 142.5t43.5 129.5q32 69 58.5 90.5t53.5 0.5q-39 -33 -63.5 -92
t-40.5 -129.5t-25 -145t-17.5 -140t-18.5 -114t-27 -66.5q-30 31 -55 79t-46 102t-39 108.5t-33.5 98t-29.5 71t-27 27.5q-31 3 -49.5 -20.5t-31.5 -63t-22.5 -90.5t-22.5 -105t-31.5 -106.5t-49.5 -93.5q-11 0 -22 25t-22.5 66.5t-22.5 94.5t-20.5 109t-18 111t-14.5 99
t-9.5 73.5t-3.5 35.5z" />
    <glyph glyph-name="x" unicode="x" horiz-adv-x="510" 
d="M262 268q-16 -26 -33.5 -59t-35.5 -66.5t-36.5 -64t-37 -52.5t-37 -32.5t-36.5 -3.5q15 26 40 66.5t51 85.5t47.5 89t27.5 77q-20 37 -47 77.5t-56.5 80.5t-60 79t-57.5 74q2 0 12 0.5t13 0.5q22 1 42 -14t38.5 -39t36.5 -54t36.5 -59.5t38 -55.5t41.5 -41q9 20 21.5 50
t28 63t33.5 65t38 55.5t41.5 35t44.5 4.5q-9 -11 -24.5 -32t-34 -48t-37.5 -59t-34.5 -63t-26 -60.5t-11.5 -51.5l220 -303l-30 -23l-216 278v0z" />
    <glyph glyph-name="y" unicode="y" horiz-adv-x="472" 
d="M316 -408q-22 0 -48.5 1.5t-50.5 6t-42.5 12t-24.5 20.5q-5 2 -3 9t8 13t14.5 10t16.5 0q67 -31 110.5 -24t68.5 35.5t36 72.5t13.5 87.5t-0.5 80t-4 50.5q-2 27 -5 71t-6.5 97t-7.5 110t-8.5 109.5t-8.5 97t-7 71.5q-16 -52 -36 -113t-42.5 -121t-46.5 -115.5t-48 -96
t-47.5 -62.5t-43.5 -15q-28 8 -46 40t-27.5 80t-10.5 109t3.5 127t14 134.5t22.5 131.5q16 5 30 -2t19 -31q-18 -59 -27 -120t-11.5 -119t0.5 -109t10 -89.5t17.5 -61t22.5 -23.5q12 1 29 31.5t37 79t42 108t43.5 119t42 112.5t37.5 87q6 17 20 18t29 -1q4 -30 9 -79
t10.5 -107.5t11.5 -122.5t10.5 -122.5t8.5 -108t6 -78.5q1 -30 4 -68t3.5 -79.5t-5 -83t-21.5 -77t-45 -63t-76 -39.5z" />
    <glyph glyph-name="z" unicode="z" horiz-adv-x="474" 
d="M183 -7q-45 3 -65.5 26t-23.5 57.5t7.5 77t27 84.5t34.5 79t31 61l-181 -47q-3 24 7.5 38t29 22t42 12.5t48.5 9t47.5 11.5t39.5 20l70 143q-39 7 -70.5 -3t-61.5 -24.5t-61 -27.5t-69 -11q-7 14 5 28t36 26.5t57.5 24t68.5 19.5t68.5 12.5t59.5 4.5q29 -11 33 -22.5
t-7 -32.5t-31.5 -55.5t-39.5 -91.5l108 35q12 -9 4 -23.5t-29.5 -29.5t-53.5 -27t-69 -16q-12 -20 -28 -52.5t-31 -69.5t-27 -74t-14.5 -67t6 -49t33.5 -18q46 -6 89.5 10.5t80.5 42.5t64.5 55.5t42.5 49.5q3 -42 -25.5 -80.5t-71.5 -67.5t-92.5 -45.5t-88.5 -14.5z" />
    <glyph glyph-name="braceleft" unicode="{" horiz-adv-x="443" 
d="M154 -65q10 38 27 70.5t34 63.5t31 62t18 67q0 37 -11 62.5t-28 43t-36 28.5t-36 19t-28 15t-11 16q1 18 19 24t39 11t37 15t14 34q-12 8 -43 29t-64 47t-58.5 52.5t-25.5 45.5q0 33 15.5 67.5t42.5 62.5t64 46t81 18q55 0 92.5 -22t37.5 -68q-11 -6 -18 -6.5t-11.5 1.5
t-6.5 6l-4 8q-3 12 -14.5 21t-25.5 15t-28.5 9t-24.5 3q-34 0 -63 -12.5t-50.5 -33t-33.5 -46.5t-12 -54q8 -30 32 -52.5t54 -42.5t61.5 -40t55.5 -44q0 -2 1.5 -11t1.5 -11q0 -17 -7.5 -25t-18 -13.5t-23 -11.5t-21.5 -17q39 -37 67.5 -77t39.5 -98q4 -41 -9.5 -75
t-34 -65.5t-43 -64.5t-35.5 -72q6 -27 24 -39.5t42 -15.5t50 -0.5t47 5.5q-6 -11 -17 -19.5t-25 -14t-28.5 -8.5t-27.5 -3q-22 0 -41 8.5t-33.5 22t-22.5 30.5t-8 34z" />
    <glyph glyph-name="braceright" unicode="}" horiz-adv-x="374" 
d="M243 -65q0 -17 -8 -34t-22.5 -30.5t-33.5 -22t-41 -8.5q-13 0 -27.5 3t-28.5 8.5t-25 14t-17 19.5q21 -3 47 -5.5t50 0.5t42 15.5t24 39.5q-14 39 -36 72t-42.5 64.5t-34 65.5t-9.5 75q11 58 39.5 98t67.5 77q-9 11 -21.5 17t-23 11.5t-18 13.5t-7.5 25q0 2 1.5 11
t1.5 11q24 24 55.5 44t61.5 40t54 42.5t32 52.5q0 28 -12 54t-33.5 46.5t-50.5 33t-63 12.5q-10 0 -24.5 -3t-28.5 -9t-25.5 -15t-14.5 -21l-4 -8t-6.5 -6t-11.5 -1.5t-18 6.5q0 46 37.5 68t92.5 22q44 0 81 -18t64 -46t42.5 -62.5t15.5 -67.5q0 -19 -25.5 -45.5
t-58.5 -52.5t-64 -47t-43 -29q-2 -24 14 -34t37 -15t39 -11t19 -24q0 -9 -11 -16t-28 -15t-36 -19t-36 -28.5t-28 -43t-11 -62.5q4 -36 18 -67t31 -62t34 -63.5t27 -70.5z" />
    <glyph glyph-name="bar" unicode="|" horiz-adv-x="918" 
d="M846 675q3 48 -9 67t-33.5 17t-50 -21t-58.5 -47.5t-59 -63t-52 -67.5t-37.5 -60.5t-14.5 -41.5q30 -38 42.5 -66.5t15.5 -48t0.5 -30t-3.5 -12.5q-73 99 -136.5 150.5t-117 67t-96 -0.5t-71.5 -51.5t-45 -85.5t-16 -103q0 -16 7.5 -38.5t27.5 -46.5t55 -47.5t90 -41.5
t132.5 -29.5t183.5 -11.5q-28 -19 -78 -27t-108.5 -4t-119.5 20t-112 44t-86.5 67.5t-41.5 91.5q-7 52 5 104.5t39 96.5t67.5 75t91.5 41t111 -5t126 -64q6 27 27 62.5t51 72.5t66 71.5t73 60t71 37.5t60 4t40.5 -40t11.5 -95q0 -26 -7.5 -71.5t-22.5 -103t-37 -122.5
t-50 -130t-61.5 -125.5t-71.5 -108.5t-80 -79t-88 -38q39 36 79.5 86t79 110t74 129t64 143.5t47.5 152.5t25 156z" />
    <glyph glyph-name="semicolon" unicode=";" horiz-adv-x="284" 
d="M82 -163q20 34 43.5 73.5t34 79t1 78t-54.5 71.5q0 9 5 14t12 7.5t15 2.5h15q22 0 35 -13.5t20 -33.5t9.5 -43.5t2.5 -42.5q-5 -21 -12 -49t-21.5 -55.5t-37.5 -51.5t-59 -38q-2 0 -4 0.5t-4 0.5zM174 364q5 -4 7 -19.5t-3.5 -30t-20 -21t-41.5 6.5q-8 16 -4 31.5
t14 25.5t23 13t25 -6z" />
    <glyph glyph-name="question" unicode="?" horiz-adv-x="481" 
d="M164 66q3 9 13 17t21 13t20.5 5t13.5 -8t-0.5 -25.5t-21.5 -47.5q-12 -6 -20.5 -4t-14.5 9.5t-8.5 18.5t-2.5 22zM413 618q0 15 -9 26.5t-22.5 19t-28 11.5t-26.5 4q-44 0 -82.5 -19t-72 -49.5t-61.5 -69t-50 -77.5h-19q0 58 28 107.5t70.5 85.5t92.5 56.5t94 20.5
q15 0 40.5 -7.5t49.5 -21.5t41 -34t14 -45q-4 -35 -22 -75.5t-45.5 -80.5t-61.5 -77t-70.5 -65.5t-72.5 -45.5t-67 -17q0 21 20.5 43.5t52 47t67.5 52t67.5 59.5t52 69.5t20.5 81.5z" />
    <glyph glyph-name="j" unicode="j" horiz-adv-x="196" 
d="M-160 -343q-3 10 0 17.5t8.5 11.5t11 4t7.5 -5q50 -39 97 -47.5t83 3.5t58 40.5t23 64.5q-1 30 -4 80.5t-7.5 113t-10.5 133.5t-12 141t-12.5 135t-11.5 116.5t-9.5 84.5t-6.5 40q0 3 4 6.5t11 7t15 5t16 -0.5q8 -50 17 -121t17 -152.5t15.5 -168t13 -167.5t9 -150.5
t4.5 -116.5q0 -48 -20.5 -77.5t-53.5 -44.5t-72.5 -17t-77 6t-68 23t-44.5 35zM32 731q11 2 21 -3t16 -14t6 -20t-9 -22q-31 -9 -44 -1.5t-14 20.5t6.5 25.5t17.5 14.5z" />
    <glyph glyph-name="period" unicode="." horiz-adv-x="110" 
d="M80 68q5 -4 7.5 -18.5t-2 -27t-18.5 -18t-41 7.5q-8 16 -4.5 30.5t12.5 23t21.5 10t24.5 -7.5z" />
    <glyph glyph-name="tilde" unicode="&#x2dc;" horiz-adv-x="432" 
d="M16 660q0 9 3.5 27t12.5 36t24 31.5t37 13.5q29 0 51 -13t43 -28t44 -28t53 -13q24 -1 43 8.5t33.5 24t25 30.5t16.5 27q3 1 7.5 -2.5t8.5 -9t5.5 -11.5t-1.5 -9q0 -16 -13.5 -32.5t-33.5 -29.5t-43.5 -21.5t-43.5 -8.5q-53 1 -95 25t-87 57q-21 1 -31 -11.5t-14.5 -30
t-6.5 -35.5t-6 -27q-14 0 -23 12t-9 18z" />
    <glyph glyph-name="grave" unicode="`" horiz-adv-x="142" 
d="M24 741q8 14 15 16t20 2l68 -91q-3 -6 -5 -14.5t-6 -14.5t-11 -6.5t-19 9.5z" />
    <glyph glyph-name="acute" unicode="&#xb4;" horiz-adv-x="144" 
d="M65 642q-12 -10 -19 -9.5t-11 6.5t-6 14.5t-5 14.5l68 91q13 0 20 -2t15 -16z" />
    <glyph glyph-name="circumflex" unicode="&#x2c6;" horiz-adv-x="218" 
d="M92 743q8 14 15 16t20 2l72 -97q-3 -6 -5 -14.5t-6 -14.5t-11 -6.5t-19 9.5l-44 54l-36 -58q-11 -14 -26 -10.5t-22 16.5z" />
    <glyph glyph-name="caron" unicode="&#x2c7;" horiz-adv-x="256" 
d="M135 650q-8 -14 -15 -16t-20 -2l-91 110q3 6 4.5 13.5t4.5 12.5t9 5t18 -10l63 -81l66 80q17 20 25 14t11 -26z" />
    <glyph glyph-name="dieresis" unicode="&#xa8;" horiz-adv-x="282" 
d="M55 654q-8 12 -4.5 27t13 24.5t22.5 10t25 -16.5q9 -11 5.5 -26t-13.5 -24.5t-23.5 -10.5t-24.5 16zM184 658q-8 10 -5 25t12.5 25t23 11t25.5 -16q10 -11 8.5 -26.5t-11 -26t-24 -11t-29.5 18.5z" />
    <glyph glyph-name="cedilla" unicode="&#xb8;" horiz-adv-x="272" 
d="M62 -172q-4 11 -1 19t9 11.5t13 1.5t11 -10q8 -25 27.5 -39t39.5 -17t36.5 6t19.5 31q0 21 -9.5 34.5t-23.5 24t-30.5 19.5t-30.5 20.5t-23.5 27t-9.5 39.5q-7 28 -0.5 38.5t16 8t17 -16.5t2.5 -36q7 -15 27.5 -29t42.5 -31.5t39.5 -39.5t18.5 -53q-2 -47 -24 -67.5
t-52 -19.5t-62 21.5t-53 56.5z" />
    <glyph glyph-name="ring" unicode="&#x2da;" horiz-adv-x="196" 
d="M81 632q-32 1 -48.5 11t-19.5 24t5.5 29.5t25 28t39 19.5t48.5 3q37 -10 48.5 -30t2.5 -39.5t-35.5 -33.5t-65.5 -12zM114 718q-22 1 -37.5 -6t-21.5 -17.5t0 -21t27 -17.5q28 2 44.5 11t20.5 19.5t-4.5 19.5t-28.5 12z" />
    <glyph glyph-name="fi" unicode="&#xfb01;" horiz-adv-x="567" 
d="M183 410q-17 0 -33.5 -5t-32.5 -12.5t-32 -16.5t-32 -16q-14 0 -18.5 2.5t-8.5 17.5q0 16 20 29.5t46 24.5t52.5 19.5t38.5 15.5q2 38 3.5 78t3.5 77q3 30 9.5 57t19.5 47.5t34.5 33t54.5 12.5q32 0 50 -21.5t18 -51.5q2 -14 -1.5 -20t-9.5 -9t-14 -3.5t-15 -2.5
q-8 40 -24 50.5t-32 1.5t-28.5 -33t-13.5 -52l-2 -147q6 -2 23.5 3.5t40 16t47.5 23t48 23.5t40.5 19.5t24.5 9.5q5 3 10.5 3t8.5 -3.5t3 -11.5t-5 -20l-237 -121q-2 -53 -3.5 -113t-2 -120t0 -116t3.5 -99q-19 -21 -30.5 -18.5t-15.5 21.5zM473 604q19 -65 30.5 -145
t18 -160t9 -153t4.5 -122q0 -20 -11.5 -23.5t-29.5 -0.5q-13 146 -22 293.5t-32 293.5zM461 637q-12 -5 -24.5 -2t-20 11t-7 19t16.5 23q17 6 34.5 0.5t26.5 -15t5 -20.5t-31 -16z" />
    <glyph glyph-name="fl" unicode="&#xfb02;" horiz-adv-x="585" 
d="M183 410q-17 0 -33.5 -5t-32.5 -12.5t-32 -16.5t-32 -16q-14 0 -18.5 2.5t-8.5 17.5q0 16 20 29.5t46 24.5t52.5 19.5t38.5 15.5q2 38 3.5 78t3.5 77q3 30 9.5 57t19.5 47.5t34.5 33t54.5 12.5q32 0 50 -21.5t18 -51.5q2 -14 -1.5 -20t-9.5 -9t-14 -3.5t-15 -2.5
q-8 40 -24 50.5t-32 1.5t-28.5 -33t-13.5 -52l-2 -147q6 -2 23.5 3.5t40 16t47.5 23t48 23.5t40.5 19.5t24.5 9.5q5 3 10.5 3t8.5 -3.5t3 -11.5t-5 -20l-237 -121q-2 -53 -3.5 -113t-2 -120t0 -116t3.5 -99q-19 -21 -30.5 -18.5t-15.5 21.5zM476 699q12 -184 19 -301
t10.5 -186t4.5 -100.5t2 -45t3 -19t7 -22.5q2 -9 -3.5 -17.5t-14 -13t-19 -2t-19.5 14.5l-32 696q1 15 6.5 24.5t12 10.5t13 -8t10.5 -31z" />
    <glyph glyph-name="Lslash" unicode="&#x141;" horiz-adv-x="525" 
d="M49 33q-8 47 -13.5 112t-8.5 138q-22 -13 -40.5 -21.5t-32 -9t-21 7.5t-5.5 28l97 70q-3 95 -4 185.5t-3 157.5q28 0 38.5 -6.5t12 -19t-1.5 -31t-3 -42.5q0 -11 1 -32t2.5 -48.5t3.5 -60t4 -67.5l144 104l31 -45q-12 -9 -30.5 -24.5t-41 -34t-48 -38.5t-50.5 -38
q3 -43 5.5 -84t4.5 -76t3.5 -62t2.5 -40q10 -5 40 1t70 17.5t85.5 26t85 27.5t69 22t38.5 10q12 0 15 -9t9 -20q-10 -6 -42.5 -18.5t-77 -27.5t-94.5 -31t-94 -28.5t-76.5 -20t-41.5 -5.5q-3 1 -8.5 5t-10.5 9t-9 10.5t-5 8.5z" />
    <glyph glyph-name="lslash" unicode="&#x142;" horiz-adv-x="148" 
d="M62 708q12 -184 19 -301t10.5 -186t4.5 -100.5t2 -45t3 -19t7 -22.5q2 -9 -3.5 -17.5t-14 -13t-19 -2t-19.5 14.5l-32 696q1 15 6.5 24.5t12 10.5t13 -8t10.5 -31zM162.568 355q-10.0469 0 -29.583 -4.5q-19.5352 -4.5 -42.9785 -8.5q-23.4424 -4 -47.4443 -5.5
q-24.001 -1.5 -42.1416 3q-18.1396 4.5 -27.6289 17t-3.90723 37.5l193.684 14v-53v0z" />
    <glyph glyph-name="Zcaron" unicode="&#x17d;" horiz-adv-x="623" 
d="M183 -36q-53 1 -72 22.5t-16.5 54.5t20 73.5t36.5 78t33 68.5t10 46q-18 3 -36.5 -4t-34.5 -14t-27.5 -7t-16.5 17q0 19 10.5 29.5t26.5 16.5t35.5 9t38 8t33.5 13t22 23q12 27 25.5 56.5t25.5 60t19.5 62t7.5 62.5q-54 3 -96 -6t-75 -23.5t-58.5 -30t-47.5 -24.5
q-11 0 -20 6t-11 17q6 16 28 32t52.5 30.5t66.5 26t70.5 19t63.5 10t47 -2.5q20 -6 27 -22.5t5 -39.5t-10 -51.5t-18 -59.5t-20.5 -62t-16.5 -60q67 11 120 19.5t110 12.5q3 -27 -7 -40.5t-29 -20.5t-45 -9t-55.5 -5t-61 -9.5t-60.5 -21.5q-12 -26 -33.5 -64.5t-43.5 -79.5
t-38.5 -80.5t-18.5 -67.5q24 -17 63 -18t85 9t95 29t91.5 41.5t74.5 47t45 45.5q16 -31 0.5 -58.5t-51.5 -51t-86 -43t-102 -33.5t-100 -23.5t-80 -12.5zM272 735q-8 -14 -15 -16t-20 -2l-91 110q3 6 4.5 13.5t4.5 12.5t9 5t18 -10l63 -81l66 80q17 20 25 14t11 -26z" />
    <glyph glyph-name="zcaron" unicode="&#x17e;" horiz-adv-x="541" 
d="M183 -7q-45 3 -65.5 26t-23.5 57.5t7.5 77t27 84.5t34.5 79t31 61l-181 -47q-3 24 7.5 38t29 22t42 12.5t48.5 9t47.5 11.5t39.5 20l70 143q-39 7 -70.5 -3t-61.5 -24.5t-61 -27.5t-69 -11q-7 14 5 28t36 26.5t57.5 24t68.5 19.5t68.5 12.5t59.5 4.5q29 -11 33 -22.5
t-7 -32.5t-31.5 -55.5t-39.5 -91.5l108 35q12 -9 4 -23.5t-29.5 -29.5t-53.5 -27t-69 -16q-12 -20 -28 -52.5t-31 -69.5t-27 -74t-14.5 -67t6 -49t33.5 -18q46 -6 89.5 10.5t80.5 42.5t64.5 55.5t42.5 49.5q3 -42 -25.5 -80.5t-71.5 -67.5t-92.5 -45.5t-88.5 -14.5zM239 721
q-8 -14 -15 -16t-20 -2l-91 110q3 6 4.5 13.5t4.5 12.5t9 5t18 -10l63 -81l66 80q17 20 25 14t11 -26z" />
    <glyph glyph-name="florin" unicode="&#x192;" horiz-adv-x="492" 
d="M63 -273q44 -20 73.5 -10.5t47 39t25 75.5t9 100.5t-2.5 112t-9.5 111t-11 98t-7.5 72.5q-3 0 -10 -0.5t-8 -0.5q-5 -1 -21.5 -8t-36 -15.5t-36.5 -16t-21 -9.5h-8h-9q-2 1 -8 7.5t-8 8.5q-1 2 -1 4q-1 2 -1 4q0 16 21.5 29.5t49.5 25t55.5 20t39.5 15.5q1 19 0 50.5
t-1.5 65.5t-1 65.5t0.5 49.5q3 30 9.5 57t20.5 47.5t35.5 32.5t54.5 12q32 0 50 -25.5t18 -55.5q0 -8 -4 -11.5t-10 -6.5l-13 -6.5t-13 -10.5q-8 40 -24 50.5t-32 1.5t-28.5 -33t-13.5 -52l18 -211q6 -2 22 3.5t37 15t44.5 21.5t44.5 22.5t37.5 18.5t23.5 9q2 0 10 -14.5
t10 -29.5l-229 -115q-8 -23 -6 -68t8 -103t12.5 -123.5t7 -128t-8 -117.5t-32.5 -92.5t-67 -51.5t-111 5q-15 11 -21 26t-4 27t11 17t23 -4z" />
    <glyph glyph-name="Scaron" unicode="&#x160;" horiz-adv-x="475" 
d="M127 51q0 1 3.5 4.5l8 8l8 8t3.5 4.5q29 -24 49 -29t49 -5q26 0 55 13t53.5 34t40.5 47t16 53q0 39 -29.5 61.5t-74 37.5t-96 26t-96 26.5t-74 38.5t-29.5 62q0 43 17.5 87.5t47.5 80t69.5 58t83.5 22.5q28 0 49.5 -10t36.5 -27.5t23 -40.5t8 -50q0 -18 -1 -34
t-3.5 -31.5t-6 -32t-8.5 -36.5q-1 -2 -3.5 -2.5t-4.5 -0.5q-18 0 -22 16t-2.5 40.5t3.5 52.5t-3 52.5t-21.5 40.5t-52.5 16q-30 0 -59 -15.5t-51.5 -40.5t-36 -56.5t-13.5 -63.5q0 -33 29.5 -55t73 -38t95 -29.5t95 -30.5t73 -40.5t29.5 -59.5q0 -37 -16.5 -75t-44.5 -69
t-63.5 -51t-72.5 -20q-13 0 -36 2.5t-45 8.5t-38 16t-16 26zM257 736q-8 -14 -15 -16t-20 -2l-91 110q3 6 4.5 13.5t4.5 12.5t9 5t18 -10l63 -81l66 80q17 20 25 14t11 -26z" />
    <glyph glyph-name="OE" unicode="&#x152;" horiz-adv-x="746" 
d="M141 0q-36 7 -59 41.5t-35 86t-12.5 113.5t10 123.5t31.5 116.5t51.5 91.5t71 49t90.5 -10.5q29 31 64.5 50.5t76.5 19.5q21 -1 38.5 -15t25.5 -30t5 -29.5t-23 -14.5q-8 26 -34 39.5t-56 7.5q-22 -5 -47 -26.5t-47 -51.5t-38 -63.5t-19 -62t10 -48t49 -20.5
q27 0 52.5 13t49.5 28.5t46.5 29t43.5 14.5q4 0 9.5 -0.5t10.5 -2t9 -5t4 -10.5q0 -16 -20.5 -33t-51.5 -36.5t-67.5 -43t-67.5 -52t-51.5 -63t-20.5 -76.5q0 -27 9 -45t25 -28t37 -14t44 -4q55 0 105 19t95.5 49.5t85.5 68.5t75 77h19q0 -28 -20.5 -59t-53 -60t-73.5 -55.5
t-81.5 -46.5t-76.5 -31.5t-60 -11.5q-36 0 -76.5 9.5t-69.5 33.5q-9 -5 -20 -11t-22 -11t-21.5 -8t-19.5 -2zM189 112q-1 33 14 66t34.5 61.5t36.5 51t20 34.5q-2 1 -19.5 2.5t-37 9t-34.5 22.5t-12 42q5 43 24 90.5t50 89.5q-31 14 -59 2.5t-51.5 -40.5t-41 -72t-28 -91.5
t-13.5 -99.5t3.5 -95.5t22.5 -79t44 -51.5q27 -3 56 13q-9 19 -9 45z" />
    <glyph glyph-name="trademark" unicode="&#x2122;" horiz-adv-x="1170" 
d="M1000 602q-3 -10 -9 -29t-14 -43.5t-17 -51.5t-17.5 -51t-15 -43t-9.5 -28q-9 -26 -22 -68t-31 -82t-42.5 -68.5t-58.5 -28.5q-35 0 -60 19t-43 46.5t-31 59t-23 57.5v-213q2 -9 -4.5 -16.5t-15.5 -11t-18 -1.5t-12 12q-1 19 -2 58.5t-3 89.5t-3.5 105.5t-3 105.5t-3 90
t-1.5 59q0 4 -0.5 11t-0.5 14t2 13.5t7 9.5q-51 -8 -103 -18.5t-102 -21.5t-96.5 -22.5t-86.5 -21.5q-4 0 -18.5 -5t-31 -10.5t-31 -10.5t-18.5 -6q-1 0 -7.5 -1t-8.5 -1q-13 0 -24 5.5t-11 20.5t16.5 24.5t39 16.5t44.5 10.5t33 6.5q75 18 145 31t140 21.5t141 13t148 4.5
v-21q-38 -1 -77 -4.5t-81 -9.5q22 -2 35.5 -22.5t23 -53t15.5 -74t12.5 -84t14.5 -83.5t21 -72.5t32 -51t48 -19.5q2 0 4.5 1t4.5 1q40 67 68.5 136.5t53.5 139.5t50 140.5t57 140.5q28 9 38 -5.5t11 -43.5l99 -558q0 -8 1 -23.5t-0.5 -32t-6.5 -29.5t-17 -15
q-17 0 -29 34.5t-21.5 89t-16.5 122t-15.5 133.5t-18.5 122.5t-24 90.5zM292 -90q0 13 0.5 40.5t0.5 61.5v71.5v71.5t-0.5 60.5t-0.5 39.5q0 6 -1 26.5t-3 47.5t-4 57t-4 57t-3.5 47t-1.5 27q0 23 6 28t14 0t16 -18t13 -26q3 -59 5.5 -119.5t4.5 -124t3.5 -133t3.5 -146.5
q0 -12 -1 -23.5t-6 -21t-15 -16t-27 -7.5z" />
    <glyph glyph-name="scaron" unicode="&#x161;" horiz-adv-x="377" 
d="M192 -2q-32 2 -61 6.5t-52 12.5t-37.5 20t-17.5 29q18 0 37.5 -4.5t39 -10.5t40 -10.5t41.5 -4.5q20 0 43 5.5t42 17t31.5 29.5t12.5 43q0 33 -19.5 63t-49 59t-63.5 58t-63.5 59.5t-49 63.5t-19.5 70q0 27 16 49.5t39.5 38t51 24.5t51.5 9q18 2 37 -4t33 -19.5t20.5 -34
t-0.5 -46.5q-3 -17 -8 -24t-10.5 -6t-12 7t-13.5 14q0 12 -0.5 25t-3.5 23.5t-10.5 17t-22.5 6.5q-19 0 -40 -6t-38 -17.5t-28.5 -28t-11.5 -38.5q-5 -19 14.5 -45t50.5 -57t68 -65t67 -69.5t47.5 -71t10.5 -68.5q-3 -36 -16.5 -59.5t-35.5 -37t-50 -18.5t-60 -5zM176 695
q-8 -14 -15 -16t-20 -2l-91 110q3 6 4.5 13.5t4.5 12.5t9 5t18 -10l63 -81l66 80q17 20 25 14t11 -26z" />
    <glyph glyph-name="oe" unicode="&#x153;" horiz-adv-x="516" 
d="M14 184q-3 60 6 123t27.5 119t46 99.5t60.5 64.5t70.5 13.5t77.5 -52.5q27 38 58 57.5t65 8.5q7 1 20.5 -12.5t21.5 -42t5 -72t-27.5 -104t-76 -137.5t-141.5 -172q18 -28 43 -33t53 5t56 31.5t52 45.5t41.5 47.5t24.5 37.5q17 -15 13 -37.5t-21.5 -47.5t-45 -49.5
t-57.5 -43.5t-59 -30.5t-49 -9.5q-21 0 -41 10.5t-36 27.5q-40 -31 -85 -34q-32 6 -51 26.5t-30 48.5t-15.5 58t-5.5 54zM167 115q0 33 8.5 84.5t23.5 109t37 115t49 102.5q-35 29 -66 27t-57.5 -26.5t-47 -66.5t-33.5 -91.5t-18.5 -101.5t-2 -96.5t17.5 -78t39 -44.5
q15 2 29 9t28 18q-7 18 -7 40zM397 561q-18 0 -37.5 -25.5t-39 -65.5t-37 -88t-31.5 -93t-23 -81t-10 -51q15 -1 40 26.5t52 70.5t52 94.5t39.5 96.5t15.5 77.5t-21 38.5z" />
    <glyph glyph-name="Ydieresis" unicode="&#x178;" horiz-adv-x="426" 
d="M242 256q-70 79 -130 175t-102 193q9 20 24.5 10t35 -37.5t42 -67.5t46.5 -81t48.5 -77.5t47.5 -56.5q6 22 13 67t17 97.5t22 105t26 89t31 49t37 -13.5q-33 -81 -56.5 -162.5t-38 -168.5t-21 -183t-4.5 -206q-9 -20 -20.5 -24.5t-26.5 20.5zM89 739q-8 12 -4.5 27
t13 24.5t22.5 10t25 -16.5q9 -11 5.5 -26t-13.5 -24.5t-23.5 -10.5t-24.5 16zM218 743q-8 10 -5 25t12.5 25t23 11t25.5 -16q10 -11 8.5 -26.5t-11 -26t-24 -11t-29.5 18.5z" />
    <glyph glyph-name="exclamdown" unicode="&#xa1;" horiz-adv-x="118" 
d="M90.207 544.638q-3.20703 7.31641 -8.55176 10.9756q-5.34473 3.6582 -12.8271 4.57227q-7.4834 0.915039 -15.5 0.458008q-8.01758 -0.458008 -15.5 -1.37207l5.34473 -543.279q0 -5.48828 6.41309 -9.14648q6.41406 -3.6582 14.4316 -4.11523
q8.01758 -0.458008 14.9658 3.2002q6.94824 3.65918 9.08594 11.8906zM83.793 670.854q-12.8271 4.57324 -26.1895 1.83008q-13.3623 -2.74414 -21.3789 -10.0615q-8.01758 -7.31641 -7.4834 -17.377q0.535156 -10.0615 17.6387 -21.0361q9.62012 -7.31738 22.4482 -4.11621
q12.8271 3.20117 21.3789 11.4326t9.08691 19.6641q0.53418 11.4326 -15.501 19.6641z" />
    <glyph glyph-name="yen" unicode="&#xa5;" horiz-adv-x="426" 
d="M310 242q-2 -12 -2.5 -24.5t-1.5 -25.5q12 1 22 1.5t15 0.5q8 0 20.5 -0.5t25 -0.5t22 -0.5t10.5 -0.5v-49l-37 -7q-26 -1 -46 -1.5t-37 -0.5q-2 -24 -3 -47.5t-3 -47.5v-6q-2 -3 -6.5 -8t-9.5 -10t-10 -9.5t-7 -5.5t-4 -1q-1 -1 -3 -1h-1q-3 0 -5 1q-2 0 -3 1
q-4 2 -10.5 8.5t-6.5 7.5v113q-24 -4 -53 -10.5t-81 -19.5q-2 0 -9 -2.5t-15.5 -5.5t-15.5 -5.5t-9 -2.5q-7 0 -10.5 4t-5 9.5t-2 11.5t-0.5 9q0 14 19 25t48 19t65 14t70 10v56q-24 -1 -38 -2.5t-27 -3t-29 -3t-44 -1.5q-11 0 -23 2t-16 17q18 26 37 36.5t41 12t46 -2.5
t51 -6l-22 27.5t-28 37t-27 39t-20 32.5q-9 16 -21 41t-25 52.5t-26 54.5t-23 49t-15.5 36t-4.5 14l42 13q13 -28 33 -75t44 -96t52.5 -92t58.5 -62q5 22 12 67t15.5 97.5t19 105t24 89t29.5 49.5t36 -13q-15 -73 -25 -130t-17.5 -109.5t-13.5 -106t-12 -119.5
q20 0 37.5 0.5t22.5 0.5q7 0 7 -11v-19z" />
    <glyph glyph-name="questiondown" unicode="&#xbf;" horiz-adv-x="481" 
d="M340.381 681.102q-2.99316 -9.12207 -12.9707 -17.2314q-9.97656 -8.1084 -20.9512 -13.1768t-20.4521 -5.06836t-13.4688 8.10938q-3.99121 8.1084 0.499023 25.8467q4.48926 17.7383 21.4502 48.1465q11.9717 6.08203 20.4521 4.05469t14.4668 -9.62891
q5.98535 -7.60254 8.47949 -18.752q2.49512 -11.1504 2.49512 -22.2998zM91.958 121.589q0 -15.2041 8.97949 -26.8613q8.97852 -11.6562 22.4473 -19.2588q13.4688 -7.60156 27.9355 -11.6562q14.4658 -4.05469 26.4385 -4.05469q43.8975 0 82.3086 19.2588
q38.4102 19.2588 71.833 50.1738q33.4219 30.915 61.3574 69.9395q27.9346 39.0234 49.8838 78.5547h18.9561q0 -58.7891 -27.9355 -108.963q-27.9346 -50.1738 -70.3359 -86.6641t-92.2861 -57.2686q-49.8838 -20.7793 -93.7812 -20.7793q-14.9658 0 -40.4062 7.60156
q-25.4414 7.60254 -49.3857 21.793t-40.9043 34.4629q-16.9609 20.2725 -13.9678 45.6123q3.99121 35.4766 21.9492 76.5273q17.958 41.0518 45.3945 81.5957q27.4355 40.5449 61.3574 78.0488q33.9209 37.5029 70.3359 66.3906q36.415 28.8887 72.332 46.1201
t66.8447 17.2314q0 -21.2861 -20.4521 -44.0928q-20.4531 -22.8057 -51.8799 -47.6396q-31.4268 -24.833 -67.3438 -52.708q-35.916 -27.874 -67.3428 -60.3096t-51.8799 -70.4463q-20.4521 -38.0098 -20.4521 -82.6084z" />
    <glyph glyph-name="Agrave" unicode="&#xc0;" horiz-adv-x="574" 
d="M9 -61q0 14 11.5 40.5t26.5 55.5t28 54.5t16 37.5q2 10 11 41t20.5 73t25 89t25 89t20 73.5t11.5 41.5q5 19 11 50.5t16 61.5t25.5 51.5t39.5 21.5q8 0 15 -6t12.5 -14t9 -16.5t4.5 -14.5q21 -83 36 -141t25.5 -96t17.5 -59.5t11 -32t5.5 -13t2.5 -2.5q18 10 34.5 16
t36.5 4q0 -16 -9 -26.5t-19.5 -19.5t-19 -19.5t-8.5 -26.5q0 -36 15 -68.5t33 -64.5t33 -63.5t15 -65.5q-25 -13 -41.5 -3t-29 33.5t-21.5 56.5t-20.5 65.5t-26 60t-36.5 41.5q-3 0 -20.5 -5.5t-42 -15t-52.5 -22t-52.5 -25.5t-42 -25.5t-21.5 -23.5l-65 -197
q-5 -14 -14 -16t-19 -2q-13 0 -23 6t-10 21zM173 225q10 3 35.5 8.5t57 15t63.5 24t54 35.5q-3 13 -10.5 41.5t-17 64t-20.5 74.5t-21.5 73t-20 60t-15.5 35zM221 881q8 14 15 16t20 2l68 -91q-3 -6 -5 -14.5t-6 -14.5t-11 -6.5t-19 9.5z" />
    <glyph glyph-name="Aacute" unicode="&#xc1;" horiz-adv-x="574" 
d="M9 -61q0 14 11.5 40.5t26.5 55.5t28 54.5t16 37.5q2 10 11 41t20.5 73t25 89t25 89t20 73.5t11.5 41.5q5 19 11 50.5t16 61.5t25.5 51.5t39.5 21.5q8 0 15 -6t12.5 -14t9 -16.5t4.5 -14.5q21 -83 36 -141t25.5 -96t17.5 -59.5t11 -32t5.5 -13t2.5 -2.5q18 10 34.5 16
t36.5 4q0 -16 -9 -26.5t-19.5 -19.5t-19 -19.5t-8.5 -26.5q0 -36 15 -68.5t33 -64.5t33 -63.5t15 -65.5q-25 -13 -41.5 -3t-29 33.5t-21.5 56.5t-20.5 65.5t-26 60t-36.5 41.5q-3 0 -20.5 -5.5t-42 -15t-52.5 -22t-52.5 -25.5t-42 -25.5t-21.5 -23.5l-65 -197
q-5 -14 -14 -16t-19 -2q-13 0 -23 6t-10 21zM173 225q10 3 35.5 8.5t57 15t63.5 24t54 35.5q-3 13 -10.5 41.5t-17 64t-20.5 74.5t-21.5 73t-20 60t-15.5 35zM283 750q-12 -10 -19 -9.5t-11 6.5t-6 14.5t-5 14.5l68 91q13 0 20 -2t15 -16z" />
    <glyph glyph-name="Acircumflex" unicode="&#xc2;" horiz-adv-x="574" 
d="M9 -61q0 14 11.5 40.5t26.5 55.5t28 54.5t16 37.5q2 10 11 41t20.5 73t25 89t25 89t20 73.5t11.5 41.5q5 19 11 50.5t16 61.5t25.5 51.5t39.5 21.5q8 0 15 -6t12.5 -14t9 -16.5t4.5 -14.5q21 -83 36 -141t25.5 -96t17.5 -59.5t11 -32t5.5 -13t2.5 -2.5q18 10 34.5 16
t36.5 4q0 -16 -9 -26.5t-19.5 -19.5t-19 -19.5t-8.5 -26.5q0 -36 15 -68.5t33 -64.5t33 -63.5t15 -65.5q-25 -13 -41.5 -3t-29 33.5t-21.5 56.5t-20.5 65.5t-26 60t-36.5 41.5q-3 0 -20.5 -5.5t-42 -15t-52.5 -22t-52.5 -25.5t-42 -25.5t-21.5 -23.5l-65 -197
q-5 -14 -14 -16t-19 -2q-13 0 -23 6t-10 21zM173 225q10 3 35.5 8.5t57 15t63.5 24t54 35.5q-3 13 -10.5 41.5t-17 64t-20.5 74.5t-21.5 73t-20 60t-15.5 35zM264 871q8 14 15 16t20 2l72 -97q-3 -6 -5 -14.5t-6 -14.5t-11 -6.5t-19 9.5l-44 54l-36 -58q-11 -14 -26 -10.5
t-22 16.5z" />
    <glyph glyph-name="Atilde" unicode="&#xc3;" horiz-adv-x="574" 
d="M9 -61q0 14 11.5 40.5t26.5 55.5t28 54.5t16 37.5q2 10 11 41t20.5 73t25 89t25 89t20 73.5t11.5 41.5q5 19 11 50.5t16 61.5t25.5 51.5t39.5 21.5q8 0 15 -6t12.5 -14t9 -16.5t4.5 -14.5q21 -83 36 -141t25.5 -96t17.5 -59.5t11 -32t5.5 -13t2.5 -2.5q18 10 34.5 16
t36.5 4q0 -16 -9 -26.5t-19.5 -19.5t-19 -19.5t-8.5 -26.5q0 -36 15 -68.5t33 -64.5t33 -63.5t15 -65.5q-25 -13 -41.5 -3t-29 33.5t-21.5 56.5t-20.5 65.5t-26 60t-36.5 41.5q-3 0 -20.5 -5.5t-42 -15t-52.5 -22t-52.5 -25.5t-42 -25.5t-21.5 -23.5l-65 -197
q-5 -14 -14 -16t-19 -2q-13 0 -23 6t-10 21zM173 225q10 3 35.5 8.5t57 15t63.5 24t54 35.5q-3 13 -10.5 41.5t-17 64t-20.5 74.5t-21.5 73t-20 60t-15.5 35zM132 755q0 9 3.5 27t12.5 36t24 31.5t37 13.5q29 0 51 -13t43 -28t44 -28t53 -13q24 -1 43 8.5t33.5 24t25 30.5
t16.5 27q3 1 7.5 -2.5t8.5 -9t5.5 -11.5t-1.5 -9q0 -16 -13.5 -32.5t-33.5 -29.5t-43.5 -21.5t-43.5 -8.5q-53 1 -95 25t-87 57q-21 1 -31 -11.5t-14.5 -30t-6.5 -35.5t-6 -27q-14 0 -23 12t-9 18z" />
    <glyph glyph-name="Adieresis" unicode="&#xc4;" horiz-adv-x="574" 
d="M9 -61q0 14 11.5 40.5t26.5 55.5t28 54.5t16 37.5q2 10 11 41t20.5 73t25 89t25 89t20 73.5t11.5 41.5q5 19 11 50.5t16 61.5t25.5 51.5t39.5 21.5q8 0 15 -6t12.5 -14t9 -16.5t4.5 -14.5q21 -83 36 -141t25.5 -96t17.5 -59.5t11 -32t5.5 -13t2.5 -2.5q18 10 34.5 16
t36.5 4q0 -16 -9 -26.5t-19.5 -19.5t-19 -19.5t-8.5 -26.5q0 -36 15 -68.5t33 -64.5t33 -63.5t15 -65.5q-25 -13 -41.5 -3t-29 33.5t-21.5 56.5t-20.5 65.5t-26 60t-36.5 41.5q-3 0 -20.5 -5.5t-42 -15t-52.5 -22t-52.5 -25.5t-42 -25.5t-21.5 -23.5l-65 -197
q-5 -14 -14 -16t-19 -2q-13 0 -23 6t-10 21zM173 225q10 3 35.5 8.5t57 15t63.5 24t54 35.5q-3 13 -10.5 41.5t-17 64t-20.5 74.5t-21.5 73t-20 60t-15.5 35zM210.099 790.863q-7.1416 10.3828 -4.01758 23.3613q3.125 12.9785 11.6055 21.1982t20.0859 8.65234
q11.6045 0.432617 22.3174 -14.2764q8.03418 -9.51758 4.91016 -22.4961q-3.125 -12.9785 -12.0518 -21.1982t-20.9785 -9.08496t-21.8711 13.8438zM325.257 794.324q-7.1416 8.65234 -4.46387 21.6309q2.67871 12.9785 11.1592 21.6309t20.5322 9.51758
q12.0508 0.865234 22.7637 -13.8438q8.92676 -9.51758 7.58789 -22.9287t-9.81934 -22.4961q-8.48145 -9.08496 -21.4248 -9.51758q-12.9443 -0.432617 -26.335 16.0068z" />
    <glyph glyph-name="Aring" unicode="&#xc5;" horiz-adv-x="574" 
d="M9 -61q0 14 11.5 40.5t26.5 55.5t28 54.5t16 37.5q2 10 11 41t20.5 73t25 89t25 89t20 73.5t11.5 41.5q5 19 11 50.5t16 61.5t25.5 51.5t39.5 21.5q8 0 15 -6t12.5 -14t9 -16.5t4.5 -14.5q21 -83 36 -141t25.5 -96t17.5 -59.5t11 -32t5.5 -13t2.5 -2.5q18 10 34.5 16
t36.5 4q0 -16 -9 -26.5t-19.5 -19.5t-19 -19.5t-8.5 -26.5q0 -36 15 -68.5t33 -64.5t33 -63.5t15 -65.5q-25 -13 -41.5 -3t-29 33.5t-21.5 56.5t-20.5 65.5t-26 60t-36.5 41.5q-3 0 -20.5 -5.5t-42 -15t-52.5 -22t-52.5 -25.5t-42 -25.5t-21.5 -23.5l-65 -197
q-5 -14 -14 -16t-19 -2q-13 0 -23 6t-10 21zM173 225q10 3 35.5 8.5t57 15t63.5 24t54 35.5q-3 13 -10.5 41.5t-17 64t-20.5 74.5t-21.5 73t-20 60t-15.5 35zM264 758q-32 1 -48.5 11t-19.5 24t5.5 29.5t25 28t39 19.5t48.5 3q37 -10 48.5 -30t2.5 -39.5t-35.5 -33.5
t-65.5 -12zM297 844q-22 1 -37.5 -6t-21.5 -17.5t0 -21t27 -17.5q28 2 44.5 11t20.5 19.5t-4.5 19.5t-28.5 12z" />
    <glyph glyph-name="AE" unicode="&#xc6;" horiz-adv-x="851" 
d="M292 162q-1 23 6.5 46t19.5 45q-24 -9 -51 -21t-50 -24.5t-40 -25t-20 -22.5l-65 -197q-5 -14 -14 -16t-19 -2q-13 0 -23 6t-10 21q0 14 11.5 40.5t26.5 55.5t28 54.5t16 37.5q2 10 11 41t20.5 73t25 89t25 89t20 73.5t11.5 41.5q5 19 11 50.5t16 61.5t25.5 51.5
t39.5 21.5q2 0 10 -16t17 -37t16.5 -41t8.5 -27q9 15 23.5 33.5t35.5 34t48 25t61 7.5q21 -1 38.5 -15t25.5 -30t5 -29.5t-23 -14.5q-8 26 -34 39.5t-56 7.5q-19 -4 -40.5 -22t-41.5 -48.5t-37.5 -73t-27.5 -96.5q11 -31 55 -32q27 0 52.5 13t49.5 28.5t46.5 29t43.5 14.5
q4 0 9.5 -0.5t10.5 -2t9 -5t4 -10.5q0 -16 -20.5 -33t-51.5 -36.5t-67.5 -43t-67.5 -52t-51.5 -63t-20.5 -76.5q0 -27 9 -45t25 -28t37 -14t44 -4q55 0 105 19t95.5 49.5t85.5 68.5t75 77h19q0 -28 -20.5 -59t-53 -60t-73.5 -55.5t-81.5 -46.5t-76.5 -31.5t-60 -11.5
q-29 0 -60.5 5.5t-58.5 20t-44.5 38t-17.5 59.5zM397 375q-10 -3 -28.5 0t-36 12t-29.5 25t-9 39q3 27 12.5 57t23.5 60q-10 51 -19 81t-16 40l-105 -431q5 1 20.5 4t36.5 7t44.5 9.5t44.5 11.5z" />
    <glyph glyph-name="Ccedilla" unicode="&#xc7;" horiz-adv-x="525" 
d="M31 211q0 34 4.5 83t15.5 102t28.5 105.5t43.5 94t61.5 67.5t81.5 26q36 0 54.5 -19t27 -46.5t9 -60t0.5 -59.5q-20 0 -28.5 11.5t-12 28t-5 36.5t-7 36.5t-18 28t-38.5 11.5q-31 0 -55.5 -25.5t-43 -66t-31.5 -89.5t-21.5 -96.5t-12 -87.5t-3.5 -61q-2 -27 0 -61.5
t12.5 -64.5t31.5 -49t57 -15q62 0 113.5 27.5t91 69.5t66.5 93t39 98h20q0 -59 -32.5 -117.5t-82.5 -106t-110.5 -77t-117.5 -29.5q-44 0 -71 20t-42 51.5t-20 69t-5 72.5zM131 -172q-4 11 -1 19t9 11.5t13 1.5t11 -10q8 -25 27.5 -39t39.5 -17t36.5 6t19.5 31
q0 21 -9.5 34.5t-23.5 24t-30.5 19.5t-30.5 20.5t-23.5 27t-9.5 39.5q-7 28 -0.5 38.5t16 8t17 -16.5t2.5 -36q7 -15 27.5 -29t42.5 -31.5t39.5 -39.5t18.5 -53q-2 -47 -24 -67.5t-52 -19.5t-62 21.5t-53 56.5z" />
    <glyph glyph-name="Egrave" unicode="&#xc8;" horiz-adv-x="590" 
d="M31 121q-1 33 14 66t34.5 61.5t36.5 51t20 34.5q-2 1 -19.5 2.5t-37 9t-34.5 22.5t-12 42q6 43 25.5 92.5t51 91t72.5 69t90 27.5q21 -1 38.5 -15t25.5 -30t5 -29.5t-23 -14.5q-8 26 -34 39.5t-56 7.5q-22 -5 -47 -26.5t-47 -51.5t-38 -63.5t-19 -62t10 -48t49 -20.5
q27 0 52.5 13t49.5 28.5t46.5 29t43.5 14.5q4 0 9.5 -0.5t10.5 -2t9 -5t4 -10.5q0 -16 -20.5 -33t-51.5 -36.5t-67.5 -43t-67.5 -52t-51.5 -63t-20.5 -76.5q0 -27 9 -45t25 -28t37 -14t44 -4q55 0 105 19t95.5 49.5t85.5 68.5t75 77h19q0 -28 -20.5 -59t-53 -60t-73.5 -55.5
t-81.5 -46.5t-76.5 -31.5t-60 -11.5q-29 0 -60.5 5.5t-58.5 20t-44.5 38t-17.5 59.5zM176 834q8 14 15 16t20 2l68 -91q-3 -6 -5 -14.5t-6 -14.5t-11 -6.5t-19 9.5z" />
    <glyph glyph-name="Eacute" unicode="&#xc9;" horiz-adv-x="590" 
d="M31 121q-1 33 14 66t34.5 61.5t36.5 51t20 34.5q-2 1 -19.5 2.5t-37 9t-34.5 22.5t-12 42q6 43 25.5 92.5t51 91t72.5 69t90 27.5q21 -1 38.5 -15t25.5 -30t5 -29.5t-23 -14.5q-8 26 -34 39.5t-56 7.5q-22 -5 -47 -26.5t-47 -51.5t-38 -63.5t-19 -62t10 -48t49 -20.5
q27 0 52.5 13t49.5 28.5t46.5 29t43.5 14.5q4 0 9.5 -0.5t10.5 -2t9 -5t4 -10.5q0 -16 -20.5 -33t-51.5 -36.5t-67.5 -43t-67.5 -52t-51.5 -63t-20.5 -76.5q0 -27 9 -45t25 -28t37 -14t44 -4q55 0 105 19t95.5 49.5t85.5 68.5t75 77h19q0 -28 -20.5 -59t-53 -60t-73.5 -55.5
t-81.5 -46.5t-76.5 -31.5t-60 -11.5q-29 0 -60.5 5.5t-58.5 20t-44.5 38t-17.5 59.5zM231 724q-12 -10 -19 -9.5t-11 6.5t-6 14.5t-5 14.5l68 91q13 0 20 -2t15 -16z" />
    <glyph glyph-name="Ecircumflex" unicode="&#xca;" horiz-adv-x="590" 
d="M31 121q-1 33 14 66t34.5 61.5t36.5 51t20 34.5q-2 1 -19.5 2.5t-37 9t-34.5 22.5t-12 42q6 43 25.5 92.5t51 91t72.5 69t90 27.5q21 -1 38.5 -15t25.5 -30t5 -29.5t-23 -14.5q-8 26 -34 39.5t-56 7.5q-22 -5 -47 -26.5t-47 -51.5t-38 -63.5t-19 -62t10 -48t49 -20.5
q27 0 52.5 13t49.5 28.5t46.5 29t43.5 14.5q4 0 9.5 -0.5t10.5 -2t9 -5t4 -10.5q0 -16 -20.5 -33t-51.5 -36.5t-67.5 -43t-67.5 -52t-51.5 -63t-20.5 -76.5q0 -27 9 -45t25 -28t37 -14t44 -4q55 0 105 19t95.5 49.5t85.5 68.5t75 77h19q0 -28 -20.5 -59t-53 -60t-73.5 -55.5
t-81.5 -46.5t-76.5 -31.5t-60 -11.5q-29 0 -60.5 5.5t-58.5 20t-44.5 38t-17.5 59.5zM224 833q8 14 15 16t20 2l72 -97q-3 -6 -5 -14.5t-6 -14.5t-11 -6.5t-19 9.5l-44 54l-36 -58q-11 -14 -26 -10.5t-22 16.5z" />
    <glyph glyph-name="Edieresis" unicode="&#xcb;" horiz-adv-x="590" 
d="M31 121q-1 33 14 66t34.5 61.5t36.5 51t20 34.5q-2 1 -19.5 2.5t-37 9t-34.5 22.5t-12 42q6 43 25.5 92.5t51 91t72.5 69t90 27.5q21 -1 38.5 -15t25.5 -30t5 -29.5t-23 -14.5q-8 26 -34 39.5t-56 7.5q-22 -5 -47 -26.5t-47 -51.5t-38 -63.5t-19 -62t10 -48t49 -20.5
q27 0 52.5 13t49.5 28.5t46.5 29t43.5 14.5q4 0 9.5 -0.5t10.5 -2t9 -5t4 -10.5q0 -16 -20.5 -33t-51.5 -36.5t-67.5 -43t-67.5 -52t-51.5 -63t-20.5 -76.5q0 -27 9 -45t25 -28t37 -14t44 -4q55 0 105 19t95.5 49.5t85.5 68.5t75 77h19q0 -28 -20.5 -59t-53 -60t-73.5 -55.5
t-81.5 -46.5t-76.5 -31.5t-60 -11.5q-29 0 -60.5 5.5t-58.5 20t-44.5 38t-17.5 59.5zM162 723q-8 12 -4.5 27t13 24.5t22.5 10t25 -16.5q9 -11 5.5 -26t-13.5 -24.5t-23.5 -10.5t-24.5 16zM291 727q-8 10 -5 25t12.5 25t23 11t25.5 -16q10 -11 8.5 -26.5t-11 -26t-24 -11
t-29.5 18.5z" />
    <glyph glyph-name="Igrave" unicode="&#xcc;" horiz-adv-x="131" 
d="M33 66q-1 17 -2.5 52.5t-3 82t-3 100.5t-2.5 108t-1.5 104.5t0.5 89t2.5 62.5t5.5 25h28q3 -37 3.5 -98t0.5 -130.5t0.5 -140t3.5 -128.5t9 -95.5t17 -39.5q0 -8 2.5 -18t2.5 -19.5t-4.5 -16t-17.5 -6.5q-10 0 -17 8.5t-12 20t-8 22.5t-4 17zM-17 846q8 14 15 16t20 2
l68 -91q-3 -6 -5 -14.5t-6 -14.5t-11 -6.5t-19 9.5z" />
    <glyph glyph-name="Iacute" unicode="&#xcd;" horiz-adv-x="131" 
d="M33 66q-1 17 -2.5 52.5t-3 82t-3 100.5t-2.5 108t-1.5 104.5t0.5 89t2.5 62.5t5.5 25h28q3 -37 3.5 -98t0.5 -130.5t0.5 -140t3.5 -128.5t9 -95.5t17 -39.5q0 -8 2.5 -18t2.5 -19.5t-4.5 -16t-17.5 -6.5q-10 0 -17 8.5t-12 20t-8 22.5t-4 17zM67 760q-12 -10 -19 -9.5
t-11 6.5t-6 14.5t-5 14.5l68 91q13 0 20 -2t15 -16z" />
    <glyph glyph-name="Icircumflex" unicode="&#xce;" horiz-adv-x="131" 
d="M33 66q-1 17 -2.5 52.5t-3 82t-3 100.5t-2.5 108t-1.5 104.5t0.5 89t2.5 62.5t5.5 25h28q3 -37 3.5 -98t0.5 -130.5t0.5 -140t3.5 -128.5t9 -95.5t17 -39.5q0 -8 2.5 -18t2.5 -19.5t-4.5 -16t-17.5 -6.5q-10 0 -17 8.5t-12 20t-8 22.5t-4 17zM30 861q8 14 15 16t20 2
l72 -97q-3 -6 -5 -14.5t-6 -14.5t-11 -6.5t-19 9.5l-44 54l-36 -58q-11 -14 -26 -10.5t-22 16.5z" />
    <glyph glyph-name="Idieresis" unicode="&#xcf;" horiz-adv-x="131" 
d="M33 66q-1 17 -2.5 52.5t-3 82t-3 100.5t-2.5 108t-1.5 104.5t0.5 89t2.5 62.5t5.5 25h28q3 -37 3.5 -98t0.5 -130.5t0.5 -140t3.5 -128.5t9 -95.5t17 -39.5q0 -8 2.5 -18t2.5 -19.5t-4.5 -16t-17.5 -6.5q-10 0 -17 8.5t-12 20t-8 22.5t-4 17zM-27 791q-8 12 -4.5 27
t13 24.5t22.5 10t25 -16.5q9 -11 5.5 -26t-13.5 -24.5t-23.5 -10.5t-24.5 16zM102 795q-8 10 -5 25t12.5 25t23 11t25.5 -16q10 -11 8.5 -26.5t-11 -26t-24 -11t-29.5 18.5z" />
    <glyph glyph-name="Ntilde" unicode="&#xd1;" horiz-adv-x="574" 
d="M41 493q-27 29 -28 53t10 41.5t27 27.5t24 12q16 0 23 -9.5t9 -24.5t0 -33.5t-3 -37t0 -35t8 -27.5q15 -17 34.5 -50.5t43.5 -75.5t52.5 -88t62 -87t71.5 -72.5t81 -44.5l-17 631q0 8 7.5 12t17 6t18 2.5t9.5 0.5q-12 -101 -13 -197t3.5 -178.5t12 -148t12.5 -105.5
q0 -10 -0.5 -21.5t-4 -21.5t-10.5 -16.5t-20 -6.5q-36 0 -77 29t-79 69t-70.5 82t-51.5 68q-6 8 -22.5 34t-35 56t-34 56.5t-20.5 35.5l5 -390q0 -23 2 -31.5t-13 -8.5q-4 0 -9.5 0.5t-11 2t-9.5 5t-4 10.5v476v0zM69 742q0 9 3.5 27t12.5 36t24 31.5t37 13.5q29 0 51 -13
t43 -28t44 -28t53 -13q24 -1 43 8.5t33.5 24t25 30.5t16.5 27q3 1 7.5 -2.5t8.5 -9t5.5 -11.5t-1.5 -9q0 -16 -13.5 -32.5t-33.5 -29.5t-43.5 -21.5t-43.5 -8.5q-53 1 -95 25t-87 57q-21 1 -31 -11.5t-14.5 -30t-6.5 -35.5t-6 -27q-14 0 -23 12t-9 18z" />
    <glyph glyph-name="Ograve" unicode="&#xd2;" horiz-adv-x="388" 
d="M141 0q-36 3 -62 33.5t-41 79.5t-20 110.5t1 125.5t23 125.5t44.5 110t66 79t88.5 32.5q43 -4 71.5 -37t43.5 -84t17.5 -114.5t-6.5 -129t-28.5 -127t-48.5 -108.5t-66.5 -73.5t-82.5 -22.5zM234 650q-30 -1 -56.5 -25t-47.5 -63t-36.5 -88.5t-23.5 -102.5t-8.5 -105
t8 -95.5t26 -74.5t46.5 -42q35 -3 64.5 18.5t53 59t39.5 87.5t24 103.5t7.5 107t-11 98.5t-31.5 77.5t-54 44.5zM141 843q8 14 15 16t20 2l68 -91q-3 -6 -5 -14.5t-6 -14.5t-11 -6.5t-19 9.5z" />
    <glyph glyph-name="Oacute" unicode="&#xd3;" horiz-adv-x="391" 
d="M141 0q-36 3 -62 33.5t-41 79.5t-20 110.5t1 125.5t23 125.5t44.5 110t66 79t88.5 32.5q43 -4 71.5 -37t43.5 -84t17.5 -114.5t-6.5 -129t-28.5 -127t-48.5 -108.5t-66.5 -73.5t-82.5 -22.5zM234 650q-30 -1 -56.5 -25t-47.5 -63t-36.5 -88.5t-23.5 -102.5t-8.5 -105
t8 -95.5t26 -74.5t46.5 -42q35 -3 64.5 18.5t53 59t39.5 87.5t24 103.5t7.5 107t-11 98.5t-31.5 77.5t-54 44.5zM185 767q-12 -10 -19 -9.5t-11 6.5t-6 14.5t-5 14.5l68 91q13 0 20 -2t15 -16z" />
    <glyph glyph-name="Ocircumflex" unicode="&#xd4;" horiz-adv-x="394" 
d="M141 0q-36 3 -62 33.5t-41 79.5t-20 110.5t1 125.5t23 125.5t44.5 110t66 79t88.5 32.5q43 -4 71.5 -37t43.5 -84t17.5 -114.5t-6.5 -129t-28.5 -127t-48.5 -108.5t-66.5 -73.5t-82.5 -22.5zM234 650q-30 -1 -56.5 -25t-47.5 -63t-36.5 -88.5t-23.5 -102.5t-8.5 -105
t8 -95.5t26 -74.5t46.5 -42q35 -3 64.5 18.5t53 59t39.5 87.5t24 103.5t7.5 107t-11 98.5t-31.5 77.5t-54 44.5zM189 848q8 14 15 16t20 2l72 -97q-3 -6 -5 -14.5t-6 -14.5t-11 -6.5t-19 9.5l-44 54l-36 -58q-11 -14 -26 -10.5t-22 16.5z" />
    <glyph glyph-name="Otilde" unicode="&#xd5;" horiz-adv-x="403" 
d="M141 0q-36 3 -62 33.5t-41 79.5t-20 110.5t1 125.5t23 125.5t44.5 110t66 79t88.5 32.5q43 -4 71.5 -37t43.5 -84t17.5 -114.5t-6.5 -129t-28.5 -127t-48.5 -108.5t-66.5 -73.5t-82.5 -22.5zM234 650q-30 -1 -56.5 -25t-47.5 -63t-36.5 -88.5t-23.5 -102.5t-8.5 -105
t8 -95.5t26 -74.5t46.5 -42q35 -3 64.5 18.5t53 59t39.5 87.5t24 103.5t7.5 107t-11 98.5t-31.5 77.5t-54 44.5zM25.6504 729.275q0 8.75781 3.20508 26.2754q3.2041 17.5156 11.4453 35.0332q8.24121 17.5156 21.9756 30.6533t33.8789 13.1377q26.5537 0 46.6982 -12.6504
q20.1445 -12.6514 39.373 -27.248q19.2285 -14.5977 40.2881 -27.248q21.0605 -12.6514 48.5303 -12.6514q21.9746 -0.973633 39.3721 8.27148t30.6748 23.3555q13.2764 14.1104 22.8906 29.6807q9.61523 15.5703 15.1084 26.2754q2.74707 0.972656 6.86719 -2.43262
q4.12109 -3.40625 7.7832 -8.75879q3.66309 -5.35156 5.03613 -11.1914q1.37402 -5.83789 -1.37305 -8.75781q0 -15.5703 -12.3613 -31.627t-30.6748 -28.708q-18.3125 -12.6514 -39.8301 -20.9229q-21.5186 -8.27148 -39.8311 -8.27148q-48.5293 0.972656 -86.9863 24.3281
q-38.458 23.3555 -79.6621 55.4697q-19.2285 0.973633 -28.3848 -11.1914q-9.15625 -12.1641 -13.2773 -29.1943q-4.12012 -17.0293 -5.95117 -34.5469q-1.83203 -17.5156 -5.49414 -26.2744q-12.8193 0 -21.0596 11.6777q-8.24121 11.6777 -8.24121 17.5166z" />
    <glyph glyph-name="Odieresis" unicode="&#xd6;" horiz-adv-x="385" 
d="M141 0q-36 3 -62 33.5t-41 79.5t-20 110.5t1 125.5t23 125.5t44.5 110t66 79t88.5 32.5q43 -4 71.5 -37t43.5 -84t17.5 -114.5t-6.5 -129t-28.5 -127t-48.5 -108.5t-66.5 -73.5t-82.5 -22.5zM234 650q-30 -1 -56.5 -25t-47.5 -63t-36.5 -88.5t-23.5 -102.5t-8.5 -105
t8 -95.5t26 -74.5t46.5 -42q35 -3 64.5 18.5t53 59t39.5 87.5t24 103.5t7.5 107t-11 98.5t-31.5 77.5t-54 44.5zM112 741q-8 12 -4.5 27t13 24.5t22.5 10t25 -16.5q9 -11 5.5 -26t-13.5 -24.5t-23.5 -10.5t-24.5 16zM241 745q-8 10 -5 25t12.5 25t23 11t25.5 -16
q10 -11 8.5 -26.5t-11 -26t-24 -11t-29.5 18.5z" />
    <glyph glyph-name="Oslash" unicode="&#xd8;" horiz-adv-x="406" 
d="M141 0q-36 3 -62 33.5t-41 79.5t-20 110.5t1 125.5t23 125.5t44.5 110t66 79t88.5 32.5q43 -4 71.5 -37t43.5 -84t17.5 -114.5t-6.5 -129t-28.5 -127t-48.5 -108.5t-66.5 -73.5t-82.5 -22.5zM234 650q-30 -1 -56.5 -25t-47.5 -63t-36.5 -88.5t-23.5 -102.5t-8.5 -105
t8 -95.5t26 -74.5t46.5 -42q35 -3 64.5 18.5t53 59t39.5 87.5t24 103.5t7.5 107t-11 98.5t-31.5 77.5t-54 44.5zM51.2627 -18.0166q-16.0156 0 -21.1973 5.90039q-5.18164 5.89941 -9.8916 24.0537l338.206 685.325q9.4209 4.53809 16.0146 3.17676
q6.59473 -1.36133 10.3633 -6.35352t5.18164 -12.708t-0.47168 -14.0693z" />
    <glyph glyph-name="Ugrave" unicode="&#xd9;" horiz-adv-x="459" 
d="M134 4q-42 30 -67.5 72.5t-38 93t-16.5 106t-3.5 111.5t2 109.5t-0.5 100.5q7 10 18 14.5t22 2.5q4 -43 3.5 -92.5t-1.5 -102t1 -105t10.5 -100t26.5 -88.5t50 -70q45 -14 83 11t67.5 74.5t50 117.5t31 139t9.5 138.5t-13 117.5q-12 -39 -21.5 -51.5t-15.5 -8t-7.5 21
t2.5 35t14 34t28 18.5q25 -12 39 -50.5t17.5 -93t-3 -120t-22.5 -130.5t-41.5 -125t-59 -103.5t-74.5 -65.5t-90 -11zM135 812q8 14 15 16t20 2l68 -91q-3 -6 -5 -14.5t-6 -14.5t-11 -6.5t-19 9.5z" />
    <glyph glyph-name="Uacute" unicode="&#xda;" horiz-adv-x="459" 
d="M134 4q-42 30 -67.5 72.5t-38 93t-16.5 106t-3.5 111.5t2 109.5t-0.5 100.5q7 10 18 14.5t22 2.5q4 -43 3.5 -92.5t-1.5 -102t1 -105t10.5 -100t26.5 -88.5t50 -70q45 -14 83 11t67.5 74.5t50 117.5t31 139t9.5 138.5t-13 117.5q-12 -39 -21.5 -51.5t-15.5 -8t-7.5 21
t2.5 35t14 34t28 18.5q25 -12 39 -50.5t17.5 -93t-3 -120t-22.5 -130.5t-41.5 -125t-59 -103.5t-74.5 -65.5t-90 -11zM177 710q-12 -10 -19 -9.5t-11 6.5t-6 14.5t-5 14.5l68 91q13 0 20 -2t15 -16z" />
    <glyph glyph-name="Ucircumflex" unicode="&#xdb;" horiz-adv-x="459" 
d="M134 4q-42 30 -67.5 72.5t-38 93t-16.5 106t-3.5 111.5t2 109.5t-0.5 100.5q7 10 18 14.5t22 2.5q4 -43 3.5 -92.5t-1.5 -102t1 -105t10.5 -100t26.5 -88.5t50 -70q45 -14 83 11t67.5 74.5t50 117.5t31 139t9.5 138.5t-13 117.5q-12 -39 -21.5 -51.5t-15.5 -8t-7.5 21
t2.5 35t14 34t28 18.5q25 -12 39 -50.5t17.5 -93t-3 -120t-22.5 -130.5t-41.5 -125t-59 -103.5t-74.5 -65.5t-90 -11zM163 825q8 14 15 16t20 2l72 -97q-3 -6 -5 -14.5t-6 -14.5t-11 -6.5t-19 9.5l-44 54l-36 -58q-11 -14 -26 -10.5t-22 16.5z" />
    <glyph glyph-name="Udieresis" unicode="&#xdc;" horiz-adv-x="459" 
d="M134 4q-42 30 -67.5 72.5t-38 93t-16.5 106t-3.5 111.5t2 109.5t-0.5 100.5q7 10 18 14.5t22 2.5q4 -43 3.5 -92.5t-1.5 -102t1 -105t10.5 -100t26.5 -88.5t50 -70q45 -14 83 11t67.5 74.5t50 117.5t31 139t9.5 138.5t-13 117.5q-12 -39 -21.5 -51.5t-15.5 -8t-7.5 21
t2.5 35t14 34t28 18.5q25 -12 39 -50.5t17.5 -93t-3 -120t-22.5 -130.5t-41.5 -125t-59 -103.5t-74.5 -65.5t-90 -11zM92 718q-8 12 -4.5 27t13 24.5t22.5 10t25 -16.5q9 -11 5.5 -26t-13.5 -24.5t-23.5 -10.5t-24.5 16zM221 722q-8 10 -5 25t12.5 25t23 11t25.5 -16
q10 -11 8.5 -26.5t-11 -26t-24 -11t-29.5 18.5z" />
    <glyph glyph-name="Yacute" unicode="&#xdd;" horiz-adv-x="426" 
d="M242 256q-70 79 -130 175t-102 193q9 20 24.5 10t35 -37.5t42 -67.5t46.5 -81t48.5 -77.5t47.5 -56.5q6 22 13 67t17 97.5t22 105t26 89t31 49t37 -13.5q-33 -81 -56.5 -162.5t-38 -168.5t-21 -183t-4.5 -206q-9 -20 -20.5 -24.5t-26.5 20.5zM204 730q-12 -10 -19 -9.5
t-11 6.5t-6 14.5t-5 14.5l68 91q13 0 20 -2t15 -16z" />
    <glyph glyph-name="agrave" unicode="&#xe0;" horiz-adv-x="544" 
d="M99 -2q-34 1 -52.5 26.5t-25.5 66.5t-2.5 94t17.5 109t33.5 111t45.5 100.5t54 78t59 42.5q25 0 42.5 -9.5t29.5 -25.5t19.5 -36t12.5 -41q1 9 6.5 27t13 32.5t16 19.5t16.5 -11q-13 -105 -18 -181t-4 -129t8 -86t19 -52t28 -28t35 -14q27 -5 46.5 4.5t34.5 25.5t26.5 33
t22.5 27q7 -21 -1 -45t-25.5 -44.5t-43 -33t-53.5 -11.5q-43 0 -70.5 23t-44 58t-23.5 75t-9 75q-11 -29 -29 -76.5t-43.5 -93t-60.5 -78.5t-80 -33zM230 582q-15 -1 -33.5 -22.5t-38.5 -57t-38.5 -80.5t-33 -93t-23 -95.5t-7.5 -86.5t13 -66t38 -35q18 -4 39 13t41.5 47
t39.5 71t35.5 85t28 87.5t17.5 80.5q0 18 -4 44t-13 50t-24 41t-37 17zM159 778q8 14 15 16t20 2l68 -91q-3 -6 -5 -14.5t-6 -14.5t-11 -6.5t-19 9.5z" />
    <glyph glyph-name="aacute" unicode="&#xe1;" horiz-adv-x="544" 
d="M99 -2q-34 1 -52.5 26.5t-25.5 66.5t-2.5 94t17.5 109t33.5 111t45.5 100.5t54 78t59 42.5q25 0 42.5 -9.5t29.5 -25.5t19.5 -36t12.5 -41q1 9 6.5 27t13 32.5t16 19.5t16.5 -11q-13 -105 -18 -181t-4 -129t8 -86t19 -52t28 -28t35 -14q27 -5 46.5 4.5t34.5 25.5t26.5 33
t22.5 27q7 -21 -1 -45t-25.5 -44.5t-43 -33t-53.5 -11.5q-43 0 -70.5 23t-44 58t-23.5 75t-9 75q-11 -29 -29 -76.5t-43.5 -93t-60.5 -78.5t-80 -33zM230 582q-15 -1 -33.5 -22.5t-38.5 -57t-38.5 -80.5t-33 -93t-23 -95.5t-7.5 -86.5t13 -66t38 -35q18 -4 39 13t41.5 47
t39.5 71t35.5 85t28 87.5t17.5 80.5q0 18 -4 44t-13 50t-24 41t-37 17zM198 679q-12 -10 -19 -9.5t-11 6.5t-6 14.5t-5 14.5l68 91q13 0 20 -2t15 -16z" />
    <glyph glyph-name="acircumflex" unicode="&#xe2;" horiz-adv-x="544" 
d="M99 -2q-34 1 -52.5 26.5t-25.5 66.5t-2.5 94t17.5 109t33.5 111t45.5 100.5t54 78t59 42.5q25 0 42.5 -9.5t29.5 -25.5t19.5 -36t12.5 -41q1 9 6.5 27t13 32.5t16 19.5t16.5 -11q-13 -105 -18 -181t-4 -129t8 -86t19 -52t28 -28t35 -14q27 -5 46.5 4.5t34.5 25.5t26.5 33
t22.5 27q7 -21 -1 -45t-25.5 -44.5t-43 -33t-53.5 -11.5q-43 0 -70.5 23t-44 58t-23.5 75t-9 75q-11 -29 -29 -76.5t-43.5 -93t-60.5 -78.5t-80 -33zM230 582q-15 -1 -33.5 -22.5t-38.5 -57t-38.5 -80.5t-33 -93t-23 -95.5t-7.5 -86.5t13 -66t38 -35q18 -4 39 13t41.5 47
t39.5 71t35.5 85t28 87.5t17.5 80.5q0 18 -4 44t-13 50t-24 41t-37 17zM194 807q8 14 15 16t20 2l72 -97q-3 -6 -5 -14.5t-6 -14.5t-11 -6.5t-19 9.5l-44 54l-36 -58q-11 -14 -26 -10.5t-22 16.5z" />
    <glyph glyph-name="atilde" unicode="&#xe3;" horiz-adv-x="544" 
d="M99 -2q-34 1 -52.5 26.5t-25.5 66.5t-2.5 94t17.5 109t33.5 111t45.5 100.5t54 78t59 42.5q25 0 42.5 -9.5t29.5 -25.5t19.5 -36t12.5 -41q1 9 6.5 27t13 32.5t16 19.5t16.5 -11q-13 -105 -18 -181t-4 -129t8 -86t19 -52t28 -28t35 -14q27 -5 46.5 4.5t34.5 25.5t26.5 33
t22.5 27q7 -21 -1 -45t-25.5 -44.5t-43 -33t-53.5 -11.5q-43 0 -70.5 23t-44 58t-23.5 75t-9 75q-11 -29 -29 -76.5t-43.5 -93t-60.5 -78.5t-80 -33zM230 582q-15 -1 -33.5 -22.5t-38.5 -57t-38.5 -80.5t-33 -93t-23 -95.5t-7.5 -86.5t13 -66t38 -35q18 -4 39 13t41.5 47
t39.5 71t35.5 85t28 87.5t17.5 80.5q0 18 -4 44t-13 50t-24 41t-37 17zM39.9639 688.014q0 10.2686 3.71094 30.8057q3.71094 20.5361 13.2529 41.0732t25.4453 35.9395q15.9043 15.4023 39.2295 15.4023q30.7471 0 54.0723 -14.832t45.5908 -31.9463
q22.2646 -17.1143 46.6504 -31.9463t56.1924 -14.832q25.4463 -1.14062 45.5908 9.69824t35.5176 27.3818q15.374 16.5439 26.5068 34.7988q11.1318 18.2549 17.4932 30.8047q3.18066 1.1416 7.95215 -2.85156t9.01172 -10.2686q4.24121 -6.27539 5.83203 -13.1211
q1.58984 -6.8457 -1.59082 -10.2686q0 -18.2539 -14.3135 -37.0801q-14.3125 -18.8252 -35.5176 -33.6572t-46.1211 -24.5303q-24.915 -9.69727 -46.1201 -9.69727q-56.1924 1.14062 -100.723 28.5234q-44.5303 27.3818 -92.2412 65.0322q-22.2656 1.1416 -32.8672 -13.1201
q-10.6025 -14.2617 -15.374 -34.2285q-4.77148 -19.9658 -6.8916 -40.5029q-2.12012 -20.5361 -6.36133 -30.8047q-14.8438 0 -24.3857 13.6914q-9.54199 13.6904 -9.54199 20.5361z" />
    <glyph glyph-name="adieresis" unicode="&#xe4;" horiz-adv-x="544" 
d="M99 -2q-34 1 -52.5 26.5t-25.5 66.5t-2.5 94t17.5 109t33.5 111t45.5 100.5t54 78t59 42.5q25 0 42.5 -9.5t29.5 -25.5t19.5 -36t12.5 -41q1 9 6.5 27t13 32.5t16 19.5t16.5 -11q-13 -105 -18 -181t-4 -129t8 -86t19 -52t28 -28t35 -14q27 -5 46.5 4.5t34.5 25.5t26.5 33
t22.5 27q7 -21 -1 -45t-25.5 -44.5t-43 -33t-53.5 -11.5q-43 0 -70.5 23t-44 58t-23.5 75t-9 75q-11 -29 -29 -76.5t-43.5 -93t-60.5 -78.5t-80 -33zM230 582q-15 -1 -33.5 -22.5t-38.5 -57t-38.5 -80.5t-33 -93t-23 -95.5t-7.5 -86.5t13 -66t38 -35q18 -4 39 13t41.5 47
t39.5 71t35.5 85t28 87.5t17.5 80.5q0 18 -4 44t-13 50t-24 41t-37 17zM152 702q-8 12 -4.5 27t13 24.5t22.5 10t25 -16.5q9 -11 5.5 -26t-13.5 -24.5t-23.5 -10.5t-24.5 16zM281 706q-8 10 -5 25t12.5 25t23 11t25.5 -16q10 -11 8.5 -26.5t-11 -26t-24 -11t-29.5 18.5z" />
    <glyph glyph-name="aring" unicode="&#xe5;" horiz-adv-x="544" 
d="M99 -2q-34 1 -52.5 26.5t-25.5 66.5t-2.5 94t17.5 109t33.5 111t45.5 100.5t54 78t59 42.5q25 0 42.5 -9.5t29.5 -25.5t19.5 -36t12.5 -41q1 9 6.5 27t13 32.5t16 19.5t16.5 -11q-13 -105 -18 -181t-4 -129t8 -86t19 -52t28 -28t35 -14q27 -5 46.5 4.5t34.5 25.5t26.5 33
t22.5 27q7 -21 -1 -45t-25.5 -44.5t-43 -33t-53.5 -11.5q-43 0 -70.5 23t-44 58t-23.5 75t-9 75q-11 -29 -29 -76.5t-43.5 -93t-60.5 -78.5t-80 -33zM230 582q-15 -1 -33.5 -22.5t-38.5 -57t-38.5 -80.5t-33 -93t-23 -95.5t-7.5 -86.5t13 -66t38 -35q18 -4 39 13t41.5 47
t39.5 71t35.5 85t28 87.5t17.5 80.5q0 18 -4 44t-13 50t-24 41t-37 17zM194 680q-32 1 -48.5 11t-19.5 24t5.5 29.5t25 28t39 19.5t48.5 3q37 -10 48.5 -30t2.5 -39.5t-35.5 -33.5t-65.5 -12zM227 766q-22 1 -37.5 -6t-21.5 -17.5t0 -21t27 -17.5q28 2 44.5 11t20.5 19.5
t-4.5 19.5t-28.5 12z" />
    <glyph glyph-name="ae" unicode="&#xe6;" horiz-adv-x="595" 
d="M228 626q22 7 43.5 3.5t39 -13.5t30.5 -24.5t19 -29.5q29 48 63 72.5t72 12.5q7 1 20.5 -12.5t21.5 -42t5 -72t-27.5 -104t-76 -137.5t-141.5 -172q18 -28 43 -33t53 5t56 31.5t52 45.5t41.5 47.5t24.5 37.5q17 -15 13 -37.5t-21.5 -47.5t-45 -49.5t-57.5 -43.5
t-59 -30.5t-49 -9.5q-35 0 -65 26.5t-41 63.5q-13 -23 -28.5 -44t-33.5 -37t-38 -25t-43 -9q-34 1 -52.5 26.5t-25.5 66.5t-2.5 94t17.5 109t33.5 111t45.5 100.5t54 78t59 42.5zM230 582q-15 -1 -33.5 -22.5t-38.5 -57t-38.5 -80.5t-33 -93t-23 -95.5t-7.5 -86.5t13 -66
t38 -35q16 -3 33 8.5t34.5 34.5t35 54.5t32.5 67.5q4 31 12 68t19.5 76t25 77t30.5 73q-3 15 -10.5 30.5t-20 27t-29.5 17t-39 2.5zM467 591q-18 0 -37.5 -25.5t-39 -65.5t-37 -88t-31.5 -93t-23 -81t-10 -51q15 -1 40 26.5t52 70.5t52 94.5t39.5 96.5t15.5 77.5t-21 38.5z
" />
    <glyph glyph-name="ccedilla" unicode="&#xe7;" horiz-adv-x="426" 
d="M123 0q-40 4 -61.5 33t-28.5 74t-1.5 100.5t20.5 113.5t37.5 113t49 98.5t54.5 70.5t55 28q38 -1 62.5 -22t34.5 -51.5t6.5 -64.5t-21.5 -59q-15 4 -20 16t-6 27.5t-0.5 32.5t-3 31.5t-14 23.5t-32.5 9q-24 0 -46.5 -24.5t-41.5 -62.5t-35 -84.5t-27 -91t-17 -81.5
t-6 -56q0 -12 -0.5 -33.5t3.5 -42t14.5 -35.5t32.5 -15q33 0 70 24.5t73 58.5t67.5 70.5t52.5 60.5q4 -29 -7 -59.5t-31.5 -59.5t-49 -54.5t-60 -45t-63.5 -31.5t-60 -12zM82 -172q-4 11 -1 19t9 11.5t13 1.5t11 -10q8 -25 27.5 -39t39.5 -17t36.5 6t19.5 31q0 21 -9.5 34.5
t-23.5 24t-30.5 19.5t-30.5 20.5t-23.5 27t-9.5 39.5q-7 28 -0.5 38.5t16 8t17 -16.5t2.5 -36q7 -15 27.5 -29t42.5 -31.5t39.5 -39.5t18.5 -53q-2 -47 -24 -67.5t-52 -19.5t-62 21.5t-53 56.5z" />
    <glyph glyph-name="egrave" unicode="&#xe8;" 
d="M22 126q0 34 9 88t25.5 113.5t40 118.5t52 103.5t61.5 67.5t70 11q7 1 20.5 -12.5t21.5 -42t5 -72t-27.5 -104t-76 -137.5t-141.5 -172q18 -28 43 -33t53 5t56 31.5t52 45.5t41.5 47.5t24.5 37.5q17 -15 13 -37.5t-21.5 -47.5t-45 -49.5t-57.5 -43.5t-59 -30.5t-49 -9.5
q-21 0 -41 10.5t-35.5 27.5t-25 39t-9.5 45zM252 572q-21 0 -43.5 -26.5t-43.5 -67t-39.5 -89t-31.5 -94t-19 -81t-3 -50.5q16 -1 42.5 27t54.5 71.5t53 95t39.5 97.5t14 78.5t-23.5 38.5zM174 787q8 14 15 16t20 2l68 -91q-3 -6 -5 -14.5t-6 -14.5t-11 -6.5t-19 9.5z" />
    <glyph glyph-name="eacute" unicode="&#xe9;" 
d="M22 126q0 34 9 88t25.5 113.5t40 118.5t52 103.5t61.5 67.5t70 11q7 1 20.5 -12.5t21.5 -42t5 -72t-27.5 -104t-76 -137.5t-141.5 -172q18 -28 43 -33t53 5t56 31.5t52 45.5t41.5 47.5t24.5 37.5q17 -15 13 -37.5t-21.5 -47.5t-45 -49.5t-57.5 -43.5t-59 -30.5t-49 -9.5
q-21 0 -41 10.5t-35.5 27.5t-25 39t-9.5 45zM252 572q-21 0 -43.5 -26.5t-43.5 -67t-39.5 -89t-31.5 -94t-19 -81t-3 -50.5q16 -1 42.5 27t54.5 71.5t53 95t39.5 97.5t14 78.5t-23.5 38.5zM208 680q-12 -10 -19 -9.5t-11 6.5t-6 14.5t-5 14.5l68 91q13 0 20 -2t15 -16z" />
    <glyph glyph-name="ecircumflex" unicode="&#xea;" 
d="M22 126q0 34 9 88t25.5 113.5t40 118.5t52 103.5t61.5 67.5t70 11q7 1 20.5 -12.5t21.5 -42t5 -72t-27.5 -104t-76 -137.5t-141.5 -172q18 -28 43 -33t53 5t56 31.5t52 45.5t41.5 47.5t24.5 37.5q17 -15 13 -37.5t-21.5 -47.5t-45 -49.5t-57.5 -43.5t-59 -30.5t-49 -9.5
q-21 0 -41 10.5t-35.5 27.5t-25 39t-9.5 45zM252 572q-21 0 -43.5 -26.5t-43.5 -67t-39.5 -89t-31.5 -94t-19 -81t-3 -50.5q16 -1 42.5 27t54.5 71.5t53 95t39.5 97.5t14 78.5t-23.5 38.5zM237 821q8 14 15 16t20 2l72 -97q-3 -6 -5 -14.5t-6 -14.5t-11 -6.5t-19 9.5l-44 54
l-36 -58q-11 -14 -26 -10.5t-22 16.5z" />
    <glyph glyph-name="edieresis" unicode="&#xeb;" 
d="M22 126q0 34 9 88t25.5 113.5t40 118.5t52 103.5t61.5 67.5t70 11q7 1 20.5 -12.5t21.5 -42t5 -72t-27.5 -104t-76 -137.5t-141.5 -172q18 -28 43 -33t53 5t56 31.5t52 45.5t41.5 47.5t24.5 37.5q17 -15 13 -37.5t-21.5 -47.5t-45 -49.5t-57.5 -43.5t-59 -30.5t-49 -9.5
q-21 0 -41 10.5t-35.5 27.5t-25 39t-9.5 45zM252 572q-21 0 -43.5 -26.5t-43.5 -67t-39.5 -89t-31.5 -94t-19 -81t-3 -50.5q16 -1 42.5 27t54.5 71.5t53 95t39.5 97.5t14 78.5t-23.5 38.5zM143 683q-8 12 -4.5 27t13 24.5t22.5 10t25 -16.5q9 -11 5.5 -26t-13.5 -24.5
t-23.5 -10.5t-24.5 16zM272 687q-8 10 -5 25t12.5 25t23 11t25.5 -16q10 -11 8.5 -26.5t-11 -26t-24 -11t-29.5 18.5z" />
    <glyph glyph-name="ntilde" unicode="&#xf1;" horiz-adv-x="443" 
d="M82 295q-1 20 3.5 53t14.5 70.5t25.5 75t36 67.5t45.5 48t55 16q35 0 58 -22.5t36.5 -54t20 -65.5t9.5 -56q3 -14 4 -46t2 -72.5t2.5 -85t4 -84t6.5 -69t11 -40.5q1 -9 -8 -17.5t-21 -13t-23 -2t-14 16.5q-11 45 -14 105t-4 123.5t-1.5 124t-6.5 108t-20.5 75t-41.5 24.5
q-30 -2 -53.5 -28t-41.5 -67.5t-30.5 -94t-21.5 -107t-15 -105.5t-9.5 -90t-6 -60.5t-4.5 -17.5q-3 0 -11 -0.5t-16 0t-14 3t-6 9.5v492q0 23 11.5 42.5t37.5 19.5v-275zM15.8486 685.303q0 11.2959 3.68555 33.8857t13.1631 45.1797q9.47754 22.5908 25.2734 39.5332
q15.7949 16.9424 38.9619 16.9424q30.5381 0 53.7051 -16.3154q23.167 -16.3145 45.2803 -35.1396q22.1143 -18.8252 46.334 -35.1406q24.2197 -16.3145 55.8115 -16.3145q25.2725 -1.25488 45.2803 10.667q20.0078 11.9229 35.2773 30.1201
q15.2686 18.1982 26.3252 38.2783q11.0576 20.0801 17.376 33.8848q3.15918 1.25488 7.89746 -3.1377t8.95117 -11.2949q4.21191 -6.90234 5.79102 -14.4326q1.58008 -7.53027 -1.5791 -11.2949q0 -20.0801 -14.2158 -40.7881q-14.2168 -20.707 -35.2773 -37.0225
q-21.0605 -16.3145 -45.8066 -26.9824q-24.7471 -10.667 -45.8076 -10.667q-55.8115 1.25488 -100.039 31.375t-91.6143 71.5352q-22.1133 1.25488 -32.6445 -14.4326q-10.5303 -15.6875 -15.2686 -37.6504t-6.84473 -44.5527t-6.31836 -33.8848
q-14.7422 0 -24.2197 15.0596q-9.47754 15.0605 -9.47754 22.5898z" />
    <glyph glyph-name="ograve" unicode="&#xf2;" horiz-adv-x="344" 
d="M17 182q9 129 27 215.5t43.5 138.5t55.5 72.5t63 16.5q41 -2 68.5 -29t42.5 -71t17.5 -99.5t-5.5 -113.5t-26 -114t-45.5 -100t-63 -71.5t-78.5 -29.5q-37 0 -57 19t-29.5 47.5t-11 60.5t-1.5 58zM206 584q-24 2 -45 -20.5t-38.5 -60.5t-30.5 -87t-21 -100.5t-9.5 -100.5
t3.5 -87t17.5 -60t34.5 -20q44 6 78 48t55.5 100.5t31 125.5t5 124.5t-24.5 96t-56 41.5zM118 770q8 14 15 16t20 2l68 -91q-3 -6 -5 -14.5t-6 -14.5t-11 -6.5t-19 9.5z" />
    <glyph glyph-name="oacute" unicode="&#xf3;" horiz-adv-x="344" 
d="M17 182q9 129 27 215.5t43.5 138.5t55.5 72.5t63 16.5q41 -2 68.5 -29t42.5 -71t17.5 -99.5t-5.5 -113.5t-26 -114t-45.5 -100t-63 -71.5t-78.5 -29.5q-37 0 -57 19t-29.5 47.5t-11 60.5t-1.5 58zM206 584q-24 2 -45 -20.5t-38.5 -60.5t-30.5 -87t-21 -100.5t-9.5 -100.5
t3.5 -87t17.5 -60t34.5 -20q44 6 78 48t55.5 100.5t31 125.5t5 124.5t-24.5 96t-56 41.5zM198 659q-12 -10 -19 -9.5t-11 6.5t-6 14.5t-5 14.5l68 91q13 0 20 -2t15 -16z" />
    <glyph glyph-name="ocircumflex" unicode="&#xf4;" horiz-adv-x="344" 
d="M17 182q9 129 27 215.5t43.5 138.5t55.5 72.5t63 16.5q41 -2 68.5 -29t42.5 -71t17.5 -99.5t-5.5 -113.5t-26 -114t-45.5 -100t-63 -71.5t-78.5 -29.5q-37 0 -57 19t-29.5 47.5t-11 60.5t-1.5 58zM206 584q-24 2 -45 -20.5t-38.5 -60.5t-30.5 -87t-21 -100.5t-9.5 -100.5
t3.5 -87t17.5 -60t34.5 -20q44 6 78 48t55.5 100.5t31 125.5t5 124.5t-24.5 96t-56 41.5zM150 771q8 14 15 16t20 2l72 -97q-3 -6 -5 -14.5t-6 -14.5t-11 -6.5t-19 9.5l-44 54l-36 -58q-11 -14 -26 -10.5t-22 16.5z" />
    <glyph glyph-name="otilde" unicode="&#xf5;" horiz-adv-x="344" 
d="M17 182q9 129 27 215.5t43.5 138.5t55.5 72.5t63 16.5q41 -2 68.5 -29t42.5 -71t17.5 -99.5t-5.5 -113.5t-26 -114t-45.5 -100t-63 -71.5t-78.5 -29.5q-37 0 -57 19t-29.5 47.5t-11 60.5t-1.5 58zM206 584q-24 2 -45 -20.5t-38.5 -60.5t-30.5 -87t-21 -100.5t-9.5 -100.5
t3.5 -87t17.5 -60t34.5 -20q44 6 78 48t55.5 100.5t31 125.5t5 124.5t-24.5 96t-56 41.5zM-10.8096 662.738q0 10.5107 3.32324 31.5303q3.32227 21.0205 11.8672 42.04q8.54492 21.0205 22.7852 36.7852q14.2412 15.7656 35.1279 15.7656q27.5332 0 48.4199 -15.1816
q20.8867 -15.1807 40.8242 -32.6973q19.9375 -17.5176 41.7734 -32.6982q21.8369 -15.1816 50.3184 -15.1816q22.7861 -1.16699 40.8242 9.92676q18.0391 11.0938 31.8057 28.0264q13.7656 16.9336 23.7344 35.6182t15.665 31.5293q2.84863 1.16797 7.12109 -2.91895
t8.06934 -10.5098q3.79785 -6.42285 5.22168 -13.4297q1.4248 -7.00684 -1.42383 -10.5107q0 -18.6836 -12.8164 -37.9521q-12.8174 -19.2686 -31.8057 -34.4502q-18.9873 -15.1807 -41.2988 -25.1074q-22.3105 -9.92578 -41.2988 -9.92578
q-50.3184 1.16797 -90.1934 29.1943q-39.875 28.0273 -82.5977 66.5635q-19.9375 1.16797 -29.4316 -13.4297q-9.49414 -14.5967 -13.7666 -35.0332t-6.1709 -41.4561q-1.89844 -21.0205 -5.69629 -31.5303q-13.292 0 -21.8359 14.0137q-8.54492 14.0127 -8.54492 21.0195z
" />
    <glyph glyph-name="odieresis" unicode="&#xf6;" horiz-adv-x="344" 
d="M17 182q9 129 27 215.5t43.5 138.5t55.5 72.5t63 16.5q41 -2 68.5 -29t42.5 -71t17.5 -99.5t-5.5 -113.5t-26 -114t-45.5 -100t-63 -71.5t-78.5 -29.5q-37 0 -57 19t-29.5 47.5t-11 60.5t-1.5 58zM206 584q-24 2 -45 -20.5t-38.5 -60.5t-30.5 -87t-21 -100.5t-9.5 -100.5
t3.5 -87t17.5 -60t34.5 -20q44 6 78 48t55.5 100.5t31 125.5t5 124.5t-24.5 96t-56 41.5zM102 673q-8 12 -4.5 27t13 24.5t22.5 10t25 -16.5q9 -11 5.5 -26t-13.5 -24.5t-23.5 -10.5t-24.5 16zM231 677q-8 10 -5 25t12.5 25t23 11t25.5 -16q10 -11 8.5 -26.5t-11 -26
t-24 -11t-29.5 18.5z" />
    <glyph glyph-name="oslash" unicode="&#xf8;" horiz-adv-x="344" 
d="M17 182q9 129 27 215.5t43.5 138.5t55.5 72.5t63 16.5q41 -2 68.5 -29t42.5 -71t17.5 -99.5t-5.5 -113.5t-26 -114t-45.5 -100t-63 -71.5t-78.5 -29.5q-37 0 -57 19t-29.5 47.5t-11 60.5t-1.5 58zM206 584q-24 2 -45 -20.5t-38.5 -60.5t-30.5 -87t-21 -100.5t-9.5 -100.5
t3.5 -87t17.5 -60t34.5 -20q44 6 78 48t55.5 100.5t31 125.5t5 124.5t-24.5 96t-56 41.5zM4.16895 11.6592q-16.5293 0 -21.877 4.97656t-10.209 20.2871l349.052 578.001q9.72363 3.82812 16.5293 2.67969q6.80664 -1.14844 10.6953 -5.35938
q3.88867 -4.20996 5.34766 -10.7178q1.45801 -6.50684 -0.486328 -11.8662z" />
    <glyph glyph-name="ugrave" unicode="&#xf9;" 
d="M123 -2q-22 -5 -38.5 22.5t-27.5 74.5t-17.5 107t-9 121t-2.5 116t2 93q0 3 2.5 11t8.5 15t16.5 11t26.5 -1q-1 -5 -3 -29t-3 -60t-1.5 -80t0.5 -89t4 -88.5t9 -78t14.5 -56.5t21.5 -25q25 4 52 36.5t51.5 81.5t44.5 108.5t31 119t11.5 113t-14.5 90.5q1 2 5.5 5t9.5 5.5
t10 4.5t7 2q14 0 21 -15t10 -35t3.5 -39t0.5 -26q1 -25 -6.5 -71t-22 -101t-36 -113t-49.5 -107t-61 -82.5t-71 -40.5zM119 752q8 14 15 16t20 2l68 -91q-3 -6 -5 -14.5t-6 -14.5t-11 -6.5t-19 9.5z" />
    <glyph glyph-name="uacute" unicode="&#xfa;" 
d="M123 -2q-22 -5 -38.5 22.5t-27.5 74.5t-17.5 107t-9 121t-2.5 116t2 93q0 3 2.5 11t8.5 15t16.5 11t26.5 -1q-1 -5 -3 -29t-3 -60t-1.5 -80t0.5 -89t4 -88.5t9 -78t14.5 -56.5t21.5 -25q25 4 52 36.5t51.5 81.5t44.5 108.5t31 119t11.5 113t-14.5 90.5q1 2 5.5 5t9.5 5.5
t10 4.5t7 2q14 0 21 -15t10 -35t3.5 -39t0.5 -26q1 -25 -6.5 -71t-22 -101t-36 -113t-49.5 -107t-61 -82.5t-71 -40.5zM193 670q-12 -10 -19 -9.5t-11 6.5t-6 14.5t-5 14.5l68 91q13 0 20 -2t15 -16z" />
    <glyph glyph-name="ucircumflex" unicode="&#xfb;" 
d="M123 -2q-22 -5 -38.5 22.5t-27.5 74.5t-17.5 107t-9 121t-2.5 116t2 93q0 3 2.5 11t8.5 15t16.5 11t26.5 -1q-1 -5 -3 -29t-3 -60t-1.5 -80t0.5 -89t4 -88.5t9 -78t14.5 -56.5t21.5 -25q25 4 52 36.5t51.5 81.5t44.5 108.5t31 119t11.5 113t-14.5 90.5q1 2 5.5 5t9.5 5.5
t10 4.5t7 2q14 0 21 -15t10 -35t3.5 -39t0.5 -26q1 -25 -6.5 -71t-22 -101t-36 -113t-49.5 -107t-61 -82.5t-71 -40.5zM121 789q8 14 15 16t20 2l72 -97q-3 -6 -5 -14.5t-6 -14.5t-11 -6.5t-19 9.5l-44 54l-36 -58q-11 -14 -26 -10.5t-22 16.5z" />
    <glyph glyph-name="udieresis" unicode="&#xfc;" 
d="M123 -2q-22 -5 -38.5 22.5t-27.5 74.5t-17.5 107t-9 121t-2.5 116t2 93q0 3 2.5 11t8.5 15t16.5 11t26.5 -1q-1 -5 -3 -29t-3 -60t-1.5 -80t0.5 -89t4 -88.5t9 -78t14.5 -56.5t21.5 -25q25 4 52 36.5t51.5 81.5t44.5 108.5t31 119t11.5 113t-14.5 90.5q1 2 5.5 5t9.5 5.5
t10 4.5t7 2q14 0 21 -15t10 -35t3.5 -39t0.5 -26q1 -25 -6.5 -71t-22 -101t-36 -113t-49.5 -107t-61 -82.5t-71 -40.5zM87 684q-8 12 -4.5 27t13 24.5t22.5 10t25 -16.5q9 -11 5.5 -26t-13.5 -24.5t-23.5 -10.5t-24.5 16zM216 688q-8 10 -5 25t12.5 25t23 11t25.5 -16
q10 -11 8.5 -26.5t-11 -26t-24 -11t-29.5 18.5z" />
    <glyph glyph-name="yacute" unicode="&#xfd;" horiz-adv-x="525" 
d="M316 -408q-22 0 -48.5 1.5t-50.5 6t-42.5 12t-24.5 20.5q-5 2 -3 9t8 13t14.5 10t16.5 0q67 -31 110.5 -24t68.5 35.5t36 72.5t13.5 87.5t-0.5 80t-4 50.5q-2 27 -5 71t-6.5 97t-7.5 110t-8.5 109.5t-8.5 97t-7 71.5q-16 -52 -36 -113t-42.5 -121t-46.5 -115.5t-48 -96
t-47.5 -62.5t-43.5 -15q-28 8 -46 40t-27.5 80t-10.5 109t3.5 127t14 134.5t22.5 131.5q16 5 30 -2t19 -31q-18 -59 -27 -120t-11.5 -119t0.5 -109t10 -89.5t17.5 -61t22.5 -23.5q12 1 29 31.5t37 79t42 108t43.5 119t42 112.5t37.5 87q6 17 20 18t29 -1q4 -30 9 -79
t10.5 -107.5t11.5 -122.5t10.5 -122.5t8.5 -108t6 -78.5q1 -30 4 -68t3.5 -79.5t-5 -83t-21.5 -77t-45 -63t-76 -39.5zM262 694q-12 -10 -19 -9.5t-11 6.5t-6 14.5t-5 14.5l68 91q13 0 20 -2t15 -16z" />
    <glyph glyph-name="ydieresis" unicode="&#xff;" horiz-adv-x="525" 
d="M316 -408q-22 0 -48.5 1.5t-50.5 6t-42.5 12t-24.5 20.5q-5 2 -3 9t8 13t14.5 10t16.5 0q67 -31 110.5 -24t68.5 35.5t36 72.5t13.5 87.5t-0.5 80t-4 50.5q-2 27 -5 71t-6.5 97t-7.5 110t-8.5 109.5t-8.5 97t-7 71.5q-16 -52 -36 -113t-42.5 -121t-46.5 -115.5t-48 -96
t-47.5 -62.5t-43.5 -15q-28 8 -46 40t-27.5 80t-10.5 109t3.5 127t14 134.5t22.5 131.5q16 5 30 -2t19 -31q-18 -59 -27 -120t-11.5 -119t0.5 -109t10 -89.5t17.5 -61t22.5 -23.5q12 1 29 31.5t37 79t42 108t43.5 119t42 112.5t37.5 87q6 17 20 18t29 -1q4 -30 9 -79
t10.5 -107.5t11.5 -122.5t10.5 -122.5t8.5 -108t6 -78.5q1 -30 4 -68t3.5 -79.5t-5 -83t-21.5 -77t-45 -63t-76 -39.5zM154 714q-8 12 -4.5 27t13 24.5t22.5 10t25 -16.5q9 -11 5.5 -26t-13.5 -24.5t-23.5 -10.5t-24.5 16zM283 718q-8 10 -5 25t12.5 25t23 11t25.5 -16
q10 -11 8.5 -26.5t-11 -26t-24 -11t-29.5 18.5z" />
    <glyph glyph-name="sterling" unicode="&#xa3;" horiz-adv-x="700" 
d="M13 314q0 8 6.5 14t11.5 11q43 -4 78.5 -3.5t65.5 3.5q-11 126 4.5 206t46.5 124t72.5 57t82.5 5t76 -31.5t53 -51.5q-2 -12 -9 -19t-15 1q-77 57 -129 60t-82 -37.5t-39.5 -119.5t-1.5 -187q28 4 55 9t55.5 9.5t60 7.5t69.5 3v-53q-2 0 -17 -3t-36.5 -6.5t-48 -8
t-52.5 -8.5t-48 -7.5t-36 -4.5q1 -37 2.5 -72t2.5 -65t2 -53.5t2 -36.5q49 19 102 36t106 23t104.5 -3.5t96.5 -42.5q23 -20 21 -31.5t-13 -16.5q-42 28 -92 35t-101 2.5t-99.5 -17t-86.5 -23t-62 -16t-26 4.5q-14 66 -15 133.5t-3 136.5q-9 -2 -35.5 -4.5t-55 -0.5t-51 11
t-22.5 30z" />
    <glyph glyph-name="breve" unicode="&#x2d8;" horiz-adv-x="210" 
d="M32 720q13 -29 28.5 -39.5t32 -9.5t32 9.5t29 18t23 16.5t13.5 5q14 6 13.5 -5t-12.5 -27.5t-33 -33t-46.5 -21t-54.5 9.5t-56 57z" />
    <glyph glyph-name="dotaccent" unicode="&#x2d9;" horiz-adv-x="98" 
d="M14 653q-6 12 -1 28t16.5 26.5t25.5 12t26 -15.5q8 -9 2.5 -26.5t-17 -31t-26.5 -15t-26 21.5z" />
    <glyph glyph-name="ogonek" unicode="&#x2db;" horiz-adv-x="236" 
d="M230 -140q-15 -15 -39.5 -21.5t-48.5 -2t-41 21t-17 48.5q0 6 3 20.5t10 30t18.5 29.5t28.5 19l20 -17q-18 -12 -29.5 -32t-13 -39t8 -33t32.5 -14q18 0 31.5 1.5t36.5 -11.5z" />
    <glyph glyph-name="fraction" unicode="&#x2044;" horiz-adv-x="426" 
d="M-33 -115l377 967q4 9 9.5 23.5t13.5 28t18.5 23.5t25.5 10q0 -1 -0.5 -9t-0.5 -10q-2 -6 -6.5 -20.5t-10 -30.5t-10 -29.5t-6.5 -18.5q-5 -13 -19 -47.5t-33 -82.5t-42 -105.5t-46.5 -117t-46 -117t-41.5 -105.5t-32.5 -82.5t-18.5 -47.5q-10 -25 -20 -58.5t-21.5 -69.5
t-25 -71t-31.5 -63q-2 0 -4.5 -1t-3.5 -1q-3 0 -5 1q-2 0 -4 1l-8 8l-8 8v9v8z" />
    <glyph glyph-name="Abreve" unicode="&#x102;" horiz-adv-x="574" 
d="M9 -61q0 14 11.5 40.5t26.5 55.5t28 54.5t16 37.5q2 10 11 41t20.5 73t25 89t25 89t20 73.5t11.5 41.5q5 19 11 50.5t16 61.5t25.5 51.5t39.5 21.5q8 0 15 -6t12.5 -14t9 -16.5t4.5 -14.5q21 -83 36 -141t25.5 -96t17.5 -59.5t11 -32t5.5 -13t2.5 -2.5q18 10 34.5 16
t36.5 4q0 -16 -9 -26.5t-19.5 -19.5t-19 -19.5t-8.5 -26.5q0 -36 15 -68.5t33 -64.5t33 -63.5t15 -65.5q-25 -13 -41.5 -3t-29 33.5t-21.5 56.5t-20.5 65.5t-26 60t-36.5 41.5q-3 0 -20.5 -5.5t-42 -15t-52.5 -22t-52.5 -25.5t-42 -25.5t-21.5 -23.5l-65 -197
q-5 -14 -14 -16t-19 -2q-13 0 -23 6t-10 21zM173 225q10 3 35.5 8.5t57 15t63.5 24t54 35.5q-3 13 -10.5 41.5t-17 64t-20.5 74.5t-21.5 73t-20 60t-15.5 35zM225 838q13 -29 28.5 -39.5t32 -9.5t32 9.5t29 18t23 16.5t13.5 5q14 6 13.5 -5t-12.5 -27.5t-33 -33t-46.5 -21
t-54.5 9.5t-56 57z" />
    <glyph glyph-name="macron" unicode="&#xaf;" horiz-adv-x="377" 
d="M13 673q0 8 4 21.5t9 18.5l328 -11l3 -43z" />
    <glyph glyph-name="Amacron" unicode="&#x100;" horiz-adv-x="574" 
d="M9 -61q0 14 11.5 40.5t26.5 55.5t28 54.5t16 37.5q2 10 11 41t20.5 73t25 89t25 89t20 73.5t11.5 41.5q5 19 11 50.5t16 61.5t25.5 51.5t39.5 21.5q8 0 15 -6t12.5 -14t9 -16.5t4.5 -14.5q21 -83 36 -141t25.5 -96t17.5 -59.5t11 -32t5.5 -13t2.5 -2.5q18 10 34.5 16
t36.5 4q0 -16 -9 -26.5t-19.5 -19.5t-19 -19.5t-8.5 -26.5q0 -36 15 -68.5t33 -64.5t33 -63.5t15 -65.5q-25 -13 -41.5 -3t-29 33.5t-21.5 56.5t-20.5 65.5t-26 60t-36.5 41.5q-3 0 -20.5 -5.5t-42 -15t-52.5 -22t-52.5 -25.5t-42 -25.5t-21.5 -23.5l-65 -197
q-5 -14 -14 -16t-19 -2q-13 0 -23 6t-10 21zM173 225q10 3 35.5 8.5t57 15t63.5 24t54 35.5q-3 13 -10.5 41.5t-17 64t-20.5 74.5t-21.5 73t-20 60t-15.5 35zM92 802q0 8 4 21.5t9 18.5l328 -11l3 -43z" />
    <glyph glyph-name="Aogonek" unicode="&#x104;" horiz-adv-x="574" 
d="M9 -61q0 14 11.5 40.5t26.5 55.5t28 54.5t16 37.5q2 10 11 41t20.5 73t25 89t25 89t20 73.5t11.5 41.5q5 19 11 50.5t16 61.5t25.5 51.5t39.5 21.5q8 0 15 -6t12.5 -14t9 -16.5t4.5 -14.5q21 -83 36 -141t25.5 -96t17.5 -59.5t11 -32t5.5 -13t2.5 -2.5q18 10 34.5 16
t36.5 4q0 -16 -9 -26.5t-19.5 -19.5t-19 -19.5t-8.5 -26.5q0 -36 15 -68.5t33 -64.5t33 -63.5t15 -65.5q-25 -13 -41.5 -3t-29 33.5t-21.5 56.5t-20.5 65.5t-26 60t-36.5 41.5q-3 0 -20.5 -5.5t-42 -15t-52.5 -22t-52.5 -25.5t-42 -25.5t-21.5 -23.5l-65 -197
q-5 -14 -14 -16t-19 -2q-13 0 -23 6t-10 21zM173 225q10 3 35.5 8.5t57 15t63.5 24t54 35.5q-3 13 -10.5 41.5t-17 64t-20.5 74.5t-21.5 73t-20 60t-15.5 35zM591 -115q-15 -15 -39.5 -21.5t-48.5 -2t-41 21t-17 48.5q0 6 3 20.5t10 30t18.5 29.5t28.5 19l20 -17
q-18 -12 -29.5 -32t-13 -39t8 -33t32.5 -14q18 0 31.5 1.5t36.5 -11.5z" />
    <glyph glyph-name="Cacute" unicode="&#x106;" horiz-adv-x="525" 
d="M31 211q0 34 4.5 83t15.5 102t28.5 105.5t43.5 94t61.5 67.5t81.5 26q36 0 54.5 -19t27 -46.5t9 -60t0.5 -59.5q-20 0 -28.5 11.5t-12 28t-5 36.5t-7 36.5t-18 28t-38.5 11.5q-31 0 -55.5 -25.5t-43 -66t-31.5 -89.5t-21.5 -96.5t-12 -87.5t-3.5 -61q-2 -27 0 -61.5
t12.5 -64.5t31.5 -49t57 -15q62 0 113.5 27.5t91 69.5t66.5 93t39 98h20q0 -59 -32.5 -117.5t-82.5 -106t-110.5 -77t-117.5 -29.5q-44 0 -71 20t-42 51.5t-20 69t-5 72.5zM224 715q-12 -10 -19 -9.5t-11 6.5t-6 14.5t-5 14.5l68 91q13 0 20 -2t15 -16z" />
    <glyph glyph-name="Ccaron" unicode="&#x10c;" horiz-adv-x="525" 
d="M31 211q0 34 4.5 83t15.5 102t28.5 105.5t43.5 94t61.5 67.5t81.5 26q36 0 54.5 -19t27 -46.5t9 -60t0.5 -59.5q-20 0 -28.5 11.5t-12 28t-5 36.5t-7 36.5t-18 28t-38.5 11.5q-31 0 -55.5 -25.5t-43 -66t-31.5 -89.5t-21.5 -96.5t-12 -87.5t-3.5 -61q-2 -27 0 -61.5
t12.5 -64.5t31.5 -49t57 -15q62 0 113.5 27.5t91 69.5t66.5 93t39 98h20q0 -59 -32.5 -117.5t-82.5 -106t-110.5 -77t-117.5 -29.5q-44 0 -71 20t-42 51.5t-20 69t-5 72.5zM289 741q-8 -14 -15 -16t-20 -2l-91 110q3 6 4.5 13.5t4.5 12.5t9 5t18 -10l63 -81l66 80
q17 20 25 14t11 -26z" />
    <glyph glyph-name="Ccircumflex" unicode="&#x108;" horiz-adv-x="525" 
d="M31 211q0 34 4.5 83t15.5 102t28.5 105.5t43.5 94t61.5 67.5t81.5 26q36 0 54.5 -19t27 -46.5t9 -60t0.5 -59.5q-20 0 -28.5 11.5t-12 28t-5 36.5t-7 36.5t-18 28t-38.5 11.5q-31 0 -55.5 -25.5t-43 -66t-31.5 -89.5t-21.5 -96.5t-12 -87.5t-3.5 -61q-2 -27 0 -61.5
t12.5 -64.5t31.5 -49t57 -15q62 0 113.5 27.5t91 69.5t66.5 93t39 98h20q0 -59 -32.5 -117.5t-82.5 -106t-110.5 -77t-117.5 -29.5q-44 0 -71 20t-42 51.5t-20 69t-5 72.5zM225 859q8 14 15 16t20 2l72 -97q-3 -6 -5 -14.5t-6 -14.5t-11 -6.5t-19 9.5l-44 54l-36 -58
q-11 -14 -26 -10.5t-22 16.5z" />
    <glyph glyph-name="Cdotaccent" unicode="&#x10a;" horiz-adv-x="525" 
d="M31 211q0 34 4.5 83t15.5 102t28.5 105.5t43.5 94t61.5 67.5t81.5 26q36 0 54.5 -19t27 -46.5t9 -60t0.5 -59.5q-20 0 -28.5 11.5t-12 28t-5 36.5t-7 36.5t-18 28t-38.5 11.5q-31 0 -55.5 -25.5t-43 -66t-31.5 -89.5t-21.5 -96.5t-12 -87.5t-3.5 -61q-2 -27 0 -61.5
t12.5 -64.5t31.5 -49t57 -15q62 0 113.5 27.5t91 69.5t66.5 93t39 98h20q0 -59 -32.5 -117.5t-82.5 -106t-110.5 -77t-117.5 -29.5q-44 0 -71 20t-42 51.5t-20 69t-5 72.5zM208 753q-6 12 -1 28t16.5 26.5t25.5 12t26 -15.5q8 -9 2.5 -26.5t-17 -31t-26.5 -15t-26 21.5z" />
    <glyph glyph-name="Dcaron" unicode="&#x10e;" horiz-adv-x="590" 
d="M90 614q-10 -7 -24.5 -14t-26 -8.5t-15 5t8.5 26.5q32 31 76.5 44t89.5 15.5t85 -1t64 -5.5q48 -12 86 -34t65.5 -52t43.5 -66t19 -76q0 -48 -18 -100t-49 -102t-73 -95t-89.5 -79t-99 -54t-100.5 -20q0 71 -5 146t-11 150.5t-11.5 150.5t-6.5 145zM146 638
q3 -121 6.5 -210t6.5 -152.5t5.5 -104.5t5 -68t4 -42.5t2.5 -26.5q37 2 77.5 24.5t79.5 57.5t74 79.5t61.5 90t41.5 88.5t15 77q0 41 -18.5 74.5t-49 58.5t-70 41t-82 23t-84 4.5t-75.5 -14.5zM285 764q-8 -14 -15 -16t-20 -2l-91 110q3 6 4.5 13.5t4.5 12.5t9 5t18 -10
l63 -81l66 80q17 20 25 14t11 -26z" />
    <glyph glyph-name="Dcroat" unicode="&#x110;" horiz-adv-x="590" 
d="M90 614q-10 -7 -24.5 -14t-26 -8.5t-15 5t8.5 26.5q32 31 76.5 44t89.5 15.5t85 -1t64 -5.5q48 -12 86 -34t65.5 -52t43.5 -66t19 -76q0 -48 -18 -100t-49 -102t-73 -95t-89.5 -79t-99 -54t-100.5 -20q0 71 -5 146t-11 150.5t-11.5 150.5t-6.5 145zM146 638
q3 -121 6.5 -210t6.5 -152.5t5.5 -104.5t5 -68t4 -42.5t2.5 -26.5q37 2 77.5 24.5t79.5 57.5t74 79.5t61.5 90t41.5 88.5t15 77q0 41 -18.5 74.5t-49 58.5t-70 41t-82 23t-84 4.5t-75.5 -14.5zM11.6445 358.933q0 5.53809 2.66016 14.8848t5.98438 12.8076l218.113 -7.61523
l1.99512 -29.7695z" />
    <glyph glyph-name="Ebreve" unicode="&#x114;" horiz-adv-x="590" 
d="M31 121q-1 33 14 66t34.5 61.5t36.5 51t20 34.5q-2 1 -19.5 2.5t-37 9t-34.5 22.5t-12 42q6 43 25.5 92.5t51 91t72.5 69t90 27.5q21 -1 38.5 -15t25.5 -30t5 -29.5t-23 -14.5q-8 26 -34 39.5t-56 7.5q-22 -5 -47 -26.5t-47 -51.5t-38 -63.5t-19 -62t10 -48t49 -20.5
q27 0 52.5 13t49.5 28.5t46.5 29t43.5 14.5q4 0 9.5 -0.5t10.5 -2t9 -5t4 -10.5q0 -16 -20.5 -33t-51.5 -36.5t-67.5 -43t-67.5 -52t-51.5 -63t-20.5 -76.5q0 -27 9 -45t25 -28t37 -14t44 -4q55 0 105 19t95.5 49.5t85.5 68.5t75 77h19q0 -28 -20.5 -59t-53 -60t-73.5 -55.5
t-81.5 -46.5t-76.5 -31.5t-60 -11.5q-29 0 -60.5 5.5t-58.5 20t-44.5 38t-17.5 59.5zM158 805q13 -29 28.5 -39.5t32 -9.5t32 9.5t29 18t23 16.5t13.5 5q14 6 13.5 -5t-12.5 -27.5t-33 -33t-46.5 -21t-54.5 9.5t-56 57z" />
    <glyph glyph-name="Ecaron" unicode="&#x11a;" horiz-adv-x="590" 
d="M31 121q-1 33 14 66t34.5 61.5t36.5 51t20 34.5q-2 1 -19.5 2.5t-37 9t-34.5 22.5t-12 42q6 43 25.5 92.5t51 91t72.5 69t90 27.5q21 -1 38.5 -15t25.5 -30t5 -29.5t-23 -14.5q-8 26 -34 39.5t-56 7.5q-22 -5 -47 -26.5t-47 -51.5t-38 -63.5t-19 -62t10 -48t49 -20.5
q27 0 52.5 13t49.5 28.5t46.5 29t43.5 14.5q4 0 9.5 -0.5t10.5 -2t9 -5t4 -10.5q0 -16 -20.5 -33t-51.5 -36.5t-67.5 -43t-67.5 -52t-51.5 -63t-20.5 -76.5q0 -27 9 -45t25 -28t37 -14t44 -4q55 0 105 19t95.5 49.5t85.5 68.5t75 77h19q0 -28 -20.5 -59t-53 -60t-73.5 -55.5
t-81.5 -46.5t-76.5 -31.5t-60 -11.5q-29 0 -60.5 5.5t-58.5 20t-44.5 38t-17.5 59.5zM248 726q-8 -14 -15 -16t-20 -2l-91 110q3 6 4.5 13.5t4.5 12.5t9 5t18 -10l63 -81l66 80q17 20 25 14t11 -26z" />
    <glyph glyph-name="Edotaccent" unicode="&#x116;" horiz-adv-x="590" 
d="M31 121q-1 33 14 66t34.5 61.5t36.5 51t20 34.5q-2 1 -19.5 2.5t-37 9t-34.5 22.5t-12 42q6 43 25.5 92.5t51 91t72.5 69t90 27.5q21 -1 38.5 -15t25.5 -30t5 -29.5t-23 -14.5q-8 26 -34 39.5t-56 7.5q-22 -5 -47 -26.5t-47 -51.5t-38 -63.5t-19 -62t10 -48t49 -20.5
q27 0 52.5 13t49.5 28.5t46.5 29t43.5 14.5q4 0 9.5 -0.5t10.5 -2t9 -5t4 -10.5q0 -16 -20.5 -33t-51.5 -36.5t-67.5 -43t-67.5 -52t-51.5 -63t-20.5 -76.5q0 -27 9 -45t25 -28t37 -14t44 -4q55 0 105 19t95.5 49.5t85.5 68.5t75 77h19q0 -28 -20.5 -59t-53 -60t-73.5 -55.5
t-81.5 -46.5t-76.5 -31.5t-60 -11.5q-29 0 -60.5 5.5t-58.5 20t-44.5 38t-17.5 59.5zM171 743q-6 12 -1 28t16.5 26.5t25.5 12t26 -15.5q8 -9 2.5 -26.5t-17 -31t-26.5 -15t-26 21.5z" />
    <glyph glyph-name="Emacron" unicode="&#x112;" horiz-adv-x="590" 
d="M31 121q-1 33 14 66t34.5 61.5t36.5 51t20 34.5q-2 1 -19.5 2.5t-37 9t-34.5 22.5t-12 42q6 43 25.5 92.5t51 91t72.5 69t90 27.5q21 -1 38.5 -15t25.5 -30t5 -29.5t-23 -14.5q-8 26 -34 39.5t-56 7.5q-22 -5 -47 -26.5t-47 -51.5t-38 -63.5t-19 -62t10 -48t49 -20.5
q27 0 52.5 13t49.5 28.5t46.5 29t43.5 14.5q4 0 9.5 -0.5t10.5 -2t9 -5t4 -10.5q0 -16 -20.5 -33t-51.5 -36.5t-67.5 -43t-67.5 -52t-51.5 -63t-20.5 -76.5q0 -27 9 -45t25 -28t37 -14t44 -4q55 0 105 19t95.5 49.5t85.5 68.5t75 77h19q0 -28 -20.5 -59t-53 -60t-73.5 -55.5
t-81.5 -46.5t-76.5 -31.5t-60 -11.5q-29 0 -60.5 5.5t-58.5 20t-44.5 38t-17.5 59.5zM45 763q0 8 4 21.5t9 18.5l328 -11l3 -43z" />
    <glyph glyph-name="Eogonek" unicode="&#x118;" horiz-adv-x="590" 
d="M31 121q-1 33 14 66t34.5 61.5t36.5 51t20 34.5q-2 1 -19.5 2.5t-37 9t-34.5 22.5t-12 42q6 43 25.5 92.5t51 91t72.5 69t90 27.5q21 -1 38.5 -15t25.5 -30t5 -29.5t-23 -14.5q-8 26 -34 39.5t-56 7.5q-22 -5 -47 -26.5t-47 -51.5t-38 -63.5t-19 -62t10 -48t49 -20.5
q27 0 52.5 13t49.5 28.5t46.5 29t43.5 14.5q4 0 9.5 -0.5t10.5 -2t9 -5t4 -10.5q0 -16 -20.5 -33t-51.5 -36.5t-67.5 -43t-67.5 -52t-51.5 -63t-20.5 -76.5q0 -27 9 -45t25 -28t37 -14t44 -4q55 0 105 19t95.5 49.5t85.5 68.5t75 77h19q0 -28 -20.5 -59t-53 -60t-73.5 -55.5
t-81.5 -46.5t-76.5 -31.5t-60 -11.5q-29 0 -60.5 5.5t-58.5 20t-44.5 38t-17.5 59.5zM498 -34q-15 -15 -39.5 -21.5t-48.5 -2t-41 21t-17 48.5q0 6 3 20.5t10 30t18.5 29.5t28.5 19l20 -17q-18 -12 -29.5 -32t-13 -39t8 -33t32.5 -14q18 0 31.5 1.5t36.5 -11.5z" />
    <glyph glyph-name="Gbreve" unicode="&#x11e;" horiz-adv-x="607" 
d="M31 210q0 25 7.5 70.5t22 99t35 109t46.5 101t56.5 74t64.5 28.5q9 1 18.5 0.5t18.5 -5t17 -13.5t13 -26q0 -13 -11.5 -20t-23.5 -5q-2 4 -8 9t-16 7q-20 9 -44.5 -13t-49 -64t-46.5 -98t-36.5 -115.5t-18.5 -116t6.5 -100t38.5 -67t79 -17.5q38 0 89 19.5t96.5 52t77 74
t31.5 85.5q0 13 -4 32.5t-12.5 38t-21 32t-28.5 13.5q-42 2 -77 -14.5t-60.5 -38t-41 -41.5t-18.5 -24q-3 0 -9 0.5t-11.5 2t-9.5 5t-4 10.5q0 19 13.5 37t35 35t47.5 31t51.5 24t47 16t33.5 6q29 0 48.5 -11t32 -29.5t20.5 -42.5t15 -50q3 -11 10 -40.5t15 -63.5t15 -65
t9 -44v-8v-8q0 -3 -2.5 -8l-5 -10t-5 -9.5t-3.5 -5.5t-3 -1h-5h-5q-2 0 -3 1q-3 2 -9 8t-8 9q-2 7 -7 25.5t-10.5 39.5t-10 39.5t-5.5 26.5q-26 -35 -59.5 -70t-73 -64t-83.5 -47t-90 -18q-53 0 -86.5 15t-52 43t-25.5 67t-7 87zM166 800q13 -29 28.5 -39.5t32 -9.5t32 9.5
t29 18t23 16.5t13.5 5q14 6 13.5 -5t-12.5 -27.5t-33 -33t-46.5 -21t-54.5 9.5t-56 57z" />
    <glyph glyph-name="Gcircumflex" unicode="&#x11c;" horiz-adv-x="607" 
d="M31 210q0 25 7.5 70.5t22 99t35 109t46.5 101t56.5 74t64.5 28.5q9 1 18.5 0.5t18.5 -5t17 -13.5t13 -26q0 -13 -11.5 -20t-23.5 -5q-2 4 -8 9t-16 7q-20 9 -44.5 -13t-49 -64t-46.5 -98t-36.5 -115.5t-18.5 -116t6.5 -100t38.5 -67t79 -17.5q38 0 89 19.5t96.5 52t77 74
t31.5 85.5q0 13 -4 32.5t-12.5 38t-21 32t-28.5 13.5q-42 2 -77 -14.5t-60.5 -38t-41 -41.5t-18.5 -24q-3 0 -9 0.5t-11.5 2t-9.5 5t-4 10.5q0 19 13.5 37t35 35t47.5 31t51.5 24t47 16t33.5 6q29 0 48.5 -11t32 -29.5t20.5 -42.5t15 -50q3 -11 10 -40.5t15 -63.5t15 -65
t9 -44v-8v-8q0 -3 -2.5 -8l-5 -10t-5 -9.5t-3.5 -5.5t-3 -1h-5h-5q-2 0 -3 1q-3 2 -9 8t-8 9q-2 7 -7 25.5t-10.5 39.5t-10 39.5t-5.5 26.5q-26 -35 -59.5 -70t-73 -64t-83.5 -47t-90 -18q-53 0 -86.5 15t-52 43t-25.5 67t-7 87zM243 840q8 14 15 16t20 2l72 -97
q-3 -6 -5 -14.5t-6 -14.5t-11 -6.5t-19 9.5l-44 54l-36 -58q-11 -14 -26 -10.5t-22 16.5z" />
    <glyph glyph-name="commaaccent" unicode="&#xf6c3;" horiz-adv-x="267" 
d="M118 -252q1 1 -3.5 -0.5t-10 -3.5t-10.5 -4t-5 -1q-11 -6 -15.5 14t-2 50.5t10 64.5t19 56.5t27 26.5t33.5 -26z" />
    <glyph glyph-name="Gcommaaccent" unicode="&#x122;" horiz-adv-x="607" 
d="M31 210q0 25 7.5 70.5t22 99t35 109t46.5 101t56.5 74t64.5 28.5q9 1 18.5 0.5t18.5 -5t17 -13.5t13 -26q0 -13 -11.5 -20t-23.5 -5q-2 4 -8 9t-16 7q-20 9 -44.5 -13t-49 -64t-46.5 -98t-36.5 -115.5t-18.5 -116t6.5 -100t38.5 -67t79 -17.5q38 0 89 19.5t96.5 52t77 74
t31.5 85.5q0 13 -4 32.5t-12.5 38t-21 32t-28.5 13.5q-42 2 -77 -14.5t-60.5 -38t-41 -41.5t-18.5 -24q-3 0 -9 0.5t-11.5 2t-9.5 5t-4 10.5q0 19 13.5 37t35 35t47.5 31t51.5 24t47 16t33.5 6q29 0 48.5 -11t32 -29.5t20.5 -42.5t15 -50q3 -11 10 -40.5t15 -63.5t15 -65
t9 -44v-8v-8q0 -3 -2.5 -8l-5 -10t-5 -9.5t-3.5 -5.5t-3 -1h-5h-5q-2 0 -3 1q-3 2 -9 8t-8 9q-2 7 -7 25.5t-10.5 39.5t-10 39.5t-5.5 26.5q-26 -35 -59.5 -70t-73 -64t-83.5 -47t-90 -18q-53 0 -86.5 15t-52 43t-25.5 67t-7 87zM230 -252q1 1 -3.5 -0.5t-10 -3.5t-10.5 -4
t-5 -1q-11 -6 -15.5 14t-2 50.5t10 64.5t19 56.5t27 26.5t33.5 -26z" />
    <glyph glyph-name="Gdotaccent" unicode="&#x120;" horiz-adv-x="607" 
d="M31 210q0 25 7.5 70.5t22 99t35 109t46.5 101t56.5 74t64.5 28.5q9 1 18.5 0.5t18.5 -5t17 -13.5t13 -26q0 -13 -11.5 -20t-23.5 -5q-2 4 -8 9t-16 7q-20 9 -44.5 -13t-49 -64t-46.5 -98t-36.5 -115.5t-18.5 -116t6.5 -100t38.5 -67t79 -17.5q38 0 89 19.5t96.5 52t77 74
t31.5 85.5q0 13 -4 32.5t-12.5 38t-21 32t-28.5 13.5q-42 2 -77 -14.5t-60.5 -38t-41 -41.5t-18.5 -24q-3 0 -9 0.5t-11.5 2t-9.5 5t-4 10.5q0 19 13.5 37t35 35t47.5 31t51.5 24t47 16t33.5 6q29 0 48.5 -11t32 -29.5t20.5 -42.5t15 -50q3 -11 10 -40.5t15 -63.5t15 -65
t9 -44v-8v-8q0 -3 -2.5 -8l-5 -10t-5 -9.5t-3.5 -5.5t-3 -1h-5h-5q-2 0 -3 1q-3 2 -9 8t-8 9q-2 7 -7 25.5t-10.5 39.5t-10 39.5t-5.5 26.5q-26 -35 -59.5 -70t-73 -64t-83.5 -47t-90 -18q-53 0 -86.5 15t-52 43t-25.5 67t-7 87zM225 747q-6 12 -1 28t16.5 26.5t25.5 12
t26 -15.5q8 -9 2.5 -26.5t-17 -31t-26.5 -15t-26 21.5z" />
    <glyph glyph-name="Hbar" unicode="&#x126;" horiz-adv-x="492" 
d="M64 222q-23 -3 -29.5 3t-1.5 21q4 4 16.5 10t16.5 6q9 49 12.5 107t4.5 116t1 111.5t2 93.5q20 7 30.5 7.5t15 -4t4.5 -13v-18.5q0 -75 -3 -142.5t-3 -142.5v-16.5t0.5 -24.5t0.5 -25v-16q11 6 35 16t53 22t60 25.5t56.5 27.5t42 28t16.5 27q0 60 -7 123.5t-7 125.5
q15 20 28 11t18 -45q1 -12 4 -42t5.5 -64t4.5 -64.5t3 -42.5q11 0 13.5 -9t0 -20t-7 -22t-6.5 -15l5 -369q0 -5 -11 -7.5t-33 -4.5l-12 363q-28 0 -69 -14t-80.5 -34t-71 -42.5t-40.5 -38.5q-1 -8 0.5 -29.5t3 -46t2.5 -47t1 -31.5q0 -31 -13 -54.5t-26 -21.5
q-7 15 -11.5 49.5t-8.5 71t-7.5 66.5t-7.5 35zM53 531q0 8 4 21.5t9 18.5l328 -11l3 -43z" />
    <glyph glyph-name="Hcircumflex" unicode="&#x124;" horiz-adv-x="492" 
d="M64 222q-23 -3 -29.5 3t-1.5 21q4 4 16.5 10t16.5 6q9 49 12.5 107t4.5 116t1 111.5t2 93.5q20 7 30.5 7.5t15 -4t4.5 -13v-18.5q0 -75 -3 -142.5t-3 -142.5v-16.5t0.5 -24.5t0.5 -25v-16q11 6 35 16t53 22t60 25.5t56.5 27.5t42 28t16.5 27q0 60 -7 123.5t-7 125.5
q15 20 28 11t18 -45q1 -12 4 -42t5.5 -64t4.5 -64.5t3 -42.5q11 0 13.5 -9t0 -20t-7 -22t-6.5 -15l5 -369q0 -5 -11 -7.5t-33 -4.5l-12 363q-28 0 -69 -14t-80.5 -34t-71 -42.5t-40.5 -38.5q-1 -8 0.5 -29.5t3 -46t2.5 -47t1 -31.5q0 -31 -13 -54.5t-26 -21.5
q-7 15 -11.5 49.5t-8.5 71t-7.5 66.5t-7.5 35zM215 891q8 14 15 16t20 2l72 -97q-3 -6 -5 -14.5t-6 -14.5t-11 -6.5t-19 9.5l-44 54l-36 -58q-11 -14 -26 -10.5t-22 16.5z" />
    <glyph glyph-name="Ibreve" unicode="&#x12c;" horiz-adv-x="131" 
d="M33 66q-1 17 -2.5 52.5t-3 82t-3 100.5t-2.5 108t-1.5 104.5t0.5 89t2.5 62.5t5.5 25h28q3 -37 3.5 -98t0.5 -130.5t0.5 -140t3.5 -128.5t9 -95.5t17 -39.5q0 -8 2.5 -18t2.5 -19.5t-4.5 -16t-17.5 -6.5q-10 0 -17 8.5t-12 20t-8 22.5t-4 17zM-18 848q13 -29 28.5 -39.5
t32 -9.5t32 9.5t29 18t23 16.5t13.5 5q14 6 13.5 -5t-12.5 -27.5t-33 -33t-46.5 -21t-54.5 9.5t-56 57z" />
    <glyph glyph-name="Idotaccent" unicode="&#x130;" horiz-adv-x="131" 
d="M33 66q-1 17 -2.5 52.5t-3 82t-3 100.5t-2.5 108t-1.5 104.5t0.5 89t2.5 62.5t5.5 25h28q3 -37 3.5 -98t0.5 -130.5t0.5 -140t3.5 -128.5t9 -95.5t17 -39.5q0 -8 2.5 -18t2.5 -19.5t-4.5 -16t-17.5 -6.5q-10 0 -17 8.5t-12 20t-8 22.5t-4 17zM14 784q-6 12 -1 28
t16.5 26.5t25.5 12t26 -15.5q8 -9 2.5 -26.5t-17 -31t-26.5 -15t-26 21.5z" />
    <glyph glyph-name="Imacron" unicode="&#x12a;" horiz-adv-x="131" 
d="M33 66q-1 17 -2.5 52.5t-3 82t-3 100.5t-2.5 108t-1.5 104.5t0.5 89t2.5 62.5t5.5 25h28q3 -37 3.5 -98t0.5 -130.5t0.5 -140t3.5 -128.5t9 -95.5t17 -39.5q0 -8 2.5 -18t2.5 -19.5t-4.5 -16t-17.5 -6.5q-10 0 -17 8.5t-12 20t-8 22.5t-4 17zM-149 795q0 8 4 21.5t9 18.5
l328 -11l3 -43z" />
    <glyph glyph-name="Iogonek" unicode="&#x12e;" horiz-adv-x="131" 
d="M33 66q-1 17 -2.5 52.5t-3 82t-3 100.5t-2.5 108t-1.5 104.5t0.5 89t2.5 62.5t5.5 25h28q3 -37 3.5 -98t0.5 -130.5t0.5 -140t3.5 -128.5t9 -95.5t17 -39.5q0 -8 2.5 -18t2.5 -19.5t-4.5 -16t-17.5 -6.5q-10 0 -17 8.5t-12 20t-8 22.5t-4 17zM135 -102
q-15 -15 -39.5 -21.5t-48.5 -2t-41 21t-17 48.5q0 6 3 20.5t10 30t18.5 29.5t28.5 19l20 -17q-18 -12 -29.5 -32t-13 -39t8 -33t32.5 -14q18 0 31.5 1.5t36.5 -11.5z" />
    <glyph glyph-name="Itilde" unicode="&#x128;" horiz-adv-x="131" 
d="M33 66q-1 17 -2.5 52.5t-3 82t-3 100.5t-2.5 108t-1.5 104.5t0.5 89t2.5 62.5t5.5 25h28q3 -37 3.5 -98t0.5 -130.5t0.5 -140t3.5 -128.5t9 -95.5t17 -39.5q0 -8 2.5 -18t2.5 -19.5t-4.5 -16t-17.5 -6.5q-10 0 -17 8.5t-12 20t-8 22.5t-4 17zM-115 756q0 9 3.5 27
t12.5 36t24 31.5t37 13.5q29 0 51 -13t43 -28t44 -28t53 -13q24 -1 43 8.5t33.5 24t25 30.5t16.5 27q3 1 7.5 -2.5t8.5 -9t5.5 -11.5t-1.5 -9q0 -16 -13.5 -32.5t-33.5 -29.5t-43.5 -21.5t-43.5 -8.5q-53 1 -95 25t-87 57q-21 1 -31 -11.5t-14.5 -30t-6.5 -35.5t-6 -27
q-14 0 -23 12t-9 18z" />
    <glyph glyph-name="Jcircumflex" unicode="&#x134;" horiz-adv-x="574" 
d="M13 180v24t3 24.5t10.5 20.5t22.5 13q-14 -116 38.5 -165t164.5 -49q59 0 104 20.5t75.5 56t46 83.5t15.5 103q3 65 -3 125t-15 110t-19 87t-16 57q22 9 37 -5.5t26 -45t17.5 -71t11 -83.5t6.5 -83t4 -69q0 -65 -16 -125t-50 -106t-87 -74t-127 -28q-41 0 -85 10.5
t-80.5 32.5t-60 56t-23.5 81zM244 854q8 14 15 16t20 2l72 -97q-3 -6 -5 -14.5t-6 -14.5t-11 -6.5t-19 9.5l-44 54l-36 -58q-11 -14 -26 -10.5t-22 16.5z" />
    <glyph glyph-name="Kcommaaccent" unicode="&#x136;" horiz-adv-x="672" 
d="M104 6q-5 -12 -13 -15t-16 0t-14 11t-7 20q-1 24 -2 72.5t-2.5 110.5t-3 130.5t-2.5 132.5t-1.5 117.5t0.5 84.5q13 19 33 16q10 -35 14 -90t6 -115.5t4 -119t9 -101.5q38 14 74 43t69.5 67t64.5 81t58.5 84.5t51 78t42.5 61.5t32.5 34.5t21.5 -2.5q7 -20 -7.5 -53.5
t-43 -74.5t-66.5 -87.5t-79 -92t-80 -88t-69 -75.5q64 -54 126 -88.5t121.5 -55.5t115.5 -31t109 -14q0 -2 0.5 -4.5t0.5 -3.5q0 -12 -6 -17.5t-15 -8t-19 -2t-17 0.5q-55 1 -106 15t-97.5 34t-87.5 43.5t-76.5 43t-65 32t-52.5 11.5zM249 -241q1 1 -3.5 -0.5t-10 -3.5
t-10.5 -4t-5 -1q-11 -6 -15.5 14t-2 50.5t10 64.5t19 56.5t27 26.5t33.5 -26z" />
    <glyph glyph-name="Lacute" unicode="&#x139;" horiz-adv-x="525" 
d="M49 33q-7 39 -11.5 91.5t-7.5 112t-4.5 123t-3 125t-2.5 117t-2 99.5q28 0 38.5 -6.5t12 -19t-1.5 -31t-3 -42.5q0 -18 2.5 -61t6 -97.5t7 -115t7 -114.5t6 -97t3.5 -61q10 -5 40 1t70 17.5t85.5 26t85 27.5t69 22t38.5 10q12 0 15 -9t9 -20q-10 -6 -42.5 -18.5
t-77 -27.5t-94.5 -31t-94 -28.5t-76.5 -20t-41.5 -5.5q-3 1 -8.5 5t-10.5 9t-9 10.5t-5 8.5zM236 724q-12 -10 -19 -9.5t-11 6.5t-6 14.5t-5 14.5l68 91q13 0 20 -2t15 -16z" />
    <glyph glyph-name="Lcaron" unicode="&#x13d;" horiz-adv-x="525" 
d="M230 473q1 1 -3.5 -0.5t-10 -3.5t-10.5 -4t-5 -1q-12 -5 -16 14.5t-1.5 50t10 64.5t19 56.5t27 26.5t33.5 -26zM49 33q-7 39 -11.5 91.5t-7.5 112t-4.5 123t-3 125t-2.5 117t-2 99.5q28 0 38.5 -6.5t12 -19t-1.5 -31t-3 -42.5q0 -18 2.5 -61t6 -97.5t7 -115t7 -114.5
t6 -97t3.5 -61q10 -5 40 1t70 17.5t85.5 26t85 27.5t69 22t38.5 10q12 0 15 -9t9 -20q-10 -6 -42.5 -18.5t-77 -27.5t-94.5 -31t-94 -28.5t-76.5 -20t-41.5 -5.5q-3 1 -8.5 5t-10.5 9t-9 10.5t-5 8.5z" />
    <glyph glyph-name="Lcommaaccent" unicode="&#x13b;" horiz-adv-x="525" 
d="M49 33q-7 39 -11.5 91.5t-7.5 112t-4.5 123t-3 125t-2.5 117t-2 99.5q28 0 38.5 -6.5t12 -19t-1.5 -31t-3 -42.5q0 -18 2.5 -61t6 -97.5t7 -115t7 -114.5t6 -97t3.5 -61q10 -5 40 1t70 17.5t85.5 26t85 27.5t69 22t38.5 10q12 0 15 -9t9 -20q-10 -6 -42.5 -18.5
t-77 -27.5t-94.5 -31t-94 -28.5t-76.5 -20t-41.5 -5.5q-3 1 -8.5 5t-10.5 9t-9 10.5t-5 8.5zM307 -254q1 1 -3.5 -0.5t-10 -3.5t-10.5 -4t-5 -1q-11 -6 -15.5 14t-2 50.5t10 64.5t19 56.5t27 26.5t33.5 -26z" />
    <glyph glyph-name="Ldot" unicode="&#x13f;" horiz-adv-x="525" 
d="M49 33q-7 39 -11.5 91.5t-7.5 112t-4.5 123t-3 125t-2.5 117t-2 99.5q28 0 38.5 -6.5t12 -19t-1.5 -31t-3 -42.5q0 -18 2.5 -61t6 -97.5t7 -115t7 -114.5t6 -97t3.5 -61q10 -5 40 1t70 17.5t85.5 26t85 27.5t69 22t38.5 10q12 0 15 -9t9 -20q-10 -6 -42.5 -18.5
t-77 -27.5t-94.5 -31t-94 -28.5t-76.5 -20t-41.5 -5.5q-3 1 -8.5 5t-10.5 9t-9 10.5t-5 8.5zM240 474q-6 12 -1 28t16.5 26.5t25.5 12t26 -15.5q8 -9 2.5 -26.5t-17 -31t-26.5 -15t-26 21.5z" />
    <glyph glyph-name="Nacute" unicode="&#x143;" horiz-adv-x="574" 
d="M41 493q-27 29 -28 53t10 41.5t27 27.5t24 12q16 0 23 -9.5t9 -24.5t0 -33.5t-3 -37t0 -35t8 -27.5q15 -17 34.5 -50.5t43.5 -75.5t52.5 -88t62 -87t71.5 -72.5t81 -44.5l-17 631q0 8 7.5 12t17 6t18 2.5t9.5 0.5q-12 -101 -13 -197t3.5 -178.5t12 -148t12.5 -105.5
q0 -10 -0.5 -21.5t-4 -21.5t-10.5 -16.5t-20 -6.5q-36 0 -77 29t-79 69t-70.5 82t-51.5 68q-6 8 -22.5 34t-35 56t-34 56.5t-20.5 35.5l5 -390q0 -23 2 -31.5t-13 -8.5q-4 0 -9.5 0.5t-11 2t-9.5 5t-4 10.5v476v0zM240 678q-12 -10 -19 -9.5t-11 6.5t-6 14.5t-5 14.5l68 91
q13 0 20 -2t15 -16z" />
    <glyph glyph-name="Ncaron" unicode="&#x147;" horiz-adv-x="574" 
d="M41 493q-27 29 -28 53t10 41.5t27 27.5t24 12q16 0 23 -9.5t9 -24.5t0 -33.5t-3 -37t0 -35t8 -27.5q15 -17 34.5 -50.5t43.5 -75.5t52.5 -88t62 -87t71.5 -72.5t81 -44.5l-17 631q0 8 7.5 12t17 6t18 2.5t9.5 0.5q-12 -101 -13 -197t3.5 -178.5t12 -148t12.5 -105.5
q0 -10 -0.5 -21.5t-4 -21.5t-10.5 -16.5t-20 -6.5q-36 0 -77 29t-79 69t-70.5 82t-51.5 68q-6 8 -22.5 34t-35 56t-34 56.5t-20.5 35.5l5 -390q0 -23 2 -31.5t-13 -8.5q-4 0 -9.5 0.5t-11 2t-9.5 5t-4 10.5v476v0zM262 672q-8 -14 -15 -16t-20 -2l-91 110q3 6 4.5 13.5
t4.5 12.5t9 5t18 -10l63 -81l66 80q17 20 25 14t11 -26z" />
    <glyph glyph-name="Ncommaaccent" unicode="&#x145;" horiz-adv-x="574" 
d="M41 493q-27 29 -28 53t10 41.5t27 27.5t24 12q16 0 23 -9.5t9 -24.5t0 -33.5t-3 -37t0 -35t8 -27.5q15 -17 34.5 -50.5t43.5 -75.5t52.5 -88t62 -87t71.5 -72.5t81 -44.5l-17 631q0 8 7.5 12t17 6t18 2.5t9.5 0.5q-12 -101 -13 -197t3.5 -178.5t12 -148t12.5 -105.5
q0 -10 -0.5 -21.5t-4 -21.5t-10.5 -16.5t-20 -6.5q-36 0 -77 29t-79 69t-70.5 82t-51.5 68q-6 8 -22.5 34t-35 56t-34 56.5t-20.5 35.5l5 -390q0 -23 2 -31.5t-13 -8.5q-4 0 -9.5 0.5t-11 2t-9.5 5t-4 10.5v476v0zM214 -252q1 1 -3.5 -0.5t-10 -3.5t-10.5 -4t-5 -1
q-11 -6 -15.5 14t-2 50.5t10 64.5t19 56.5t27 26.5t33.5 -26z" />
    <glyph glyph-name="Obreve" unicode="&#x14e;" horiz-adv-x="391" 
d="M141 0q-36 3 -62 33.5t-41 79.5t-20 110.5t1 125.5t23 125.5t44.5 110t66 79t88.5 32.5q43 -4 71.5 -37t43.5 -84t17.5 -114.5t-6.5 -129t-28.5 -127t-48.5 -108.5t-66.5 -73.5t-82.5 -22.5zM234 650q-30 -1 -56.5 -25t-47.5 -63t-36.5 -88.5t-23.5 -102.5t-8.5 -105
t8 -95.5t26 -74.5t46.5 -42q35 -3 64.5 18.5t53 59t39.5 87.5t24 103.5t7.5 107t-11 98.5t-31.5 77.5t-54 44.5zM148 825q13 -29 28.5 -39.5t32 -9.5t32 9.5t29 18t23 16.5t13.5 5q14 6 13.5 -5t-12.5 -27.5t-33 -33t-46.5 -21t-54.5 9.5t-56 57z" />
    <glyph glyph-name="Omacron" unicode="&#x14c;" horiz-adv-x="391" 
d="M141 0q-36 3 -62 33.5t-41 79.5t-20 110.5t1 125.5t23 125.5t44.5 110t66 79t88.5 32.5q43 -4 71.5 -37t43.5 -84t17.5 -114.5t-6.5 -129t-28.5 -127t-48.5 -108.5t-66.5 -73.5t-82.5 -22.5zM234 650q-30 -1 -56.5 -25t-47.5 -63t-36.5 -88.5t-23.5 -102.5t-8.5 -105
t8 -95.5t26 -74.5t46.5 -42q35 -3 64.5 18.5t53 59t39.5 87.5t24 103.5t7.5 107t-11 98.5t-31.5 77.5t-54 44.5zM35 732q0 8 4 21.5t9 18.5l328 -11l3 -43z" />
    <glyph glyph-name="Oslashacute" unicode="&#x1fe;" horiz-adv-x="417" 
d="M141 0q-36 3 -62 33.5t-41 79.5t-20 110.5t1 125.5t23 125.5t44.5 110t66 79t88.5 32.5q43 -4 71.5 -37t43.5 -84t17.5 -114.5t-6.5 -129t-28.5 -127t-48.5 -108.5t-66.5 -73.5t-82.5 -22.5zM234 650q-30 -1 -56.5 -25t-47.5 -63t-36.5 -88.5t-23.5 -102.5t-8.5 -105
t8 -95.5t26 -74.5t46.5 -42q35 -3 64.5 18.5t53 59t39.5 87.5t24 103.5t7.5 107t-11 98.5t-31.5 77.5t-54 44.5zM23.9648 -7.95117q-18.1133 0 -23.9736 5.89258t-11.1875 24.0225l382.511 684.403q10.6553 4.53223 18.1133 3.17188q7.45898 -1.35938 11.7207 -6.34473
q4.26172 -4.98633 5.86035 -12.6914q1.59766 -7.70508 -0.533203 -14.0508zM227 782q-12 -10 -19 -9.5t-11 6.5t-6 14.5t-5 14.5l68 91q13 0 20 -2t15 -16z" />
    <glyph glyph-name="Racute" unicode="&#x154;" horiz-adv-x="546" 
d="M52 12q-2 123 -12.5 252.5t-11.5 265.5q21 43 58 79t79.5 58.5t87 30.5t80 -3.5t58.5 -45t23 -93.5q0 -45 -16 -85t-41.5 -75t-58 -65t-66.5 -57q15 -12 47.5 -34t70 -48.5t75.5 -55t63.5 -53.5t33.5 -44t-14 -27q-38 20 -73.5 52t-79.5 66.5t-101 68.5t-138 59
q0 2 0.5 8.5t0.5 7.5q43 17 89.5 43.5t85 62.5t63.5 81t25 100q0 48 -29 70t-71 22q-29 0 -57 -13t-53.5 -33t-47 -43.5t-37.5 -43.5v-98q0 -53 0.5 -94.5t2 -83.5t4.5 -89t9 -110q2 -24 -13.5 -30t-35.5 -3zM192 724q-12 -10 -19 -9.5t-11 6.5t-6 14.5t-5 14.5l68 91
q13 0 20 -2t15 -16z" />
    <glyph glyph-name="Rcaron" unicode="&#x158;" horiz-adv-x="541" 
d="M52 12q-2 123 -12.5 252.5t-11.5 265.5q21 43 58 79t79.5 58.5t87 30.5t80 -3.5t58.5 -45t23 -93.5q0 -45 -16 -85t-41.5 -75t-58 -65t-66.5 -57q15 -12 47.5 -34t70 -48.5t75.5 -55t63.5 -53.5t33.5 -44t-14 -27q-38 20 -73.5 52t-79.5 66.5t-101 68.5t-138 59
q0 2 0.5 8.5t0.5 7.5q43 17 89.5 43.5t85 62.5t63.5 81t25 100q0 48 -29 70t-71 22q-29 0 -57 -13t-53.5 -33t-47 -43.5t-37.5 -43.5v-98q0 -53 0.5 -94.5t2 -83.5t4.5 -89t9 -110q2 -24 -13.5 -30t-35.5 -3zM260 738q-8 -14 -15 -16t-20 -2l-91 110q3 6 4.5 13.5t4.5 12.5
t9 5t18 -10l63 -81l66 80q17 20 25 14t11 -26z" />
    <glyph glyph-name="Rcommaaccent" unicode="&#x156;" horiz-adv-x="521" 
d="M52 12q-2 123 -12.5 252.5t-11.5 265.5q21 43 58 79t79.5 58.5t87 30.5t80 -3.5t58.5 -45t23 -93.5q0 -45 -16 -85t-41.5 -75t-58 -65t-66.5 -57q15 -12 47.5 -34t70 -48.5t75.5 -55t63.5 -53.5t33.5 -44t-14 -27q-38 20 -73.5 52t-79.5 66.5t-101 68.5t-138 59
q0 2 0.5 8.5t0.5 7.5q43 17 89.5 43.5t85 62.5t63.5 81t25 100q0 48 -29 70t-71 22q-29 0 -57 -13t-53.5 -33t-47 -43.5t-37.5 -43.5v-98q0 -53 0.5 -94.5t2 -83.5t4.5 -89t9 -110q2 -24 -13.5 -30t-35.5 -3zM255 -252q1 1 -3.5 -0.5t-10 -3.5t-10.5 -4t-5 -1
q-11 -6 -15.5 14t-2 50.5t10 64.5t19 56.5t27 26.5t33.5 -26z" />
    <glyph glyph-name="Sacute" unicode="&#x15a;" horiz-adv-x="475" 
d="M127 51q0 1 3.5 4.5l8 8l8 8t3.5 4.5q29 -24 49 -29t49 -5q26 0 55 13t53.5 34t40.5 47t16 53q0 39 -29.5 61.5t-74 37.5t-96 26t-96 26.5t-74 38.5t-29.5 62q0 43 17.5 87.5t47.5 80t69.5 58t83.5 22.5q28 0 49.5 -10t36.5 -27.5t23 -40.5t8 -50q0 -18 -1 -34
t-3.5 -31.5t-6 -32t-8.5 -36.5q-1 -2 -3.5 -2.5t-4.5 -0.5q-18 0 -22 16t-2.5 40.5t3.5 52.5t-3 52.5t-21.5 40.5t-52.5 16q-30 0 -59 -15.5t-51.5 -40.5t-36 -56.5t-13.5 -63.5q0 -33 29.5 -55t73 -38t95 -29.5t95 -30.5t73 -40.5t29.5 -59.5q0 -37 -16.5 -75t-44.5 -69
t-63.5 -51t-72.5 -20q-13 0 -36 2.5t-45 8.5t-38 16t-16 26zM205 741q-12 -10 -19 -9.5t-11 6.5t-6 14.5t-5 14.5l68 91q13 0 20 -2t15 -16z" />
    <glyph glyph-name="Scedilla" unicode="&#x15e;" horiz-adv-x="475" 
d="M127 51q0 1 3.5 4.5l8 8l8 8t3.5 4.5q29 -24 49 -29t49 -5q26 0 55 13t53.5 34t40.5 47t16 53q0 39 -29.5 61.5t-74 37.5t-96 26t-96 26.5t-74 38.5t-29.5 62q0 43 17.5 87.5t47.5 80t69.5 58t83.5 22.5q28 0 49.5 -10t36.5 -27.5t23 -40.5t8 -50q0 -18 -1 -34
t-3.5 -31.5t-6 -32t-8.5 -36.5q-1 -2 -3.5 -2.5t-4.5 -0.5q-18 0 -22 16t-2.5 40.5t3.5 52.5t-3 52.5t-21.5 40.5t-52.5 16q-30 0 -59 -15.5t-51.5 -40.5t-36 -56.5t-13.5 -63.5q0 -33 29.5 -55t73 -38t95 -29.5t95 -30.5t73 -40.5t29.5 -59.5q0 -37 -16.5 -75t-44.5 -69
t-63.5 -51t-72.5 -20q-13 0 -36 2.5t-45 8.5t-38 16t-16 26zM154 -175q-4 11 -1 19t9 11.5t13 1.5t11 -10q8 -25 27.5 -39t39.5 -17t36.5 6t19.5 31q0 21 -9.5 34.5t-23.5 24t-30.5 19.5t-30.5 20.5t-23.5 27t-9.5 39.5q-7 28 -0.5 38.5t16 8t17 -16.5t2.5 -36
q7 -15 27.5 -29t42.5 -31.5t39.5 -39.5t18.5 -53q-2 -47 -24 -67.5t-52 -19.5t-62 21.5t-53 56.5z" />
    <glyph glyph-name="Scircumflex" unicode="&#x15c;" horiz-adv-x="475" 
d="M127 51q0 1 3.5 4.5l8 8l8 8t3.5 4.5q29 -24 49 -29t49 -5q26 0 55 13t53.5 34t40.5 47t16 53q0 39 -29.5 61.5t-74 37.5t-96 26t-96 26.5t-74 38.5t-29.5 62q0 43 17.5 87.5t47.5 80t69.5 58t83.5 22.5q28 0 49.5 -10t36.5 -27.5t23 -40.5t8 -50q0 -18 -1 -34
t-3.5 -31.5t-6 -32t-8.5 -36.5q-1 -2 -3.5 -2.5t-4.5 -0.5q-18 0 -22 16t-2.5 40.5t3.5 52.5t-3 52.5t-21.5 40.5t-52.5 16q-30 0 -59 -15.5t-51.5 -40.5t-36 -56.5t-13.5 -63.5q0 -33 29.5 -55t73 -38t95 -29.5t95 -30.5t73 -40.5t29.5 -59.5q0 -37 -16.5 -75t-44.5 -69
t-63.5 -51t-72.5 -20q-13 0 -36 2.5t-45 8.5t-38 16t-16 26zM194 871q8 14 15 16t20 2l72 -97q-3 -6 -5 -14.5t-6 -14.5t-11 -6.5t-19 9.5l-44 54l-36 -58q-11 -14 -26 -10.5t-22 16.5z" />
    <glyph glyph-name="Scommaaccent" unicode="&#x218;" horiz-adv-x="475" 
d="M127 51q0 1 3.5 4.5l8 8l8 8t3.5 4.5q29 -24 49 -29t49 -5q26 0 55 13t53.5 34t40.5 47t16 53q0 39 -29.5 61.5t-74 37.5t-96 26t-96 26.5t-74 38.5t-29.5 62q0 43 17.5 87.5t47.5 80t69.5 58t83.5 22.5q28 0 49.5 -10t36.5 -27.5t23 -40.5t8 -50q0 -18 -1 -34
t-3.5 -31.5t-6 -32t-8.5 -36.5q-1 -2 -3.5 -2.5t-4.5 -0.5q-18 0 -22 16t-2.5 40.5t3.5 52.5t-3 52.5t-21.5 40.5t-52.5 16q-30 0 -59 -15.5t-51.5 -40.5t-36 -56.5t-13.5 -63.5q0 -33 29.5 -55t73 -38t95 -29.5t95 -30.5t73 -40.5t29.5 -59.5q0 -37 -16.5 -75t-44.5 -69
t-63.5 -51t-72.5 -20q-13 0 -36 2.5t-45 8.5t-38 16t-16 26zM213 -240q1 1 -3.5 -0.5t-10 -3.5t-10.5 -4t-5 -1q-11 -6 -15.5 14t-2 50.5t10 64.5t19 56.5t27 26.5t33.5 -26z" />
    <glyph glyph-name="Tbar" unicode="&#x166;" horiz-adv-x="738" 
d="M10 582q0 15 16.5 24.5t39 16.5t44.5 10.5t33 6.5q75 18 146 35t141.5 30.5t142.5 22t149 8.5v-29q-62 -3 -119 -13t-110 -22t-101 -25t-90 -23q8 -6 14 -16t7 -21q1 -18 3 -56.5t4 -89t4 -108t3.5 -112t2.5 -101t0 -76.5q-1 -26 -9 -37.5t-38 -7.5v64t-0.5 93t-1 93
t-0.5 63q0 8 -1.5 32t-3 55.5t-4 67t-4 66.5t-2.5 54t-1 31q-123 -29 -230 -62q-13 0 -24 5.5t-11 20.5zM139 776q0 8 4 21.5t9 18.5l328 -11l3 -43z" />
    <glyph glyph-name="Tcaron" unicode="&#x164;" horiz-adv-x="738" 
d="M10 582q0 15 16.5 24.5t39 16.5t44.5 10.5t33 6.5q75 18 146 35t141.5 30.5t142.5 22t149 8.5v-29q-62 -3 -119 -13t-110 -22t-101 -25t-90 -23q8 -6 14 -16t7 -21q1 -18 3 -56.5t4 -89t4 -108t3.5 -112t2.5 -101t0 -76.5q-1 -26 -9 -37.5t-38 -7.5v64t-0.5 93t-1 93
t-0.5 63q0 8 -1.5 32t-3 55.5t-4 67t-4 66.5t-2.5 54t-1 31q-123 -29 -230 -62q-13 0 -24 5.5t-11 20.5zM329 726q-8 -14 -15 -16t-20 -2l-91 110q3 6 4.5 13.5t4.5 12.5t9 5t18 -10l63 -81l66 80q17 20 25 14t11 -26z" />
    <glyph glyph-name="Tcommaaccent" unicode="&#x162;" horiz-adv-x="738" 
d="M10 582q0 15 16.5 24.5t39 16.5t44.5 10.5t33 6.5q75 18 146 35t141.5 30.5t142.5 22t149 8.5v-29q-62 -3 -119 -13t-110 -22t-101 -25t-90 -23q8 -6 14 -16t7 -21q1 -18 3 -56.5t4 -89t4 -108t3.5 -112t2.5 -101t0 -76.5q-1 -26 -9 -37.5t-38 -7.5v64t-0.5 93t-1 93
t-0.5 63q0 8 -1.5 32t-3 55.5t-4 67t-4 66.5t-2.5 54t-1 31q-123 -29 -230 -62q-13 0 -24 5.5t-11 20.5zM296 -252q1 1 -3.5 -0.5t-10 -3.5t-10.5 -4t-5 -1q-11 -6 -15.5 14t-2 50.5t10 64.5t19 56.5t27 26.5t33.5 -26z" />
    <glyph glyph-name="Ubreve" unicode="&#x16c;" horiz-adv-x="459" 
d="M134 4q-42 30 -67.5 72.5t-38 93t-16.5 106t-3.5 111.5t2 109.5t-0.5 100.5q7 10 18 14.5t22 2.5q4 -43 3.5 -92.5t-1.5 -102t1 -105t10.5 -100t26.5 -88.5t50 -70q45 -14 83 11t67.5 74.5t50 117.5t31 139t9.5 138.5t-13 117.5q-12 -39 -21.5 -51.5t-15.5 -8t-7.5 21
t2.5 35t14 34t28 18.5q25 -12 39 -50.5t17.5 -93t-3 -120t-22.5 -130.5t-41.5 -125t-59 -103.5t-74.5 -65.5t-90 -11zM98 805q13 -29 28.5 -39.5t32 -9.5t32 9.5t29 18t23 16.5t13.5 5q14 6 13.5 -5t-12.5 -27.5t-33 -33t-46.5 -21t-54.5 9.5t-56 57z" />
    <glyph glyph-name="Umacron" unicode="&#x16a;" horiz-adv-x="459" 
d="M134 4q-42 30 -67.5 72.5t-38 93t-16.5 106t-3.5 111.5t2 109.5t-0.5 100.5q7 10 18 14.5t22 2.5q4 -43 3.5 -92.5t-1.5 -102t1 -105t10.5 -100t26.5 -88.5t50 -70q45 -14 83 11t67.5 74.5t50 117.5t31 139t9.5 138.5t-13 117.5q-12 -39 -21.5 -51.5t-15.5 -8t-7.5 21
t2.5 35t14 34t28 18.5q25 -12 39 -50.5t17.5 -93t-3 -120t-22.5 -130.5t-41.5 -125t-59 -103.5t-74.5 -65.5t-90 -11zM23 742q0 8 4 21.5t9 18.5l328 -11l3 -43z" />
    <glyph glyph-name="Uogonek" unicode="&#x172;" horiz-adv-x="459" 
d="M134 4q-42 30 -67.5 72.5t-38 93t-16.5 106t-3.5 111.5t2 109.5t-0.5 100.5q7 10 18 14.5t22 2.5q4 -43 3.5 -92.5t-1.5 -102t1 -105t10.5 -100t26.5 -88.5t50 -70q45 -14 83 11t67.5 74.5t50 117.5t31 139t9.5 138.5t-13 117.5q-12 -39 -21.5 -51.5t-15.5 -8t-7.5 21
t2.5 35t14 34t28 18.5q25 -12 39 -50.5t17.5 -93t-3 -120t-22.5 -130.5t-41.5 -125t-59 -103.5t-74.5 -65.5t-90 -11zM292 -92q-15 -15 -39.5 -21.5t-48.5 -2t-41 21t-17 48.5q0 6 3 20.5t10 30t18.5 29.5t28.5 19l20 -17q-18 -12 -29.5 -32t-13 -39t8 -33t32.5 -14
q18 0 31.5 1.5t36.5 -11.5z" />
    <glyph glyph-name="Uring" unicode="&#x16e;" horiz-adv-x="459" 
d="M134 4q-42 30 -67.5 72.5t-38 93t-16.5 106t-3.5 111.5t2 109.5t-0.5 100.5q7 10 18 14.5t22 2.5q4 -43 3.5 -92.5t-1.5 -102t1 -105t10.5 -100t26.5 -88.5t50 -70q45 -14 83 11t67.5 74.5t50 117.5t31 139t9.5 138.5t-13 117.5q-12 -39 -21.5 -51.5t-15.5 -8t-7.5 21
t2.5 35t14 34t28 18.5q25 -12 39 -50.5t17.5 -93t-3 -120t-22.5 -130.5t-41.5 -125t-59 -103.5t-74.5 -65.5t-90 -11zM174 688q-32 1 -48.5 11t-19.5 24t5.5 29.5t25 28t39 19.5t48.5 3q37 -10 48.5 -30t2.5 -39.5t-35.5 -33.5t-65.5 -12zM207 774q-22 1 -37.5 -6
t-21.5 -17.5t0 -21t27 -17.5q28 2 44.5 11t20.5 19.5t-4.5 19.5t-28.5 12z" />
    <glyph glyph-name="Utilde" unicode="&#x168;" horiz-adv-x="459" 
d="M134 4q-42 30 -67.5 72.5t-38 93t-16.5 106t-3.5 111.5t2 109.5t-0.5 100.5q7 10 18 14.5t22 2.5q4 -43 3.5 -92.5t-1.5 -102t1 -105t10.5 -100t26.5 -88.5t50 -70q45 -14 83 11t67.5 74.5t50 117.5t31 139t9.5 138.5t-13 117.5q-12 -39 -21.5 -51.5t-15.5 -8t-7.5 21
t2.5 35t14 34t28 18.5q25 -12 39 -50.5t17.5 -93t-3 -120t-22.5 -130.5t-41.5 -125t-59 -103.5t-74.5 -65.5t-90 -11zM46 748q0 9 3.5 27t12.5 36t24 31.5t37 13.5q29 0 51 -13t43 -28t44 -28t53 -13q24 -1 43 8.5t33.5 24t25 30.5t16.5 27q3 1 7.5 -2.5t8.5 -9t5.5 -11.5
t-1.5 -9q0 -16 -13.5 -32.5t-33.5 -29.5t-43.5 -21.5t-43.5 -8.5q-53 1 -95 25t-87 57q-21 1 -31 -11.5t-14.5 -30t-6.5 -35.5t-6 -27q-14 0 -23 12t-9 18z" />
    <glyph glyph-name="Wacute" unicode="&#x1e82;" horiz-adv-x="934" 
d="M448 454q-9 -18 -23.5 -53.5t-31 -78.5t-34 -89.5t-32.5 -88t-27 -73.5t-18 -46q-4 -12 -8.5 -20.5t-20.5 -4.5q-33 81 -62 170.5t-58 176t-59 164.5t-65 137q-5 10 1.5 19t14.5 14q34 -44 61.5 -97t49.5 -109t39.5 -112.5t32 -107.5t27 -92.5t24.5 -67.5q40 88 69 166
t51.5 137.5t40.5 96.5t36 43q1 0 2 -0.5t3 -0.5q2 -1 4 -1q12 -5 18.5 -31t14 -65.5t17.5 -89t28 -100.5t46 -100.5t72 -88.5q13 25 24.5 75t23 112t22.5 130t24.5 128.5t29 108t34.5 68.5q16 7 30 5.5t24.5 -7.5t17.5 -14.5t10 -15.5v1q-22 3 -34.5 2.5t-20.5 -7.5
t-13.5 -22t-13.5 -40l-126 -586q-1 0 -6 -0.5t-11 -1.5q-7 -1 -15 -2q-48 39 -82 94.5t-58.5 118t-41.5 126.5t-31 120zM426 739q-12 -10 -19 -9.5t-11 6.5t-6 14.5t-5 14.5l68 91q13 0 20 -2t15 -16z" />
    <glyph glyph-name="Wcircumflex" unicode="&#x174;" horiz-adv-x="934" 
d="M448 454q-9 -18 -23.5 -53.5t-31 -78.5t-34 -89.5t-32.5 -88t-27 -73.5t-18 -46q-4 -12 -8.5 -20.5t-20.5 -4.5q-33 81 -62 170.5t-58 176t-59 164.5t-65 137q-5 10 1.5 19t14.5 14q34 -44 61.5 -97t49.5 -109t39.5 -112.5t32 -107.5t27 -92.5t24.5 -67.5q40 88 69 166
t51.5 137.5t40.5 96.5t36 43q1 0 2 -0.5t3 -0.5q2 -1 4 -1q12 -5 18.5 -31t14 -65.5t17.5 -89t28 -100.5t46 -100.5t72 -88.5q13 25 24.5 75t23 112t22.5 130t24.5 128.5t29 108t34.5 68.5q16 7 30 5.5t24.5 -7.5t17.5 -14.5t10 -15.5v1q-22 3 -34.5 2.5t-20.5 -7.5
t-13.5 -22t-13.5 -40l-126 -586q-1 0 -6 -0.5t-11 -1.5q-7 -1 -15 -2q-48 39 -82 94.5t-58.5 118t-41.5 126.5t-31 120zM420 860q8 14 15 16t20 2l72 -97q-3 -6 -5 -14.5t-6 -14.5t-11 -6.5t-19 9.5l-44 54l-36 -58q-11 -14 -26 -10.5t-22 16.5z" />
    <glyph glyph-name="Wdieresis" unicode="&#x1e84;" horiz-adv-x="934" 
d="M448 454q-9 -18 -23.5 -53.5t-31 -78.5t-34 -89.5t-32.5 -88t-27 -73.5t-18 -46q-4 -12 -8.5 -20.5t-20.5 -4.5q-33 81 -62 170.5t-58 176t-59 164.5t-65 137q-5 10 1.5 19t14.5 14q34 -44 61.5 -97t49.5 -109t39.5 -112.5t32 -107.5t27 -92.5t24.5 -67.5q40 88 69 166
t51.5 137.5t40.5 96.5t36 43q1 0 2 -0.5t3 -0.5q2 -1 4 -1q12 -5 18.5 -31t14 -65.5t17.5 -89t28 -100.5t46 -100.5t72 -88.5q13 25 24.5 75t23 112t22.5 130t24.5 128.5t29 108t34.5 68.5q16 7 30 5.5t24.5 -7.5t17.5 -14.5t10 -15.5v1q-22 3 -34.5 2.5t-20.5 -7.5
t-13.5 -22t-13.5 -40l-126 -586q-1 0 -6 -0.5t-11 -1.5q-7 -1 -15 -2q-48 39 -82 94.5t-58.5 118t-41.5 126.5t-31 120zM383 710q-8 12 -4.5 27t13 24.5t22.5 10t25 -16.5q9 -11 5.5 -26t-13.5 -24.5t-23.5 -10.5t-24.5 16zM512 714q-8 10 -5 25t12.5 25t23 11t25.5 -16
q10 -11 8.5 -26.5t-11 -26t-24 -11t-29.5 18.5z" />
    <glyph glyph-name="Wgrave" unicode="&#x1e80;" horiz-adv-x="934" 
d="M448 454q-9 -18 -23.5 -53.5t-31 -78.5t-34 -89.5t-32.5 -88t-27 -73.5t-18 -46q-4 -12 -8.5 -20.5t-20.5 -4.5q-33 81 -62 170.5t-58 176t-59 164.5t-65 137q-5 10 1.5 19t14.5 14q34 -44 61.5 -97t49.5 -109t39.5 -112.5t32 -107.5t27 -92.5t24.5 -67.5q40 88 69 166
t51.5 137.5t40.5 96.5t36 43q1 0 2 -0.5t3 -0.5q2 -1 4 -1q12 -5 18.5 -31t14 -65.5t17.5 -89t28 -100.5t46 -100.5t72 -88.5q13 25 24.5 75t23 112t22.5 130t24.5 128.5t29 108t34.5 68.5q16 7 30 5.5t24.5 -7.5t17.5 -14.5t10 -15.5v1q-22 3 -34.5 2.5t-20.5 -7.5
t-13.5 -22t-13.5 -40l-126 -586q-1 0 -6 -0.5t-11 -1.5q-7 -1 -15 -2q-48 39 -82 94.5t-58.5 118t-41.5 126.5t-31 120zM370 803q8 14 15 16t20 2l68 -91q-3 -6 -5 -14.5t-6 -14.5t-11 -6.5t-19 9.5z" />
    <glyph glyph-name="Ycircumflex" unicode="&#x176;" horiz-adv-x="426" 
d="M242 256q-70 79 -130 175t-102 193q9 20 24.5 10t35 -37.5t42 -67.5t46.5 -81t48.5 -77.5t47.5 -56.5q6 22 13 67t17 97.5t22 105t26 89t31 49t37 -13.5q-33 -81 -56.5 -162.5t-38 -168.5t-21 -183t-4.5 -206q-9 -20 -20.5 -24.5t-26.5 20.5zM176 860q8 14 15 16t20 2
l72 -97q-3 -6 -5 -14.5t-6 -14.5t-11 -6.5t-19 9.5l-44 54l-36 -58q-11 -14 -26 -10.5t-22 16.5z" />
    <glyph glyph-name="Ygrave" unicode="&#x1ef2;" horiz-adv-x="426" 
d="M242 256q-70 79 -130 175t-102 193q9 20 24.5 10t35 -37.5t42 -67.5t46.5 -81t48.5 -77.5t47.5 -56.5q6 22 13 67t17 97.5t22 105t26 89t31 49t37 -13.5q-33 -81 -56.5 -162.5t-38 -168.5t-21 -183t-4.5 -206q-9 -20 -20.5 -24.5t-26.5 20.5zM126 825q8 14 15 16t20 2
l68 -91q-3 -6 -5 -14.5t-6 -14.5t-11 -6.5t-19 9.5z" />
    <glyph glyph-name="Zacute" unicode="&#x179;" horiz-adv-x="623" 
d="M183 -36q-53 1 -72 22.5t-16.5 54.5t20 73.5t36.5 78t33 68.5t10 46q-18 3 -36.5 -4t-34.5 -14t-27.5 -7t-16.5 17q0 19 10.5 29.5t26.5 16.5t35.5 9t38 8t33.5 13t22 23q12 27 25.5 56.5t25.5 60t19.5 62t7.5 62.5q-54 3 -96 -6t-75 -23.5t-58.5 -30t-47.5 -24.5
q-11 0 -20 6t-11 17q6 16 28 32t52.5 30.5t66.5 26t70.5 19t63.5 10t47 -2.5q20 -6 27 -22.5t5 -39.5t-10 -51.5t-18 -59.5t-20.5 -62t-16.5 -60q67 11 120 19.5t110 12.5q3 -27 -7 -40.5t-29 -20.5t-45 -9t-55.5 -5t-61 -9.5t-60.5 -21.5q-12 -26 -33.5 -64.5t-43.5 -79.5
t-38.5 -80.5t-18.5 -67.5q24 -17 63 -18t85 9t95 29t91.5 41.5t74.5 47t45 45.5q16 -31 0.5 -58.5t-51.5 -51t-86 -43t-102 -33.5t-100 -23.5t-80 -12.5zM265 750q-12 -10 -19 -9.5t-11 6.5t-6 14.5t-5 14.5l68 91q13 0 20 -2t15 -16z" />
    <glyph glyph-name="Zdotaccent" unicode="&#x17b;" horiz-adv-x="623" 
d="M183 -36q-53 1 -72 22.5t-16.5 54.5t20 73.5t36.5 78t33 68.5t10 46q-18 3 -36.5 -4t-34.5 -14t-27.5 -7t-16.5 17q0 19 10.5 29.5t26.5 16.5t35.5 9t38 8t33.5 13t22 23q12 27 25.5 56.5t25.5 60t19.5 62t7.5 62.5q-54 3 -96 -6t-75 -23.5t-58.5 -30t-47.5 -24.5
q-11 0 -20 6t-11 17q6 16 28 32t52.5 30.5t66.5 26t70.5 19t63.5 10t47 -2.5q20 -6 27 -22.5t5 -39.5t-10 -51.5t-18 -59.5t-20.5 -62t-16.5 -60q67 11 120 19.5t110 12.5q3 -27 -7 -40.5t-29 -20.5t-45 -9t-55.5 -5t-61 -9.5t-60.5 -21.5q-12 -26 -33.5 -64.5t-43.5 -79.5
t-38.5 -80.5t-18.5 -67.5q24 -17 63 -18t85 9t95 29t91.5 41.5t74.5 47t45 45.5q16 -31 0.5 -58.5t-51.5 -51t-86 -43t-102 -33.5t-100 -23.5t-80 -12.5zM243 775q-6 12 -1 28t16.5 26.5t25.5 12t26 -15.5q8 -9 2.5 -26.5t-17 -31t-26.5 -15t-26 21.5z" />
    <glyph glyph-name="abreve" unicode="&#x103;" horiz-adv-x="544" 
d="M99 -2q-34 1 -52.5 26.5t-25.5 66.5t-2.5 94t17.5 109t33.5 111t45.5 100.5t54 78t59 42.5q25 0 42.5 -9.5t29.5 -25.5t19.5 -36t12.5 -41q1 9 6.5 27t13 32.5t16 19.5t16.5 -11q-13 -105 -18 -181t-4 -129t8 -86t19 -52t28 -28t35 -14q27 -5 46.5 4.5t34.5 25.5t26.5 33
t22.5 27q7 -21 -1 -45t-25.5 -44.5t-43 -33t-53.5 -11.5q-43 0 -70.5 23t-44 58t-23.5 75t-9 75q-11 -29 -29 -76.5t-43.5 -93t-60.5 -78.5t-80 -33zM230 582q-15 -1 -33.5 -22.5t-38.5 -57t-38.5 -80.5t-33 -93t-23 -95.5t-7.5 -86.5t13 -66t38 -35q18 -4 39 13t41.5 47
t39.5 71t35.5 85t28 87.5t17.5 80.5q0 18 -4 44t-13 50t-24 41t-37 17zM143 808q13 -29 28.5 -39.5t32 -9.5t32 9.5t29 18t23 16.5t13.5 5q14 6 13.5 -5t-12.5 -27.5t-33 -33t-46.5 -21t-54.5 9.5t-56 57z" />
    <glyph glyph-name="amacron" unicode="&#x101;" horiz-adv-x="544" 
d="M99 -2q-34 1 -52.5 26.5t-25.5 66.5t-2.5 94t17.5 109t33.5 111t45.5 100.5t54 78t59 42.5q25 0 42.5 -9.5t29.5 -25.5t19.5 -36t12.5 -41q1 9 6.5 27t13 32.5t16 19.5t16.5 -11q-13 -105 -18 -181t-4 -129t8 -86t19 -52t28 -28t35 -14q27 -5 46.5 4.5t34.5 25.5t26.5 33
t22.5 27q7 -21 -1 -45t-25.5 -44.5t-43 -33t-53.5 -11.5q-43 0 -70.5 23t-44 58t-23.5 75t-9 75q-11 -29 -29 -76.5t-43.5 -93t-60.5 -78.5t-80 -33zM230 582q-15 -1 -33.5 -22.5t-38.5 -57t-38.5 -80.5t-33 -93t-23 -95.5t-7.5 -86.5t13 -66t38 -35q18 -4 39 13t41.5 47
t39.5 71t35.5 85t28 87.5t17.5 80.5q0 18 -4 44t-13 50t-24 41t-37 17zM60 713q0 8 4 21.5t9 18.5l328 -11l3 -43z" />
    <glyph glyph-name="aogonek" unicode="&#x105;" horiz-adv-x="544" 
d="M99 -2q-34 1 -52.5 26.5t-25.5 66.5t-2.5 94t17.5 109t33.5 111t45.5 100.5t54 78t59 42.5q25 0 42.5 -9.5t29.5 -25.5t19.5 -36t12.5 -41q1 9 6.5 27t13 32.5t16 19.5t16.5 -11q-13 -105 -18 -181t-4 -129t8 -86t19 -52t28 -28t35 -14q27 -5 46.5 4.5t34.5 25.5t26.5 33
t22.5 27q7 -21 -1 -45t-25.5 -44.5t-43 -33t-53.5 -11.5q-43 0 -70.5 23t-44 58t-23.5 75t-9 75q-11 -29 -29 -76.5t-43.5 -93t-60.5 -78.5t-80 -33zM230 582q-15 -1 -33.5 -22.5t-38.5 -57t-38.5 -80.5t-33 -93t-23 -95.5t-7.5 -86.5t13 -66t38 -35q18 -4 39 13t41.5 47
t39.5 71t35.5 85t28 87.5t17.5 80.5q0 18 -4 44t-13 50t-24 41t-37 17zM478 -56q-15 -15 -39.5 -21.5t-48.5 -2t-41 21t-17 48.5q0 6 3 20.5t10 30t18.5 29.5t28.5 19l20 -17q-18 -12 -29.5 -32t-13 -39t8 -33t32.5 -14q18 0 31.5 1.5t36.5 -11.5z" />
    <glyph glyph-name="aeacute" unicode="&#x1fd;" horiz-adv-x="607" 
d="M228 626q-30 -10 -59 -42.5t-54 -78t-45.5 -100.5t-33.5 -111t-17.5 -109t2.5 -94t25.5 -66.5t52.5 -26.5q23 0 43 9t38 25t33.5 37t28.5 44q11 -37 41 -63.5t65 -26.5q20 -2 49 9.5t59 30.5t57.5 43.5t45 49.5t21.5 47.5t-13 37.5q-7 -14 -24.5 -37.5t-41.5 -47.5
t-52 -45.5t-56 -31.5t-53 -5t-43 33q90 95 141.5 172t76 137.5t27.5 104t-5 72t-21.5 42t-20.5 12.5q-38 12 -72 -12.5t-63 -72.5q-6 15 -19 29.5t-30.5 24.5t-39 13.5t-43.5 -3.5zM230 582q22 3 39 -2.5t29.5 -17t20 -27t10.5 -30.5q-17 -35 -30.5 -73t-25 -77t-19.5 -76
t-12 -68q-15 -36 -32.5 -67.5t-35 -54.5t-34.5 -34.5t-33 -8.5q-26 8 -38 35t-13 66t7.5 86.5t23 95.5t33 93t38.5 80.5t38.5 57t33.5 22.5zM467 591q22 -6 21 -38.5t-15.5 -77.5t-39.5 -96.5t-52 -94.5t-52 -70.5t-40 -26.5q1 15 10 51t23 81t31.5 93t37 88t39 65.5
t37.5 25.5zM327 698q-12 -10 -19 -9.5t-11 6.5t-6 14.5t-5 14.5l68 91q13 0 20 -2t15 -16z" />
    <glyph glyph-name="cacute" unicode="&#x107;" horiz-adv-x="426" 
d="M123 0q-40 4 -61.5 33t-28.5 74t-1.5 100.5t20.5 113.5t37.5 113t49 98.5t54.5 70.5t55 28q38 -1 62.5 -22t34.5 -51.5t6.5 -64.5t-21.5 -59q-15 4 -20 16t-6 27.5t-0.5 32.5t-3 31.5t-14 23.5t-32.5 9q-24 0 -46.5 -24.5t-41.5 -62.5t-35 -84.5t-27 -91t-17 -81.5
t-6 -56q0 -12 -0.5 -33.5t3.5 -42t14.5 -35.5t32.5 -15q33 0 70 24.5t73 58.5t67.5 70.5t52.5 60.5q4 -29 -7 -59.5t-31.5 -59.5t-49 -54.5t-60 -45t-63.5 -31.5t-60 -12zM232 680q-12 -10 -19 -9.5t-11 6.5t-6 14.5t-5 14.5l68 91q13 0 20 -2t15 -16z" />
    <glyph glyph-name="ccaron" unicode="&#x10d;" horiz-adv-x="426" 
d="M123 0q-40 4 -61.5 33t-28.5 74t-1.5 100.5t20.5 113.5t37.5 113t49 98.5t54.5 70.5t55 28q38 -1 62.5 -22t34.5 -51.5t6.5 -64.5t-21.5 -59q-15 4 -20 16t-6 27.5t-0.5 32.5t-3 31.5t-14 23.5t-32.5 9q-24 0 -46.5 -24.5t-41.5 -62.5t-35 -84.5t-27 -91t-17 -81.5
t-6 -56q0 -12 -0.5 -33.5t3.5 -42t14.5 -35.5t32.5 -15q33 0 70 24.5t73 58.5t67.5 70.5t52.5 60.5q4 -29 -7 -59.5t-31.5 -59.5t-49 -54.5t-60 -45t-63.5 -31.5t-60 -12zM272 706q-8 -14 -15 -16t-20 -2l-91 110q3 6 4.5 13.5t4.5 12.5t9 5t18 -10l63 -81l66 80
q17 20 25 14t11 -26z" />
    <glyph glyph-name="ccircumflex" unicode="&#x109;" horiz-adv-x="426" 
d="M123 0q-40 4 -61.5 33t-28.5 74t-1.5 100.5t20.5 113.5t37.5 113t49 98.5t54.5 70.5t55 28q38 -1 62.5 -22t34.5 -51.5t6.5 -64.5t-21.5 -59q-15 4 -20 16t-6 27.5t-0.5 32.5t-3 31.5t-14 23.5t-32.5 9q-24 0 -46.5 -24.5t-41.5 -62.5t-35 -84.5t-27 -91t-17 -81.5
t-6 -56q0 -12 -0.5 -33.5t3.5 -42t14.5 -35.5t32.5 -15q33 0 70 24.5t73 58.5t67.5 70.5t52.5 60.5q4 -29 -7 -59.5t-31.5 -59.5t-49 -54.5t-60 -45t-63.5 -31.5t-60 -12zM227 792q8 14 15 16t20 2l72 -97q-3 -6 -5 -14.5t-6 -14.5t-11 -6.5t-19 9.5l-44 54l-36 -58
q-11 -14 -26 -10.5t-22 16.5z" />
    <glyph glyph-name="cdotaccent" unicode="&#x10b;" horiz-adv-x="426" 
d="M123 0q-40 4 -61.5 33t-28.5 74t-1.5 100.5t20.5 113.5t37.5 113t49 98.5t54.5 70.5t55 28q38 -1 62.5 -22t34.5 -51.5t6.5 -64.5t-21.5 -59q-15 4 -20 16t-6 27.5t-0.5 32.5t-3 31.5t-14 23.5t-32.5 9q-24 0 -46.5 -24.5t-41.5 -62.5t-35 -84.5t-27 -91t-17 -81.5
t-6 -56q0 -12 -0.5 -33.5t3.5 -42t14.5 -35.5t32.5 -15q33 0 70 24.5t73 58.5t67.5 70.5t52.5 60.5q4 -29 -7 -59.5t-31.5 -59.5t-49 -54.5t-60 -45t-63.5 -31.5t-60 -12zM203 693q-6 12 -1 28t16.5 26.5t25.5 12t26 -15.5q8 -9 2.5 -26.5t-17 -31t-26.5 -15t-26 21.5z" />
    <glyph glyph-name="dcaron" unicode="&#x10f;" horiz-adv-x="549" 
d="M448 462q4 21 11.5 44.5t11.5 51t0 59.5t-22 70q0 14 10.5 20t22.5 6q24 -18 34.5 -51t10.5 -71.5t-9 -77t-25 -66.5q-2 -5 -9 -7t-15 0t-14.5 7.5t-6.5 14.5zM370 147q-16 -17 -40 -42t-53 -48.5t-62 -40.5t-66 -17q-35 0 -58.5 15t-38.5 39t-21.5 53t-6.5 57t7.5 68
t22 84t35 87.5t47.5 78t59 56t69 21.5q29 0 44.5 -21.5t15.5 -50.5q-15 0 -23 3.5t-15 8t-13.5 8t-18.5 3.5q-24 0 -47 -19t-43 -49.5t-36.5 -68t-28.5 -75.5t-18.5 -71.5t-6.5 -55.5q0 -21 3 -43t12 -39.5t25.5 -29t42.5 -11.5q33 0 63.5 21t56.5 51t46 64.5t31 61.5
q-1 78 -5 150t-6 135.5t0 118t14 97.5q4 6 11.5 10t15 5t14 -2t8.5 -13q-11 -75 -12.5 -138.5t3 -121t11.5 -112t14.5 -111.5t12 -120.5t2.5 -138.5q-1 -20 -7.5 -25t-15 -1t-16 15t-11.5 23q-2 7 -4.5 25.5t-5 39.5t-4.5 39.5t-3 26.5z" />
    <glyph glyph-name="dcroat" unicode="&#x111;" horiz-adv-x="459" 
d="M370 147q-16 -17 -40 -42t-53 -48.5t-62 -40.5t-66 -17q-35 0 -58.5 15t-38.5 39t-21.5 53t-6.5 57t7.5 68t22 84t35 87.5t47.5 78t59 56t69 21.5q29 0 44.5 -21.5t15.5 -50.5q-15 0 -23 3.5t-15 8t-13.5 8t-18.5 3.5q-24 0 -47 -19t-43 -49.5t-36.5 -68t-28.5 -75.5
t-18.5 -71.5t-6.5 -55.5q0 -21 3 -43t12 -39.5t25.5 -29t42.5 -11.5q33 0 63.5 21t56.5 51t46 64.5t31 61.5q-1 78 -5 150t-6 135.5t0 118t14 97.5q4 6 11.5 10t15 5t14 -2t8.5 -13q-11 -75 -12.5 -138.5t3 -121t11.5 -112t14.5 -111.5t12 -120.5t2.5 -138.5
q-1 -20 -7.5 -25t-15 -1t-16 15t-11.5 23q-2 7 -4.5 25.5t-5 39.5t-4.5 39.5t-3 26.5zM523 621q-18 0 -53 -4.5t-77 -8.5t-85 -5.5t-75.5 3t-49.5 17t-7 37.5l347 14v-53v0z" />
    <glyph glyph-name="ebreve" unicode="&#x115;" 
d="M22 126q0 34 9 88t25.5 113.5t40 118.5t52 103.5t61.5 67.5t70 11q7 1 20.5 -12.5t21.5 -42t5 -72t-27.5 -104t-76 -137.5t-141.5 -172q18 -28 43 -33t53 5t56 31.5t52 45.5t41.5 47.5t24.5 37.5q17 -15 13 -37.5t-21.5 -47.5t-45 -49.5t-57.5 -43.5t-59 -30.5t-49 -9.5
q-21 0 -41 10.5t-35.5 27.5t-25 39t-9.5 45zM252 572q-21 0 -43.5 -26.5t-43.5 -67t-39.5 -89t-31.5 -94t-19 -81t-3 -50.5q16 -1 42.5 27t54.5 71.5t53 95t39.5 97.5t14 78.5t-23.5 38.5zM160 743q13 -29 28.5 -39.5t32 -9.5t32 9.5t29 18t23 16.5t13.5 5q14 6 13.5 -5
t-12.5 -27.5t-33 -33t-46.5 -21t-54.5 9.5t-56 57z" />
    <glyph glyph-name="ecaron" unicode="&#x11b;" 
d="M22 126q0 34 9 88t25.5 113.5t40 118.5t52 103.5t61.5 67.5t70 11q7 1 20.5 -12.5t21.5 -42t5 -72t-27.5 -104t-76 -137.5t-141.5 -172q18 -28 43 -33t53 5t56 31.5t52 45.5t41.5 47.5t24.5 37.5q17 -15 13 -37.5t-21.5 -47.5t-45 -49.5t-57.5 -43.5t-59 -30.5t-49 -9.5
q-21 0 -41 10.5t-35.5 27.5t-25 39t-9.5 45zM252 572q-21 0 -43.5 -26.5t-43.5 -67t-39.5 -89t-31.5 -94t-19 -81t-3 -50.5q16 -1 42.5 27t54.5 71.5t53 95t39.5 97.5t14 78.5t-23.5 38.5zM247 685q-8 -14 -15 -16t-20 -2l-91 110q3 6 4.5 13.5t4.5 12.5t9 5t18 -10l63 -81
l66 80q17 20 25 14t11 -26z" />
    <glyph glyph-name="edotaccent" unicode="&#x117;" 
d="M22 126q0 34 9 88t25.5 113.5t40 118.5t52 103.5t61.5 67.5t70 11q7 1 20.5 -12.5t21.5 -42t5 -72t-27.5 -104t-76 -137.5t-141.5 -172q18 -28 43 -33t53 5t56 31.5t52 45.5t41.5 47.5t24.5 37.5q17 -15 13 -37.5t-21.5 -47.5t-45 -49.5t-57.5 -43.5t-59 -30.5t-49 -9.5
q-21 0 -41 10.5t-35.5 27.5t-25 39t-9.5 45zM252 572q-21 0 -43.5 -26.5t-43.5 -67t-39.5 -89t-31.5 -94t-19 -81t-3 -50.5q16 -1 42.5 27t54.5 71.5t53 95t39.5 97.5t14 78.5t-23.5 38.5zM211 698q-6 12 -1 28t16.5 26.5t25.5 12t26 -15.5q8 -9 2.5 -26.5t-17 -31
t-26.5 -15t-26 21.5z" />
    <glyph glyph-name="emacron" unicode="&#x113;" 
d="M22 126q0 34 9 88t25.5 113.5t40 118.5t52 103.5t61.5 67.5t70 11q7 1 20.5 -12.5t21.5 -42t5 -72t-27.5 -104t-76 -137.5t-141.5 -172q18 -28 43 -33t53 5t56 31.5t52 45.5t41.5 47.5t24.5 37.5q17 -15 13 -37.5t-21.5 -47.5t-45 -49.5t-57.5 -43.5t-59 -30.5t-49 -9.5
q-21 0 -41 10.5t-35.5 27.5t-25 39t-9.5 45zM252 572q-21 0 -43.5 -26.5t-43.5 -67t-39.5 -89t-31.5 -94t-19 -81t-3 -50.5q16 -1 42.5 27t54.5 71.5t53 95t39.5 97.5t14 78.5t-23.5 38.5zM44 684q0 8 4 21.5t9 18.5l328 -11l3 -43z" />
    <glyph glyph-name="eogonek" unicode="&#x119;" 
d="M22 126q0 34 9 88t25.5 113.5t40 118.5t52 103.5t61.5 67.5t70 11q7 1 20.5 -12.5t21.5 -42t5 -72t-27.5 -104t-76 -137.5t-141.5 -172q18 -28 43 -33t53 5t56 31.5t52 45.5t41.5 47.5t24.5 37.5q17 -15 13 -37.5t-21.5 -47.5t-45 -49.5t-57.5 -43.5t-59 -30.5t-49 -9.5
q-21 0 -41 10.5t-35.5 27.5t-25 39t-9.5 45zM252 572q-21 0 -43.5 -26.5t-43.5 -67t-39.5 -89t-31.5 -94t-19 -81t-3 -50.5q16 -1 42.5 27t54.5 71.5t53 95t39.5 97.5t14 78.5t-23.5 38.5zM298 -76q-15 -15 -39.5 -21.5t-48.5 -2t-41 21t-17 48.5q0 6 3 20.5t10 30
t18.5 29.5t28.5 19l20 -17q-18 -12 -29.5 -32t-13 -39t8 -33t32.5 -14q18 0 31.5 1.5t36.5 -11.5z" />
    <glyph glyph-name="gbreve" unicode="&#x11f;" horiz-adv-x="544" 
d="M182 -379q-12 9 -14 21.5t2.5 22t14 13t18.5 -4.5q46 -28 85 -26.5t70 22.5t53.5 57t36.5 79t20 88t3 84l-38 476q-45 -123 -86.5 -205.5t-78 -134t-68 -76t-56.5 -32t-43.5 -2t-28.5 15.5q-13 29 -14 77.5t7.5 105.5t26.5 118.5t42 117.5t54.5 100.5t65.5 68t72.5 21
t76.5 -40.5q0 18 7 28.5t17.5 12.5t21 -2.5t18.5 -16.5l56 -626q2 -24 -0.5 -67.5t-13.5 -93t-33.5 -97.5t-61.5 -80t-95.5 -42t-136.5 18zM309 579q-27 -6 -55.5 -41t-54.5 -86.5t-47 -112.5t-32.5 -117.5t-12.5 -102.5t14 -67q17 -4 43.5 18.5t56 62t59 90t53 102t38 99
t14.5 80.5q0 15 -7 28.5t-17.5 24t-24.5 16.5t-27 6zM255 770q13 -29 28.5 -39.5t32 -9.5t32 9.5t29 18t23 16.5t13.5 5q14 6 13.5 -5t-12.5 -27.5t-33 -33t-46.5 -21t-54.5 9.5t-56 57z" />
    <glyph glyph-name="gcircumflex" unicode="&#x11d;" horiz-adv-x="509" 
d="M153 -401q-12 9 -14 21.5t2.5 22t14 13t18.5 -4.5q46 -28 85 -26.5t70 22.5t53.5 57t36.5 79t20 88t3 84l-38 476q-45 -123 -86.5 -205.5t-78 -134t-68 -76t-56.5 -32t-43.5 -2t-28.5 15.5q-13 29 -14 77.5t7.5 105.5t26.5 118.5t42 117.5t54.5 100.5t65.5 68t72.5 21
t76.5 -40.5q0 18 7 28.5t17.5 12.5t21 -2.5t18.5 -16.5l56 -626q2 -24 -0.5 -67.5t-13.5 -93t-33.5 -97.5t-61.5 -80t-95.5 -42t-136.5 18zM280 557q-27 -6 -55.5 -41t-54.5 -86.5t-47 -112.5t-32.5 -117.5t-12.5 -102.5t14 -67q17 -4 43.5 18.5t56 62t59 90t53 102t38 99
t14.5 80.5q0 15 -7 28.5t-17.5 24t-24.5 16.5t-27 6zM277 789q8 14 15 16t20 2l72 -97q-3 -6 -5 -14.5t-6 -14.5t-11 -6.5t-19 9.5l-44 54l-36 -58q-11 -14 -26 -10.5t-22 16.5z" />
    <glyph glyph-name="gcommaaccent" unicode="&#x123;" horiz-adv-x="541" 
d="M177 713q4 21 11.5 44.5t11.5 51t0 59.5t-22 70q0 14 10.5 20t22.5 6q24 -18 34.5 -51t10.5 -71.5t-9 -77t-25 -66.5q-2 -5 -9 -7t-15 0t-14.5 7.5t-6.5 14.5zM165 -385q-12 9 -14 21.5t2.5 22t14 13t18.5 -4.5q46 -28 85 -26.5t70 22.5t53.5 57t36.5 79t20 88t3 84
l-38 476q-45 -123 -86.5 -205.5t-78 -134t-68 -76t-56.5 -32t-43.5 -2t-28.5 15.5q-13 29 -14 77.5t7.5 105.5t26.5 118.5t42 117.5t54.5 100.5t65.5 68t72.5 21t76.5 -40.5q0 18 7 28.5t17.5 12.5t21 -2.5t18.5 -16.5l56 -626q2 -24 -0.5 -67.5t-13.5 -93t-33.5 -97.5
t-61.5 -80t-95.5 -42t-136.5 18zM292 573q-27 -6 -55.5 -41t-54.5 -86.5t-47 -112.5t-32.5 -117.5t-12.5 -102.5t14 -67q17 -4 43.5 18.5t56 62t59 90t53 102t38 99t14.5 80.5q0 15 -7 28.5t-17.5 24t-24.5 16.5t-27 6z" />
    <glyph glyph-name="gdotaccent" unicode="&#x121;" horiz-adv-x="538" 
d="M159 -376q-12 9 -14 21.5t2.5 22t14 13t18.5 -4.5q46 -28 85 -26.5t70 22.5t53.5 57t36.5 79t20 88t3 84l-38 476q-45 -123 -86.5 -205.5t-78 -134t-68 -76t-56.5 -32t-43.5 -2t-28.5 15.5q-13 29 -14 77.5t7.5 105.5t26.5 118.5t42 117.5t54.5 100.5t65.5 68t72.5 21
t76.5 -40.5q0 18 7 28.5t17.5 12.5t21 -2.5t18.5 -16.5l56 -626q2 -24 -0.5 -67.5t-13.5 -93t-33.5 -97.5t-61.5 -80t-95.5 -42t-136.5 18zM286 582q-27 -6 -55.5 -41t-54.5 -86.5t-47 -112.5t-32.5 -117.5t-12.5 -102.5t14 -67q17 -4 43.5 18.5t56 62t59 90t53 102t38 99
t14.5 80.5q0 15 -7 28.5t-17.5 24t-24.5 16.5t-27 6zM232 713q-6 12 -1 28t16.5 26.5t25.5 12t26 -15.5q8 -9 2.5 -26.5t-17 -31t-26.5 -15t-26 21.5z" />
    <glyph glyph-name="hbar" unicode="&#x127;" horiz-adv-x="525" 
d="M79 2q-10 80 -14.5 146.5t-6.5 125t-3 111.5t-2.5 105.5t-6 107t-13.5 117.5q7 10 23 15t27 3l29 -540q4 21 14.5 56.5t25.5 76.5t34 82.5t42 75.5t49 55.5t55 21.5q33 -3 59 -39t45 -90t32.5 -118.5t22 -123.5t12.5 -105.5t5 -65.5q-14 -13 -24.5 3t-19.5 50t-17.5 81
t-17 98t-18.5 100t-23 87t-29 59.5t-37 16.5q-28 -16 -54.5 -59.5t-49.5 -100t-42.5 -118t-32.5 -113.5t-19.5 -86.5t-4.5 -36.5q-4 -6 -11.5 -8t-14.5 -1.5t-11.5 3.5t-2.5 8zM-93 613q0 8 4 21.5t9 18.5l328 -11l3 -43z" />
    <glyph glyph-name="hcircumflex" unicode="&#x125;" horiz-adv-x="525" 
d="M79 2q-10 80 -14.5 146.5t-6.5 125t-3 111.5t-2.5 105.5t-6 107t-13.5 117.5q7 10 23 15t27 3l29 -540q4 21 14.5 56.5t25.5 76.5t34 82.5t42 75.5t49 55.5t55 21.5q33 -3 59 -39t45 -90t32.5 -118.5t22 -123.5t12.5 -105.5t5 -65.5q-14 -13 -24.5 3t-19.5 50t-17.5 81
t-17 98t-18.5 100t-23 87t-29 59.5t-37 16.5q-28 -16 -54.5 -59.5t-49.5 -100t-42.5 -118t-32.5 -113.5t-19.5 -86.5t-4.5 -36.5q-4 -6 -11.5 -8t-14.5 -1.5t-11.5 3.5t-2.5 8zM300 850q8 14 15 16t20 2l72 -97q-3 -6 -5 -14.5t-6 -14.5t-11 -6.5t-19 9.5l-44 54l-36 -58
q-11 -14 -26 -10.5t-22 16.5z" />
    <glyph glyph-name="dotlessj" unicode="&#x237;" horiz-adv-x="196" 
d="M-160 -343q-3 10 0 17.5t8.5 11.5t11 4t7.5 -5q50 -39 97 -47.5t83 3.5t58 40.5t23 64.5q-1 30 -4 80.5t-7.5 113t-10.5 133.5t-12 141t-12.5 135t-11.5 116.5t-9.5 84.5t-6.5 40q0 3 4 6.5t11 7t15 5t16 -0.5q8 -50 17 -121t17 -152.5t15.5 -168t13 -167.5t9 -150.5
t4.5 -116.5q0 -48 -20.5 -77.5t-53.5 -44.5t-72.5 -17t-77 6t-68 23t-44.5 35z" />
    <glyph glyph-name="jcircumflex" unicode="&#x135;" horiz-adv-x="255" 
d="M-160 -343q-3 10 0 17.5t8.5 11.5t11 4t7.5 -5q50 -39 97 -47.5t83 3.5t58 40.5t23 64.5q-1 30 -4 80.5t-7.5 113t-10.5 133.5t-12 141t-12.5 135t-11.5 116.5t-9.5 84.5t-6.5 40q0 3 4 6.5t11 7t15 5t16 -0.5q8 -50 17 -121t17 -152.5t15.5 -168t13 -167.5t9 -150.5
t4.5 -116.5q0 -48 -20.5 -77.5t-53.5 -44.5t-72.5 -17t-77 6t-68 23t-44.5 35zM78 818q8 14 15 16t20 2l72 -97q-3 -6 -5 -14.5t-6 -14.5t-11 -6.5t-19 9.5l-44 54l-36 -58q-11 -14 -26 -10.5t-22 16.5z" />
    <glyph glyph-name="kcommaaccent" unicode="&#x137;" horiz-adv-x="507" 
d="M48 -6q0 100 -5 188.5t-10 175t-10 176.5t-5 192q4 14 12.5 17t17.5 -0.5t15 -11.5t5 -15l27 -440q24 20 45.5 55t42.5 76.5t41.5 84t41.5 78.5q6 5 12.5 4t11.5 -6t7 -12.5t-1 -13.5q0 -12 -8.5 -33t-21.5 -47t-29.5 -55t-33 -57t-31 -53t-24.5 -43q18 -11 49 -28.5
t67.5 -37t73.5 -40t67.5 -38t50.5 -29t21 -14.5q4 -5 3 -11.5t-5.5 -12t-12.5 -8.5t-18 -1q-40 14 -67 28t-48.5 28t-40.5 28t-43 29t-57.5 30.5t-82.5 32.5v-213q0 -7 -7 -12t-16 -6.5t-18.5 2t-15.5 13.5zM180 -252q1 1 -3.5 -0.5t-10 -3.5t-10.5 -4t-5 -1
q-11 -6 -15.5 14t-2 50.5t10 64.5t19 56.5t27 26.5t33.5 -26z" />
    <glyph glyph-name="lacute" unicode="&#x13a;" horiz-adv-x="148" 
d="M62 708q12 -184 19 -301t10.5 -186t4.5 -100.5t2 -45t3 -19t7 -22.5q2 -9 -3.5 -17.5t-14 -13t-19 -2t-19.5 14.5l-32 696q1 15 6.5 24.5t12 10.5t13 -8t10.5 -31zM67 844q-12 -10 -19 -9.5t-11 6.5t-6 14.5t-5 14.5l68 91q13 0 20 -2t15 -16z" />
    <glyph glyph-name="lcaron" unicode="&#x13e;" horiz-adv-x="239" 
d="M126 471q4 21 11.5 44.5t11.5 51t0 59.5t-22 70q0 14 10.5 20t22.5 6q24 -18 34.5 -51t10.5 -71.5t-9 -77t-25 -66.5q-2 -5 -9 -7t-15 0t-14.5 7.5t-6.5 14.5zM62 708q12 -184 19 -301t10.5 -186t4.5 -100.5t2 -45t3 -19t7 -22.5q2 -9 -3.5 -17.5t-14 -13t-19 -2
t-19.5 14.5l-32 696q1 15 6.5 24.5t12 10.5t13 -8t10.5 -31z" />
    <glyph glyph-name="lcommaaccent" unicode="&#x13c;" horiz-adv-x="148" 
d="M62 708q12 -184 19 -301t10.5 -186t4.5 -100.5t2 -45t3 -19t7 -22.5q2 -9 -3.5 -17.5t-14 -13t-19 -2t-19.5 14.5l-32 696q1 15 6.5 24.5t12 10.5t13 -8t10.5 -31zM85 -252q1 1 -3.5 -0.5t-10 -3.5t-10.5 -4t-5 -1q-11 -6 -15.5 14t-2 50.5t10 64.5t19 56.5t27 26.5
t33.5 -26z" />
    <glyph glyph-name="ldot" unicode="&#x140;" horiz-adv-x="204" 
d="M74 728q12 -184 19 -301t10.5 -186t4.5 -100.5t2 -45t3 -19t7 -22.5q2 -9 -3.5 -17.5t-14 -13t-19 -2t-19.5 14.5l-32 696q1 15 6.5 24.5t12 10.5t13 -8t10.5 -31zM123 342q-6 12 -1 28t16.5 26.5t25.5 12t26 -15.5q8 -9 2.5 -26.5t-17 -31t-26.5 -15t-26 21.5z" />
    <glyph glyph-name="nacute" unicode="&#x144;" horiz-adv-x="443" 
d="M82 295q-1 20 3.5 53t14.5 70.5t25.5 75t36 67.5t45.5 48t55 16q35 0 58 -22.5t36.5 -54t20 -65.5t9.5 -56q3 -14 4 -46t2 -72.5t2.5 -85t4 -84t6.5 -69t11 -40.5q1 -9 -8 -17.5t-21 -13t-23 -2t-14 16.5q-11 45 -14 105t-4 123.5t-1.5 124t-6.5 108t-20.5 75t-41.5 24.5
q-30 -2 -53.5 -28t-41.5 -67.5t-30.5 -94t-21.5 -107t-15 -105.5t-9.5 -90t-6 -60.5t-4.5 -17.5q-3 0 -11 -0.5t-16 0t-14 3t-6 9.5v492q0 23 11.5 42.5t37.5 19.5v-275zM241 693q-12 -10 -19 -9.5t-11 6.5t-6 14.5t-5 14.5l68 91q13 0 20 -2t15 -16z" />
    <glyph glyph-name="napostrophe" unicode="&#x149;" horiz-adv-x="443" 
d="M82 295q-1 20 3.5 53t14.5 70.5t25.5 75t36 67.5t45.5 48t55 16q35 0 58 -22.5t36.5 -54t20 -65.5t9.5 -56q3 -14 4 -46t2 -72.5t2.5 -85t4 -84t6.5 -69t11 -40.5q1 -9 -8 -17.5t-21 -13t-23 -2t-14 16.5q-11 45 -14 105t-4 123.5t-1.5 124t-6.5 108t-20.5 75t-41.5 24.5
q-30 -2 -53.5 -28t-41.5 -67.5t-30.5 -94t-21.5 -107t-15 -105.5t-9.5 -90t-6 -60.5t-4.5 -17.5q-3 0 -11 -0.5t-16 0t-14 3t-6 9.5v492q0 23 11.5 42.5t37.5 19.5v-275zM161 639q1 1 -3.5 -0.5t-10 -3.5t-10.5 -4t-5 -1q-11 -6 -15.5 14t-2 50.5t10 64.5t19 56.5t27 26.5
t33.5 -26z" />
    <glyph glyph-name="ncaron" unicode="&#x148;" horiz-adv-x="443" 
d="M82 295q-1 20 3.5 53t14.5 70.5t25.5 75t36 67.5t45.5 48t55 16q35 0 58 -22.5t36.5 -54t20 -65.5t9.5 -56q3 -14 4 -46t2 -72.5t2.5 -85t4 -84t6.5 -69t11 -40.5q1 -9 -8 -17.5t-21 -13t-23 -2t-14 16.5q-11 45 -14 105t-4 123.5t-1.5 124t-6.5 108t-20.5 75t-41.5 24.5
q-30 -2 -53.5 -28t-41.5 -67.5t-30.5 -94t-21.5 -107t-15 -105.5t-9.5 -90t-6 -60.5t-4.5 -17.5q-3 0 -11 -0.5t-16 0t-14 3t-6 9.5v492q0 23 11.5 42.5t37.5 19.5v-275zM263 713q-8 -14 -15 -16t-20 -2l-91 110q3 6 4.5 13.5t4.5 12.5t9 5t18 -10l63 -81l66 80q17 20 25 14
t11 -26z" />
    <glyph glyph-name="ncommaaccent" unicode="&#x146;" horiz-adv-x="443" 
d="M82 295q-1 20 3.5 53t14.5 70.5t25.5 75t36 67.5t45.5 48t55 16q35 0 58 -22.5t36.5 -54t20 -65.5t9.5 -56q3 -14 4 -46t2 -72.5t2.5 -85t4 -84t6.5 -69t11 -40.5q1 -9 -8 -17.5t-21 -13t-23 -2t-14 16.5q-11 45 -14 105t-4 123.5t-1.5 124t-6.5 108t-20.5 75t-41.5 24.5
q-30 -2 -53.5 -28t-41.5 -67.5t-30.5 -94t-21.5 -107t-15 -105.5t-9.5 -90t-6 -60.5t-4.5 -17.5q-3 0 -11 -0.5t-16 0t-14 3t-6 9.5v492q0 23 11.5 42.5t37.5 19.5v-275zM148 -252q1 1 -3.5 -0.5t-10 -3.5t-10.5 -4t-5 -1q-11 -6 -15.5 14t-2 50.5t10 64.5t19 56.5t27 26.5
t33.5 -26z" />
    <glyph glyph-name="obreve" unicode="&#x14f;" horiz-adv-x="344" 
d="M17 182q9 129 27 215.5t43.5 138.5t55.5 72.5t63 16.5q41 -2 68.5 -29t42.5 -71t17.5 -99.5t-5.5 -113.5t-26 -114t-45.5 -100t-63 -71.5t-78.5 -29.5q-37 0 -57 19t-29.5 47.5t-11 60.5t-1.5 58zM206 584q-24 2 -45 -20.5t-38.5 -60.5t-30.5 -87t-21 -100.5t-9.5 -100.5
t3.5 -87t17.5 -60t34.5 -20q44 6 78 48t55.5 100.5t31 125.5t5 124.5t-24.5 96t-56 41.5zM118 745q13 -29 28.5 -39.5t32 -9.5t32 9.5t29 18t23 16.5t13.5 5q14 6 13.5 -5t-12.5 -27.5t-33 -33t-46.5 -21t-54.5 9.5t-56 57z" />
    <glyph glyph-name="omacron" unicode="&#x14d;" horiz-adv-x="344" 
d="M17 182q9 129 27 215.5t43.5 138.5t55.5 72.5t63 16.5q41 -2 68.5 -29t42.5 -71t17.5 -99.5t-5.5 -113.5t-26 -114t-45.5 -100t-63 -71.5t-78.5 -29.5q-37 0 -57 19t-29.5 47.5t-11 60.5t-1.5 58zM206 584q-24 2 -45 -20.5t-38.5 -60.5t-30.5 -87t-21 -100.5t-9.5 -100.5
t3.5 -87t17.5 -60t34.5 -20q44 6 78 48t55.5 100.5t31 125.5t5 124.5t-24.5 96t-56 41.5zM7 674q0 8 4 21.5t9 18.5l328 -11l3 -43z" />
    <glyph glyph-name="oslashacute" unicode="&#x1ff;" horiz-adv-x="344" 
d="M17 182q9 129 27 215.5t43.5 138.5t55.5 72.5t63 16.5q41 -2 68.5 -29t42.5 -71t17.5 -99.5t-5.5 -113.5t-26 -114t-45.5 -100t-63 -71.5t-78.5 -29.5q-37 0 -57 19t-29.5 47.5t-11 60.5t-1.5 58zM206 584q-24 2 -45 -20.5t-38.5 -60.5t-30.5 -87t-21 -100.5t-9.5 -100.5
t3.5 -87t17.5 -60t34.5 -20q44 6 78 48t55.5 100.5t31 125.5t5 124.5t-24.5 96t-56 41.5zM-1.15234 -13.5654q-16.9131 0 -22.3857 5.24414q-5.47168 5.24414 -10.4463 21.3789l357.181 609.106q9.94922 4.0332 16.9141 2.82324t10.9443 -5.64746
q3.97949 -4.43652 5.47168 -11.2939q1.49316 -6.8584 -0.49707 -12.5049zM186 647q-12 -10 -19 -9.5t-11 6.5t-6 14.5t-5 14.5l68 91q13 0 20 -2t15 -16z" />
    <glyph glyph-name="racute" unicode="&#x155;" 
d="M62 20q-2 42 -4 76t-4 67.5t-5 70t-7 83.5t-9 107t-11 142q0 4 -0.5 13t0.5 18t5 16t13 9q22 -4 26.5 -19.5t4.5 -46.5t1.5 -79t17.5 -117q18 52 41.5 102.5t56 89t75 61t97.5 18.5v-33q-53 -4 -92 -29.5t-66.5 -67t-45 -97t-28 -118t-15.5 -129.5t-7 -133q0 -24 -15 -24
t-29 20zM187 668q-12 -10 -19 -9.5t-11 6.5t-6 14.5t-5 14.5l68 91q13 0 20 -2t15 -16z" />
    <glyph glyph-name="rcaron" unicode="&#x159;" 
d="M62 20q-2 42 -4 76t-4 67.5t-5 70t-7 83.5t-9 107t-11 142q0 4 -0.5 13t0.5 18t5 16t13 9q22 -4 26.5 -19.5t4.5 -46.5t1.5 -79t17.5 -117q18 52 41.5 102.5t56 89t75 61t97.5 18.5v-33q-53 -4 -92 -29.5t-66.5 -67t-45 -97t-28 -118t-15.5 -129.5t-7 -133q0 -24 -15 -24
t-29 20zM205 679q-8 -14 -15 -16t-20 -2l-91 110q3 6 4.5 13.5t4.5 12.5t9 5t18 -10l63 -81l66 80q17 20 25 14t11 -26z" />
    <glyph glyph-name="rcommaaccent" unicode="&#x157;" 
d="M62 20q-2 42 -4 76t-4 67.5t-5 70t-7 83.5t-9 107t-11 142q0 4 -0.5 13t0.5 18t5 16t13 9q22 -4 26.5 -19.5t4.5 -46.5t1.5 -79t17.5 -117q18 52 41.5 102.5t56 89t75 61t97.5 18.5v-33q-53 -4 -92 -29.5t-66.5 -67t-45 -97t-28 -118t-15.5 -129.5t-7 -133q0 -24 -15 -24
t-29 20zM123 -252q1 1 -3.5 -0.5t-10 -3.5t-10.5 -4t-5 -1q-11 -6 -15.5 14t-2 50.5t10 64.5t19 56.5t27 26.5t33.5 -26z" />
    <glyph glyph-name="sacute" unicode="&#x15b;" horiz-adv-x="377" 
d="M192 -2q-32 2 -61 6.5t-52 12.5t-37.5 20t-17.5 29q18 0 37.5 -4.5t39 -10.5t40 -10.5t41.5 -4.5q20 0 43 5.5t42 17t31.5 29.5t12.5 43q0 33 -19.5 63t-49 59t-63.5 58t-63.5 59.5t-49 63.5t-19.5 70q0 27 16 49.5t39.5 38t51 24.5t51.5 9q18 2 37 -4t33 -19.5t20.5 -34
t-0.5 -46.5q-3 -17 -8 -24t-10.5 -6t-12 7t-13.5 14q0 12 -0.5 25t-3.5 23.5t-10.5 17t-22.5 6.5q-19 0 -40 -6t-38 -17.5t-28.5 -28t-11.5 -38.5q-5 -19 14.5 -45t50.5 -57t68 -65t67 -69.5t47.5 -71t10.5 -68.5q-3 -36 -16.5 -59.5t-35.5 -37t-50 -18.5t-60 -5zM179 665
q-12 -10 -19 -9.5t-11 6.5t-6 14.5t-5 14.5l68 91q13 0 20 -2t15 -16z" />
    <glyph glyph-name="scedilla" unicode="&#x15f;" horiz-adv-x="377" 
d="M192 -2q-32 2 -61 6.5t-52 12.5t-37.5 20t-17.5 29q18 0 37.5 -4.5t39 -10.5t40 -10.5t41.5 -4.5q20 0 43 5.5t42 17t31.5 29.5t12.5 43q0 33 -19.5 63t-49 59t-63.5 58t-63.5 59.5t-49 63.5t-19.5 70q0 27 16 49.5t39.5 38t51 24.5t51.5 9q18 2 37 -4t33 -19.5t20.5 -34
t-0.5 -46.5q-3 -17 -8 -24t-10.5 -6t-12 7t-13.5 14q0 12 -0.5 25t-3.5 23.5t-10.5 17t-22.5 6.5q-19 0 -40 -6t-38 -17.5t-28.5 -28t-11.5 -38.5q-5 -19 14.5 -45t50.5 -57t68 -65t67 -69.5t47.5 -71t10.5 -68.5q-3 -36 -16.5 -59.5t-35.5 -37t-50 -18.5t-60 -5zM59 -172
q-4 11 -1 19t9 11.5t13 1.5t11 -10q8 -25 27.5 -39t39.5 -17t36.5 6t19.5 31q0 21 -9.5 34.5t-23.5 24t-30.5 19.5t-30.5 20.5t-23.5 27t-9.5 39.5q-7 28 -0.5 38.5t16 8t17 -16.5t2.5 -36q7 -15 27.5 -29t42.5 -31.5t39.5 -39.5t18.5 -53q-2 -47 -24 -67.5t-52 -19.5
t-62 21.5t-53 56.5z" />
    <glyph glyph-name="scircumflex" unicode="&#x15d;" horiz-adv-x="377" 
d="M192 -2q-32 2 -61 6.5t-52 12.5t-37.5 20t-17.5 29q18 0 37.5 -4.5t39 -10.5t40 -10.5t41.5 -4.5q20 0 43 5.5t42 17t31.5 29.5t12.5 43q0 33 -19.5 63t-49 59t-63.5 58t-63.5 59.5t-49 63.5t-19.5 70q0 27 16 49.5t39.5 38t51 24.5t51.5 9q18 2 37 -4t33 -19.5t20.5 -34
t-0.5 -46.5q-3 -17 -8 -24t-10.5 -6t-12 7t-13.5 14q0 12 -0.5 25t-3.5 23.5t-10.5 17t-22.5 6.5q-19 0 -40 -6t-38 -17.5t-28.5 -28t-11.5 -38.5q-5 -19 14.5 -45t50.5 -57t68 -65t67 -69.5t47.5 -71t10.5 -68.5q-3 -36 -16.5 -59.5t-35.5 -37t-50 -18.5t-60 -5zM163 786
q8 14 15 16t20 2l72 -97q-3 -6 -5 -14.5t-6 -14.5t-11 -6.5t-19 9.5l-44 54l-36 -58q-11 -14 -26 -10.5t-22 16.5z" />
    <glyph glyph-name="scommaaccent" unicode="&#x219;" horiz-adv-x="377" 
d="M192 -2q-32 2 -61 6.5t-52 12.5t-37.5 20t-17.5 29q18 0 37.5 -4.5t39 -10.5t40 -10.5t41.5 -4.5q20 0 43 5.5t42 17t31.5 29.5t12.5 43q0 33 -19.5 63t-49 59t-63.5 58t-63.5 59.5t-49 63.5t-19.5 70q0 27 16 49.5t39.5 38t51 24.5t51.5 9q18 2 37 -4t33 -19.5t20.5 -34
t-0.5 -46.5q-3 -17 -8 -24t-10.5 -6t-12 7t-13.5 14q0 12 -0.5 25t-3.5 23.5t-10.5 17t-22.5 6.5q-19 0 -40 -6t-38 -17.5t-28.5 -28t-11.5 -38.5q-5 -19 14.5 -45t50.5 -57t68 -65t67 -69.5t47.5 -71t10.5 -68.5q-3 -36 -16.5 -59.5t-35.5 -37t-50 -18.5t-60 -5zM117 -252
q1 1 -3.5 -0.5t-10 -3.5t-10.5 -4t-5 -1q-11 -6 -15.5 14t-2 50.5t10 64.5t19 56.5t27 26.5t33.5 -26z" />
    <glyph glyph-name="tcaron" unicode="&#x165;" horiz-adv-x="348" 
d="M183 658q4 21 11.5 44.5t11.5 51t0 59.5t-22 70q0 14 10.5 20t22.5 6q24 -18 34.5 -51t10.5 -71.5t-9 -77t-25 -66.5q-2 -5 -9 -7t-15 0t-14.5 7.5t-6.5 14.5zM95 508q-25 0 -48.5 -5.5t-49.5 -10.5q-4 0 -8.5 9t-8.5 35q13 4 28.5 6.5t31.5 6.5t30.5 9.5t24.5 15.5v151
q0 5 3.5 12t10 12.5t15.5 8.5t20 0l2 -176l251 48q0 -11 -5.5 -20t-13.5 -16t-17 -11.5t-16 -6.5q-21 -6 -49 -12t-56.5 -12t-54 -13t-41.5 -14v-509q0 -7 -7 -11t-15.5 -6.5t-16.5 -3t-10 -0.5v513z" />
    <glyph glyph-name="tcommaaccent" unicode="&#x163;" horiz-adv-x="338" 
d="M95 508q-25 0 -48.5 -5.5t-49.5 -10.5q-4 0 -8.5 9t-8.5 35q13 4 28.5 6.5t31.5 6.5t30.5 9.5t24.5 15.5v151q0 5 3.5 12t10 12.5t15.5 8.5t20 0l2 -176l251 48q0 -11 -5.5 -20t-13.5 -16t-17 -11.5t-16 -6.5q-21 -6 -49 -12t-56.5 -12t-54 -13t-41.5 -14v-509
q0 -7 -7 -11t-15.5 -6.5t-16.5 -3t-10 -0.5v513v0zM97 -252q1 1 -3.5 -0.5t-10 -3.5t-10.5 -4t-5 -1q-11 -6 -15.5 14t-2 50.5t10 64.5t19 56.5t27 26.5t33.5 -26z" />
    <glyph glyph-name="ubreve" unicode="&#x16d;" 
d="M123 -2q-22 -5 -38.5 22.5t-27.5 74.5t-17.5 107t-9 121t-2.5 116t2 93q0 3 2.5 11t8.5 15t16.5 11t26.5 -1q-1 -5 -3 -29t-3 -60t-1.5 -80t0.5 -89t4 -88.5t9 -78t14.5 -56.5t21.5 -25q25 4 52 36.5t51.5 81.5t44.5 108.5t31 119t11.5 113t-14.5 90.5q1 2 5.5 5t9.5 5.5
t10 4.5t7 2q14 0 21 -15t10 -35t3.5 -39t0.5 -26q1 -25 -6.5 -71t-22 -101t-36 -113t-49.5 -107t-61 -82.5t-71 -40.5zM113 743q13 -29 28.5 -39.5t32 -9.5t32 9.5t29 18t23 16.5t13.5 5q14 6 13.5 -5t-12.5 -27.5t-33 -33t-46.5 -21t-54.5 9.5t-56 57z" />
    <glyph glyph-name="umacron" unicode="&#x16b;" 
d="M123 -2q-22 -5 -38.5 22.5t-27.5 74.5t-17.5 107t-9 121t-2.5 116t2 93q0 3 2.5 11t8.5 15t16.5 11t26.5 -1q-1 -5 -3 -29t-3 -60t-1.5 -80t0.5 -89t4 -88.5t9 -78t14.5 -56.5t21.5 -25q25 4 52 36.5t51.5 81.5t44.5 108.5t31 119t11.5 113t-14.5 90.5q1 2 5.5 5t9.5 5.5
t10 4.5t7 2q14 0 21 -15t10 -35t3.5 -39t0.5 -26q1 -25 -6.5 -71t-22 -101t-36 -113t-49.5 -107t-61 -82.5t-71 -40.5zM24 667q0 8 4 21.5t9 18.5l328 -11l3 -43z" />
    <glyph glyph-name="uogonek" unicode="&#x173;" 
d="M123 -2q-22 -5 -38.5 22.5t-27.5 74.5t-17.5 107t-9 121t-2.5 116t2 93q0 3 2.5 11t8.5 15t16.5 11t26.5 -1q-1 -5 -3 -29t-3 -60t-1.5 -80t0.5 -89t4 -88.5t9 -78t14.5 -56.5t21.5 -25q25 4 52 36.5t51.5 81.5t44.5 108.5t31 119t11.5 113t-14.5 90.5q1 2 5.5 5t9.5 5.5
t10 4.5t7 2q14 0 21 -15t10 -35t3.5 -39t0.5 -26q1 -25 -6.5 -71t-22 -101t-36 -113t-49.5 -107t-61 -82.5t-71 -40.5zM296 -35q-15 -15 -39.5 -21.5t-48.5 -2t-41 21t-17 48.5q0 6 3 20.5t10 30t18.5 29.5t28.5 19l20 -17q-18 -12 -29.5 -32t-13 -39t8 -33t32.5 -14
q18 0 31.5 1.5t36.5 -11.5z" />
    <glyph glyph-name="uring" unicode="&#x16f;" 
d="M123 -2q-22 -5 -38.5 22.5t-27.5 74.5t-17.5 107t-9 121t-2.5 116t2 93q0 3 2.5 11t8.5 15t16.5 11t26.5 -1q-1 -5 -3 -29t-3 -60t-1.5 -80t0.5 -89t4 -88.5t9 -78t14.5 -56.5t21.5 -25q25 4 52 36.5t51.5 81.5t44.5 108.5t31 119t11.5 113t-14.5 90.5q1 2 5.5 5t9.5 5.5
t10 4.5t7 2q14 0 21 -15t10 -35t3.5 -39t0.5 -26q1 -25 -6.5 -71t-22 -101t-36 -113t-49.5 -107t-61 -82.5t-71 -40.5zM150 647q-32 1 -48.5 11t-19.5 24t5.5 29.5t25 28t39 19.5t48.5 3q37 -10 48.5 -30t2.5 -39.5t-35.5 -33.5t-65.5 -12zM183 733q-22 1 -37.5 -6
t-21.5 -17.5t0 -21t27 -17.5q28 2 44.5 11t20.5 19.5t-4.5 19.5t-28.5 12z" />
    <glyph glyph-name="utilde" unicode="&#x169;" 
d="M123 -2q-22 -5 -38.5 22.5t-27.5 74.5t-17.5 107t-9 121t-2.5 116t2 93q0 3 2.5 11t8.5 15t16.5 11t26.5 -1q-1 -5 -3 -29t-3 -60t-1.5 -80t0.5 -89t4 -88.5t9 -78t14.5 -56.5t21.5 -25q25 4 52 36.5t51.5 81.5t44.5 108.5t31 119t11.5 113t-14.5 90.5q1 2 5.5 5t9.5 5.5
t10 4.5t7 2q14 0 21 -15t10 -35t3.5 -39t0.5 -26q1 -25 -6.5 -71t-22 -101t-36 -113t-49.5 -107t-61 -82.5t-71 -40.5zM3 691q0 9 3.5 27t12.5 36t24 31.5t37 13.5q29 0 51 -13t43 -28t44 -28t53 -13q24 -1 43 8.5t33.5 24t25 30.5t16.5 27q3 1 7.5 -2.5t8.5 -9t5.5 -11.5
t-1.5 -9q0 -16 -13.5 -32.5t-33.5 -29.5t-43.5 -21.5t-43.5 -8.5q-53 1 -95 25t-87 57q-21 1 -31 -11.5t-14.5 -30t-6.5 -35.5t-6 -27q-14 0 -23 12t-9 18z" />
    <glyph glyph-name="wacute" unicode="&#x1e83;" horiz-adv-x="803" 
d="M6 612q8 23 21.5 20.5t22.5 -14.5l80 -508q12 12 22 49t20.5 84.5t23.5 99t33 94t47.5 68.5t67.5 23q26 0 46.5 -24.5t37 -63.5t31.5 -87t30 -95t32 -87.5t39 -64.5q2 25 7.5 82t16.5 127t28.5 142.5t43.5 129.5q32 69 58.5 90.5t53.5 0.5q-39 -33 -63.5 -92
t-40.5 -129.5t-25 -145t-17.5 -140t-18.5 -114t-27 -66.5q-30 31 -55 79t-46 102t-39 108.5t-33.5 98t-29.5 71t-27 27.5q-31 3 -49.5 -20.5t-31.5 -63t-22.5 -90.5t-22.5 -105t-31.5 -106.5t-49.5 -93.5q-11 0 -22 25t-22.5 66.5t-22.5 94.5t-20.5 109t-18 111t-14.5 99
t-9.5 73.5t-3.5 35.5zM280 642q-12 -10 -19 -9.5t-11 6.5t-6 14.5t-5 14.5l68 91q13 0 20 -2t15 -16z" />
    <glyph glyph-name="wcircumflex" unicode="&#x175;" horiz-adv-x="803" 
d="M6 612q8 23 21.5 20.5t22.5 -14.5l80 -508q12 12 22 49t20.5 84.5t23.5 99t33 94t47.5 68.5t67.5 23q26 0 46.5 -24.5t37 -63.5t31.5 -87t30 -95t32 -87.5t39 -64.5q2 25 7.5 82t16.5 127t28.5 142.5t43.5 129.5q32 69 58.5 90.5t53.5 0.5q-39 -33 -63.5 -92
t-40.5 -129.5t-25 -145t-17.5 -140t-18.5 -114t-27 -66.5q-30 31 -55 79t-46 102t-39 108.5t-33.5 98t-29.5 71t-27 27.5q-31 3 -49.5 -20.5t-31.5 -63t-22.5 -90.5t-22.5 -105t-31.5 -106.5t-49.5 -93.5q-11 0 -22 25t-22.5 66.5t-22.5 94.5t-20.5 109t-18 111t-14.5 99
t-9.5 73.5t-3.5 35.5zM333 754q8 14 15 16t20 2l72 -97q-3 -6 -5 -14.5t-6 -14.5t-11 -6.5t-19 9.5l-44 54l-36 -58q-11 -14 -26 -10.5t-22 16.5z" />
    <glyph glyph-name="wdieresis" unicode="&#x1e85;" horiz-adv-x="803" 
d="M6 612q8 23 21.5 20.5t22.5 -14.5l80 -508q12 12 22 49t20.5 84.5t23.5 99t33 94t47.5 68.5t67.5 23q26 0 46.5 -24.5t37 -63.5t31.5 -87t30 -95t32 -87.5t39 -64.5q2 25 7.5 82t16.5 127t28.5 142.5t43.5 129.5q32 69 58.5 90.5t53.5 0.5q-39 -33 -63.5 -92
t-40.5 -129.5t-25 -145t-17.5 -140t-18.5 -114t-27 -66.5q-30 31 -55 79t-46 102t-39 108.5t-33.5 98t-29.5 71t-27 27.5q-31 3 -49.5 -20.5t-31.5 -63t-22.5 -90.5t-22.5 -105t-31.5 -106.5t-49.5 -93.5q-11 0 -22 25t-22.5 66.5t-22.5 94.5t-20.5 109t-18 111t-14.5 99
t-9.5 73.5t-3.5 35.5zM281 714q-8 12 -4.5 27t13 24.5t22.5 10t25 -16.5q9 -11 5.5 -26t-13.5 -24.5t-23.5 -10.5t-24.5 16zM410 718q-8 10 -5 25t12.5 25t23 11t25.5 -16q10 -11 8.5 -26.5t-11 -26t-24 -11t-29.5 18.5z" />
    <glyph glyph-name="wgrave" unicode="&#x1e81;" horiz-adv-x="803" 
d="M6 612q8 23 21.5 20.5t22.5 -14.5l80 -508q12 12 22 49t20.5 84.5t23.5 99t33 94t47.5 68.5t67.5 23q26 0 46.5 -24.5t37 -63.5t31.5 -87t30 -95t32 -87.5t39 -64.5q2 25 7.5 82t16.5 127t28.5 142.5t43.5 129.5q32 69 58.5 90.5t53.5 0.5q-39 -33 -63.5 -92
t-40.5 -129.5t-25 -145t-17.5 -140t-18.5 -114t-27 -66.5q-30 31 -55 79t-46 102t-39 108.5t-33.5 98t-29.5 71t-27 27.5q-31 3 -49.5 -20.5t-31.5 -63t-22.5 -90.5t-22.5 -105t-31.5 -106.5t-49.5 -93.5q-11 0 -22 25t-22.5 66.5t-22.5 94.5t-20.5 109t-18 111t-14.5 99
t-9.5 73.5t-3.5 35.5zM294 767q8 14 15 16t20 2l68 -91q-3 -6 -5 -14.5t-6 -14.5t-11 -6.5t-19 9.5z" />
    <glyph glyph-name="ycircumflex" unicode="&#x177;" horiz-adv-x="525" 
d="M316 -408q-22 0 -48.5 1.5t-50.5 6t-42.5 12t-24.5 20.5q-5 2 -3 9t8 13t14.5 10t16.5 0q67 -31 110.5 -24t68.5 35.5t36 72.5t13.5 87.5t-0.5 80t-4 50.5q-2 27 -5 71t-6.5 97t-7.5 110t-8.5 109.5t-8.5 97t-7 71.5q-16 -52 -36 -113t-42.5 -121t-46.5 -115.5t-48 -96
t-47.5 -62.5t-43.5 -15q-28 8 -46 40t-27.5 80t-10.5 109t3.5 127t14 134.5t22.5 131.5q16 5 30 -2t19 -31q-18 -59 -27 -120t-11.5 -119t0.5 -109t10 -89.5t17.5 -61t22.5 -23.5q12 1 29 31.5t37 79t42 108t43.5 119t42 112.5t37.5 87q6 17 20 18t29 -1q4 -30 9 -79
t10.5 -107.5t11.5 -122.5t10.5 -122.5t8.5 -108t6 -78.5q1 -30 4 -68t3.5 -79.5t-5 -83t-21.5 -77t-45 -63t-76 -39.5zM226 821q8 14 15 16t20 2l72 -97q-3 -6 -5 -14.5t-6 -14.5t-11 -6.5t-19 9.5l-44 54l-36 -58q-11 -14 -26 -10.5t-22 16.5z" />
    <glyph glyph-name="ygrave" unicode="&#x1ef3;" horiz-adv-x="525" 
d="M316 -408q-22 0 -48.5 1.5t-50.5 6t-42.5 12t-24.5 20.5q-5 2 -3 9t8 13t14.5 10t16.5 0q67 -31 110.5 -24t68.5 35.5t36 72.5t13.5 87.5t-0.5 80t-4 50.5q-2 27 -5 71t-6.5 97t-7.5 110t-8.5 109.5t-8.5 97t-7 71.5q-16 -52 -36 -113t-42.5 -121t-46.5 -115.5t-48 -96
t-47.5 -62.5t-43.5 -15q-28 8 -46 40t-27.5 80t-10.5 109t3.5 127t14 134.5t22.5 131.5q16 5 30 -2t19 -31q-18 -59 -27 -120t-11.5 -119t0.5 -109t10 -89.5t17.5 -61t22.5 -23.5q12 1 29 31.5t37 79t42 108t43.5 119t42 112.5t37.5 87q6 17 20 18t29 -1q4 -30 9 -79
t10.5 -107.5t11.5 -122.5t10.5 -122.5t8.5 -108t6 -78.5q1 -30 4 -68t3.5 -79.5t-5 -83t-21.5 -77t-45 -63t-76 -39.5zM173 784q8 14 15 16t20 2l68 -91q-3 -6 -5 -14.5t-6 -14.5t-11 -6.5t-19 9.5z" />
    <glyph glyph-name="zacute" unicode="&#x17a;" horiz-adv-x="541" 
d="M183 -7q-45 3 -65.5 26t-23.5 57.5t7.5 77t27 84.5t34.5 79t31 61l-181 -47q-3 24 7.5 38t29 22t42 12.5t48.5 9t47.5 11.5t39.5 20l70 143q-39 7 -70.5 -3t-61.5 -24.5t-61 -27.5t-69 -11q-7 14 5 28t36 26.5t57.5 24t68.5 19.5t68.5 12.5t59.5 4.5q29 -11 33 -22.5
t-7 -32.5t-31.5 -55.5t-39.5 -91.5l108 35q12 -9 4 -23.5t-29.5 -29.5t-53.5 -27t-69 -16q-12 -20 -28 -52.5t-31 -69.5t-27 -74t-14.5 -67t6 -49t33.5 -18q46 -6 89.5 10.5t80.5 42.5t64.5 55.5t42.5 49.5q3 -42 -25.5 -80.5t-71.5 -67.5t-92.5 -45.5t-88.5 -14.5zM255 692
q-12 -10 -19 -9.5t-11 6.5t-6 14.5t-5 14.5l68 91q13 0 20 -2t15 -16z" />
    <glyph glyph-name="zdotaccent" unicode="&#x17c;" horiz-adv-x="541" 
d="M183 -7q-45 3 -65.5 26t-23.5 57.5t7.5 77t27 84.5t34.5 79t31 61l-181 -47q-3 24 7.5 38t29 22t42 12.5t48.5 9t47.5 11.5t39.5 20l70 143q-39 7 -70.5 -3t-61.5 -24.5t-61 -27.5t-69 -11q-7 14 5 28t36 26.5t57.5 24t68.5 19.5t68.5 12.5t59.5 4.5q29 -11 33 -22.5
t-7 -32.5t-31.5 -55.5t-39.5 -91.5l108 35q12 -9 4 -23.5t-29.5 -29.5t-53.5 -27t-69 -16q-12 -20 -28 -52.5t-31 -69.5t-27 -74t-14.5 -67t6 -49t33.5 -18q46 -6 89.5 10.5t80.5 42.5t64.5 55.5t42.5 49.5q3 -42 -25.5 -80.5t-71.5 -67.5t-92.5 -45.5t-88.5 -14.5zM257 721
q-6 12 -1 28t16.5 26.5t25.5 12t26 -15.5q8 -9 2.5 -26.5t-17 -31t-26.5 -15t-26 21.5z" />
    <glyph glyph-name="hungarumlaut" unicode="&#x2dd;" horiz-adv-x="234" 
d="M65 642q-16 -5 -24 -2.5t-12 8t-4.5 11.5t-0.5 9l68 91q13 0 20 -2t15 -16zM151 633q-11 -4 -17 -1t-10 8t-7 11t-7 8l68 91q13 0 20 -2t15 -16z" />
    <glyph glyph-name="dotlessi" unicode="&#x131;" horiz-adv-x="154" 
d="M72 608q19 -65 30.5 -145t18 -160t9 -153t4.5 -122q0 -20 -11.5 -23.5t-29.5 -0.5q-13 146 -22 293.5t-32 293.5z" />
    <glyph glyph-name="quotesinglbase" unicode="&#x201a;" horiz-adv-x="180" 
d="M53 -11q4 21 11.5 44.5t11.5 51t0 59.5t-22 70q0 14 10.5 20t22.5 6q24 -18 34.5 -51t10.5 -71.5t-9 -77t-25 -66.5q-2 -5 -9 -7t-15 0t-14.5 7.5t-6.5 14.5z" />
    <glyph glyph-name="quotedblbase" unicode="&#x201e;" horiz-adv-x="270" 
d="M52 -14q4 21 11.5 44.5t11.5 51t0 59.5t-22 70q0 14 10.5 20t22.5 6q24 -18 34.5 -51t10.5 -71.5t-9 -77t-25 -66.5q-2 -5 -9 -7t-15 0t-14.5 7.5t-6.5 14.5zM156 -16q4 21 11.5 44.5t11.5 51t0 59.5t-22 70q0 14 10.5 20t22.5 6q24 -18 34.5 -51t10.5 -71.5t-9 -77
t-25 -66.5q-2 -5 -9 -7t-15 0t-14.5 7.5t-6.5 14.5z" />
    <glyph glyph-name="Euro" unicode="&#x20ac;" horiz-adv-x="608" 
d="M158 212q-1 -28 2 -60.5t14.5 -59.5t32 -43.5t53.5 -12.5q62 0 113.5 27.5t91 69.5t66.5 93t39 98h20q0 -59 -32.5 -117.5t-82.5 -106t-110.5 -77t-117.5 -29.5q-44 0 -71 20t-42 51.5t-20 69t-5 72.5v2l-73 -3q-11 4 -16 11.5t-6 16t1.5 16t6.5 10.5l89 5q3 37 9 77
l-98 -4q-11 4 -16 11.5t-6 16t1.5 16t6.5 10.5l122 7q11 52 29 103.5t44 92t61 65.5t80 25q36 0 54.5 -19t27 -46.5t9 -60t0.5 -59.5q-20 0 -28.5 11.5t-12 28t-5 36.5t-7 36.5t-18 28t-38.5 11.5q-29 0 -52.5 -22t-41.5 -58t-30.5 -80.5t-21.5 -89.5l186 12q20 0 25 -9
t1 -20t-15 -20.5t-23 -10.5l-184 -9q-3 -21 -5.5 -40.5t-3.5 -36.5l219 14q3 0 11 -5.5t11 -14.5t-3.5 -19.5t-30.5 -20.5z" />
    <glyph glyph-name="ellipsis" unicode="&#x2026;" horiz-adv-x="330" 
d="M80 68q5 -4 7.5 -18.5t-2 -27t-18.5 -18t-41 7.5q-8 16 -4.5 30.5t12.5 23t21.5 10t24.5 -7.5zM190 68q5 -4 7.5 -18.5t-2 -27t-18.5 -18t-41 7.5q-8 16 -4.5 30.5t12.5 23t21.5 10t24.5 -7.5zM300 68q5 -4 7.5 -18.5t-2 -27t-18.5 -18t-41 7.5q-8 16 -4.5 30.5t12.5 23
t21.5 10t24.5 -7.5z" />
    <glyph glyph-name="quoteleft" unicode="&#x2018;" horiz-adv-x="180" 
d="M131 429q0 -9 -6.5 -14.5t-14.5 -7.5t-15 0t-9 7q-16 28 -25 66.5t-9 77t10.5 71.5t34.5 51q12 0 22.5 -6t10.5 -20q-18 -38 -22 -70t0 -59.5t11.5 -51t11.5 -44.5z" />
    <glyph glyph-name="quoteright" unicode="&#x2019;" horiz-adv-x="180" 
d="M69 431q4 21 11.5 44.5t11.5 51t0 59.5t-22 70q0 14 10.5 20t22.5 6q24 -18 34.5 -51t10.5 -71.5t-9 -77t-25 -66.5q-2 -5 -9 -7t-15 0t-14.5 7.5t-6.5 14.5z" />
    <glyph glyph-name="quotedblright" unicode="&#x201d;" horiz-adv-x="279" 
d="M164 434q4 22 11.5 46.5t11 52.5t-0.5 60.5t-22 70.5q0 14 10.5 20t22.5 6q24 -18 34.5 -51t10.5 -71.5t-9 -77t-25 -66.5q-2 -5 -9 -7.5t-14.5 -1.5t-14 5.5t-6.5 13.5zM69 431q4 21 11.5 44.5t11.5 51t0 59.5t-22 70q0 14 10.5 20t22.5 6q24 -18 34.5 -51t10.5 -71.5
t-9 -77t-25 -66.5q-2 -5 -9 -7t-15 0t-14.5 7.5t-6.5 14.5z" />
    <glyph glyph-name="quotedblleft" unicode="&#x201c;" horiz-adv-x="279" 
d="M120 440q0 -9 -6.5 -13.5t-14 -5.5t-14.5 1.5t-9 7.5q-16 28 -25 66.5t-9 77t10.5 71.5t34.5 51q12 0 22.5 -6t10.5 -20q-18 -38 -22 -70.5t-0.5 -60.5t10.5 -52.5t12 -46.5zM215 437q0 -9 -6.5 -14.5t-14.5 -7.5t-15 0t-9 7q-16 28 -25 66.5t-9 77t10.5 71.5t34.5 51
q12 0 22.5 -6t10.5 -20q-18 -38 -22 -70t0 -59.5t11.5 -51t11.5 -44.5z" />
    <glyph glyph-name="AEacute" unicode="&#x1fc;" horiz-adv-x="851" 
d="M292 162q-1 23 6.5 46t19.5 45q-24 -9 -51 -21t-50 -24.5t-40 -25t-20 -22.5l-65 -197q-5 -14 -14 -16t-19 -2q-13 0 -23 6t-10 21q0 14 11.5 40.5t26.5 55.5t28 54.5t16 37.5q2 10 11 41t20.5 73t25 89t25 89t20 73.5t11.5 41.5q5 19 11 50.5t16 61.5t25.5 51.5
t39.5 21.5q2 0 10 -16t17 -37t16.5 -41t8.5 -27q9 15 23.5 33.5t35.5 34t48 25t61 7.5q21 -1 38.5 -15t25.5 -30t5 -29.5t-23 -14.5q-8 26 -34 39.5t-56 7.5q-19 -4 -40.5 -22t-41.5 -48.5t-37.5 -73t-27.5 -96.5q11 -31 55 -32q27 0 52.5 13t49.5 28.5t46.5 29t43.5 14.5
q4 0 9.5 -0.5t10.5 -2t9 -5t4 -10.5q0 -16 -20.5 -33t-51.5 -36.5t-67.5 -43t-67.5 -52t-51.5 -63t-20.5 -76.5q0 -27 9 -45t25 -28t37 -14t44 -4q55 0 105 19t95.5 49.5t85.5 68.5t75 77h19q0 -28 -20.5 -59t-53 -60t-73.5 -55.5t-81.5 -46.5t-76.5 -31.5t-60 -11.5
q-29 0 -60.5 5.5t-58.5 20t-44.5 38t-17.5 59.5zM397 375q-10 -3 -28.5 0t-36 12t-29.5 25t-9 39q3 27 12.5 57t23.5 60q-10 51 -19 81t-16 40l-105 -431q5 1 20.5 4t36.5 7t44.5 9.5t44.5 11.5zM415 750q-12 -10 -19 -9.5t-11 6.5t-6 14.5t-5 14.5l68 91q13 0 20 -2t15 -16
z" />
    <glyph glyph-name="Ohungarumlaut" unicode="&#x150;" horiz-adv-x="394" 
d="M141 0q-36 3 -62 33.5t-41 79.5t-20 110.5t1 125.5t23 125.5t44.5 110t66 79t88.5 32.5q43 -4 71.5 -37t43.5 -84t17.5 -114.5t-6.5 -129t-28.5 -127t-48.5 -108.5t-66.5 -73.5t-82.5 -22.5zM234 650q-30 -1 -56.5 -25t-47.5 -63t-36.5 -88.5t-23.5 -102.5t-8.5 -105
t8 -95.5t26 -74.5t46.5 -42q35 -3 64.5 18.5t53 59t39.5 87.5t24 103.5t7.5 107t-11 98.5t-31.5 77.5t-54 44.5zM213 735q-16 -5 -24 -2.5t-12 8t-4.5 11.5t-0.5 9l68 91q13 0 20 -2t15 -16zM299 726q-11 -4 -17 -1t-10 8t-7 11t-7 8l68 91q13 0 20 -2t15 -16z" />
    <glyph glyph-name="Uhungarumlaut" unicode="&#x170;" horiz-adv-x="459" 
d="M134 4q-42 30 -67.5 72.5t-38 93t-16.5 106t-3.5 111.5t2 109.5t-0.5 100.5q7 10 18 14.5t22 2.5q4 -43 3.5 -92.5t-1.5 -102t1 -105t10.5 -100t26.5 -88.5t50 -70q45 -14 83 11t67.5 74.5t50 117.5t31 139t9.5 138.5t-13 117.5q-12 -39 -21.5 -51.5t-15.5 -8t-7.5 21
t2.5 35t14 34t28 18.5q25 -12 39 -50.5t17.5 -93t-3 -120t-22.5 -130.5t-41.5 -125t-59 -103.5t-74.5 -65.5t-90 -11zM176 750q-16 -5 -24 -2.5t-12 8t-4.5 11.5t-0.5 9l68 91q13 0 20 -2t15 -16zM262 741q-11 -4 -17 -1t-10 8t-7 11t-7 8l68 91q13 0 20 -2t15 -16z" />
    <glyph glyph-name="iacute" unicode="&#xed;" horiz-adv-x="154" 
d="M72 608q19 -65 30.5 -145t18 -160t9 -153t4.5 -122q0 -20 -11.5 -23.5t-29.5 -0.5q-13 146 -22 293.5t-32 293.5zM66 642q-12 -10 -19 -9.5t-11 6.5t-6 14.5t-5 14.5l68 91q13 0 20 -2t15 -16z" />
    <glyph glyph-name="ibreve" unicode="&#x12d;" horiz-adv-x="154" 
d="M72 608q19 -65 30.5 -145t18 -160t9 -153t4.5 -122q0 -20 -11.5 -23.5t-29.5 -0.5q-13 146 -22 293.5t-32 293.5zM-14 720q13 -29 28.5 -39.5t32 -9.5t32 9.5t29 18t23 16.5t13.5 5q14 6 13.5 -5t-12.5 -27.5t-33 -33t-46.5 -21t-54.5 9.5t-56 57z" />
    <glyph glyph-name="icircumflex" unicode="&#xee;" horiz-adv-x="154" 
d="M72 608q19 -65 30.5 -145t18 -160t9 -153t4.5 -122q0 -20 -11.5 -23.5t-29.5 -0.5q-13 146 -22 293.5t-32 293.5zM56 743q8 14 15 16t20 2l72 -97q-3 -6 -5 -14.5t-6 -14.5t-11 -6.5t-19 9.5l-44 54l-36 -58q-11 -14 -26 -10.5t-22 16.5z" />
    <glyph glyph-name="idieresis" unicode="&#xef;" horiz-adv-x="154" 
d="M72 608q19 -65 30.5 -145t18 -160t9 -153t4.5 -122q0 -20 -11.5 -23.5t-29.5 -0.5q-13 146 -22 293.5t-32 293.5zM-17 654q-8 12 -4.5 27t13 24.5t22.5 10t25 -16.5q9 -11 5.5 -26t-13.5 -24.5t-23.5 -10.5t-24.5 16zM112 658q-8 10 -5 25t12.5 25t23 11t25.5 -16
q10 -11 8.5 -26.5t-11 -26t-24 -11t-29.5 18.5z" />
    <glyph glyph-name="igrave" unicode="&#xec;" horiz-adv-x="154" 
d="M72 608q19 -65 30.5 -145t18 -160t9 -153t4.5 -122q0 -20 -11.5 -23.5t-29.5 -0.5q-13 146 -22 293.5t-32 293.5zM25 741q8 14 15 16t20 2l68 -91q-3 -6 -5 -14.5t-6 -14.5t-11 -6.5t-19 9.5z" />
    <glyph glyph-name="imacron" unicode="&#x12b;" horiz-adv-x="154" 
d="M72 608q19 -65 30.5 -145t18 -160t9 -153t4.5 -122q0 -20 -11.5 -23.5t-29.5 -0.5q-13 146 -22 293.5t-32 293.5zM-94 673q0 8 4 21.5t9 18.5l328 -11l3 -43z" />
    <glyph glyph-name="iogonek" unicode="&#x12f;" horiz-adv-x="154" 
d="M72 608q19 -65 30.5 -145t18 -160t9 -153t4.5 -122q0 -20 -11.5 -23.5t-29.5 -0.5q-13 146 -22 293.5t-32 293.5zM60 641q-12 -5 -24.5 -2t-20 11t-7 19t16.5 23q17 6 34.5 0.5t26.5 -15t5 -20.5t-31 -16zM194 -114q-15 -15 -39.5 -21.5t-48.5 -2t-41 21t-17 48.5
q0 6 3 20.5t10 30t18.5 29.5t28.5 19l20 -17q-18 -12 -29.5 -32t-13 -39t8 -33t32.5 -14q18 0 31.5 1.5t36.5 -11.5z" />
    <glyph glyph-name="itilde" unicode="&#x129;" horiz-adv-x="154" 
d="M72 608q19 -65 30.5 -145t18 -160t9 -153t4.5 -122q0 -20 -11.5 -23.5t-29.5 -0.5q-13 146 -22 293.5t-32 293.5zM-129 660q0 9 3.5 27t12.5 36t24 31.5t37 13.5q29 0 51 -13t43 -28t44 -28t53 -13q24 -1 43 8.5t33.5 24t25 30.5t16.5 27q3 1 7.5 -2.5t8.5 -9t5.5 -11.5
t-1.5 -9q0 -16 -13.5 -32.5t-33.5 -29.5t-43.5 -21.5t-43.5 -8.5q-53 1 -95 25t-87 57q-21 1 -31 -11.5t-14.5 -30t-6.5 -35.5t-6 -27q-14 0 -23 12t-9 18z" />
    <glyph glyph-name="ohungarumlaut" unicode="&#x151;" horiz-adv-x="344" 
d="M17 182q9 129 27 215.5t43.5 138.5t55.5 72.5t63 16.5q41 -2 68.5 -29t42.5 -71t17.5 -99.5t-5.5 -113.5t-26 -114t-45.5 -100t-63 -71.5t-78.5 -29.5q-37 0 -57 19t-29.5 47.5t-11 60.5t-1.5 58zM206 584q-24 2 -45 -20.5t-38.5 -60.5t-30.5 -87t-21 -100.5t-9.5 -100.5
t3.5 -87t17.5 -60t34.5 -20q44 6 78 48t55.5 100.5t31 125.5t5 124.5t-24.5 96t-56 41.5zM148 662q-16 -5 -24 -2.5t-12 8t-4.5 11.5t-0.5 9l68 91q13 0 20 -2t15 -16zM234 653q-11 -4 -17 -1t-10 8t-7 11t-7 8l68 91q13 0 20 -2t15 -16z" />
    <glyph glyph-name="uhungarumlaut" unicode="&#x171;" horiz-adv-x="380" 
d="M123 -2q-22 -5 -38.5 22.5t-27.5 74.5t-17.5 107t-9 121t-2.5 116t2 93q0 3 2.5 11t8.5 15t16.5 11t26.5 -1q-1 -5 -3 -29t-3 -60t-1.5 -80t0.5 -89t4 -88.5t9 -78t14.5 -56.5t21.5 -25q25 4 52 36.5t51.5 81.5t44.5 108.5t31 119t11.5 113t-14.5 90.5q1 2 5.5 5t9.5 5.5
t10 4.5t7 2q14 0 21 -15t10 -35t3.5 -39t0.5 -26q1 -25 -6.5 -71t-22 -101t-36 -113t-49.5 -107t-61 -82.5t-71 -40.5zM137 642q-16 -5 -24 -2.5t-12 8t-4.5 11.5t-0.5 9l68 91q13 0 20 -2t15 -16zM223 633q-11 -4 -17 -1t-10 8t-7 11t-7 8l68 91q13 0 20 -2t15 -16z" />
    <glyph glyph-name="Eth" unicode="&#xd0;" horiz-adv-x="578" 
d="M90 614q-10 -7 -24.5 -14t-26 -8.5t-15 5t8.5 26.5q32 31 76.5 44t89.5 15.5t85 -1t64 -5.5q48 -12 86 -34t65.5 -52t43.5 -66t19 -76q0 -48 -18 -100t-49 -102t-73 -95t-89.5 -79t-99 -54t-100.5 -20q0 74 -5 151.5t-11 155.5q-30 -1 -56.5 1t-45 8.5t-26 18.5t-0.5 30
l122 5q-5 57 -8 112.5t-4 109.5zM336 324q-11 0 -30 -2t-43 -5t-51.5 -5.5t-54.5 -4.5q3 -72 6 -119.5t5.5 -77.5t4.5 -47t3 -29q37 2 77.5 24.5t79.5 57.5t74 79.5t61.5 90t41.5 88.5t15 77q0 41 -18.5 74.5t-49 58.5t-70 41t-82 23t-84 4.5t-75.5 -14.5q2 -82 4 -148.5
t4 -120.5l182 8v-53z" />
    <glyph glyph-name="germandbls" unicode="&#xdf;" horiz-adv-x="538" 
d="M55 -47l-27 501q-8 84 15.5 138.5t63.5 85t89 39t93 1t74.5 -29.5t33.5 -52q-3 -29 -21.5 -65.5t-44 -73t-54 -69t-49.5 -53.5q18 -1 46.5 -0.5t59.5 -1t62.5 -7t57 -18t41 -33.5t15.5 -54q0 -29 -15 -61.5t-41 -63t-60 -57.5t-72 -46.5t-78 -28t-77 -2.5l48 43
q43 -4 87.5 12t80 44.5t58.5 66t23 78.5q0 34 -17 55t-43.5 32.5t-59.5 14t-65.5 0t-61 -8.5t-45.5 -12l-20 41q32 19 66 55t62.5 76.5t47 78t18.5 60.5q0 1 -1.5 5.5t-4 9.5t-5 9t-4.5 5q-28 10 -60 16.5t-62 2.5t-57 -22t-46.5 -55.5t-29 -98.5t-4.5 -151l34 -406h-51z
" />
    <glyph glyph-name="Thorn" unicode="&#xde;" horiz-adv-x="475" 
d="M44 -233q23 318 14.5 547t-38.5 360q0 12 1 23t5.5 19.5t13.5 13.5t24 4l50 -373q11 29 26.5 63.5t37 64.5t50.5 50t67 20q46 0 77.5 -29t51 -71t28 -89t8.5 -83q-2 -51 -12.5 -103t-33.5 -95t-59.5 -70t-88.5 -27q-17 -1 -37.5 1.5t-42 9t-42 17.5t-38.5 28l-14 -290z
M124 106q0 -18 17 -31.5t39.5 -22.5t46 -14t35.5 -5q52 7 82 38t45 72.5t18.5 85t3.5 76.5q0 25 -7 60.5t-22 67.5t-39 55t-57 23q-32 0 -56 -25t-42 -64t-30.5 -86.5t-20 -92.5t-10.5 -82t-3 -55z" />
    <glyph glyph-name="thorn" unicode="&#xfe;" horiz-adv-x="429" 
d="M35 713q6 15 13.5 19.5t14.5 2.5t11.5 -8t3.5 -11l-3 -247q11 29 24.5 61.5t32.5 60t46 45.5t65 18q46 0 77.5 -29t51 -71t28 -89t8.5 -83q-2 -51 -12.5 -103t-33.5 -95t-59.5 -70t-88.5 -27q-17 -1 -37.5 1.5t-42 9t-42 17.5t-38.5 28l1 -157l-40 3zM72 201
q0 -18 17 -31.5t39.5 -22.5t46 -14t35.5 -5q52 7 82 38t45 72.5t18.5 85t3.5 76.5q0 25 -7 60.5t-22 67.5t-39 55t-57 23q-32 0 -56 -25t-42 -64t-30.5 -86.5t-20 -92.5t-10.5 -82t-3 -55z" />
    <glyph glyph-name="endash" unicode="&#x2013;" horiz-adv-x="422" 
d="M388 277q-18 0 -53 -4.5t-77 -8.5t-85 -5.5t-75.5 3t-49.5 17t-7 37.5l347 14v-53v0z" />
    <glyph glyph-name="minus" unicode="&#x2212;" horiz-adv-x="422" 
d="M388 277q-18 0 -53 -4.5t-77 -8.5t-85 -5.5t-75.5 3t-49.5 17t-7 37.5l347 14v-53v0z" />
    </font>
</defs>
</svg>
