<?xml version="1.0" encoding="UTF-8" standalone="no"?>
<!-- Created with Inkscape (http://www.inkscape.org/) -->

<svg
   xmlns:dc="http://purl.org/dc/elements/1.1/"
   xmlns:cc="http://creativecommons.org/ns#"
   xmlns:rdf="http://www.w3.org/1999/02/22-rdf-syntax-ns#"
   xmlns:svg="http://www.w3.org/2000/svg"
   xmlns="http://www.w3.org/2000/svg"
   xmlns:sodipodi="http://sodipodi.sourceforge.net/DTD/sodipodi-0.dtd"
   xmlns:inkscape="http://www.inkscape.org/namespaces/inkscape"
   id="svg3285"
   version="1.1"
   inkscape:version="0.48.2 r9819"
   width="367.94875"
   height="162.08375"
   xml:space="preserve"
   sodipodi:docname="small Victoria Fringe logo 600 dpi.ai"><metadata
     id="metadata3291"><rdf:RDF><cc:Work
         rdf:about=""><dc:format>image/svg+xml</dc:format><dc:type
           rdf:resource="http://purl.org/dc/dcmitype/StillImage" /><dc:title></dc:title></cc:Work></rdf:RDF></metadata><defs
     id="defs3289"><clipPath
       clipPathUnits="userSpaceOnUse"
       id="clipPath3299"><path
         d="m 0,129.667 294.359,0 L 294.359,0 0,0 0,129.667 z"
         id="path3301" /></clipPath></defs><sodipodi:namedview
     pagecolor="#ffffff"
     bordercolor="#666666"
     borderopacity="1"
     objecttolerance="10"
     gridtolerance="10"
     guidetolerance="10"
     inkscape:pageopacity="0"
     inkscape:pageshadow="2"
     inkscape:window-width="640"
     inkscape:window-height="480"
     id="namedview3287"
     showgrid="false"
     inkscape:zoom="1.6527079"
     inkscape:cx="71.268989"
     inkscape:cy="69.064254"
     inkscape:window-x="300"
     inkscape:window-y="392"
     inkscape:window-maximized="0"
     inkscape:current-layer="g3293" /><g
     id="g3293"
     inkscape:groupmode="layer"
     inkscape:label="small Victoria Fringe logo 600 dpi"
     transform="matrix(1.25,0,0,-1.25,0,162.08375)"><g
       id="g3295"><g
         id="g3297"
         clip-path="url(#clipPath3299)"><g
           id="g3303"
           transform="translate(7.8834,88.3777)"><path
             d="M 0,0 C -0.213,-2.906 -2.21,-8.743 -2.21,-8.743 L -5.2,-9.271 -7.884,-1.39 c 0,0 1.727,0.281 3.11,0.584 l 1.571,-5.868 c 0,0 1.099,3.675 1.229,6.326 L 0,0 z"
             style="fill:#ec008c;fill-opacity:1;fill-rule:nonzero;stroke:none"
             id="path3305" /></g><g
           id="g3307"
           transform="translate(11.5601,85.2888)"><path
             d="m 0,0 c 0,-1.115 0.036,-2.574 0.036,-4.11 l -2.742,-0.484 c 0,0 0.059,2.352 0.059,4.164 0,1.308 -0.082,4.187 -0.082,4.187 L 0.143,4.263 C 0.143,4.263 0,1.32 0,0"
             style="fill:#ec008c;fill-opacity:1;fill-rule:nonzero;stroke:none"
             id="path3309" /></g><g
           id="g3311"
           transform="translate(19.0387,82.531)"><path
             d="m 0,0 c 0,0 -0.851,-0.906 -2.458,-1.189 -2.494,-0.44 -4.173,0.705 -4.173,3.657 0,2.892 1.774,4.706 4.173,5.129 1.229,0.216 2.376,-0.158 2.376,-0.158 L -0.709,5.288 c 0,0 -0.969,0.453 -1.809,0.306 -0.792,-0.14 -1.406,-0.764 -1.406,-2.576 0,-1.801 0.532,-2.368 1.478,-2.201 0.933,0.164 1.867,0.941 1.867,0.941 L 0,0 z"
             style="fill:#ec008c;fill-opacity:1;fill-rule:nonzero;stroke:none"
             id="path3313" /></g><g
           id="g3315"
           transform="translate(24.1842,89.2)"><path
             d="m 0,0 c -0.035,-0.787 -0.059,-1.631 -0.059,-2.195 0,-1.117 0.036,-2.575 0.036,-4.111 l -2.731,-0.481 c 0,0 0.047,2.349 0.047,4.161 0,0.553 -0.012,1.366 -0.035,2.131 L -4.586,-0.82 c 0,0 0.165,1.217 0.19,2.097 L 1.879,2.384 1.596,0.281 0,0 z"
             style="fill:#ec008c;fill-opacity:1;fill-rule:nonzero;stroke:none"
             id="path3317" /></g><g
           id="g3319"
           transform="translate(30.0103,85.0339)"><path
             d="m 0,0 c 0.887,0.156 1.206,1.137 1.206,2.697 0,1.548 -0.391,2.608 -1.277,2.451 C -0.863,5.009 -1.241,4.234 -1.241,2.422 -1.241,0.622 -0.792,-0.14 0,0 m 3.924,3.26 c 0,-2.857 -1.513,-4.659 -3.936,-5.086 -2.399,-0.423 -3.936,0.843 -3.936,3.699 0,2.893 1.537,4.664 3.936,5.087 2.423,0.427 3.936,-0.807 3.936,-3.7"
             style="fill:#ec008c;fill-opacity:1;fill-rule:nonzero;stroke:none"
             id="path3321" /></g><g
           id="g3323"
           transform="translate(48.4625,90.24)"><path
             d="M 0,0 C 0.318,1.808 0.757,3.038 0.757,3.038 L 1.501,0.265 0,0 z m -10.844,-0.784 c 0,0.637 -0.023,1.616 0,2.425 0.544,0.12 1.525,0.365 1.525,-0.752 0,-1.272 -0.993,-1.567 -1.525,-1.673 M 2.71,5.856 -0.28,5.329 c 0,0 -1.209,-3.597 -1.85,-6.54 -0.498,-0.183 -1.419,-0.522 -2.157,-0.652 -1.845,-0.325 -2.953,0.224 -3.604,0.866 0.591,0.465 1.243,1.366 1.243,2.518 0,2.149 -2.081,2.2 -4.054,1.887 l -2.884,-0.509 c 0,0 0.09,-2.848 0.09,-4.157 0,-1.811 -0.065,-4.135 -0.065,-4.135 l 2.731,0.481 c 0.008,1.002 -0.007,1.662 -0.019,2.549 0,0 0.286,0.048 0.712,0.194 0.756,-1.091 2.436,-2.77 5.805,-2.177 1.288,0.227 2.73,0.789 2.73,0.789 0.381,0.096 1.088,0.408 1.088,0.408 0.035,0.545 0.107,1.133 0.19,1.724 L 1.862,-1.04 2.3,-2.691 c 1.383,0.303 3.1,0.625 3.1,0.625 L 2.71,5.856 z"
             style="fill:#ec008c;fill-opacity:1;fill-rule:nonzero;stroke:none"
             id="path3325" /></g><g
           id="g3327"
           transform="translate(45.6812,95.0798)"><path
             d="m 0,0 -2.681,-0.51 c 0,0 0.074,-1.879 0.074,-2.732 0,-1.184 -0.052,-2.719 -0.052,-2.719 0,-0.172 2.115,0.296 2.412,0.468 0,1.003 -0.004,1.803 -0.004,2.531 C -0.251,-2.1 0,0 0,0"
             style="fill:#ec008c;fill-opacity:1;fill-rule:nonzero;stroke:none"
             id="path3329" /></g><g
           id="g3331"
           transform="translate(62.94,12.2498)"><path
             d="m 0,0 3.628,0.725 c 0,0 -0.166,-1.457 -0.19,-2.337 l -5.802,-1.026 0.036,1.039 c 0.023,2.117 3.002,3.975 3.002,5.367 0,0.515 -0.426,0.692 -1.088,0.576 C -1.265,4.193 -2.01,3.474 -2.01,3.474 l -0.566,1.688 c 0,0 0.957,0.901 2.528,1.179 C 1.985,6.699 3.521,6.095 3.521,4.318 3.521,2.11 0.496,1.012 0,0"
             style="fill:#542686;fill-opacity:1;fill-rule:nonzero;stroke:none"
             id="path3333" /></g><g
           id="g3335"
           transform="translate(71.5982,16.1746)"><path
             d="m 0,0 c 0,1.681 -0.248,2.585 -0.887,2.473 -0.555,-0.099 -0.792,-1.04 -0.792,-2.672 0,-1.74 0.296,-2.576 0.852,-2.479 C -0.189,-2.565 0,-1.487 0,0 m 2.6,0.52 c 0,-2.701 -1.277,-4.618 -3.439,-5 -2.14,-0.377 -3.439,1.085 -3.439,3.785 0,2.736 1.299,4.622 3.439,5 C 1.418,4.703 2.6,3.256 2.6,0.52"
             style="fill:#542686;fill-opacity:1;fill-rule:nonzero;stroke:none"
             id="path3337" /></g><g
           id="g3339"
           transform="translate(78.8922,13.5964)"><path
             d="m 0,0 -2.683,-0.473 c 0.012,1.202 0.024,3.496 0.024,4.168 0,0.397 -0.012,0.754 -0.024,1.328 l -1.441,-0.254 0.023,1.168 c 0.792,0.14 1.655,0.76 2.127,2.068 l 2.045,0.36 c 0,0 -0.083,-2.929 -0.083,-4.25 0,-0.576 0,-2.869 0.012,-4.115"
             style="fill:#542686;fill-opacity:1;fill-rule:nonzero;stroke:none"
             id="path3341" /></g><g
           id="g3343"
           transform="translate(4.1578,5.0613)"><path
             d="M 0,0 2.529,0.446 2.482,-1.242 0,-1.68 c 0.013,-0.886 0.036,-1.878 0.036,-2.898 l -2.742,-0.484 c 0,0 0.06,2.351 0.06,4.164 0,1.308 -0.083,4.185 -0.083,4.185 L 2.647,4.235 C 2.671,3.363 2.837,2.204 2.837,2.204 L 0.06,1.811 C 0.036,1.23 0.013,0.626 0,0"
             style="fill:#ec008c;fill-opacity:1;fill-rule:nonzero;stroke:none"
             id="path3345" /></g><g
           id="g3347"
           transform="translate(14.0152,4.0291)"><path
             d="m 0,0 c 0,0 -0.177,-1.22 -0.188,-2.098 l -5.91,-1.042 c 0,0 0.047,2.349 0.047,4.161 0,1.309 -0.038,4.186 -0.038,4.186 l 5.753,1.006 0,-1.788 L -3.3,3.911 C -3.312,3.465 -3.369,1.958 -3.369,1.958 c 0.236,0.306 0.698,0.701 1.348,0.815 0.72,0.127 1.058,-0.292 1.058,-0.784 0,-0.564 -0.44,-1.013 -1.091,-1.128 C -2.502,0.782 -2.858,1.067 -3.13,1.02 -3.271,0.995 -3.391,0.902 -3.391,0.65 c 0,0 0.012,-1.234 0.012,-1.366 L 0,0 z"
             style="fill:#ec008c;fill-opacity:1;fill-rule:nonzero;stroke:none"
             id="path3349" /></g><g
           id="g3351"
           transform="translate(20.5904,6.2029)"><path
             d="m 0,0 c 0,-1.656 -1.549,-2.817 -3.392,-3.143 -1.655,-0.291 -2.647,0.266 -2.647,0.266 l 0.567,1.769 c 0,0 1.076,-0.459 2.044,-0.288 0.603,0.106 0.816,0.383 0.816,0.744 0,1.128 -3.404,0.551 -3.404,3.228 0,1.512 1.501,2.868 3.345,3.194 1.43,0.251 2.505,-0.267 2.505,-0.267 L -0.709,3.799 c 0,0 -1.017,0.386 -1.903,0.229 C -3.085,3.944 -3.416,3.706 -3.416,3.154 -3.416,2.267 0,2.604 0,0"
             style="fill:#ec008c;fill-opacity:1;fill-rule:nonzero;stroke:none"
             id="path3353" /></g><g
           id="g3355"
           transform="translate(25.4693,9.5349)"><path
             d="m 0,0 c -0.035,-0.786 -0.059,-1.63 -0.059,-2.194 0,-1.117 0.036,-2.575 0.036,-4.111 l -2.73,-0.48 c 0,0 0.047,2.348 0.047,4.16 0,0.553 -0.012,1.366 -0.035,2.13 l -1.844,-0.324 c 0,0 0.165,1.216 0.189,2.096 L 1.879,2.384 1.596,0.281 0,0 z"
             style="fill:#ec008c;fill-opacity:1;fill-rule:nonzero;stroke:none"
             id="path3357" /></g><g
           id="g3359"
           transform="translate(30.7877,9.5388)"><path
             d="m 0,0 c 0,-1.116 0.035,-2.574 0.035,-4.11 l -2.741,-0.483 c 0,0 0.059,2.351 0.059,4.162 0,1.309 -0.083,4.187 -0.083,4.187 L 0.142,4.262 C 0.142,4.262 0,1.32 0,0"
             style="fill:#ec008c;fill-opacity:1;fill-rule:nonzero;stroke:none"
             id="path3361" /></g><g
           id="g3363"
           transform="translate(39.2808,14.5222)"><path
             d="m 0,0 c -0.213,-2.905 -2.21,-8.742 -2.21,-8.742 l -2.99,-0.527 -2.683,7.88 c 0,0 1.726,0.28 3.109,0.583 l 1.571,-5.867 c 0,0 1.099,3.674 1.229,6.325 L 0,0 z"
             style="fill:#ec008c;fill-opacity:1;fill-rule:nonzero;stroke:none"
             id="path3365" /></g><g
           id="g3367"
           transform="translate(42.5308,9.4714)"><path
             d="m 0,0 -0.744,2.773 c 0,0 -0.414,-1.369 -0.757,-3.038 L 0,0 z m 3.936,-2.534 c 0,0 -1.726,-0.28 -3.109,-0.584 l -0.436,1.65 -2.187,-0.385 c -0.083,-0.59 -0.154,-1.179 -0.189,-1.725 l -1.974,-0.348 c 0.225,2.907 2.222,8.744 2.222,8.744 l 2.99,0.528 2.683,-7.88 z"
             style="fill:#ec008c;fill-opacity:1;fill-rule:nonzero;stroke:none"
             id="path3369" /></g><g
           id="g3371"
           transform="translate(53.1285,10.4255)"><path
             d="m 0,0 c 0,0 -0.166,-1.217 -0.189,-2.098 l -5.768,-1.015 c 0,0 0.095,2.908 0.095,4.205 0,1.823 -0.059,4.153 -0.059,4.153 L -3.132,5.737 -3.156,-0.652 0,0 z"
             style="fill:#ec008c;fill-opacity:1;fill-rule:nonzero;stroke:none"
             id="path3373" /></g><g
           id="g3375"
           transform="translate(21.4556,51.1648)"><path
             d="M 0,0 19.094,3.366 18.737,-9.381 0,-12.685 c 0.089,-6.688 0.268,-14.176 0.268,-21.878 l -20.702,-3.65 c 0,0 0.447,17.746 0.447,31.428 0,9.875 -0.624,31.6 -0.624,31.6 l 40.597,7.159 c 0.179,-6.583 1.428,-15.332 1.428,-15.332 L 0.445,13.669 C 0.268,9.289 0.089,4.727 0,0"
             style="fill:#542686;fill-opacity:1;fill-rule:nonzero;stroke:none"
             id="path3377" /></g><g
           id="g3379"
           transform="translate(120.6695,52.9207)"><path
             d="m 0,0 -14.81,-2.611 -4.639,47.302 23.595,4.161 C 2.962,29.395 0.494,12.317 0,0 m -7.404,-31.982 c -6.911,-1.218 -12.539,3.503 -12.539,10.521 0,7.118 5.628,13.724 12.539,14.942 6.911,1.219 12.538,-3.403 12.538,-10.521 0,-7.018 -5.627,-13.724 -12.538,-14.942"
             style="fill:#ec008c;fill-opacity:1;fill-rule:nonzero;stroke:none"
             id="path3381" /></g><g
           id="g3383"
           transform="translate(181.7398,44.8171)"><path
             d="m 0,0 -13.205,-2.329 c -8.477,9.378 -15.437,16.124 -24.805,27.247 0,-8.697 0.268,-19.704 0.268,-31.573 l -14.634,-2.58 c 0,0 0.357,17.73 0.357,31.503 0.089,9.8 -0.535,31.525 -0.535,31.525 l 15.436,2.722 c 0,0 22.306,-25.786 23.199,-26.715 -0.089,10.766 -0.535,30.711 -0.535,30.711 l 15.347,2.706 c 0,0 -1.072,-22.206 -1.161,-32.188 C -0.268,22.604 0,11.597 0,0"
             style="fill:#542686;fill-opacity:1;fill-rule:nonzero;stroke:none"
             id="path3385" /></g><g
           id="g3387"
           transform="translate(242.1793,91.5574)"><path
             d="m 0,0 0,-27.271 c -4.25,-0.74 -12.012,-13.071 -25.752,-15.494 -18.291,-3.225 -30.275,5.539 -30.275,27.827 0,21.836 13.459,35.537 31.482,38.714 11.332,1.998 20.605,-0.714 20.605,-0.714 L -8.673,6.825 c 0,0 -8.567,3.201 -16.24,1.849 -5.979,-1.054 -10.619,-6.131 -10.619,-19.812 0,-12.865 3.627,-18.759 10.051,-17.627 4.639,0.818 7.731,3.619 7.731,3.619 l 0,10.147 -9.5,-1.38 0,11.597 L 0,0 z"
             style="fill:#542686;fill-opacity:1;fill-rule:nonzero;stroke:none"
             id="path3389" /></g><g
           id="g3391"
           transform="translate(294.359,82.7576)"><path
             d="m 0,0 c 0,0 -1.339,-9.205 -1.428,-15.835 l -44.613,-7.866 c 0,0 0.357,17.73 0.357,31.412 0,9.875 -0.608,31.601 -0.608,31.601 l 43.112,7.598 0,-13.5 -22.054,-3.886 c -0.09,-3.368 -0.366,-14.74 -0.366,-14.74 1.785,2.308 5.35,5.293 10.257,6.158 5.443,0.959 8.029,-2.209 8.029,-5.923 0,-4.258 -3.303,-7.649 -8.21,-8.514 -3.391,-0.598 -6.069,1.558 -8.121,1.195 -1.07,-0.188 -1.962,-0.889 -1.962,-2.792 0,0 0.088,-9.316 0.088,-10.313 L 0,0 z"
             style="fill:#542686;fill-opacity:1;fill-rule:nonzero;stroke:none"
             id="path3393" /></g><g
           id="g3395"
           transform="translate(67.4146,53.7791)"><path
             d="M 0,0 C 0,4.802 -0.179,12.2 0,18.302 4.104,19.206 11.51,21.056 11.51,12.63 11.51,3.025 4.015,0.798 0,0 m 29.562,-22.319 c 0,4.153 1.496,8.149 3.98,11.389 -0.196,-0.04 -0.399,-0.079 -0.618,-0.118 -5.354,-0.943 -9.101,3.47 -11.867,8.509 4.818,3.205 10.618,10.389 10.618,19.902 0,16.218 -15.703,16.62 -30.605,14.265 L -20.7,27.789 c 0,0 0.714,-21.709 0.714,-31.585 0,-13.682 -0.447,-31.428 -0.447,-31.428 l 20.612,3.635 c 0,7.882 -0.09,12.759 -0.179,19.448 0,0 1.873,0.421 4.64,1.362 3.39,-9.912 10.618,-19.783 23.109,-17.579 1.061,0.186 1.988,0.369 2.799,0.542 -0.637,1.679 -0.986,3.529 -0.986,5.497"
             style="fill:#542686;fill-opacity:1;fill-rule:nonzero;stroke:none"
             id="path3397" /></g><g
           id="g3399"
           transform="translate(86.0709,22.4666)"><path
             d="m 0,0 0,-1.524 c 0,0 -1.819,-2.974 -1.819,-5.903 0,-0.407 0.035,-0.833 0.118,-1.226 l -2.932,-0.518 c -0.023,0.164 -0.023,0.367 -0.023,0.536 0,2.58 1.855,4.936 2.328,5.884 L -5.873,-3.378 -5.66,-1 0,0 z"
             style="fill:#542686;fill-opacity:1;fill-rule:nonzero;stroke:none"
             id="path3401" /></g></g></g></g></svg>