<?xml version="1.0" encoding="UTF-8" standalone="no"?>
<!-- Created with Inkscape (http://www.inkscape.org/) -->

<svg
   xmlns:dc="http://purl.org/dc/elements/1.1/"
   xmlns:cc="http://creativecommons.org/ns#"
   xmlns:rdf="http://www.w3.org/1999/02/22-rdf-syntax-ns#"
   xmlns:svg="http://www.w3.org/2000/svg"
   xmlns="http://www.w3.org/2000/svg"
   xmlns:sodipodi="http://sodipodi.sourceforge.net/DTD/sodipodi-0.dtd"
   xmlns:inkscape="http://www.inkscape.org/namespaces/inkscape"
   id="svg2985"
   version="1.1"
   inkscape:version="0.48.2 r9819"
   width="2061.25"
   height="922.5"
   xml:space="preserve"
   sodipodi:docname="WWFF Final Colour Logo.pdf"><metadata
     id="metadata2991"><rdf:RDF><cc:Work
         rdf:about=""><dc:format>image/svg+xml</dc:format><dc:type
           rdf:resource="http://purl.org/dc/dcmitype/StillImage" /><dc:title></dc:title></cc:Work></rdf:RDF></metadata><defs
     id="defs2989" /><sodipodi:namedview
     pagecolor="#ffffff"
     bordercolor="#666666"
     borderopacity="1"
     objecttolerance="10"
     gridtolerance="10"
     guidetolerance="10"
     inkscape:pageopacity="0"
     inkscape:pageshadow="2"
     inkscape:window-width="640"
     inkscape:window-height="480"
     id="namedview2987"
     showgrid="false"
     inkscape:zoom="0.14990904"
     inkscape:cx="1023.2662"
     inkscape:cy="464.86327"
     inkscape:window-x="0"
     inkscape:window-y="0"
     inkscape:window-maximized="0"
     inkscape:current-layer="g2993" /><g
     id="g2993"
     inkscape:groupmode="layer"
     inkscape:label="WWFF Final Colour Logo"
     transform="matrix(1.25,0,0,-1.25,0,922.5)"><g
       id="g2995"
       transform="scale(0.24,0.24)"><path
         d="m 584.637,2301.76 0,-41.32 -218.403,0 c -49.898,0 -91.546,2.35 -124.984,6.9 -33.594,4.53 -55.609,12.08 -66.023,22.67 -14.446,-6.55 -34.446,-14.79 -59.985,-24.69 -25.6951,-9.75 -48.3826,-15.97 -68.0389,-18.66 -1.3359,6.56 -2.8437,17.13 -4.8593,31.59 -2.0313,14.28 -3.6993,24.87 -4.879,31.41 14.4454,-2.69 32.0821,-1 53.0899,4.88 20.9923,5.89 36.7893,10.25 47.2073,12.93 -9.082,14.28 -13.77,29.74 -13.77,46.2 0,16.46 3.352,31.76 9.899,46.2 7.898,17.13 19.668,28.91 35.449,35.45 15.801,6.55 31.078,8.23 46.199,5.04 15.121,-3.36 27.223,-11.25 36.457,-23.68 9.238,-12.43 11.094,-29.24 5.887,-50.25 -2.52,-11.75 -7.899,-24.18 -15.801,-37.45 -7.723,-13.1 -18.297,-24.87 -31.406,-35.44 6.547,-3.88 25.191,-7.4 56.113,-10.77 30.746,-3.35 63.332,-3.52 97.43,-1.01 l 220.418,0 m -413.282,102.49 c -4.027,-9.24 -5.714,-19.83 -5.035,-31.59 0.676,-11.75 4.375,-23.02 10.918,-33.43 24.864,13.11 39.985,30.24 45.192,51.25 2.691,9.06 2.015,16.28 -1.84,21.49 -4.043,5.38 -8.906,8.58 -14.793,9.91 -6.039,1.36 -12.254,0.68 -18.817,-2.01 -6.546,-2.52 -11.753,-7.9 -15.625,-15.62"
         style="fill:#00bfc9;fill-opacity:1;fill-rule:evenodd;stroke:none"
         id="path2997" /><path
         d="m 1434.39,787.754 -433.1,-163.301 -435.126,163.301 0,1533.676 868.226,0 0,-1533.676 m -616.214,1165.586 0,-948.87 128.004,0 0,370.1 202.78,0 0,126.01 -202.78,0 0,330.63 242.26,0 0,122.13 -370.264,0"
         style="fill:#692794;fill-opacity:1;fill-rule:evenodd;stroke:none"
         id="path2999" /><path
         d="m 1041.29,2260.44 1063.28,0 0,41.3203 -1063.28,0 0,-41.3203 z"
         style="fill:#692794;fill-opacity:1;fill-rule:evenodd;stroke:none"
         id="path3001" /><path
         d="m 2412.85,787.754 -433.11,-163.301 -435.12,163.301 0,1533.676 868.23,0 0,-1533.676 m -529.53,216.716 0,362.21 186.98,-362.21 133.9,0 -202.78,387.74 c 35.46,9.24 66.03,23.68 91.56,43.36 25.53,19.65 46.2,43 61.98,69.87 15.81,26.88 27.23,55.45 34.45,85.68 7.22,30.09 10.92,60.31 10.92,90.56 0,23.52 -2.35,47.88 -6.89,72.74 -4.71,25.03 -12.76,48.23 -24.69,69.9 -11.77,21.66 -27.55,41.66 -47.2,60.13 -19.67,18.32 -44.69,33.44 -74.78,45.19 -32.91,11.93 -74.58,19.15 -124.98,21.69 -50.58,2.67 -100.8,2.67 -150.7,0 l 0,-946.86 112.23,0 m 192.86,677.21 c 2.69,-56.45 -11.42,-101.81 -42.34,-135.91 -30.75,-34.11 -80.98,-47.88 -150.52,-41.33 l 0,324.91 c 69.54,5.21 118.43,-6.55 146.66,-35.45 28.22,-28.89 43.68,-66.36 46.2,-112.22"
         style="fill:#00bfc9;fill-opacity:1;fill-rule:evenodd;stroke:none"
         id="path3003" /><path
         d="m 2019.74,2260.44 1063.28,0 0,41.3203 -1063.28,0 0,-41.3203 z"
         style="fill:#00bfc9;fill-opacity:1;fill-rule:evenodd;stroke:none"
         id="path3005" /><path
         d="m 3391.3,886.191 -433.1,-163.3 -435.13,163.3 0,1435.239 868.23,0 0,-1435.239 m -249.98,216.559 0,122.14 -125.99,0 0,704.75 125.99,0 0,122.14 -378,0 0,-122.14 126,0 0,-704.75 -126,0 0,-122.14 378,0"
         style="fill:#fcc600;fill-opacity:1;fill-rule:evenodd;stroke:none"
         id="path3007" /><path
         d="m 2998.2,2260.44 1063.28,0 0,41.3203 -1063.28,0 0,-41.3203 z"
         style="fill:#fcc600;fill-opacity:1;fill-rule:evenodd;stroke:none"
         id="path3009" /><path
         d="m 4369.76,886.191 -433.11,-163.3 -435.12,163.3 0,1435.239 868.23,0 0,-1435.239 m -267.62,216.559 119.94,0 0,951.04 -119.94,0 0,-671.32 -315,671.32 -130.04,0 0,-951.04 116.25,0 0,708.79 328.79,-708.79"
         style="fill:#db003f;fill-opacity:1;fill-rule:evenodd;stroke:none"
         id="path3011" /><path
         d="m 3976.65,2260.44 1063.28,0 0,41.3203 -1063.28,0 0,-41.3203 z"
         style="fill:#db003f;fill-opacity:1;fill-rule:evenodd;stroke:none"
         id="path3013" /><path
         d="m 5348.21,886.191 -433.1,-163.3 -435.13,163.3 0,1435.239 868.23,0 0,-1435.239 m -444.86,663.609 0,-114.23 106.34,0 c 0,-42.02 -2.67,-76.79 -7.89,-104.35 -5.2,-27.55 -12.77,-49.54 -22.69,-66.02 -9.91,-16.29 -21.66,-27.88 -35.45,-34.43 -13.77,-6.56 -29.21,-9.75 -46.2,-9.75 -40.64,1.18 -70.22,33.11 -88.69,95.43 -18.32,62.33 -26.88,145.31 -25.54,248.98 1.34,32.91 3.7,70.22 6.89,112.22 3.35,41.99 9.92,81.82 19.65,119.11 9.92,37.47 23.68,68.87 41.34,94.59 17.8,25.53 41.65,38.29 71.89,38.29 21.01,1.36 37.47,-5.53 49.24,-20.66 11.75,-15.12 20.31,-50.73 25.52,-107.18 l 122.13,0 c -1.33,87.86 -19.3,153.21 -54.09,195.88 -34.78,42.68 -82.99,62.68 -144.81,59.98 -49.72,-2.69 -90.88,-18.99 -122.97,-49.21 -32.1,-30.25 -57.47,-68.56 -75.78,-115.09 -18.47,-46.7 -31.25,-98.45 -38.47,-155.57 -7.22,-57.12 -11.43,-113.91 -12.76,-170.35 -2.69,-150.87 13.1,-266.11 47.2,-345.57 34.12,-79.31 93.25,-119.62 177.24,-120.98 40.66,0 76.79,7.9 108.37,23.53 31.41,15.8 56.95,41.33 76.77,76.77 19.65,35.45 33.77,81.82 42.34,138.94 8.39,56.96 10.75,126.84 6.88,209.67 l -226.46,0"
         style="fill:#17a62a;fill-opacity:1;fill-rule:evenodd;stroke:none"
         id="path3015" /><path
         d="m 4955.11,2260.44 1063.28,0 0,41.3203 -1063.28,0 0,-41.3203 z"
         style="fill:#17a62a;fill-opacity:1;fill-rule:evenodd;stroke:none"
         id="path3017" /><path
         d="m 6326.67,886.191 -433.11,-163.3 -435.12,163.3 0,1435.239 868.23,0 0,-1435.239 m -630,1165.589 0,-949.03 370.1,0 0,125.99 -242.08,-1.84 0,246.13 202.77,0 0,125.99 -202.77,0 0,330.62 242.08,0 0,122.14 -370.1,0"
         style="fill:#ff7b00;fill-opacity:1;fill-rule:evenodd;stroke:none"
         id="path3019" /><path
         d="m 6543.91,2301.76 c 34.09,-2.51 66.7,-2.34 97.43,1.01 30.92,3.37 49.56,6.89 56.11,10.77 -13.09,10.57 -23.51,22.34 -31.41,35.44 -7.9,13.27 -13.11,25.7 -15.8,37.45 -5.2,21.01 -3.19,37.82 5.89,50.25 9.23,12.43 21.33,20.32 36.46,23.68 15.12,3.19 30.57,1.51 46.2,-5.04 15.79,-6.54 27.55,-18.32 35.44,-35.45 6.55,-14.44 9.92,-29.74 9.92,-46.2 0,-16.46 -4.55,-31.92 -13.79,-46.2 10.42,-2.68 26.22,-7.04 47.21,-12.93 21.01,-5.88 38.82,-7.57 53.26,-4.88 -1.33,-6.54 -3.02,-17.13 -5.03,-31.41 -1.86,-14.46 -3.54,-25.03 -4.88,-31.59 -19.65,2.69 -42.34,8.91 -67.87,18.66 -25.71,9.9 -45.71,18.14 -60.15,24.69 -10.42,-10.59 -32.42,-18.14 -65.85,-22.67 -33.6,-4.55 -75.26,-6.9 -125,-6.9 l -218.56,0 0,41.32 220.42,0 m 193.02,102.49 c -4.03,7.72 -9.24,13.1 -15.79,15.62 -6.56,2.69 -12.77,3.37 -18.64,2.01 -6.06,-1.33 -10.92,-4.53 -14.79,-9.91 -4.03,-5.21 -4.71,-12.43 -2.01,-21.49 5.2,-21.01 20.32,-38.14 45.36,-51.25 6.55,10.41 10.07,21.68 10.74,33.43 0.68,11.76 -1,22.35 -4.87,31.59"
         style="fill:#00bfc9;fill-opacity:1;fill-rule:evenodd;stroke:none"
         id="path3021" /><path
         d="m 561.441,2914.84 147.379,0 50.469,-174.08 3.383,-22.3 0,-5.55 1.062,12.8 2.325,15.6 43.836,173.53 111.128,0 47.934,-195.25 0.504,6.76 2.172,14.41 51.167,174.08 146.68,0 -136.62,-400.42 -107.895,0 -55.66,185.75 -3.801,27.81 -0.504,-4.46 -0.555,-8.28 c -0.836,-8.63 -1.754,-13.63 -2.832,-15.07 l -55.519,-185.75 -107.883,0 -136.77,400.42"
         style="fill:#000000;fill-opacity:1;fill-rule:evenodd;stroke:none"
         id="path3023" /><path
         d="m 1178,2514.42 0,312.36 c 21.13,-8.07 43.14,-12.1 65.99,-12.1 23.37,0 45.42,4.03 66.1,12.1 l 0,-312.36 -132.09,0 m 39.95,366.36 c 0,13.02 4.44,23.95 13.3,32.81 8.94,8.85 19.88,13.3 32.78,13.3 12.92,0 23.82,-4.45 32.7,-13.3 8.91,-8.86 13.36,-19.79 13.36,-32.81 0,-12.94 -4.45,-23.88 -13.36,-32.78 -8.88,-8.89 -19.78,-13.34 -32.7,-13.34 -12.9,0 -23.84,4.5 -32.78,13.44 -8.86,8.86 -13.3,19.74 -13.3,32.68"
         style="fill:#000000;fill-opacity:1;fill-rule:evenodd;stroke:none"
         id="path3025" /><path
         d="m 1345.57,2514.42 0,312.36 131.62,0 0,-48.16 5.57,7.75 c 22.6,31.89 53.7,47.83 93.28,47.83 30.04,0 53.91,-10.39 71.65,-31.1 16.74,-20.01 25.07,-45.24 25.07,-75.64 l 0,-213.04 -132.53,0 -0.56,179.08 c -2.28,15.94 -11.35,23.91 -27.34,23.91 -10.11,0 -19.94,-4.83 -29.57,-14.41 l -5.57,-5.56 0,-183.02 -131.62,0"
         style="fill:#000000;fill-opacity:1;fill-rule:evenodd;stroke:none"
         id="path3027" /><path
         d="m 1918.99,2819.23 0,95.61 131.01,0 0,-400.42 -132.08,0 0,27.29 c -22.29,-23.12 -50.47,-34.7 -84.53,-34.7 -43.48,0 -77.62,18.71 -102.47,56.13 -17.85,27.1 -26.79,60.69 -26.79,100.83 0,62.71 17.47,108.91 52.33,138.61 24.56,20.76 54.27,31.15 89.17,31.15 20.01,0 40.03,-3.39 60.05,-10.11 l 13.31,-4.39 m -1.07,-97.88 c -8.53,5.52 -18.54,8.3 -30.07,8.3 -16.32,0 -28.98,-6.13 -37.92,-18.35 -7.83,-10.77 -11.72,-24.48 -11.72,-41.17 l 0,-8.94 c 0,-12.55 4.5,-23.31 13.49,-32.17 8.53,-9.31 19.08,-13.99 31.69,-13.99 10.76,0 19.89,2.64 27.34,7.88 l 7.19,5 0,93.44"
         style="fill:#000000;fill-opacity:1;fill-rule:evenodd;stroke:none"
         id="path3029" /><path
         d="m 2311.48,2806.3 0,-88.34 c -20.71,20.82 -44.03,31.2 -69.93,31.2 -8.16,0 -15.58,-2.05 -22.26,-6.21 -4.45,-4.08 -6.62,-8.72 -6.62,-13.91 0,-5.89 2.54,-10.29 7.69,-13.3 l 2.87,-1.75 10.02,-4.92 26.04,-13.45 c 45.19,-22.99 67.76,-50.97 67.76,-83.98 0,-35.26 -13.54,-62.13 -40.56,-80.73 -23.31,-15.93 -53.29,-23.9 -89.94,-23.9 -33.28,0 -64.01,4.83 -92.19,14.41 l -22.8,7.88 0,100.8 10.05,-7.19 c 14.83,-10.8 31.15,-19.51 48.94,-26.23 11.03,-4.39 19.88,-6.63 26.57,-6.63 1.52,0 2.81,0.19 3.92,0.57 15.16,2.59 22.76,9.5 22.76,20.61 0,10.66 -10.14,21.42 -30.48,32.17 l -24.02,12.74 c -39.19,21.18 -58.82,47.69 -58.82,79.57 0,35.55 15.22,62.62 45.56,81.16 19.62,11.86 43.48,17.79 71.57,17.79 33,0 63.34,-6.12 91.05,-18.31 l 22.82,-10.05"
         style="fill:#000000;fill-opacity:1;fill-rule:evenodd;stroke:none"
         id="path3031" /><path
         d="m 2354.29,2671.77 c 0,49.25 16.49,88.88 49.5,118.87 32.98,29.98 74.34,44.95 124.01,44.95 49.35,0 90.33,-14.78 123,-44.36 33.68,-30.71 50.5,-70.57 50.5,-119.46 0,-48.91 -16.44,-88.34 -49.39,-118.29 -33.42,-30.34 -74.76,-45.55 -124.11,-45.55 -49.22,0 -90.19,14.82 -122.87,44.5 -33.79,30.62 -50.64,70.43 -50.64,119.34 m 125.12,0.03 c 0,-42.21 16.13,-63.3 48.33,-63.3 15.96,0 28.42,6.5 37.37,19.52 7.41,11.02 11.16,24.87 11.16,41.61 l 0,13.3 c -1.57,7.05 -3.06,14.27 -4.5,21.68 -7.08,19.98 -21.73,29.95 -44.03,29.95 -32.2,0 -48.33,-20.9 -48.33,-62.76"
         style="fill:#000000;fill-opacity:1;fill-rule:evenodd;stroke:none"
         id="path3033" /><path
         d="m 2733.66,2514.42 0,312.36 132.09,0 0,-57.46 c 4.08,8.16 13.52,21.68 28.4,40.59 12.24,15.57 29.84,23.37 52.88,23.37 19.29,0 41.58,-6.31 66.74,-18.87 l 6.8,-3.43 -49.06,-114.61 c -14.88,11.87 -31.39,17.79 -49.49,17.79 -15.22,0 -28.04,-4.95 -38.48,-14.91 -10.43,-10.44 -16.18,-23.27 -17.24,-38.47 l -1.11,-14.41 0,-131.95 -131.53,0"
         style="fill:#000000;fill-opacity:1;fill-rule:evenodd;stroke:none"
         id="path3035" /><path
         d="m 3150.77,2914.84 147.37,0 50.47,-174.08 3.39,-22.3 0,-5.55 1.05,12.8 2.33,15.6 43.84,173.53 111.13,0 47.93,-195.25 0.51,6.76 2.16,14.41 51.17,174.08 146.68,0 -136.61,-400.42 -107.9,0 -55.66,185.75 -3.8,27.81 -0.51,-4.46 -0.55,-8.28 c -0.84,-8.63 -1.75,-13.63 -2.83,-15.07 l -55.52,-185.75 -107.88,0 -136.77,400.42"
         style="fill:#000000;fill-opacity:1;fill-rule:evenodd;stroke:none"
         id="path3037" /><path
         d="m 3894.6,2696.18 0,17.23 c 0,16.41 -9.83,24.62 -29.44,24.62 -16.39,0 -35.82,-5.55 -58.39,-16.68 -20.82,-10.05 -37.67,-21.37 -50.61,-33.98 l -17.24,-16.68 0,102.33 13.3,9.93 c 34.48,25.93 73.23,42.3 116.18,48.97 11.88,1.81 23.18,2.74 33.98,2.74 35.92,0 65.01,-9.46 87.27,-28.36 24.05,-20.02 36.1,-47.61 36.1,-82.82 l 0,-106.68 c 0,-17.85 8.19,-26.75 24.56,-26.75 l 9.36,1.07 3.44,1.11 -27.31,-81.05 -9.5,-1.06 -12.79,-1.12 -47.22,-1.07 c -1.45,0 -2.97,0 -4.5,0 -29.24,0 -50.89,6.58 -65.02,19.79 l -8.85,-5.61 c -13.39,-6.66 -24.57,-10.61 -33.46,-11.82 l -20.07,-2.73 c -2.5,-0.36 -6.77,-0.55 -12.74,-0.55 -25.12,0 -46.08,6.3 -62.79,18.9 -18.88,14.14 -28.32,33.23 -28.32,57.33 0,24.1 9.82,43.56 29.42,58.44 13.36,10.05 34.12,20.07 62.19,30.03 l 18.96,6.67 53.49,17.8 m 0,-56.03 -5.05,-2.31 -4.46,-1.63 -5.61,-2.73 -9.5,-4.46 c -20.07,-9.31 -30.07,-21.96 -30.07,-37.9 0,-17.37 8.2,-26.04 24.61,-26.04 4.07,0 8.52,1.06 13.34,3.25 l 9.41,4.48 3.94,2.83 3.39,2.74 0,61.77"
         style="fill:#000000;fill-opacity:1;fill-rule:evenodd;stroke:none"
         id="path3039" /><path
         d="m 4066.91,2514.42 131.613,0 0,400.418 -131.613,0 0,-400.418 z"
         style="fill:#000000;fill-opacity:1;fill-rule:evenodd;stroke:none"
         id="path3041" /><path
         d="m 4234.48,2514.42 0,400.42 132.08,0 0,-194.6 70.63,106.54 158.54,0 -111.77,-128.37 141.94,-183.99 -166.42,0 -93.47,150.71 0,-150.71 -131.53,0"
         style="fill:#000000;fill-opacity:1;fill-rule:evenodd;stroke:none"
         id="path3043" /><path
         d="m 4900.24,2651.14 -177.63,0 c 3.66,-34.62 31.61,-51.91 83.75,-51.91 10.38,0 21.82,1.44 34.42,4.36 8.11,1.89 23.27,6.94 45.52,15.1 l 14.5,6.69 0,-86.22 -12.88,-5.55 -31.56,-11.69 c -27.02,-9.95 -57.38,-14.91 -91.06,-14.91 -50.72,0 -91.78,14.46 -123.23,43.33 -32.96,29.71 -49.45,69.79 -49.45,120.21 0,26.75 5.56,53.07 16.68,79.06 12.65,29.98 29.47,50.19 50.51,60.57 20.71,10.44 39.77,17.52 57.24,21.24 10.38,2.17 22.38,3.24 36.06,3.24 47.31,0 84.7,-17.06 112.19,-51.21 23.68,-29.24 35.5,-65.57 35.5,-108.96 0,-3.7 0,-7.41 0,-11.11 l -0.56,-12.24 m -174.39,51.44 68.32,0 0,8.85 c -3.39,21.6 -14.28,32.4 -32.68,32.4 -9.32,0 -17.29,-2.97 -24.01,-8.85 -6.94,-6.27 -10.6,-13.91 -10.99,-23.04 l -0.64,-9.36"
         style="fill:#000000;fill-opacity:1;fill-rule:evenodd;stroke:none"
         id="path3045" /><path
         d="m 4932.97,2514.42 0,312.36 132.08,0 0,-57.46 c 4.08,8.16 13.53,21.68 28.4,40.59 12.25,15.57 29.85,23.37 52.89,23.37 19.29,0 41.58,-6.31 66.73,-18.87 l 6.81,-3.43 -49.06,-114.61 c -14.88,11.87 -31.39,17.79 -49.5,17.79 -15.21,0 -28.04,-4.95 -38.47,-14.91 -10.44,-10.44 -16.18,-23.27 -17.24,-38.47 l -1.11,-14.41 0,-131.95 -131.53,0"
         style="fill:#000000;fill-opacity:1;fill-rule:evenodd;stroke:none"
         id="path3047" /><path
         d="m 5181.95,2826.78 130.08,0 37.17,-169.94 1.62,14.93 1.25,7.16 1.07,5.58 35.54,142.27 128.34,0 -113.98,-312.36 -104.45,0 -116.64,312.36"
         style="fill:#000000;fill-opacity:1;fill-rule:evenodd;stroke:none"
         id="path3049" /><path
         d="m 5518.75,2514.42 0,312.36 c 21.13,-8.07 43.14,-12.1 65.99,-12.1 23.37,0 45.42,4.03 66.09,12.1 l 0,-312.36 -132.08,0 m 39.95,366.36 c 0,13.02 4.44,23.95 13.3,32.81 8.94,8.85 19.88,13.3 32.77,13.3 12.92,0 23.82,-4.45 32.71,-13.3 8.91,-8.86 13.35,-19.79 13.35,-32.81 0,-12.94 -4.44,-23.88 -13.35,-32.78 -8.89,-8.89 -19.79,-13.34 -32.71,-13.34 -12.89,0 -23.83,4.5 -32.77,13.44 -8.86,8.86 -13.3,19.74 -13.3,32.68"
         style="fill:#000000;fill-opacity:1;fill-rule:evenodd;stroke:none"
         id="path3051" /><path
         d="m 5686.32,2514.42 131.613,0 0,400.418 -131.613,0 0,-400.418 z"
         style="fill:#000000;fill-opacity:1;fill-rule:evenodd;stroke:none"
         id="path3053" /><path
         d="m 5853.89,2514.42 131.613,0 0,400.418 -131.613,0 0,-400.418 z"
         style="fill:#000000;fill-opacity:1;fill-rule:evenodd;stroke:none"
         id="path3055" /><path
         d="m 6325.38,2651.14 -177.64,0 c 3.67,-34.62 31.62,-51.91 83.75,-51.91 10.39,0 21.83,1.44 34.43,4.36 8.11,1.89 23.26,6.94 45.52,15.1 l 14.5,6.69 0,-86.22 -12.89,-5.55 -31.56,-11.69 c -27.01,-9.95 -57.38,-14.91 -91.06,-14.91 -50.71,0 -91.77,14.46 -123.23,43.33 -32.95,29.71 -49.44,69.79 -49.44,120.21 0,26.75 5.56,53.07 16.69,79.06 12.63,29.98 29.46,50.19 50.5,60.57 20.71,10.44 39.77,17.52 57.24,21.24 10.38,2.17 22.38,3.24 36.06,3.24 47.3,0 84.7,-17.06 112.18,-51.21 23.68,-29.24 35.51,-65.57 35.51,-108.96 0,-3.7 0,-7.41 0,-11.11 l -0.56,-12.24 m -174.39,51.44 68.31,0 0,8.85 c -3.38,21.6 -14.26,32.4 -32.67,32.4 -9.32,0 -17.29,-2.97 -24.01,-8.85 -6.94,-6.27 -10.61,-13.91 -10.99,-23.04 l -0.64,-9.36"
         style="fill:#000000;fill-opacity:1;fill-rule:evenodd;stroke:none"
         id="path3057" /><path
         d="m 438.055,124.074 9.929,0 10,1.11 c 37.832,4.082 56.688,30.035 56.688,77.918 l 0,350.73 147.687,0 0,-399.723 C 662.359,104.75 649.445,67.1641 623.578,41.3125 597.258,15.3086 559.48,2.33984 510.227,2.33984 l -24.43,0 -11.684,0.55469 -8.383,0.50391 -27.675,120.67556"
         style="fill:#000000;fill-opacity:1;fill-rule:evenodd;stroke:none"
         id="path3059" /><path
         d="m 698.23,251.156 0,214.621 131.614,0 1.078,-183.386 c 3.367,-14.828 13.191,-22.239 29.461,-22.239 6.351,0 12.101,1.473 17.238,4.442 l 13.871,10.609 2.867,3.387 0,187.187 131.531,0 0,-312.363 -132.089,0 0,48.332 -4.496,-6.664 c -16.266,-24.516 -32.535,-38.613 -48.801,-42.309 -21.18,-4.828 -36.008,-7.242 -44.481,-7.242 -30.414,0 -54.46,10.192 -72.308,30.539 -16.996,19.289 -25.485,44.305 -25.485,75.086"
         style="fill:#000000;fill-opacity:1;fill-rule:evenodd;stroke:none"
         id="path3061" /><path
         d="m 1061.56,153.414 131.613,0 0,400.418 -131.613,0 0,-400.418 z"
         style="fill:#000000;fill-opacity:1;fill-rule:evenodd;stroke:none"
         id="path3063" /><path
         d="m 1197.15,9.28125 105.63,203.45675 -105.07,253.039 142.83,0 31.25,-126.113 c 1.06,-2.949 1.61,-7.777 1.61,-14.355 l 0.51,6.109 c 0.74,8.109 2.41,15.297 5.05,21.562 l 46.72,112.797 124.62,0 -209.76,-456.49575 -143.39,0"
         style="fill:#000000;fill-opacity:1;fill-rule:evenodd;stroke:none"
         id="path3065" /><path
         d="m 1709.81,153.414 0,2.727 c 48.11,52.293 80.12,88.574 96.08,108.922 42.2,54.082 63.34,95.781 63.34,125.07 0,17.015 -5.74,31.25 -17.23,42.742 -11.83,11.113 -26.29,16.684 -43.3,16.684 l -11.11,0 c -7.05,-1.821 -14.83,-3.852 -23.32,-6.125 -14.13,-3.336 -27.12,-17.051 -38.97,-41.114 l -6.64,-13.297 0,122.36 c 19.66,17.051 38.53,29.289 56.74,36.703 17.69,7.082 39.2,11.16 64.41,12.223 l 13.3,0.57 c 3.02,0 5.99,0 8.99,0 37.73,0 68.45,-11.684 92.28,-35.051 25.48,-25.156 38.23,-58.715 38.23,-100.609 l 0,-17.239 c -0.37,-3.332 -1.06,-7.222 -2.18,-11.683 l -6.63,-26.18 c -6.72,-26.234 -25.07,-55.14 -55.1,-86.754 l -10.56,-10.992 -7.74,-7.863 -8.3,-7.742 124.43,0 0,-103.352 -326.72,0"
         style="fill:#000000;fill-opacity:1;fill-rule:evenodd;stroke:none"
         id="path3067" /><path
         d="m 2065.77,353.676 c 0,57.465 12.79,104.965 38.41,142.445 29.29,43.438 71.37,65.125 126.25,65.125 54.45,0 96.34,-21.875 125.68,-65.68 25.54,-37.48 38.28,-84.808 38.28,-141.89 0,-56.824 -12.74,-104.149 -38.28,-142.016 -29.65,-43.785 -71.42,-65.66 -125.17,-65.66 -30.04,0 -54.5,5.141 -73.4,15.469 -19.29,10.07 -37.45,27.761 -54.47,53.023 -24.87,36.336 -37.3,82.723 -37.3,139.184 m 127.25,-0.055 0.56,-10.051 c 0,-7.101 0.8,-20.121 2.32,-39.113 2.97,-29.34 14.46,-43.992 34.48,-43.992 15.57,0 26.1,9.094 31.6,27.254 3.02,9.687 4.5,28.125 4.5,55.297 l 0,27.898 c 0,28.594 -5,50.191 -15.06,64.688 -5.13,7.464 -12.19,11.164 -21.04,11.164 -15.57,0 -26.51,-12.137 -32.86,-36.371 -2.17,-7.797 -3.47,-20.575 -3.94,-38.368 l -0.56,-18.406"
         style="fill:#000000;fill-opacity:1;fill-rule:evenodd;stroke:none"
         id="path3069" /><path
         d="m 2583.4,268.344 158.957,0 0,95 -158.957,0 0,-95 z"
         style="fill:#000000;fill-opacity:1;fill-rule:evenodd;stroke:none"
         id="path3071" /><path
         d="m 2864.23,124.074 9.94,0 10,1.11 c 37.83,4.082 56.68,30.035 56.68,77.918 l 0,350.73 147.69,0 0,-399.723 c 0,-49.359 -12.91,-86.9449 -38.78,-112.7965 -26.32,-26.0039 -64.1,-38.97266 -113.35,-38.97266 l -24.43,0 -11.68,0.55469 -8.39,0.50391 -27.68,120.67556"
         style="fill:#000000;fill-opacity:1;fill-rule:evenodd;stroke:none"
         id="path3073" /><path
         d="m 3124.41,251.156 0,214.621 131.61,0 1.08,-183.386 c 3.37,-14.828 13.2,-22.239 29.46,-22.239 6.36,0 12.1,1.473 17.24,4.442 l 13.87,10.609 2.87,3.387 0,187.187 131.53,0 0,-312.363 -132.09,0 0,48.332 -4.5,-6.664 c -16.26,-24.516 -32.53,-38.613 -48.8,-42.309 -21.18,-4.828 -36,-7.242 -44.48,-7.242 -30.41,0 -54.46,10.192 -72.31,30.539 -16.99,19.289 -25.48,44.305 -25.48,75.086"
         style="fill:#000000;fill-opacity:1;fill-rule:evenodd;stroke:none"
         id="path3075" /><path
         d="m 3487.74,153.414 131.617,0 0,400.418 -131.617,0 0,-400.418 z"
         style="fill:#000000;fill-opacity:1;fill-rule:evenodd;stroke:none"
         id="path3077" /><path
         d="m 3623.33,9.28125 105.63,203.45675 -105.07,253.039 142.83,0 31.25,-126.113 c 1.06,-2.949 1.61,-7.777 1.61,-14.355 l 0.51,6.109 c 0.74,8.109 2.41,15.297 5.05,21.562 l 46.72,112.797 124.62,0 -209.76,-456.49575 -143.39,0"
         style="fill:#000000;fill-opacity:1;fill-rule:evenodd;stroke:none"
         id="path3079" /><path
         d="m 4145.26,183.031 0,101.215 10.56,-8.383 c 28.5,-22.621 56.82,-33.925 85.05,-33.925 13.63,0 25.29,2.777 34.98,8.386 11.82,6.614 17.76,16.266 17.76,28.906 0,25.504 -18.35,38.247 -55.07,38.247 l -7.72,0 c -14.46,0 -29.48,-3.524 -45,-10.575 l 0,100.575 c 11.11,-5.606 23.12,-8.438 36.04,-8.438 44.5,0 66.73,13.074 66.73,39.203 0,11.91 -5.41,21.266 -16.16,28.004 -8.85,5.555 -19.76,8.332 -32.67,8.332 -20.77,0 -39.67,-5.383 -56.69,-16.129 -7.74,-4.914 -15.9,-11.441 -24.37,-19.652 l -8.94,-8.332 -4.5,-3.942 0,104.739 10.05,4.496 c 38.51,16.996 79.57,25.488 123.23,25.488 76.29,0 124.62,-24.098 144.97,-72.344 6.3,-14.879 9.46,-29.531 9.46,-44.031 0,-29.652 -10.58,-52.273 -31.7,-67.844 -9.6,-7.086 -18.63,-11.964 -27.12,-14.55 29.2,-2.637 50.28,-16.512 63.3,-41.668 8.49,-16.266 12.76,-32.032 12.76,-47.188 0,-44.476 -20.76,-78.781 -62.24,-102.828 -27.4,-15.902 -61.24,-23.871 -101.55,-23.871 -56.31,0 -103.4,12.047 -141.16,36.109"
         style="fill:#000000;fill-opacity:1;fill-rule:evenodd;stroke:none"
         id="path3081" /><path
         d="m 4491.96,353.676 c 0,57.465 12.8,104.965 38.42,142.445 29.29,43.438 71.37,65.125 126.25,65.125 54.45,0 96.34,-21.875 125.68,-65.68 25.54,-37.48 38.28,-84.808 38.28,-141.89 0,-56.824 -12.74,-104.149 -38.28,-142.016 -29.65,-43.785 -71.42,-65.66 -125.17,-65.66 -30.04,0 -54.5,5.141 -73.41,15.469 -19.28,10.07 -37.44,27.761 -54.46,53.023 -24.88,36.336 -37.31,82.723 -37.31,139.184 m 127.26,-0.055 0.55,-10.051 c 0,-7.101 0.8,-20.121 2.33,-39.113 2.97,-29.34 14.46,-43.992 34.48,-43.992 15.57,0 26.09,9.094 31.6,27.254 3.02,9.687 4.49,28.125 4.49,55.297 l 0,27.898 c 0,28.594 -5,50.191 -15.05,64.688 -5.14,7.464 -12.19,11.164 -21.04,11.164 -15.57,0 -26.51,-12.137 -32.87,-36.371 -2.16,-7.797 -3.47,-20.575 -3.94,-38.368 l -0.55,-18.406"
         style="fill:#000000;fill-opacity:1;fill-rule:evenodd;stroke:none"
         id="path3083" /><path
         d="m 4851.34,43.293 0,36.6679 c 15.93,10.7969 25.02,25.0661 27.29,42.9141 0.75,5.887 1.06,11.824 1.06,17.797 0,4.41 -0.51,9.219 -1.62,14.355 -20.07,11.496 -30.12,28.926 -30.12,52.293 0,16.719 5.37,31.043 16.13,42.899 10.8,11.496 24.51,17.242 41.15,17.242 19.6,0 35.17,-7.969 46.66,-23.906 10.44,-14.082 15.63,-31.34 15.63,-51.719 0,-34.844 -14.41,-68.961 -43.29,-102.379 -17.09,-20.0195 -37.16,-33.8711 -60.12,-41.6679 l -12.77,-4.4961"
         style="fill:#000000;fill-opacity:1;fill-rule:evenodd;stroke:none"
         id="path3085" /><path
         d="m 5157.81,153.414 0,2.727 c 48.11,52.293 80.12,88.574 96.08,108.922 42.2,54.082 63.35,95.781 63.35,125.07 0,17.015 -5.75,31.25 -17.24,42.742 -11.82,11.113 -26.29,16.684 -43.3,16.684 l -11.11,0 c -7.05,-1.821 -14.82,-3.852 -23.32,-6.125 -14.13,-3.336 -27.11,-17.051 -38.97,-41.114 l -6.63,-13.297 0,122.36 c 19.65,17.051 38.52,29.289 56.73,36.703 17.69,7.082 39.21,11.16 64.41,12.223 l 13.3,0.57 c 3.02,0 5.99,0 9,0 37.72,0 68.45,-11.684 92.27,-35.051 25.48,-25.156 38.23,-58.715 38.23,-100.609 l 0,-17.239 c -0.37,-3.332 -1.06,-7.222 -2.17,-11.683 l -6.64,-26.18 c -6.71,-26.234 -25.06,-55.14 -55.1,-86.754 l -10.56,-10.992 -7.74,-7.863 -8.29,-7.742 124.42,0 0,-103.352 -326.72,0"
         style="fill:#000000;fill-opacity:1;fill-rule:evenodd;stroke:none"
         id="path3087" /><path
         d="m 5513.77,353.676 c 0,57.465 12.79,104.965 38.42,142.445 29.29,43.438 71.37,65.125 126.25,65.125 54.44,0 96.33,-21.875 125.67,-65.68 25.54,-37.48 38.28,-84.808 38.28,-141.89 0,-56.824 -12.74,-104.149 -38.28,-142.016 -29.65,-43.785 -71.42,-65.66 -125.17,-65.66 -30.03,0 -54.49,5.141 -73.4,15.469 -19.29,10.07 -37.45,27.761 -54.46,53.023 -24.88,36.336 -37.31,82.723 -37.31,139.184 m 127.25,-0.055 0.56,-10.051 c 0,-7.101 0.8,-20.121 2.33,-39.113 2.97,-29.34 14.46,-43.992 34.48,-43.992 15.57,0 26.09,9.094 31.59,27.254 3.02,9.687 4.5,28.125 4.5,55.297 l 0,27.898 c 0,28.594 -5,50.191 -15.05,64.688 -5.14,7.464 -12.19,11.164 -21.04,11.164 -15.58,0 -26.51,-12.137 -32.87,-36.371 -2.17,-7.797 -3.47,-20.575 -3.94,-38.368 l -0.56,-18.406"
         style="fill:#000000;fill-opacity:1;fill-rule:evenodd;stroke:none"
         id="path3089" /><path
         d="m 5900.89,153.414 139.965,0 0,400.418 -139.965,0 0,-400.418 z"
         style="fill:#000000;fill-opacity:1;fill-rule:evenodd;stroke:none"
         id="path3091" /><path
         d="m 6079.58,448.621 0,105.211 329.99,0 -177.84,-400.418 -144.4,0 128.97,280.156 c 4.08,8.942 9.97,16.024 17.76,21.18 l -12.9,-3.941 c -4.77,-1.438 -9.02,-2.188 -12.74,-2.188 l -128.84,0"
         style="fill:#000000;fill-opacity:1;fill-rule:evenodd;stroke:none"
         id="path3093" /></g></g></svg>